M48
; DRILL file {KiCad (5.1.5-0-10_14)} date 2020 September 18, Friday 07:25:39
; FORMAT={-:-/ absolute / inch / decimal}
; #@! TF.CreationDate,2020-09-18T07:25:39+02:00
; #@! TF.GenerationSoftware,Kicad,Pcbnew,(5.1.5-0-10_14)
FMAT,2
INCH
T1C0.0157
T2C0.0236
T3C0.0394
T4C0.0433
%
G90
G05
T1
X0.6425Y-0.6787
X0.7874Y-1.2795
X0.7874Y-1.6732
X0.7874Y-1.7717
X0.8858Y-1.2795
X0.8858Y-1.378
X0.8858Y-1.4764
X0.8858Y-1.5748
X0.8858Y-1.6732
X0.8858Y-1.6732
X0.8858Y-1.7717
X0.9843Y-1.2795
X0.9843Y-1.378
X0.9843Y-1.4764
X0.9843Y-1.5748
X0.9843Y-1.6732
X0.9843Y-1.7717
X1.0759Y-1.15
X1.0827Y-1.2795
X1.0827Y-1.378
X1.0827Y-1.4764
X1.0827Y-1.5748
X1.0827Y-1.6732
X1.0827Y-1.7717
X1.1793Y-1.0766
X1.1811Y-1.2795
X1.1811Y-1.378
X1.1811Y-1.4764
X1.1811Y-1.5748
X1.1811Y-1.6732
X1.1811Y-1.7717
X1.1873Y-1.0254
X1.2154Y-0.6043
X1.2795Y-1.2795
X1.2795Y-1.378
X1.2795Y-1.4764
X1.2795Y-1.5748
X1.2795Y-1.6732
X1.2795Y-1.7717
X1.3019Y-0.8738
X1.3585Y-2.2565
X1.4395Y-1.1391
X1.5233Y-1.1628
X1.5402Y-1.2114
X1.5858Y-0.9364
X1.5923Y-1.3678
X1.5931Y-1.8306
X1.5956Y-0.897
X1.5964Y-1.5394
X1.598Y-1.2964
X1.6188Y-1.6855
X1.6209Y-1.3964
X1.6308Y-1.4478
X1.6315Y-1.7252
X1.635Y-0.9024
X1.6379Y-2.0422
X1.6385Y-1.3393
X1.6417Y-2.3016
X1.644Y-0.9423
X1.6701Y-1.0211
X1.6958Y-1.0909
X1.703Y-1.7907
X1.7181Y-0.9884
X1.7366Y-2.0756
X1.7424Y-0.9194
X1.8165Y-2.1121
X1.8549Y-1.4767
X1.8565Y-0.9746
X1.8949Y-1.0195
X1.9038Y-0.9801
X1.9167Y-0.8951
X1.923Y-0.631
X1.9244Y-1.0896
X1.9295Y-1.9256
X1.9496Y-2.4878
X1.9529Y-0.7199
X1.9616Y-1.1791
X1.9624Y-1.3267
X2.0097Y-1.8874
X2.0354Y-0.9717
X2.0413Y-1.9213
X2.0729Y-1.6315
X2.074Y-1.4555
X2.0754Y-1.3523
X2.0987Y-1.9595
X2.1003Y-0.6805
X2.1285Y-1.6851
X2.1335Y-2.4776
X2.1696Y-1.04
X2.2072Y-1.6468
X2.2153Y-1.8932
X2.2276Y-0.9774
X2.286Y-2.1378
X2.3893Y-1.1965
X2.4815Y-0.9224
X2.4815Y-1.0551
X2.4815Y-1.1831
X2.5014Y-2.1758
X0.6433Y-1.1154
X0.8008Y-1.1154
X0.8795Y-1.1154
X0.9583Y-1.1154
T2
X0.722Y-1.1154
X1.037Y-1.1154
T3
X1.0354Y-2.3461
X1.0354Y-2.4461
X1.8677Y-2.3476
X1.8677Y-2.4476
X1.0094Y-0.5819
X1.0094Y-0.6819
X1.0094Y-0.7819
X1.0094Y-0.8819
X0.6315Y-2.0169
X0.7315Y-2.0169
X0.8315Y-2.0169
X0.9315Y-2.0169
X1.0315Y-2.0169
X1.1315Y-2.0169
T4
X0.6079Y-0.5917
X0.6079Y-0.7689
X0.8638Y-0.5917
X0.8638Y-0.7689
X1.4583Y-2.2217
X1.4583Y-2.4776
X1.6354Y-2.2217
X1.6354Y-2.4776
X2.2378Y-0.5878
X2.2378Y-0.765
X2.4937Y-0.5878
X2.4937Y-0.765
X0.6039Y-2.3004
X0.6039Y-2.4776
X0.8598Y-2.3004
X0.8598Y-2.4776
X2.2378Y-2.3004
X2.2378Y-2.4776
X2.4937Y-2.3004
X2.4937Y-2.4776
T0
M30
