G04 #@! TF.GenerationSoftware,KiCad,Pcbnew,(5.1.5-0-10_14)*
G04 #@! TF.CreationDate,2020-08-15T08:38:21+02:00*
G04 #@! TF.ProjectId,HB-RC-4-Dis-TH,48422d52-432d-4342-9d44-69732d54482e,rev?*
G04 #@! TF.SameCoordinates,Original*
G04 #@! TF.FileFunction,Legend,Top*
G04 #@! TF.FilePolarity,Positive*
%FSLAX46Y46*%
G04 Gerber Fmt 4.6, Leading zero omitted, Abs format (unit mm)*
G04 Created by KiCad (PCBNEW (5.1.5-0-10_14)) date 2020-08-15 08:38:21*
%MOMM*%
%LPD*%
G04 APERTURE LIST*
%ADD10C,0.120000*%
%ADD11C,0.150000*%
G04 APERTURE END LIST*
D10*
X32600000Y-90300000D02*
X32600000Y-80300000D01*
X44600000Y-90300000D02*
X32600000Y-90300000D01*
X44600000Y-80300000D02*
X44600000Y-90300000D01*
X32600000Y-80300000D02*
X44600000Y-80300000D01*
X59700000Y-90500000D02*
X59700000Y-122500000D01*
X27750000Y-122500000D02*
X27750000Y-90500000D01*
X65500000Y-122500000D02*
X27750000Y-122500000D01*
X65500000Y-90500000D02*
X65500000Y-122500000D01*
X27750000Y-90500000D02*
X65500000Y-90500000D01*
X47000000Y-124250000D02*
X45500000Y-124250000D01*
X43000000Y-125500000D02*
X43000000Y-130000000D01*
X45500000Y-131250000D02*
X47000000Y-131250000D01*
X49500000Y-130000000D02*
X49500000Y-125500000D01*
X71650000Y-129900000D02*
X71650000Y-128400000D01*
X70400000Y-125900000D02*
X65900000Y-125900000D01*
X64650000Y-128400000D02*
X64650000Y-129900000D01*
X65900000Y-132400000D02*
X70400000Y-132400000D01*
X28350000Y-129900000D02*
X28350000Y-128400000D01*
X27100000Y-125900000D02*
X22600000Y-125900000D01*
X21350000Y-128400000D02*
X21350000Y-129900000D01*
X22600000Y-132400000D02*
X27100000Y-132400000D01*
X64650000Y-83100000D02*
X64650000Y-84600000D01*
X65900000Y-87100000D02*
X70400000Y-87100000D01*
X71650000Y-84600000D02*
X71650000Y-83100000D01*
X70400000Y-80600000D02*
X65900000Y-80600000D01*
X21350000Y-83100000D02*
X21350000Y-84600000D01*
X22600000Y-87100000D02*
X27100000Y-87100000D01*
X28350000Y-84600000D02*
X28350000Y-83100000D01*
X27100000Y-80600000D02*
X22600000Y-80600000D01*
D11*
X43850000Y-99000000D02*
X43850000Y-99500000D01*
X43850000Y-116000000D02*
X43850000Y-115500000D01*
X25350000Y-104000000D02*
G75*
G03X25350000Y-104000000I-500000J0D01*
G01*
X25350000Y-109000000D02*
G75*
G03X25350000Y-109000000I-500000J0D01*
G01*
X25350000Y-106500000D02*
G75*
G03X25350000Y-106500000I-500000J0D01*
G01*
X43850000Y-116000000D02*
X23850000Y-116000000D01*
X23850000Y-116000000D02*
X23850000Y-99000000D01*
X23850000Y-99000000D02*
X43850000Y-99000000D01*
D10*
X61620000Y-98830000D02*
X59900000Y-98830000D01*
X61620000Y-114170000D02*
X61620000Y-98830000D01*
X59900000Y-114170000D02*
X61620000Y-114170000D01*
X55780000Y-112700000D02*
X54600000Y-112700000D01*
X55780000Y-114170000D02*
X55780000Y-112700000D01*
X57100000Y-114170000D02*
X55780000Y-114170000D01*
X55780000Y-98830000D02*
X57100000Y-98830000D01*
X55780000Y-100300000D02*
X55780000Y-98830000D01*
X32940000Y-81190000D02*
X34000000Y-81190000D01*
X32940000Y-82250000D02*
X32940000Y-81190000D01*
X32940000Y-83250000D02*
X35060000Y-83250000D01*
X35060000Y-83250000D02*
X35060000Y-89310000D01*
X32940000Y-83250000D02*
X32940000Y-89310000D01*
X32940000Y-89310000D02*
X35060000Y-89310000D01*
X51960000Y-129460000D02*
X51960000Y-126600000D01*
X50040000Y-129460000D02*
X51960000Y-129460000D01*
X50040000Y-126600000D02*
X50040000Y-129460000D01*
X42460000Y-129460000D02*
X42460000Y-126600000D01*
X40540000Y-129460000D02*
X42460000Y-129460000D01*
X40540000Y-126600000D02*
X40540000Y-129460000D01*
D11*
X42404761Y-129083333D02*
X42452380Y-128940476D01*
X42452380Y-128702380D01*
X42404761Y-128607142D01*
X42357142Y-128559523D01*
X42261904Y-128511904D01*
X42166666Y-128511904D01*
X42071428Y-128559523D01*
X42023809Y-128607142D01*
X41976190Y-128702380D01*
X41928571Y-128892857D01*
X41880952Y-128988095D01*
X41833333Y-129035714D01*
X41738095Y-129083333D01*
X41642857Y-129083333D01*
X41547619Y-129035714D01*
X41500000Y-128988095D01*
X41452380Y-128892857D01*
X41452380Y-128654761D01*
X41500000Y-128511904D01*
X41452380Y-128178571D02*
X42452380Y-127940476D01*
X41738095Y-127750000D01*
X42452380Y-127559523D01*
X41452380Y-127321428D01*
X41452380Y-126464285D02*
X41452380Y-126940476D01*
X41928571Y-126988095D01*
X41880952Y-126940476D01*
X41833333Y-126845238D01*
X41833333Y-126607142D01*
X41880952Y-126511904D01*
X41928571Y-126464285D01*
X42023809Y-126416666D01*
X42261904Y-126416666D01*
X42357142Y-126464285D01*
X42404761Y-126511904D01*
X42452380Y-126607142D01*
X42452380Y-126845238D01*
X42404761Y-126940476D01*
X42357142Y-126988095D01*
X66816666Y-125304761D02*
X66959523Y-125352380D01*
X67197619Y-125352380D01*
X67292857Y-125304761D01*
X67340476Y-125257142D01*
X67388095Y-125161904D01*
X67388095Y-125066666D01*
X67340476Y-124971428D01*
X67292857Y-124923809D01*
X67197619Y-124876190D01*
X67007142Y-124828571D01*
X66911904Y-124780952D01*
X66864285Y-124733333D01*
X66816666Y-124638095D01*
X66816666Y-124542857D01*
X66864285Y-124447619D01*
X66911904Y-124400000D01*
X67007142Y-124352380D01*
X67245238Y-124352380D01*
X67388095Y-124400000D01*
X67721428Y-124352380D02*
X67959523Y-125352380D01*
X68150000Y-124638095D01*
X68340476Y-125352380D01*
X68578571Y-124352380D01*
X69388095Y-124685714D02*
X69388095Y-125352380D01*
X69150000Y-124304761D02*
X68911904Y-125019047D01*
X69530952Y-125019047D01*
X23516666Y-125304761D02*
X23659523Y-125352380D01*
X23897619Y-125352380D01*
X23992857Y-125304761D01*
X24040476Y-125257142D01*
X24088095Y-125161904D01*
X24088095Y-125066666D01*
X24040476Y-124971428D01*
X23992857Y-124923809D01*
X23897619Y-124876190D01*
X23707142Y-124828571D01*
X23611904Y-124780952D01*
X23564285Y-124733333D01*
X23516666Y-124638095D01*
X23516666Y-124542857D01*
X23564285Y-124447619D01*
X23611904Y-124400000D01*
X23707142Y-124352380D01*
X23945238Y-124352380D01*
X24088095Y-124400000D01*
X24421428Y-124352380D02*
X24659523Y-125352380D01*
X24850000Y-124638095D01*
X25040476Y-125352380D01*
X25278571Y-124352380D01*
X25564285Y-124352380D02*
X26183333Y-124352380D01*
X25850000Y-124733333D01*
X25992857Y-124733333D01*
X26088095Y-124780952D01*
X26135714Y-124828571D01*
X26183333Y-124923809D01*
X26183333Y-125161904D01*
X26135714Y-125257142D01*
X26088095Y-125304761D01*
X25992857Y-125352380D01*
X25707142Y-125352380D01*
X25611904Y-125304761D01*
X25564285Y-125257142D01*
X66816666Y-88504761D02*
X66959523Y-88552380D01*
X67197619Y-88552380D01*
X67292857Y-88504761D01*
X67340476Y-88457142D01*
X67388095Y-88361904D01*
X67388095Y-88266666D01*
X67340476Y-88171428D01*
X67292857Y-88123809D01*
X67197619Y-88076190D01*
X67007142Y-88028571D01*
X66911904Y-87980952D01*
X66864285Y-87933333D01*
X66816666Y-87838095D01*
X66816666Y-87742857D01*
X66864285Y-87647619D01*
X66911904Y-87600000D01*
X67007142Y-87552380D01*
X67245238Y-87552380D01*
X67388095Y-87600000D01*
X67721428Y-87552380D02*
X67959523Y-88552380D01*
X68150000Y-87838095D01*
X68340476Y-88552380D01*
X68578571Y-87552380D01*
X68911904Y-87647619D02*
X68959523Y-87600000D01*
X69054761Y-87552380D01*
X69292857Y-87552380D01*
X69388095Y-87600000D01*
X69435714Y-87647619D01*
X69483333Y-87742857D01*
X69483333Y-87838095D01*
X69435714Y-87980952D01*
X68864285Y-88552380D01*
X69483333Y-88552380D01*
X23516666Y-88504761D02*
X23659523Y-88552380D01*
X23897619Y-88552380D01*
X23992857Y-88504761D01*
X24040476Y-88457142D01*
X24088095Y-88361904D01*
X24088095Y-88266666D01*
X24040476Y-88171428D01*
X23992857Y-88123809D01*
X23897619Y-88076190D01*
X23707142Y-88028571D01*
X23611904Y-87980952D01*
X23564285Y-87933333D01*
X23516666Y-87838095D01*
X23516666Y-87742857D01*
X23564285Y-87647619D01*
X23611904Y-87600000D01*
X23707142Y-87552380D01*
X23945238Y-87552380D01*
X24088095Y-87600000D01*
X24421428Y-87552380D02*
X24659523Y-88552380D01*
X24850000Y-87838095D01*
X25040476Y-88552380D01*
X25278571Y-87552380D01*
X26183333Y-88552380D02*
X25611904Y-88552380D01*
X25897619Y-88552380D02*
X25897619Y-87552380D01*
X25802380Y-87695238D01*
X25707142Y-87790476D01*
X25611904Y-87838095D01*
X30654761Y-106907142D02*
X30607142Y-106954761D01*
X30464285Y-107002380D01*
X30369047Y-107002380D01*
X30226190Y-106954761D01*
X30130952Y-106859523D01*
X30083333Y-106764285D01*
X30035714Y-106573809D01*
X30035714Y-106430952D01*
X30083333Y-106240476D01*
X30130952Y-106145238D01*
X30226190Y-106050000D01*
X30369047Y-106002380D01*
X30464285Y-106002380D01*
X30607142Y-106050000D01*
X30654761Y-106097619D01*
X31654761Y-106907142D02*
X31607142Y-106954761D01*
X31464285Y-107002380D01*
X31369047Y-107002380D01*
X31226190Y-106954761D01*
X31130952Y-106859523D01*
X31083333Y-106764285D01*
X31035714Y-106573809D01*
X31035714Y-106430952D01*
X31083333Y-106240476D01*
X31130952Y-106145238D01*
X31226190Y-106050000D01*
X31369047Y-106002380D01*
X31464285Y-106002380D01*
X31607142Y-106050000D01*
X31654761Y-106097619D01*
X32607142Y-107002380D02*
X32035714Y-107002380D01*
X32321428Y-107002380D02*
X32321428Y-106002380D01*
X32226190Y-106145238D01*
X32130952Y-106240476D01*
X32035714Y-106288095D01*
X33559523Y-107002380D02*
X32988095Y-107002380D01*
X33273809Y-107002380D02*
X33273809Y-106002380D01*
X33178571Y-106145238D01*
X33083333Y-106240476D01*
X32988095Y-106288095D01*
X34178571Y-106002380D02*
X34273809Y-106002380D01*
X34369047Y-106050000D01*
X34416666Y-106097619D01*
X34464285Y-106192857D01*
X34511904Y-106383333D01*
X34511904Y-106621428D01*
X34464285Y-106811904D01*
X34416666Y-106907142D01*
X34369047Y-106954761D01*
X34273809Y-107002380D01*
X34178571Y-107002380D01*
X34083333Y-106954761D01*
X34035714Y-106907142D01*
X33988095Y-106811904D01*
X33940476Y-106621428D01*
X33940476Y-106383333D01*
X33988095Y-106192857D01*
X34035714Y-106097619D01*
X34083333Y-106050000D01*
X34178571Y-106002380D01*
X35464285Y-107002380D02*
X34892857Y-107002380D01*
X35178571Y-107002380D02*
X35178571Y-106002380D01*
X35083333Y-106145238D01*
X34988095Y-106240476D01*
X34892857Y-106288095D01*
X58066666Y-96102380D02*
X58066666Y-96816666D01*
X58019047Y-96959523D01*
X57923809Y-97054761D01*
X57780952Y-97102380D01*
X57685714Y-97102380D01*
X58447619Y-96102380D02*
X59066666Y-96102380D01*
X58733333Y-96483333D01*
X58876190Y-96483333D01*
X58971428Y-96530952D01*
X59019047Y-96578571D01*
X59066666Y-96673809D01*
X59066666Y-96911904D01*
X59019047Y-97007142D01*
X58971428Y-97054761D01*
X58876190Y-97102380D01*
X58590476Y-97102380D01*
X58495238Y-97054761D01*
X58447619Y-97007142D01*
X37157142Y-85604761D02*
X37300000Y-85652380D01*
X37538095Y-85652380D01*
X37633333Y-85604761D01*
X37680952Y-85557142D01*
X37728571Y-85461904D01*
X37728571Y-85366666D01*
X37680952Y-85271428D01*
X37633333Y-85223809D01*
X37538095Y-85176190D01*
X37347619Y-85128571D01*
X37252380Y-85080952D01*
X37204761Y-85033333D01*
X37157142Y-84938095D01*
X37157142Y-84842857D01*
X37204761Y-84747619D01*
X37252380Y-84700000D01*
X37347619Y-84652380D01*
X37585714Y-84652380D01*
X37728571Y-84700000D01*
X38157142Y-85652380D02*
X38157142Y-84652380D01*
X38157142Y-85128571D02*
X38728571Y-85128571D01*
X38728571Y-85652380D02*
X38728571Y-84652380D01*
X39061904Y-84652380D02*
X39633333Y-84652380D01*
X39347619Y-85652380D02*
X39347619Y-84652380D01*
X39871428Y-84652380D02*
X40490476Y-84652380D01*
X40157142Y-85033333D01*
X40300000Y-85033333D01*
X40395238Y-85080952D01*
X40442857Y-85128571D01*
X40490476Y-85223809D01*
X40490476Y-85461904D01*
X40442857Y-85557142D01*
X40395238Y-85604761D01*
X40300000Y-85652380D01*
X40014285Y-85652380D01*
X39919047Y-85604761D01*
X39871428Y-85557142D01*
X41442857Y-85652380D02*
X40871428Y-85652380D01*
X41157142Y-85652380D02*
X41157142Y-84652380D01*
X41061904Y-84795238D01*
X40966666Y-84890476D01*
X40871428Y-84938095D01*
X51491380Y-131711095D02*
X50491380Y-131711095D01*
X50491380Y-131473000D01*
X50539000Y-131330142D01*
X50634238Y-131234904D01*
X50729476Y-131187285D01*
X50919952Y-131139666D01*
X51062809Y-131139666D01*
X51253285Y-131187285D01*
X51348523Y-131234904D01*
X51443761Y-131330142D01*
X51491380Y-131473000D01*
X51491380Y-131711095D01*
X50586619Y-130758714D02*
X50539000Y-130711095D01*
X50491380Y-130615857D01*
X50491380Y-130377761D01*
X50539000Y-130282523D01*
X50586619Y-130234904D01*
X50681857Y-130187285D01*
X50777095Y-130187285D01*
X50919952Y-130234904D01*
X51491380Y-130806333D01*
X51491380Y-130187285D01*
X41896380Y-131711095D02*
X40896380Y-131711095D01*
X40896380Y-131473000D01*
X40944000Y-131330142D01*
X41039238Y-131234904D01*
X41134476Y-131187285D01*
X41324952Y-131139666D01*
X41467809Y-131139666D01*
X41658285Y-131187285D01*
X41753523Y-131234904D01*
X41848761Y-131330142D01*
X41896380Y-131473000D01*
X41896380Y-131711095D01*
X41896380Y-130187285D02*
X41896380Y-130758714D01*
X41896380Y-130473000D02*
X40896380Y-130473000D01*
X41039238Y-130568238D01*
X41134476Y-130663476D01*
X41182095Y-130758714D01*
M02*
