G04 #@! TF.GenerationSoftware,KiCad,Pcbnew,(5.1.5-0-10_14)*
G04 #@! TF.CreationDate,2020-10-05T14:30:26+02:00*
G04 #@! TF.ProjectId,HB-RC-4-Dis-TH,48422d52-432d-4342-9d44-69732d54482e,rev?*
G04 #@! TF.SameCoordinates,Original*
G04 #@! TF.FileFunction,Paste,Bot*
G04 #@! TF.FilePolarity,Positive*
%FSLAX46Y46*%
G04 Gerber Fmt 4.6, Leading zero omitted, Abs format (unit mm)*
G04 Created by KiCad (PCBNEW (5.1.5-0-10_14)) date 2020-10-05 14:30:26*
%MOMM*%
%LPD*%
G04 APERTURE LIST*
%ADD10R,1.700000X0.900000*%
%ADD11C,0.100000*%
%ADD12R,1.060000X0.650000*%
%ADD13R,0.800000X0.900000*%
%ADD14R,2.500000X3.200000*%
%ADD15R,3.400000X1.300000*%
%ADD16R,0.900000X1.200000*%
%ADD17R,1.500000X0.550000*%
%ADD18R,0.550000X1.500000*%
G04 APERTURE END LIST*
D10*
X18690000Y-19050000D03*
X18690000Y-15650000D03*
D11*
G36*
X50854505Y-49371204D02*
G01*
X50878773Y-49374804D01*
X50902572Y-49380765D01*
X50925671Y-49389030D01*
X50947850Y-49399520D01*
X50968893Y-49412132D01*
X50988599Y-49426747D01*
X51006777Y-49443223D01*
X51023253Y-49461401D01*
X51037868Y-49481107D01*
X51050480Y-49502150D01*
X51060970Y-49524329D01*
X51069235Y-49547428D01*
X51075196Y-49571227D01*
X51078796Y-49595495D01*
X51080000Y-49619999D01*
X51080000Y-50520001D01*
X51078796Y-50544505D01*
X51075196Y-50568773D01*
X51069235Y-50592572D01*
X51060970Y-50615671D01*
X51050480Y-50637850D01*
X51037868Y-50658893D01*
X51023253Y-50678599D01*
X51006777Y-50696777D01*
X50988599Y-50713253D01*
X50968893Y-50727868D01*
X50947850Y-50740480D01*
X50925671Y-50750970D01*
X50902572Y-50759235D01*
X50878773Y-50765196D01*
X50854505Y-50768796D01*
X50830001Y-50770000D01*
X50179999Y-50770000D01*
X50155495Y-50768796D01*
X50131227Y-50765196D01*
X50107428Y-50759235D01*
X50084329Y-50750970D01*
X50062150Y-50740480D01*
X50041107Y-50727868D01*
X50021401Y-50713253D01*
X50003223Y-50696777D01*
X49986747Y-50678599D01*
X49972132Y-50658893D01*
X49959520Y-50637850D01*
X49949030Y-50615671D01*
X49940765Y-50592572D01*
X49934804Y-50568773D01*
X49931204Y-50544505D01*
X49930000Y-50520001D01*
X49930000Y-49619999D01*
X49931204Y-49595495D01*
X49934804Y-49571227D01*
X49940765Y-49547428D01*
X49949030Y-49524329D01*
X49959520Y-49502150D01*
X49972132Y-49481107D01*
X49986747Y-49461401D01*
X50003223Y-49443223D01*
X50021401Y-49426747D01*
X50041107Y-49412132D01*
X50062150Y-49399520D01*
X50084329Y-49389030D01*
X50107428Y-49380765D01*
X50131227Y-49374804D01*
X50155495Y-49371204D01*
X50179999Y-49370000D01*
X50830001Y-49370000D01*
X50854505Y-49371204D01*
G37*
G36*
X52904505Y-49371204D02*
G01*
X52928773Y-49374804D01*
X52952572Y-49380765D01*
X52975671Y-49389030D01*
X52997850Y-49399520D01*
X53018893Y-49412132D01*
X53038599Y-49426747D01*
X53056777Y-49443223D01*
X53073253Y-49461401D01*
X53087868Y-49481107D01*
X53100480Y-49502150D01*
X53110970Y-49524329D01*
X53119235Y-49547428D01*
X53125196Y-49571227D01*
X53128796Y-49595495D01*
X53130000Y-49619999D01*
X53130000Y-50520001D01*
X53128796Y-50544505D01*
X53125196Y-50568773D01*
X53119235Y-50592572D01*
X53110970Y-50615671D01*
X53100480Y-50637850D01*
X53087868Y-50658893D01*
X53073253Y-50678599D01*
X53056777Y-50696777D01*
X53038599Y-50713253D01*
X53018893Y-50727868D01*
X52997850Y-50740480D01*
X52975671Y-50750970D01*
X52952572Y-50759235D01*
X52928773Y-50765196D01*
X52904505Y-50768796D01*
X52880001Y-50770000D01*
X52229999Y-50770000D01*
X52205495Y-50768796D01*
X52181227Y-50765196D01*
X52157428Y-50759235D01*
X52134329Y-50750970D01*
X52112150Y-50740480D01*
X52091107Y-50727868D01*
X52071401Y-50713253D01*
X52053223Y-50696777D01*
X52036747Y-50678599D01*
X52022132Y-50658893D01*
X52009520Y-50637850D01*
X51999030Y-50615671D01*
X51990765Y-50592572D01*
X51984804Y-50568773D01*
X51981204Y-50544505D01*
X51980000Y-50520001D01*
X51980000Y-49619999D01*
X51981204Y-49595495D01*
X51984804Y-49571227D01*
X51990765Y-49547428D01*
X51999030Y-49524329D01*
X52009520Y-49502150D01*
X52022132Y-49481107D01*
X52036747Y-49461401D01*
X52053223Y-49443223D01*
X52071401Y-49426747D01*
X52091107Y-49412132D01*
X52112150Y-49399520D01*
X52134329Y-49389030D01*
X52157428Y-49380765D01*
X52181227Y-49374804D01*
X52205495Y-49371204D01*
X52229999Y-49370000D01*
X52880001Y-49370000D01*
X52904505Y-49371204D01*
G37*
G36*
X56424505Y-29901204D02*
G01*
X56448773Y-29904804D01*
X56472572Y-29910765D01*
X56495671Y-29919030D01*
X56517850Y-29929520D01*
X56538893Y-29942132D01*
X56558599Y-29956747D01*
X56576777Y-29973223D01*
X56593253Y-29991401D01*
X56607868Y-30011107D01*
X56620480Y-30032150D01*
X56630970Y-30054329D01*
X56639235Y-30077428D01*
X56645196Y-30101227D01*
X56648796Y-30125495D01*
X56650000Y-30149999D01*
X56650000Y-31050001D01*
X56648796Y-31074505D01*
X56645196Y-31098773D01*
X56639235Y-31122572D01*
X56630970Y-31145671D01*
X56620480Y-31167850D01*
X56607868Y-31188893D01*
X56593253Y-31208599D01*
X56576777Y-31226777D01*
X56558599Y-31243253D01*
X56538893Y-31257868D01*
X56517850Y-31270480D01*
X56495671Y-31280970D01*
X56472572Y-31289235D01*
X56448773Y-31295196D01*
X56424505Y-31298796D01*
X56400001Y-31300000D01*
X55749999Y-31300000D01*
X55725495Y-31298796D01*
X55701227Y-31295196D01*
X55677428Y-31289235D01*
X55654329Y-31280970D01*
X55632150Y-31270480D01*
X55611107Y-31257868D01*
X55591401Y-31243253D01*
X55573223Y-31226777D01*
X55556747Y-31208599D01*
X55542132Y-31188893D01*
X55529520Y-31167850D01*
X55519030Y-31145671D01*
X55510765Y-31122572D01*
X55504804Y-31098773D01*
X55501204Y-31074505D01*
X55500000Y-31050001D01*
X55500000Y-30149999D01*
X55501204Y-30125495D01*
X55504804Y-30101227D01*
X55510765Y-30077428D01*
X55519030Y-30054329D01*
X55529520Y-30032150D01*
X55542132Y-30011107D01*
X55556747Y-29991401D01*
X55573223Y-29973223D01*
X55591401Y-29956747D01*
X55611107Y-29942132D01*
X55632150Y-29929520D01*
X55654329Y-29919030D01*
X55677428Y-29910765D01*
X55701227Y-29904804D01*
X55725495Y-29901204D01*
X55749999Y-29900000D01*
X56400001Y-29900000D01*
X56424505Y-29901204D01*
G37*
G36*
X58474505Y-29901204D02*
G01*
X58498773Y-29904804D01*
X58522572Y-29910765D01*
X58545671Y-29919030D01*
X58567850Y-29929520D01*
X58588893Y-29942132D01*
X58608599Y-29956747D01*
X58626777Y-29973223D01*
X58643253Y-29991401D01*
X58657868Y-30011107D01*
X58670480Y-30032150D01*
X58680970Y-30054329D01*
X58689235Y-30077428D01*
X58695196Y-30101227D01*
X58698796Y-30125495D01*
X58700000Y-30149999D01*
X58700000Y-31050001D01*
X58698796Y-31074505D01*
X58695196Y-31098773D01*
X58689235Y-31122572D01*
X58680970Y-31145671D01*
X58670480Y-31167850D01*
X58657868Y-31188893D01*
X58643253Y-31208599D01*
X58626777Y-31226777D01*
X58608599Y-31243253D01*
X58588893Y-31257868D01*
X58567850Y-31270480D01*
X58545671Y-31280970D01*
X58522572Y-31289235D01*
X58498773Y-31295196D01*
X58474505Y-31298796D01*
X58450001Y-31300000D01*
X57799999Y-31300000D01*
X57775495Y-31298796D01*
X57751227Y-31295196D01*
X57727428Y-31289235D01*
X57704329Y-31280970D01*
X57682150Y-31270480D01*
X57661107Y-31257868D01*
X57641401Y-31243253D01*
X57623223Y-31226777D01*
X57606747Y-31208599D01*
X57592132Y-31188893D01*
X57579520Y-31167850D01*
X57569030Y-31145671D01*
X57560765Y-31122572D01*
X57554804Y-31098773D01*
X57551204Y-31074505D01*
X57550000Y-31050001D01*
X57550000Y-30149999D01*
X57551204Y-30125495D01*
X57554804Y-30101227D01*
X57560765Y-30077428D01*
X57569030Y-30054329D01*
X57579520Y-30032150D01*
X57592132Y-30011107D01*
X57606747Y-29991401D01*
X57623223Y-29973223D01*
X57641401Y-29956747D01*
X57661107Y-29942132D01*
X57682150Y-29929520D01*
X57704329Y-29919030D01*
X57727428Y-29910765D01*
X57751227Y-29904804D01*
X57775495Y-29901204D01*
X57799999Y-29900000D01*
X58450001Y-29900000D01*
X58474505Y-29901204D01*
G37*
D12*
X32049500Y-60554000D03*
X32049500Y-58654000D03*
X29849500Y-58654000D03*
X29849500Y-59604000D03*
X29849500Y-60554000D03*
D13*
X62440000Y-48654000D03*
X61490000Y-50654000D03*
X63390000Y-50654000D03*
D11*
G36*
X50404505Y-14131204D02*
G01*
X50428773Y-14134804D01*
X50452572Y-14140765D01*
X50475671Y-14149030D01*
X50497850Y-14159520D01*
X50518893Y-14172132D01*
X50538599Y-14186747D01*
X50556777Y-14203223D01*
X50573253Y-14221401D01*
X50587868Y-14241107D01*
X50600480Y-14262150D01*
X50610970Y-14284329D01*
X50619235Y-14307428D01*
X50625196Y-14331227D01*
X50628796Y-14355495D01*
X50630000Y-14379999D01*
X50630000Y-15280001D01*
X50628796Y-15304505D01*
X50625196Y-15328773D01*
X50619235Y-15352572D01*
X50610970Y-15375671D01*
X50600480Y-15397850D01*
X50587868Y-15418893D01*
X50573253Y-15438599D01*
X50556777Y-15456777D01*
X50538599Y-15473253D01*
X50518893Y-15487868D01*
X50497850Y-15500480D01*
X50475671Y-15510970D01*
X50452572Y-15519235D01*
X50428773Y-15525196D01*
X50404505Y-15528796D01*
X50380001Y-15530000D01*
X49729999Y-15530000D01*
X49705495Y-15528796D01*
X49681227Y-15525196D01*
X49657428Y-15519235D01*
X49634329Y-15510970D01*
X49612150Y-15500480D01*
X49591107Y-15487868D01*
X49571401Y-15473253D01*
X49553223Y-15456777D01*
X49536747Y-15438599D01*
X49522132Y-15418893D01*
X49509520Y-15397850D01*
X49499030Y-15375671D01*
X49490765Y-15352572D01*
X49484804Y-15328773D01*
X49481204Y-15304505D01*
X49480000Y-15280001D01*
X49480000Y-14379999D01*
X49481204Y-14355495D01*
X49484804Y-14331227D01*
X49490765Y-14307428D01*
X49499030Y-14284329D01*
X49509520Y-14262150D01*
X49522132Y-14241107D01*
X49536747Y-14221401D01*
X49553223Y-14203223D01*
X49571401Y-14186747D01*
X49591107Y-14172132D01*
X49612150Y-14159520D01*
X49634329Y-14149030D01*
X49657428Y-14140765D01*
X49681227Y-14134804D01*
X49705495Y-14131204D01*
X49729999Y-14130000D01*
X50380001Y-14130000D01*
X50404505Y-14131204D01*
G37*
G36*
X48354505Y-14131204D02*
G01*
X48378773Y-14134804D01*
X48402572Y-14140765D01*
X48425671Y-14149030D01*
X48447850Y-14159520D01*
X48468893Y-14172132D01*
X48488599Y-14186747D01*
X48506777Y-14203223D01*
X48523253Y-14221401D01*
X48537868Y-14241107D01*
X48550480Y-14262150D01*
X48560970Y-14284329D01*
X48569235Y-14307428D01*
X48575196Y-14331227D01*
X48578796Y-14355495D01*
X48580000Y-14379999D01*
X48580000Y-15280001D01*
X48578796Y-15304505D01*
X48575196Y-15328773D01*
X48569235Y-15352572D01*
X48560970Y-15375671D01*
X48550480Y-15397850D01*
X48537868Y-15418893D01*
X48523253Y-15438599D01*
X48506777Y-15456777D01*
X48488599Y-15473253D01*
X48468893Y-15487868D01*
X48447850Y-15500480D01*
X48425671Y-15510970D01*
X48402572Y-15519235D01*
X48378773Y-15525196D01*
X48354505Y-15528796D01*
X48330001Y-15530000D01*
X47679999Y-15530000D01*
X47655495Y-15528796D01*
X47631227Y-15525196D01*
X47607428Y-15519235D01*
X47584329Y-15510970D01*
X47562150Y-15500480D01*
X47541107Y-15487868D01*
X47521401Y-15473253D01*
X47503223Y-15456777D01*
X47486747Y-15438599D01*
X47472132Y-15418893D01*
X47459520Y-15397850D01*
X47449030Y-15375671D01*
X47440765Y-15352572D01*
X47434804Y-15328773D01*
X47431204Y-15304505D01*
X47430000Y-15280001D01*
X47430000Y-14379999D01*
X47431204Y-14355495D01*
X47434804Y-14331227D01*
X47440765Y-14307428D01*
X47449030Y-14284329D01*
X47459520Y-14262150D01*
X47472132Y-14241107D01*
X47486747Y-14221401D01*
X47503223Y-14203223D01*
X47521401Y-14186747D01*
X47541107Y-14172132D01*
X47562150Y-14159520D01*
X47584329Y-14149030D01*
X47607428Y-14140765D01*
X47631227Y-14134804D01*
X47655495Y-14131204D01*
X47679999Y-14130000D01*
X48330001Y-14130000D01*
X48354505Y-14131204D01*
G37*
G36*
X54724505Y-17541204D02*
G01*
X54748773Y-17544804D01*
X54772572Y-17550765D01*
X54795671Y-17559030D01*
X54817850Y-17569520D01*
X54838893Y-17582132D01*
X54858599Y-17596747D01*
X54876777Y-17613223D01*
X54893253Y-17631401D01*
X54907868Y-17651107D01*
X54920480Y-17672150D01*
X54930970Y-17694329D01*
X54939235Y-17717428D01*
X54945196Y-17741227D01*
X54948796Y-17765495D01*
X54950000Y-17789999D01*
X54950000Y-18690001D01*
X54948796Y-18714505D01*
X54945196Y-18738773D01*
X54939235Y-18762572D01*
X54930970Y-18785671D01*
X54920480Y-18807850D01*
X54907868Y-18828893D01*
X54893253Y-18848599D01*
X54876777Y-18866777D01*
X54858599Y-18883253D01*
X54838893Y-18897868D01*
X54817850Y-18910480D01*
X54795671Y-18920970D01*
X54772572Y-18929235D01*
X54748773Y-18935196D01*
X54724505Y-18938796D01*
X54700001Y-18940000D01*
X54049999Y-18940000D01*
X54025495Y-18938796D01*
X54001227Y-18935196D01*
X53977428Y-18929235D01*
X53954329Y-18920970D01*
X53932150Y-18910480D01*
X53911107Y-18897868D01*
X53891401Y-18883253D01*
X53873223Y-18866777D01*
X53856747Y-18848599D01*
X53842132Y-18828893D01*
X53829520Y-18807850D01*
X53819030Y-18785671D01*
X53810765Y-18762572D01*
X53804804Y-18738773D01*
X53801204Y-18714505D01*
X53800000Y-18690001D01*
X53800000Y-17789999D01*
X53801204Y-17765495D01*
X53804804Y-17741227D01*
X53810765Y-17717428D01*
X53819030Y-17694329D01*
X53829520Y-17672150D01*
X53842132Y-17651107D01*
X53856747Y-17631401D01*
X53873223Y-17613223D01*
X53891401Y-17596747D01*
X53911107Y-17582132D01*
X53932150Y-17569520D01*
X53954329Y-17559030D01*
X53977428Y-17550765D01*
X54001227Y-17544804D01*
X54025495Y-17541204D01*
X54049999Y-17540000D01*
X54700001Y-17540000D01*
X54724505Y-17541204D01*
G37*
G36*
X52674505Y-17541204D02*
G01*
X52698773Y-17544804D01*
X52722572Y-17550765D01*
X52745671Y-17559030D01*
X52767850Y-17569520D01*
X52788893Y-17582132D01*
X52808599Y-17596747D01*
X52826777Y-17613223D01*
X52843253Y-17631401D01*
X52857868Y-17651107D01*
X52870480Y-17672150D01*
X52880970Y-17694329D01*
X52889235Y-17717428D01*
X52895196Y-17741227D01*
X52898796Y-17765495D01*
X52900000Y-17789999D01*
X52900000Y-18690001D01*
X52898796Y-18714505D01*
X52895196Y-18738773D01*
X52889235Y-18762572D01*
X52880970Y-18785671D01*
X52870480Y-18807850D01*
X52857868Y-18828893D01*
X52843253Y-18848599D01*
X52826777Y-18866777D01*
X52808599Y-18883253D01*
X52788893Y-18897868D01*
X52767850Y-18910480D01*
X52745671Y-18920970D01*
X52722572Y-18929235D01*
X52698773Y-18935196D01*
X52674505Y-18938796D01*
X52650001Y-18940000D01*
X51999999Y-18940000D01*
X51975495Y-18938796D01*
X51951227Y-18935196D01*
X51927428Y-18929235D01*
X51904329Y-18920970D01*
X51882150Y-18910480D01*
X51861107Y-18897868D01*
X51841401Y-18883253D01*
X51823223Y-18866777D01*
X51806747Y-18848599D01*
X51792132Y-18828893D01*
X51779520Y-18807850D01*
X51769030Y-18785671D01*
X51760765Y-18762572D01*
X51754804Y-18738773D01*
X51751204Y-18714505D01*
X51750000Y-18690001D01*
X51750000Y-17789999D01*
X51751204Y-17765495D01*
X51754804Y-17741227D01*
X51760765Y-17717428D01*
X51769030Y-17694329D01*
X51779520Y-17672150D01*
X51792132Y-17651107D01*
X51806747Y-17631401D01*
X51823223Y-17613223D01*
X51841401Y-17596747D01*
X51861107Y-17582132D01*
X51882150Y-17569520D01*
X51904329Y-17559030D01*
X51927428Y-17550765D01*
X51951227Y-17544804D01*
X51975495Y-17541204D01*
X51999999Y-17540000D01*
X52650001Y-17540000D01*
X52674505Y-17541204D01*
G37*
G36*
X53574505Y-28561204D02*
G01*
X53598773Y-28564804D01*
X53622572Y-28570765D01*
X53645671Y-28579030D01*
X53667850Y-28589520D01*
X53688893Y-28602132D01*
X53708599Y-28616747D01*
X53726777Y-28633223D01*
X53743253Y-28651401D01*
X53757868Y-28671107D01*
X53770480Y-28692150D01*
X53780970Y-28714329D01*
X53789235Y-28737428D01*
X53795196Y-28761227D01*
X53798796Y-28785495D01*
X53800000Y-28809999D01*
X53800000Y-29460001D01*
X53798796Y-29484505D01*
X53795196Y-29508773D01*
X53789235Y-29532572D01*
X53780970Y-29555671D01*
X53770480Y-29577850D01*
X53757868Y-29598893D01*
X53743253Y-29618599D01*
X53726777Y-29636777D01*
X53708599Y-29653253D01*
X53688893Y-29667868D01*
X53667850Y-29680480D01*
X53645671Y-29690970D01*
X53622572Y-29699235D01*
X53598773Y-29705196D01*
X53574505Y-29708796D01*
X53550001Y-29710000D01*
X52649999Y-29710000D01*
X52625495Y-29708796D01*
X52601227Y-29705196D01*
X52577428Y-29699235D01*
X52554329Y-29690970D01*
X52532150Y-29680480D01*
X52511107Y-29667868D01*
X52491401Y-29653253D01*
X52473223Y-29636777D01*
X52456747Y-29618599D01*
X52442132Y-29598893D01*
X52429520Y-29577850D01*
X52419030Y-29555671D01*
X52410765Y-29532572D01*
X52404804Y-29508773D01*
X52401204Y-29484505D01*
X52400000Y-29460001D01*
X52400000Y-28809999D01*
X52401204Y-28785495D01*
X52404804Y-28761227D01*
X52410765Y-28737428D01*
X52419030Y-28714329D01*
X52429520Y-28692150D01*
X52442132Y-28671107D01*
X52456747Y-28651401D01*
X52473223Y-28633223D01*
X52491401Y-28616747D01*
X52511107Y-28602132D01*
X52532150Y-28589520D01*
X52554329Y-28579030D01*
X52577428Y-28570765D01*
X52601227Y-28564804D01*
X52625495Y-28561204D01*
X52649999Y-28560000D01*
X53550001Y-28560000D01*
X53574505Y-28561204D01*
G37*
G36*
X53574505Y-26511204D02*
G01*
X53598773Y-26514804D01*
X53622572Y-26520765D01*
X53645671Y-26529030D01*
X53667850Y-26539520D01*
X53688893Y-26552132D01*
X53708599Y-26566747D01*
X53726777Y-26583223D01*
X53743253Y-26601401D01*
X53757868Y-26621107D01*
X53770480Y-26642150D01*
X53780970Y-26664329D01*
X53789235Y-26687428D01*
X53795196Y-26711227D01*
X53798796Y-26735495D01*
X53800000Y-26759999D01*
X53800000Y-27410001D01*
X53798796Y-27434505D01*
X53795196Y-27458773D01*
X53789235Y-27482572D01*
X53780970Y-27505671D01*
X53770480Y-27527850D01*
X53757868Y-27548893D01*
X53743253Y-27568599D01*
X53726777Y-27586777D01*
X53708599Y-27603253D01*
X53688893Y-27617868D01*
X53667850Y-27630480D01*
X53645671Y-27640970D01*
X53622572Y-27649235D01*
X53598773Y-27655196D01*
X53574505Y-27658796D01*
X53550001Y-27660000D01*
X52649999Y-27660000D01*
X52625495Y-27658796D01*
X52601227Y-27655196D01*
X52577428Y-27649235D01*
X52554329Y-27640970D01*
X52532150Y-27630480D01*
X52511107Y-27617868D01*
X52491401Y-27603253D01*
X52473223Y-27586777D01*
X52456747Y-27568599D01*
X52442132Y-27548893D01*
X52429520Y-27527850D01*
X52419030Y-27505671D01*
X52410765Y-27482572D01*
X52404804Y-27458773D01*
X52401204Y-27434505D01*
X52400000Y-27410001D01*
X52400000Y-26759999D01*
X52401204Y-26735495D01*
X52404804Y-26711227D01*
X52410765Y-26687428D01*
X52419030Y-26664329D01*
X52429520Y-26642150D01*
X52442132Y-26621107D01*
X52456747Y-26601401D01*
X52473223Y-26583223D01*
X52491401Y-26566747D01*
X52511107Y-26552132D01*
X52532150Y-26539520D01*
X52554329Y-26529030D01*
X52577428Y-26520765D01*
X52601227Y-26514804D01*
X52625495Y-26511204D01*
X52649999Y-26510000D01*
X53550001Y-26510000D01*
X53574505Y-26511204D01*
G37*
G36*
X54674505Y-30801204D02*
G01*
X54698773Y-30804804D01*
X54722572Y-30810765D01*
X54745671Y-30819030D01*
X54767850Y-30829520D01*
X54788893Y-30842132D01*
X54808599Y-30856747D01*
X54826777Y-30873223D01*
X54843253Y-30891401D01*
X54857868Y-30911107D01*
X54870480Y-30932150D01*
X54880970Y-30954329D01*
X54889235Y-30977428D01*
X54895196Y-31001227D01*
X54898796Y-31025495D01*
X54900000Y-31049999D01*
X54900000Y-31950001D01*
X54898796Y-31974505D01*
X54895196Y-31998773D01*
X54889235Y-32022572D01*
X54880970Y-32045671D01*
X54870480Y-32067850D01*
X54857868Y-32088893D01*
X54843253Y-32108599D01*
X54826777Y-32126777D01*
X54808599Y-32143253D01*
X54788893Y-32157868D01*
X54767850Y-32170480D01*
X54745671Y-32180970D01*
X54722572Y-32189235D01*
X54698773Y-32195196D01*
X54674505Y-32198796D01*
X54650001Y-32200000D01*
X53999999Y-32200000D01*
X53975495Y-32198796D01*
X53951227Y-32195196D01*
X53927428Y-32189235D01*
X53904329Y-32180970D01*
X53882150Y-32170480D01*
X53861107Y-32157868D01*
X53841401Y-32143253D01*
X53823223Y-32126777D01*
X53806747Y-32108599D01*
X53792132Y-32088893D01*
X53779520Y-32067850D01*
X53769030Y-32045671D01*
X53760765Y-32022572D01*
X53754804Y-31998773D01*
X53751204Y-31974505D01*
X53750000Y-31950001D01*
X53750000Y-31049999D01*
X53751204Y-31025495D01*
X53754804Y-31001227D01*
X53760765Y-30977428D01*
X53769030Y-30954329D01*
X53779520Y-30932150D01*
X53792132Y-30911107D01*
X53806747Y-30891401D01*
X53823223Y-30873223D01*
X53841401Y-30856747D01*
X53861107Y-30842132D01*
X53882150Y-30829520D01*
X53904329Y-30819030D01*
X53927428Y-30810765D01*
X53951227Y-30804804D01*
X53975495Y-30801204D01*
X53999999Y-30800000D01*
X54650001Y-30800000D01*
X54674505Y-30801204D01*
G37*
G36*
X52624505Y-30801204D02*
G01*
X52648773Y-30804804D01*
X52672572Y-30810765D01*
X52695671Y-30819030D01*
X52717850Y-30829520D01*
X52738893Y-30842132D01*
X52758599Y-30856747D01*
X52776777Y-30873223D01*
X52793253Y-30891401D01*
X52807868Y-30911107D01*
X52820480Y-30932150D01*
X52830970Y-30954329D01*
X52839235Y-30977428D01*
X52845196Y-31001227D01*
X52848796Y-31025495D01*
X52850000Y-31049999D01*
X52850000Y-31950001D01*
X52848796Y-31974505D01*
X52845196Y-31998773D01*
X52839235Y-32022572D01*
X52830970Y-32045671D01*
X52820480Y-32067850D01*
X52807868Y-32088893D01*
X52793253Y-32108599D01*
X52776777Y-32126777D01*
X52758599Y-32143253D01*
X52738893Y-32157868D01*
X52717850Y-32170480D01*
X52695671Y-32180970D01*
X52672572Y-32189235D01*
X52648773Y-32195196D01*
X52624505Y-32198796D01*
X52600001Y-32200000D01*
X51949999Y-32200000D01*
X51925495Y-32198796D01*
X51901227Y-32195196D01*
X51877428Y-32189235D01*
X51854329Y-32180970D01*
X51832150Y-32170480D01*
X51811107Y-32157868D01*
X51791401Y-32143253D01*
X51773223Y-32126777D01*
X51756747Y-32108599D01*
X51742132Y-32088893D01*
X51729520Y-32067850D01*
X51719030Y-32045671D01*
X51710765Y-32022572D01*
X51704804Y-31998773D01*
X51701204Y-31974505D01*
X51700000Y-31950001D01*
X51700000Y-31049999D01*
X51701204Y-31025495D01*
X51704804Y-31001227D01*
X51710765Y-30977428D01*
X51719030Y-30954329D01*
X51729520Y-30932150D01*
X51742132Y-30911107D01*
X51756747Y-30891401D01*
X51773223Y-30873223D01*
X51791401Y-30856747D01*
X51811107Y-30842132D01*
X51832150Y-30829520D01*
X51854329Y-30819030D01*
X51877428Y-30810765D01*
X51901227Y-30804804D01*
X51925495Y-30801204D01*
X51949999Y-30800000D01*
X52600001Y-30800000D01*
X52624505Y-30801204D01*
G37*
G36*
X30337505Y-62207204D02*
G01*
X30361773Y-62210804D01*
X30385572Y-62216765D01*
X30408671Y-62225030D01*
X30430850Y-62235520D01*
X30451893Y-62248132D01*
X30471599Y-62262747D01*
X30489777Y-62279223D01*
X30506253Y-62297401D01*
X30520868Y-62317107D01*
X30533480Y-62338150D01*
X30543970Y-62360329D01*
X30552235Y-62383428D01*
X30558196Y-62407227D01*
X30561796Y-62431495D01*
X30563000Y-62455999D01*
X30563000Y-63356001D01*
X30561796Y-63380505D01*
X30558196Y-63404773D01*
X30552235Y-63428572D01*
X30543970Y-63451671D01*
X30533480Y-63473850D01*
X30520868Y-63494893D01*
X30506253Y-63514599D01*
X30489777Y-63532777D01*
X30471599Y-63549253D01*
X30451893Y-63563868D01*
X30430850Y-63576480D01*
X30408671Y-63586970D01*
X30385572Y-63595235D01*
X30361773Y-63601196D01*
X30337505Y-63604796D01*
X30313001Y-63606000D01*
X29662999Y-63606000D01*
X29638495Y-63604796D01*
X29614227Y-63601196D01*
X29590428Y-63595235D01*
X29567329Y-63586970D01*
X29545150Y-63576480D01*
X29524107Y-63563868D01*
X29504401Y-63549253D01*
X29486223Y-63532777D01*
X29469747Y-63514599D01*
X29455132Y-63494893D01*
X29442520Y-63473850D01*
X29432030Y-63451671D01*
X29423765Y-63428572D01*
X29417804Y-63404773D01*
X29414204Y-63380505D01*
X29413000Y-63356001D01*
X29413000Y-62455999D01*
X29414204Y-62431495D01*
X29417804Y-62407227D01*
X29423765Y-62383428D01*
X29432030Y-62360329D01*
X29442520Y-62338150D01*
X29455132Y-62317107D01*
X29469747Y-62297401D01*
X29486223Y-62279223D01*
X29504401Y-62262747D01*
X29524107Y-62248132D01*
X29545150Y-62235520D01*
X29567329Y-62225030D01*
X29590428Y-62216765D01*
X29614227Y-62210804D01*
X29638495Y-62207204D01*
X29662999Y-62206000D01*
X30313001Y-62206000D01*
X30337505Y-62207204D01*
G37*
G36*
X32387505Y-62207204D02*
G01*
X32411773Y-62210804D01*
X32435572Y-62216765D01*
X32458671Y-62225030D01*
X32480850Y-62235520D01*
X32501893Y-62248132D01*
X32521599Y-62262747D01*
X32539777Y-62279223D01*
X32556253Y-62297401D01*
X32570868Y-62317107D01*
X32583480Y-62338150D01*
X32593970Y-62360329D01*
X32602235Y-62383428D01*
X32608196Y-62407227D01*
X32611796Y-62431495D01*
X32613000Y-62455999D01*
X32613000Y-63356001D01*
X32611796Y-63380505D01*
X32608196Y-63404773D01*
X32602235Y-63428572D01*
X32593970Y-63451671D01*
X32583480Y-63473850D01*
X32570868Y-63494893D01*
X32556253Y-63514599D01*
X32539777Y-63532777D01*
X32521599Y-63549253D01*
X32501893Y-63563868D01*
X32480850Y-63576480D01*
X32458671Y-63586970D01*
X32435572Y-63595235D01*
X32411773Y-63601196D01*
X32387505Y-63604796D01*
X32363001Y-63606000D01*
X31712999Y-63606000D01*
X31688495Y-63604796D01*
X31664227Y-63601196D01*
X31640428Y-63595235D01*
X31617329Y-63586970D01*
X31595150Y-63576480D01*
X31574107Y-63563868D01*
X31554401Y-63549253D01*
X31536223Y-63532777D01*
X31519747Y-63514599D01*
X31505132Y-63494893D01*
X31492520Y-63473850D01*
X31482030Y-63451671D01*
X31473765Y-63428572D01*
X31467804Y-63404773D01*
X31464204Y-63380505D01*
X31463000Y-63356001D01*
X31463000Y-62455999D01*
X31464204Y-62431495D01*
X31467804Y-62407227D01*
X31473765Y-62383428D01*
X31482030Y-62360329D01*
X31492520Y-62338150D01*
X31505132Y-62317107D01*
X31519747Y-62297401D01*
X31536223Y-62279223D01*
X31554401Y-62262747D01*
X31574107Y-62248132D01*
X31595150Y-62235520D01*
X31617329Y-62225030D01*
X31640428Y-62216765D01*
X31664227Y-62210804D01*
X31688495Y-62207204D01*
X31712999Y-62206000D01*
X32363001Y-62206000D01*
X32387505Y-62207204D01*
G37*
G36*
X63884505Y-52221204D02*
G01*
X63908773Y-52224804D01*
X63932572Y-52230765D01*
X63955671Y-52239030D01*
X63977850Y-52249520D01*
X63998893Y-52262132D01*
X64018599Y-52276747D01*
X64036777Y-52293223D01*
X64053253Y-52311401D01*
X64067868Y-52331107D01*
X64080480Y-52352150D01*
X64090970Y-52374329D01*
X64099235Y-52397428D01*
X64105196Y-52421227D01*
X64108796Y-52445495D01*
X64110000Y-52469999D01*
X64110000Y-53370001D01*
X64108796Y-53394505D01*
X64105196Y-53418773D01*
X64099235Y-53442572D01*
X64090970Y-53465671D01*
X64080480Y-53487850D01*
X64067868Y-53508893D01*
X64053253Y-53528599D01*
X64036777Y-53546777D01*
X64018599Y-53563253D01*
X63998893Y-53577868D01*
X63977850Y-53590480D01*
X63955671Y-53600970D01*
X63932572Y-53609235D01*
X63908773Y-53615196D01*
X63884505Y-53618796D01*
X63860001Y-53620000D01*
X63209999Y-53620000D01*
X63185495Y-53618796D01*
X63161227Y-53615196D01*
X63137428Y-53609235D01*
X63114329Y-53600970D01*
X63092150Y-53590480D01*
X63071107Y-53577868D01*
X63051401Y-53563253D01*
X63033223Y-53546777D01*
X63016747Y-53528599D01*
X63002132Y-53508893D01*
X62989520Y-53487850D01*
X62979030Y-53465671D01*
X62970765Y-53442572D01*
X62964804Y-53418773D01*
X62961204Y-53394505D01*
X62960000Y-53370001D01*
X62960000Y-52469999D01*
X62961204Y-52445495D01*
X62964804Y-52421227D01*
X62970765Y-52397428D01*
X62979030Y-52374329D01*
X62989520Y-52352150D01*
X63002132Y-52331107D01*
X63016747Y-52311401D01*
X63033223Y-52293223D01*
X63051401Y-52276747D01*
X63071107Y-52262132D01*
X63092150Y-52249520D01*
X63114329Y-52239030D01*
X63137428Y-52230765D01*
X63161227Y-52224804D01*
X63185495Y-52221204D01*
X63209999Y-52220000D01*
X63860001Y-52220000D01*
X63884505Y-52221204D01*
G37*
G36*
X61834505Y-52221204D02*
G01*
X61858773Y-52224804D01*
X61882572Y-52230765D01*
X61905671Y-52239030D01*
X61927850Y-52249520D01*
X61948893Y-52262132D01*
X61968599Y-52276747D01*
X61986777Y-52293223D01*
X62003253Y-52311401D01*
X62017868Y-52331107D01*
X62030480Y-52352150D01*
X62040970Y-52374329D01*
X62049235Y-52397428D01*
X62055196Y-52421227D01*
X62058796Y-52445495D01*
X62060000Y-52469999D01*
X62060000Y-53370001D01*
X62058796Y-53394505D01*
X62055196Y-53418773D01*
X62049235Y-53442572D01*
X62040970Y-53465671D01*
X62030480Y-53487850D01*
X62017868Y-53508893D01*
X62003253Y-53528599D01*
X61986777Y-53546777D01*
X61968599Y-53563253D01*
X61948893Y-53577868D01*
X61927850Y-53590480D01*
X61905671Y-53600970D01*
X61882572Y-53609235D01*
X61858773Y-53615196D01*
X61834505Y-53618796D01*
X61810001Y-53620000D01*
X61159999Y-53620000D01*
X61135495Y-53618796D01*
X61111227Y-53615196D01*
X61087428Y-53609235D01*
X61064329Y-53600970D01*
X61042150Y-53590480D01*
X61021107Y-53577868D01*
X61001401Y-53563253D01*
X60983223Y-53546777D01*
X60966747Y-53528599D01*
X60952132Y-53508893D01*
X60939520Y-53487850D01*
X60929030Y-53465671D01*
X60920765Y-53442572D01*
X60914804Y-53418773D01*
X60911204Y-53394505D01*
X60910000Y-53370001D01*
X60910000Y-52469999D01*
X60911204Y-52445495D01*
X60914804Y-52421227D01*
X60920765Y-52397428D01*
X60929030Y-52374329D01*
X60939520Y-52352150D01*
X60952132Y-52331107D01*
X60966747Y-52311401D01*
X60983223Y-52293223D01*
X61001401Y-52276747D01*
X61021107Y-52262132D01*
X61042150Y-52249520D01*
X61064329Y-52239030D01*
X61087428Y-52230765D01*
X61111227Y-52224804D01*
X61135495Y-52221204D01*
X61159999Y-52220000D01*
X61810001Y-52220000D01*
X61834505Y-52221204D01*
G37*
G36*
X27678505Y-56121204D02*
G01*
X27702773Y-56124804D01*
X27726572Y-56130765D01*
X27749671Y-56139030D01*
X27771850Y-56149520D01*
X27792893Y-56162132D01*
X27812599Y-56176747D01*
X27830777Y-56193223D01*
X27847253Y-56211401D01*
X27861868Y-56231107D01*
X27874480Y-56252150D01*
X27884970Y-56274329D01*
X27893235Y-56297428D01*
X27899196Y-56321227D01*
X27902796Y-56345495D01*
X27904000Y-56369999D01*
X27904000Y-57270001D01*
X27902796Y-57294505D01*
X27899196Y-57318773D01*
X27893235Y-57342572D01*
X27884970Y-57365671D01*
X27874480Y-57387850D01*
X27861868Y-57408893D01*
X27847253Y-57428599D01*
X27830777Y-57446777D01*
X27812599Y-57463253D01*
X27792893Y-57477868D01*
X27771850Y-57490480D01*
X27749671Y-57500970D01*
X27726572Y-57509235D01*
X27702773Y-57515196D01*
X27678505Y-57518796D01*
X27654001Y-57520000D01*
X27003999Y-57520000D01*
X26979495Y-57518796D01*
X26955227Y-57515196D01*
X26931428Y-57509235D01*
X26908329Y-57500970D01*
X26886150Y-57490480D01*
X26865107Y-57477868D01*
X26845401Y-57463253D01*
X26827223Y-57446777D01*
X26810747Y-57428599D01*
X26796132Y-57408893D01*
X26783520Y-57387850D01*
X26773030Y-57365671D01*
X26764765Y-57342572D01*
X26758804Y-57318773D01*
X26755204Y-57294505D01*
X26754000Y-57270001D01*
X26754000Y-56369999D01*
X26755204Y-56345495D01*
X26758804Y-56321227D01*
X26764765Y-56297428D01*
X26773030Y-56274329D01*
X26783520Y-56252150D01*
X26796132Y-56231107D01*
X26810747Y-56211401D01*
X26827223Y-56193223D01*
X26845401Y-56176747D01*
X26865107Y-56162132D01*
X26886150Y-56149520D01*
X26908329Y-56139030D01*
X26931428Y-56130765D01*
X26955227Y-56124804D01*
X26979495Y-56121204D01*
X27003999Y-56120000D01*
X27654001Y-56120000D01*
X27678505Y-56121204D01*
G37*
G36*
X25628505Y-56121204D02*
G01*
X25652773Y-56124804D01*
X25676572Y-56130765D01*
X25699671Y-56139030D01*
X25721850Y-56149520D01*
X25742893Y-56162132D01*
X25762599Y-56176747D01*
X25780777Y-56193223D01*
X25797253Y-56211401D01*
X25811868Y-56231107D01*
X25824480Y-56252150D01*
X25834970Y-56274329D01*
X25843235Y-56297428D01*
X25849196Y-56321227D01*
X25852796Y-56345495D01*
X25854000Y-56369999D01*
X25854000Y-57270001D01*
X25852796Y-57294505D01*
X25849196Y-57318773D01*
X25843235Y-57342572D01*
X25834970Y-57365671D01*
X25824480Y-57387850D01*
X25811868Y-57408893D01*
X25797253Y-57428599D01*
X25780777Y-57446777D01*
X25762599Y-57463253D01*
X25742893Y-57477868D01*
X25721850Y-57490480D01*
X25699671Y-57500970D01*
X25676572Y-57509235D01*
X25652773Y-57515196D01*
X25628505Y-57518796D01*
X25604001Y-57520000D01*
X24953999Y-57520000D01*
X24929495Y-57518796D01*
X24905227Y-57515196D01*
X24881428Y-57509235D01*
X24858329Y-57500970D01*
X24836150Y-57490480D01*
X24815107Y-57477868D01*
X24795401Y-57463253D01*
X24777223Y-57446777D01*
X24760747Y-57428599D01*
X24746132Y-57408893D01*
X24733520Y-57387850D01*
X24723030Y-57365671D01*
X24714765Y-57342572D01*
X24708804Y-57318773D01*
X24705204Y-57294505D01*
X24704000Y-57270001D01*
X24704000Y-56369999D01*
X24705204Y-56345495D01*
X24708804Y-56321227D01*
X24714765Y-56297428D01*
X24723030Y-56274329D01*
X24733520Y-56252150D01*
X24746132Y-56231107D01*
X24760747Y-56211401D01*
X24777223Y-56193223D01*
X24795401Y-56176747D01*
X24815107Y-56162132D01*
X24836150Y-56149520D01*
X24858329Y-56139030D01*
X24881428Y-56130765D01*
X24905227Y-56124804D01*
X24929495Y-56121204D01*
X24953999Y-56120000D01*
X25604001Y-56120000D01*
X25628505Y-56121204D01*
G37*
G36*
X47039505Y-31806204D02*
G01*
X47063773Y-31809804D01*
X47087572Y-31815765D01*
X47110671Y-31824030D01*
X47132850Y-31834520D01*
X47153893Y-31847132D01*
X47173599Y-31861747D01*
X47191777Y-31878223D01*
X47208253Y-31896401D01*
X47222868Y-31916107D01*
X47235480Y-31937150D01*
X47245970Y-31959329D01*
X47254235Y-31982428D01*
X47260196Y-32006227D01*
X47263796Y-32030495D01*
X47265000Y-32054999D01*
X47265000Y-32955001D01*
X47263796Y-32979505D01*
X47260196Y-33003773D01*
X47254235Y-33027572D01*
X47245970Y-33050671D01*
X47235480Y-33072850D01*
X47222868Y-33093893D01*
X47208253Y-33113599D01*
X47191777Y-33131777D01*
X47173599Y-33148253D01*
X47153893Y-33162868D01*
X47132850Y-33175480D01*
X47110671Y-33185970D01*
X47087572Y-33194235D01*
X47063773Y-33200196D01*
X47039505Y-33203796D01*
X47015001Y-33205000D01*
X46364999Y-33205000D01*
X46340495Y-33203796D01*
X46316227Y-33200196D01*
X46292428Y-33194235D01*
X46269329Y-33185970D01*
X46247150Y-33175480D01*
X46226107Y-33162868D01*
X46206401Y-33148253D01*
X46188223Y-33131777D01*
X46171747Y-33113599D01*
X46157132Y-33093893D01*
X46144520Y-33072850D01*
X46134030Y-33050671D01*
X46125765Y-33027572D01*
X46119804Y-33003773D01*
X46116204Y-32979505D01*
X46115000Y-32955001D01*
X46115000Y-32054999D01*
X46116204Y-32030495D01*
X46119804Y-32006227D01*
X46125765Y-31982428D01*
X46134030Y-31959329D01*
X46144520Y-31937150D01*
X46157132Y-31916107D01*
X46171747Y-31896401D01*
X46188223Y-31878223D01*
X46206401Y-31861747D01*
X46226107Y-31847132D01*
X46247150Y-31834520D01*
X46269329Y-31824030D01*
X46292428Y-31815765D01*
X46316227Y-31809804D01*
X46340495Y-31806204D01*
X46364999Y-31805000D01*
X47015001Y-31805000D01*
X47039505Y-31806204D01*
G37*
G36*
X44989505Y-31806204D02*
G01*
X45013773Y-31809804D01*
X45037572Y-31815765D01*
X45060671Y-31824030D01*
X45082850Y-31834520D01*
X45103893Y-31847132D01*
X45123599Y-31861747D01*
X45141777Y-31878223D01*
X45158253Y-31896401D01*
X45172868Y-31916107D01*
X45185480Y-31937150D01*
X45195970Y-31959329D01*
X45204235Y-31982428D01*
X45210196Y-32006227D01*
X45213796Y-32030495D01*
X45215000Y-32054999D01*
X45215000Y-32955001D01*
X45213796Y-32979505D01*
X45210196Y-33003773D01*
X45204235Y-33027572D01*
X45195970Y-33050671D01*
X45185480Y-33072850D01*
X45172868Y-33093893D01*
X45158253Y-33113599D01*
X45141777Y-33131777D01*
X45123599Y-33148253D01*
X45103893Y-33162868D01*
X45082850Y-33175480D01*
X45060671Y-33185970D01*
X45037572Y-33194235D01*
X45013773Y-33200196D01*
X44989505Y-33203796D01*
X44965001Y-33205000D01*
X44314999Y-33205000D01*
X44290495Y-33203796D01*
X44266227Y-33200196D01*
X44242428Y-33194235D01*
X44219329Y-33185970D01*
X44197150Y-33175480D01*
X44176107Y-33162868D01*
X44156401Y-33148253D01*
X44138223Y-33131777D01*
X44121747Y-33113599D01*
X44107132Y-33093893D01*
X44094520Y-33072850D01*
X44084030Y-33050671D01*
X44075765Y-33027572D01*
X44069804Y-33003773D01*
X44066204Y-32979505D01*
X44065000Y-32955001D01*
X44065000Y-32054999D01*
X44066204Y-32030495D01*
X44069804Y-32006227D01*
X44075765Y-31982428D01*
X44084030Y-31959329D01*
X44094520Y-31937150D01*
X44107132Y-31916107D01*
X44121747Y-31896401D01*
X44138223Y-31878223D01*
X44156401Y-31861747D01*
X44176107Y-31847132D01*
X44197150Y-31834520D01*
X44219329Y-31824030D01*
X44242428Y-31815765D01*
X44266227Y-31809804D01*
X44290495Y-31806204D01*
X44314999Y-31805000D01*
X44965001Y-31805000D01*
X44989505Y-31806204D01*
G37*
G36*
X53589505Y-24356204D02*
G01*
X53613773Y-24359804D01*
X53637572Y-24365765D01*
X53660671Y-24374030D01*
X53682850Y-24384520D01*
X53703893Y-24397132D01*
X53723599Y-24411747D01*
X53741777Y-24428223D01*
X53758253Y-24446401D01*
X53772868Y-24466107D01*
X53785480Y-24487150D01*
X53795970Y-24509329D01*
X53804235Y-24532428D01*
X53810196Y-24556227D01*
X53813796Y-24580495D01*
X53815000Y-24604999D01*
X53815000Y-25255001D01*
X53813796Y-25279505D01*
X53810196Y-25303773D01*
X53804235Y-25327572D01*
X53795970Y-25350671D01*
X53785480Y-25372850D01*
X53772868Y-25393893D01*
X53758253Y-25413599D01*
X53741777Y-25431777D01*
X53723599Y-25448253D01*
X53703893Y-25462868D01*
X53682850Y-25475480D01*
X53660671Y-25485970D01*
X53637572Y-25494235D01*
X53613773Y-25500196D01*
X53589505Y-25503796D01*
X53565001Y-25505000D01*
X52664999Y-25505000D01*
X52640495Y-25503796D01*
X52616227Y-25500196D01*
X52592428Y-25494235D01*
X52569329Y-25485970D01*
X52547150Y-25475480D01*
X52526107Y-25462868D01*
X52506401Y-25448253D01*
X52488223Y-25431777D01*
X52471747Y-25413599D01*
X52457132Y-25393893D01*
X52444520Y-25372850D01*
X52434030Y-25350671D01*
X52425765Y-25327572D01*
X52419804Y-25303773D01*
X52416204Y-25279505D01*
X52415000Y-25255001D01*
X52415000Y-24604999D01*
X52416204Y-24580495D01*
X52419804Y-24556227D01*
X52425765Y-24532428D01*
X52434030Y-24509329D01*
X52444520Y-24487150D01*
X52457132Y-24466107D01*
X52471747Y-24446401D01*
X52488223Y-24428223D01*
X52506401Y-24411747D01*
X52526107Y-24397132D01*
X52547150Y-24384520D01*
X52569329Y-24374030D01*
X52592428Y-24365765D01*
X52616227Y-24359804D01*
X52640495Y-24356204D01*
X52664999Y-24355000D01*
X53565001Y-24355000D01*
X53589505Y-24356204D01*
G37*
G36*
X53589505Y-22306204D02*
G01*
X53613773Y-22309804D01*
X53637572Y-22315765D01*
X53660671Y-22324030D01*
X53682850Y-22334520D01*
X53703893Y-22347132D01*
X53723599Y-22361747D01*
X53741777Y-22378223D01*
X53758253Y-22396401D01*
X53772868Y-22416107D01*
X53785480Y-22437150D01*
X53795970Y-22459329D01*
X53804235Y-22482428D01*
X53810196Y-22506227D01*
X53813796Y-22530495D01*
X53815000Y-22554999D01*
X53815000Y-23205001D01*
X53813796Y-23229505D01*
X53810196Y-23253773D01*
X53804235Y-23277572D01*
X53795970Y-23300671D01*
X53785480Y-23322850D01*
X53772868Y-23343893D01*
X53758253Y-23363599D01*
X53741777Y-23381777D01*
X53723599Y-23398253D01*
X53703893Y-23412868D01*
X53682850Y-23425480D01*
X53660671Y-23435970D01*
X53637572Y-23444235D01*
X53613773Y-23450196D01*
X53589505Y-23453796D01*
X53565001Y-23455000D01*
X52664999Y-23455000D01*
X52640495Y-23453796D01*
X52616227Y-23450196D01*
X52592428Y-23444235D01*
X52569329Y-23435970D01*
X52547150Y-23425480D01*
X52526107Y-23412868D01*
X52506401Y-23398253D01*
X52488223Y-23381777D01*
X52471747Y-23363599D01*
X52457132Y-23343893D01*
X52444520Y-23322850D01*
X52434030Y-23300671D01*
X52425765Y-23277572D01*
X52419804Y-23253773D01*
X52416204Y-23229505D01*
X52415000Y-23205001D01*
X52415000Y-22554999D01*
X52416204Y-22530495D01*
X52419804Y-22506227D01*
X52425765Y-22482428D01*
X52434030Y-22459329D01*
X52444520Y-22437150D01*
X52457132Y-22416107D01*
X52471747Y-22396401D01*
X52488223Y-22378223D01*
X52506401Y-22361747D01*
X52526107Y-22347132D01*
X52547150Y-22334520D01*
X52569329Y-22324030D01*
X52592428Y-22315765D01*
X52616227Y-22309804D01*
X52640495Y-22306204D01*
X52664999Y-22305000D01*
X53565001Y-22305000D01*
X53589505Y-22306204D01*
G37*
G36*
X44339505Y-15281204D02*
G01*
X44363773Y-15284804D01*
X44387572Y-15290765D01*
X44410671Y-15299030D01*
X44432850Y-15309520D01*
X44453893Y-15322132D01*
X44473599Y-15336747D01*
X44491777Y-15353223D01*
X44508253Y-15371401D01*
X44522868Y-15391107D01*
X44535480Y-15412150D01*
X44545970Y-15434329D01*
X44554235Y-15457428D01*
X44560196Y-15481227D01*
X44563796Y-15505495D01*
X44565000Y-15529999D01*
X44565000Y-16430001D01*
X44563796Y-16454505D01*
X44560196Y-16478773D01*
X44554235Y-16502572D01*
X44545970Y-16525671D01*
X44535480Y-16547850D01*
X44522868Y-16568893D01*
X44508253Y-16588599D01*
X44491777Y-16606777D01*
X44473599Y-16623253D01*
X44453893Y-16637868D01*
X44432850Y-16650480D01*
X44410671Y-16660970D01*
X44387572Y-16669235D01*
X44363773Y-16675196D01*
X44339505Y-16678796D01*
X44315001Y-16680000D01*
X43664999Y-16680000D01*
X43640495Y-16678796D01*
X43616227Y-16675196D01*
X43592428Y-16669235D01*
X43569329Y-16660970D01*
X43547150Y-16650480D01*
X43526107Y-16637868D01*
X43506401Y-16623253D01*
X43488223Y-16606777D01*
X43471747Y-16588599D01*
X43457132Y-16568893D01*
X43444520Y-16547850D01*
X43434030Y-16525671D01*
X43425765Y-16502572D01*
X43419804Y-16478773D01*
X43416204Y-16454505D01*
X43415000Y-16430001D01*
X43415000Y-15529999D01*
X43416204Y-15505495D01*
X43419804Y-15481227D01*
X43425765Y-15457428D01*
X43434030Y-15434329D01*
X43444520Y-15412150D01*
X43457132Y-15391107D01*
X43471747Y-15371401D01*
X43488223Y-15353223D01*
X43506401Y-15336747D01*
X43526107Y-15322132D01*
X43547150Y-15309520D01*
X43569329Y-15299030D01*
X43592428Y-15290765D01*
X43616227Y-15284804D01*
X43640495Y-15281204D01*
X43664999Y-15280000D01*
X44315001Y-15280000D01*
X44339505Y-15281204D01*
G37*
G36*
X46389505Y-15281204D02*
G01*
X46413773Y-15284804D01*
X46437572Y-15290765D01*
X46460671Y-15299030D01*
X46482850Y-15309520D01*
X46503893Y-15322132D01*
X46523599Y-15336747D01*
X46541777Y-15353223D01*
X46558253Y-15371401D01*
X46572868Y-15391107D01*
X46585480Y-15412150D01*
X46595970Y-15434329D01*
X46604235Y-15457428D01*
X46610196Y-15481227D01*
X46613796Y-15505495D01*
X46615000Y-15529999D01*
X46615000Y-16430001D01*
X46613796Y-16454505D01*
X46610196Y-16478773D01*
X46604235Y-16502572D01*
X46595970Y-16525671D01*
X46585480Y-16547850D01*
X46572868Y-16568893D01*
X46558253Y-16588599D01*
X46541777Y-16606777D01*
X46523599Y-16623253D01*
X46503893Y-16637868D01*
X46482850Y-16650480D01*
X46460671Y-16660970D01*
X46437572Y-16669235D01*
X46413773Y-16675196D01*
X46389505Y-16678796D01*
X46365001Y-16680000D01*
X45714999Y-16680000D01*
X45690495Y-16678796D01*
X45666227Y-16675196D01*
X45642428Y-16669235D01*
X45619329Y-16660970D01*
X45597150Y-16650480D01*
X45576107Y-16637868D01*
X45556401Y-16623253D01*
X45538223Y-16606777D01*
X45521747Y-16588599D01*
X45507132Y-16568893D01*
X45494520Y-16547850D01*
X45484030Y-16525671D01*
X45475765Y-16502572D01*
X45469804Y-16478773D01*
X45466204Y-16454505D01*
X45465000Y-16430001D01*
X45465000Y-15529999D01*
X45466204Y-15505495D01*
X45469804Y-15481227D01*
X45475765Y-15457428D01*
X45484030Y-15434329D01*
X45494520Y-15412150D01*
X45507132Y-15391107D01*
X45521747Y-15371401D01*
X45538223Y-15353223D01*
X45556401Y-15336747D01*
X45576107Y-15322132D01*
X45597150Y-15309520D01*
X45619329Y-15299030D01*
X45642428Y-15290765D01*
X45666227Y-15284804D01*
X45690495Y-15281204D01*
X45714999Y-15280000D01*
X46365001Y-15280000D01*
X46389505Y-15281204D01*
G37*
D14*
X52065000Y-58080000D03*
X52065000Y-62380000D03*
D11*
G36*
X36774505Y-22631204D02*
G01*
X36798773Y-22634804D01*
X36822572Y-22640765D01*
X36845671Y-22649030D01*
X36867850Y-22659520D01*
X36888893Y-22672132D01*
X36908599Y-22686747D01*
X36926777Y-22703223D01*
X36943253Y-22721401D01*
X36957868Y-22741107D01*
X36970480Y-22762150D01*
X36980970Y-22784329D01*
X36989235Y-22807428D01*
X36995196Y-22831227D01*
X36998796Y-22855495D01*
X37000000Y-22879999D01*
X37000000Y-23530001D01*
X36998796Y-23554505D01*
X36995196Y-23578773D01*
X36989235Y-23602572D01*
X36980970Y-23625671D01*
X36970480Y-23647850D01*
X36957868Y-23668893D01*
X36943253Y-23688599D01*
X36926777Y-23706777D01*
X36908599Y-23723253D01*
X36888893Y-23737868D01*
X36867850Y-23750480D01*
X36845671Y-23760970D01*
X36822572Y-23769235D01*
X36798773Y-23775196D01*
X36774505Y-23778796D01*
X36750001Y-23780000D01*
X35849999Y-23780000D01*
X35825495Y-23778796D01*
X35801227Y-23775196D01*
X35777428Y-23769235D01*
X35754329Y-23760970D01*
X35732150Y-23750480D01*
X35711107Y-23737868D01*
X35691401Y-23723253D01*
X35673223Y-23706777D01*
X35656747Y-23688599D01*
X35642132Y-23668893D01*
X35629520Y-23647850D01*
X35619030Y-23625671D01*
X35610765Y-23602572D01*
X35604804Y-23578773D01*
X35601204Y-23554505D01*
X35600000Y-23530001D01*
X35600000Y-22879999D01*
X35601204Y-22855495D01*
X35604804Y-22831227D01*
X35610765Y-22807428D01*
X35619030Y-22784329D01*
X35629520Y-22762150D01*
X35642132Y-22741107D01*
X35656747Y-22721401D01*
X35673223Y-22703223D01*
X35691401Y-22686747D01*
X35711107Y-22672132D01*
X35732150Y-22659520D01*
X35754329Y-22649030D01*
X35777428Y-22640765D01*
X35801227Y-22634804D01*
X35825495Y-22631204D01*
X35849999Y-22630000D01*
X36750001Y-22630000D01*
X36774505Y-22631204D01*
G37*
G36*
X36774505Y-24681204D02*
G01*
X36798773Y-24684804D01*
X36822572Y-24690765D01*
X36845671Y-24699030D01*
X36867850Y-24709520D01*
X36888893Y-24722132D01*
X36908599Y-24736747D01*
X36926777Y-24753223D01*
X36943253Y-24771401D01*
X36957868Y-24791107D01*
X36970480Y-24812150D01*
X36980970Y-24834329D01*
X36989235Y-24857428D01*
X36995196Y-24881227D01*
X36998796Y-24905495D01*
X37000000Y-24929999D01*
X37000000Y-25580001D01*
X36998796Y-25604505D01*
X36995196Y-25628773D01*
X36989235Y-25652572D01*
X36980970Y-25675671D01*
X36970480Y-25697850D01*
X36957868Y-25718893D01*
X36943253Y-25738599D01*
X36926777Y-25756777D01*
X36908599Y-25773253D01*
X36888893Y-25787868D01*
X36867850Y-25800480D01*
X36845671Y-25810970D01*
X36822572Y-25819235D01*
X36798773Y-25825196D01*
X36774505Y-25828796D01*
X36750001Y-25830000D01*
X35849999Y-25830000D01*
X35825495Y-25828796D01*
X35801227Y-25825196D01*
X35777428Y-25819235D01*
X35754329Y-25810970D01*
X35732150Y-25800480D01*
X35711107Y-25787868D01*
X35691401Y-25773253D01*
X35673223Y-25756777D01*
X35656747Y-25738599D01*
X35642132Y-25718893D01*
X35629520Y-25697850D01*
X35619030Y-25675671D01*
X35610765Y-25652572D01*
X35604804Y-25628773D01*
X35601204Y-25604505D01*
X35600000Y-25580001D01*
X35600000Y-24929999D01*
X35601204Y-24905495D01*
X35604804Y-24881227D01*
X35610765Y-24857428D01*
X35619030Y-24834329D01*
X35629520Y-24812150D01*
X35642132Y-24791107D01*
X35656747Y-24771401D01*
X35673223Y-24753223D01*
X35691401Y-24736747D01*
X35711107Y-24722132D01*
X35732150Y-24709520D01*
X35754329Y-24699030D01*
X35777428Y-24690765D01*
X35801227Y-24684804D01*
X35825495Y-24681204D01*
X35849999Y-24680000D01*
X36750001Y-24680000D01*
X36774505Y-24681204D01*
G37*
G36*
X50864505Y-51331204D02*
G01*
X50888773Y-51334804D01*
X50912572Y-51340765D01*
X50935671Y-51349030D01*
X50957850Y-51359520D01*
X50978893Y-51372132D01*
X50998599Y-51386747D01*
X51016777Y-51403223D01*
X51033253Y-51421401D01*
X51047868Y-51441107D01*
X51060480Y-51462150D01*
X51070970Y-51484329D01*
X51079235Y-51507428D01*
X51085196Y-51531227D01*
X51088796Y-51555495D01*
X51090000Y-51579999D01*
X51090000Y-52480001D01*
X51088796Y-52504505D01*
X51085196Y-52528773D01*
X51079235Y-52552572D01*
X51070970Y-52575671D01*
X51060480Y-52597850D01*
X51047868Y-52618893D01*
X51033253Y-52638599D01*
X51016777Y-52656777D01*
X50998599Y-52673253D01*
X50978893Y-52687868D01*
X50957850Y-52700480D01*
X50935671Y-52710970D01*
X50912572Y-52719235D01*
X50888773Y-52725196D01*
X50864505Y-52728796D01*
X50840001Y-52730000D01*
X50189999Y-52730000D01*
X50165495Y-52728796D01*
X50141227Y-52725196D01*
X50117428Y-52719235D01*
X50094329Y-52710970D01*
X50072150Y-52700480D01*
X50051107Y-52687868D01*
X50031401Y-52673253D01*
X50013223Y-52656777D01*
X49996747Y-52638599D01*
X49982132Y-52618893D01*
X49969520Y-52597850D01*
X49959030Y-52575671D01*
X49950765Y-52552572D01*
X49944804Y-52528773D01*
X49941204Y-52504505D01*
X49940000Y-52480001D01*
X49940000Y-51579999D01*
X49941204Y-51555495D01*
X49944804Y-51531227D01*
X49950765Y-51507428D01*
X49959030Y-51484329D01*
X49969520Y-51462150D01*
X49982132Y-51441107D01*
X49996747Y-51421401D01*
X50013223Y-51403223D01*
X50031401Y-51386747D01*
X50051107Y-51372132D01*
X50072150Y-51359520D01*
X50094329Y-51349030D01*
X50117428Y-51340765D01*
X50141227Y-51334804D01*
X50165495Y-51331204D01*
X50189999Y-51330000D01*
X50840001Y-51330000D01*
X50864505Y-51331204D01*
G37*
G36*
X52914505Y-51331204D02*
G01*
X52938773Y-51334804D01*
X52962572Y-51340765D01*
X52985671Y-51349030D01*
X53007850Y-51359520D01*
X53028893Y-51372132D01*
X53048599Y-51386747D01*
X53066777Y-51403223D01*
X53083253Y-51421401D01*
X53097868Y-51441107D01*
X53110480Y-51462150D01*
X53120970Y-51484329D01*
X53129235Y-51507428D01*
X53135196Y-51531227D01*
X53138796Y-51555495D01*
X53140000Y-51579999D01*
X53140000Y-52480001D01*
X53138796Y-52504505D01*
X53135196Y-52528773D01*
X53129235Y-52552572D01*
X53120970Y-52575671D01*
X53110480Y-52597850D01*
X53097868Y-52618893D01*
X53083253Y-52638599D01*
X53066777Y-52656777D01*
X53048599Y-52673253D01*
X53028893Y-52687868D01*
X53007850Y-52700480D01*
X52985671Y-52710970D01*
X52962572Y-52719235D01*
X52938773Y-52725196D01*
X52914505Y-52728796D01*
X52890001Y-52730000D01*
X52239999Y-52730000D01*
X52215495Y-52728796D01*
X52191227Y-52725196D01*
X52167428Y-52719235D01*
X52144329Y-52710970D01*
X52122150Y-52700480D01*
X52101107Y-52687868D01*
X52081401Y-52673253D01*
X52063223Y-52656777D01*
X52046747Y-52638599D01*
X52032132Y-52618893D01*
X52019520Y-52597850D01*
X52009030Y-52575671D01*
X52000765Y-52552572D01*
X51994804Y-52528773D01*
X51991204Y-52504505D01*
X51990000Y-52480001D01*
X51990000Y-51579999D01*
X51991204Y-51555495D01*
X51994804Y-51531227D01*
X52000765Y-51507428D01*
X52009030Y-51484329D01*
X52019520Y-51462150D01*
X52032132Y-51441107D01*
X52046747Y-51421401D01*
X52063223Y-51403223D01*
X52081401Y-51386747D01*
X52101107Y-51372132D01*
X52122150Y-51359520D01*
X52144329Y-51349030D01*
X52167428Y-51340765D01*
X52191227Y-51334804D01*
X52215495Y-51331204D01*
X52239999Y-51330000D01*
X52890001Y-51330000D01*
X52914505Y-51331204D01*
G37*
G36*
X39614505Y-45831204D02*
G01*
X39638773Y-45834804D01*
X39662572Y-45840765D01*
X39685671Y-45849030D01*
X39707850Y-45859520D01*
X39728893Y-45872132D01*
X39748599Y-45886747D01*
X39766777Y-45903223D01*
X39783253Y-45921401D01*
X39797868Y-45941107D01*
X39810480Y-45962150D01*
X39820970Y-45984329D01*
X39829235Y-46007428D01*
X39835196Y-46031227D01*
X39838796Y-46055495D01*
X39840000Y-46079999D01*
X39840000Y-46980001D01*
X39838796Y-47004505D01*
X39835196Y-47028773D01*
X39829235Y-47052572D01*
X39820970Y-47075671D01*
X39810480Y-47097850D01*
X39797868Y-47118893D01*
X39783253Y-47138599D01*
X39766777Y-47156777D01*
X39748599Y-47173253D01*
X39728893Y-47187868D01*
X39707850Y-47200480D01*
X39685671Y-47210970D01*
X39662572Y-47219235D01*
X39638773Y-47225196D01*
X39614505Y-47228796D01*
X39590001Y-47230000D01*
X38939999Y-47230000D01*
X38915495Y-47228796D01*
X38891227Y-47225196D01*
X38867428Y-47219235D01*
X38844329Y-47210970D01*
X38822150Y-47200480D01*
X38801107Y-47187868D01*
X38781401Y-47173253D01*
X38763223Y-47156777D01*
X38746747Y-47138599D01*
X38732132Y-47118893D01*
X38719520Y-47097850D01*
X38709030Y-47075671D01*
X38700765Y-47052572D01*
X38694804Y-47028773D01*
X38691204Y-47004505D01*
X38690000Y-46980001D01*
X38690000Y-46079999D01*
X38691204Y-46055495D01*
X38694804Y-46031227D01*
X38700765Y-46007428D01*
X38709030Y-45984329D01*
X38719520Y-45962150D01*
X38732132Y-45941107D01*
X38746747Y-45921401D01*
X38763223Y-45903223D01*
X38781401Y-45886747D01*
X38801107Y-45872132D01*
X38822150Y-45859520D01*
X38844329Y-45849030D01*
X38867428Y-45840765D01*
X38891227Y-45834804D01*
X38915495Y-45831204D01*
X38939999Y-45830000D01*
X39590001Y-45830000D01*
X39614505Y-45831204D01*
G37*
G36*
X37564505Y-45831204D02*
G01*
X37588773Y-45834804D01*
X37612572Y-45840765D01*
X37635671Y-45849030D01*
X37657850Y-45859520D01*
X37678893Y-45872132D01*
X37698599Y-45886747D01*
X37716777Y-45903223D01*
X37733253Y-45921401D01*
X37747868Y-45941107D01*
X37760480Y-45962150D01*
X37770970Y-45984329D01*
X37779235Y-46007428D01*
X37785196Y-46031227D01*
X37788796Y-46055495D01*
X37790000Y-46079999D01*
X37790000Y-46980001D01*
X37788796Y-47004505D01*
X37785196Y-47028773D01*
X37779235Y-47052572D01*
X37770970Y-47075671D01*
X37760480Y-47097850D01*
X37747868Y-47118893D01*
X37733253Y-47138599D01*
X37716777Y-47156777D01*
X37698599Y-47173253D01*
X37678893Y-47187868D01*
X37657850Y-47200480D01*
X37635671Y-47210970D01*
X37612572Y-47219235D01*
X37588773Y-47225196D01*
X37564505Y-47228796D01*
X37540001Y-47230000D01*
X36889999Y-47230000D01*
X36865495Y-47228796D01*
X36841227Y-47225196D01*
X36817428Y-47219235D01*
X36794329Y-47210970D01*
X36772150Y-47200480D01*
X36751107Y-47187868D01*
X36731401Y-47173253D01*
X36713223Y-47156777D01*
X36696747Y-47138599D01*
X36682132Y-47118893D01*
X36669520Y-47097850D01*
X36659030Y-47075671D01*
X36650765Y-47052572D01*
X36644804Y-47028773D01*
X36641204Y-47004505D01*
X36640000Y-46980001D01*
X36640000Y-46079999D01*
X36641204Y-46055495D01*
X36644804Y-46031227D01*
X36650765Y-46007428D01*
X36659030Y-45984329D01*
X36669520Y-45962150D01*
X36682132Y-45941107D01*
X36696747Y-45921401D01*
X36713223Y-45903223D01*
X36731401Y-45886747D01*
X36751107Y-45872132D01*
X36772150Y-45859520D01*
X36794329Y-45849030D01*
X36817428Y-45840765D01*
X36841227Y-45834804D01*
X36865495Y-45831204D01*
X36889999Y-45830000D01*
X37540001Y-45830000D01*
X37564505Y-45831204D01*
G37*
D13*
X58140000Y-42110000D03*
X59090000Y-40110000D03*
X57190000Y-40110000D03*
D15*
X58140000Y-46000000D03*
X58140000Y-43900000D03*
D16*
X51590000Y-46380000D03*
X48290000Y-46380000D03*
X48290000Y-43880000D03*
X51590000Y-43880000D03*
X48290000Y-41380000D03*
X51590000Y-41380000D03*
D11*
G36*
X37564505Y-50231204D02*
G01*
X37588773Y-50234804D01*
X37612572Y-50240765D01*
X37635671Y-50249030D01*
X37657850Y-50259520D01*
X37678893Y-50272132D01*
X37698599Y-50286747D01*
X37716777Y-50303223D01*
X37733253Y-50321401D01*
X37747868Y-50341107D01*
X37760480Y-50362150D01*
X37770970Y-50384329D01*
X37779235Y-50407428D01*
X37785196Y-50431227D01*
X37788796Y-50455495D01*
X37790000Y-50479999D01*
X37790000Y-51380001D01*
X37788796Y-51404505D01*
X37785196Y-51428773D01*
X37779235Y-51452572D01*
X37770970Y-51475671D01*
X37760480Y-51497850D01*
X37747868Y-51518893D01*
X37733253Y-51538599D01*
X37716777Y-51556777D01*
X37698599Y-51573253D01*
X37678893Y-51587868D01*
X37657850Y-51600480D01*
X37635671Y-51610970D01*
X37612572Y-51619235D01*
X37588773Y-51625196D01*
X37564505Y-51628796D01*
X37540001Y-51630000D01*
X36889999Y-51630000D01*
X36865495Y-51628796D01*
X36841227Y-51625196D01*
X36817428Y-51619235D01*
X36794329Y-51610970D01*
X36772150Y-51600480D01*
X36751107Y-51587868D01*
X36731401Y-51573253D01*
X36713223Y-51556777D01*
X36696747Y-51538599D01*
X36682132Y-51518893D01*
X36669520Y-51497850D01*
X36659030Y-51475671D01*
X36650765Y-51452572D01*
X36644804Y-51428773D01*
X36641204Y-51404505D01*
X36640000Y-51380001D01*
X36640000Y-50479999D01*
X36641204Y-50455495D01*
X36644804Y-50431227D01*
X36650765Y-50407428D01*
X36659030Y-50384329D01*
X36669520Y-50362150D01*
X36682132Y-50341107D01*
X36696747Y-50321401D01*
X36713223Y-50303223D01*
X36731401Y-50286747D01*
X36751107Y-50272132D01*
X36772150Y-50259520D01*
X36794329Y-50249030D01*
X36817428Y-50240765D01*
X36841227Y-50234804D01*
X36865495Y-50231204D01*
X36889999Y-50230000D01*
X37540001Y-50230000D01*
X37564505Y-50231204D01*
G37*
G36*
X39614505Y-50231204D02*
G01*
X39638773Y-50234804D01*
X39662572Y-50240765D01*
X39685671Y-50249030D01*
X39707850Y-50259520D01*
X39728893Y-50272132D01*
X39748599Y-50286747D01*
X39766777Y-50303223D01*
X39783253Y-50321401D01*
X39797868Y-50341107D01*
X39810480Y-50362150D01*
X39820970Y-50384329D01*
X39829235Y-50407428D01*
X39835196Y-50431227D01*
X39838796Y-50455495D01*
X39840000Y-50479999D01*
X39840000Y-51380001D01*
X39838796Y-51404505D01*
X39835196Y-51428773D01*
X39829235Y-51452572D01*
X39820970Y-51475671D01*
X39810480Y-51497850D01*
X39797868Y-51518893D01*
X39783253Y-51538599D01*
X39766777Y-51556777D01*
X39748599Y-51573253D01*
X39728893Y-51587868D01*
X39707850Y-51600480D01*
X39685671Y-51610970D01*
X39662572Y-51619235D01*
X39638773Y-51625196D01*
X39614505Y-51628796D01*
X39590001Y-51630000D01*
X38939999Y-51630000D01*
X38915495Y-51628796D01*
X38891227Y-51625196D01*
X38867428Y-51619235D01*
X38844329Y-51610970D01*
X38822150Y-51600480D01*
X38801107Y-51587868D01*
X38781401Y-51573253D01*
X38763223Y-51556777D01*
X38746747Y-51538599D01*
X38732132Y-51518893D01*
X38719520Y-51497850D01*
X38709030Y-51475671D01*
X38700765Y-51452572D01*
X38694804Y-51428773D01*
X38691204Y-51404505D01*
X38690000Y-51380001D01*
X38690000Y-50479999D01*
X38691204Y-50455495D01*
X38694804Y-50431227D01*
X38700765Y-50407428D01*
X38709030Y-50384329D01*
X38719520Y-50362150D01*
X38732132Y-50341107D01*
X38746747Y-50321401D01*
X38763223Y-50303223D01*
X38781401Y-50286747D01*
X38801107Y-50272132D01*
X38822150Y-50259520D01*
X38844329Y-50249030D01*
X38867428Y-50240765D01*
X38891227Y-50234804D01*
X38915495Y-50231204D01*
X38939999Y-50230000D01*
X39590001Y-50230000D01*
X39614505Y-50231204D01*
G37*
G36*
X55114505Y-34956204D02*
G01*
X55138773Y-34959804D01*
X55162572Y-34965765D01*
X55185671Y-34974030D01*
X55207850Y-34984520D01*
X55228893Y-34997132D01*
X55248599Y-35011747D01*
X55266777Y-35028223D01*
X55283253Y-35046401D01*
X55297868Y-35066107D01*
X55310480Y-35087150D01*
X55320970Y-35109329D01*
X55329235Y-35132428D01*
X55335196Y-35156227D01*
X55338796Y-35180495D01*
X55340000Y-35204999D01*
X55340000Y-36105001D01*
X55338796Y-36129505D01*
X55335196Y-36153773D01*
X55329235Y-36177572D01*
X55320970Y-36200671D01*
X55310480Y-36222850D01*
X55297868Y-36243893D01*
X55283253Y-36263599D01*
X55266777Y-36281777D01*
X55248599Y-36298253D01*
X55228893Y-36312868D01*
X55207850Y-36325480D01*
X55185671Y-36335970D01*
X55162572Y-36344235D01*
X55138773Y-36350196D01*
X55114505Y-36353796D01*
X55090001Y-36355000D01*
X54439999Y-36355000D01*
X54415495Y-36353796D01*
X54391227Y-36350196D01*
X54367428Y-36344235D01*
X54344329Y-36335970D01*
X54322150Y-36325480D01*
X54301107Y-36312868D01*
X54281401Y-36298253D01*
X54263223Y-36281777D01*
X54246747Y-36263599D01*
X54232132Y-36243893D01*
X54219520Y-36222850D01*
X54209030Y-36200671D01*
X54200765Y-36177572D01*
X54194804Y-36153773D01*
X54191204Y-36129505D01*
X54190000Y-36105001D01*
X54190000Y-35204999D01*
X54191204Y-35180495D01*
X54194804Y-35156227D01*
X54200765Y-35132428D01*
X54209030Y-35109329D01*
X54219520Y-35087150D01*
X54232132Y-35066107D01*
X54246747Y-35046401D01*
X54263223Y-35028223D01*
X54281401Y-35011747D01*
X54301107Y-34997132D01*
X54322150Y-34984520D01*
X54344329Y-34974030D01*
X54367428Y-34965765D01*
X54391227Y-34959804D01*
X54415495Y-34956204D01*
X54439999Y-34955000D01*
X55090001Y-34955000D01*
X55114505Y-34956204D01*
G37*
G36*
X53064505Y-34956204D02*
G01*
X53088773Y-34959804D01*
X53112572Y-34965765D01*
X53135671Y-34974030D01*
X53157850Y-34984520D01*
X53178893Y-34997132D01*
X53198599Y-35011747D01*
X53216777Y-35028223D01*
X53233253Y-35046401D01*
X53247868Y-35066107D01*
X53260480Y-35087150D01*
X53270970Y-35109329D01*
X53279235Y-35132428D01*
X53285196Y-35156227D01*
X53288796Y-35180495D01*
X53290000Y-35204999D01*
X53290000Y-36105001D01*
X53288796Y-36129505D01*
X53285196Y-36153773D01*
X53279235Y-36177572D01*
X53270970Y-36200671D01*
X53260480Y-36222850D01*
X53247868Y-36243893D01*
X53233253Y-36263599D01*
X53216777Y-36281777D01*
X53198599Y-36298253D01*
X53178893Y-36312868D01*
X53157850Y-36325480D01*
X53135671Y-36335970D01*
X53112572Y-36344235D01*
X53088773Y-36350196D01*
X53064505Y-36353796D01*
X53040001Y-36355000D01*
X52389999Y-36355000D01*
X52365495Y-36353796D01*
X52341227Y-36350196D01*
X52317428Y-36344235D01*
X52294329Y-36335970D01*
X52272150Y-36325480D01*
X52251107Y-36312868D01*
X52231401Y-36298253D01*
X52213223Y-36281777D01*
X52196747Y-36263599D01*
X52182132Y-36243893D01*
X52169520Y-36222850D01*
X52159030Y-36200671D01*
X52150765Y-36177572D01*
X52144804Y-36153773D01*
X52141204Y-36129505D01*
X52140000Y-36105001D01*
X52140000Y-35204999D01*
X52141204Y-35180495D01*
X52144804Y-35156227D01*
X52150765Y-35132428D01*
X52159030Y-35109329D01*
X52169520Y-35087150D01*
X52182132Y-35066107D01*
X52196747Y-35046401D01*
X52213223Y-35028223D01*
X52231401Y-35011747D01*
X52251107Y-34997132D01*
X52272150Y-34984520D01*
X52294329Y-34974030D01*
X52317428Y-34965765D01*
X52341227Y-34959804D01*
X52365495Y-34956204D01*
X52389999Y-34955000D01*
X53040001Y-34955000D01*
X53064505Y-34956204D01*
G37*
G36*
X46044505Y-41101204D02*
G01*
X46068773Y-41104804D01*
X46092572Y-41110765D01*
X46115671Y-41119030D01*
X46137850Y-41129520D01*
X46158893Y-41142132D01*
X46178599Y-41156747D01*
X46196777Y-41173223D01*
X46213253Y-41191401D01*
X46227868Y-41211107D01*
X46240480Y-41232150D01*
X46250970Y-41254329D01*
X46259235Y-41277428D01*
X46265196Y-41301227D01*
X46268796Y-41325495D01*
X46270000Y-41349999D01*
X46270000Y-42000001D01*
X46268796Y-42024505D01*
X46265196Y-42048773D01*
X46259235Y-42072572D01*
X46250970Y-42095671D01*
X46240480Y-42117850D01*
X46227868Y-42138893D01*
X46213253Y-42158599D01*
X46196777Y-42176777D01*
X46178599Y-42193253D01*
X46158893Y-42207868D01*
X46137850Y-42220480D01*
X46115671Y-42230970D01*
X46092572Y-42239235D01*
X46068773Y-42245196D01*
X46044505Y-42248796D01*
X46020001Y-42250000D01*
X45119999Y-42250000D01*
X45095495Y-42248796D01*
X45071227Y-42245196D01*
X45047428Y-42239235D01*
X45024329Y-42230970D01*
X45002150Y-42220480D01*
X44981107Y-42207868D01*
X44961401Y-42193253D01*
X44943223Y-42176777D01*
X44926747Y-42158599D01*
X44912132Y-42138893D01*
X44899520Y-42117850D01*
X44889030Y-42095671D01*
X44880765Y-42072572D01*
X44874804Y-42048773D01*
X44871204Y-42024505D01*
X44870000Y-42000001D01*
X44870000Y-41349999D01*
X44871204Y-41325495D01*
X44874804Y-41301227D01*
X44880765Y-41277428D01*
X44889030Y-41254329D01*
X44899520Y-41232150D01*
X44912132Y-41211107D01*
X44926747Y-41191401D01*
X44943223Y-41173223D01*
X44961401Y-41156747D01*
X44981107Y-41142132D01*
X45002150Y-41129520D01*
X45024329Y-41119030D01*
X45047428Y-41110765D01*
X45071227Y-41104804D01*
X45095495Y-41101204D01*
X45119999Y-41100000D01*
X46020001Y-41100000D01*
X46044505Y-41101204D01*
G37*
G36*
X46044505Y-43151204D02*
G01*
X46068773Y-43154804D01*
X46092572Y-43160765D01*
X46115671Y-43169030D01*
X46137850Y-43179520D01*
X46158893Y-43192132D01*
X46178599Y-43206747D01*
X46196777Y-43223223D01*
X46213253Y-43241401D01*
X46227868Y-43261107D01*
X46240480Y-43282150D01*
X46250970Y-43304329D01*
X46259235Y-43327428D01*
X46265196Y-43351227D01*
X46268796Y-43375495D01*
X46270000Y-43399999D01*
X46270000Y-44050001D01*
X46268796Y-44074505D01*
X46265196Y-44098773D01*
X46259235Y-44122572D01*
X46250970Y-44145671D01*
X46240480Y-44167850D01*
X46227868Y-44188893D01*
X46213253Y-44208599D01*
X46196777Y-44226777D01*
X46178599Y-44243253D01*
X46158893Y-44257868D01*
X46137850Y-44270480D01*
X46115671Y-44280970D01*
X46092572Y-44289235D01*
X46068773Y-44295196D01*
X46044505Y-44298796D01*
X46020001Y-44300000D01*
X45119999Y-44300000D01*
X45095495Y-44298796D01*
X45071227Y-44295196D01*
X45047428Y-44289235D01*
X45024329Y-44280970D01*
X45002150Y-44270480D01*
X44981107Y-44257868D01*
X44961401Y-44243253D01*
X44943223Y-44226777D01*
X44926747Y-44208599D01*
X44912132Y-44188893D01*
X44899520Y-44167850D01*
X44889030Y-44145671D01*
X44880765Y-44122572D01*
X44874804Y-44098773D01*
X44871204Y-44074505D01*
X44870000Y-44050001D01*
X44870000Y-43399999D01*
X44871204Y-43375495D01*
X44874804Y-43351227D01*
X44880765Y-43327428D01*
X44889030Y-43304329D01*
X44899520Y-43282150D01*
X44912132Y-43261107D01*
X44926747Y-43241401D01*
X44943223Y-43223223D01*
X44961401Y-43206747D01*
X44981107Y-43192132D01*
X45002150Y-43179520D01*
X45024329Y-43169030D01*
X45047428Y-43160765D01*
X45071227Y-43154804D01*
X45095495Y-43151204D01*
X45119999Y-43150000D01*
X46020001Y-43150000D01*
X46044505Y-43151204D01*
G37*
G36*
X39614505Y-43431204D02*
G01*
X39638773Y-43434804D01*
X39662572Y-43440765D01*
X39685671Y-43449030D01*
X39707850Y-43459520D01*
X39728893Y-43472132D01*
X39748599Y-43486747D01*
X39766777Y-43503223D01*
X39783253Y-43521401D01*
X39797868Y-43541107D01*
X39810480Y-43562150D01*
X39820970Y-43584329D01*
X39829235Y-43607428D01*
X39835196Y-43631227D01*
X39838796Y-43655495D01*
X39840000Y-43679999D01*
X39840000Y-44580001D01*
X39838796Y-44604505D01*
X39835196Y-44628773D01*
X39829235Y-44652572D01*
X39820970Y-44675671D01*
X39810480Y-44697850D01*
X39797868Y-44718893D01*
X39783253Y-44738599D01*
X39766777Y-44756777D01*
X39748599Y-44773253D01*
X39728893Y-44787868D01*
X39707850Y-44800480D01*
X39685671Y-44810970D01*
X39662572Y-44819235D01*
X39638773Y-44825196D01*
X39614505Y-44828796D01*
X39590001Y-44830000D01*
X38939999Y-44830000D01*
X38915495Y-44828796D01*
X38891227Y-44825196D01*
X38867428Y-44819235D01*
X38844329Y-44810970D01*
X38822150Y-44800480D01*
X38801107Y-44787868D01*
X38781401Y-44773253D01*
X38763223Y-44756777D01*
X38746747Y-44738599D01*
X38732132Y-44718893D01*
X38719520Y-44697850D01*
X38709030Y-44675671D01*
X38700765Y-44652572D01*
X38694804Y-44628773D01*
X38691204Y-44604505D01*
X38690000Y-44580001D01*
X38690000Y-43679999D01*
X38691204Y-43655495D01*
X38694804Y-43631227D01*
X38700765Y-43607428D01*
X38709030Y-43584329D01*
X38719520Y-43562150D01*
X38732132Y-43541107D01*
X38746747Y-43521401D01*
X38763223Y-43503223D01*
X38781401Y-43486747D01*
X38801107Y-43472132D01*
X38822150Y-43459520D01*
X38844329Y-43449030D01*
X38867428Y-43440765D01*
X38891227Y-43434804D01*
X38915495Y-43431204D01*
X38939999Y-43430000D01*
X39590001Y-43430000D01*
X39614505Y-43431204D01*
G37*
G36*
X37564505Y-43431204D02*
G01*
X37588773Y-43434804D01*
X37612572Y-43440765D01*
X37635671Y-43449030D01*
X37657850Y-43459520D01*
X37678893Y-43472132D01*
X37698599Y-43486747D01*
X37716777Y-43503223D01*
X37733253Y-43521401D01*
X37747868Y-43541107D01*
X37760480Y-43562150D01*
X37770970Y-43584329D01*
X37779235Y-43607428D01*
X37785196Y-43631227D01*
X37788796Y-43655495D01*
X37790000Y-43679999D01*
X37790000Y-44580001D01*
X37788796Y-44604505D01*
X37785196Y-44628773D01*
X37779235Y-44652572D01*
X37770970Y-44675671D01*
X37760480Y-44697850D01*
X37747868Y-44718893D01*
X37733253Y-44738599D01*
X37716777Y-44756777D01*
X37698599Y-44773253D01*
X37678893Y-44787868D01*
X37657850Y-44800480D01*
X37635671Y-44810970D01*
X37612572Y-44819235D01*
X37588773Y-44825196D01*
X37564505Y-44828796D01*
X37540001Y-44830000D01*
X36889999Y-44830000D01*
X36865495Y-44828796D01*
X36841227Y-44825196D01*
X36817428Y-44819235D01*
X36794329Y-44810970D01*
X36772150Y-44800480D01*
X36751107Y-44787868D01*
X36731401Y-44773253D01*
X36713223Y-44756777D01*
X36696747Y-44738599D01*
X36682132Y-44718893D01*
X36669520Y-44697850D01*
X36659030Y-44675671D01*
X36650765Y-44652572D01*
X36644804Y-44628773D01*
X36641204Y-44604505D01*
X36640000Y-44580001D01*
X36640000Y-43679999D01*
X36641204Y-43655495D01*
X36644804Y-43631227D01*
X36650765Y-43607428D01*
X36659030Y-43584329D01*
X36669520Y-43562150D01*
X36682132Y-43541107D01*
X36696747Y-43521401D01*
X36713223Y-43503223D01*
X36731401Y-43486747D01*
X36751107Y-43472132D01*
X36772150Y-43459520D01*
X36794329Y-43449030D01*
X36817428Y-43440765D01*
X36841227Y-43434804D01*
X36865495Y-43431204D01*
X36889999Y-43430000D01*
X37540001Y-43430000D01*
X37564505Y-43431204D01*
G37*
G36*
X39614505Y-48031204D02*
G01*
X39638773Y-48034804D01*
X39662572Y-48040765D01*
X39685671Y-48049030D01*
X39707850Y-48059520D01*
X39728893Y-48072132D01*
X39748599Y-48086747D01*
X39766777Y-48103223D01*
X39783253Y-48121401D01*
X39797868Y-48141107D01*
X39810480Y-48162150D01*
X39820970Y-48184329D01*
X39829235Y-48207428D01*
X39835196Y-48231227D01*
X39838796Y-48255495D01*
X39840000Y-48279999D01*
X39840000Y-49180001D01*
X39838796Y-49204505D01*
X39835196Y-49228773D01*
X39829235Y-49252572D01*
X39820970Y-49275671D01*
X39810480Y-49297850D01*
X39797868Y-49318893D01*
X39783253Y-49338599D01*
X39766777Y-49356777D01*
X39748599Y-49373253D01*
X39728893Y-49387868D01*
X39707850Y-49400480D01*
X39685671Y-49410970D01*
X39662572Y-49419235D01*
X39638773Y-49425196D01*
X39614505Y-49428796D01*
X39590001Y-49430000D01*
X38939999Y-49430000D01*
X38915495Y-49428796D01*
X38891227Y-49425196D01*
X38867428Y-49419235D01*
X38844329Y-49410970D01*
X38822150Y-49400480D01*
X38801107Y-49387868D01*
X38781401Y-49373253D01*
X38763223Y-49356777D01*
X38746747Y-49338599D01*
X38732132Y-49318893D01*
X38719520Y-49297850D01*
X38709030Y-49275671D01*
X38700765Y-49252572D01*
X38694804Y-49228773D01*
X38691204Y-49204505D01*
X38690000Y-49180001D01*
X38690000Y-48279999D01*
X38691204Y-48255495D01*
X38694804Y-48231227D01*
X38700765Y-48207428D01*
X38709030Y-48184329D01*
X38719520Y-48162150D01*
X38732132Y-48141107D01*
X38746747Y-48121401D01*
X38763223Y-48103223D01*
X38781401Y-48086747D01*
X38801107Y-48072132D01*
X38822150Y-48059520D01*
X38844329Y-48049030D01*
X38867428Y-48040765D01*
X38891227Y-48034804D01*
X38915495Y-48031204D01*
X38939999Y-48030000D01*
X39590001Y-48030000D01*
X39614505Y-48031204D01*
G37*
G36*
X37564505Y-48031204D02*
G01*
X37588773Y-48034804D01*
X37612572Y-48040765D01*
X37635671Y-48049030D01*
X37657850Y-48059520D01*
X37678893Y-48072132D01*
X37698599Y-48086747D01*
X37716777Y-48103223D01*
X37733253Y-48121401D01*
X37747868Y-48141107D01*
X37760480Y-48162150D01*
X37770970Y-48184329D01*
X37779235Y-48207428D01*
X37785196Y-48231227D01*
X37788796Y-48255495D01*
X37790000Y-48279999D01*
X37790000Y-49180001D01*
X37788796Y-49204505D01*
X37785196Y-49228773D01*
X37779235Y-49252572D01*
X37770970Y-49275671D01*
X37760480Y-49297850D01*
X37747868Y-49318893D01*
X37733253Y-49338599D01*
X37716777Y-49356777D01*
X37698599Y-49373253D01*
X37678893Y-49387868D01*
X37657850Y-49400480D01*
X37635671Y-49410970D01*
X37612572Y-49419235D01*
X37588773Y-49425196D01*
X37564505Y-49428796D01*
X37540001Y-49430000D01*
X36889999Y-49430000D01*
X36865495Y-49428796D01*
X36841227Y-49425196D01*
X36817428Y-49419235D01*
X36794329Y-49410970D01*
X36772150Y-49400480D01*
X36751107Y-49387868D01*
X36731401Y-49373253D01*
X36713223Y-49356777D01*
X36696747Y-49338599D01*
X36682132Y-49318893D01*
X36669520Y-49297850D01*
X36659030Y-49275671D01*
X36650765Y-49252572D01*
X36644804Y-49228773D01*
X36641204Y-49204505D01*
X36640000Y-49180001D01*
X36640000Y-48279999D01*
X36641204Y-48255495D01*
X36644804Y-48231227D01*
X36650765Y-48207428D01*
X36659030Y-48184329D01*
X36669520Y-48162150D01*
X36682132Y-48141107D01*
X36696747Y-48121401D01*
X36713223Y-48103223D01*
X36731401Y-48086747D01*
X36751107Y-48072132D01*
X36772150Y-48059520D01*
X36794329Y-48049030D01*
X36817428Y-48040765D01*
X36841227Y-48034804D01*
X36865495Y-48031204D01*
X36889999Y-48030000D01*
X37540001Y-48030000D01*
X37564505Y-48031204D01*
G37*
G36*
X39614505Y-32131204D02*
G01*
X39638773Y-32134804D01*
X39662572Y-32140765D01*
X39685671Y-32149030D01*
X39707850Y-32159520D01*
X39728893Y-32172132D01*
X39748599Y-32186747D01*
X39766777Y-32203223D01*
X39783253Y-32221401D01*
X39797868Y-32241107D01*
X39810480Y-32262150D01*
X39820970Y-32284329D01*
X39829235Y-32307428D01*
X39835196Y-32331227D01*
X39838796Y-32355495D01*
X39840000Y-32379999D01*
X39840000Y-33280001D01*
X39838796Y-33304505D01*
X39835196Y-33328773D01*
X39829235Y-33352572D01*
X39820970Y-33375671D01*
X39810480Y-33397850D01*
X39797868Y-33418893D01*
X39783253Y-33438599D01*
X39766777Y-33456777D01*
X39748599Y-33473253D01*
X39728893Y-33487868D01*
X39707850Y-33500480D01*
X39685671Y-33510970D01*
X39662572Y-33519235D01*
X39638773Y-33525196D01*
X39614505Y-33528796D01*
X39590001Y-33530000D01*
X38939999Y-33530000D01*
X38915495Y-33528796D01*
X38891227Y-33525196D01*
X38867428Y-33519235D01*
X38844329Y-33510970D01*
X38822150Y-33500480D01*
X38801107Y-33487868D01*
X38781401Y-33473253D01*
X38763223Y-33456777D01*
X38746747Y-33438599D01*
X38732132Y-33418893D01*
X38719520Y-33397850D01*
X38709030Y-33375671D01*
X38700765Y-33352572D01*
X38694804Y-33328773D01*
X38691204Y-33304505D01*
X38690000Y-33280001D01*
X38690000Y-32379999D01*
X38691204Y-32355495D01*
X38694804Y-32331227D01*
X38700765Y-32307428D01*
X38709030Y-32284329D01*
X38719520Y-32262150D01*
X38732132Y-32241107D01*
X38746747Y-32221401D01*
X38763223Y-32203223D01*
X38781401Y-32186747D01*
X38801107Y-32172132D01*
X38822150Y-32159520D01*
X38844329Y-32149030D01*
X38867428Y-32140765D01*
X38891227Y-32134804D01*
X38915495Y-32131204D01*
X38939999Y-32130000D01*
X39590001Y-32130000D01*
X39614505Y-32131204D01*
G37*
G36*
X37564505Y-32131204D02*
G01*
X37588773Y-32134804D01*
X37612572Y-32140765D01*
X37635671Y-32149030D01*
X37657850Y-32159520D01*
X37678893Y-32172132D01*
X37698599Y-32186747D01*
X37716777Y-32203223D01*
X37733253Y-32221401D01*
X37747868Y-32241107D01*
X37760480Y-32262150D01*
X37770970Y-32284329D01*
X37779235Y-32307428D01*
X37785196Y-32331227D01*
X37788796Y-32355495D01*
X37790000Y-32379999D01*
X37790000Y-33280001D01*
X37788796Y-33304505D01*
X37785196Y-33328773D01*
X37779235Y-33352572D01*
X37770970Y-33375671D01*
X37760480Y-33397850D01*
X37747868Y-33418893D01*
X37733253Y-33438599D01*
X37716777Y-33456777D01*
X37698599Y-33473253D01*
X37678893Y-33487868D01*
X37657850Y-33500480D01*
X37635671Y-33510970D01*
X37612572Y-33519235D01*
X37588773Y-33525196D01*
X37564505Y-33528796D01*
X37540001Y-33530000D01*
X36889999Y-33530000D01*
X36865495Y-33528796D01*
X36841227Y-33525196D01*
X36817428Y-33519235D01*
X36794329Y-33510970D01*
X36772150Y-33500480D01*
X36751107Y-33487868D01*
X36731401Y-33473253D01*
X36713223Y-33456777D01*
X36696747Y-33438599D01*
X36682132Y-33418893D01*
X36669520Y-33397850D01*
X36659030Y-33375671D01*
X36650765Y-33352572D01*
X36644804Y-33328773D01*
X36641204Y-33304505D01*
X36640000Y-33280001D01*
X36640000Y-32379999D01*
X36641204Y-32355495D01*
X36644804Y-32331227D01*
X36650765Y-32307428D01*
X36659030Y-32284329D01*
X36669520Y-32262150D01*
X36682132Y-32241107D01*
X36696747Y-32221401D01*
X36713223Y-32203223D01*
X36731401Y-32186747D01*
X36751107Y-32172132D01*
X36772150Y-32159520D01*
X36794329Y-32149030D01*
X36817428Y-32140765D01*
X36841227Y-32134804D01*
X36865495Y-32131204D01*
X36889999Y-32130000D01*
X37540001Y-32130000D01*
X37564505Y-32131204D01*
G37*
G36*
X39614505Y-34331204D02*
G01*
X39638773Y-34334804D01*
X39662572Y-34340765D01*
X39685671Y-34349030D01*
X39707850Y-34359520D01*
X39728893Y-34372132D01*
X39748599Y-34386747D01*
X39766777Y-34403223D01*
X39783253Y-34421401D01*
X39797868Y-34441107D01*
X39810480Y-34462150D01*
X39820970Y-34484329D01*
X39829235Y-34507428D01*
X39835196Y-34531227D01*
X39838796Y-34555495D01*
X39840000Y-34579999D01*
X39840000Y-35480001D01*
X39838796Y-35504505D01*
X39835196Y-35528773D01*
X39829235Y-35552572D01*
X39820970Y-35575671D01*
X39810480Y-35597850D01*
X39797868Y-35618893D01*
X39783253Y-35638599D01*
X39766777Y-35656777D01*
X39748599Y-35673253D01*
X39728893Y-35687868D01*
X39707850Y-35700480D01*
X39685671Y-35710970D01*
X39662572Y-35719235D01*
X39638773Y-35725196D01*
X39614505Y-35728796D01*
X39590001Y-35730000D01*
X38939999Y-35730000D01*
X38915495Y-35728796D01*
X38891227Y-35725196D01*
X38867428Y-35719235D01*
X38844329Y-35710970D01*
X38822150Y-35700480D01*
X38801107Y-35687868D01*
X38781401Y-35673253D01*
X38763223Y-35656777D01*
X38746747Y-35638599D01*
X38732132Y-35618893D01*
X38719520Y-35597850D01*
X38709030Y-35575671D01*
X38700765Y-35552572D01*
X38694804Y-35528773D01*
X38691204Y-35504505D01*
X38690000Y-35480001D01*
X38690000Y-34579999D01*
X38691204Y-34555495D01*
X38694804Y-34531227D01*
X38700765Y-34507428D01*
X38709030Y-34484329D01*
X38719520Y-34462150D01*
X38732132Y-34441107D01*
X38746747Y-34421401D01*
X38763223Y-34403223D01*
X38781401Y-34386747D01*
X38801107Y-34372132D01*
X38822150Y-34359520D01*
X38844329Y-34349030D01*
X38867428Y-34340765D01*
X38891227Y-34334804D01*
X38915495Y-34331204D01*
X38939999Y-34330000D01*
X39590001Y-34330000D01*
X39614505Y-34331204D01*
G37*
G36*
X37564505Y-34331204D02*
G01*
X37588773Y-34334804D01*
X37612572Y-34340765D01*
X37635671Y-34349030D01*
X37657850Y-34359520D01*
X37678893Y-34372132D01*
X37698599Y-34386747D01*
X37716777Y-34403223D01*
X37733253Y-34421401D01*
X37747868Y-34441107D01*
X37760480Y-34462150D01*
X37770970Y-34484329D01*
X37779235Y-34507428D01*
X37785196Y-34531227D01*
X37788796Y-34555495D01*
X37790000Y-34579999D01*
X37790000Y-35480001D01*
X37788796Y-35504505D01*
X37785196Y-35528773D01*
X37779235Y-35552572D01*
X37770970Y-35575671D01*
X37760480Y-35597850D01*
X37747868Y-35618893D01*
X37733253Y-35638599D01*
X37716777Y-35656777D01*
X37698599Y-35673253D01*
X37678893Y-35687868D01*
X37657850Y-35700480D01*
X37635671Y-35710970D01*
X37612572Y-35719235D01*
X37588773Y-35725196D01*
X37564505Y-35728796D01*
X37540001Y-35730000D01*
X36889999Y-35730000D01*
X36865495Y-35728796D01*
X36841227Y-35725196D01*
X36817428Y-35719235D01*
X36794329Y-35710970D01*
X36772150Y-35700480D01*
X36751107Y-35687868D01*
X36731401Y-35673253D01*
X36713223Y-35656777D01*
X36696747Y-35638599D01*
X36682132Y-35618893D01*
X36669520Y-35597850D01*
X36659030Y-35575671D01*
X36650765Y-35552572D01*
X36644804Y-35528773D01*
X36641204Y-35504505D01*
X36640000Y-35480001D01*
X36640000Y-34579999D01*
X36641204Y-34555495D01*
X36644804Y-34531227D01*
X36650765Y-34507428D01*
X36659030Y-34484329D01*
X36669520Y-34462150D01*
X36682132Y-34441107D01*
X36696747Y-34421401D01*
X36713223Y-34403223D01*
X36731401Y-34386747D01*
X36751107Y-34372132D01*
X36772150Y-34359520D01*
X36794329Y-34349030D01*
X36817428Y-34340765D01*
X36841227Y-34334804D01*
X36865495Y-34331204D01*
X36889999Y-34330000D01*
X37540001Y-34330000D01*
X37564505Y-34331204D01*
G37*
G36*
X39614505Y-36531204D02*
G01*
X39638773Y-36534804D01*
X39662572Y-36540765D01*
X39685671Y-36549030D01*
X39707850Y-36559520D01*
X39728893Y-36572132D01*
X39748599Y-36586747D01*
X39766777Y-36603223D01*
X39783253Y-36621401D01*
X39797868Y-36641107D01*
X39810480Y-36662150D01*
X39820970Y-36684329D01*
X39829235Y-36707428D01*
X39835196Y-36731227D01*
X39838796Y-36755495D01*
X39840000Y-36779999D01*
X39840000Y-37680001D01*
X39838796Y-37704505D01*
X39835196Y-37728773D01*
X39829235Y-37752572D01*
X39820970Y-37775671D01*
X39810480Y-37797850D01*
X39797868Y-37818893D01*
X39783253Y-37838599D01*
X39766777Y-37856777D01*
X39748599Y-37873253D01*
X39728893Y-37887868D01*
X39707850Y-37900480D01*
X39685671Y-37910970D01*
X39662572Y-37919235D01*
X39638773Y-37925196D01*
X39614505Y-37928796D01*
X39590001Y-37930000D01*
X38939999Y-37930000D01*
X38915495Y-37928796D01*
X38891227Y-37925196D01*
X38867428Y-37919235D01*
X38844329Y-37910970D01*
X38822150Y-37900480D01*
X38801107Y-37887868D01*
X38781401Y-37873253D01*
X38763223Y-37856777D01*
X38746747Y-37838599D01*
X38732132Y-37818893D01*
X38719520Y-37797850D01*
X38709030Y-37775671D01*
X38700765Y-37752572D01*
X38694804Y-37728773D01*
X38691204Y-37704505D01*
X38690000Y-37680001D01*
X38690000Y-36779999D01*
X38691204Y-36755495D01*
X38694804Y-36731227D01*
X38700765Y-36707428D01*
X38709030Y-36684329D01*
X38719520Y-36662150D01*
X38732132Y-36641107D01*
X38746747Y-36621401D01*
X38763223Y-36603223D01*
X38781401Y-36586747D01*
X38801107Y-36572132D01*
X38822150Y-36559520D01*
X38844329Y-36549030D01*
X38867428Y-36540765D01*
X38891227Y-36534804D01*
X38915495Y-36531204D01*
X38939999Y-36530000D01*
X39590001Y-36530000D01*
X39614505Y-36531204D01*
G37*
G36*
X37564505Y-36531204D02*
G01*
X37588773Y-36534804D01*
X37612572Y-36540765D01*
X37635671Y-36549030D01*
X37657850Y-36559520D01*
X37678893Y-36572132D01*
X37698599Y-36586747D01*
X37716777Y-36603223D01*
X37733253Y-36621401D01*
X37747868Y-36641107D01*
X37760480Y-36662150D01*
X37770970Y-36684329D01*
X37779235Y-36707428D01*
X37785196Y-36731227D01*
X37788796Y-36755495D01*
X37790000Y-36779999D01*
X37790000Y-37680001D01*
X37788796Y-37704505D01*
X37785196Y-37728773D01*
X37779235Y-37752572D01*
X37770970Y-37775671D01*
X37760480Y-37797850D01*
X37747868Y-37818893D01*
X37733253Y-37838599D01*
X37716777Y-37856777D01*
X37698599Y-37873253D01*
X37678893Y-37887868D01*
X37657850Y-37900480D01*
X37635671Y-37910970D01*
X37612572Y-37919235D01*
X37588773Y-37925196D01*
X37564505Y-37928796D01*
X37540001Y-37930000D01*
X36889999Y-37930000D01*
X36865495Y-37928796D01*
X36841227Y-37925196D01*
X36817428Y-37919235D01*
X36794329Y-37910970D01*
X36772150Y-37900480D01*
X36751107Y-37887868D01*
X36731401Y-37873253D01*
X36713223Y-37856777D01*
X36696747Y-37838599D01*
X36682132Y-37818893D01*
X36669520Y-37797850D01*
X36659030Y-37775671D01*
X36650765Y-37752572D01*
X36644804Y-37728773D01*
X36641204Y-37704505D01*
X36640000Y-37680001D01*
X36640000Y-36779999D01*
X36641204Y-36755495D01*
X36644804Y-36731227D01*
X36650765Y-36707428D01*
X36659030Y-36684329D01*
X36669520Y-36662150D01*
X36682132Y-36641107D01*
X36696747Y-36621401D01*
X36713223Y-36603223D01*
X36731401Y-36586747D01*
X36751107Y-36572132D01*
X36772150Y-36559520D01*
X36794329Y-36549030D01*
X36817428Y-36540765D01*
X36841227Y-36534804D01*
X36865495Y-36531204D01*
X36889999Y-36530000D01*
X37540001Y-36530000D01*
X37564505Y-36531204D01*
G37*
G36*
X39614505Y-38731204D02*
G01*
X39638773Y-38734804D01*
X39662572Y-38740765D01*
X39685671Y-38749030D01*
X39707850Y-38759520D01*
X39728893Y-38772132D01*
X39748599Y-38786747D01*
X39766777Y-38803223D01*
X39783253Y-38821401D01*
X39797868Y-38841107D01*
X39810480Y-38862150D01*
X39820970Y-38884329D01*
X39829235Y-38907428D01*
X39835196Y-38931227D01*
X39838796Y-38955495D01*
X39840000Y-38979999D01*
X39840000Y-39880001D01*
X39838796Y-39904505D01*
X39835196Y-39928773D01*
X39829235Y-39952572D01*
X39820970Y-39975671D01*
X39810480Y-39997850D01*
X39797868Y-40018893D01*
X39783253Y-40038599D01*
X39766777Y-40056777D01*
X39748599Y-40073253D01*
X39728893Y-40087868D01*
X39707850Y-40100480D01*
X39685671Y-40110970D01*
X39662572Y-40119235D01*
X39638773Y-40125196D01*
X39614505Y-40128796D01*
X39590001Y-40130000D01*
X38939999Y-40130000D01*
X38915495Y-40128796D01*
X38891227Y-40125196D01*
X38867428Y-40119235D01*
X38844329Y-40110970D01*
X38822150Y-40100480D01*
X38801107Y-40087868D01*
X38781401Y-40073253D01*
X38763223Y-40056777D01*
X38746747Y-40038599D01*
X38732132Y-40018893D01*
X38719520Y-39997850D01*
X38709030Y-39975671D01*
X38700765Y-39952572D01*
X38694804Y-39928773D01*
X38691204Y-39904505D01*
X38690000Y-39880001D01*
X38690000Y-38979999D01*
X38691204Y-38955495D01*
X38694804Y-38931227D01*
X38700765Y-38907428D01*
X38709030Y-38884329D01*
X38719520Y-38862150D01*
X38732132Y-38841107D01*
X38746747Y-38821401D01*
X38763223Y-38803223D01*
X38781401Y-38786747D01*
X38801107Y-38772132D01*
X38822150Y-38759520D01*
X38844329Y-38749030D01*
X38867428Y-38740765D01*
X38891227Y-38734804D01*
X38915495Y-38731204D01*
X38939999Y-38730000D01*
X39590001Y-38730000D01*
X39614505Y-38731204D01*
G37*
G36*
X37564505Y-38731204D02*
G01*
X37588773Y-38734804D01*
X37612572Y-38740765D01*
X37635671Y-38749030D01*
X37657850Y-38759520D01*
X37678893Y-38772132D01*
X37698599Y-38786747D01*
X37716777Y-38803223D01*
X37733253Y-38821401D01*
X37747868Y-38841107D01*
X37760480Y-38862150D01*
X37770970Y-38884329D01*
X37779235Y-38907428D01*
X37785196Y-38931227D01*
X37788796Y-38955495D01*
X37790000Y-38979999D01*
X37790000Y-39880001D01*
X37788796Y-39904505D01*
X37785196Y-39928773D01*
X37779235Y-39952572D01*
X37770970Y-39975671D01*
X37760480Y-39997850D01*
X37747868Y-40018893D01*
X37733253Y-40038599D01*
X37716777Y-40056777D01*
X37698599Y-40073253D01*
X37678893Y-40087868D01*
X37657850Y-40100480D01*
X37635671Y-40110970D01*
X37612572Y-40119235D01*
X37588773Y-40125196D01*
X37564505Y-40128796D01*
X37540001Y-40130000D01*
X36889999Y-40130000D01*
X36865495Y-40128796D01*
X36841227Y-40125196D01*
X36817428Y-40119235D01*
X36794329Y-40110970D01*
X36772150Y-40100480D01*
X36751107Y-40087868D01*
X36731401Y-40073253D01*
X36713223Y-40056777D01*
X36696747Y-40038599D01*
X36682132Y-40018893D01*
X36669520Y-39997850D01*
X36659030Y-39975671D01*
X36650765Y-39952572D01*
X36644804Y-39928773D01*
X36641204Y-39904505D01*
X36640000Y-39880001D01*
X36640000Y-38979999D01*
X36641204Y-38955495D01*
X36644804Y-38931227D01*
X36650765Y-38907428D01*
X36659030Y-38884329D01*
X36669520Y-38862150D01*
X36682132Y-38841107D01*
X36696747Y-38821401D01*
X36713223Y-38803223D01*
X36731401Y-38786747D01*
X36751107Y-38772132D01*
X36772150Y-38759520D01*
X36794329Y-38749030D01*
X36817428Y-38740765D01*
X36841227Y-38734804D01*
X36865495Y-38731204D01*
X36889999Y-38730000D01*
X37540001Y-38730000D01*
X37564505Y-38731204D01*
G37*
G36*
X39614505Y-41131204D02*
G01*
X39638773Y-41134804D01*
X39662572Y-41140765D01*
X39685671Y-41149030D01*
X39707850Y-41159520D01*
X39728893Y-41172132D01*
X39748599Y-41186747D01*
X39766777Y-41203223D01*
X39783253Y-41221401D01*
X39797868Y-41241107D01*
X39810480Y-41262150D01*
X39820970Y-41284329D01*
X39829235Y-41307428D01*
X39835196Y-41331227D01*
X39838796Y-41355495D01*
X39840000Y-41379999D01*
X39840000Y-42280001D01*
X39838796Y-42304505D01*
X39835196Y-42328773D01*
X39829235Y-42352572D01*
X39820970Y-42375671D01*
X39810480Y-42397850D01*
X39797868Y-42418893D01*
X39783253Y-42438599D01*
X39766777Y-42456777D01*
X39748599Y-42473253D01*
X39728893Y-42487868D01*
X39707850Y-42500480D01*
X39685671Y-42510970D01*
X39662572Y-42519235D01*
X39638773Y-42525196D01*
X39614505Y-42528796D01*
X39590001Y-42530000D01*
X38939999Y-42530000D01*
X38915495Y-42528796D01*
X38891227Y-42525196D01*
X38867428Y-42519235D01*
X38844329Y-42510970D01*
X38822150Y-42500480D01*
X38801107Y-42487868D01*
X38781401Y-42473253D01*
X38763223Y-42456777D01*
X38746747Y-42438599D01*
X38732132Y-42418893D01*
X38719520Y-42397850D01*
X38709030Y-42375671D01*
X38700765Y-42352572D01*
X38694804Y-42328773D01*
X38691204Y-42304505D01*
X38690000Y-42280001D01*
X38690000Y-41379999D01*
X38691204Y-41355495D01*
X38694804Y-41331227D01*
X38700765Y-41307428D01*
X38709030Y-41284329D01*
X38719520Y-41262150D01*
X38732132Y-41241107D01*
X38746747Y-41221401D01*
X38763223Y-41203223D01*
X38781401Y-41186747D01*
X38801107Y-41172132D01*
X38822150Y-41159520D01*
X38844329Y-41149030D01*
X38867428Y-41140765D01*
X38891227Y-41134804D01*
X38915495Y-41131204D01*
X38939999Y-41130000D01*
X39590001Y-41130000D01*
X39614505Y-41131204D01*
G37*
G36*
X37564505Y-41131204D02*
G01*
X37588773Y-41134804D01*
X37612572Y-41140765D01*
X37635671Y-41149030D01*
X37657850Y-41159520D01*
X37678893Y-41172132D01*
X37698599Y-41186747D01*
X37716777Y-41203223D01*
X37733253Y-41221401D01*
X37747868Y-41241107D01*
X37760480Y-41262150D01*
X37770970Y-41284329D01*
X37779235Y-41307428D01*
X37785196Y-41331227D01*
X37788796Y-41355495D01*
X37790000Y-41379999D01*
X37790000Y-42280001D01*
X37788796Y-42304505D01*
X37785196Y-42328773D01*
X37779235Y-42352572D01*
X37770970Y-42375671D01*
X37760480Y-42397850D01*
X37747868Y-42418893D01*
X37733253Y-42438599D01*
X37716777Y-42456777D01*
X37698599Y-42473253D01*
X37678893Y-42487868D01*
X37657850Y-42500480D01*
X37635671Y-42510970D01*
X37612572Y-42519235D01*
X37588773Y-42525196D01*
X37564505Y-42528796D01*
X37540001Y-42530000D01*
X36889999Y-42530000D01*
X36865495Y-42528796D01*
X36841227Y-42525196D01*
X36817428Y-42519235D01*
X36794329Y-42510970D01*
X36772150Y-42500480D01*
X36751107Y-42487868D01*
X36731401Y-42473253D01*
X36713223Y-42456777D01*
X36696747Y-42438599D01*
X36682132Y-42418893D01*
X36669520Y-42397850D01*
X36659030Y-42375671D01*
X36650765Y-42352572D01*
X36644804Y-42328773D01*
X36641204Y-42304505D01*
X36640000Y-42280001D01*
X36640000Y-41379999D01*
X36641204Y-41355495D01*
X36644804Y-41331227D01*
X36650765Y-41307428D01*
X36659030Y-41284329D01*
X36669520Y-41262150D01*
X36682132Y-41241107D01*
X36696747Y-41221401D01*
X36713223Y-41203223D01*
X36731401Y-41186747D01*
X36751107Y-41172132D01*
X36772150Y-41159520D01*
X36794329Y-41149030D01*
X36817428Y-41140765D01*
X36841227Y-41134804D01*
X36865495Y-41131204D01*
X36889999Y-41130000D01*
X37540001Y-41130000D01*
X37564505Y-41131204D01*
G37*
G36*
X46414505Y-46131204D02*
G01*
X46438773Y-46134804D01*
X46462572Y-46140765D01*
X46485671Y-46149030D01*
X46507850Y-46159520D01*
X46528893Y-46172132D01*
X46548599Y-46186747D01*
X46566777Y-46203223D01*
X46583253Y-46221401D01*
X46597868Y-46241107D01*
X46610480Y-46262150D01*
X46620970Y-46284329D01*
X46629235Y-46307428D01*
X46635196Y-46331227D01*
X46638796Y-46355495D01*
X46640000Y-46379999D01*
X46640000Y-47280001D01*
X46638796Y-47304505D01*
X46635196Y-47328773D01*
X46629235Y-47352572D01*
X46620970Y-47375671D01*
X46610480Y-47397850D01*
X46597868Y-47418893D01*
X46583253Y-47438599D01*
X46566777Y-47456777D01*
X46548599Y-47473253D01*
X46528893Y-47487868D01*
X46507850Y-47500480D01*
X46485671Y-47510970D01*
X46462572Y-47519235D01*
X46438773Y-47525196D01*
X46414505Y-47528796D01*
X46390001Y-47530000D01*
X45739999Y-47530000D01*
X45715495Y-47528796D01*
X45691227Y-47525196D01*
X45667428Y-47519235D01*
X45644329Y-47510970D01*
X45622150Y-47500480D01*
X45601107Y-47487868D01*
X45581401Y-47473253D01*
X45563223Y-47456777D01*
X45546747Y-47438599D01*
X45532132Y-47418893D01*
X45519520Y-47397850D01*
X45509030Y-47375671D01*
X45500765Y-47352572D01*
X45494804Y-47328773D01*
X45491204Y-47304505D01*
X45490000Y-47280001D01*
X45490000Y-46379999D01*
X45491204Y-46355495D01*
X45494804Y-46331227D01*
X45500765Y-46307428D01*
X45509030Y-46284329D01*
X45519520Y-46262150D01*
X45532132Y-46241107D01*
X45546747Y-46221401D01*
X45563223Y-46203223D01*
X45581401Y-46186747D01*
X45601107Y-46172132D01*
X45622150Y-46159520D01*
X45644329Y-46149030D01*
X45667428Y-46140765D01*
X45691227Y-46134804D01*
X45715495Y-46131204D01*
X45739999Y-46130000D01*
X46390001Y-46130000D01*
X46414505Y-46131204D01*
G37*
G36*
X44364505Y-46131204D02*
G01*
X44388773Y-46134804D01*
X44412572Y-46140765D01*
X44435671Y-46149030D01*
X44457850Y-46159520D01*
X44478893Y-46172132D01*
X44498599Y-46186747D01*
X44516777Y-46203223D01*
X44533253Y-46221401D01*
X44547868Y-46241107D01*
X44560480Y-46262150D01*
X44570970Y-46284329D01*
X44579235Y-46307428D01*
X44585196Y-46331227D01*
X44588796Y-46355495D01*
X44590000Y-46379999D01*
X44590000Y-47280001D01*
X44588796Y-47304505D01*
X44585196Y-47328773D01*
X44579235Y-47352572D01*
X44570970Y-47375671D01*
X44560480Y-47397850D01*
X44547868Y-47418893D01*
X44533253Y-47438599D01*
X44516777Y-47456777D01*
X44498599Y-47473253D01*
X44478893Y-47487868D01*
X44457850Y-47500480D01*
X44435671Y-47510970D01*
X44412572Y-47519235D01*
X44388773Y-47525196D01*
X44364505Y-47528796D01*
X44340001Y-47530000D01*
X43689999Y-47530000D01*
X43665495Y-47528796D01*
X43641227Y-47525196D01*
X43617428Y-47519235D01*
X43594329Y-47510970D01*
X43572150Y-47500480D01*
X43551107Y-47487868D01*
X43531401Y-47473253D01*
X43513223Y-47456777D01*
X43496747Y-47438599D01*
X43482132Y-47418893D01*
X43469520Y-47397850D01*
X43459030Y-47375671D01*
X43450765Y-47352572D01*
X43444804Y-47328773D01*
X43441204Y-47304505D01*
X43440000Y-47280001D01*
X43440000Y-46379999D01*
X43441204Y-46355495D01*
X43444804Y-46331227D01*
X43450765Y-46307428D01*
X43459030Y-46284329D01*
X43469520Y-46262150D01*
X43482132Y-46241107D01*
X43496747Y-46221401D01*
X43513223Y-46203223D01*
X43531401Y-46186747D01*
X43551107Y-46172132D01*
X43572150Y-46159520D01*
X43594329Y-46149030D01*
X43617428Y-46140765D01*
X43641227Y-46134804D01*
X43665495Y-46131204D01*
X43689999Y-46130000D01*
X44340001Y-46130000D01*
X44364505Y-46131204D01*
G37*
D17*
X38890000Y-20180000D03*
X38890000Y-20980000D03*
X38890000Y-21780000D03*
X38890000Y-22580000D03*
X38890000Y-23380000D03*
X38890000Y-24180000D03*
X38890000Y-24980000D03*
X38890000Y-25780000D03*
X38890000Y-26580000D03*
X38890000Y-27380000D03*
X38890000Y-28180000D03*
D18*
X40590000Y-29880000D03*
X41390000Y-29880000D03*
X42190000Y-29880000D03*
X42990000Y-29880000D03*
X43790000Y-29880000D03*
X44590000Y-29880000D03*
X45390000Y-29880000D03*
X46190000Y-29880000D03*
X46990000Y-29880000D03*
X47790000Y-29880000D03*
X48590000Y-29880000D03*
D17*
X50290000Y-28180000D03*
X50290000Y-27380000D03*
X50290000Y-26580000D03*
X50290000Y-25780000D03*
X50290000Y-24980000D03*
X50290000Y-24180000D03*
X50290000Y-23380000D03*
X50290000Y-22580000D03*
X50290000Y-21780000D03*
X50290000Y-20980000D03*
X50290000Y-20180000D03*
D18*
X48590000Y-18480000D03*
X47790000Y-18480000D03*
X46990000Y-18480000D03*
X46190000Y-18480000D03*
X45390000Y-18480000D03*
X44590000Y-18480000D03*
X43790000Y-18480000D03*
X42990000Y-18480000D03*
X42190000Y-18480000D03*
X41390000Y-18480000D03*
X40590000Y-18480000D03*
D11*
G36*
X28504505Y-21731204D02*
G01*
X28528773Y-21734804D01*
X28552572Y-21740765D01*
X28575671Y-21749030D01*
X28597850Y-21759520D01*
X28618893Y-21772132D01*
X28638599Y-21786747D01*
X28656777Y-21803223D01*
X28673253Y-21821401D01*
X28687868Y-21841107D01*
X28700480Y-21862150D01*
X28710970Y-21884329D01*
X28719235Y-21907428D01*
X28725196Y-21931227D01*
X28728796Y-21955495D01*
X28730000Y-21979999D01*
X28730000Y-22880001D01*
X28728796Y-22904505D01*
X28725196Y-22928773D01*
X28719235Y-22952572D01*
X28710970Y-22975671D01*
X28700480Y-22997850D01*
X28687868Y-23018893D01*
X28673253Y-23038599D01*
X28656777Y-23056777D01*
X28638599Y-23073253D01*
X28618893Y-23087868D01*
X28597850Y-23100480D01*
X28575671Y-23110970D01*
X28552572Y-23119235D01*
X28528773Y-23125196D01*
X28504505Y-23128796D01*
X28480001Y-23130000D01*
X27829999Y-23130000D01*
X27805495Y-23128796D01*
X27781227Y-23125196D01*
X27757428Y-23119235D01*
X27734329Y-23110970D01*
X27712150Y-23100480D01*
X27691107Y-23087868D01*
X27671401Y-23073253D01*
X27653223Y-23056777D01*
X27636747Y-23038599D01*
X27622132Y-23018893D01*
X27609520Y-22997850D01*
X27599030Y-22975671D01*
X27590765Y-22952572D01*
X27584804Y-22928773D01*
X27581204Y-22904505D01*
X27580000Y-22880001D01*
X27580000Y-21979999D01*
X27581204Y-21955495D01*
X27584804Y-21931227D01*
X27590765Y-21907428D01*
X27599030Y-21884329D01*
X27609520Y-21862150D01*
X27622132Y-21841107D01*
X27636747Y-21821401D01*
X27653223Y-21803223D01*
X27671401Y-21786747D01*
X27691107Y-21772132D01*
X27712150Y-21759520D01*
X27734329Y-21749030D01*
X27757428Y-21740765D01*
X27781227Y-21734804D01*
X27805495Y-21731204D01*
X27829999Y-21730000D01*
X28480001Y-21730000D01*
X28504505Y-21731204D01*
G37*
G36*
X30554505Y-21731204D02*
G01*
X30578773Y-21734804D01*
X30602572Y-21740765D01*
X30625671Y-21749030D01*
X30647850Y-21759520D01*
X30668893Y-21772132D01*
X30688599Y-21786747D01*
X30706777Y-21803223D01*
X30723253Y-21821401D01*
X30737868Y-21841107D01*
X30750480Y-21862150D01*
X30760970Y-21884329D01*
X30769235Y-21907428D01*
X30775196Y-21931227D01*
X30778796Y-21955495D01*
X30780000Y-21979999D01*
X30780000Y-22880001D01*
X30778796Y-22904505D01*
X30775196Y-22928773D01*
X30769235Y-22952572D01*
X30760970Y-22975671D01*
X30750480Y-22997850D01*
X30737868Y-23018893D01*
X30723253Y-23038599D01*
X30706777Y-23056777D01*
X30688599Y-23073253D01*
X30668893Y-23087868D01*
X30647850Y-23100480D01*
X30625671Y-23110970D01*
X30602572Y-23119235D01*
X30578773Y-23125196D01*
X30554505Y-23128796D01*
X30530001Y-23130000D01*
X29879999Y-23130000D01*
X29855495Y-23128796D01*
X29831227Y-23125196D01*
X29807428Y-23119235D01*
X29784329Y-23110970D01*
X29762150Y-23100480D01*
X29741107Y-23087868D01*
X29721401Y-23073253D01*
X29703223Y-23056777D01*
X29686747Y-23038599D01*
X29672132Y-23018893D01*
X29659520Y-22997850D01*
X29649030Y-22975671D01*
X29640765Y-22952572D01*
X29634804Y-22928773D01*
X29631204Y-22904505D01*
X29630000Y-22880001D01*
X29630000Y-21979999D01*
X29631204Y-21955495D01*
X29634804Y-21931227D01*
X29640765Y-21907428D01*
X29649030Y-21884329D01*
X29659520Y-21862150D01*
X29672132Y-21841107D01*
X29686747Y-21821401D01*
X29703223Y-21803223D01*
X29721401Y-21786747D01*
X29741107Y-21772132D01*
X29762150Y-21759520D01*
X29784329Y-21749030D01*
X29807428Y-21740765D01*
X29831227Y-21734804D01*
X29855495Y-21731204D01*
X29879999Y-21730000D01*
X30530001Y-21730000D01*
X30554505Y-21731204D01*
G37*
G36*
X28504505Y-19161204D02*
G01*
X28528773Y-19164804D01*
X28552572Y-19170765D01*
X28575671Y-19179030D01*
X28597850Y-19189520D01*
X28618893Y-19202132D01*
X28638599Y-19216747D01*
X28656777Y-19233223D01*
X28673253Y-19251401D01*
X28687868Y-19271107D01*
X28700480Y-19292150D01*
X28710970Y-19314329D01*
X28719235Y-19337428D01*
X28725196Y-19361227D01*
X28728796Y-19385495D01*
X28730000Y-19409999D01*
X28730000Y-20310001D01*
X28728796Y-20334505D01*
X28725196Y-20358773D01*
X28719235Y-20382572D01*
X28710970Y-20405671D01*
X28700480Y-20427850D01*
X28687868Y-20448893D01*
X28673253Y-20468599D01*
X28656777Y-20486777D01*
X28638599Y-20503253D01*
X28618893Y-20517868D01*
X28597850Y-20530480D01*
X28575671Y-20540970D01*
X28552572Y-20549235D01*
X28528773Y-20555196D01*
X28504505Y-20558796D01*
X28480001Y-20560000D01*
X27829999Y-20560000D01*
X27805495Y-20558796D01*
X27781227Y-20555196D01*
X27757428Y-20549235D01*
X27734329Y-20540970D01*
X27712150Y-20530480D01*
X27691107Y-20517868D01*
X27671401Y-20503253D01*
X27653223Y-20486777D01*
X27636747Y-20468599D01*
X27622132Y-20448893D01*
X27609520Y-20427850D01*
X27599030Y-20405671D01*
X27590765Y-20382572D01*
X27584804Y-20358773D01*
X27581204Y-20334505D01*
X27580000Y-20310001D01*
X27580000Y-19409999D01*
X27581204Y-19385495D01*
X27584804Y-19361227D01*
X27590765Y-19337428D01*
X27599030Y-19314329D01*
X27609520Y-19292150D01*
X27622132Y-19271107D01*
X27636747Y-19251401D01*
X27653223Y-19233223D01*
X27671401Y-19216747D01*
X27691107Y-19202132D01*
X27712150Y-19189520D01*
X27734329Y-19179030D01*
X27757428Y-19170765D01*
X27781227Y-19164804D01*
X27805495Y-19161204D01*
X27829999Y-19160000D01*
X28480001Y-19160000D01*
X28504505Y-19161204D01*
G37*
G36*
X30554505Y-19161204D02*
G01*
X30578773Y-19164804D01*
X30602572Y-19170765D01*
X30625671Y-19179030D01*
X30647850Y-19189520D01*
X30668893Y-19202132D01*
X30688599Y-19216747D01*
X30706777Y-19233223D01*
X30723253Y-19251401D01*
X30737868Y-19271107D01*
X30750480Y-19292150D01*
X30760970Y-19314329D01*
X30769235Y-19337428D01*
X30775196Y-19361227D01*
X30778796Y-19385495D01*
X30780000Y-19409999D01*
X30780000Y-20310001D01*
X30778796Y-20334505D01*
X30775196Y-20358773D01*
X30769235Y-20382572D01*
X30760970Y-20405671D01*
X30750480Y-20427850D01*
X30737868Y-20448893D01*
X30723253Y-20468599D01*
X30706777Y-20486777D01*
X30688599Y-20503253D01*
X30668893Y-20517868D01*
X30647850Y-20530480D01*
X30625671Y-20540970D01*
X30602572Y-20549235D01*
X30578773Y-20555196D01*
X30554505Y-20558796D01*
X30530001Y-20560000D01*
X29879999Y-20560000D01*
X29855495Y-20558796D01*
X29831227Y-20555196D01*
X29807428Y-20549235D01*
X29784329Y-20540970D01*
X29762150Y-20530480D01*
X29741107Y-20517868D01*
X29721401Y-20503253D01*
X29703223Y-20486777D01*
X29686747Y-20468599D01*
X29672132Y-20448893D01*
X29659520Y-20427850D01*
X29649030Y-20405671D01*
X29640765Y-20382572D01*
X29634804Y-20358773D01*
X29631204Y-20334505D01*
X29630000Y-20310001D01*
X29630000Y-19409999D01*
X29631204Y-19385495D01*
X29634804Y-19361227D01*
X29640765Y-19337428D01*
X29649030Y-19314329D01*
X29659520Y-19292150D01*
X29672132Y-19271107D01*
X29686747Y-19251401D01*
X29703223Y-19233223D01*
X29721401Y-19216747D01*
X29741107Y-19202132D01*
X29762150Y-19189520D01*
X29784329Y-19179030D01*
X29807428Y-19170765D01*
X29831227Y-19164804D01*
X29855495Y-19161204D01*
X29879999Y-19160000D01*
X30530001Y-19160000D01*
X30554505Y-19161204D01*
G37*
G36*
X34764505Y-15831204D02*
G01*
X34788773Y-15834804D01*
X34812572Y-15840765D01*
X34835671Y-15849030D01*
X34857850Y-15859520D01*
X34878893Y-15872132D01*
X34898599Y-15886747D01*
X34916777Y-15903223D01*
X34933253Y-15921401D01*
X34947868Y-15941107D01*
X34960480Y-15962150D01*
X34970970Y-15984329D01*
X34979235Y-16007428D01*
X34985196Y-16031227D01*
X34988796Y-16055495D01*
X34990000Y-16079999D01*
X34990000Y-16980001D01*
X34988796Y-17004505D01*
X34985196Y-17028773D01*
X34979235Y-17052572D01*
X34970970Y-17075671D01*
X34960480Y-17097850D01*
X34947868Y-17118893D01*
X34933253Y-17138599D01*
X34916777Y-17156777D01*
X34898599Y-17173253D01*
X34878893Y-17187868D01*
X34857850Y-17200480D01*
X34835671Y-17210970D01*
X34812572Y-17219235D01*
X34788773Y-17225196D01*
X34764505Y-17228796D01*
X34740001Y-17230000D01*
X34089999Y-17230000D01*
X34065495Y-17228796D01*
X34041227Y-17225196D01*
X34017428Y-17219235D01*
X33994329Y-17210970D01*
X33972150Y-17200480D01*
X33951107Y-17187868D01*
X33931401Y-17173253D01*
X33913223Y-17156777D01*
X33896747Y-17138599D01*
X33882132Y-17118893D01*
X33869520Y-17097850D01*
X33859030Y-17075671D01*
X33850765Y-17052572D01*
X33844804Y-17028773D01*
X33841204Y-17004505D01*
X33840000Y-16980001D01*
X33840000Y-16079999D01*
X33841204Y-16055495D01*
X33844804Y-16031227D01*
X33850765Y-16007428D01*
X33859030Y-15984329D01*
X33869520Y-15962150D01*
X33882132Y-15941107D01*
X33896747Y-15921401D01*
X33913223Y-15903223D01*
X33931401Y-15886747D01*
X33951107Y-15872132D01*
X33972150Y-15859520D01*
X33994329Y-15849030D01*
X34017428Y-15840765D01*
X34041227Y-15834804D01*
X34065495Y-15831204D01*
X34089999Y-15830000D01*
X34740001Y-15830000D01*
X34764505Y-15831204D01*
G37*
G36*
X36814505Y-15831204D02*
G01*
X36838773Y-15834804D01*
X36862572Y-15840765D01*
X36885671Y-15849030D01*
X36907850Y-15859520D01*
X36928893Y-15872132D01*
X36948599Y-15886747D01*
X36966777Y-15903223D01*
X36983253Y-15921401D01*
X36997868Y-15941107D01*
X37010480Y-15962150D01*
X37020970Y-15984329D01*
X37029235Y-16007428D01*
X37035196Y-16031227D01*
X37038796Y-16055495D01*
X37040000Y-16079999D01*
X37040000Y-16980001D01*
X37038796Y-17004505D01*
X37035196Y-17028773D01*
X37029235Y-17052572D01*
X37020970Y-17075671D01*
X37010480Y-17097850D01*
X36997868Y-17118893D01*
X36983253Y-17138599D01*
X36966777Y-17156777D01*
X36948599Y-17173253D01*
X36928893Y-17187868D01*
X36907850Y-17200480D01*
X36885671Y-17210970D01*
X36862572Y-17219235D01*
X36838773Y-17225196D01*
X36814505Y-17228796D01*
X36790001Y-17230000D01*
X36139999Y-17230000D01*
X36115495Y-17228796D01*
X36091227Y-17225196D01*
X36067428Y-17219235D01*
X36044329Y-17210970D01*
X36022150Y-17200480D01*
X36001107Y-17187868D01*
X35981401Y-17173253D01*
X35963223Y-17156777D01*
X35946747Y-17138599D01*
X35932132Y-17118893D01*
X35919520Y-17097850D01*
X35909030Y-17075671D01*
X35900765Y-17052572D01*
X35894804Y-17028773D01*
X35891204Y-17004505D01*
X35890000Y-16980001D01*
X35890000Y-16079999D01*
X35891204Y-16055495D01*
X35894804Y-16031227D01*
X35900765Y-16007428D01*
X35909030Y-15984329D01*
X35919520Y-15962150D01*
X35932132Y-15941107D01*
X35946747Y-15921401D01*
X35963223Y-15903223D01*
X35981401Y-15886747D01*
X36001107Y-15872132D01*
X36022150Y-15859520D01*
X36044329Y-15849030D01*
X36067428Y-15840765D01*
X36091227Y-15834804D01*
X36115495Y-15831204D01*
X36139999Y-15830000D01*
X36790001Y-15830000D01*
X36814505Y-15831204D01*
G37*
G36*
X44464505Y-49631204D02*
G01*
X44488773Y-49634804D01*
X44512572Y-49640765D01*
X44535671Y-49649030D01*
X44557850Y-49659520D01*
X44578893Y-49672132D01*
X44598599Y-49686747D01*
X44616777Y-49703223D01*
X44633253Y-49721401D01*
X44647868Y-49741107D01*
X44660480Y-49762150D01*
X44670970Y-49784329D01*
X44679235Y-49807428D01*
X44685196Y-49831227D01*
X44688796Y-49855495D01*
X44690000Y-49879999D01*
X44690000Y-50780001D01*
X44688796Y-50804505D01*
X44685196Y-50828773D01*
X44679235Y-50852572D01*
X44670970Y-50875671D01*
X44660480Y-50897850D01*
X44647868Y-50918893D01*
X44633253Y-50938599D01*
X44616777Y-50956777D01*
X44598599Y-50973253D01*
X44578893Y-50987868D01*
X44557850Y-51000480D01*
X44535671Y-51010970D01*
X44512572Y-51019235D01*
X44488773Y-51025196D01*
X44464505Y-51028796D01*
X44440001Y-51030000D01*
X43789999Y-51030000D01*
X43765495Y-51028796D01*
X43741227Y-51025196D01*
X43717428Y-51019235D01*
X43694329Y-51010970D01*
X43672150Y-51000480D01*
X43651107Y-50987868D01*
X43631401Y-50973253D01*
X43613223Y-50956777D01*
X43596747Y-50938599D01*
X43582132Y-50918893D01*
X43569520Y-50897850D01*
X43559030Y-50875671D01*
X43550765Y-50852572D01*
X43544804Y-50828773D01*
X43541204Y-50804505D01*
X43540000Y-50780001D01*
X43540000Y-49879999D01*
X43541204Y-49855495D01*
X43544804Y-49831227D01*
X43550765Y-49807428D01*
X43559030Y-49784329D01*
X43569520Y-49762150D01*
X43582132Y-49741107D01*
X43596747Y-49721401D01*
X43613223Y-49703223D01*
X43631401Y-49686747D01*
X43651107Y-49672132D01*
X43672150Y-49659520D01*
X43694329Y-49649030D01*
X43717428Y-49640765D01*
X43741227Y-49634804D01*
X43765495Y-49631204D01*
X43789999Y-49630000D01*
X44440001Y-49630000D01*
X44464505Y-49631204D01*
G37*
G36*
X46514505Y-49631204D02*
G01*
X46538773Y-49634804D01*
X46562572Y-49640765D01*
X46585671Y-49649030D01*
X46607850Y-49659520D01*
X46628893Y-49672132D01*
X46648599Y-49686747D01*
X46666777Y-49703223D01*
X46683253Y-49721401D01*
X46697868Y-49741107D01*
X46710480Y-49762150D01*
X46720970Y-49784329D01*
X46729235Y-49807428D01*
X46735196Y-49831227D01*
X46738796Y-49855495D01*
X46740000Y-49879999D01*
X46740000Y-50780001D01*
X46738796Y-50804505D01*
X46735196Y-50828773D01*
X46729235Y-50852572D01*
X46720970Y-50875671D01*
X46710480Y-50897850D01*
X46697868Y-50918893D01*
X46683253Y-50938599D01*
X46666777Y-50956777D01*
X46648599Y-50973253D01*
X46628893Y-50987868D01*
X46607850Y-51000480D01*
X46585671Y-51010970D01*
X46562572Y-51019235D01*
X46538773Y-51025196D01*
X46514505Y-51028796D01*
X46490001Y-51030000D01*
X45839999Y-51030000D01*
X45815495Y-51028796D01*
X45791227Y-51025196D01*
X45767428Y-51019235D01*
X45744329Y-51010970D01*
X45722150Y-51000480D01*
X45701107Y-50987868D01*
X45681401Y-50973253D01*
X45663223Y-50956777D01*
X45646747Y-50938599D01*
X45632132Y-50918893D01*
X45619520Y-50897850D01*
X45609030Y-50875671D01*
X45600765Y-50852572D01*
X45594804Y-50828773D01*
X45591204Y-50804505D01*
X45590000Y-50780001D01*
X45590000Y-49879999D01*
X45591204Y-49855495D01*
X45594804Y-49831227D01*
X45600765Y-49807428D01*
X45609030Y-49784329D01*
X45619520Y-49762150D01*
X45632132Y-49741107D01*
X45646747Y-49721401D01*
X45663223Y-49703223D01*
X45681401Y-49686747D01*
X45701107Y-49672132D01*
X45722150Y-49659520D01*
X45744329Y-49649030D01*
X45767428Y-49640765D01*
X45791227Y-49634804D01*
X45815495Y-49631204D01*
X45839999Y-49630000D01*
X46490001Y-49630000D01*
X46514505Y-49631204D01*
G37*
G36*
X34854505Y-55095204D02*
G01*
X34878773Y-55098804D01*
X34902572Y-55104765D01*
X34925671Y-55113030D01*
X34947850Y-55123520D01*
X34968893Y-55136132D01*
X34988599Y-55150747D01*
X35006777Y-55167223D01*
X35023253Y-55185401D01*
X35037868Y-55205107D01*
X35050480Y-55226150D01*
X35060970Y-55248329D01*
X35069235Y-55271428D01*
X35075196Y-55295227D01*
X35078796Y-55319495D01*
X35080000Y-55343999D01*
X35080000Y-56244001D01*
X35078796Y-56268505D01*
X35075196Y-56292773D01*
X35069235Y-56316572D01*
X35060970Y-56339671D01*
X35050480Y-56361850D01*
X35037868Y-56382893D01*
X35023253Y-56402599D01*
X35006777Y-56420777D01*
X34988599Y-56437253D01*
X34968893Y-56451868D01*
X34947850Y-56464480D01*
X34925671Y-56474970D01*
X34902572Y-56483235D01*
X34878773Y-56489196D01*
X34854505Y-56492796D01*
X34830001Y-56494000D01*
X34179999Y-56494000D01*
X34155495Y-56492796D01*
X34131227Y-56489196D01*
X34107428Y-56483235D01*
X34084329Y-56474970D01*
X34062150Y-56464480D01*
X34041107Y-56451868D01*
X34021401Y-56437253D01*
X34003223Y-56420777D01*
X33986747Y-56402599D01*
X33972132Y-56382893D01*
X33959520Y-56361850D01*
X33949030Y-56339671D01*
X33940765Y-56316572D01*
X33934804Y-56292773D01*
X33931204Y-56268505D01*
X33930000Y-56244001D01*
X33930000Y-55343999D01*
X33931204Y-55319495D01*
X33934804Y-55295227D01*
X33940765Y-55271428D01*
X33949030Y-55248329D01*
X33959520Y-55226150D01*
X33972132Y-55205107D01*
X33986747Y-55185401D01*
X34003223Y-55167223D01*
X34021401Y-55150747D01*
X34041107Y-55136132D01*
X34062150Y-55123520D01*
X34084329Y-55113030D01*
X34107428Y-55104765D01*
X34131227Y-55098804D01*
X34155495Y-55095204D01*
X34179999Y-55094000D01*
X34830001Y-55094000D01*
X34854505Y-55095204D01*
G37*
G36*
X32804505Y-55095204D02*
G01*
X32828773Y-55098804D01*
X32852572Y-55104765D01*
X32875671Y-55113030D01*
X32897850Y-55123520D01*
X32918893Y-55136132D01*
X32938599Y-55150747D01*
X32956777Y-55167223D01*
X32973253Y-55185401D01*
X32987868Y-55205107D01*
X33000480Y-55226150D01*
X33010970Y-55248329D01*
X33019235Y-55271428D01*
X33025196Y-55295227D01*
X33028796Y-55319495D01*
X33030000Y-55343999D01*
X33030000Y-56244001D01*
X33028796Y-56268505D01*
X33025196Y-56292773D01*
X33019235Y-56316572D01*
X33010970Y-56339671D01*
X33000480Y-56361850D01*
X32987868Y-56382893D01*
X32973253Y-56402599D01*
X32956777Y-56420777D01*
X32938599Y-56437253D01*
X32918893Y-56451868D01*
X32897850Y-56464480D01*
X32875671Y-56474970D01*
X32852572Y-56483235D01*
X32828773Y-56489196D01*
X32804505Y-56492796D01*
X32780001Y-56494000D01*
X32129999Y-56494000D01*
X32105495Y-56492796D01*
X32081227Y-56489196D01*
X32057428Y-56483235D01*
X32034329Y-56474970D01*
X32012150Y-56464480D01*
X31991107Y-56451868D01*
X31971401Y-56437253D01*
X31953223Y-56420777D01*
X31936747Y-56402599D01*
X31922132Y-56382893D01*
X31909520Y-56361850D01*
X31899030Y-56339671D01*
X31890765Y-56316572D01*
X31884804Y-56292773D01*
X31881204Y-56268505D01*
X31880000Y-56244001D01*
X31880000Y-55343999D01*
X31881204Y-55319495D01*
X31884804Y-55295227D01*
X31890765Y-55271428D01*
X31899030Y-55248329D01*
X31909520Y-55226150D01*
X31922132Y-55205107D01*
X31936747Y-55185401D01*
X31953223Y-55167223D01*
X31971401Y-55150747D01*
X31991107Y-55136132D01*
X32012150Y-55123520D01*
X32034329Y-55113030D01*
X32057428Y-55104765D01*
X32081227Y-55098804D01*
X32105495Y-55095204D01*
X32129999Y-55094000D01*
X32780001Y-55094000D01*
X32804505Y-55095204D01*
G37*
G36*
X46514505Y-35131204D02*
G01*
X46538773Y-35134804D01*
X46562572Y-35140765D01*
X46585671Y-35149030D01*
X46607850Y-35159520D01*
X46628893Y-35172132D01*
X46648599Y-35186747D01*
X46666777Y-35203223D01*
X46683253Y-35221401D01*
X46697868Y-35241107D01*
X46710480Y-35262150D01*
X46720970Y-35284329D01*
X46729235Y-35307428D01*
X46735196Y-35331227D01*
X46738796Y-35355495D01*
X46740000Y-35379999D01*
X46740000Y-36280001D01*
X46738796Y-36304505D01*
X46735196Y-36328773D01*
X46729235Y-36352572D01*
X46720970Y-36375671D01*
X46710480Y-36397850D01*
X46697868Y-36418893D01*
X46683253Y-36438599D01*
X46666777Y-36456777D01*
X46648599Y-36473253D01*
X46628893Y-36487868D01*
X46607850Y-36500480D01*
X46585671Y-36510970D01*
X46562572Y-36519235D01*
X46538773Y-36525196D01*
X46514505Y-36528796D01*
X46490001Y-36530000D01*
X45839999Y-36530000D01*
X45815495Y-36528796D01*
X45791227Y-36525196D01*
X45767428Y-36519235D01*
X45744329Y-36510970D01*
X45722150Y-36500480D01*
X45701107Y-36487868D01*
X45681401Y-36473253D01*
X45663223Y-36456777D01*
X45646747Y-36438599D01*
X45632132Y-36418893D01*
X45619520Y-36397850D01*
X45609030Y-36375671D01*
X45600765Y-36352572D01*
X45594804Y-36328773D01*
X45591204Y-36304505D01*
X45590000Y-36280001D01*
X45590000Y-35379999D01*
X45591204Y-35355495D01*
X45594804Y-35331227D01*
X45600765Y-35307428D01*
X45609030Y-35284329D01*
X45619520Y-35262150D01*
X45632132Y-35241107D01*
X45646747Y-35221401D01*
X45663223Y-35203223D01*
X45681401Y-35186747D01*
X45701107Y-35172132D01*
X45722150Y-35159520D01*
X45744329Y-35149030D01*
X45767428Y-35140765D01*
X45791227Y-35134804D01*
X45815495Y-35131204D01*
X45839999Y-35130000D01*
X46490001Y-35130000D01*
X46514505Y-35131204D01*
G37*
G36*
X44464505Y-35131204D02*
G01*
X44488773Y-35134804D01*
X44512572Y-35140765D01*
X44535671Y-35149030D01*
X44557850Y-35159520D01*
X44578893Y-35172132D01*
X44598599Y-35186747D01*
X44616777Y-35203223D01*
X44633253Y-35221401D01*
X44647868Y-35241107D01*
X44660480Y-35262150D01*
X44670970Y-35284329D01*
X44679235Y-35307428D01*
X44685196Y-35331227D01*
X44688796Y-35355495D01*
X44690000Y-35379999D01*
X44690000Y-36280001D01*
X44688796Y-36304505D01*
X44685196Y-36328773D01*
X44679235Y-36352572D01*
X44670970Y-36375671D01*
X44660480Y-36397850D01*
X44647868Y-36418893D01*
X44633253Y-36438599D01*
X44616777Y-36456777D01*
X44598599Y-36473253D01*
X44578893Y-36487868D01*
X44557850Y-36500480D01*
X44535671Y-36510970D01*
X44512572Y-36519235D01*
X44488773Y-36525196D01*
X44464505Y-36528796D01*
X44440001Y-36530000D01*
X43789999Y-36530000D01*
X43765495Y-36528796D01*
X43741227Y-36525196D01*
X43717428Y-36519235D01*
X43694329Y-36510970D01*
X43672150Y-36500480D01*
X43651107Y-36487868D01*
X43631401Y-36473253D01*
X43613223Y-36456777D01*
X43596747Y-36438599D01*
X43582132Y-36418893D01*
X43569520Y-36397850D01*
X43559030Y-36375671D01*
X43550765Y-36352572D01*
X43544804Y-36328773D01*
X43541204Y-36304505D01*
X43540000Y-36280001D01*
X43540000Y-35379999D01*
X43541204Y-35355495D01*
X43544804Y-35331227D01*
X43550765Y-35307428D01*
X43559030Y-35284329D01*
X43569520Y-35262150D01*
X43582132Y-35241107D01*
X43596747Y-35221401D01*
X43613223Y-35203223D01*
X43631401Y-35186747D01*
X43651107Y-35172132D01*
X43672150Y-35159520D01*
X43694329Y-35149030D01*
X43717428Y-35140765D01*
X43741227Y-35134804D01*
X43765495Y-35131204D01*
X43789999Y-35130000D01*
X44440001Y-35130000D01*
X44464505Y-35131204D01*
G37*
G36*
X18434505Y-47731204D02*
G01*
X18458773Y-47734804D01*
X18482572Y-47740765D01*
X18505671Y-47749030D01*
X18527850Y-47759520D01*
X18548893Y-47772132D01*
X18568599Y-47786747D01*
X18586777Y-47803223D01*
X18603253Y-47821401D01*
X18617868Y-47841107D01*
X18630480Y-47862150D01*
X18640970Y-47884329D01*
X18649235Y-47907428D01*
X18655196Y-47931227D01*
X18658796Y-47955495D01*
X18660000Y-47979999D01*
X18660000Y-48880001D01*
X18658796Y-48904505D01*
X18655196Y-48928773D01*
X18649235Y-48952572D01*
X18640970Y-48975671D01*
X18630480Y-48997850D01*
X18617868Y-49018893D01*
X18603253Y-49038599D01*
X18586777Y-49056777D01*
X18568599Y-49073253D01*
X18548893Y-49087868D01*
X18527850Y-49100480D01*
X18505671Y-49110970D01*
X18482572Y-49119235D01*
X18458773Y-49125196D01*
X18434505Y-49128796D01*
X18410001Y-49130000D01*
X17759999Y-49130000D01*
X17735495Y-49128796D01*
X17711227Y-49125196D01*
X17687428Y-49119235D01*
X17664329Y-49110970D01*
X17642150Y-49100480D01*
X17621107Y-49087868D01*
X17601401Y-49073253D01*
X17583223Y-49056777D01*
X17566747Y-49038599D01*
X17552132Y-49018893D01*
X17539520Y-48997850D01*
X17529030Y-48975671D01*
X17520765Y-48952572D01*
X17514804Y-48928773D01*
X17511204Y-48904505D01*
X17510000Y-48880001D01*
X17510000Y-47979999D01*
X17511204Y-47955495D01*
X17514804Y-47931227D01*
X17520765Y-47907428D01*
X17529030Y-47884329D01*
X17539520Y-47862150D01*
X17552132Y-47841107D01*
X17566747Y-47821401D01*
X17583223Y-47803223D01*
X17601401Y-47786747D01*
X17621107Y-47772132D01*
X17642150Y-47759520D01*
X17664329Y-47749030D01*
X17687428Y-47740765D01*
X17711227Y-47734804D01*
X17735495Y-47731204D01*
X17759999Y-47730000D01*
X18410001Y-47730000D01*
X18434505Y-47731204D01*
G37*
G36*
X16384505Y-47731204D02*
G01*
X16408773Y-47734804D01*
X16432572Y-47740765D01*
X16455671Y-47749030D01*
X16477850Y-47759520D01*
X16498893Y-47772132D01*
X16518599Y-47786747D01*
X16536777Y-47803223D01*
X16553253Y-47821401D01*
X16567868Y-47841107D01*
X16580480Y-47862150D01*
X16590970Y-47884329D01*
X16599235Y-47907428D01*
X16605196Y-47931227D01*
X16608796Y-47955495D01*
X16610000Y-47979999D01*
X16610000Y-48880001D01*
X16608796Y-48904505D01*
X16605196Y-48928773D01*
X16599235Y-48952572D01*
X16590970Y-48975671D01*
X16580480Y-48997850D01*
X16567868Y-49018893D01*
X16553253Y-49038599D01*
X16536777Y-49056777D01*
X16518599Y-49073253D01*
X16498893Y-49087868D01*
X16477850Y-49100480D01*
X16455671Y-49110970D01*
X16432572Y-49119235D01*
X16408773Y-49125196D01*
X16384505Y-49128796D01*
X16360001Y-49130000D01*
X15709999Y-49130000D01*
X15685495Y-49128796D01*
X15661227Y-49125196D01*
X15637428Y-49119235D01*
X15614329Y-49110970D01*
X15592150Y-49100480D01*
X15571107Y-49087868D01*
X15551401Y-49073253D01*
X15533223Y-49056777D01*
X15516747Y-49038599D01*
X15502132Y-49018893D01*
X15489520Y-48997850D01*
X15479030Y-48975671D01*
X15470765Y-48952572D01*
X15464804Y-48928773D01*
X15461204Y-48904505D01*
X15460000Y-48880001D01*
X15460000Y-47979999D01*
X15461204Y-47955495D01*
X15464804Y-47931227D01*
X15470765Y-47907428D01*
X15479030Y-47884329D01*
X15489520Y-47862150D01*
X15502132Y-47841107D01*
X15516747Y-47821401D01*
X15533223Y-47803223D01*
X15551401Y-47786747D01*
X15571107Y-47772132D01*
X15592150Y-47759520D01*
X15614329Y-47749030D01*
X15637428Y-47740765D01*
X15661227Y-47734804D01*
X15685495Y-47731204D01*
X15709999Y-47730000D01*
X16360001Y-47730000D01*
X16384505Y-47731204D01*
G37*
M02*
