G04 #@! TF.GenerationSoftware,KiCad,Pcbnew,(5.1.5-0-10_14)*
G04 #@! TF.CreationDate,2020-08-26T20:56:13+02:00*
G04 #@! TF.ProjectId,HB-RC-4-Dis-TH,48422d52-432d-4342-9d44-69732d54482e,rev?*
G04 #@! TF.SameCoordinates,Original*
G04 #@! TF.FileFunction,Copper,L1,Top*
G04 #@! TF.FilePolarity,Positive*
%FSLAX46Y46*%
G04 Gerber Fmt 4.6, Leading zero omitted, Abs format (unit mm)*
G04 Created by KiCad (PCBNEW (5.1.5-0-10_14)) date 2020-08-26 20:56:13*
%MOMM*%
%LPD*%
G04 APERTURE LIST*
%ADD10R,1.300000X0.300000*%
%ADD11R,4.000000X1.800000*%
%ADD12O,1.700000X1.700000*%
%ADD13C,2.000000*%
%ADD14R,1.700000X1.700000*%
%ADD15C,1.350000*%
%ADD16R,1.800000X1.350000*%
%ADD17C,0.100000*%
%ADD18C,0.800000*%
%ADD19C,0.250000*%
%ADD20C,0.254000*%
G04 APERTURE END LIST*
D10*
X58550000Y-99750000D03*
X58550000Y-100250000D03*
X58550000Y-100750000D03*
X58550000Y-101250000D03*
X58550000Y-101750000D03*
X58550000Y-102250000D03*
X58550000Y-102750000D03*
X58550000Y-103250000D03*
X58550000Y-103750000D03*
X58550000Y-104250000D03*
X58550000Y-104750000D03*
X58550000Y-105250000D03*
X58550000Y-105750000D03*
X58550000Y-106250000D03*
X58550000Y-106750000D03*
X58550000Y-107250000D03*
X58550000Y-107750000D03*
X58550000Y-108250000D03*
X58550000Y-108750000D03*
X58550000Y-109250000D03*
X58550000Y-109750000D03*
X58550000Y-110250000D03*
X58550000Y-110750000D03*
X58550000Y-111250000D03*
D11*
X61800000Y-97850000D03*
X61800000Y-113150000D03*
D12*
X32800000Y-81350000D03*
X32800000Y-83890000D03*
X32800000Y-86430000D03*
X32800000Y-88970000D03*
D13*
X44200000Y-123000000D03*
X48700000Y-123000000D03*
X44200000Y-129500000D03*
X48700000Y-129500000D03*
X70500000Y-125000000D03*
X70500000Y-129500000D03*
X64000000Y-125000000D03*
X64000000Y-129500000D03*
X29000000Y-125000000D03*
X29000000Y-129500000D03*
X22500000Y-125000000D03*
X22500000Y-129500000D03*
X64000000Y-86000000D03*
X64000000Y-81500000D03*
X70500000Y-86000000D03*
X70500000Y-81500000D03*
X22600000Y-86100000D03*
X22600000Y-81600000D03*
X29100000Y-86100000D03*
X29100000Y-81600000D03*
D12*
X27140000Y-90500000D03*
D14*
X24600000Y-90500000D03*
D12*
X22800000Y-117800000D03*
X25340000Y-117800000D03*
X27880000Y-117800000D03*
X30420000Y-117800000D03*
X32960000Y-117800000D03*
D14*
X35500000Y-117800000D03*
D15*
X44000000Y-98500000D03*
D16*
X45000000Y-98500000D03*
D15*
X44000000Y-112500000D03*
X44000000Y-110500000D03*
X44000000Y-108500000D03*
X44000000Y-106500000D03*
X44000000Y-104500000D03*
X44000000Y-102500000D03*
X44000000Y-100500000D03*
D16*
X45000000Y-112500000D03*
X45000000Y-110500000D03*
X45000000Y-108500000D03*
X45000000Y-106500000D03*
X45000000Y-104500000D03*
X45000000Y-102500000D03*
X45000000Y-100500000D03*
G04 #@! TA.AperFunction,SMDPad,CuDef*
D17*
G36*
X51674505Y-124501204D02*
G01*
X51698773Y-124504804D01*
X51722572Y-124510765D01*
X51745671Y-124519030D01*
X51767850Y-124529520D01*
X51788893Y-124542132D01*
X51808599Y-124556747D01*
X51826777Y-124573223D01*
X51843253Y-124591401D01*
X51857868Y-124611107D01*
X51870480Y-124632150D01*
X51880970Y-124654329D01*
X51889235Y-124677428D01*
X51895196Y-124701227D01*
X51898796Y-124725495D01*
X51900000Y-124749999D01*
X51900000Y-125400001D01*
X51898796Y-125424505D01*
X51895196Y-125448773D01*
X51889235Y-125472572D01*
X51880970Y-125495671D01*
X51870480Y-125517850D01*
X51857868Y-125538893D01*
X51843253Y-125558599D01*
X51826777Y-125576777D01*
X51808599Y-125593253D01*
X51788893Y-125607868D01*
X51767850Y-125620480D01*
X51745671Y-125630970D01*
X51722572Y-125639235D01*
X51698773Y-125645196D01*
X51674505Y-125648796D01*
X51650001Y-125650000D01*
X50749999Y-125650000D01*
X50725495Y-125648796D01*
X50701227Y-125645196D01*
X50677428Y-125639235D01*
X50654329Y-125630970D01*
X50632150Y-125620480D01*
X50611107Y-125607868D01*
X50591401Y-125593253D01*
X50573223Y-125576777D01*
X50556747Y-125558599D01*
X50542132Y-125538893D01*
X50529520Y-125517850D01*
X50519030Y-125495671D01*
X50510765Y-125472572D01*
X50504804Y-125448773D01*
X50501204Y-125424505D01*
X50500000Y-125400001D01*
X50500000Y-124749999D01*
X50501204Y-124725495D01*
X50504804Y-124701227D01*
X50510765Y-124677428D01*
X50519030Y-124654329D01*
X50529520Y-124632150D01*
X50542132Y-124611107D01*
X50556747Y-124591401D01*
X50573223Y-124573223D01*
X50591401Y-124556747D01*
X50611107Y-124542132D01*
X50632150Y-124529520D01*
X50654329Y-124519030D01*
X50677428Y-124510765D01*
X50701227Y-124504804D01*
X50725495Y-124501204D01*
X50749999Y-124500000D01*
X51650001Y-124500000D01*
X51674505Y-124501204D01*
G37*
G04 #@! TD.AperFunction*
G04 #@! TA.AperFunction,SMDPad,CuDef*
G36*
X51674505Y-126551204D02*
G01*
X51698773Y-126554804D01*
X51722572Y-126560765D01*
X51745671Y-126569030D01*
X51767850Y-126579520D01*
X51788893Y-126592132D01*
X51808599Y-126606747D01*
X51826777Y-126623223D01*
X51843253Y-126641401D01*
X51857868Y-126661107D01*
X51870480Y-126682150D01*
X51880970Y-126704329D01*
X51889235Y-126727428D01*
X51895196Y-126751227D01*
X51898796Y-126775495D01*
X51900000Y-126799999D01*
X51900000Y-127450001D01*
X51898796Y-127474505D01*
X51895196Y-127498773D01*
X51889235Y-127522572D01*
X51880970Y-127545671D01*
X51870480Y-127567850D01*
X51857868Y-127588893D01*
X51843253Y-127608599D01*
X51826777Y-127626777D01*
X51808599Y-127643253D01*
X51788893Y-127657868D01*
X51767850Y-127670480D01*
X51745671Y-127680970D01*
X51722572Y-127689235D01*
X51698773Y-127695196D01*
X51674505Y-127698796D01*
X51650001Y-127700000D01*
X50749999Y-127700000D01*
X50725495Y-127698796D01*
X50701227Y-127695196D01*
X50677428Y-127689235D01*
X50654329Y-127680970D01*
X50632150Y-127670480D01*
X50611107Y-127657868D01*
X50591401Y-127643253D01*
X50573223Y-127626777D01*
X50556747Y-127608599D01*
X50542132Y-127588893D01*
X50529520Y-127567850D01*
X50519030Y-127545671D01*
X50510765Y-127522572D01*
X50504804Y-127498773D01*
X50501204Y-127474505D01*
X50500000Y-127450001D01*
X50500000Y-126799999D01*
X50501204Y-126775495D01*
X50504804Y-126751227D01*
X50510765Y-126727428D01*
X50519030Y-126704329D01*
X50529520Y-126682150D01*
X50542132Y-126661107D01*
X50556747Y-126641401D01*
X50573223Y-126623223D01*
X50591401Y-126606747D01*
X50611107Y-126592132D01*
X50632150Y-126579520D01*
X50654329Y-126569030D01*
X50677428Y-126560765D01*
X50701227Y-126554804D01*
X50725495Y-126551204D01*
X50749999Y-126550000D01*
X51650001Y-126550000D01*
X51674505Y-126551204D01*
G37*
G04 #@! TD.AperFunction*
G04 #@! TA.AperFunction,SMDPad,CuDef*
G36*
X42174505Y-124501204D02*
G01*
X42198773Y-124504804D01*
X42222572Y-124510765D01*
X42245671Y-124519030D01*
X42267850Y-124529520D01*
X42288893Y-124542132D01*
X42308599Y-124556747D01*
X42326777Y-124573223D01*
X42343253Y-124591401D01*
X42357868Y-124611107D01*
X42370480Y-124632150D01*
X42380970Y-124654329D01*
X42389235Y-124677428D01*
X42395196Y-124701227D01*
X42398796Y-124725495D01*
X42400000Y-124749999D01*
X42400000Y-125400001D01*
X42398796Y-125424505D01*
X42395196Y-125448773D01*
X42389235Y-125472572D01*
X42380970Y-125495671D01*
X42370480Y-125517850D01*
X42357868Y-125538893D01*
X42343253Y-125558599D01*
X42326777Y-125576777D01*
X42308599Y-125593253D01*
X42288893Y-125607868D01*
X42267850Y-125620480D01*
X42245671Y-125630970D01*
X42222572Y-125639235D01*
X42198773Y-125645196D01*
X42174505Y-125648796D01*
X42150001Y-125650000D01*
X41249999Y-125650000D01*
X41225495Y-125648796D01*
X41201227Y-125645196D01*
X41177428Y-125639235D01*
X41154329Y-125630970D01*
X41132150Y-125620480D01*
X41111107Y-125607868D01*
X41091401Y-125593253D01*
X41073223Y-125576777D01*
X41056747Y-125558599D01*
X41042132Y-125538893D01*
X41029520Y-125517850D01*
X41019030Y-125495671D01*
X41010765Y-125472572D01*
X41004804Y-125448773D01*
X41001204Y-125424505D01*
X41000000Y-125400001D01*
X41000000Y-124749999D01*
X41001204Y-124725495D01*
X41004804Y-124701227D01*
X41010765Y-124677428D01*
X41019030Y-124654329D01*
X41029520Y-124632150D01*
X41042132Y-124611107D01*
X41056747Y-124591401D01*
X41073223Y-124573223D01*
X41091401Y-124556747D01*
X41111107Y-124542132D01*
X41132150Y-124529520D01*
X41154329Y-124519030D01*
X41177428Y-124510765D01*
X41201227Y-124504804D01*
X41225495Y-124501204D01*
X41249999Y-124500000D01*
X42150001Y-124500000D01*
X42174505Y-124501204D01*
G37*
G04 #@! TD.AperFunction*
G04 #@! TA.AperFunction,SMDPad,CuDef*
G36*
X42174505Y-126551204D02*
G01*
X42198773Y-126554804D01*
X42222572Y-126560765D01*
X42245671Y-126569030D01*
X42267850Y-126579520D01*
X42288893Y-126592132D01*
X42308599Y-126606747D01*
X42326777Y-126623223D01*
X42343253Y-126641401D01*
X42357868Y-126661107D01*
X42370480Y-126682150D01*
X42380970Y-126704329D01*
X42389235Y-126727428D01*
X42395196Y-126751227D01*
X42398796Y-126775495D01*
X42400000Y-126799999D01*
X42400000Y-127450001D01*
X42398796Y-127474505D01*
X42395196Y-127498773D01*
X42389235Y-127522572D01*
X42380970Y-127545671D01*
X42370480Y-127567850D01*
X42357868Y-127588893D01*
X42343253Y-127608599D01*
X42326777Y-127626777D01*
X42308599Y-127643253D01*
X42288893Y-127657868D01*
X42267850Y-127670480D01*
X42245671Y-127680970D01*
X42222572Y-127689235D01*
X42198773Y-127695196D01*
X42174505Y-127698796D01*
X42150001Y-127700000D01*
X41249999Y-127700000D01*
X41225495Y-127698796D01*
X41201227Y-127695196D01*
X41177428Y-127689235D01*
X41154329Y-127680970D01*
X41132150Y-127670480D01*
X41111107Y-127657868D01*
X41091401Y-127643253D01*
X41073223Y-127626777D01*
X41056747Y-127608599D01*
X41042132Y-127588893D01*
X41029520Y-127567850D01*
X41019030Y-127545671D01*
X41010765Y-127522572D01*
X41004804Y-127498773D01*
X41001204Y-127474505D01*
X41000000Y-127450001D01*
X41000000Y-126799999D01*
X41001204Y-126775495D01*
X41004804Y-126751227D01*
X41010765Y-126727428D01*
X41019030Y-126704329D01*
X41029520Y-126682150D01*
X41042132Y-126661107D01*
X41056747Y-126641401D01*
X41073223Y-126623223D01*
X41091401Y-126606747D01*
X41111107Y-126592132D01*
X41132150Y-126579520D01*
X41154329Y-126569030D01*
X41177428Y-126560765D01*
X41201227Y-126554804D01*
X41225495Y-126551204D01*
X41249999Y-126550000D01*
X42150001Y-126550000D01*
X42174505Y-126551204D01*
G37*
G04 #@! TD.AperFunction*
D18*
X58866000Y-94700400D03*
X60890000Y-101244000D03*
X61137650Y-109362350D03*
X27500000Y-100000000D03*
X30000000Y-100000000D03*
X32500000Y-100000000D03*
X35000000Y-100000000D03*
X40000000Y-100000000D03*
X37500000Y-100000000D03*
X40000000Y-102500000D03*
X37500000Y-102500000D03*
X35000000Y-102500000D03*
X32500000Y-102500000D03*
X30000000Y-102500000D03*
X30000000Y-105000000D03*
X32500000Y-105000000D03*
X35000000Y-105000000D03*
X37500000Y-105000000D03*
X40000000Y-105000000D03*
X40000000Y-107500000D03*
X35000000Y-107500000D03*
X32500000Y-107500000D03*
X30000000Y-107500000D03*
X37500000Y-107500000D03*
X27500000Y-110000000D03*
X30000000Y-110000000D03*
X35000000Y-110000000D03*
X32500000Y-110000000D03*
X37500000Y-110000000D03*
X40000000Y-110000000D03*
X27500000Y-112500000D03*
X30000000Y-112500000D03*
X32500000Y-112500000D03*
X35000000Y-112500000D03*
X37500000Y-112500000D03*
X40000000Y-112500000D03*
X26700000Y-115900000D03*
X29200000Y-115900000D03*
X33675000Y-127125000D03*
X53400000Y-129500000D03*
X57000000Y-121700000D03*
X68600000Y-84800000D03*
X38800000Y-82000000D03*
X25900000Y-85000000D03*
X35700000Y-93800000D03*
X22600000Y-92800000D03*
X70000000Y-113000000D03*
X70000000Y-115000000D03*
X70000000Y-117000000D03*
X70000000Y-119000000D03*
X70000000Y-121000000D03*
X51600000Y-122900000D03*
X46900000Y-121600000D03*
X33080000Y-91630000D03*
X35770000Y-84480000D03*
X51346400Y-94808000D03*
X41590000Y-90750000D03*
X43380000Y-93530000D03*
X55900000Y-81900000D03*
X59800000Y-81900000D03*
X36200000Y-122000000D03*
X32400000Y-122700000D03*
X39614300Y-125075000D03*
X52833800Y-125796400D03*
X47954000Y-94211300D03*
X54459100Y-93842800D03*
X30542200Y-93692900D03*
X44082800Y-95074300D03*
X47910000Y-98214900D03*
X36998600Y-96384000D03*
X49284000Y-92803800D03*
X48009000Y-91742000D03*
X30275700Y-95975900D03*
X59967700Y-104211500D03*
X46181900Y-96858500D03*
X52084500Y-93115900D03*
X50584200Y-93139900D03*
X59692200Y-93776600D03*
X67826700Y-103706500D03*
X67832800Y-104807300D03*
X54608700Y-91836400D03*
X55609100Y-91298800D03*
X59779900Y-87271400D03*
X58937000Y-88809200D03*
X56861000Y-85847100D03*
X44538200Y-87067600D03*
X53176000Y-91007700D03*
X53825000Y-86509400D03*
X51830400Y-104187500D03*
X47570800Y-105136200D03*
X47994300Y-102455700D03*
X47637200Y-101299600D03*
X47840200Y-99679200D03*
X47641900Y-114807600D03*
X45455700Y-114144300D03*
X59816300Y-100875200D03*
X56883200Y-100404500D03*
X56818000Y-111703800D03*
X61378000Y-116076500D03*
D19*
X58550000Y-107750000D02*
X59525300Y-107750000D01*
X59525300Y-107750000D02*
X61137650Y-109362350D01*
X61800000Y-110024700D02*
X61800000Y-113150000D01*
X45000000Y-110500000D02*
X52143000Y-110500000D01*
X52143000Y-110500000D02*
X54893000Y-107750000D01*
X54893000Y-107750000D02*
X58550000Y-107750000D01*
X59388400Y-103250000D02*
X58550000Y-103250000D01*
X58866000Y-95657800D02*
X58866000Y-94700400D01*
X61058200Y-97850000D02*
X60890000Y-98018200D01*
X33975300Y-83890000D02*
X36365300Y-81500000D01*
X61800000Y-97850000D02*
X61058200Y-97850000D01*
X32800000Y-83890000D02*
X33975300Y-83890000D01*
X44000000Y-110500000D02*
X42538300Y-111961700D01*
X41700000Y-127125000D02*
X33675000Y-127125000D01*
X31375000Y-127125000D02*
X29000000Y-129500000D01*
X48700000Y-127125000D02*
X41700000Y-127125000D01*
X44000000Y-110500000D02*
X45000000Y-110500000D01*
X48700000Y-127125000D02*
X51200000Y-127125000D01*
X29100000Y-81600000D02*
X31390000Y-83890000D01*
X31390000Y-83890000D02*
X32800000Y-83890000D01*
X35500000Y-117800000D02*
X32960000Y-117800000D01*
X61137650Y-109362350D02*
X61800000Y-110024700D01*
X33675000Y-127125000D02*
X31375000Y-127125000D01*
X59388400Y-103250000D02*
X59800000Y-102838400D01*
X59800000Y-102838400D02*
X59800000Y-102000000D01*
X48700000Y-127125000D02*
X48700000Y-123000000D01*
X41700000Y-125075000D02*
X39614300Y-125075000D01*
X51200000Y-125075000D02*
X52112400Y-125075000D01*
X52112400Y-125075000D02*
X52833800Y-125796400D01*
X45000000Y-97499700D02*
X45000000Y-97004900D01*
X45000000Y-97004900D02*
X47793600Y-94211300D01*
X47793600Y-94211300D02*
X47954000Y-94211300D01*
X45000000Y-98500000D02*
X45000000Y-97499700D01*
X45000000Y-98500000D02*
X44000000Y-98500000D01*
X46225300Y-100500000D02*
X46225300Y-98873800D01*
X46225300Y-98873800D02*
X51256200Y-93842900D01*
X51256200Y-93842900D02*
X54459100Y-93842900D01*
X54459100Y-93842900D02*
X54459100Y-93842800D01*
X45000000Y-100500000D02*
X46225300Y-100500000D01*
X44000000Y-100500000D02*
X45000000Y-100500000D01*
X47910000Y-98214900D02*
X46795800Y-99329100D01*
X46795800Y-99329100D02*
X46795800Y-103929500D01*
X46795800Y-103929500D02*
X46225300Y-104500000D01*
X45000000Y-104500000D02*
X46225300Y-104500000D01*
X44000000Y-104500000D02*
X45000000Y-104500000D01*
X31107885Y-93692900D02*
X30542200Y-93692900D01*
X32500000Y-94419998D02*
X31772902Y-93692900D01*
X32500000Y-95380002D02*
X32500000Y-94419998D01*
X31772902Y-93692900D02*
X31107885Y-93692900D01*
X33019999Y-95900001D02*
X32500000Y-95380002D01*
X33980001Y-95900001D02*
X33019999Y-95900001D01*
X34805702Y-95074300D02*
X33980001Y-95900001D01*
X44082800Y-95074300D02*
X34805702Y-95074300D01*
X58550000Y-105250000D02*
X59955000Y-105250000D01*
X59955000Y-105250000D02*
X64603800Y-100601200D01*
X64603800Y-100601200D02*
X64603800Y-96573400D01*
X64603800Y-96573400D02*
X64201500Y-96171100D01*
X64201500Y-96171100D02*
X63980800Y-96171100D01*
X63980800Y-96171100D02*
X60427100Y-92617400D01*
X60427100Y-92617400D02*
X52706300Y-92617400D01*
X52706300Y-92617400D02*
X52458300Y-92369400D01*
X52458300Y-92369400D02*
X49718400Y-92369400D01*
X49718400Y-92369400D02*
X49284000Y-92803800D01*
X42988100Y-96566700D02*
X42805400Y-96384000D01*
X42805400Y-96384000D02*
X36998600Y-96384000D01*
X44000000Y-106500000D02*
X42988100Y-105488100D01*
X42988100Y-105488100D02*
X42988100Y-96566700D01*
X42988100Y-96566700D02*
X44572700Y-96566700D01*
X44572700Y-96566700D02*
X48335600Y-92803800D01*
X48335600Y-92803800D02*
X49284000Y-92803800D01*
X44000000Y-106500000D02*
X45000000Y-106500000D01*
X45000000Y-108500000D02*
X46225300Y-108500000D01*
X46225300Y-108500000D02*
X53187900Y-108500000D01*
X53187900Y-108500000D02*
X56937900Y-104750000D01*
X56937900Y-104750000D02*
X57574700Y-104750000D01*
X58550000Y-104750000D02*
X57574700Y-104750000D01*
X44000000Y-108500000D02*
X45000000Y-108500000D01*
X36268200Y-95975900D02*
X36607000Y-95637100D01*
X36607000Y-95637100D02*
X43377600Y-95637100D01*
X43377600Y-95637100D02*
X43550000Y-95809500D01*
X43550000Y-95809500D02*
X44430800Y-95809500D01*
X44430800Y-95809500D02*
X48009000Y-92231300D01*
X48009000Y-92231300D02*
X48009000Y-91742000D01*
X44000000Y-108500000D02*
X42537700Y-107037700D01*
X42537700Y-107037700D02*
X42537700Y-97537500D01*
X42537700Y-97537500D02*
X42120600Y-97120400D01*
X42120600Y-97120400D02*
X36639000Y-97120400D01*
X36639000Y-97120400D02*
X36268200Y-96749600D01*
X36268200Y-96749600D02*
X36268200Y-95975900D01*
X30275700Y-96275700D02*
X30275700Y-95975900D01*
X30400000Y-96400000D02*
X30275700Y-96275700D01*
X35300000Y-96400000D02*
X30400000Y-96400000D01*
X36268200Y-95975900D02*
X35300000Y-96400000D01*
X30420000Y-117800000D02*
X31595300Y-117800000D01*
X31595300Y-117800000D02*
X31595300Y-118167300D01*
X31595300Y-118167300D02*
X32403400Y-118975400D01*
X32403400Y-118975400D02*
X36491600Y-118975400D01*
X36491600Y-118975400D02*
X37290800Y-118176200D01*
X37290800Y-118176200D02*
X37290800Y-117674500D01*
X37290800Y-117674500D02*
X39201300Y-115764000D01*
X39201300Y-115764000D02*
X40849600Y-115764000D01*
X40849600Y-115764000D02*
X44000000Y-112613600D01*
X44000000Y-112613600D02*
X44000000Y-112500000D01*
X59525300Y-104178200D02*
X59934400Y-104178200D01*
X59934400Y-104178200D02*
X59967700Y-104211500D01*
X59037700Y-104250000D02*
X59453500Y-104250000D01*
X59453500Y-104250000D02*
X59525300Y-104178200D01*
X59525300Y-104178200D02*
X59525300Y-103750000D01*
X44000000Y-112500000D02*
X45000000Y-112500000D01*
X52084500Y-93115900D02*
X59031500Y-93115900D01*
X59031500Y-93115900D02*
X59692200Y-93776600D01*
X50584200Y-93139900D02*
X50608200Y-93115900D01*
X50608200Y-93115900D02*
X52084500Y-93115900D01*
X50584200Y-93139900D02*
X46865600Y-96858500D01*
X46865600Y-96858500D02*
X46181900Y-96858500D01*
X59692200Y-93776600D02*
X62537000Y-96621400D01*
X62537000Y-96621400D02*
X63935400Y-96621400D01*
X63935400Y-96621400D02*
X64148900Y-96834900D01*
X64148900Y-96834900D02*
X64148900Y-99126400D01*
X64148900Y-99126400D02*
X59525300Y-103750000D01*
X58550000Y-103750000D02*
X59525300Y-103750000D01*
X58550000Y-104250000D02*
X59037700Y-104250000D01*
X29055300Y-117800000D02*
X29055300Y-118167300D01*
X29055300Y-118167300D02*
X30730500Y-119842500D01*
X30730500Y-119842500D02*
X42889200Y-119842500D01*
X42889200Y-119842500D02*
X45536100Y-117195600D01*
X45536100Y-117195600D02*
X61399000Y-117195600D01*
X61399000Y-117195600D02*
X64819200Y-113775400D01*
X64819200Y-113775400D02*
X67407200Y-113775400D01*
X67407200Y-113775400D02*
X67591400Y-113591200D01*
X67591400Y-113591200D02*
X67591400Y-108817600D01*
X67591400Y-108817600D02*
X67080800Y-108307000D01*
X67080800Y-108307000D02*
X67080800Y-104452400D01*
X67080800Y-104452400D02*
X67826700Y-103706500D01*
X27880000Y-117800000D02*
X29055300Y-117800000D01*
X26515300Y-117800000D02*
X26515300Y-118167300D01*
X26515300Y-118167300D02*
X28687800Y-120339800D01*
X28687800Y-120339800D02*
X43766800Y-120339800D01*
X43766800Y-120339800D02*
X44188900Y-119917700D01*
X44188900Y-119917700D02*
X59500400Y-119917700D01*
X59500400Y-119917700D02*
X64358800Y-115059300D01*
X64358800Y-115059300D02*
X66760200Y-115059300D01*
X66760200Y-115059300D02*
X68057800Y-113761700D01*
X68057800Y-113761700D02*
X68057800Y-105032300D01*
X68057800Y-105032300D02*
X67832800Y-104807300D01*
X25340000Y-117800000D02*
X26515300Y-117800000D01*
X54608700Y-91836400D02*
X49129200Y-91836400D01*
X49129200Y-91836400D02*
X46262800Y-88970000D01*
X46262800Y-88970000D02*
X33975300Y-88970000D01*
X32800000Y-88970000D02*
X33975300Y-88970000D01*
X55609100Y-91298800D02*
X52103300Y-87793000D01*
X52103300Y-87793000D02*
X44035000Y-87793000D01*
X44035000Y-87793000D02*
X42672000Y-86430000D01*
X42672000Y-86430000D02*
X32800000Y-86430000D01*
X58550000Y-107250000D02*
X60502600Y-107250000D01*
X60502600Y-107250000D02*
X67164600Y-100588000D01*
X67164600Y-100588000D02*
X67164600Y-92256900D01*
X67164600Y-92256900D02*
X62179100Y-87271400D01*
X62179100Y-87271400D02*
X59779900Y-87271400D01*
X58550000Y-106750000D02*
X60365700Y-106750000D01*
X60365700Y-106750000D02*
X66078000Y-101037700D01*
X66078000Y-101037700D02*
X66078000Y-95952200D01*
X66078000Y-95952200D02*
X64946000Y-94820200D01*
X64946000Y-94820200D02*
X64540600Y-94820200D01*
X64540600Y-94820200D02*
X58937000Y-89216600D01*
X58937000Y-89216600D02*
X58937000Y-88809200D01*
X58550000Y-106250000D02*
X60228800Y-106250000D01*
X60228800Y-106250000D02*
X65599600Y-100879200D01*
X65599600Y-100879200D02*
X65599600Y-96159300D01*
X65599600Y-96159300D02*
X64710800Y-95270500D01*
X64710800Y-95270500D02*
X64354000Y-95270500D01*
X64354000Y-95270500D02*
X56861000Y-87777500D01*
X56861000Y-87777500D02*
X56861000Y-85847100D01*
X59525300Y-105750000D02*
X60091900Y-105750000D01*
X60091900Y-105750000D02*
X65126500Y-100715400D01*
X65126500Y-100715400D02*
X65126500Y-96391400D01*
X65126500Y-96391400D02*
X64455900Y-95720800D01*
X64455900Y-95720800D02*
X64167400Y-95720800D01*
X64167400Y-95720800D02*
X55789300Y-87342700D01*
X55789300Y-87342700D02*
X44813300Y-87342700D01*
X44813300Y-87342700D02*
X44538200Y-87067600D01*
X58550000Y-105750000D02*
X59525300Y-105750000D01*
X53176000Y-91007700D02*
X50411700Y-88243400D01*
X50411700Y-88243400D02*
X43773200Y-88243400D01*
X43773200Y-88243400D02*
X43324400Y-87794600D01*
X43324400Y-87794600D02*
X30794600Y-87794600D01*
X30794600Y-87794600D02*
X29100000Y-86100000D01*
X29100000Y-86100000D02*
X22600000Y-86100000D01*
X70500000Y-86000000D02*
X64000000Y-86000000D01*
X29000000Y-125000000D02*
X22500000Y-125000000D01*
X53825000Y-86509400D02*
X55229500Y-85104900D01*
X55229500Y-85104900D02*
X60649500Y-85104900D01*
X60649500Y-85104900D02*
X68558100Y-93013500D01*
X68558100Y-93013500D02*
X68558100Y-113975800D01*
X68558100Y-113975800D02*
X66964600Y-115569300D01*
X66964600Y-115569300D02*
X64749400Y-115569300D01*
X64749400Y-115569300D02*
X59725600Y-120593100D01*
X59725600Y-120593100D02*
X44375700Y-120593100D01*
X44375700Y-120593100D02*
X40976200Y-123992600D01*
X40976200Y-123992600D02*
X30007400Y-123992600D01*
X30007400Y-123992600D02*
X29000000Y-125000000D01*
X64000000Y-125000000D02*
X70500000Y-125000000D01*
X58550000Y-102750000D02*
X53267900Y-102750000D01*
X53267900Y-102750000D02*
X51830400Y-104187500D01*
X47570800Y-105136200D02*
X50457000Y-102250000D01*
X50457000Y-102250000D02*
X58550000Y-102250000D01*
X47994300Y-102455700D02*
X48700000Y-101750000D01*
X48700000Y-101750000D02*
X58550000Y-101750000D01*
X57574700Y-100750000D02*
X57025100Y-101299600D01*
X57025100Y-101299600D02*
X47637200Y-101299600D01*
X58550000Y-100750000D02*
X57574700Y-100750000D01*
X57574700Y-99750000D02*
X57503900Y-99679200D01*
X57503900Y-99679200D02*
X47840200Y-99679200D01*
X58550000Y-99750000D02*
X57574700Y-99750000D01*
X57574700Y-109750000D02*
X52517100Y-114807600D01*
X52517100Y-114807600D02*
X47641900Y-114807600D01*
X58550000Y-109750000D02*
X57574700Y-109750000D01*
X58550000Y-109250000D02*
X56316000Y-109250000D01*
X56316000Y-109250000D02*
X51483700Y-114082300D01*
X51483700Y-114082300D02*
X45517700Y-114082300D01*
X45517700Y-114082300D02*
X45455700Y-114144300D01*
X59816300Y-100875200D02*
X59525300Y-101166200D01*
X59525300Y-101166200D02*
X59525300Y-101250000D01*
X58550000Y-101250000D02*
X59525300Y-101250000D01*
X56883200Y-100404500D02*
X57037700Y-100250000D01*
X57037700Y-100250000D02*
X58550000Y-100250000D01*
X58550000Y-110750000D02*
X57574700Y-110750000D01*
X57574700Y-110750000D02*
X57574700Y-110947100D01*
X57574700Y-110947100D02*
X56818000Y-111703800D01*
X59525300Y-110250000D02*
X59525300Y-111875100D01*
X59525300Y-111875100D02*
X59450100Y-111950300D01*
X59450100Y-111950300D02*
X59450100Y-114221000D01*
X59450100Y-114221000D02*
X61305600Y-116076500D01*
X61305600Y-116076500D02*
X61378000Y-116076500D01*
X58550000Y-110250000D02*
X59525300Y-110250000D01*
X45000000Y-102500000D02*
X44000000Y-102500000D01*
D20*
G36*
X71340000Y-123594873D02*
G01*
X71274463Y-123551082D01*
X70976912Y-123427832D01*
X70661033Y-123365000D01*
X70338967Y-123365000D01*
X70023088Y-123427832D01*
X69725537Y-123551082D01*
X69457748Y-123730013D01*
X69230013Y-123957748D01*
X69051082Y-124225537D01*
X69045091Y-124240000D01*
X65454909Y-124240000D01*
X65448918Y-124225537D01*
X65269987Y-123957748D01*
X65042252Y-123730013D01*
X64774463Y-123551082D01*
X64476912Y-123427832D01*
X64161033Y-123365000D01*
X63838967Y-123365000D01*
X63523088Y-123427832D01*
X63225537Y-123551082D01*
X62957748Y-123730013D01*
X62730013Y-123957748D01*
X62551082Y-124225537D01*
X62427832Y-124523088D01*
X62365000Y-124838967D01*
X62365000Y-125161033D01*
X62427832Y-125476912D01*
X62551082Y-125774463D01*
X62730013Y-126042252D01*
X62957748Y-126269987D01*
X63225537Y-126448918D01*
X63523088Y-126572168D01*
X63838967Y-126635000D01*
X64161033Y-126635000D01*
X64476912Y-126572168D01*
X64774463Y-126448918D01*
X65042252Y-126269987D01*
X65269987Y-126042252D01*
X65448918Y-125774463D01*
X65454909Y-125760000D01*
X69045091Y-125760000D01*
X69051082Y-125774463D01*
X69230013Y-126042252D01*
X69457748Y-126269987D01*
X69725537Y-126448918D01*
X70023088Y-126572168D01*
X70338967Y-126635000D01*
X70661033Y-126635000D01*
X70976912Y-126572168D01*
X71274463Y-126448918D01*
X71340000Y-126405127D01*
X71340000Y-128090435D01*
X71070429Y-127959296D01*
X70758892Y-127877616D01*
X70437405Y-127858282D01*
X70118325Y-127902039D01*
X69813912Y-128007205D01*
X69639956Y-128100186D01*
X69544192Y-128364587D01*
X70500000Y-129320395D01*
X70514143Y-129306253D01*
X70693748Y-129485858D01*
X70679605Y-129500000D01*
X70693748Y-129514143D01*
X70514143Y-129693748D01*
X70500000Y-129679605D01*
X70485858Y-129693748D01*
X70306253Y-129514143D01*
X70320395Y-129500000D01*
X69364587Y-128544192D01*
X69100186Y-128639956D01*
X68959296Y-128929571D01*
X68877616Y-129241108D01*
X68858282Y-129562595D01*
X68902039Y-129881675D01*
X69007205Y-130186088D01*
X69089472Y-130340000D01*
X65409565Y-130340000D01*
X65540704Y-130070429D01*
X65622384Y-129758892D01*
X65641718Y-129437405D01*
X65597961Y-129118325D01*
X65492795Y-128813912D01*
X65399814Y-128639956D01*
X65135413Y-128544192D01*
X64179605Y-129500000D01*
X64193748Y-129514143D01*
X64014143Y-129693748D01*
X64000000Y-129679605D01*
X63985858Y-129693748D01*
X63806253Y-129514143D01*
X63820395Y-129500000D01*
X62864587Y-128544192D01*
X62600186Y-128639956D01*
X62459296Y-128929571D01*
X62377616Y-129241108D01*
X62358282Y-129562595D01*
X62402039Y-129881675D01*
X62507205Y-130186088D01*
X62589472Y-130340000D01*
X50109565Y-130340000D01*
X50240704Y-130070429D01*
X50322384Y-129758892D01*
X50341718Y-129437405D01*
X50297961Y-129118325D01*
X50192795Y-128813912D01*
X50099814Y-128639956D01*
X49835413Y-128544192D01*
X48879605Y-129500000D01*
X48893748Y-129514143D01*
X48714143Y-129693748D01*
X48700000Y-129679605D01*
X48685858Y-129693748D01*
X48506253Y-129514143D01*
X48520395Y-129500000D01*
X47564587Y-128544192D01*
X47300186Y-128639956D01*
X47159296Y-128929571D01*
X47077616Y-129241108D01*
X47058282Y-129562595D01*
X47102039Y-129881675D01*
X47207205Y-130186088D01*
X47289472Y-130340000D01*
X45605128Y-130340000D01*
X45648918Y-130274463D01*
X45772168Y-129976912D01*
X45835000Y-129661033D01*
X45835000Y-129338967D01*
X45772168Y-129023088D01*
X45648918Y-128725537D01*
X45469987Y-128457748D01*
X45376826Y-128364587D01*
X47744192Y-128364587D01*
X48700000Y-129320395D01*
X49655808Y-128364587D01*
X63044192Y-128364587D01*
X64000000Y-129320395D01*
X64955808Y-128364587D01*
X64860044Y-128100186D01*
X64570429Y-127959296D01*
X64258892Y-127877616D01*
X63937405Y-127858282D01*
X63618325Y-127902039D01*
X63313912Y-128007205D01*
X63139956Y-128100186D01*
X63044192Y-128364587D01*
X49655808Y-128364587D01*
X49560044Y-128100186D01*
X49270429Y-127959296D01*
X48958892Y-127877616D01*
X48637405Y-127858282D01*
X48318325Y-127902039D01*
X48013912Y-128007205D01*
X47839956Y-128100186D01*
X47744192Y-128364587D01*
X45376826Y-128364587D01*
X45242252Y-128230013D01*
X44974463Y-128051082D01*
X44676912Y-127927832D01*
X44361033Y-127865000D01*
X44038967Y-127865000D01*
X43723088Y-127927832D01*
X43425537Y-128051082D01*
X43157748Y-128230013D01*
X42930013Y-128457748D01*
X42751082Y-128725537D01*
X42627832Y-129023088D01*
X42565000Y-129338967D01*
X42565000Y-129661033D01*
X42627832Y-129976912D01*
X42751082Y-130274463D01*
X42794872Y-130340000D01*
X30409565Y-130340000D01*
X30540704Y-130070429D01*
X30622384Y-129758892D01*
X30641718Y-129437405D01*
X30597961Y-129118325D01*
X30492795Y-128813912D01*
X30399814Y-128639956D01*
X30135413Y-128544192D01*
X29179605Y-129500000D01*
X29193748Y-129514143D01*
X29014143Y-129693748D01*
X29000000Y-129679605D01*
X28985858Y-129693748D01*
X28806253Y-129514143D01*
X28820395Y-129500000D01*
X27864587Y-128544192D01*
X27600186Y-128639956D01*
X27459296Y-128929571D01*
X27377616Y-129241108D01*
X27358282Y-129562595D01*
X27402039Y-129881675D01*
X27507205Y-130186088D01*
X27589472Y-130340000D01*
X23909565Y-130340000D01*
X24040704Y-130070429D01*
X24122384Y-129758892D01*
X24141718Y-129437405D01*
X24097961Y-129118325D01*
X23992795Y-128813912D01*
X23899814Y-128639956D01*
X23635413Y-128544192D01*
X22679605Y-129500000D01*
X22693748Y-129514143D01*
X22514143Y-129693748D01*
X22500000Y-129679605D01*
X22485858Y-129693748D01*
X22306253Y-129514143D01*
X22320395Y-129500000D01*
X22306253Y-129485858D01*
X22485858Y-129306253D01*
X22500000Y-129320395D01*
X23455808Y-128364587D01*
X28044192Y-128364587D01*
X29000000Y-129320395D01*
X29955808Y-128364587D01*
X29860044Y-128100186D01*
X29570429Y-127959296D01*
X29258892Y-127877616D01*
X28937405Y-127858282D01*
X28618325Y-127902039D01*
X28313912Y-128007205D01*
X28139956Y-128100186D01*
X28044192Y-128364587D01*
X23455808Y-128364587D01*
X23360044Y-128100186D01*
X23070429Y-127959296D01*
X22758892Y-127877616D01*
X22437405Y-127858282D01*
X22118325Y-127902039D01*
X21813912Y-128007205D01*
X21660000Y-128089472D01*
X21660000Y-127700000D01*
X40361928Y-127700000D01*
X40374188Y-127824482D01*
X40410498Y-127944180D01*
X40469463Y-128054494D01*
X40548815Y-128151185D01*
X40645506Y-128230537D01*
X40755820Y-128289502D01*
X40875518Y-128325812D01*
X41000000Y-128338072D01*
X41414250Y-128335000D01*
X41573000Y-128176250D01*
X41573000Y-127252000D01*
X41827000Y-127252000D01*
X41827000Y-128176250D01*
X41985750Y-128335000D01*
X42400000Y-128338072D01*
X42524482Y-128325812D01*
X42644180Y-128289502D01*
X42754494Y-128230537D01*
X42851185Y-128151185D01*
X42930537Y-128054494D01*
X42989502Y-127944180D01*
X43025812Y-127824482D01*
X43038072Y-127700000D01*
X49861928Y-127700000D01*
X49874188Y-127824482D01*
X49910498Y-127944180D01*
X49969463Y-128054494D01*
X50048815Y-128151185D01*
X50145506Y-128230537D01*
X50255820Y-128289502D01*
X50375518Y-128325812D01*
X50500000Y-128338072D01*
X50914250Y-128335000D01*
X51073000Y-128176250D01*
X51073000Y-127252000D01*
X51327000Y-127252000D01*
X51327000Y-128176250D01*
X51485750Y-128335000D01*
X51900000Y-128338072D01*
X52024482Y-128325812D01*
X52144180Y-128289502D01*
X52254494Y-128230537D01*
X52351185Y-128151185D01*
X52430537Y-128054494D01*
X52489502Y-127944180D01*
X52525812Y-127824482D01*
X52538072Y-127700000D01*
X52535000Y-127410750D01*
X52376250Y-127252000D01*
X51327000Y-127252000D01*
X51073000Y-127252000D01*
X50023750Y-127252000D01*
X49865000Y-127410750D01*
X49861928Y-127700000D01*
X43038072Y-127700000D01*
X43035000Y-127410750D01*
X42876250Y-127252000D01*
X41827000Y-127252000D01*
X41573000Y-127252000D01*
X40523750Y-127252000D01*
X40365000Y-127410750D01*
X40361928Y-127700000D01*
X21660000Y-127700000D01*
X21660000Y-126405128D01*
X21725537Y-126448918D01*
X22023088Y-126572168D01*
X22338967Y-126635000D01*
X22661033Y-126635000D01*
X22976912Y-126572168D01*
X23274463Y-126448918D01*
X23542252Y-126269987D01*
X23769987Y-126042252D01*
X23948918Y-125774463D01*
X23954909Y-125760000D01*
X27545091Y-125760000D01*
X27551082Y-125774463D01*
X27730013Y-126042252D01*
X27957748Y-126269987D01*
X28225537Y-126448918D01*
X28523088Y-126572168D01*
X28838967Y-126635000D01*
X29161033Y-126635000D01*
X29476912Y-126572168D01*
X29774463Y-126448918D01*
X30042252Y-126269987D01*
X30269987Y-126042252D01*
X30448918Y-125774463D01*
X30572168Y-125476912D01*
X30635000Y-125161033D01*
X30635000Y-124838967D01*
X30617821Y-124752600D01*
X38627566Y-124752600D01*
X38619074Y-124773102D01*
X38579300Y-124973061D01*
X38579300Y-125176939D01*
X38619074Y-125376898D01*
X38697095Y-125565256D01*
X38810363Y-125734774D01*
X38954526Y-125878937D01*
X39124044Y-125992205D01*
X39312402Y-126070226D01*
X39512361Y-126110000D01*
X39716239Y-126110000D01*
X39916198Y-126070226D01*
X40104556Y-125992205D01*
X40274074Y-125878937D01*
X40318011Y-125835000D01*
X40480386Y-125835000D01*
X40511595Y-125893387D01*
X40622038Y-126027962D01*
X40628594Y-126033342D01*
X40548815Y-126098815D01*
X40469463Y-126195506D01*
X40410498Y-126305820D01*
X40374188Y-126425518D01*
X40361928Y-126550000D01*
X40365000Y-126839250D01*
X40523750Y-126998000D01*
X41573000Y-126998000D01*
X41573000Y-126978000D01*
X41827000Y-126978000D01*
X41827000Y-126998000D01*
X42876250Y-126998000D01*
X43035000Y-126839250D01*
X43038072Y-126550000D01*
X43025812Y-126425518D01*
X42989502Y-126305820D01*
X42930537Y-126195506D01*
X42851185Y-126098815D01*
X42771406Y-126033342D01*
X42777962Y-126027962D01*
X42888405Y-125893387D01*
X42970472Y-125739851D01*
X43021008Y-125573255D01*
X43038072Y-125400001D01*
X43038072Y-124749999D01*
X49861928Y-124749999D01*
X49861928Y-125400001D01*
X49878992Y-125573255D01*
X49929528Y-125739851D01*
X50011595Y-125893387D01*
X50122038Y-126027962D01*
X50128594Y-126033342D01*
X50048815Y-126098815D01*
X49969463Y-126195506D01*
X49910498Y-126305820D01*
X49874188Y-126425518D01*
X49861928Y-126550000D01*
X49865000Y-126839250D01*
X50023750Y-126998000D01*
X51073000Y-126998000D01*
X51073000Y-126978000D01*
X51327000Y-126978000D01*
X51327000Y-126998000D01*
X52376250Y-126998000D01*
X52535000Y-126839250D01*
X52535498Y-126792341D01*
X52731861Y-126831400D01*
X52935739Y-126831400D01*
X53135698Y-126791626D01*
X53324056Y-126713605D01*
X53493574Y-126600337D01*
X53637737Y-126456174D01*
X53751005Y-126286656D01*
X53829026Y-126098298D01*
X53868800Y-125898339D01*
X53868800Y-125694461D01*
X53829026Y-125494502D01*
X53751005Y-125306144D01*
X53637737Y-125136626D01*
X53493574Y-124992463D01*
X53324056Y-124879195D01*
X53135698Y-124801174D01*
X52935739Y-124761400D01*
X52873601Y-124761400D01*
X52676203Y-124564002D01*
X52652401Y-124534999D01*
X52536676Y-124440026D01*
X52466349Y-124402435D01*
X52388405Y-124256613D01*
X52277962Y-124122038D01*
X52143387Y-124011595D01*
X51989851Y-123929528D01*
X51823255Y-123878992D01*
X51650001Y-123861928D01*
X50749999Y-123861928D01*
X50576745Y-123878992D01*
X50410149Y-123929528D01*
X50256613Y-124011595D01*
X50122038Y-124122038D01*
X50011595Y-124256613D01*
X49929528Y-124410149D01*
X49878992Y-124576745D01*
X49861928Y-124749999D01*
X43038072Y-124749999D01*
X43021008Y-124576745D01*
X42970472Y-124410149D01*
X42888405Y-124256613D01*
X42777962Y-124122038D01*
X42643387Y-124011595D01*
X42489851Y-123929528D01*
X42323255Y-123878992D01*
X42178833Y-123864768D01*
X42617688Y-123425914D01*
X42627832Y-123476912D01*
X42751082Y-123774463D01*
X42930013Y-124042252D01*
X43157748Y-124269987D01*
X43425537Y-124448918D01*
X43723088Y-124572168D01*
X44038967Y-124635000D01*
X44361033Y-124635000D01*
X44676912Y-124572168D01*
X44974463Y-124448918D01*
X45242252Y-124269987D01*
X45376826Y-124135413D01*
X47744192Y-124135413D01*
X47839956Y-124399814D01*
X48129571Y-124540704D01*
X48441108Y-124622384D01*
X48762595Y-124641718D01*
X49081675Y-124597961D01*
X49386088Y-124492795D01*
X49560044Y-124399814D01*
X49655808Y-124135413D01*
X48700000Y-123179605D01*
X47744192Y-124135413D01*
X45376826Y-124135413D01*
X45469987Y-124042252D01*
X45648918Y-123774463D01*
X45772168Y-123476912D01*
X45835000Y-123161033D01*
X45835000Y-123062595D01*
X47058282Y-123062595D01*
X47102039Y-123381675D01*
X47207205Y-123686088D01*
X47300186Y-123860044D01*
X47564587Y-123955808D01*
X48520395Y-123000000D01*
X48879605Y-123000000D01*
X49835413Y-123955808D01*
X50099814Y-123860044D01*
X50240704Y-123570429D01*
X50322384Y-123258892D01*
X50341718Y-122937405D01*
X50297961Y-122618325D01*
X50192795Y-122313912D01*
X50099814Y-122139956D01*
X49835413Y-122044192D01*
X48879605Y-123000000D01*
X48520395Y-123000000D01*
X47564587Y-122044192D01*
X47300186Y-122139956D01*
X47159296Y-122429571D01*
X47077616Y-122741108D01*
X47058282Y-123062595D01*
X45835000Y-123062595D01*
X45835000Y-122838967D01*
X45772168Y-122523088D01*
X45648918Y-122225537D01*
X45469987Y-121957748D01*
X45376826Y-121864587D01*
X47744192Y-121864587D01*
X48700000Y-122820395D01*
X49655808Y-121864587D01*
X49560044Y-121600186D01*
X49270429Y-121459296D01*
X48958892Y-121377616D01*
X48637405Y-121358282D01*
X48318325Y-121402039D01*
X48013912Y-121507205D01*
X47839956Y-121600186D01*
X47744192Y-121864587D01*
X45376826Y-121864587D01*
X45242252Y-121730013D01*
X44974463Y-121551082D01*
X44676912Y-121427832D01*
X44625914Y-121417688D01*
X44690502Y-121353100D01*
X59688278Y-121353100D01*
X59725600Y-121356776D01*
X59762922Y-121353100D01*
X59762933Y-121353100D01*
X59874586Y-121342103D01*
X60017847Y-121298646D01*
X60149876Y-121228074D01*
X60265601Y-121133101D01*
X60289404Y-121104097D01*
X63109060Y-118284442D01*
X63180377Y-118642981D01*
X63346544Y-119044144D01*
X63587782Y-119405181D01*
X63894819Y-119712218D01*
X64255856Y-119953456D01*
X64657019Y-120119623D01*
X65082892Y-120204334D01*
X65517108Y-120204334D01*
X65942981Y-120119623D01*
X66344144Y-119953456D01*
X66705181Y-119712218D01*
X67012218Y-119405181D01*
X67253456Y-119044144D01*
X67419623Y-118642981D01*
X67504334Y-118217108D01*
X67504334Y-117782892D01*
X67419623Y-117357019D01*
X67253456Y-116955856D01*
X67012218Y-116594819D01*
X66746699Y-116329300D01*
X66927278Y-116329300D01*
X66964600Y-116332976D01*
X67001922Y-116329300D01*
X67001933Y-116329300D01*
X67113586Y-116318303D01*
X67256847Y-116274846D01*
X67388876Y-116204274D01*
X67504601Y-116109301D01*
X67528404Y-116080297D01*
X69069103Y-114539599D01*
X69098101Y-114515801D01*
X69193074Y-114400076D01*
X69263646Y-114268047D01*
X69307103Y-114124786D01*
X69318100Y-114013133D01*
X69318100Y-114013124D01*
X69321776Y-113975801D01*
X69318100Y-113938478D01*
X69318100Y-112420000D01*
X71340001Y-112420000D01*
X71340000Y-123594873D01*
G37*
X71340000Y-123594873D02*
X71274463Y-123551082D01*
X70976912Y-123427832D01*
X70661033Y-123365000D01*
X70338967Y-123365000D01*
X70023088Y-123427832D01*
X69725537Y-123551082D01*
X69457748Y-123730013D01*
X69230013Y-123957748D01*
X69051082Y-124225537D01*
X69045091Y-124240000D01*
X65454909Y-124240000D01*
X65448918Y-124225537D01*
X65269987Y-123957748D01*
X65042252Y-123730013D01*
X64774463Y-123551082D01*
X64476912Y-123427832D01*
X64161033Y-123365000D01*
X63838967Y-123365000D01*
X63523088Y-123427832D01*
X63225537Y-123551082D01*
X62957748Y-123730013D01*
X62730013Y-123957748D01*
X62551082Y-124225537D01*
X62427832Y-124523088D01*
X62365000Y-124838967D01*
X62365000Y-125161033D01*
X62427832Y-125476912D01*
X62551082Y-125774463D01*
X62730013Y-126042252D01*
X62957748Y-126269987D01*
X63225537Y-126448918D01*
X63523088Y-126572168D01*
X63838967Y-126635000D01*
X64161033Y-126635000D01*
X64476912Y-126572168D01*
X64774463Y-126448918D01*
X65042252Y-126269987D01*
X65269987Y-126042252D01*
X65448918Y-125774463D01*
X65454909Y-125760000D01*
X69045091Y-125760000D01*
X69051082Y-125774463D01*
X69230013Y-126042252D01*
X69457748Y-126269987D01*
X69725537Y-126448918D01*
X70023088Y-126572168D01*
X70338967Y-126635000D01*
X70661033Y-126635000D01*
X70976912Y-126572168D01*
X71274463Y-126448918D01*
X71340000Y-126405127D01*
X71340000Y-128090435D01*
X71070429Y-127959296D01*
X70758892Y-127877616D01*
X70437405Y-127858282D01*
X70118325Y-127902039D01*
X69813912Y-128007205D01*
X69639956Y-128100186D01*
X69544192Y-128364587D01*
X70500000Y-129320395D01*
X70514143Y-129306253D01*
X70693748Y-129485858D01*
X70679605Y-129500000D01*
X70693748Y-129514143D01*
X70514143Y-129693748D01*
X70500000Y-129679605D01*
X70485858Y-129693748D01*
X70306253Y-129514143D01*
X70320395Y-129500000D01*
X69364587Y-128544192D01*
X69100186Y-128639956D01*
X68959296Y-128929571D01*
X68877616Y-129241108D01*
X68858282Y-129562595D01*
X68902039Y-129881675D01*
X69007205Y-130186088D01*
X69089472Y-130340000D01*
X65409565Y-130340000D01*
X65540704Y-130070429D01*
X65622384Y-129758892D01*
X65641718Y-129437405D01*
X65597961Y-129118325D01*
X65492795Y-128813912D01*
X65399814Y-128639956D01*
X65135413Y-128544192D01*
X64179605Y-129500000D01*
X64193748Y-129514143D01*
X64014143Y-129693748D01*
X64000000Y-129679605D01*
X63985858Y-129693748D01*
X63806253Y-129514143D01*
X63820395Y-129500000D01*
X62864587Y-128544192D01*
X62600186Y-128639956D01*
X62459296Y-128929571D01*
X62377616Y-129241108D01*
X62358282Y-129562595D01*
X62402039Y-129881675D01*
X62507205Y-130186088D01*
X62589472Y-130340000D01*
X50109565Y-130340000D01*
X50240704Y-130070429D01*
X50322384Y-129758892D01*
X50341718Y-129437405D01*
X50297961Y-129118325D01*
X50192795Y-128813912D01*
X50099814Y-128639956D01*
X49835413Y-128544192D01*
X48879605Y-129500000D01*
X48893748Y-129514143D01*
X48714143Y-129693748D01*
X48700000Y-129679605D01*
X48685858Y-129693748D01*
X48506253Y-129514143D01*
X48520395Y-129500000D01*
X47564587Y-128544192D01*
X47300186Y-128639956D01*
X47159296Y-128929571D01*
X47077616Y-129241108D01*
X47058282Y-129562595D01*
X47102039Y-129881675D01*
X47207205Y-130186088D01*
X47289472Y-130340000D01*
X45605128Y-130340000D01*
X45648918Y-130274463D01*
X45772168Y-129976912D01*
X45835000Y-129661033D01*
X45835000Y-129338967D01*
X45772168Y-129023088D01*
X45648918Y-128725537D01*
X45469987Y-128457748D01*
X45376826Y-128364587D01*
X47744192Y-128364587D01*
X48700000Y-129320395D01*
X49655808Y-128364587D01*
X63044192Y-128364587D01*
X64000000Y-129320395D01*
X64955808Y-128364587D01*
X64860044Y-128100186D01*
X64570429Y-127959296D01*
X64258892Y-127877616D01*
X63937405Y-127858282D01*
X63618325Y-127902039D01*
X63313912Y-128007205D01*
X63139956Y-128100186D01*
X63044192Y-128364587D01*
X49655808Y-128364587D01*
X49560044Y-128100186D01*
X49270429Y-127959296D01*
X48958892Y-127877616D01*
X48637405Y-127858282D01*
X48318325Y-127902039D01*
X48013912Y-128007205D01*
X47839956Y-128100186D01*
X47744192Y-128364587D01*
X45376826Y-128364587D01*
X45242252Y-128230013D01*
X44974463Y-128051082D01*
X44676912Y-127927832D01*
X44361033Y-127865000D01*
X44038967Y-127865000D01*
X43723088Y-127927832D01*
X43425537Y-128051082D01*
X43157748Y-128230013D01*
X42930013Y-128457748D01*
X42751082Y-128725537D01*
X42627832Y-129023088D01*
X42565000Y-129338967D01*
X42565000Y-129661033D01*
X42627832Y-129976912D01*
X42751082Y-130274463D01*
X42794872Y-130340000D01*
X30409565Y-130340000D01*
X30540704Y-130070429D01*
X30622384Y-129758892D01*
X30641718Y-129437405D01*
X30597961Y-129118325D01*
X30492795Y-128813912D01*
X30399814Y-128639956D01*
X30135413Y-128544192D01*
X29179605Y-129500000D01*
X29193748Y-129514143D01*
X29014143Y-129693748D01*
X29000000Y-129679605D01*
X28985858Y-129693748D01*
X28806253Y-129514143D01*
X28820395Y-129500000D01*
X27864587Y-128544192D01*
X27600186Y-128639956D01*
X27459296Y-128929571D01*
X27377616Y-129241108D01*
X27358282Y-129562595D01*
X27402039Y-129881675D01*
X27507205Y-130186088D01*
X27589472Y-130340000D01*
X23909565Y-130340000D01*
X24040704Y-130070429D01*
X24122384Y-129758892D01*
X24141718Y-129437405D01*
X24097961Y-129118325D01*
X23992795Y-128813912D01*
X23899814Y-128639956D01*
X23635413Y-128544192D01*
X22679605Y-129500000D01*
X22693748Y-129514143D01*
X22514143Y-129693748D01*
X22500000Y-129679605D01*
X22485858Y-129693748D01*
X22306253Y-129514143D01*
X22320395Y-129500000D01*
X22306253Y-129485858D01*
X22485858Y-129306253D01*
X22500000Y-129320395D01*
X23455808Y-128364587D01*
X28044192Y-128364587D01*
X29000000Y-129320395D01*
X29955808Y-128364587D01*
X29860044Y-128100186D01*
X29570429Y-127959296D01*
X29258892Y-127877616D01*
X28937405Y-127858282D01*
X28618325Y-127902039D01*
X28313912Y-128007205D01*
X28139956Y-128100186D01*
X28044192Y-128364587D01*
X23455808Y-128364587D01*
X23360044Y-128100186D01*
X23070429Y-127959296D01*
X22758892Y-127877616D01*
X22437405Y-127858282D01*
X22118325Y-127902039D01*
X21813912Y-128007205D01*
X21660000Y-128089472D01*
X21660000Y-127700000D01*
X40361928Y-127700000D01*
X40374188Y-127824482D01*
X40410498Y-127944180D01*
X40469463Y-128054494D01*
X40548815Y-128151185D01*
X40645506Y-128230537D01*
X40755820Y-128289502D01*
X40875518Y-128325812D01*
X41000000Y-128338072D01*
X41414250Y-128335000D01*
X41573000Y-128176250D01*
X41573000Y-127252000D01*
X41827000Y-127252000D01*
X41827000Y-128176250D01*
X41985750Y-128335000D01*
X42400000Y-128338072D01*
X42524482Y-128325812D01*
X42644180Y-128289502D01*
X42754494Y-128230537D01*
X42851185Y-128151185D01*
X42930537Y-128054494D01*
X42989502Y-127944180D01*
X43025812Y-127824482D01*
X43038072Y-127700000D01*
X49861928Y-127700000D01*
X49874188Y-127824482D01*
X49910498Y-127944180D01*
X49969463Y-128054494D01*
X50048815Y-128151185D01*
X50145506Y-128230537D01*
X50255820Y-128289502D01*
X50375518Y-128325812D01*
X50500000Y-128338072D01*
X50914250Y-128335000D01*
X51073000Y-128176250D01*
X51073000Y-127252000D01*
X51327000Y-127252000D01*
X51327000Y-128176250D01*
X51485750Y-128335000D01*
X51900000Y-128338072D01*
X52024482Y-128325812D01*
X52144180Y-128289502D01*
X52254494Y-128230537D01*
X52351185Y-128151185D01*
X52430537Y-128054494D01*
X52489502Y-127944180D01*
X52525812Y-127824482D01*
X52538072Y-127700000D01*
X52535000Y-127410750D01*
X52376250Y-127252000D01*
X51327000Y-127252000D01*
X51073000Y-127252000D01*
X50023750Y-127252000D01*
X49865000Y-127410750D01*
X49861928Y-127700000D01*
X43038072Y-127700000D01*
X43035000Y-127410750D01*
X42876250Y-127252000D01*
X41827000Y-127252000D01*
X41573000Y-127252000D01*
X40523750Y-127252000D01*
X40365000Y-127410750D01*
X40361928Y-127700000D01*
X21660000Y-127700000D01*
X21660000Y-126405128D01*
X21725537Y-126448918D01*
X22023088Y-126572168D01*
X22338967Y-126635000D01*
X22661033Y-126635000D01*
X22976912Y-126572168D01*
X23274463Y-126448918D01*
X23542252Y-126269987D01*
X23769987Y-126042252D01*
X23948918Y-125774463D01*
X23954909Y-125760000D01*
X27545091Y-125760000D01*
X27551082Y-125774463D01*
X27730013Y-126042252D01*
X27957748Y-126269987D01*
X28225537Y-126448918D01*
X28523088Y-126572168D01*
X28838967Y-126635000D01*
X29161033Y-126635000D01*
X29476912Y-126572168D01*
X29774463Y-126448918D01*
X30042252Y-126269987D01*
X30269987Y-126042252D01*
X30448918Y-125774463D01*
X30572168Y-125476912D01*
X30635000Y-125161033D01*
X30635000Y-124838967D01*
X30617821Y-124752600D01*
X38627566Y-124752600D01*
X38619074Y-124773102D01*
X38579300Y-124973061D01*
X38579300Y-125176939D01*
X38619074Y-125376898D01*
X38697095Y-125565256D01*
X38810363Y-125734774D01*
X38954526Y-125878937D01*
X39124044Y-125992205D01*
X39312402Y-126070226D01*
X39512361Y-126110000D01*
X39716239Y-126110000D01*
X39916198Y-126070226D01*
X40104556Y-125992205D01*
X40274074Y-125878937D01*
X40318011Y-125835000D01*
X40480386Y-125835000D01*
X40511595Y-125893387D01*
X40622038Y-126027962D01*
X40628594Y-126033342D01*
X40548815Y-126098815D01*
X40469463Y-126195506D01*
X40410498Y-126305820D01*
X40374188Y-126425518D01*
X40361928Y-126550000D01*
X40365000Y-126839250D01*
X40523750Y-126998000D01*
X41573000Y-126998000D01*
X41573000Y-126978000D01*
X41827000Y-126978000D01*
X41827000Y-126998000D01*
X42876250Y-126998000D01*
X43035000Y-126839250D01*
X43038072Y-126550000D01*
X43025812Y-126425518D01*
X42989502Y-126305820D01*
X42930537Y-126195506D01*
X42851185Y-126098815D01*
X42771406Y-126033342D01*
X42777962Y-126027962D01*
X42888405Y-125893387D01*
X42970472Y-125739851D01*
X43021008Y-125573255D01*
X43038072Y-125400001D01*
X43038072Y-124749999D01*
X49861928Y-124749999D01*
X49861928Y-125400001D01*
X49878992Y-125573255D01*
X49929528Y-125739851D01*
X50011595Y-125893387D01*
X50122038Y-126027962D01*
X50128594Y-126033342D01*
X50048815Y-126098815D01*
X49969463Y-126195506D01*
X49910498Y-126305820D01*
X49874188Y-126425518D01*
X49861928Y-126550000D01*
X49865000Y-126839250D01*
X50023750Y-126998000D01*
X51073000Y-126998000D01*
X51073000Y-126978000D01*
X51327000Y-126978000D01*
X51327000Y-126998000D01*
X52376250Y-126998000D01*
X52535000Y-126839250D01*
X52535498Y-126792341D01*
X52731861Y-126831400D01*
X52935739Y-126831400D01*
X53135698Y-126791626D01*
X53324056Y-126713605D01*
X53493574Y-126600337D01*
X53637737Y-126456174D01*
X53751005Y-126286656D01*
X53829026Y-126098298D01*
X53868800Y-125898339D01*
X53868800Y-125694461D01*
X53829026Y-125494502D01*
X53751005Y-125306144D01*
X53637737Y-125136626D01*
X53493574Y-124992463D01*
X53324056Y-124879195D01*
X53135698Y-124801174D01*
X52935739Y-124761400D01*
X52873601Y-124761400D01*
X52676203Y-124564002D01*
X52652401Y-124534999D01*
X52536676Y-124440026D01*
X52466349Y-124402435D01*
X52388405Y-124256613D01*
X52277962Y-124122038D01*
X52143387Y-124011595D01*
X51989851Y-123929528D01*
X51823255Y-123878992D01*
X51650001Y-123861928D01*
X50749999Y-123861928D01*
X50576745Y-123878992D01*
X50410149Y-123929528D01*
X50256613Y-124011595D01*
X50122038Y-124122038D01*
X50011595Y-124256613D01*
X49929528Y-124410149D01*
X49878992Y-124576745D01*
X49861928Y-124749999D01*
X43038072Y-124749999D01*
X43021008Y-124576745D01*
X42970472Y-124410149D01*
X42888405Y-124256613D01*
X42777962Y-124122038D01*
X42643387Y-124011595D01*
X42489851Y-123929528D01*
X42323255Y-123878992D01*
X42178833Y-123864768D01*
X42617688Y-123425914D01*
X42627832Y-123476912D01*
X42751082Y-123774463D01*
X42930013Y-124042252D01*
X43157748Y-124269987D01*
X43425537Y-124448918D01*
X43723088Y-124572168D01*
X44038967Y-124635000D01*
X44361033Y-124635000D01*
X44676912Y-124572168D01*
X44974463Y-124448918D01*
X45242252Y-124269987D01*
X45376826Y-124135413D01*
X47744192Y-124135413D01*
X47839956Y-124399814D01*
X48129571Y-124540704D01*
X48441108Y-124622384D01*
X48762595Y-124641718D01*
X49081675Y-124597961D01*
X49386088Y-124492795D01*
X49560044Y-124399814D01*
X49655808Y-124135413D01*
X48700000Y-123179605D01*
X47744192Y-124135413D01*
X45376826Y-124135413D01*
X45469987Y-124042252D01*
X45648918Y-123774463D01*
X45772168Y-123476912D01*
X45835000Y-123161033D01*
X45835000Y-123062595D01*
X47058282Y-123062595D01*
X47102039Y-123381675D01*
X47207205Y-123686088D01*
X47300186Y-123860044D01*
X47564587Y-123955808D01*
X48520395Y-123000000D01*
X48879605Y-123000000D01*
X49835413Y-123955808D01*
X50099814Y-123860044D01*
X50240704Y-123570429D01*
X50322384Y-123258892D01*
X50341718Y-122937405D01*
X50297961Y-122618325D01*
X50192795Y-122313912D01*
X50099814Y-122139956D01*
X49835413Y-122044192D01*
X48879605Y-123000000D01*
X48520395Y-123000000D01*
X47564587Y-122044192D01*
X47300186Y-122139956D01*
X47159296Y-122429571D01*
X47077616Y-122741108D01*
X47058282Y-123062595D01*
X45835000Y-123062595D01*
X45835000Y-122838967D01*
X45772168Y-122523088D01*
X45648918Y-122225537D01*
X45469987Y-121957748D01*
X45376826Y-121864587D01*
X47744192Y-121864587D01*
X48700000Y-122820395D01*
X49655808Y-121864587D01*
X49560044Y-121600186D01*
X49270429Y-121459296D01*
X48958892Y-121377616D01*
X48637405Y-121358282D01*
X48318325Y-121402039D01*
X48013912Y-121507205D01*
X47839956Y-121600186D01*
X47744192Y-121864587D01*
X45376826Y-121864587D01*
X45242252Y-121730013D01*
X44974463Y-121551082D01*
X44676912Y-121427832D01*
X44625914Y-121417688D01*
X44690502Y-121353100D01*
X59688278Y-121353100D01*
X59725600Y-121356776D01*
X59762922Y-121353100D01*
X59762933Y-121353100D01*
X59874586Y-121342103D01*
X60017847Y-121298646D01*
X60149876Y-121228074D01*
X60265601Y-121133101D01*
X60289404Y-121104097D01*
X63109060Y-118284442D01*
X63180377Y-118642981D01*
X63346544Y-119044144D01*
X63587782Y-119405181D01*
X63894819Y-119712218D01*
X64255856Y-119953456D01*
X64657019Y-120119623D01*
X65082892Y-120204334D01*
X65517108Y-120204334D01*
X65942981Y-120119623D01*
X66344144Y-119953456D01*
X66705181Y-119712218D01*
X67012218Y-119405181D01*
X67253456Y-119044144D01*
X67419623Y-118642981D01*
X67504334Y-118217108D01*
X67504334Y-117782892D01*
X67419623Y-117357019D01*
X67253456Y-116955856D01*
X67012218Y-116594819D01*
X66746699Y-116329300D01*
X66927278Y-116329300D01*
X66964600Y-116332976D01*
X67001922Y-116329300D01*
X67001933Y-116329300D01*
X67113586Y-116318303D01*
X67256847Y-116274846D01*
X67388876Y-116204274D01*
X67504601Y-116109301D01*
X67528404Y-116080297D01*
X69069103Y-114539599D01*
X69098101Y-114515801D01*
X69193074Y-114400076D01*
X69263646Y-114268047D01*
X69307103Y-114124786D01*
X69318100Y-114013133D01*
X69318100Y-114013124D01*
X69321776Y-113975801D01*
X69318100Y-113938478D01*
X69318100Y-112420000D01*
X71340001Y-112420000D01*
X71340000Y-123594873D01*
G36*
X24186525Y-118746632D02*
G01*
X24393368Y-118953475D01*
X24636589Y-119115990D01*
X24906842Y-119227932D01*
X25193740Y-119285000D01*
X25486260Y-119285000D01*
X25773158Y-119227932D01*
X26043411Y-119115990D01*
X26250690Y-118977491D01*
X28124001Y-120850803D01*
X28147799Y-120879801D01*
X28176797Y-120903599D01*
X28263523Y-120974774D01*
X28343227Y-121017377D01*
X28395553Y-121045346D01*
X28538814Y-121088803D01*
X28650467Y-121099800D01*
X28650477Y-121099800D01*
X28687800Y-121103476D01*
X28725123Y-121099800D01*
X42794198Y-121099800D01*
X40661399Y-123232600D01*
X30044725Y-123232600D01*
X30007400Y-123228924D01*
X29970075Y-123232600D01*
X29970067Y-123232600D01*
X29858414Y-123243597D01*
X29715153Y-123287054D01*
X29583124Y-123357626D01*
X29490646Y-123433521D01*
X29476912Y-123427832D01*
X29161033Y-123365000D01*
X28838967Y-123365000D01*
X28523088Y-123427832D01*
X28225537Y-123551082D01*
X27957748Y-123730013D01*
X27730013Y-123957748D01*
X27551082Y-124225537D01*
X27545091Y-124240000D01*
X23954909Y-124240000D01*
X23948918Y-124225537D01*
X23769987Y-123957748D01*
X23542252Y-123730013D01*
X23274463Y-123551082D01*
X22976912Y-123427832D01*
X22661033Y-123365000D01*
X22338967Y-123365000D01*
X22023088Y-123427832D01*
X21725537Y-123551082D01*
X21660000Y-123594872D01*
X21660000Y-118760107D01*
X21853368Y-118953475D01*
X22096589Y-119115990D01*
X22366842Y-119227932D01*
X22653740Y-119285000D01*
X22946260Y-119285000D01*
X23233158Y-119227932D01*
X23503411Y-119115990D01*
X23746632Y-118953475D01*
X23953475Y-118746632D01*
X24070000Y-118572240D01*
X24186525Y-118746632D01*
G37*
X24186525Y-118746632D02*
X24393368Y-118953475D01*
X24636589Y-119115990D01*
X24906842Y-119227932D01*
X25193740Y-119285000D01*
X25486260Y-119285000D01*
X25773158Y-119227932D01*
X26043411Y-119115990D01*
X26250690Y-118977491D01*
X28124001Y-120850803D01*
X28147799Y-120879801D01*
X28176797Y-120903599D01*
X28263523Y-120974774D01*
X28343227Y-121017377D01*
X28395553Y-121045346D01*
X28538814Y-121088803D01*
X28650467Y-121099800D01*
X28650477Y-121099800D01*
X28687800Y-121103476D01*
X28725123Y-121099800D01*
X42794198Y-121099800D01*
X40661399Y-123232600D01*
X30044725Y-123232600D01*
X30007400Y-123228924D01*
X29970075Y-123232600D01*
X29970067Y-123232600D01*
X29858414Y-123243597D01*
X29715153Y-123287054D01*
X29583124Y-123357626D01*
X29490646Y-123433521D01*
X29476912Y-123427832D01*
X29161033Y-123365000D01*
X28838967Y-123365000D01*
X28523088Y-123427832D01*
X28225537Y-123551082D01*
X27957748Y-123730013D01*
X27730013Y-123957748D01*
X27551082Y-124225537D01*
X27545091Y-124240000D01*
X23954909Y-124240000D01*
X23948918Y-124225537D01*
X23769987Y-123957748D01*
X23542252Y-123730013D01*
X23274463Y-123551082D01*
X22976912Y-123427832D01*
X22661033Y-123365000D01*
X22338967Y-123365000D01*
X22023088Y-123427832D01*
X21725537Y-123551082D01*
X21660000Y-123594872D01*
X21660000Y-118760107D01*
X21853368Y-118953475D01*
X22096589Y-119115990D01*
X22366842Y-119227932D01*
X22653740Y-119285000D01*
X22946260Y-119285000D01*
X23233158Y-119227932D01*
X23503411Y-119115990D01*
X23746632Y-118953475D01*
X23953475Y-118746632D01*
X24070000Y-118572240D01*
X24186525Y-118746632D01*
G36*
X27651082Y-86874463D02*
G01*
X27830013Y-87142252D01*
X28057748Y-87369987D01*
X28325537Y-87548918D01*
X28623088Y-87672168D01*
X28938967Y-87735000D01*
X29261033Y-87735000D01*
X29576912Y-87672168D01*
X29591375Y-87666177D01*
X30230800Y-88305602D01*
X30254599Y-88334601D01*
X30370324Y-88429574D01*
X30502353Y-88500146D01*
X30645614Y-88543603D01*
X30757267Y-88554600D01*
X30757276Y-88554600D01*
X30794599Y-88558276D01*
X30831922Y-88554600D01*
X31368536Y-88554600D01*
X31315000Y-88823740D01*
X31315000Y-89116260D01*
X31372068Y-89403158D01*
X31484010Y-89673411D01*
X31646525Y-89916632D01*
X31853368Y-90123475D01*
X32096589Y-90285990D01*
X32366842Y-90397932D01*
X32653740Y-90455000D01*
X32946260Y-90455000D01*
X33233158Y-90397932D01*
X33503411Y-90285990D01*
X33746632Y-90123475D01*
X33953475Y-89916632D01*
X34078178Y-89730000D01*
X45947999Y-89730000D01*
X47252644Y-91034645D01*
X47205063Y-91082226D01*
X47091795Y-91251744D01*
X47013774Y-91440102D01*
X46974000Y-91640061D01*
X46974000Y-91843939D01*
X47013774Y-92043898D01*
X47045356Y-92120142D01*
X44818855Y-94346644D01*
X44742574Y-94270363D01*
X44573056Y-94157095D01*
X44384698Y-94079074D01*
X44184739Y-94039300D01*
X43980861Y-94039300D01*
X43780902Y-94079074D01*
X43592544Y-94157095D01*
X43423026Y-94270363D01*
X43379089Y-94314300D01*
X42072943Y-94314300D01*
X42253456Y-94044144D01*
X42419623Y-93642981D01*
X42504334Y-93217108D01*
X42504334Y-92782892D01*
X42419623Y-92357019D01*
X42253456Y-91955856D01*
X42012218Y-91594819D01*
X41705181Y-91287782D01*
X41344144Y-91046544D01*
X40942981Y-90880377D01*
X40517108Y-90795666D01*
X40082892Y-90795666D01*
X39657019Y-90880377D01*
X39255856Y-91046544D01*
X38894819Y-91287782D01*
X38587782Y-91594819D01*
X38346544Y-91955856D01*
X38180377Y-92357019D01*
X38095666Y-92782892D01*
X38095666Y-93217108D01*
X38180377Y-93642981D01*
X38346544Y-94044144D01*
X38527057Y-94314300D01*
X34843035Y-94314300D01*
X34805702Y-94310623D01*
X34768369Y-94314300D01*
X34656716Y-94325297D01*
X34513455Y-94368754D01*
X34381426Y-94439326D01*
X34336493Y-94476201D01*
X34328586Y-94457111D01*
X34226262Y-94303972D01*
X34096028Y-94173738D01*
X33942889Y-94071414D01*
X33772729Y-94000932D01*
X33592089Y-93965000D01*
X33407911Y-93965000D01*
X33227271Y-94000932D01*
X33153985Y-94031288D01*
X33134974Y-93995722D01*
X33040001Y-93879997D01*
X33011002Y-93856199D01*
X32336705Y-93181902D01*
X32312903Y-93152899D01*
X32197178Y-93057926D01*
X32065149Y-92987354D01*
X31921888Y-92943897D01*
X31810235Y-92932900D01*
X31810224Y-92932900D01*
X31772902Y-92929224D01*
X31735580Y-92932900D01*
X31245911Y-92932900D01*
X31201974Y-92888963D01*
X31032456Y-92775695D01*
X30844098Y-92697674D01*
X30644139Y-92657900D01*
X30440261Y-92657900D01*
X30240302Y-92697674D01*
X30051944Y-92775695D01*
X29882426Y-92888963D01*
X29738263Y-93033126D01*
X29624995Y-93202644D01*
X29546974Y-93391002D01*
X29507200Y-93590961D01*
X29507200Y-93794839D01*
X29546974Y-93994798D01*
X29576053Y-94065000D01*
X29417760Y-94065000D01*
X29256440Y-94097089D01*
X29104479Y-94160033D01*
X28967719Y-94251413D01*
X28851413Y-94367719D01*
X28760033Y-94504479D01*
X28697089Y-94656440D01*
X28665000Y-94817760D01*
X28665000Y-94982240D01*
X28697089Y-95143560D01*
X28760033Y-95295521D01*
X28851413Y-95432281D01*
X28967719Y-95548587D01*
X29104479Y-95639967D01*
X29256440Y-95702911D01*
X29274028Y-95706409D01*
X29240700Y-95873961D01*
X29240700Y-96077839D01*
X29280474Y-96277798D01*
X29358495Y-96466156D01*
X29471763Y-96635674D01*
X29615926Y-96779837D01*
X29785444Y-96893105D01*
X29840088Y-96915739D01*
X29859999Y-96940001D01*
X29975724Y-97034974D01*
X30107753Y-97105546D01*
X30251014Y-97149003D01*
X30362667Y-97160000D01*
X30362675Y-97160000D01*
X30400000Y-97163676D01*
X30437325Y-97160000D01*
X35270343Y-97160000D01*
X35315391Y-97163522D01*
X35382113Y-97155589D01*
X35448986Y-97149003D01*
X35456381Y-97146760D01*
X35464051Y-97145848D01*
X35527919Y-97125059D01*
X35592247Y-97105546D01*
X35595712Y-97103694D01*
X35633226Y-97173876D01*
X35660782Y-97207453D01*
X35728199Y-97289601D01*
X35757202Y-97313403D01*
X36075200Y-97631402D01*
X36098999Y-97660401D01*
X36214724Y-97755374D01*
X36346753Y-97825946D01*
X36490014Y-97869403D01*
X36601667Y-97880400D01*
X36601676Y-97880400D01*
X36638999Y-97884076D01*
X36676322Y-97880400D01*
X41777701Y-97880400D01*
X41777700Y-107000378D01*
X41774024Y-107037700D01*
X41777700Y-107075022D01*
X41777700Y-107075032D01*
X41788697Y-107186685D01*
X41832154Y-107329946D01*
X41902726Y-107461976D01*
X41933113Y-107499002D01*
X41997699Y-107577701D01*
X42026702Y-107601503D01*
X42707615Y-108282417D01*
X42690000Y-108370976D01*
X42690000Y-108629024D01*
X42740342Y-108882113D01*
X42839093Y-109120518D01*
X42982456Y-109335077D01*
X43164923Y-109517544D01*
X43277191Y-109592559D01*
X43276205Y-109596600D01*
X43465754Y-109786149D01*
X43461928Y-109825000D01*
X43464446Y-110144051D01*
X43096600Y-109776205D01*
X42865379Y-109832630D01*
X42756983Y-110066808D01*
X42696355Y-110317633D01*
X42685826Y-110575465D01*
X42725800Y-110830398D01*
X42814741Y-111072633D01*
X42865379Y-111167370D01*
X43096600Y-111223795D01*
X43464446Y-110855949D01*
X43461928Y-111175000D01*
X43465754Y-111213851D01*
X43276205Y-111403400D01*
X43277191Y-111407441D01*
X43164923Y-111482456D01*
X42982456Y-111664923D01*
X42839093Y-111879482D01*
X42740342Y-112117887D01*
X42690000Y-112370976D01*
X42690000Y-112629024D01*
X42726462Y-112812335D01*
X40534799Y-115004000D01*
X39238622Y-115004000D01*
X39201299Y-115000324D01*
X39163977Y-115004000D01*
X39163967Y-115004000D01*
X39052314Y-115014997D01*
X38909567Y-115058298D01*
X38909053Y-115058454D01*
X38777023Y-115129026D01*
X38757530Y-115145024D01*
X38661299Y-115223999D01*
X38637501Y-115252997D01*
X36983807Y-116906692D01*
X36975812Y-116825518D01*
X36939502Y-116705820D01*
X36880537Y-116595506D01*
X36801185Y-116498815D01*
X36704494Y-116419463D01*
X36594180Y-116360498D01*
X36474482Y-116324188D01*
X36350000Y-116311928D01*
X35785750Y-116315000D01*
X35627000Y-116473750D01*
X35627000Y-117673000D01*
X35647000Y-117673000D01*
X35647000Y-117927000D01*
X35627000Y-117927000D01*
X35627000Y-117947000D01*
X35373000Y-117947000D01*
X35373000Y-117927000D01*
X33087000Y-117927000D01*
X33087000Y-117947000D01*
X32833000Y-117947000D01*
X32833000Y-117927000D01*
X32813000Y-117927000D01*
X32813000Y-117673000D01*
X32833000Y-117673000D01*
X32833000Y-116479845D01*
X33087000Y-116479845D01*
X33087000Y-117673000D01*
X35373000Y-117673000D01*
X35373000Y-116473750D01*
X35214250Y-116315000D01*
X34650000Y-116311928D01*
X34525518Y-116324188D01*
X34405820Y-116360498D01*
X34295506Y-116419463D01*
X34198815Y-116498815D01*
X34119463Y-116595506D01*
X34060498Y-116705820D01*
X34036034Y-116786466D01*
X33960269Y-116702412D01*
X33726920Y-116528359D01*
X33464099Y-116403175D01*
X33316890Y-116358524D01*
X33087000Y-116479845D01*
X32833000Y-116479845D01*
X32603110Y-116358524D01*
X32455901Y-116403175D01*
X32193080Y-116528359D01*
X31959731Y-116702412D01*
X31764822Y-116918645D01*
X31695195Y-117035534D01*
X31573475Y-116853368D01*
X31366632Y-116646525D01*
X31123411Y-116484010D01*
X30853158Y-116372068D01*
X30566260Y-116315000D01*
X30273740Y-116315000D01*
X29986842Y-116372068D01*
X29716589Y-116484010D01*
X29473368Y-116646525D01*
X29266525Y-116853368D01*
X29150000Y-117027760D01*
X29033475Y-116853368D01*
X28826632Y-116646525D01*
X28583411Y-116484010D01*
X28313158Y-116372068D01*
X28026260Y-116315000D01*
X27733740Y-116315000D01*
X27446842Y-116372068D01*
X27176589Y-116484010D01*
X26933368Y-116646525D01*
X26726525Y-116853368D01*
X26610000Y-117027760D01*
X26493475Y-116853368D01*
X26286632Y-116646525D01*
X26043411Y-116484010D01*
X25773158Y-116372068D01*
X25486260Y-116315000D01*
X25193740Y-116315000D01*
X24906842Y-116372068D01*
X24636589Y-116484010D01*
X24393368Y-116646525D01*
X24186525Y-116853368D01*
X24070000Y-117027760D01*
X23953475Y-116853368D01*
X23746632Y-116646525D01*
X23503411Y-116484010D01*
X23233158Y-116372068D01*
X22946260Y-116315000D01*
X22653740Y-116315000D01*
X22366842Y-116372068D01*
X22096589Y-116484010D01*
X21853368Y-116646525D01*
X21660000Y-116839893D01*
X21660000Y-112420000D01*
X23732419Y-112420000D01*
X23760189Y-112417265D01*
X23761910Y-112417277D01*
X23771082Y-112416378D01*
X23799201Y-112413423D01*
X23829383Y-112410450D01*
X23831491Y-112409810D01*
X23887940Y-112398223D01*
X23946670Y-112387020D01*
X23955486Y-112384358D01*
X23955490Y-112384357D01*
X23955493Y-112384356D01*
X24011424Y-112367042D01*
X24066551Y-112343869D01*
X24122034Y-112321452D01*
X24130171Y-112317125D01*
X24181674Y-112289277D01*
X24231234Y-112255847D01*
X24281319Y-112223073D01*
X24288460Y-112217248D01*
X24333572Y-112179927D01*
X24375713Y-112137491D01*
X24418462Y-112095628D01*
X24424336Y-112088527D01*
X24461341Y-112043154D01*
X24494433Y-111993346D01*
X24528235Y-111943981D01*
X24532618Y-111935875D01*
X24560106Y-111884179D01*
X24582894Y-111828893D01*
X24606470Y-111773887D01*
X24609194Y-111765084D01*
X24626117Y-111709033D01*
X24637731Y-111650380D01*
X24650175Y-111591835D01*
X24650423Y-111589471D01*
X24650450Y-111589383D01*
X24650710Y-111586746D01*
X24651138Y-111582670D01*
X24656851Y-111524400D01*
X24656851Y-111524392D01*
X24660000Y-111492419D01*
X24660000Y-108021758D01*
X24681946Y-108075004D01*
X24686329Y-108083110D01*
X24761546Y-108219930D01*
X24795324Y-108269261D01*
X24828446Y-108319114D01*
X24834320Y-108326215D01*
X24934680Y-108445819D01*
X24977430Y-108487682D01*
X25019570Y-108530118D01*
X25026711Y-108535942D01*
X25148391Y-108633774D01*
X25198421Y-108666512D01*
X25248037Y-108699979D01*
X25256174Y-108704305D01*
X25394539Y-108776641D01*
X25449974Y-108799038D01*
X25505146Y-108822231D01*
X25513968Y-108824894D01*
X25663749Y-108868977D01*
X25722468Y-108880178D01*
X25781105Y-108892215D01*
X25790276Y-108893114D01*
X25945767Y-108907265D01*
X26005586Y-108906847D01*
X26065406Y-108907265D01*
X26074577Y-108906365D01*
X26229853Y-108890044D01*
X26288405Y-108878025D01*
X26347205Y-108866808D01*
X26356027Y-108864144D01*
X26505177Y-108817976D01*
X26560315Y-108794798D01*
X26615789Y-108772385D01*
X26623918Y-108768062D01*
X26623922Y-108768060D01*
X26623925Y-108768058D01*
X26761267Y-108693797D01*
X26810816Y-108660375D01*
X26860912Y-108627594D01*
X26868053Y-108621769D01*
X26988356Y-108522247D01*
X27030517Y-108479791D01*
X27073247Y-108437946D01*
X27079121Y-108430846D01*
X27177801Y-108309852D01*
X27210911Y-108260017D01*
X27244699Y-108210671D01*
X27249082Y-108202565D01*
X27322382Y-108064707D01*
X27345163Y-108009436D01*
X27368744Y-107954419D01*
X27371467Y-107945620D01*
X27371469Y-107945614D01*
X27416595Y-107796146D01*
X27428211Y-107737481D01*
X27440651Y-107678957D01*
X27441614Y-107669792D01*
X27456850Y-107514406D01*
X27456850Y-107514402D01*
X27460000Y-107482419D01*
X27460000Y-101517581D01*
X27456772Y-101484806D01*
X27456772Y-101474425D01*
X27455809Y-101465260D01*
X27438405Y-101310101D01*
X27425969Y-101251598D01*
X27414349Y-101192910D01*
X27411624Y-101184107D01*
X27364414Y-101035282D01*
X27340847Y-100980297D01*
X27318054Y-100924996D01*
X27313671Y-100916890D01*
X27238454Y-100780070D01*
X27204678Y-100730741D01*
X27171554Y-100680885D01*
X27165680Y-100673785D01*
X27065320Y-100554181D01*
X27022587Y-100512334D01*
X26980430Y-100469882D01*
X26973289Y-100464058D01*
X26851609Y-100366225D01*
X26801556Y-100333472D01*
X26751963Y-100300020D01*
X26743826Y-100295694D01*
X26605460Y-100223359D01*
X26550018Y-100200959D01*
X26494854Y-100177770D01*
X26486032Y-100175106D01*
X26336252Y-100131023D01*
X26277525Y-100119820D01*
X26218895Y-100107785D01*
X26209724Y-100106886D01*
X26054234Y-100092735D01*
X25994414Y-100093153D01*
X25934594Y-100092735D01*
X25925423Y-100093635D01*
X25770146Y-100109956D01*
X25711581Y-100121978D01*
X25652795Y-100133192D01*
X25643973Y-100135856D01*
X25494823Y-100182025D01*
X25439717Y-100205189D01*
X25384211Y-100227615D01*
X25376082Y-100231938D01*
X25376078Y-100231940D01*
X25376075Y-100231942D01*
X25238733Y-100306203D01*
X25189161Y-100339640D01*
X25139088Y-100372406D01*
X25131947Y-100378231D01*
X25011644Y-100477754D01*
X24969486Y-100520207D01*
X24926753Y-100562054D01*
X24920884Y-100569149D01*
X24920880Y-100569153D01*
X24920879Y-100569155D01*
X24822199Y-100690148D01*
X24789074Y-100740006D01*
X24755301Y-100789329D01*
X24750918Y-100797435D01*
X24677618Y-100935292D01*
X24654836Y-100990565D01*
X24631256Y-101045581D01*
X24628533Y-101054380D01*
X24628533Y-101054382D01*
X24628532Y-101054384D01*
X24583405Y-101203853D01*
X24571788Y-101262526D01*
X24559349Y-101321043D01*
X24558386Y-101330208D01*
X24546604Y-101450371D01*
X24529277Y-101418326D01*
X24495814Y-101368716D01*
X24463072Y-101318681D01*
X24457248Y-101311540D01*
X24419927Y-101266427D01*
X24377472Y-101224268D01*
X24335628Y-101181538D01*
X24328527Y-101175664D01*
X24283154Y-101138659D01*
X24233346Y-101105567D01*
X24183981Y-101071765D01*
X24175875Y-101067382D01*
X24124179Y-101039894D01*
X24068881Y-101017101D01*
X24013887Y-100993530D01*
X24005094Y-100990809D01*
X24005089Y-100990807D01*
X24005084Y-100990806D01*
X23949033Y-100973883D01*
X23890366Y-100962266D01*
X23831834Y-100949825D01*
X23829471Y-100949577D01*
X23829383Y-100949550D01*
X23826739Y-100949290D01*
X23822670Y-100948862D01*
X23764400Y-100943149D01*
X23764392Y-100943149D01*
X23732419Y-100940000D01*
X21660000Y-100940000D01*
X21660000Y-94817760D01*
X22665000Y-94817760D01*
X22665000Y-94982240D01*
X22697089Y-95143560D01*
X22760033Y-95295521D01*
X22851413Y-95432281D01*
X22967719Y-95548587D01*
X23104479Y-95639967D01*
X23256440Y-95702911D01*
X23417760Y-95735000D01*
X23582240Y-95735000D01*
X23743560Y-95702911D01*
X23895521Y-95639967D01*
X24032281Y-95548587D01*
X24148587Y-95432281D01*
X24239967Y-95295521D01*
X24302911Y-95143560D01*
X24335000Y-94982240D01*
X24335000Y-94817760D01*
X24333041Y-94807911D01*
X24565000Y-94807911D01*
X24565000Y-94992089D01*
X24600932Y-95172729D01*
X24671414Y-95342889D01*
X24773738Y-95496028D01*
X24903972Y-95626262D01*
X25057111Y-95728586D01*
X25227271Y-95799068D01*
X25407911Y-95835000D01*
X25592089Y-95835000D01*
X25772729Y-95799068D01*
X25942889Y-95728586D01*
X26096028Y-95626262D01*
X26226262Y-95496028D01*
X26328586Y-95342889D01*
X26399068Y-95172729D01*
X26435000Y-94992089D01*
X26435000Y-94817760D01*
X26665000Y-94817760D01*
X26665000Y-94982240D01*
X26697089Y-95143560D01*
X26760033Y-95295521D01*
X26851413Y-95432281D01*
X26967719Y-95548587D01*
X27104479Y-95639967D01*
X27256440Y-95702911D01*
X27417760Y-95735000D01*
X27582240Y-95735000D01*
X27743560Y-95702911D01*
X27895521Y-95639967D01*
X28032281Y-95548587D01*
X28148587Y-95432281D01*
X28239967Y-95295521D01*
X28302911Y-95143560D01*
X28335000Y-94982240D01*
X28335000Y-94817760D01*
X28302911Y-94656440D01*
X28239967Y-94504479D01*
X28148587Y-94367719D01*
X28032281Y-94251413D01*
X27895521Y-94160033D01*
X27743560Y-94097089D01*
X27582240Y-94065000D01*
X27417760Y-94065000D01*
X27256440Y-94097089D01*
X27104479Y-94160033D01*
X26967719Y-94251413D01*
X26851413Y-94367719D01*
X26760033Y-94504479D01*
X26697089Y-94656440D01*
X26665000Y-94817760D01*
X26435000Y-94817760D01*
X26435000Y-94807911D01*
X26399068Y-94627271D01*
X26328586Y-94457111D01*
X26226262Y-94303972D01*
X26096028Y-94173738D01*
X25942889Y-94071414D01*
X25772729Y-94000932D01*
X25592089Y-93965000D01*
X25407911Y-93965000D01*
X25227271Y-94000932D01*
X25057111Y-94071414D01*
X24903972Y-94173738D01*
X24773738Y-94303972D01*
X24671414Y-94457111D01*
X24600932Y-94627271D01*
X24565000Y-94807911D01*
X24333041Y-94807911D01*
X24302911Y-94656440D01*
X24239967Y-94504479D01*
X24148587Y-94367719D01*
X24032281Y-94251413D01*
X23895521Y-94160033D01*
X23743560Y-94097089D01*
X23582240Y-94065000D01*
X23417760Y-94065000D01*
X23256440Y-94097089D01*
X23104479Y-94160033D01*
X22967719Y-94251413D01*
X22851413Y-94367719D01*
X22760033Y-94504479D01*
X22697089Y-94656440D01*
X22665000Y-94817760D01*
X21660000Y-94817760D01*
X21660000Y-89650000D01*
X23111928Y-89650000D01*
X23111928Y-91350000D01*
X23124188Y-91474482D01*
X23160498Y-91594180D01*
X23219463Y-91704494D01*
X23298815Y-91801185D01*
X23395506Y-91880537D01*
X23505820Y-91939502D01*
X23625518Y-91975812D01*
X23750000Y-91988072D01*
X25450000Y-91988072D01*
X25574482Y-91975812D01*
X25694180Y-91939502D01*
X25804494Y-91880537D01*
X25901185Y-91801185D01*
X25980537Y-91704494D01*
X26039502Y-91594180D01*
X26063966Y-91513534D01*
X26139731Y-91597588D01*
X26373080Y-91771641D01*
X26635901Y-91896825D01*
X26783110Y-91941476D01*
X27013000Y-91820155D01*
X27013000Y-90627000D01*
X27267000Y-90627000D01*
X27267000Y-91820155D01*
X27496890Y-91941476D01*
X27644099Y-91896825D01*
X27906920Y-91771641D01*
X28140269Y-91597588D01*
X28335178Y-91381355D01*
X28484157Y-91131252D01*
X28581481Y-90856891D01*
X28460814Y-90627000D01*
X27267000Y-90627000D01*
X27013000Y-90627000D01*
X26993000Y-90627000D01*
X26993000Y-90373000D01*
X27013000Y-90373000D01*
X27013000Y-89179845D01*
X27267000Y-89179845D01*
X27267000Y-90373000D01*
X28460814Y-90373000D01*
X28581481Y-90143109D01*
X28484157Y-89868748D01*
X28335178Y-89618645D01*
X28140269Y-89402412D01*
X27906920Y-89228359D01*
X27644099Y-89103175D01*
X27496890Y-89058524D01*
X27267000Y-89179845D01*
X27013000Y-89179845D01*
X26783110Y-89058524D01*
X26635901Y-89103175D01*
X26373080Y-89228359D01*
X26139731Y-89402412D01*
X26063966Y-89486466D01*
X26039502Y-89405820D01*
X25980537Y-89295506D01*
X25901185Y-89198815D01*
X25804494Y-89119463D01*
X25694180Y-89060498D01*
X25574482Y-89024188D01*
X25450000Y-89011928D01*
X23750000Y-89011928D01*
X23625518Y-89024188D01*
X23505820Y-89060498D01*
X23395506Y-89119463D01*
X23298815Y-89198815D01*
X23219463Y-89295506D01*
X23160498Y-89405820D01*
X23124188Y-89525518D01*
X23111928Y-89650000D01*
X21660000Y-89650000D01*
X21660000Y-87438310D01*
X21825537Y-87548918D01*
X22123088Y-87672168D01*
X22438967Y-87735000D01*
X22761033Y-87735000D01*
X23076912Y-87672168D01*
X23374463Y-87548918D01*
X23642252Y-87369987D01*
X23869987Y-87142252D01*
X24048918Y-86874463D01*
X24054909Y-86860000D01*
X27645091Y-86860000D01*
X27651082Y-86874463D01*
G37*
X27651082Y-86874463D02*
X27830013Y-87142252D01*
X28057748Y-87369987D01*
X28325537Y-87548918D01*
X28623088Y-87672168D01*
X28938967Y-87735000D01*
X29261033Y-87735000D01*
X29576912Y-87672168D01*
X29591375Y-87666177D01*
X30230800Y-88305602D01*
X30254599Y-88334601D01*
X30370324Y-88429574D01*
X30502353Y-88500146D01*
X30645614Y-88543603D01*
X30757267Y-88554600D01*
X30757276Y-88554600D01*
X30794599Y-88558276D01*
X30831922Y-88554600D01*
X31368536Y-88554600D01*
X31315000Y-88823740D01*
X31315000Y-89116260D01*
X31372068Y-89403158D01*
X31484010Y-89673411D01*
X31646525Y-89916632D01*
X31853368Y-90123475D01*
X32096589Y-90285990D01*
X32366842Y-90397932D01*
X32653740Y-90455000D01*
X32946260Y-90455000D01*
X33233158Y-90397932D01*
X33503411Y-90285990D01*
X33746632Y-90123475D01*
X33953475Y-89916632D01*
X34078178Y-89730000D01*
X45947999Y-89730000D01*
X47252644Y-91034645D01*
X47205063Y-91082226D01*
X47091795Y-91251744D01*
X47013774Y-91440102D01*
X46974000Y-91640061D01*
X46974000Y-91843939D01*
X47013774Y-92043898D01*
X47045356Y-92120142D01*
X44818855Y-94346644D01*
X44742574Y-94270363D01*
X44573056Y-94157095D01*
X44384698Y-94079074D01*
X44184739Y-94039300D01*
X43980861Y-94039300D01*
X43780902Y-94079074D01*
X43592544Y-94157095D01*
X43423026Y-94270363D01*
X43379089Y-94314300D01*
X42072943Y-94314300D01*
X42253456Y-94044144D01*
X42419623Y-93642981D01*
X42504334Y-93217108D01*
X42504334Y-92782892D01*
X42419623Y-92357019D01*
X42253456Y-91955856D01*
X42012218Y-91594819D01*
X41705181Y-91287782D01*
X41344144Y-91046544D01*
X40942981Y-90880377D01*
X40517108Y-90795666D01*
X40082892Y-90795666D01*
X39657019Y-90880377D01*
X39255856Y-91046544D01*
X38894819Y-91287782D01*
X38587782Y-91594819D01*
X38346544Y-91955856D01*
X38180377Y-92357019D01*
X38095666Y-92782892D01*
X38095666Y-93217108D01*
X38180377Y-93642981D01*
X38346544Y-94044144D01*
X38527057Y-94314300D01*
X34843035Y-94314300D01*
X34805702Y-94310623D01*
X34768369Y-94314300D01*
X34656716Y-94325297D01*
X34513455Y-94368754D01*
X34381426Y-94439326D01*
X34336493Y-94476201D01*
X34328586Y-94457111D01*
X34226262Y-94303972D01*
X34096028Y-94173738D01*
X33942889Y-94071414D01*
X33772729Y-94000932D01*
X33592089Y-93965000D01*
X33407911Y-93965000D01*
X33227271Y-94000932D01*
X33153985Y-94031288D01*
X33134974Y-93995722D01*
X33040001Y-93879997D01*
X33011002Y-93856199D01*
X32336705Y-93181902D01*
X32312903Y-93152899D01*
X32197178Y-93057926D01*
X32065149Y-92987354D01*
X31921888Y-92943897D01*
X31810235Y-92932900D01*
X31810224Y-92932900D01*
X31772902Y-92929224D01*
X31735580Y-92932900D01*
X31245911Y-92932900D01*
X31201974Y-92888963D01*
X31032456Y-92775695D01*
X30844098Y-92697674D01*
X30644139Y-92657900D01*
X30440261Y-92657900D01*
X30240302Y-92697674D01*
X30051944Y-92775695D01*
X29882426Y-92888963D01*
X29738263Y-93033126D01*
X29624995Y-93202644D01*
X29546974Y-93391002D01*
X29507200Y-93590961D01*
X29507200Y-93794839D01*
X29546974Y-93994798D01*
X29576053Y-94065000D01*
X29417760Y-94065000D01*
X29256440Y-94097089D01*
X29104479Y-94160033D01*
X28967719Y-94251413D01*
X28851413Y-94367719D01*
X28760033Y-94504479D01*
X28697089Y-94656440D01*
X28665000Y-94817760D01*
X28665000Y-94982240D01*
X28697089Y-95143560D01*
X28760033Y-95295521D01*
X28851413Y-95432281D01*
X28967719Y-95548587D01*
X29104479Y-95639967D01*
X29256440Y-95702911D01*
X29274028Y-95706409D01*
X29240700Y-95873961D01*
X29240700Y-96077839D01*
X29280474Y-96277798D01*
X29358495Y-96466156D01*
X29471763Y-96635674D01*
X29615926Y-96779837D01*
X29785444Y-96893105D01*
X29840088Y-96915739D01*
X29859999Y-96940001D01*
X29975724Y-97034974D01*
X30107753Y-97105546D01*
X30251014Y-97149003D01*
X30362667Y-97160000D01*
X30362675Y-97160000D01*
X30400000Y-97163676D01*
X30437325Y-97160000D01*
X35270343Y-97160000D01*
X35315391Y-97163522D01*
X35382113Y-97155589D01*
X35448986Y-97149003D01*
X35456381Y-97146760D01*
X35464051Y-97145848D01*
X35527919Y-97125059D01*
X35592247Y-97105546D01*
X35595712Y-97103694D01*
X35633226Y-97173876D01*
X35660782Y-97207453D01*
X35728199Y-97289601D01*
X35757202Y-97313403D01*
X36075200Y-97631402D01*
X36098999Y-97660401D01*
X36214724Y-97755374D01*
X36346753Y-97825946D01*
X36490014Y-97869403D01*
X36601667Y-97880400D01*
X36601676Y-97880400D01*
X36638999Y-97884076D01*
X36676322Y-97880400D01*
X41777701Y-97880400D01*
X41777700Y-107000378D01*
X41774024Y-107037700D01*
X41777700Y-107075022D01*
X41777700Y-107075032D01*
X41788697Y-107186685D01*
X41832154Y-107329946D01*
X41902726Y-107461976D01*
X41933113Y-107499002D01*
X41997699Y-107577701D01*
X42026702Y-107601503D01*
X42707615Y-108282417D01*
X42690000Y-108370976D01*
X42690000Y-108629024D01*
X42740342Y-108882113D01*
X42839093Y-109120518D01*
X42982456Y-109335077D01*
X43164923Y-109517544D01*
X43277191Y-109592559D01*
X43276205Y-109596600D01*
X43465754Y-109786149D01*
X43461928Y-109825000D01*
X43464446Y-110144051D01*
X43096600Y-109776205D01*
X42865379Y-109832630D01*
X42756983Y-110066808D01*
X42696355Y-110317633D01*
X42685826Y-110575465D01*
X42725800Y-110830398D01*
X42814741Y-111072633D01*
X42865379Y-111167370D01*
X43096600Y-111223795D01*
X43464446Y-110855949D01*
X43461928Y-111175000D01*
X43465754Y-111213851D01*
X43276205Y-111403400D01*
X43277191Y-111407441D01*
X43164923Y-111482456D01*
X42982456Y-111664923D01*
X42839093Y-111879482D01*
X42740342Y-112117887D01*
X42690000Y-112370976D01*
X42690000Y-112629024D01*
X42726462Y-112812335D01*
X40534799Y-115004000D01*
X39238622Y-115004000D01*
X39201299Y-115000324D01*
X39163977Y-115004000D01*
X39163967Y-115004000D01*
X39052314Y-115014997D01*
X38909567Y-115058298D01*
X38909053Y-115058454D01*
X38777023Y-115129026D01*
X38757530Y-115145024D01*
X38661299Y-115223999D01*
X38637501Y-115252997D01*
X36983807Y-116906692D01*
X36975812Y-116825518D01*
X36939502Y-116705820D01*
X36880537Y-116595506D01*
X36801185Y-116498815D01*
X36704494Y-116419463D01*
X36594180Y-116360498D01*
X36474482Y-116324188D01*
X36350000Y-116311928D01*
X35785750Y-116315000D01*
X35627000Y-116473750D01*
X35627000Y-117673000D01*
X35647000Y-117673000D01*
X35647000Y-117927000D01*
X35627000Y-117927000D01*
X35627000Y-117947000D01*
X35373000Y-117947000D01*
X35373000Y-117927000D01*
X33087000Y-117927000D01*
X33087000Y-117947000D01*
X32833000Y-117947000D01*
X32833000Y-117927000D01*
X32813000Y-117927000D01*
X32813000Y-117673000D01*
X32833000Y-117673000D01*
X32833000Y-116479845D01*
X33087000Y-116479845D01*
X33087000Y-117673000D01*
X35373000Y-117673000D01*
X35373000Y-116473750D01*
X35214250Y-116315000D01*
X34650000Y-116311928D01*
X34525518Y-116324188D01*
X34405820Y-116360498D01*
X34295506Y-116419463D01*
X34198815Y-116498815D01*
X34119463Y-116595506D01*
X34060498Y-116705820D01*
X34036034Y-116786466D01*
X33960269Y-116702412D01*
X33726920Y-116528359D01*
X33464099Y-116403175D01*
X33316890Y-116358524D01*
X33087000Y-116479845D01*
X32833000Y-116479845D01*
X32603110Y-116358524D01*
X32455901Y-116403175D01*
X32193080Y-116528359D01*
X31959731Y-116702412D01*
X31764822Y-116918645D01*
X31695195Y-117035534D01*
X31573475Y-116853368D01*
X31366632Y-116646525D01*
X31123411Y-116484010D01*
X30853158Y-116372068D01*
X30566260Y-116315000D01*
X30273740Y-116315000D01*
X29986842Y-116372068D01*
X29716589Y-116484010D01*
X29473368Y-116646525D01*
X29266525Y-116853368D01*
X29150000Y-117027760D01*
X29033475Y-116853368D01*
X28826632Y-116646525D01*
X28583411Y-116484010D01*
X28313158Y-116372068D01*
X28026260Y-116315000D01*
X27733740Y-116315000D01*
X27446842Y-116372068D01*
X27176589Y-116484010D01*
X26933368Y-116646525D01*
X26726525Y-116853368D01*
X26610000Y-117027760D01*
X26493475Y-116853368D01*
X26286632Y-116646525D01*
X26043411Y-116484010D01*
X25773158Y-116372068D01*
X25486260Y-116315000D01*
X25193740Y-116315000D01*
X24906842Y-116372068D01*
X24636589Y-116484010D01*
X24393368Y-116646525D01*
X24186525Y-116853368D01*
X24070000Y-117027760D01*
X23953475Y-116853368D01*
X23746632Y-116646525D01*
X23503411Y-116484010D01*
X23233158Y-116372068D01*
X22946260Y-116315000D01*
X22653740Y-116315000D01*
X22366842Y-116372068D01*
X22096589Y-116484010D01*
X21853368Y-116646525D01*
X21660000Y-116839893D01*
X21660000Y-112420000D01*
X23732419Y-112420000D01*
X23760189Y-112417265D01*
X23761910Y-112417277D01*
X23771082Y-112416378D01*
X23799201Y-112413423D01*
X23829383Y-112410450D01*
X23831491Y-112409810D01*
X23887940Y-112398223D01*
X23946670Y-112387020D01*
X23955486Y-112384358D01*
X23955490Y-112384357D01*
X23955493Y-112384356D01*
X24011424Y-112367042D01*
X24066551Y-112343869D01*
X24122034Y-112321452D01*
X24130171Y-112317125D01*
X24181674Y-112289277D01*
X24231234Y-112255847D01*
X24281319Y-112223073D01*
X24288460Y-112217248D01*
X24333572Y-112179927D01*
X24375713Y-112137491D01*
X24418462Y-112095628D01*
X24424336Y-112088527D01*
X24461341Y-112043154D01*
X24494433Y-111993346D01*
X24528235Y-111943981D01*
X24532618Y-111935875D01*
X24560106Y-111884179D01*
X24582894Y-111828893D01*
X24606470Y-111773887D01*
X24609194Y-111765084D01*
X24626117Y-111709033D01*
X24637731Y-111650380D01*
X24650175Y-111591835D01*
X24650423Y-111589471D01*
X24650450Y-111589383D01*
X24650710Y-111586746D01*
X24651138Y-111582670D01*
X24656851Y-111524400D01*
X24656851Y-111524392D01*
X24660000Y-111492419D01*
X24660000Y-108021758D01*
X24681946Y-108075004D01*
X24686329Y-108083110D01*
X24761546Y-108219930D01*
X24795324Y-108269261D01*
X24828446Y-108319114D01*
X24834320Y-108326215D01*
X24934680Y-108445819D01*
X24977430Y-108487682D01*
X25019570Y-108530118D01*
X25026711Y-108535942D01*
X25148391Y-108633774D01*
X25198421Y-108666512D01*
X25248037Y-108699979D01*
X25256174Y-108704305D01*
X25394539Y-108776641D01*
X25449974Y-108799038D01*
X25505146Y-108822231D01*
X25513968Y-108824894D01*
X25663749Y-108868977D01*
X25722468Y-108880178D01*
X25781105Y-108892215D01*
X25790276Y-108893114D01*
X25945767Y-108907265D01*
X26005586Y-108906847D01*
X26065406Y-108907265D01*
X26074577Y-108906365D01*
X26229853Y-108890044D01*
X26288405Y-108878025D01*
X26347205Y-108866808D01*
X26356027Y-108864144D01*
X26505177Y-108817976D01*
X26560315Y-108794798D01*
X26615789Y-108772385D01*
X26623918Y-108768062D01*
X26623922Y-108768060D01*
X26623925Y-108768058D01*
X26761267Y-108693797D01*
X26810816Y-108660375D01*
X26860912Y-108627594D01*
X26868053Y-108621769D01*
X26988356Y-108522247D01*
X27030517Y-108479791D01*
X27073247Y-108437946D01*
X27079121Y-108430846D01*
X27177801Y-108309852D01*
X27210911Y-108260017D01*
X27244699Y-108210671D01*
X27249082Y-108202565D01*
X27322382Y-108064707D01*
X27345163Y-108009436D01*
X27368744Y-107954419D01*
X27371467Y-107945620D01*
X27371469Y-107945614D01*
X27416595Y-107796146D01*
X27428211Y-107737481D01*
X27440651Y-107678957D01*
X27441614Y-107669792D01*
X27456850Y-107514406D01*
X27456850Y-107514402D01*
X27460000Y-107482419D01*
X27460000Y-101517581D01*
X27456772Y-101484806D01*
X27456772Y-101474425D01*
X27455809Y-101465260D01*
X27438405Y-101310101D01*
X27425969Y-101251598D01*
X27414349Y-101192910D01*
X27411624Y-101184107D01*
X27364414Y-101035282D01*
X27340847Y-100980297D01*
X27318054Y-100924996D01*
X27313671Y-100916890D01*
X27238454Y-100780070D01*
X27204678Y-100730741D01*
X27171554Y-100680885D01*
X27165680Y-100673785D01*
X27065320Y-100554181D01*
X27022587Y-100512334D01*
X26980430Y-100469882D01*
X26973289Y-100464058D01*
X26851609Y-100366225D01*
X26801556Y-100333472D01*
X26751963Y-100300020D01*
X26743826Y-100295694D01*
X26605460Y-100223359D01*
X26550018Y-100200959D01*
X26494854Y-100177770D01*
X26486032Y-100175106D01*
X26336252Y-100131023D01*
X26277525Y-100119820D01*
X26218895Y-100107785D01*
X26209724Y-100106886D01*
X26054234Y-100092735D01*
X25994414Y-100093153D01*
X25934594Y-100092735D01*
X25925423Y-100093635D01*
X25770146Y-100109956D01*
X25711581Y-100121978D01*
X25652795Y-100133192D01*
X25643973Y-100135856D01*
X25494823Y-100182025D01*
X25439717Y-100205189D01*
X25384211Y-100227615D01*
X25376082Y-100231938D01*
X25376078Y-100231940D01*
X25376075Y-100231942D01*
X25238733Y-100306203D01*
X25189161Y-100339640D01*
X25139088Y-100372406D01*
X25131947Y-100378231D01*
X25011644Y-100477754D01*
X24969486Y-100520207D01*
X24926753Y-100562054D01*
X24920884Y-100569149D01*
X24920880Y-100569153D01*
X24920879Y-100569155D01*
X24822199Y-100690148D01*
X24789074Y-100740006D01*
X24755301Y-100789329D01*
X24750918Y-100797435D01*
X24677618Y-100935292D01*
X24654836Y-100990565D01*
X24631256Y-101045581D01*
X24628533Y-101054380D01*
X24628533Y-101054382D01*
X24628532Y-101054384D01*
X24583405Y-101203853D01*
X24571788Y-101262526D01*
X24559349Y-101321043D01*
X24558386Y-101330208D01*
X24546604Y-101450371D01*
X24529277Y-101418326D01*
X24495814Y-101368716D01*
X24463072Y-101318681D01*
X24457248Y-101311540D01*
X24419927Y-101266427D01*
X24377472Y-101224268D01*
X24335628Y-101181538D01*
X24328527Y-101175664D01*
X24283154Y-101138659D01*
X24233346Y-101105567D01*
X24183981Y-101071765D01*
X24175875Y-101067382D01*
X24124179Y-101039894D01*
X24068881Y-101017101D01*
X24013887Y-100993530D01*
X24005094Y-100990809D01*
X24005089Y-100990807D01*
X24005084Y-100990806D01*
X23949033Y-100973883D01*
X23890366Y-100962266D01*
X23831834Y-100949825D01*
X23829471Y-100949577D01*
X23829383Y-100949550D01*
X23826739Y-100949290D01*
X23822670Y-100948862D01*
X23764400Y-100943149D01*
X23764392Y-100943149D01*
X23732419Y-100940000D01*
X21660000Y-100940000D01*
X21660000Y-94817760D01*
X22665000Y-94817760D01*
X22665000Y-94982240D01*
X22697089Y-95143560D01*
X22760033Y-95295521D01*
X22851413Y-95432281D01*
X22967719Y-95548587D01*
X23104479Y-95639967D01*
X23256440Y-95702911D01*
X23417760Y-95735000D01*
X23582240Y-95735000D01*
X23743560Y-95702911D01*
X23895521Y-95639967D01*
X24032281Y-95548587D01*
X24148587Y-95432281D01*
X24239967Y-95295521D01*
X24302911Y-95143560D01*
X24335000Y-94982240D01*
X24335000Y-94817760D01*
X24333041Y-94807911D01*
X24565000Y-94807911D01*
X24565000Y-94992089D01*
X24600932Y-95172729D01*
X24671414Y-95342889D01*
X24773738Y-95496028D01*
X24903972Y-95626262D01*
X25057111Y-95728586D01*
X25227271Y-95799068D01*
X25407911Y-95835000D01*
X25592089Y-95835000D01*
X25772729Y-95799068D01*
X25942889Y-95728586D01*
X26096028Y-95626262D01*
X26226262Y-95496028D01*
X26328586Y-95342889D01*
X26399068Y-95172729D01*
X26435000Y-94992089D01*
X26435000Y-94817760D01*
X26665000Y-94817760D01*
X26665000Y-94982240D01*
X26697089Y-95143560D01*
X26760033Y-95295521D01*
X26851413Y-95432281D01*
X26967719Y-95548587D01*
X27104479Y-95639967D01*
X27256440Y-95702911D01*
X27417760Y-95735000D01*
X27582240Y-95735000D01*
X27743560Y-95702911D01*
X27895521Y-95639967D01*
X28032281Y-95548587D01*
X28148587Y-95432281D01*
X28239967Y-95295521D01*
X28302911Y-95143560D01*
X28335000Y-94982240D01*
X28335000Y-94817760D01*
X28302911Y-94656440D01*
X28239967Y-94504479D01*
X28148587Y-94367719D01*
X28032281Y-94251413D01*
X27895521Y-94160033D01*
X27743560Y-94097089D01*
X27582240Y-94065000D01*
X27417760Y-94065000D01*
X27256440Y-94097089D01*
X27104479Y-94160033D01*
X26967719Y-94251413D01*
X26851413Y-94367719D01*
X26760033Y-94504479D01*
X26697089Y-94656440D01*
X26665000Y-94817760D01*
X26435000Y-94817760D01*
X26435000Y-94807911D01*
X26399068Y-94627271D01*
X26328586Y-94457111D01*
X26226262Y-94303972D01*
X26096028Y-94173738D01*
X25942889Y-94071414D01*
X25772729Y-94000932D01*
X25592089Y-93965000D01*
X25407911Y-93965000D01*
X25227271Y-94000932D01*
X25057111Y-94071414D01*
X24903972Y-94173738D01*
X24773738Y-94303972D01*
X24671414Y-94457111D01*
X24600932Y-94627271D01*
X24565000Y-94807911D01*
X24333041Y-94807911D01*
X24302911Y-94656440D01*
X24239967Y-94504479D01*
X24148587Y-94367719D01*
X24032281Y-94251413D01*
X23895521Y-94160033D01*
X23743560Y-94097089D01*
X23582240Y-94065000D01*
X23417760Y-94065000D01*
X23256440Y-94097089D01*
X23104479Y-94160033D01*
X22967719Y-94251413D01*
X22851413Y-94367719D01*
X22760033Y-94504479D01*
X22697089Y-94656440D01*
X22665000Y-94817760D01*
X21660000Y-94817760D01*
X21660000Y-89650000D01*
X23111928Y-89650000D01*
X23111928Y-91350000D01*
X23124188Y-91474482D01*
X23160498Y-91594180D01*
X23219463Y-91704494D01*
X23298815Y-91801185D01*
X23395506Y-91880537D01*
X23505820Y-91939502D01*
X23625518Y-91975812D01*
X23750000Y-91988072D01*
X25450000Y-91988072D01*
X25574482Y-91975812D01*
X25694180Y-91939502D01*
X25804494Y-91880537D01*
X25901185Y-91801185D01*
X25980537Y-91704494D01*
X26039502Y-91594180D01*
X26063966Y-91513534D01*
X26139731Y-91597588D01*
X26373080Y-91771641D01*
X26635901Y-91896825D01*
X26783110Y-91941476D01*
X27013000Y-91820155D01*
X27013000Y-90627000D01*
X27267000Y-90627000D01*
X27267000Y-91820155D01*
X27496890Y-91941476D01*
X27644099Y-91896825D01*
X27906920Y-91771641D01*
X28140269Y-91597588D01*
X28335178Y-91381355D01*
X28484157Y-91131252D01*
X28581481Y-90856891D01*
X28460814Y-90627000D01*
X27267000Y-90627000D01*
X27013000Y-90627000D01*
X26993000Y-90627000D01*
X26993000Y-90373000D01*
X27013000Y-90373000D01*
X27013000Y-89179845D01*
X27267000Y-89179845D01*
X27267000Y-90373000D01*
X28460814Y-90373000D01*
X28581481Y-90143109D01*
X28484157Y-89868748D01*
X28335178Y-89618645D01*
X28140269Y-89402412D01*
X27906920Y-89228359D01*
X27644099Y-89103175D01*
X27496890Y-89058524D01*
X27267000Y-89179845D01*
X27013000Y-89179845D01*
X26783110Y-89058524D01*
X26635901Y-89103175D01*
X26373080Y-89228359D01*
X26139731Y-89402412D01*
X26063966Y-89486466D01*
X26039502Y-89405820D01*
X25980537Y-89295506D01*
X25901185Y-89198815D01*
X25804494Y-89119463D01*
X25694180Y-89060498D01*
X25574482Y-89024188D01*
X25450000Y-89011928D01*
X23750000Y-89011928D01*
X23625518Y-89024188D01*
X23505820Y-89060498D01*
X23395506Y-89119463D01*
X23298815Y-89198815D01*
X23219463Y-89295506D01*
X23160498Y-89405820D01*
X23124188Y-89525518D01*
X23111928Y-89650000D01*
X21660000Y-89650000D01*
X21660000Y-87438310D01*
X21825537Y-87548918D01*
X22123088Y-87672168D01*
X22438967Y-87735000D01*
X22761033Y-87735000D01*
X23076912Y-87672168D01*
X23374463Y-87548918D01*
X23642252Y-87369987D01*
X23869987Y-87142252D01*
X24048918Y-86874463D01*
X24054909Y-86860000D01*
X27645091Y-86860000D01*
X27651082Y-86874463D01*
G36*
X67798100Y-102671500D02*
G01*
X67724761Y-102671500D01*
X67524802Y-102711274D01*
X67336444Y-102789295D01*
X67166926Y-102902563D01*
X67022763Y-103046726D01*
X66909495Y-103216244D01*
X66831474Y-103404602D01*
X66791700Y-103604561D01*
X66791700Y-103666699D01*
X66569798Y-103888601D01*
X66540800Y-103912399D01*
X66517002Y-103941397D01*
X66517001Y-103941398D01*
X66445826Y-104028124D01*
X66375254Y-104160154D01*
X66331798Y-104303415D01*
X66317124Y-104452400D01*
X66320801Y-104489732D01*
X66320800Y-108269677D01*
X66317124Y-108307000D01*
X66320800Y-108344322D01*
X66320800Y-108344332D01*
X66331797Y-108455985D01*
X66363299Y-108559835D01*
X66375254Y-108599246D01*
X66445826Y-108731276D01*
X66479506Y-108772315D01*
X66540799Y-108847001D01*
X66569802Y-108870803D01*
X66831401Y-109132402D01*
X66831401Y-111053000D01*
X63360000Y-111053000D01*
X63337085Y-111055084D01*
X63313156Y-111061955D01*
X63291026Y-111073362D01*
X63271548Y-111088867D01*
X63255468Y-111107875D01*
X63243406Y-111129654D01*
X63235824Y-111153367D01*
X63233014Y-111178105D01*
X63226524Y-111612956D01*
X62085750Y-111615000D01*
X61927000Y-111773750D01*
X61927000Y-113023000D01*
X61947000Y-113023000D01*
X61947000Y-113277000D01*
X61927000Y-113277000D01*
X61927000Y-114526250D01*
X62085750Y-114685000D01*
X62833459Y-114686340D01*
X62142505Y-115377294D01*
X62037774Y-115272563D01*
X61868256Y-115159295D01*
X61679898Y-115081274D01*
X61479939Y-115041500D01*
X61345402Y-115041500D01*
X60989841Y-114685940D01*
X61514250Y-114685000D01*
X61673000Y-114526250D01*
X61673000Y-113277000D01*
X61653000Y-113277000D01*
X61653000Y-113023000D01*
X61673000Y-113023000D01*
X61673000Y-111773750D01*
X61514250Y-111615000D01*
X60285300Y-111612798D01*
X60285300Y-110287333D01*
X60288977Y-110250000D01*
X60274303Y-110101014D01*
X60230846Y-109957753D01*
X60160274Y-109825724D01*
X60065301Y-109709999D01*
X59949576Y-109615026D01*
X59833438Y-109552948D01*
X59828223Y-109500000D01*
X59838072Y-109400000D01*
X59838072Y-109100000D01*
X59828223Y-109000000D01*
X59838072Y-108900000D01*
X59838072Y-108600000D01*
X59828223Y-108499999D01*
X59838072Y-108400000D01*
X59838072Y-108100000D01*
X59829208Y-108010000D01*
X60465278Y-108010000D01*
X60502600Y-108013676D01*
X60539922Y-108010000D01*
X60539933Y-108010000D01*
X60651586Y-107999003D01*
X60794847Y-107955546D01*
X60926876Y-107884974D01*
X61042601Y-107790001D01*
X61066404Y-107760997D01*
X67675604Y-101151798D01*
X67704601Y-101128001D01*
X67798100Y-101014072D01*
X67798100Y-102671500D01*
G37*
X67798100Y-102671500D02*
X67724761Y-102671500D01*
X67524802Y-102711274D01*
X67336444Y-102789295D01*
X67166926Y-102902563D01*
X67022763Y-103046726D01*
X66909495Y-103216244D01*
X66831474Y-103404602D01*
X66791700Y-103604561D01*
X66791700Y-103666699D01*
X66569798Y-103888601D01*
X66540800Y-103912399D01*
X66517002Y-103941397D01*
X66517001Y-103941398D01*
X66445826Y-104028124D01*
X66375254Y-104160154D01*
X66331798Y-104303415D01*
X66317124Y-104452400D01*
X66320801Y-104489732D01*
X66320800Y-108269677D01*
X66317124Y-108307000D01*
X66320800Y-108344322D01*
X66320800Y-108344332D01*
X66331797Y-108455985D01*
X66363299Y-108559835D01*
X66375254Y-108599246D01*
X66445826Y-108731276D01*
X66479506Y-108772315D01*
X66540799Y-108847001D01*
X66569802Y-108870803D01*
X66831401Y-109132402D01*
X66831401Y-111053000D01*
X63360000Y-111053000D01*
X63337085Y-111055084D01*
X63313156Y-111061955D01*
X63291026Y-111073362D01*
X63271548Y-111088867D01*
X63255468Y-111107875D01*
X63243406Y-111129654D01*
X63235824Y-111153367D01*
X63233014Y-111178105D01*
X63226524Y-111612956D01*
X62085750Y-111615000D01*
X61927000Y-111773750D01*
X61927000Y-113023000D01*
X61947000Y-113023000D01*
X61947000Y-113277000D01*
X61927000Y-113277000D01*
X61927000Y-114526250D01*
X62085750Y-114685000D01*
X62833459Y-114686340D01*
X62142505Y-115377294D01*
X62037774Y-115272563D01*
X61868256Y-115159295D01*
X61679898Y-115081274D01*
X61479939Y-115041500D01*
X61345402Y-115041500D01*
X60989841Y-114685940D01*
X61514250Y-114685000D01*
X61673000Y-114526250D01*
X61673000Y-113277000D01*
X61653000Y-113277000D01*
X61653000Y-113023000D01*
X61673000Y-113023000D01*
X61673000Y-111773750D01*
X61514250Y-111615000D01*
X60285300Y-111612798D01*
X60285300Y-110287333D01*
X60288977Y-110250000D01*
X60274303Y-110101014D01*
X60230846Y-109957753D01*
X60160274Y-109825724D01*
X60065301Y-109709999D01*
X59949576Y-109615026D01*
X59833438Y-109552948D01*
X59828223Y-109500000D01*
X59838072Y-109400000D01*
X59838072Y-109100000D01*
X59828223Y-109000000D01*
X59838072Y-108900000D01*
X59838072Y-108600000D01*
X59828223Y-108499999D01*
X59838072Y-108400000D01*
X59838072Y-108100000D01*
X59829208Y-108010000D01*
X60465278Y-108010000D01*
X60502600Y-108013676D01*
X60539922Y-108010000D01*
X60539933Y-108010000D01*
X60651586Y-107999003D01*
X60794847Y-107955546D01*
X60926876Y-107884974D01*
X61042601Y-107790001D01*
X61066404Y-107760997D01*
X67675604Y-101151798D01*
X67704601Y-101128001D01*
X67798100Y-101014072D01*
X67798100Y-102671500D01*
G36*
X57261928Y-105600000D02*
G01*
X57261928Y-105900000D01*
X57271777Y-106000000D01*
X57261928Y-106100000D01*
X57261928Y-106400000D01*
X57271777Y-106500000D01*
X57261928Y-106600000D01*
X57261928Y-106900000D01*
X57271777Y-107000000D01*
X57261928Y-107100000D01*
X57261928Y-107400000D01*
X57272118Y-107503465D01*
X57265000Y-107568250D01*
X57297247Y-107600497D01*
X57310498Y-107644180D01*
X57367061Y-107750000D01*
X57310498Y-107855820D01*
X57297247Y-107899503D01*
X57265000Y-107931750D01*
X57272118Y-107996535D01*
X57261928Y-108100000D01*
X57261928Y-108400000D01*
X57270792Y-108490000D01*
X56353322Y-108490000D01*
X56315999Y-108486324D01*
X56278676Y-108490000D01*
X56278667Y-108490000D01*
X56167014Y-108500997D01*
X56023753Y-108544454D01*
X55891724Y-108615026D01*
X55775999Y-108709999D01*
X55752201Y-108738997D01*
X51168899Y-113322300D01*
X46518890Y-113322300D01*
X46525812Y-113299482D01*
X46538072Y-113175000D01*
X46538072Y-111825000D01*
X46525812Y-111700518D01*
X46489502Y-111580820D01*
X46446302Y-111500000D01*
X46489502Y-111419180D01*
X46525812Y-111299482D01*
X46538072Y-111175000D01*
X46535000Y-110785750D01*
X46376250Y-110627000D01*
X45305906Y-110627000D01*
X45314174Y-110424535D01*
X45306093Y-110373000D01*
X46376250Y-110373000D01*
X46535000Y-110214250D01*
X46538072Y-109825000D01*
X46525812Y-109700518D01*
X46489502Y-109580820D01*
X46446302Y-109500000D01*
X46489502Y-109419180D01*
X46525812Y-109299482D01*
X46529701Y-109260000D01*
X53150578Y-109260000D01*
X53187900Y-109263676D01*
X53225222Y-109260000D01*
X53225233Y-109260000D01*
X53336886Y-109249003D01*
X53480147Y-109205546D01*
X53612176Y-109134974D01*
X53727901Y-109040001D01*
X53751704Y-109010997D01*
X57252702Y-105510000D01*
X57270792Y-105510000D01*
X57261928Y-105600000D01*
G37*
X57261928Y-105600000D02*
X57261928Y-105900000D01*
X57271777Y-106000000D01*
X57261928Y-106100000D01*
X57261928Y-106400000D01*
X57271777Y-106500000D01*
X57261928Y-106600000D01*
X57261928Y-106900000D01*
X57271777Y-107000000D01*
X57261928Y-107100000D01*
X57261928Y-107400000D01*
X57272118Y-107503465D01*
X57265000Y-107568250D01*
X57297247Y-107600497D01*
X57310498Y-107644180D01*
X57367061Y-107750000D01*
X57310498Y-107855820D01*
X57297247Y-107899503D01*
X57265000Y-107931750D01*
X57272118Y-107996535D01*
X57261928Y-108100000D01*
X57261928Y-108400000D01*
X57270792Y-108490000D01*
X56353322Y-108490000D01*
X56315999Y-108486324D01*
X56278676Y-108490000D01*
X56278667Y-108490000D01*
X56167014Y-108500997D01*
X56023753Y-108544454D01*
X55891724Y-108615026D01*
X55775999Y-108709999D01*
X55752201Y-108738997D01*
X51168899Y-113322300D01*
X46518890Y-113322300D01*
X46525812Y-113299482D01*
X46538072Y-113175000D01*
X46538072Y-111825000D01*
X46525812Y-111700518D01*
X46489502Y-111580820D01*
X46446302Y-111500000D01*
X46489502Y-111419180D01*
X46525812Y-111299482D01*
X46538072Y-111175000D01*
X46535000Y-110785750D01*
X46376250Y-110627000D01*
X45305906Y-110627000D01*
X45314174Y-110424535D01*
X45306093Y-110373000D01*
X46376250Y-110373000D01*
X46535000Y-110214250D01*
X46538072Y-109825000D01*
X46525812Y-109700518D01*
X46489502Y-109580820D01*
X46446302Y-109500000D01*
X46489502Y-109419180D01*
X46525812Y-109299482D01*
X46529701Y-109260000D01*
X53150578Y-109260000D01*
X53187900Y-109263676D01*
X53225222Y-109260000D01*
X53225233Y-109260000D01*
X53336886Y-109249003D01*
X53480147Y-109205546D01*
X53612176Y-109134974D01*
X53727901Y-109040001D01*
X53751704Y-109010997D01*
X57252702Y-105510000D01*
X57270792Y-105510000D01*
X57261928Y-105600000D01*
G36*
X58657200Y-93878539D02*
G01*
X58696974Y-94078498D01*
X58774995Y-94266856D01*
X58888263Y-94436374D01*
X59032426Y-94580537D01*
X59201944Y-94693805D01*
X59390302Y-94771826D01*
X59590261Y-94811600D01*
X59652399Y-94811600D01*
X61155155Y-96314356D01*
X59800000Y-96311928D01*
X59675518Y-96324188D01*
X59555820Y-96360498D01*
X59445506Y-96419463D01*
X59348815Y-96498815D01*
X59269463Y-96595506D01*
X59210498Y-96705820D01*
X59174188Y-96825518D01*
X59161928Y-96950000D01*
X59165000Y-97564250D01*
X59323750Y-97723000D01*
X61673000Y-97723000D01*
X61673000Y-97703000D01*
X61927000Y-97703000D01*
X61927000Y-97723000D01*
X61947000Y-97723000D01*
X61947000Y-97977000D01*
X61927000Y-97977000D01*
X61927000Y-99226250D01*
X62085750Y-99385000D01*
X62814193Y-99386305D01*
X59838072Y-102362427D01*
X59838072Y-102100000D01*
X59828223Y-102000000D01*
X59833438Y-101947052D01*
X59902382Y-101910200D01*
X59918239Y-101910200D01*
X60118198Y-101870426D01*
X60306556Y-101792405D01*
X60476074Y-101679137D01*
X60620237Y-101534974D01*
X60733505Y-101365456D01*
X60811526Y-101177098D01*
X60851300Y-100977139D01*
X60851300Y-100773261D01*
X60811526Y-100573302D01*
X60733505Y-100384944D01*
X60620237Y-100215426D01*
X60476074Y-100071263D01*
X60306556Y-99957995D01*
X60118198Y-99879974D01*
X59918239Y-99840200D01*
X59838072Y-99840200D01*
X59838072Y-99600000D01*
X59825812Y-99475518D01*
X59799264Y-99387999D01*
X59800000Y-99388072D01*
X61514250Y-99385000D01*
X61673000Y-99226250D01*
X61673000Y-97977000D01*
X59323750Y-97977000D01*
X59165000Y-98135750D01*
X59161928Y-98750000D01*
X59174188Y-98874482D01*
X59200736Y-98962001D01*
X59200000Y-98961928D01*
X57900000Y-98961928D01*
X57792420Y-98972523D01*
X57652886Y-98930197D01*
X57541233Y-98919200D01*
X57541222Y-98919200D01*
X57503900Y-98915524D01*
X57466578Y-98919200D01*
X48669411Y-98919200D01*
X48713937Y-98874674D01*
X48827205Y-98705156D01*
X48905226Y-98516798D01*
X48945000Y-98316839D01*
X48945000Y-98112961D01*
X48905226Y-97913002D01*
X48827205Y-97724644D01*
X48713937Y-97555126D01*
X48666356Y-97507545D01*
X51571002Y-94602900D01*
X53755489Y-94602900D01*
X53799326Y-94646737D01*
X53968844Y-94760005D01*
X54157202Y-94838026D01*
X54357161Y-94877800D01*
X54561039Y-94877800D01*
X54760998Y-94838026D01*
X54949356Y-94760005D01*
X55118874Y-94646737D01*
X55263037Y-94502574D01*
X55376305Y-94333056D01*
X55454326Y-94144698D01*
X55494100Y-93944739D01*
X55494100Y-93875900D01*
X58657200Y-93875900D01*
X58657200Y-93878539D01*
G37*
X58657200Y-93878539D02*
X58696974Y-94078498D01*
X58774995Y-94266856D01*
X58888263Y-94436374D01*
X59032426Y-94580537D01*
X59201944Y-94693805D01*
X59390302Y-94771826D01*
X59590261Y-94811600D01*
X59652399Y-94811600D01*
X61155155Y-96314356D01*
X59800000Y-96311928D01*
X59675518Y-96324188D01*
X59555820Y-96360498D01*
X59445506Y-96419463D01*
X59348815Y-96498815D01*
X59269463Y-96595506D01*
X59210498Y-96705820D01*
X59174188Y-96825518D01*
X59161928Y-96950000D01*
X59165000Y-97564250D01*
X59323750Y-97723000D01*
X61673000Y-97723000D01*
X61673000Y-97703000D01*
X61927000Y-97703000D01*
X61927000Y-97723000D01*
X61947000Y-97723000D01*
X61947000Y-97977000D01*
X61927000Y-97977000D01*
X61927000Y-99226250D01*
X62085750Y-99385000D01*
X62814193Y-99386305D01*
X59838072Y-102362427D01*
X59838072Y-102100000D01*
X59828223Y-102000000D01*
X59833438Y-101947052D01*
X59902382Y-101910200D01*
X59918239Y-101910200D01*
X60118198Y-101870426D01*
X60306556Y-101792405D01*
X60476074Y-101679137D01*
X60620237Y-101534974D01*
X60733505Y-101365456D01*
X60811526Y-101177098D01*
X60851300Y-100977139D01*
X60851300Y-100773261D01*
X60811526Y-100573302D01*
X60733505Y-100384944D01*
X60620237Y-100215426D01*
X60476074Y-100071263D01*
X60306556Y-99957995D01*
X60118198Y-99879974D01*
X59918239Y-99840200D01*
X59838072Y-99840200D01*
X59838072Y-99600000D01*
X59825812Y-99475518D01*
X59799264Y-99387999D01*
X59800000Y-99388072D01*
X61514250Y-99385000D01*
X61673000Y-99226250D01*
X61673000Y-97977000D01*
X59323750Y-97977000D01*
X59165000Y-98135750D01*
X59161928Y-98750000D01*
X59174188Y-98874482D01*
X59200736Y-98962001D01*
X59200000Y-98961928D01*
X57900000Y-98961928D01*
X57792420Y-98972523D01*
X57652886Y-98930197D01*
X57541233Y-98919200D01*
X57541222Y-98919200D01*
X57503900Y-98915524D01*
X57466578Y-98919200D01*
X48669411Y-98919200D01*
X48713937Y-98874674D01*
X48827205Y-98705156D01*
X48905226Y-98516798D01*
X48945000Y-98316839D01*
X48945000Y-98112961D01*
X48905226Y-97913002D01*
X48827205Y-97724644D01*
X48713937Y-97555126D01*
X48666356Y-97507545D01*
X51571002Y-94602900D01*
X53755489Y-94602900D01*
X53799326Y-94646737D01*
X53968844Y-94760005D01*
X54157202Y-94838026D01*
X54357161Y-94877800D01*
X54561039Y-94877800D01*
X54760998Y-94838026D01*
X54949356Y-94760005D01*
X55118874Y-94646737D01*
X55263037Y-94502574D01*
X55376305Y-94333056D01*
X55454326Y-94144698D01*
X55494100Y-93944739D01*
X55494100Y-93875900D01*
X58657200Y-93875900D01*
X58657200Y-93878539D01*
G36*
X27700186Y-80739956D02*
G01*
X27559296Y-81029571D01*
X27477616Y-81341108D01*
X27458282Y-81662595D01*
X27502039Y-81981675D01*
X27607205Y-82286088D01*
X27700186Y-82460044D01*
X27964587Y-82555808D01*
X28920395Y-81600000D01*
X28906253Y-81585858D01*
X29085858Y-81406253D01*
X29100000Y-81420395D01*
X29114143Y-81406253D01*
X29293748Y-81585858D01*
X29279605Y-81600000D01*
X30235413Y-82555808D01*
X30499814Y-82460044D01*
X30640704Y-82170429D01*
X30722384Y-81858892D01*
X30741718Y-81537405D01*
X30697961Y-81218325D01*
X30592795Y-80913912D01*
X30499814Y-80739956D01*
X30279058Y-80660000D01*
X31478455Y-80660000D01*
X31372068Y-80916842D01*
X31315000Y-81203740D01*
X31315000Y-81496260D01*
X31372068Y-81783158D01*
X31484010Y-82053411D01*
X31646525Y-82296632D01*
X31853368Y-82503475D01*
X32035534Y-82625195D01*
X31918645Y-82694822D01*
X31702412Y-82889731D01*
X31528359Y-83123080D01*
X31403175Y-83385901D01*
X31358524Y-83533110D01*
X31479845Y-83763000D01*
X32673000Y-83763000D01*
X32673000Y-83743000D01*
X32927000Y-83743000D01*
X32927000Y-83763000D01*
X34120155Y-83763000D01*
X34241476Y-83533110D01*
X34196825Y-83385901D01*
X34071641Y-83123080D01*
X33897588Y-82889731D01*
X33681355Y-82694822D01*
X33581620Y-82635413D01*
X63044192Y-82635413D01*
X63139956Y-82899814D01*
X63429571Y-83040704D01*
X63741108Y-83122384D01*
X64062595Y-83141718D01*
X64381675Y-83097961D01*
X64686088Y-82992795D01*
X64860044Y-82899814D01*
X64955808Y-82635413D01*
X64000000Y-81679605D01*
X63044192Y-82635413D01*
X33581620Y-82635413D01*
X33564466Y-82625195D01*
X33746632Y-82503475D01*
X33953475Y-82296632D01*
X34115990Y-82053411D01*
X34227932Y-81783158D01*
X34285000Y-81496260D01*
X34285000Y-81203740D01*
X34227932Y-80916842D01*
X34121545Y-80660000D01*
X62590435Y-80660000D01*
X62459296Y-80929571D01*
X62377616Y-81241108D01*
X62358282Y-81562595D01*
X62402039Y-81881675D01*
X62507205Y-82186088D01*
X62600186Y-82360044D01*
X62864587Y-82455808D01*
X63820395Y-81500000D01*
X63806253Y-81485858D01*
X63985858Y-81306253D01*
X64000000Y-81320395D01*
X64014143Y-81306253D01*
X64193748Y-81485858D01*
X64179605Y-81500000D01*
X65135413Y-82455808D01*
X65399814Y-82360044D01*
X65540704Y-82070429D01*
X65622384Y-81758892D01*
X65641718Y-81437405D01*
X65597961Y-81118325D01*
X65492795Y-80813912D01*
X65410528Y-80660000D01*
X69090435Y-80660000D01*
X68959296Y-80929571D01*
X68877616Y-81241108D01*
X68858282Y-81562595D01*
X68902039Y-81881675D01*
X69007205Y-82186088D01*
X69100186Y-82360044D01*
X69364587Y-82455808D01*
X70320395Y-81500000D01*
X70306253Y-81485858D01*
X70485858Y-81306253D01*
X70500000Y-81320395D01*
X70514143Y-81306253D01*
X70693748Y-81485858D01*
X70679605Y-81500000D01*
X70693748Y-81514143D01*
X70514143Y-81693748D01*
X70500000Y-81679605D01*
X69544192Y-82635413D01*
X69639956Y-82899814D01*
X69929571Y-83040704D01*
X70241108Y-83122384D01*
X70562595Y-83141718D01*
X70881675Y-83097961D01*
X71186088Y-82992795D01*
X71340000Y-82910528D01*
X71340000Y-84594873D01*
X71274463Y-84551082D01*
X70976912Y-84427832D01*
X70661033Y-84365000D01*
X70338967Y-84365000D01*
X70023088Y-84427832D01*
X69725537Y-84551082D01*
X69457748Y-84730013D01*
X69230013Y-84957748D01*
X69051082Y-85225537D01*
X69045091Y-85240000D01*
X65454909Y-85240000D01*
X65448918Y-85225537D01*
X65269987Y-84957748D01*
X65042252Y-84730013D01*
X64774463Y-84551082D01*
X64476912Y-84427832D01*
X64161033Y-84365000D01*
X63838967Y-84365000D01*
X63523088Y-84427832D01*
X63225537Y-84551082D01*
X62957748Y-84730013D01*
X62730013Y-84957748D01*
X62551082Y-85225537D01*
X62427832Y-85523088D01*
X62380491Y-85761089D01*
X61213304Y-84593903D01*
X61189501Y-84564899D01*
X61073776Y-84469926D01*
X60941747Y-84399354D01*
X60798486Y-84355897D01*
X60686833Y-84344900D01*
X60686822Y-84344900D01*
X60649500Y-84341224D01*
X60612178Y-84344900D01*
X55266823Y-84344900D01*
X55229500Y-84341224D01*
X55192177Y-84344900D01*
X55192167Y-84344900D01*
X55080514Y-84355897D01*
X54954577Y-84394099D01*
X54937253Y-84399354D01*
X54805223Y-84469926D01*
X54734665Y-84527832D01*
X54689499Y-84564899D01*
X54665701Y-84593897D01*
X53785199Y-85474400D01*
X53723061Y-85474400D01*
X53523102Y-85514174D01*
X53334744Y-85592195D01*
X53165226Y-85705463D01*
X53021063Y-85849626D01*
X52907795Y-86019144D01*
X52829774Y-86207502D01*
X52790000Y-86407461D01*
X52790000Y-86582700D01*
X45457624Y-86582700D01*
X45455405Y-86577344D01*
X45342137Y-86407826D01*
X45197974Y-86263663D01*
X45028456Y-86150395D01*
X44840098Y-86072374D01*
X44640139Y-86032600D01*
X44436261Y-86032600D01*
X44236302Y-86072374D01*
X44047944Y-86150395D01*
X43878426Y-86263663D01*
X43734263Y-86407826D01*
X43730404Y-86413602D01*
X43235804Y-85919003D01*
X43212001Y-85889999D01*
X43096276Y-85795026D01*
X42964247Y-85724454D01*
X42820986Y-85680997D01*
X42709333Y-85670000D01*
X42709322Y-85670000D01*
X42672000Y-85666324D01*
X42634678Y-85670000D01*
X34078178Y-85670000D01*
X33953475Y-85483368D01*
X33746632Y-85276525D01*
X33564466Y-85154805D01*
X33681355Y-85085178D01*
X33897588Y-84890269D01*
X34071641Y-84656920D01*
X34196825Y-84394099D01*
X34241476Y-84246890D01*
X34120155Y-84017000D01*
X32927000Y-84017000D01*
X32927000Y-84037000D01*
X32673000Y-84037000D01*
X32673000Y-84017000D01*
X31479845Y-84017000D01*
X31358524Y-84246890D01*
X31403175Y-84394099D01*
X31528359Y-84656920D01*
X31702412Y-84890269D01*
X31918645Y-85085178D01*
X32035534Y-85154805D01*
X31853368Y-85276525D01*
X31646525Y-85483368D01*
X31484010Y-85726589D01*
X31372068Y-85996842D01*
X31315000Y-86283740D01*
X31315000Y-86576260D01*
X31372068Y-86863158D01*
X31443081Y-87034600D01*
X31109402Y-87034600D01*
X30666177Y-86591375D01*
X30672168Y-86576912D01*
X30735000Y-86261033D01*
X30735000Y-85938967D01*
X30672168Y-85623088D01*
X30548918Y-85325537D01*
X30369987Y-85057748D01*
X30142252Y-84830013D01*
X29874463Y-84651082D01*
X29576912Y-84527832D01*
X29261033Y-84465000D01*
X28938967Y-84465000D01*
X28623088Y-84527832D01*
X28325537Y-84651082D01*
X28057748Y-84830013D01*
X27830013Y-85057748D01*
X27651082Y-85325537D01*
X27645091Y-85340000D01*
X24054909Y-85340000D01*
X24048918Y-85325537D01*
X23869987Y-85057748D01*
X23642252Y-84830013D01*
X23374463Y-84651082D01*
X23076912Y-84527832D01*
X22761033Y-84465000D01*
X22438967Y-84465000D01*
X22123088Y-84527832D01*
X21825537Y-84651082D01*
X21660000Y-84761690D01*
X21660000Y-82779058D01*
X21739956Y-82999814D01*
X22029571Y-83140704D01*
X22341108Y-83222384D01*
X22662595Y-83241718D01*
X22981675Y-83197961D01*
X23286088Y-83092795D01*
X23460044Y-82999814D01*
X23555808Y-82735413D01*
X28144192Y-82735413D01*
X28239956Y-82999814D01*
X28529571Y-83140704D01*
X28841108Y-83222384D01*
X29162595Y-83241718D01*
X29481675Y-83197961D01*
X29786088Y-83092795D01*
X29960044Y-82999814D01*
X30055808Y-82735413D01*
X29100000Y-81779605D01*
X28144192Y-82735413D01*
X23555808Y-82735413D01*
X22600000Y-81779605D01*
X22585858Y-81793748D01*
X22406253Y-81614143D01*
X22420395Y-81600000D01*
X22406253Y-81585858D01*
X22585858Y-81406253D01*
X22600000Y-81420395D01*
X22614143Y-81406253D01*
X22793748Y-81585858D01*
X22779605Y-81600000D01*
X23735413Y-82555808D01*
X23999814Y-82460044D01*
X24140704Y-82170429D01*
X24222384Y-81858892D01*
X24241718Y-81537405D01*
X24197961Y-81218325D01*
X24092795Y-80913912D01*
X23999814Y-80739956D01*
X23779058Y-80660000D01*
X27920942Y-80660000D01*
X27700186Y-80739956D01*
G37*
X27700186Y-80739956D02*
X27559296Y-81029571D01*
X27477616Y-81341108D01*
X27458282Y-81662595D01*
X27502039Y-81981675D01*
X27607205Y-82286088D01*
X27700186Y-82460044D01*
X27964587Y-82555808D01*
X28920395Y-81600000D01*
X28906253Y-81585858D01*
X29085858Y-81406253D01*
X29100000Y-81420395D01*
X29114143Y-81406253D01*
X29293748Y-81585858D01*
X29279605Y-81600000D01*
X30235413Y-82555808D01*
X30499814Y-82460044D01*
X30640704Y-82170429D01*
X30722384Y-81858892D01*
X30741718Y-81537405D01*
X30697961Y-81218325D01*
X30592795Y-80913912D01*
X30499814Y-80739956D01*
X30279058Y-80660000D01*
X31478455Y-80660000D01*
X31372068Y-80916842D01*
X31315000Y-81203740D01*
X31315000Y-81496260D01*
X31372068Y-81783158D01*
X31484010Y-82053411D01*
X31646525Y-82296632D01*
X31853368Y-82503475D01*
X32035534Y-82625195D01*
X31918645Y-82694822D01*
X31702412Y-82889731D01*
X31528359Y-83123080D01*
X31403175Y-83385901D01*
X31358524Y-83533110D01*
X31479845Y-83763000D01*
X32673000Y-83763000D01*
X32673000Y-83743000D01*
X32927000Y-83743000D01*
X32927000Y-83763000D01*
X34120155Y-83763000D01*
X34241476Y-83533110D01*
X34196825Y-83385901D01*
X34071641Y-83123080D01*
X33897588Y-82889731D01*
X33681355Y-82694822D01*
X33581620Y-82635413D01*
X63044192Y-82635413D01*
X63139956Y-82899814D01*
X63429571Y-83040704D01*
X63741108Y-83122384D01*
X64062595Y-83141718D01*
X64381675Y-83097961D01*
X64686088Y-82992795D01*
X64860044Y-82899814D01*
X64955808Y-82635413D01*
X64000000Y-81679605D01*
X63044192Y-82635413D01*
X33581620Y-82635413D01*
X33564466Y-82625195D01*
X33746632Y-82503475D01*
X33953475Y-82296632D01*
X34115990Y-82053411D01*
X34227932Y-81783158D01*
X34285000Y-81496260D01*
X34285000Y-81203740D01*
X34227932Y-80916842D01*
X34121545Y-80660000D01*
X62590435Y-80660000D01*
X62459296Y-80929571D01*
X62377616Y-81241108D01*
X62358282Y-81562595D01*
X62402039Y-81881675D01*
X62507205Y-82186088D01*
X62600186Y-82360044D01*
X62864587Y-82455808D01*
X63820395Y-81500000D01*
X63806253Y-81485858D01*
X63985858Y-81306253D01*
X64000000Y-81320395D01*
X64014143Y-81306253D01*
X64193748Y-81485858D01*
X64179605Y-81500000D01*
X65135413Y-82455808D01*
X65399814Y-82360044D01*
X65540704Y-82070429D01*
X65622384Y-81758892D01*
X65641718Y-81437405D01*
X65597961Y-81118325D01*
X65492795Y-80813912D01*
X65410528Y-80660000D01*
X69090435Y-80660000D01*
X68959296Y-80929571D01*
X68877616Y-81241108D01*
X68858282Y-81562595D01*
X68902039Y-81881675D01*
X69007205Y-82186088D01*
X69100186Y-82360044D01*
X69364587Y-82455808D01*
X70320395Y-81500000D01*
X70306253Y-81485858D01*
X70485858Y-81306253D01*
X70500000Y-81320395D01*
X70514143Y-81306253D01*
X70693748Y-81485858D01*
X70679605Y-81500000D01*
X70693748Y-81514143D01*
X70514143Y-81693748D01*
X70500000Y-81679605D01*
X69544192Y-82635413D01*
X69639956Y-82899814D01*
X69929571Y-83040704D01*
X70241108Y-83122384D01*
X70562595Y-83141718D01*
X70881675Y-83097961D01*
X71186088Y-82992795D01*
X71340000Y-82910528D01*
X71340000Y-84594873D01*
X71274463Y-84551082D01*
X70976912Y-84427832D01*
X70661033Y-84365000D01*
X70338967Y-84365000D01*
X70023088Y-84427832D01*
X69725537Y-84551082D01*
X69457748Y-84730013D01*
X69230013Y-84957748D01*
X69051082Y-85225537D01*
X69045091Y-85240000D01*
X65454909Y-85240000D01*
X65448918Y-85225537D01*
X65269987Y-84957748D01*
X65042252Y-84730013D01*
X64774463Y-84551082D01*
X64476912Y-84427832D01*
X64161033Y-84365000D01*
X63838967Y-84365000D01*
X63523088Y-84427832D01*
X63225537Y-84551082D01*
X62957748Y-84730013D01*
X62730013Y-84957748D01*
X62551082Y-85225537D01*
X62427832Y-85523088D01*
X62380491Y-85761089D01*
X61213304Y-84593903D01*
X61189501Y-84564899D01*
X61073776Y-84469926D01*
X60941747Y-84399354D01*
X60798486Y-84355897D01*
X60686833Y-84344900D01*
X60686822Y-84344900D01*
X60649500Y-84341224D01*
X60612178Y-84344900D01*
X55266823Y-84344900D01*
X55229500Y-84341224D01*
X55192177Y-84344900D01*
X55192167Y-84344900D01*
X55080514Y-84355897D01*
X54954577Y-84394099D01*
X54937253Y-84399354D01*
X54805223Y-84469926D01*
X54734665Y-84527832D01*
X54689499Y-84564899D01*
X54665701Y-84593897D01*
X53785199Y-85474400D01*
X53723061Y-85474400D01*
X53523102Y-85514174D01*
X53334744Y-85592195D01*
X53165226Y-85705463D01*
X53021063Y-85849626D01*
X52907795Y-86019144D01*
X52829774Y-86207502D01*
X52790000Y-86407461D01*
X52790000Y-86582700D01*
X45457624Y-86582700D01*
X45455405Y-86577344D01*
X45342137Y-86407826D01*
X45197974Y-86263663D01*
X45028456Y-86150395D01*
X44840098Y-86072374D01*
X44640139Y-86032600D01*
X44436261Y-86032600D01*
X44236302Y-86072374D01*
X44047944Y-86150395D01*
X43878426Y-86263663D01*
X43734263Y-86407826D01*
X43730404Y-86413602D01*
X43235804Y-85919003D01*
X43212001Y-85889999D01*
X43096276Y-85795026D01*
X42964247Y-85724454D01*
X42820986Y-85680997D01*
X42709333Y-85670000D01*
X42709322Y-85670000D01*
X42672000Y-85666324D01*
X42634678Y-85670000D01*
X34078178Y-85670000D01*
X33953475Y-85483368D01*
X33746632Y-85276525D01*
X33564466Y-85154805D01*
X33681355Y-85085178D01*
X33897588Y-84890269D01*
X34071641Y-84656920D01*
X34196825Y-84394099D01*
X34241476Y-84246890D01*
X34120155Y-84017000D01*
X32927000Y-84017000D01*
X32927000Y-84037000D01*
X32673000Y-84037000D01*
X32673000Y-84017000D01*
X31479845Y-84017000D01*
X31358524Y-84246890D01*
X31403175Y-84394099D01*
X31528359Y-84656920D01*
X31702412Y-84890269D01*
X31918645Y-85085178D01*
X32035534Y-85154805D01*
X31853368Y-85276525D01*
X31646525Y-85483368D01*
X31484010Y-85726589D01*
X31372068Y-85996842D01*
X31315000Y-86283740D01*
X31315000Y-86576260D01*
X31372068Y-86863158D01*
X31443081Y-87034600D01*
X31109402Y-87034600D01*
X30666177Y-86591375D01*
X30672168Y-86576912D01*
X30735000Y-86261033D01*
X30735000Y-85938967D01*
X30672168Y-85623088D01*
X30548918Y-85325537D01*
X30369987Y-85057748D01*
X30142252Y-84830013D01*
X29874463Y-84651082D01*
X29576912Y-84527832D01*
X29261033Y-84465000D01*
X28938967Y-84465000D01*
X28623088Y-84527832D01*
X28325537Y-84651082D01*
X28057748Y-84830013D01*
X27830013Y-85057748D01*
X27651082Y-85325537D01*
X27645091Y-85340000D01*
X24054909Y-85340000D01*
X24048918Y-85325537D01*
X23869987Y-85057748D01*
X23642252Y-84830013D01*
X23374463Y-84651082D01*
X23076912Y-84527832D01*
X22761033Y-84465000D01*
X22438967Y-84465000D01*
X22123088Y-84527832D01*
X21825537Y-84651082D01*
X21660000Y-84761690D01*
X21660000Y-82779058D01*
X21739956Y-82999814D01*
X22029571Y-83140704D01*
X22341108Y-83222384D01*
X22662595Y-83241718D01*
X22981675Y-83197961D01*
X23286088Y-83092795D01*
X23460044Y-82999814D01*
X23555808Y-82735413D01*
X28144192Y-82735413D01*
X28239956Y-82999814D01*
X28529571Y-83140704D01*
X28841108Y-83222384D01*
X29162595Y-83241718D01*
X29481675Y-83197961D01*
X29786088Y-83092795D01*
X29960044Y-82999814D01*
X30055808Y-82735413D01*
X29100000Y-81779605D01*
X28144192Y-82735413D01*
X23555808Y-82735413D01*
X22600000Y-81779605D01*
X22585858Y-81793748D01*
X22406253Y-81614143D01*
X22420395Y-81600000D01*
X22406253Y-81585858D01*
X22585858Y-81406253D01*
X22600000Y-81420395D01*
X22614143Y-81406253D01*
X22793748Y-81585858D01*
X22779605Y-81600000D01*
X23735413Y-82555808D01*
X23999814Y-82460044D01*
X24140704Y-82170429D01*
X24222384Y-81858892D01*
X24241718Y-81537405D01*
X24197961Y-81218325D01*
X24092795Y-80913912D01*
X23999814Y-80739956D01*
X23779058Y-80660000D01*
X27920942Y-80660000D01*
X27700186Y-80739956D01*
M02*
