G04 #@! TF.GenerationSoftware,KiCad,Pcbnew,(5.1.5-0-10_14)*
G04 #@! TF.CreationDate,2020-08-15T08:38:21+02:00*
G04 #@! TF.ProjectId,HB-RC-4-Dis-TH,48422d52-432d-4342-9d44-69732d54482e,rev?*
G04 #@! TF.SameCoordinates,Original*
G04 #@! TF.FileFunction,Copper,L1,Top*
G04 #@! TF.FilePolarity,Positive*
%FSLAX46Y46*%
G04 Gerber Fmt 4.6, Leading zero omitted, Abs format (unit mm)*
G04 Created by KiCad (PCBNEW (5.1.5-0-10_14)) date 2020-08-15 08:38:21*
%MOMM*%
%LPD*%
G04 APERTURE LIST*
%ADD10C,2.000000*%
%ADD11O,1.700000X1.700000*%
%ADD12R,1.700000X1.700000*%
%ADD13C,1.350000*%
%ADD14R,1.800000X1.350000*%
%ADD15R,1.300000X0.300000*%
%ADD16R,2.200000X1.800000*%
%ADD17O,1.350000X1.350000*%
%ADD18R,1.350000X1.350000*%
%ADD19C,0.100000*%
%ADD20C,0.800000*%
%ADD21C,0.250000*%
%ADD22C,0.254000*%
G04 APERTURE END LIST*
D10*
X44000000Y-124500000D03*
X48500000Y-124500000D03*
X44000000Y-131000000D03*
X48500000Y-131000000D03*
X71400000Y-126900000D03*
X71400000Y-131400000D03*
X64900000Y-126900000D03*
X64900000Y-131400000D03*
X28100000Y-126900000D03*
X28100000Y-131400000D03*
X21600000Y-126900000D03*
X21600000Y-131400000D03*
X64900000Y-86100000D03*
X64900000Y-81600000D03*
X71400000Y-86100000D03*
X71400000Y-81600000D03*
X21600000Y-86100000D03*
X21600000Y-81600000D03*
X28100000Y-86100000D03*
X28100000Y-81600000D03*
D11*
X25340000Y-91800000D03*
D12*
X22800000Y-91800000D03*
D11*
X21900000Y-117800000D03*
X24440000Y-117800000D03*
X26980000Y-117800000D03*
X29520000Y-117800000D03*
X32060000Y-117800000D03*
D12*
X34600000Y-117800000D03*
D13*
X42850000Y-100500000D03*
D14*
X43850000Y-100500000D03*
D13*
X42850000Y-114500000D03*
X42850000Y-112500000D03*
X42850000Y-110500000D03*
X42850000Y-108500000D03*
X42850000Y-106500000D03*
X42850000Y-104500000D03*
X42850000Y-102500000D03*
D14*
X43850000Y-114500000D03*
X43850000Y-112500000D03*
X43850000Y-110500000D03*
X43850000Y-108500000D03*
X43850000Y-106500000D03*
X43850000Y-104500000D03*
X43850000Y-102500000D03*
D15*
X55250000Y-100750000D03*
X55250000Y-101250000D03*
X55250000Y-101750000D03*
X55250000Y-102250000D03*
X55250000Y-102750000D03*
X55250000Y-103250000D03*
X55250000Y-103750000D03*
X55250000Y-104250000D03*
X55250000Y-104750000D03*
X55250000Y-105250000D03*
X55250000Y-105750000D03*
X55250000Y-106250000D03*
X55250000Y-106750000D03*
X55250000Y-107250000D03*
X55250000Y-107750000D03*
X55250000Y-108250000D03*
X55250000Y-108750000D03*
X55250000Y-109250000D03*
X55250000Y-109750000D03*
X55250000Y-110250000D03*
X55250000Y-110750000D03*
X55250000Y-111250000D03*
X55250000Y-111750000D03*
X55250000Y-112250000D03*
D16*
X58500000Y-98850000D03*
X58500000Y-114150000D03*
D17*
X34000000Y-88250000D03*
X34000000Y-86250000D03*
X34000000Y-84250000D03*
D18*
X34000000Y-82250000D03*
G04 #@! TA.AperFunction,SMDPad,CuDef*
D19*
G36*
X51474505Y-126001204D02*
G01*
X51498773Y-126004804D01*
X51522572Y-126010765D01*
X51545671Y-126019030D01*
X51567850Y-126029520D01*
X51588893Y-126042132D01*
X51608599Y-126056747D01*
X51626777Y-126073223D01*
X51643253Y-126091401D01*
X51657868Y-126111107D01*
X51670480Y-126132150D01*
X51680970Y-126154329D01*
X51689235Y-126177428D01*
X51695196Y-126201227D01*
X51698796Y-126225495D01*
X51700000Y-126249999D01*
X51700000Y-126900001D01*
X51698796Y-126924505D01*
X51695196Y-126948773D01*
X51689235Y-126972572D01*
X51680970Y-126995671D01*
X51670480Y-127017850D01*
X51657868Y-127038893D01*
X51643253Y-127058599D01*
X51626777Y-127076777D01*
X51608599Y-127093253D01*
X51588893Y-127107868D01*
X51567850Y-127120480D01*
X51545671Y-127130970D01*
X51522572Y-127139235D01*
X51498773Y-127145196D01*
X51474505Y-127148796D01*
X51450001Y-127150000D01*
X50549999Y-127150000D01*
X50525495Y-127148796D01*
X50501227Y-127145196D01*
X50477428Y-127139235D01*
X50454329Y-127130970D01*
X50432150Y-127120480D01*
X50411107Y-127107868D01*
X50391401Y-127093253D01*
X50373223Y-127076777D01*
X50356747Y-127058599D01*
X50342132Y-127038893D01*
X50329520Y-127017850D01*
X50319030Y-126995671D01*
X50310765Y-126972572D01*
X50304804Y-126948773D01*
X50301204Y-126924505D01*
X50300000Y-126900001D01*
X50300000Y-126249999D01*
X50301204Y-126225495D01*
X50304804Y-126201227D01*
X50310765Y-126177428D01*
X50319030Y-126154329D01*
X50329520Y-126132150D01*
X50342132Y-126111107D01*
X50356747Y-126091401D01*
X50373223Y-126073223D01*
X50391401Y-126056747D01*
X50411107Y-126042132D01*
X50432150Y-126029520D01*
X50454329Y-126019030D01*
X50477428Y-126010765D01*
X50501227Y-126004804D01*
X50525495Y-126001204D01*
X50549999Y-126000000D01*
X51450001Y-126000000D01*
X51474505Y-126001204D01*
G37*
G04 #@! TD.AperFunction*
G04 #@! TA.AperFunction,SMDPad,CuDef*
G36*
X51474505Y-128051204D02*
G01*
X51498773Y-128054804D01*
X51522572Y-128060765D01*
X51545671Y-128069030D01*
X51567850Y-128079520D01*
X51588893Y-128092132D01*
X51608599Y-128106747D01*
X51626777Y-128123223D01*
X51643253Y-128141401D01*
X51657868Y-128161107D01*
X51670480Y-128182150D01*
X51680970Y-128204329D01*
X51689235Y-128227428D01*
X51695196Y-128251227D01*
X51698796Y-128275495D01*
X51700000Y-128299999D01*
X51700000Y-128950001D01*
X51698796Y-128974505D01*
X51695196Y-128998773D01*
X51689235Y-129022572D01*
X51680970Y-129045671D01*
X51670480Y-129067850D01*
X51657868Y-129088893D01*
X51643253Y-129108599D01*
X51626777Y-129126777D01*
X51608599Y-129143253D01*
X51588893Y-129157868D01*
X51567850Y-129170480D01*
X51545671Y-129180970D01*
X51522572Y-129189235D01*
X51498773Y-129195196D01*
X51474505Y-129198796D01*
X51450001Y-129200000D01*
X50549999Y-129200000D01*
X50525495Y-129198796D01*
X50501227Y-129195196D01*
X50477428Y-129189235D01*
X50454329Y-129180970D01*
X50432150Y-129170480D01*
X50411107Y-129157868D01*
X50391401Y-129143253D01*
X50373223Y-129126777D01*
X50356747Y-129108599D01*
X50342132Y-129088893D01*
X50329520Y-129067850D01*
X50319030Y-129045671D01*
X50310765Y-129022572D01*
X50304804Y-128998773D01*
X50301204Y-128974505D01*
X50300000Y-128950001D01*
X50300000Y-128299999D01*
X50301204Y-128275495D01*
X50304804Y-128251227D01*
X50310765Y-128227428D01*
X50319030Y-128204329D01*
X50329520Y-128182150D01*
X50342132Y-128161107D01*
X50356747Y-128141401D01*
X50373223Y-128123223D01*
X50391401Y-128106747D01*
X50411107Y-128092132D01*
X50432150Y-128079520D01*
X50454329Y-128069030D01*
X50477428Y-128060765D01*
X50501227Y-128054804D01*
X50525495Y-128051204D01*
X50549999Y-128050000D01*
X51450001Y-128050000D01*
X51474505Y-128051204D01*
G37*
G04 #@! TD.AperFunction*
G04 #@! TA.AperFunction,SMDPad,CuDef*
G36*
X41974505Y-126001204D02*
G01*
X41998773Y-126004804D01*
X42022572Y-126010765D01*
X42045671Y-126019030D01*
X42067850Y-126029520D01*
X42088893Y-126042132D01*
X42108599Y-126056747D01*
X42126777Y-126073223D01*
X42143253Y-126091401D01*
X42157868Y-126111107D01*
X42170480Y-126132150D01*
X42180970Y-126154329D01*
X42189235Y-126177428D01*
X42195196Y-126201227D01*
X42198796Y-126225495D01*
X42200000Y-126249999D01*
X42200000Y-126900001D01*
X42198796Y-126924505D01*
X42195196Y-126948773D01*
X42189235Y-126972572D01*
X42180970Y-126995671D01*
X42170480Y-127017850D01*
X42157868Y-127038893D01*
X42143253Y-127058599D01*
X42126777Y-127076777D01*
X42108599Y-127093253D01*
X42088893Y-127107868D01*
X42067850Y-127120480D01*
X42045671Y-127130970D01*
X42022572Y-127139235D01*
X41998773Y-127145196D01*
X41974505Y-127148796D01*
X41950001Y-127150000D01*
X41049999Y-127150000D01*
X41025495Y-127148796D01*
X41001227Y-127145196D01*
X40977428Y-127139235D01*
X40954329Y-127130970D01*
X40932150Y-127120480D01*
X40911107Y-127107868D01*
X40891401Y-127093253D01*
X40873223Y-127076777D01*
X40856747Y-127058599D01*
X40842132Y-127038893D01*
X40829520Y-127017850D01*
X40819030Y-126995671D01*
X40810765Y-126972572D01*
X40804804Y-126948773D01*
X40801204Y-126924505D01*
X40800000Y-126900001D01*
X40800000Y-126249999D01*
X40801204Y-126225495D01*
X40804804Y-126201227D01*
X40810765Y-126177428D01*
X40819030Y-126154329D01*
X40829520Y-126132150D01*
X40842132Y-126111107D01*
X40856747Y-126091401D01*
X40873223Y-126073223D01*
X40891401Y-126056747D01*
X40911107Y-126042132D01*
X40932150Y-126029520D01*
X40954329Y-126019030D01*
X40977428Y-126010765D01*
X41001227Y-126004804D01*
X41025495Y-126001204D01*
X41049999Y-126000000D01*
X41950001Y-126000000D01*
X41974505Y-126001204D01*
G37*
G04 #@! TD.AperFunction*
G04 #@! TA.AperFunction,SMDPad,CuDef*
G36*
X41974505Y-128051204D02*
G01*
X41998773Y-128054804D01*
X42022572Y-128060765D01*
X42045671Y-128069030D01*
X42067850Y-128079520D01*
X42088893Y-128092132D01*
X42108599Y-128106747D01*
X42126777Y-128123223D01*
X42143253Y-128141401D01*
X42157868Y-128161107D01*
X42170480Y-128182150D01*
X42180970Y-128204329D01*
X42189235Y-128227428D01*
X42195196Y-128251227D01*
X42198796Y-128275495D01*
X42200000Y-128299999D01*
X42200000Y-128950001D01*
X42198796Y-128974505D01*
X42195196Y-128998773D01*
X42189235Y-129022572D01*
X42180970Y-129045671D01*
X42170480Y-129067850D01*
X42157868Y-129088893D01*
X42143253Y-129108599D01*
X42126777Y-129126777D01*
X42108599Y-129143253D01*
X42088893Y-129157868D01*
X42067850Y-129170480D01*
X42045671Y-129180970D01*
X42022572Y-129189235D01*
X41998773Y-129195196D01*
X41974505Y-129198796D01*
X41950001Y-129200000D01*
X41049999Y-129200000D01*
X41025495Y-129198796D01*
X41001227Y-129195196D01*
X40977428Y-129189235D01*
X40954329Y-129180970D01*
X40932150Y-129170480D01*
X40911107Y-129157868D01*
X40891401Y-129143253D01*
X40873223Y-129126777D01*
X40856747Y-129108599D01*
X40842132Y-129088893D01*
X40829520Y-129067850D01*
X40819030Y-129045671D01*
X40810765Y-129022572D01*
X40804804Y-128998773D01*
X40801204Y-128974505D01*
X40800000Y-128950001D01*
X40800000Y-128299999D01*
X40801204Y-128275495D01*
X40804804Y-128251227D01*
X40810765Y-128227428D01*
X40819030Y-128204329D01*
X40829520Y-128182150D01*
X40842132Y-128161107D01*
X40856747Y-128141401D01*
X40873223Y-128123223D01*
X40891401Y-128106747D01*
X40911107Y-128092132D01*
X40932150Y-128079520D01*
X40954329Y-128069030D01*
X40977428Y-128060765D01*
X41001227Y-128054804D01*
X41025495Y-128051204D01*
X41049999Y-128050000D01*
X41950001Y-128050000D01*
X41974505Y-128051204D01*
G37*
G04 #@! TD.AperFunction*
D20*
X51841300Y-84359600D03*
X39750000Y-83250000D03*
X62300000Y-88500000D03*
X45700000Y-127900000D03*
X41000000Y-129800000D03*
X49800000Y-112100000D03*
X36300000Y-115800000D03*
X36300000Y-112900000D03*
X29000000Y-112900000D03*
X32100000Y-115700000D03*
X60814800Y-101102200D03*
X50950900Y-98536700D03*
X39386400Y-126575000D03*
X53519300Y-126575000D03*
X47676400Y-95705900D03*
X49692900Y-95321700D03*
X40256600Y-91657000D03*
X39821000Y-90420100D03*
X38470400Y-91904300D03*
X52893300Y-104552900D03*
X53464400Y-115480900D03*
X52985300Y-109832100D03*
X53662600Y-89748600D03*
X54350000Y-87228300D03*
X54681400Y-93939000D03*
X55137700Y-92932600D03*
X59256000Y-104555900D03*
X58011900Y-103724100D03*
X52278900Y-107432300D03*
X49919300Y-98821300D03*
X58205700Y-88242600D03*
X51505400Y-106580900D03*
X40261600Y-113960000D03*
X40168300Y-100191700D03*
X53724800Y-95505500D03*
X61380500Y-97514600D03*
X64915500Y-94319500D03*
X66727700Y-93815700D03*
X47181400Y-107405800D03*
X47301000Y-106405500D03*
X47796600Y-108205300D03*
X46489900Y-105106800D03*
X54585300Y-113119700D03*
X52824400Y-111588900D03*
X50911300Y-109390200D03*
X56539300Y-103503000D03*
X59196800Y-109125700D03*
X53976200Y-111655300D03*
X56825000Y-111224700D03*
D21*
X41600000Y-128625000D02*
X30875000Y-128625000D01*
X30875000Y-128625000D02*
X28100000Y-131400000D01*
X48500000Y-128625000D02*
X41600000Y-128625000D01*
X51841300Y-84359600D02*
X59940400Y-84359600D01*
X59940400Y-84359600D02*
X60950500Y-85369700D01*
X34000000Y-84250000D02*
X51731700Y-84250000D01*
X51731700Y-84250000D02*
X51841300Y-84359600D01*
X60950500Y-85369700D02*
X60950500Y-88420200D01*
X64900000Y-81600000D02*
X61130300Y-85369700D01*
X61130300Y-85369700D02*
X60950500Y-85369700D01*
X28100000Y-81600000D02*
X30750000Y-84250000D01*
X30750000Y-84250000D02*
X34000000Y-84250000D01*
X38397300Y-115178000D02*
X35775300Y-117800000D01*
X55250000Y-104250000D02*
X56857400Y-104250000D01*
X56857400Y-104250000D02*
X57286600Y-103820800D01*
X57286600Y-103820800D02*
X57286600Y-103389200D01*
X57286600Y-103389200D02*
X57714000Y-102961800D01*
X57714000Y-102961800D02*
X58688600Y-102961800D01*
X58688600Y-102961800D02*
X59981300Y-104254500D01*
X59981300Y-104254500D02*
X59981300Y-105301700D01*
X59981300Y-105301700D02*
X56533000Y-108750000D01*
X56533000Y-108750000D02*
X55250000Y-108750000D01*
X54274700Y-108750000D02*
X54135300Y-108610600D01*
X54135300Y-108610600D02*
X50302800Y-108610600D01*
X50302800Y-108610600D02*
X46413400Y-112500000D01*
X46413400Y-112500000D02*
X43850000Y-112500000D01*
X55250000Y-108750000D02*
X54274700Y-108750000D01*
X42850000Y-112500000D02*
X43850000Y-112500000D01*
X34600000Y-117800000D02*
X35775300Y-117800000D01*
X48500000Y-128625000D02*
X48500000Y-131000000D01*
X48500000Y-128625000D02*
X51000000Y-128625000D01*
X48500000Y-128625000D02*
X48500000Y-124500000D01*
X60814800Y-101102200D02*
X59788000Y-100075400D01*
X59788000Y-100075400D02*
X52489600Y-100075400D01*
X52489600Y-100075400D02*
X50950900Y-98536700D01*
X41600000Y-126575000D02*
X39386400Y-126575000D01*
X51000000Y-126575000D02*
X53519300Y-126575000D01*
X43850000Y-100500000D02*
X43850000Y-99499700D01*
X47676400Y-95705900D02*
X43882600Y-99499700D01*
X43882600Y-99499700D02*
X43850000Y-99499700D01*
X43850000Y-100500000D02*
X42850000Y-100500000D01*
X43850000Y-102500000D02*
X45075300Y-102500000D01*
X49692900Y-95321700D02*
X45075300Y-99939300D01*
X45075300Y-99939300D02*
X45075300Y-102500000D01*
X43850000Y-102500000D02*
X42850000Y-102500000D01*
X45075300Y-106500000D02*
X45075300Y-103138900D01*
X45075300Y-103138900D02*
X48067800Y-100146400D01*
X48067800Y-100146400D02*
X48067800Y-97972600D01*
X48067800Y-97972600D02*
X50418200Y-95622200D01*
X50418200Y-95622200D02*
X50418200Y-95014100D01*
X50418200Y-95014100D02*
X47061100Y-91657000D01*
X47061100Y-91657000D02*
X40256600Y-91657000D01*
X43850000Y-106500000D02*
X45075300Y-106500000D01*
X42850000Y-106500000D02*
X43850000Y-106500000D01*
X42850000Y-108500000D02*
X41849700Y-107499700D01*
X41849700Y-107499700D02*
X41849700Y-94315700D01*
X41849700Y-94315700D02*
X39468800Y-91934800D01*
X39468800Y-91934800D02*
X39468800Y-90772300D01*
X39468800Y-90772300D02*
X39821000Y-90420100D01*
X45075300Y-108500000D02*
X46017300Y-109442000D01*
X46017300Y-109442000D02*
X48222900Y-109442000D01*
X48222900Y-109442000D02*
X49489200Y-108175700D01*
X49489200Y-108175700D02*
X49489200Y-107538800D01*
X49489200Y-107538800D02*
X51221700Y-105806300D01*
X51221700Y-105806300D02*
X52411200Y-105806300D01*
X52411200Y-105806300D02*
X52854900Y-106250000D01*
X52854900Y-106250000D02*
X55250000Y-106250000D01*
X43850000Y-108500000D02*
X45075300Y-108500000D01*
X43237400Y-108500000D02*
X43850000Y-108500000D01*
X43237400Y-108500000D02*
X42850000Y-108500000D01*
X38470400Y-91904300D02*
X38152000Y-91904300D01*
X38152000Y-91904300D02*
X36740800Y-93315500D01*
X36740800Y-93315500D02*
X36740800Y-95474500D01*
X36740800Y-95474500D02*
X41275800Y-100009500D01*
X41275800Y-100009500D02*
X41275800Y-108925800D01*
X41275800Y-108925800D02*
X42850000Y-110500000D01*
X55250000Y-105750000D02*
X53005200Y-105750000D01*
X53005200Y-105750000D02*
X52611100Y-105355900D01*
X52611100Y-105355900D02*
X51026100Y-105355900D01*
X51026100Y-105355900D02*
X48879600Y-107502400D01*
X48879600Y-107502400D02*
X48879600Y-108148400D01*
X48879600Y-108148400D02*
X48089000Y-108939000D01*
X48089000Y-108939000D02*
X46930300Y-108939000D01*
X46930300Y-108939000D02*
X45761600Y-107770300D01*
X45761600Y-107770300D02*
X45761600Y-103503200D01*
X45761600Y-103503200D02*
X48743200Y-100521600D01*
X48743200Y-100521600D02*
X48743200Y-98896200D01*
X48743200Y-98896200D02*
X50868500Y-96770900D01*
X50868500Y-96770900D02*
X50868500Y-94723700D01*
X50868500Y-94723700D02*
X45828400Y-89683600D01*
X45828400Y-89683600D02*
X39487600Y-89683600D01*
X39487600Y-89683600D02*
X38470400Y-90700800D01*
X38470400Y-90700800D02*
X38470400Y-91904300D01*
X43237400Y-110500000D02*
X43850000Y-110500000D01*
X43237400Y-110500000D02*
X42850000Y-110500000D01*
X52893300Y-104552900D02*
X54077600Y-104552900D01*
X54077600Y-104552900D02*
X54274700Y-104750000D01*
X42850000Y-114500000D02*
X41721600Y-115628400D01*
X41721600Y-115628400D02*
X39480300Y-115628400D01*
X39480300Y-115628400D02*
X36133400Y-118975300D01*
X36133400Y-118975300D02*
X31503200Y-118975300D01*
X31503200Y-118975300D02*
X30695300Y-118167400D01*
X30695300Y-118167400D02*
X30695300Y-117800000D01*
X42850000Y-114500000D02*
X43850000Y-114500000D01*
X29520000Y-117800000D02*
X30695300Y-117800000D01*
X52049200Y-114500000D02*
X52483500Y-114500000D01*
X52483500Y-114500000D02*
X53464400Y-115480900D01*
X52049200Y-114500000D02*
X52049200Y-110768200D01*
X52049200Y-110768200D02*
X52985300Y-109832100D01*
X44962700Y-114500000D02*
X52049200Y-114500000D01*
X55250000Y-105250000D02*
X54274700Y-105250000D01*
X54274700Y-104750000D02*
X54274700Y-105250000D01*
X55250000Y-104750000D02*
X54274700Y-104750000D01*
X43850000Y-114500000D02*
X44962700Y-114500000D01*
X28155300Y-117800000D02*
X28155300Y-118167300D01*
X28155300Y-118167300D02*
X29463700Y-119475700D01*
X29463700Y-119475700D02*
X36309200Y-119475700D01*
X36309200Y-119475700D02*
X39392100Y-116392800D01*
X39392100Y-116392800D02*
X53612200Y-116392800D01*
X53612200Y-116392800D02*
X60444300Y-109560700D01*
X60444300Y-109560700D02*
X60444300Y-107323900D01*
X60444300Y-107323900D02*
X61578700Y-106189500D01*
X61578700Y-106189500D02*
X61578700Y-99375400D01*
X61578700Y-99375400D02*
X59917100Y-97713800D01*
X59917100Y-97713800D02*
X59917100Y-96003100D01*
X59917100Y-96003100D02*
X53662600Y-89748600D01*
X26980000Y-117800000D02*
X28155300Y-117800000D01*
X54350000Y-87228300D02*
X58278600Y-87228300D01*
X58278600Y-87228300D02*
X60367500Y-89317200D01*
X60367500Y-89317200D02*
X60367500Y-97527300D01*
X60367500Y-97527300D02*
X62082200Y-99242000D01*
X62082200Y-99242000D02*
X62082200Y-106527700D01*
X62082200Y-106527700D02*
X60924400Y-107685500D01*
X60924400Y-107685500D02*
X60924400Y-114187500D01*
X60924400Y-114187500D02*
X53491700Y-121620200D01*
X53491700Y-121620200D02*
X52377100Y-121620200D01*
X52377100Y-121620200D02*
X52377100Y-121620300D01*
X52377100Y-121620300D02*
X29068400Y-121620300D01*
X29068400Y-121620300D02*
X25615300Y-118167200D01*
X25615300Y-118167200D02*
X25615300Y-117800000D01*
X24440000Y-117800000D02*
X25615300Y-117800000D01*
X54681400Y-93939000D02*
X48992400Y-88250000D01*
X48992400Y-88250000D02*
X35000300Y-88250000D01*
X34000000Y-88250000D02*
X35000300Y-88250000D01*
X34000000Y-86250000D02*
X35000300Y-86250000D01*
X55137700Y-92932600D02*
X48455100Y-86250000D01*
X48455100Y-86250000D02*
X35000300Y-86250000D01*
X59256000Y-104555900D02*
X59256000Y-105373200D01*
X59256000Y-105373200D02*
X56379200Y-108250000D01*
X56379200Y-108250000D02*
X55250000Y-108250000D01*
X56225300Y-107750000D02*
X58011900Y-105963400D01*
X58011900Y-105963400D02*
X58011900Y-103724100D01*
X55250000Y-107750000D02*
X56225300Y-107750000D01*
X49919300Y-98821300D02*
X49919400Y-98821300D01*
X49919400Y-98821300D02*
X49919400Y-98533400D01*
X49919400Y-98533400D02*
X52222000Y-96230800D01*
X52222000Y-96230800D02*
X54025300Y-96230800D01*
X54025300Y-96230800D02*
X55863000Y-94393100D01*
X55863000Y-94393100D02*
X55863000Y-92632100D01*
X55863000Y-92632100D02*
X54016500Y-90785600D01*
X54016500Y-90785600D02*
X53673900Y-90785600D01*
X53673900Y-90785600D02*
X52937300Y-90049000D01*
X52937300Y-90049000D02*
X52937300Y-89448200D01*
X52937300Y-89448200D02*
X54142900Y-88242600D01*
X54142900Y-88242600D02*
X58205700Y-88242600D01*
X55250000Y-107250000D02*
X52461200Y-107250000D01*
X52461200Y-107250000D02*
X52278900Y-107432300D01*
X51505400Y-106580900D02*
X51631400Y-106706900D01*
X51631400Y-106706900D02*
X52688300Y-106706900D01*
X52688300Y-106706900D02*
X52731400Y-106750000D01*
X52731400Y-106750000D02*
X55250000Y-106750000D01*
X40261600Y-113960000D02*
X40825400Y-113396200D01*
X40825400Y-113396200D02*
X40825400Y-100848800D01*
X40825400Y-100848800D02*
X40168300Y-100191700D01*
X53724800Y-95505500D02*
X47403400Y-89184100D01*
X47403400Y-89184100D02*
X37989100Y-89184100D01*
X37989100Y-89184100D02*
X37917300Y-89255900D01*
X37917300Y-89255900D02*
X31255900Y-89255900D01*
X31255900Y-89255900D02*
X28100000Y-86100000D01*
X28100000Y-86100000D02*
X21600000Y-86100000D01*
X64900000Y-86100000D02*
X71400000Y-86100000D01*
X28100000Y-126900000D02*
X21600000Y-126900000D01*
X61380500Y-97514600D02*
X62532600Y-98666700D01*
X62532600Y-98666700D02*
X62532600Y-106807300D01*
X62532600Y-106807300D02*
X61374700Y-107965200D01*
X61374700Y-107965200D02*
X61374700Y-114374100D01*
X61374700Y-114374100D02*
X53295700Y-122453100D01*
X53295700Y-122453100D02*
X32546900Y-122453100D01*
X32546900Y-122453100D02*
X28100000Y-126900000D01*
X67482600Y-125336800D02*
X69836800Y-125336800D01*
X69836800Y-125336800D02*
X71400000Y-126900000D01*
X64900000Y-126900000D02*
X66463200Y-125336800D01*
X66463200Y-125336800D02*
X67482600Y-125336800D01*
X64915500Y-94319500D02*
X66153100Y-93081900D01*
X66153100Y-93081900D02*
X67113300Y-93081900D01*
X67113300Y-93081900D02*
X67482600Y-93451200D01*
X67482600Y-93451200D02*
X67482600Y-125336800D01*
X44000000Y-124500000D02*
X45397300Y-123102700D01*
X45397300Y-123102700D02*
X56517200Y-123102700D01*
X56517200Y-123102700D02*
X61869700Y-117750200D01*
X61869700Y-117750200D02*
X61969300Y-117750200D01*
X61969300Y-117750200D02*
X66846400Y-112873100D01*
X66846400Y-112873100D02*
X66846400Y-93934400D01*
X66846400Y-93934400D02*
X66727700Y-93815700D01*
X55250000Y-103750000D02*
X51025200Y-103750000D01*
X51025200Y-103750000D02*
X47369400Y-107405800D01*
X47369400Y-107405800D02*
X47181400Y-107405800D01*
X55250000Y-103250000D02*
X50456500Y-103250000D01*
X50456500Y-103250000D02*
X47301000Y-106405500D01*
X55250000Y-102750000D02*
X49921800Y-102750000D01*
X49921800Y-102750000D02*
X46456100Y-106215700D01*
X46456100Y-106215700D02*
X46456100Y-107766500D01*
X46456100Y-107766500D02*
X46894900Y-108205300D01*
X46894900Y-108205300D02*
X47796600Y-108205300D01*
X55250000Y-101750000D02*
X49846700Y-101750000D01*
X49846700Y-101750000D02*
X46489900Y-105106800D01*
X54585300Y-113119700D02*
X56228600Y-113119700D01*
X56228600Y-113119700D02*
X59922100Y-109426200D01*
X59922100Y-109426200D02*
X59922100Y-107168900D01*
X59922100Y-107168900D02*
X60903800Y-106187200D01*
X60903800Y-106187200D02*
X60903800Y-103871800D01*
X60903800Y-103871800D02*
X57782000Y-100750000D01*
X57782000Y-100750000D02*
X55250000Y-100750000D01*
X55250000Y-110750000D02*
X53663300Y-110750000D01*
X53663300Y-110750000D02*
X52824400Y-111588900D01*
X54274700Y-110250000D02*
X54274700Y-110091000D01*
X54274700Y-110091000D02*
X53290400Y-109106700D01*
X53290400Y-109106700D02*
X51194800Y-109106700D01*
X51194800Y-109106700D02*
X50911300Y-109390200D01*
X55250000Y-110250000D02*
X54274700Y-110250000D01*
X55250000Y-102250000D02*
X56225300Y-102250000D01*
X56225300Y-102250000D02*
X56225300Y-103189000D01*
X56225300Y-103189000D02*
X56539300Y-103503000D01*
X59196800Y-109125700D02*
X59196800Y-107032300D01*
X59196800Y-107032300D02*
X60453500Y-105775600D01*
X60453500Y-105775600D02*
X60453500Y-104058400D01*
X60453500Y-104058400D02*
X57645100Y-101250000D01*
X57645100Y-101250000D02*
X55250000Y-101250000D01*
X54274700Y-111750000D02*
X54180000Y-111655300D01*
X54180000Y-111655300D02*
X53976200Y-111655300D01*
X55250000Y-111750000D02*
X54274700Y-111750000D01*
X55250000Y-111250000D02*
X56799700Y-111250000D01*
X56799700Y-111250000D02*
X56825000Y-111224700D01*
X43850000Y-104500000D02*
X42850000Y-104500000D01*
D22*
G36*
X66722601Y-124576800D02*
G01*
X66500525Y-124576800D01*
X66463200Y-124573124D01*
X66425875Y-124576800D01*
X66425867Y-124576800D01*
X66314214Y-124587797D01*
X66170953Y-124631254D01*
X66038924Y-124701826D01*
X65923199Y-124796799D01*
X65899401Y-124825797D01*
X65391375Y-125333823D01*
X65376912Y-125327832D01*
X65061033Y-125265000D01*
X64738967Y-125265000D01*
X64423088Y-125327832D01*
X64125537Y-125451082D01*
X63857748Y-125630013D01*
X63630013Y-125857748D01*
X63451082Y-126125537D01*
X63327832Y-126423088D01*
X63265000Y-126738967D01*
X63265000Y-127061033D01*
X63327832Y-127376912D01*
X63451082Y-127674463D01*
X63630013Y-127942252D01*
X63857748Y-128169987D01*
X64125537Y-128348918D01*
X64423088Y-128472168D01*
X64738967Y-128535000D01*
X65061033Y-128535000D01*
X65376912Y-128472168D01*
X65674463Y-128348918D01*
X65942252Y-128169987D01*
X66169987Y-127942252D01*
X66348918Y-127674463D01*
X66472168Y-127376912D01*
X66535000Y-127061033D01*
X66535000Y-126738967D01*
X66472168Y-126423088D01*
X66466177Y-126408625D01*
X66778002Y-126096800D01*
X67445267Y-126096800D01*
X67482600Y-126100477D01*
X67519933Y-126096800D01*
X69521999Y-126096800D01*
X69833823Y-126408624D01*
X69827832Y-126423088D01*
X69765000Y-126738967D01*
X69765000Y-127061033D01*
X69827832Y-127376912D01*
X69951082Y-127674463D01*
X70130013Y-127942252D01*
X70357748Y-128169987D01*
X70625537Y-128348918D01*
X70923088Y-128472168D01*
X71238967Y-128535000D01*
X71561033Y-128535000D01*
X71876912Y-128472168D01*
X72174463Y-128348918D01*
X72340000Y-128238309D01*
X72340000Y-130220942D01*
X72260044Y-130000186D01*
X71970429Y-129859296D01*
X71658892Y-129777616D01*
X71337405Y-129758282D01*
X71018325Y-129802039D01*
X70713912Y-129907205D01*
X70539956Y-130000186D01*
X70444192Y-130264587D01*
X71400000Y-131220395D01*
X71414143Y-131206253D01*
X71593748Y-131385858D01*
X71579605Y-131400000D01*
X71593748Y-131414143D01*
X71414143Y-131593748D01*
X71400000Y-131579605D01*
X71385858Y-131593748D01*
X71206253Y-131414143D01*
X71220395Y-131400000D01*
X70264587Y-130444192D01*
X70000186Y-130539956D01*
X69859296Y-130829571D01*
X69777616Y-131141108D01*
X69758282Y-131462595D01*
X69802039Y-131781675D01*
X69907205Y-132086088D01*
X70000186Y-132260044D01*
X70220942Y-132340000D01*
X66079058Y-132340000D01*
X66299814Y-132260044D01*
X66440704Y-131970429D01*
X66522384Y-131658892D01*
X66541718Y-131337405D01*
X66497961Y-131018325D01*
X66392795Y-130713912D01*
X66299814Y-130539956D01*
X66035413Y-130444192D01*
X65079605Y-131400000D01*
X65093748Y-131414143D01*
X64914143Y-131593748D01*
X64900000Y-131579605D01*
X64885858Y-131593748D01*
X64706253Y-131414143D01*
X64720395Y-131400000D01*
X63764587Y-130444192D01*
X63500186Y-130539956D01*
X63359296Y-130829571D01*
X63277616Y-131141108D01*
X63258282Y-131462595D01*
X63302039Y-131781675D01*
X63407205Y-132086088D01*
X63500186Y-132260044D01*
X63720942Y-132340000D01*
X49381708Y-132340000D01*
X49455808Y-132135413D01*
X48500000Y-131179605D01*
X47544192Y-132135413D01*
X47618292Y-132340000D01*
X44937470Y-132340000D01*
X45042252Y-132269987D01*
X45269987Y-132042252D01*
X45448918Y-131774463D01*
X45572168Y-131476912D01*
X45635000Y-131161033D01*
X45635000Y-131062595D01*
X46858282Y-131062595D01*
X46902039Y-131381675D01*
X47007205Y-131686088D01*
X47100186Y-131860044D01*
X47364587Y-131955808D01*
X48320395Y-131000000D01*
X48679605Y-131000000D01*
X49635413Y-131955808D01*
X49899814Y-131860044D01*
X50040704Y-131570429D01*
X50122384Y-131258892D01*
X50141718Y-130937405D01*
X50097961Y-130618325D01*
X49992795Y-130313912D01*
X49966431Y-130264587D01*
X63944192Y-130264587D01*
X64900000Y-131220395D01*
X65855808Y-130264587D01*
X65760044Y-130000186D01*
X65470429Y-129859296D01*
X65158892Y-129777616D01*
X64837405Y-129758282D01*
X64518325Y-129802039D01*
X64213912Y-129907205D01*
X64039956Y-130000186D01*
X63944192Y-130264587D01*
X49966431Y-130264587D01*
X49899814Y-130139956D01*
X49635413Y-130044192D01*
X48679605Y-131000000D01*
X48320395Y-131000000D01*
X47364587Y-130044192D01*
X47100186Y-130139956D01*
X46959296Y-130429571D01*
X46877616Y-130741108D01*
X46858282Y-131062595D01*
X45635000Y-131062595D01*
X45635000Y-130838967D01*
X45572168Y-130523088D01*
X45448918Y-130225537D01*
X45269987Y-129957748D01*
X45176826Y-129864587D01*
X47544192Y-129864587D01*
X48500000Y-130820395D01*
X49455808Y-129864587D01*
X49360044Y-129600186D01*
X49070429Y-129459296D01*
X48758892Y-129377616D01*
X48437405Y-129358282D01*
X48118325Y-129402039D01*
X47813912Y-129507205D01*
X47639956Y-129600186D01*
X47544192Y-129864587D01*
X45176826Y-129864587D01*
X45042252Y-129730013D01*
X44774463Y-129551082D01*
X44476912Y-129427832D01*
X44161033Y-129365000D01*
X43838967Y-129365000D01*
X43523088Y-129427832D01*
X43225537Y-129551082D01*
X42957748Y-129730013D01*
X42730013Y-129957748D01*
X42551082Y-130225537D01*
X42427832Y-130523088D01*
X42365000Y-130838967D01*
X42365000Y-131161033D01*
X42427832Y-131476912D01*
X42551082Y-131774463D01*
X42730013Y-132042252D01*
X42957748Y-132269987D01*
X43062530Y-132340000D01*
X29279058Y-132340000D01*
X29499814Y-132260044D01*
X29640704Y-131970429D01*
X29722384Y-131658892D01*
X29741718Y-131337405D01*
X29697961Y-131018325D01*
X29592795Y-130713912D01*
X29499814Y-130539956D01*
X29235413Y-130444192D01*
X28279605Y-131400000D01*
X28293748Y-131414143D01*
X28114143Y-131593748D01*
X28100000Y-131579605D01*
X28085858Y-131593748D01*
X27906253Y-131414143D01*
X27920395Y-131400000D01*
X26964587Y-130444192D01*
X26700186Y-130539956D01*
X26559296Y-130829571D01*
X26477616Y-131141108D01*
X26458282Y-131462595D01*
X26502039Y-131781675D01*
X26607205Y-132086088D01*
X26700186Y-132260044D01*
X26920942Y-132340000D01*
X22779058Y-132340000D01*
X22999814Y-132260044D01*
X23140704Y-131970429D01*
X23222384Y-131658892D01*
X23241718Y-131337405D01*
X23197961Y-131018325D01*
X23092795Y-130713912D01*
X22999814Y-130539956D01*
X22735413Y-130444192D01*
X21779605Y-131400000D01*
X21793748Y-131414143D01*
X21614143Y-131593748D01*
X21600000Y-131579605D01*
X21585858Y-131593748D01*
X21406253Y-131414143D01*
X21420395Y-131400000D01*
X21406253Y-131385858D01*
X21585858Y-131206253D01*
X21600000Y-131220395D01*
X22555808Y-130264587D01*
X27144192Y-130264587D01*
X28100000Y-131220395D01*
X29055808Y-130264587D01*
X28960044Y-130000186D01*
X28670429Y-129859296D01*
X28358892Y-129777616D01*
X28037405Y-129758282D01*
X27718325Y-129802039D01*
X27413912Y-129907205D01*
X27239956Y-130000186D01*
X27144192Y-130264587D01*
X22555808Y-130264587D01*
X22460044Y-130000186D01*
X22170429Y-129859296D01*
X21858892Y-129777616D01*
X21537405Y-129758282D01*
X21218325Y-129802039D01*
X20913912Y-129907205D01*
X20739956Y-130000186D01*
X20660000Y-130220942D01*
X20660000Y-129200000D01*
X40161928Y-129200000D01*
X40174188Y-129324482D01*
X40210498Y-129444180D01*
X40269463Y-129554494D01*
X40348815Y-129651185D01*
X40445506Y-129730537D01*
X40555820Y-129789502D01*
X40675518Y-129825812D01*
X40800000Y-129838072D01*
X41214250Y-129835000D01*
X41373000Y-129676250D01*
X41373000Y-128752000D01*
X41627000Y-128752000D01*
X41627000Y-129676250D01*
X41785750Y-129835000D01*
X42200000Y-129838072D01*
X42324482Y-129825812D01*
X42444180Y-129789502D01*
X42554494Y-129730537D01*
X42651185Y-129651185D01*
X42730537Y-129554494D01*
X42789502Y-129444180D01*
X42825812Y-129324482D01*
X42838072Y-129200000D01*
X49661928Y-129200000D01*
X49674188Y-129324482D01*
X49710498Y-129444180D01*
X49769463Y-129554494D01*
X49848815Y-129651185D01*
X49945506Y-129730537D01*
X50055820Y-129789502D01*
X50175518Y-129825812D01*
X50300000Y-129838072D01*
X50714250Y-129835000D01*
X50873000Y-129676250D01*
X50873000Y-128752000D01*
X51127000Y-128752000D01*
X51127000Y-129676250D01*
X51285750Y-129835000D01*
X51700000Y-129838072D01*
X51824482Y-129825812D01*
X51944180Y-129789502D01*
X52054494Y-129730537D01*
X52151185Y-129651185D01*
X52230537Y-129554494D01*
X52289502Y-129444180D01*
X52325812Y-129324482D01*
X52338072Y-129200000D01*
X52335000Y-128910750D01*
X52176250Y-128752000D01*
X51127000Y-128752000D01*
X50873000Y-128752000D01*
X49823750Y-128752000D01*
X49665000Y-128910750D01*
X49661928Y-129200000D01*
X42838072Y-129200000D01*
X42835000Y-128910750D01*
X42676250Y-128752000D01*
X41627000Y-128752000D01*
X41373000Y-128752000D01*
X40323750Y-128752000D01*
X40165000Y-128910750D01*
X40161928Y-129200000D01*
X20660000Y-129200000D01*
X20660000Y-128238310D01*
X20825537Y-128348918D01*
X21123088Y-128472168D01*
X21438967Y-128535000D01*
X21761033Y-128535000D01*
X22076912Y-128472168D01*
X22374463Y-128348918D01*
X22642252Y-128169987D01*
X22869987Y-127942252D01*
X23048918Y-127674463D01*
X23054909Y-127660000D01*
X26645091Y-127660000D01*
X26651082Y-127674463D01*
X26830013Y-127942252D01*
X27057748Y-128169987D01*
X27325537Y-128348918D01*
X27623088Y-128472168D01*
X27938967Y-128535000D01*
X28261033Y-128535000D01*
X28576912Y-128472168D01*
X28874463Y-128348918D01*
X29142252Y-128169987D01*
X29369987Y-127942252D01*
X29548918Y-127674463D01*
X29672168Y-127376912D01*
X29735000Y-127061033D01*
X29735000Y-126738967D01*
X29682109Y-126473061D01*
X38351400Y-126473061D01*
X38351400Y-126676939D01*
X38391174Y-126876898D01*
X38469195Y-127065256D01*
X38582463Y-127234774D01*
X38726626Y-127378937D01*
X38896144Y-127492205D01*
X39084502Y-127570226D01*
X39284461Y-127610000D01*
X39488339Y-127610000D01*
X39688298Y-127570226D01*
X39876656Y-127492205D01*
X40046174Y-127378937D01*
X40090111Y-127335000D01*
X40280386Y-127335000D01*
X40311595Y-127393387D01*
X40422038Y-127527962D01*
X40428594Y-127533342D01*
X40348815Y-127598815D01*
X40269463Y-127695506D01*
X40210498Y-127805820D01*
X40174188Y-127925518D01*
X40161928Y-128050000D01*
X40165000Y-128339250D01*
X40323750Y-128498000D01*
X41373000Y-128498000D01*
X41373000Y-128478000D01*
X41627000Y-128478000D01*
X41627000Y-128498000D01*
X42676250Y-128498000D01*
X42835000Y-128339250D01*
X42838072Y-128050000D01*
X42825812Y-127925518D01*
X42789502Y-127805820D01*
X42730537Y-127695506D01*
X42651185Y-127598815D01*
X42571406Y-127533342D01*
X42577962Y-127527962D01*
X42688405Y-127393387D01*
X42770472Y-127239851D01*
X42821008Y-127073255D01*
X42838072Y-126900001D01*
X42838072Y-126249999D01*
X49661928Y-126249999D01*
X49661928Y-126900001D01*
X49678992Y-127073255D01*
X49729528Y-127239851D01*
X49811595Y-127393387D01*
X49922038Y-127527962D01*
X49928594Y-127533342D01*
X49848815Y-127598815D01*
X49769463Y-127695506D01*
X49710498Y-127805820D01*
X49674188Y-127925518D01*
X49661928Y-128050000D01*
X49665000Y-128339250D01*
X49823750Y-128498000D01*
X50873000Y-128498000D01*
X50873000Y-128478000D01*
X51127000Y-128478000D01*
X51127000Y-128498000D01*
X52176250Y-128498000D01*
X52335000Y-128339250D01*
X52338072Y-128050000D01*
X52325812Y-127925518D01*
X52289502Y-127805820D01*
X52230537Y-127695506D01*
X52151185Y-127598815D01*
X52071406Y-127533342D01*
X52077962Y-127527962D01*
X52188405Y-127393387D01*
X52219614Y-127335000D01*
X52815589Y-127335000D01*
X52859526Y-127378937D01*
X53029044Y-127492205D01*
X53217402Y-127570226D01*
X53417361Y-127610000D01*
X53621239Y-127610000D01*
X53821198Y-127570226D01*
X54009556Y-127492205D01*
X54179074Y-127378937D01*
X54323237Y-127234774D01*
X54436505Y-127065256D01*
X54514526Y-126876898D01*
X54554300Y-126676939D01*
X54554300Y-126473061D01*
X54514526Y-126273102D01*
X54436505Y-126084744D01*
X54323237Y-125915226D01*
X54179074Y-125771063D01*
X54009556Y-125657795D01*
X53821198Y-125579774D01*
X53621239Y-125540000D01*
X53417361Y-125540000D01*
X53217402Y-125579774D01*
X53029044Y-125657795D01*
X52859526Y-125771063D01*
X52815589Y-125815000D01*
X52219614Y-125815000D01*
X52188405Y-125756613D01*
X52077962Y-125622038D01*
X51943387Y-125511595D01*
X51789851Y-125429528D01*
X51623255Y-125378992D01*
X51450001Y-125361928D01*
X50549999Y-125361928D01*
X50376745Y-125378992D01*
X50210149Y-125429528D01*
X50056613Y-125511595D01*
X49922038Y-125622038D01*
X49811595Y-125756613D01*
X49729528Y-125910149D01*
X49678992Y-126076745D01*
X49661928Y-126249999D01*
X42838072Y-126249999D01*
X42821008Y-126076745D01*
X42770472Y-125910149D01*
X42688405Y-125756613D01*
X42577962Y-125622038D01*
X42443387Y-125511595D01*
X42289851Y-125429528D01*
X42123255Y-125378992D01*
X41950001Y-125361928D01*
X41049999Y-125361928D01*
X40876745Y-125378992D01*
X40710149Y-125429528D01*
X40556613Y-125511595D01*
X40422038Y-125622038D01*
X40311595Y-125756613D01*
X40280386Y-125815000D01*
X40090111Y-125815000D01*
X40046174Y-125771063D01*
X39876656Y-125657795D01*
X39688298Y-125579774D01*
X39488339Y-125540000D01*
X39284461Y-125540000D01*
X39084502Y-125579774D01*
X38896144Y-125657795D01*
X38726626Y-125771063D01*
X38582463Y-125915226D01*
X38469195Y-126084744D01*
X38391174Y-126273102D01*
X38351400Y-126473061D01*
X29682109Y-126473061D01*
X29672168Y-126423088D01*
X29666177Y-126408624D01*
X32861702Y-123213100D01*
X42983060Y-123213100D01*
X42957748Y-123230013D01*
X42730013Y-123457748D01*
X42551082Y-123725537D01*
X42427832Y-124023088D01*
X42365000Y-124338967D01*
X42365000Y-124661033D01*
X42427832Y-124976912D01*
X42551082Y-125274463D01*
X42730013Y-125542252D01*
X42957748Y-125769987D01*
X43225537Y-125948918D01*
X43523088Y-126072168D01*
X43838967Y-126135000D01*
X44161033Y-126135000D01*
X44476912Y-126072168D01*
X44774463Y-125948918D01*
X45042252Y-125769987D01*
X45176826Y-125635413D01*
X47544192Y-125635413D01*
X47639956Y-125899814D01*
X47929571Y-126040704D01*
X48241108Y-126122384D01*
X48562595Y-126141718D01*
X48881675Y-126097961D01*
X49186088Y-125992795D01*
X49360044Y-125899814D01*
X49455808Y-125635413D01*
X48500000Y-124679605D01*
X47544192Y-125635413D01*
X45176826Y-125635413D01*
X45269987Y-125542252D01*
X45448918Y-125274463D01*
X45572168Y-124976912D01*
X45635000Y-124661033D01*
X45635000Y-124338967D01*
X45572168Y-124023088D01*
X45566177Y-124008625D01*
X45712102Y-123862700D01*
X46991827Y-123862700D01*
X46959296Y-123929571D01*
X46877616Y-124241108D01*
X46858282Y-124562595D01*
X46902039Y-124881675D01*
X47007205Y-125186088D01*
X47100186Y-125360044D01*
X47364587Y-125455808D01*
X48320395Y-124500000D01*
X48306253Y-124485858D01*
X48485858Y-124306253D01*
X48500000Y-124320395D01*
X48514143Y-124306253D01*
X48693748Y-124485858D01*
X48679605Y-124500000D01*
X49635413Y-125455808D01*
X49899814Y-125360044D01*
X50040704Y-125070429D01*
X50122384Y-124758892D01*
X50141718Y-124437405D01*
X50097961Y-124118325D01*
X50009650Y-123862700D01*
X56479878Y-123862700D01*
X56517200Y-123866376D01*
X56554522Y-123862700D01*
X56554533Y-123862700D01*
X56666186Y-123851703D01*
X56809447Y-123808246D01*
X56941476Y-123737674D01*
X57057201Y-123642701D01*
X57081004Y-123613697D01*
X60175623Y-120519079D01*
X60180377Y-120542981D01*
X60346544Y-120944144D01*
X60587782Y-121305181D01*
X60894819Y-121612218D01*
X61255856Y-121853456D01*
X61657019Y-122019623D01*
X62082892Y-122104334D01*
X62517108Y-122104334D01*
X62942981Y-122019623D01*
X63344144Y-121853456D01*
X63705181Y-121612218D01*
X64012218Y-121305181D01*
X64253456Y-120944144D01*
X64419623Y-120542981D01*
X64504334Y-120117108D01*
X64504334Y-119682892D01*
X64419623Y-119257019D01*
X64253456Y-118855856D01*
X64012218Y-118494819D01*
X63705181Y-118187782D01*
X63344144Y-117946544D01*
X62993145Y-117801156D01*
X66722601Y-114071701D01*
X66722601Y-124576800D01*
G37*
X66722601Y-124576800D02*
X66500525Y-124576800D01*
X66463200Y-124573124D01*
X66425875Y-124576800D01*
X66425867Y-124576800D01*
X66314214Y-124587797D01*
X66170953Y-124631254D01*
X66038924Y-124701826D01*
X65923199Y-124796799D01*
X65899401Y-124825797D01*
X65391375Y-125333823D01*
X65376912Y-125327832D01*
X65061033Y-125265000D01*
X64738967Y-125265000D01*
X64423088Y-125327832D01*
X64125537Y-125451082D01*
X63857748Y-125630013D01*
X63630013Y-125857748D01*
X63451082Y-126125537D01*
X63327832Y-126423088D01*
X63265000Y-126738967D01*
X63265000Y-127061033D01*
X63327832Y-127376912D01*
X63451082Y-127674463D01*
X63630013Y-127942252D01*
X63857748Y-128169987D01*
X64125537Y-128348918D01*
X64423088Y-128472168D01*
X64738967Y-128535000D01*
X65061033Y-128535000D01*
X65376912Y-128472168D01*
X65674463Y-128348918D01*
X65942252Y-128169987D01*
X66169987Y-127942252D01*
X66348918Y-127674463D01*
X66472168Y-127376912D01*
X66535000Y-127061033D01*
X66535000Y-126738967D01*
X66472168Y-126423088D01*
X66466177Y-126408625D01*
X66778002Y-126096800D01*
X67445267Y-126096800D01*
X67482600Y-126100477D01*
X67519933Y-126096800D01*
X69521999Y-126096800D01*
X69833823Y-126408624D01*
X69827832Y-126423088D01*
X69765000Y-126738967D01*
X69765000Y-127061033D01*
X69827832Y-127376912D01*
X69951082Y-127674463D01*
X70130013Y-127942252D01*
X70357748Y-128169987D01*
X70625537Y-128348918D01*
X70923088Y-128472168D01*
X71238967Y-128535000D01*
X71561033Y-128535000D01*
X71876912Y-128472168D01*
X72174463Y-128348918D01*
X72340000Y-128238309D01*
X72340000Y-130220942D01*
X72260044Y-130000186D01*
X71970429Y-129859296D01*
X71658892Y-129777616D01*
X71337405Y-129758282D01*
X71018325Y-129802039D01*
X70713912Y-129907205D01*
X70539956Y-130000186D01*
X70444192Y-130264587D01*
X71400000Y-131220395D01*
X71414143Y-131206253D01*
X71593748Y-131385858D01*
X71579605Y-131400000D01*
X71593748Y-131414143D01*
X71414143Y-131593748D01*
X71400000Y-131579605D01*
X71385858Y-131593748D01*
X71206253Y-131414143D01*
X71220395Y-131400000D01*
X70264587Y-130444192D01*
X70000186Y-130539956D01*
X69859296Y-130829571D01*
X69777616Y-131141108D01*
X69758282Y-131462595D01*
X69802039Y-131781675D01*
X69907205Y-132086088D01*
X70000186Y-132260044D01*
X70220942Y-132340000D01*
X66079058Y-132340000D01*
X66299814Y-132260044D01*
X66440704Y-131970429D01*
X66522384Y-131658892D01*
X66541718Y-131337405D01*
X66497961Y-131018325D01*
X66392795Y-130713912D01*
X66299814Y-130539956D01*
X66035413Y-130444192D01*
X65079605Y-131400000D01*
X65093748Y-131414143D01*
X64914143Y-131593748D01*
X64900000Y-131579605D01*
X64885858Y-131593748D01*
X64706253Y-131414143D01*
X64720395Y-131400000D01*
X63764587Y-130444192D01*
X63500186Y-130539956D01*
X63359296Y-130829571D01*
X63277616Y-131141108D01*
X63258282Y-131462595D01*
X63302039Y-131781675D01*
X63407205Y-132086088D01*
X63500186Y-132260044D01*
X63720942Y-132340000D01*
X49381708Y-132340000D01*
X49455808Y-132135413D01*
X48500000Y-131179605D01*
X47544192Y-132135413D01*
X47618292Y-132340000D01*
X44937470Y-132340000D01*
X45042252Y-132269987D01*
X45269987Y-132042252D01*
X45448918Y-131774463D01*
X45572168Y-131476912D01*
X45635000Y-131161033D01*
X45635000Y-131062595D01*
X46858282Y-131062595D01*
X46902039Y-131381675D01*
X47007205Y-131686088D01*
X47100186Y-131860044D01*
X47364587Y-131955808D01*
X48320395Y-131000000D01*
X48679605Y-131000000D01*
X49635413Y-131955808D01*
X49899814Y-131860044D01*
X50040704Y-131570429D01*
X50122384Y-131258892D01*
X50141718Y-130937405D01*
X50097961Y-130618325D01*
X49992795Y-130313912D01*
X49966431Y-130264587D01*
X63944192Y-130264587D01*
X64900000Y-131220395D01*
X65855808Y-130264587D01*
X65760044Y-130000186D01*
X65470429Y-129859296D01*
X65158892Y-129777616D01*
X64837405Y-129758282D01*
X64518325Y-129802039D01*
X64213912Y-129907205D01*
X64039956Y-130000186D01*
X63944192Y-130264587D01*
X49966431Y-130264587D01*
X49899814Y-130139956D01*
X49635413Y-130044192D01*
X48679605Y-131000000D01*
X48320395Y-131000000D01*
X47364587Y-130044192D01*
X47100186Y-130139956D01*
X46959296Y-130429571D01*
X46877616Y-130741108D01*
X46858282Y-131062595D01*
X45635000Y-131062595D01*
X45635000Y-130838967D01*
X45572168Y-130523088D01*
X45448918Y-130225537D01*
X45269987Y-129957748D01*
X45176826Y-129864587D01*
X47544192Y-129864587D01*
X48500000Y-130820395D01*
X49455808Y-129864587D01*
X49360044Y-129600186D01*
X49070429Y-129459296D01*
X48758892Y-129377616D01*
X48437405Y-129358282D01*
X48118325Y-129402039D01*
X47813912Y-129507205D01*
X47639956Y-129600186D01*
X47544192Y-129864587D01*
X45176826Y-129864587D01*
X45042252Y-129730013D01*
X44774463Y-129551082D01*
X44476912Y-129427832D01*
X44161033Y-129365000D01*
X43838967Y-129365000D01*
X43523088Y-129427832D01*
X43225537Y-129551082D01*
X42957748Y-129730013D01*
X42730013Y-129957748D01*
X42551082Y-130225537D01*
X42427832Y-130523088D01*
X42365000Y-130838967D01*
X42365000Y-131161033D01*
X42427832Y-131476912D01*
X42551082Y-131774463D01*
X42730013Y-132042252D01*
X42957748Y-132269987D01*
X43062530Y-132340000D01*
X29279058Y-132340000D01*
X29499814Y-132260044D01*
X29640704Y-131970429D01*
X29722384Y-131658892D01*
X29741718Y-131337405D01*
X29697961Y-131018325D01*
X29592795Y-130713912D01*
X29499814Y-130539956D01*
X29235413Y-130444192D01*
X28279605Y-131400000D01*
X28293748Y-131414143D01*
X28114143Y-131593748D01*
X28100000Y-131579605D01*
X28085858Y-131593748D01*
X27906253Y-131414143D01*
X27920395Y-131400000D01*
X26964587Y-130444192D01*
X26700186Y-130539956D01*
X26559296Y-130829571D01*
X26477616Y-131141108D01*
X26458282Y-131462595D01*
X26502039Y-131781675D01*
X26607205Y-132086088D01*
X26700186Y-132260044D01*
X26920942Y-132340000D01*
X22779058Y-132340000D01*
X22999814Y-132260044D01*
X23140704Y-131970429D01*
X23222384Y-131658892D01*
X23241718Y-131337405D01*
X23197961Y-131018325D01*
X23092795Y-130713912D01*
X22999814Y-130539956D01*
X22735413Y-130444192D01*
X21779605Y-131400000D01*
X21793748Y-131414143D01*
X21614143Y-131593748D01*
X21600000Y-131579605D01*
X21585858Y-131593748D01*
X21406253Y-131414143D01*
X21420395Y-131400000D01*
X21406253Y-131385858D01*
X21585858Y-131206253D01*
X21600000Y-131220395D01*
X22555808Y-130264587D01*
X27144192Y-130264587D01*
X28100000Y-131220395D01*
X29055808Y-130264587D01*
X28960044Y-130000186D01*
X28670429Y-129859296D01*
X28358892Y-129777616D01*
X28037405Y-129758282D01*
X27718325Y-129802039D01*
X27413912Y-129907205D01*
X27239956Y-130000186D01*
X27144192Y-130264587D01*
X22555808Y-130264587D01*
X22460044Y-130000186D01*
X22170429Y-129859296D01*
X21858892Y-129777616D01*
X21537405Y-129758282D01*
X21218325Y-129802039D01*
X20913912Y-129907205D01*
X20739956Y-130000186D01*
X20660000Y-130220942D01*
X20660000Y-129200000D01*
X40161928Y-129200000D01*
X40174188Y-129324482D01*
X40210498Y-129444180D01*
X40269463Y-129554494D01*
X40348815Y-129651185D01*
X40445506Y-129730537D01*
X40555820Y-129789502D01*
X40675518Y-129825812D01*
X40800000Y-129838072D01*
X41214250Y-129835000D01*
X41373000Y-129676250D01*
X41373000Y-128752000D01*
X41627000Y-128752000D01*
X41627000Y-129676250D01*
X41785750Y-129835000D01*
X42200000Y-129838072D01*
X42324482Y-129825812D01*
X42444180Y-129789502D01*
X42554494Y-129730537D01*
X42651185Y-129651185D01*
X42730537Y-129554494D01*
X42789502Y-129444180D01*
X42825812Y-129324482D01*
X42838072Y-129200000D01*
X49661928Y-129200000D01*
X49674188Y-129324482D01*
X49710498Y-129444180D01*
X49769463Y-129554494D01*
X49848815Y-129651185D01*
X49945506Y-129730537D01*
X50055820Y-129789502D01*
X50175518Y-129825812D01*
X50300000Y-129838072D01*
X50714250Y-129835000D01*
X50873000Y-129676250D01*
X50873000Y-128752000D01*
X51127000Y-128752000D01*
X51127000Y-129676250D01*
X51285750Y-129835000D01*
X51700000Y-129838072D01*
X51824482Y-129825812D01*
X51944180Y-129789502D01*
X52054494Y-129730537D01*
X52151185Y-129651185D01*
X52230537Y-129554494D01*
X52289502Y-129444180D01*
X52325812Y-129324482D01*
X52338072Y-129200000D01*
X52335000Y-128910750D01*
X52176250Y-128752000D01*
X51127000Y-128752000D01*
X50873000Y-128752000D01*
X49823750Y-128752000D01*
X49665000Y-128910750D01*
X49661928Y-129200000D01*
X42838072Y-129200000D01*
X42835000Y-128910750D01*
X42676250Y-128752000D01*
X41627000Y-128752000D01*
X41373000Y-128752000D01*
X40323750Y-128752000D01*
X40165000Y-128910750D01*
X40161928Y-129200000D01*
X20660000Y-129200000D01*
X20660000Y-128238310D01*
X20825537Y-128348918D01*
X21123088Y-128472168D01*
X21438967Y-128535000D01*
X21761033Y-128535000D01*
X22076912Y-128472168D01*
X22374463Y-128348918D01*
X22642252Y-128169987D01*
X22869987Y-127942252D01*
X23048918Y-127674463D01*
X23054909Y-127660000D01*
X26645091Y-127660000D01*
X26651082Y-127674463D01*
X26830013Y-127942252D01*
X27057748Y-128169987D01*
X27325537Y-128348918D01*
X27623088Y-128472168D01*
X27938967Y-128535000D01*
X28261033Y-128535000D01*
X28576912Y-128472168D01*
X28874463Y-128348918D01*
X29142252Y-128169987D01*
X29369987Y-127942252D01*
X29548918Y-127674463D01*
X29672168Y-127376912D01*
X29735000Y-127061033D01*
X29735000Y-126738967D01*
X29682109Y-126473061D01*
X38351400Y-126473061D01*
X38351400Y-126676939D01*
X38391174Y-126876898D01*
X38469195Y-127065256D01*
X38582463Y-127234774D01*
X38726626Y-127378937D01*
X38896144Y-127492205D01*
X39084502Y-127570226D01*
X39284461Y-127610000D01*
X39488339Y-127610000D01*
X39688298Y-127570226D01*
X39876656Y-127492205D01*
X40046174Y-127378937D01*
X40090111Y-127335000D01*
X40280386Y-127335000D01*
X40311595Y-127393387D01*
X40422038Y-127527962D01*
X40428594Y-127533342D01*
X40348815Y-127598815D01*
X40269463Y-127695506D01*
X40210498Y-127805820D01*
X40174188Y-127925518D01*
X40161928Y-128050000D01*
X40165000Y-128339250D01*
X40323750Y-128498000D01*
X41373000Y-128498000D01*
X41373000Y-128478000D01*
X41627000Y-128478000D01*
X41627000Y-128498000D01*
X42676250Y-128498000D01*
X42835000Y-128339250D01*
X42838072Y-128050000D01*
X42825812Y-127925518D01*
X42789502Y-127805820D01*
X42730537Y-127695506D01*
X42651185Y-127598815D01*
X42571406Y-127533342D01*
X42577962Y-127527962D01*
X42688405Y-127393387D01*
X42770472Y-127239851D01*
X42821008Y-127073255D01*
X42838072Y-126900001D01*
X42838072Y-126249999D01*
X49661928Y-126249999D01*
X49661928Y-126900001D01*
X49678992Y-127073255D01*
X49729528Y-127239851D01*
X49811595Y-127393387D01*
X49922038Y-127527962D01*
X49928594Y-127533342D01*
X49848815Y-127598815D01*
X49769463Y-127695506D01*
X49710498Y-127805820D01*
X49674188Y-127925518D01*
X49661928Y-128050000D01*
X49665000Y-128339250D01*
X49823750Y-128498000D01*
X50873000Y-128498000D01*
X50873000Y-128478000D01*
X51127000Y-128478000D01*
X51127000Y-128498000D01*
X52176250Y-128498000D01*
X52335000Y-128339250D01*
X52338072Y-128050000D01*
X52325812Y-127925518D01*
X52289502Y-127805820D01*
X52230537Y-127695506D01*
X52151185Y-127598815D01*
X52071406Y-127533342D01*
X52077962Y-127527962D01*
X52188405Y-127393387D01*
X52219614Y-127335000D01*
X52815589Y-127335000D01*
X52859526Y-127378937D01*
X53029044Y-127492205D01*
X53217402Y-127570226D01*
X53417361Y-127610000D01*
X53621239Y-127610000D01*
X53821198Y-127570226D01*
X54009556Y-127492205D01*
X54179074Y-127378937D01*
X54323237Y-127234774D01*
X54436505Y-127065256D01*
X54514526Y-126876898D01*
X54554300Y-126676939D01*
X54554300Y-126473061D01*
X54514526Y-126273102D01*
X54436505Y-126084744D01*
X54323237Y-125915226D01*
X54179074Y-125771063D01*
X54009556Y-125657795D01*
X53821198Y-125579774D01*
X53621239Y-125540000D01*
X53417361Y-125540000D01*
X53217402Y-125579774D01*
X53029044Y-125657795D01*
X52859526Y-125771063D01*
X52815589Y-125815000D01*
X52219614Y-125815000D01*
X52188405Y-125756613D01*
X52077962Y-125622038D01*
X51943387Y-125511595D01*
X51789851Y-125429528D01*
X51623255Y-125378992D01*
X51450001Y-125361928D01*
X50549999Y-125361928D01*
X50376745Y-125378992D01*
X50210149Y-125429528D01*
X50056613Y-125511595D01*
X49922038Y-125622038D01*
X49811595Y-125756613D01*
X49729528Y-125910149D01*
X49678992Y-126076745D01*
X49661928Y-126249999D01*
X42838072Y-126249999D01*
X42821008Y-126076745D01*
X42770472Y-125910149D01*
X42688405Y-125756613D01*
X42577962Y-125622038D01*
X42443387Y-125511595D01*
X42289851Y-125429528D01*
X42123255Y-125378992D01*
X41950001Y-125361928D01*
X41049999Y-125361928D01*
X40876745Y-125378992D01*
X40710149Y-125429528D01*
X40556613Y-125511595D01*
X40422038Y-125622038D01*
X40311595Y-125756613D01*
X40280386Y-125815000D01*
X40090111Y-125815000D01*
X40046174Y-125771063D01*
X39876656Y-125657795D01*
X39688298Y-125579774D01*
X39488339Y-125540000D01*
X39284461Y-125540000D01*
X39084502Y-125579774D01*
X38896144Y-125657795D01*
X38726626Y-125771063D01*
X38582463Y-125915226D01*
X38469195Y-126084744D01*
X38391174Y-126273102D01*
X38351400Y-126473061D01*
X29682109Y-126473061D01*
X29672168Y-126423088D01*
X29666177Y-126408624D01*
X32861702Y-123213100D01*
X42983060Y-123213100D01*
X42957748Y-123230013D01*
X42730013Y-123457748D01*
X42551082Y-123725537D01*
X42427832Y-124023088D01*
X42365000Y-124338967D01*
X42365000Y-124661033D01*
X42427832Y-124976912D01*
X42551082Y-125274463D01*
X42730013Y-125542252D01*
X42957748Y-125769987D01*
X43225537Y-125948918D01*
X43523088Y-126072168D01*
X43838967Y-126135000D01*
X44161033Y-126135000D01*
X44476912Y-126072168D01*
X44774463Y-125948918D01*
X45042252Y-125769987D01*
X45176826Y-125635413D01*
X47544192Y-125635413D01*
X47639956Y-125899814D01*
X47929571Y-126040704D01*
X48241108Y-126122384D01*
X48562595Y-126141718D01*
X48881675Y-126097961D01*
X49186088Y-125992795D01*
X49360044Y-125899814D01*
X49455808Y-125635413D01*
X48500000Y-124679605D01*
X47544192Y-125635413D01*
X45176826Y-125635413D01*
X45269987Y-125542252D01*
X45448918Y-125274463D01*
X45572168Y-124976912D01*
X45635000Y-124661033D01*
X45635000Y-124338967D01*
X45572168Y-124023088D01*
X45566177Y-124008625D01*
X45712102Y-123862700D01*
X46991827Y-123862700D01*
X46959296Y-123929571D01*
X46877616Y-124241108D01*
X46858282Y-124562595D01*
X46902039Y-124881675D01*
X47007205Y-125186088D01*
X47100186Y-125360044D01*
X47364587Y-125455808D01*
X48320395Y-124500000D01*
X48306253Y-124485858D01*
X48485858Y-124306253D01*
X48500000Y-124320395D01*
X48514143Y-124306253D01*
X48693748Y-124485858D01*
X48679605Y-124500000D01*
X49635413Y-125455808D01*
X49899814Y-125360044D01*
X50040704Y-125070429D01*
X50122384Y-124758892D01*
X50141718Y-124437405D01*
X50097961Y-124118325D01*
X50009650Y-123862700D01*
X56479878Y-123862700D01*
X56517200Y-123866376D01*
X56554522Y-123862700D01*
X56554533Y-123862700D01*
X56666186Y-123851703D01*
X56809447Y-123808246D01*
X56941476Y-123737674D01*
X57057201Y-123642701D01*
X57081004Y-123613697D01*
X60175623Y-120519079D01*
X60180377Y-120542981D01*
X60346544Y-120944144D01*
X60587782Y-121305181D01*
X60894819Y-121612218D01*
X61255856Y-121853456D01*
X61657019Y-122019623D01*
X62082892Y-122104334D01*
X62517108Y-122104334D01*
X62942981Y-122019623D01*
X63344144Y-121853456D01*
X63705181Y-121612218D01*
X64012218Y-121305181D01*
X64253456Y-120944144D01*
X64419623Y-120542981D01*
X64504334Y-120117108D01*
X64504334Y-119682892D01*
X64419623Y-119257019D01*
X64253456Y-118855856D01*
X64012218Y-118494819D01*
X63705181Y-118187782D01*
X63344144Y-117946544D01*
X62993145Y-117801156D01*
X66722601Y-114071701D01*
X66722601Y-124576800D01*
G36*
X26700186Y-80739956D02*
G01*
X26559296Y-81029571D01*
X26477616Y-81341108D01*
X26458282Y-81662595D01*
X26502039Y-81981675D01*
X26607205Y-82286088D01*
X26700186Y-82460044D01*
X26964587Y-82555808D01*
X27920395Y-81600000D01*
X27906253Y-81585858D01*
X28085858Y-81406253D01*
X28100000Y-81420395D01*
X28114143Y-81406253D01*
X28293748Y-81585858D01*
X28279605Y-81600000D01*
X29235413Y-82555808D01*
X29499814Y-82460044D01*
X29640704Y-82170429D01*
X29722384Y-81858892D01*
X29739457Y-81575000D01*
X32686928Y-81575000D01*
X32686928Y-82925000D01*
X32699188Y-83049482D01*
X32735498Y-83169180D01*
X32794463Y-83279494D01*
X32873815Y-83376185D01*
X32967559Y-83453119D01*
X32870527Y-83586371D01*
X32762762Y-83819472D01*
X32732090Y-83920600D01*
X32855776Y-84123000D01*
X33873000Y-84123000D01*
X33873000Y-84103000D01*
X34127000Y-84103000D01*
X34127000Y-84123000D01*
X35144224Y-84123000D01*
X35267910Y-83920600D01*
X35237238Y-83819472D01*
X35129473Y-83586371D01*
X35032441Y-83453119D01*
X35126185Y-83376185D01*
X35205537Y-83279494D01*
X35264502Y-83169180D01*
X35300812Y-83049482D01*
X35313072Y-82925000D01*
X35313072Y-82735413D01*
X63944192Y-82735413D01*
X64039956Y-82999814D01*
X64329571Y-83140704D01*
X64641108Y-83222384D01*
X64962595Y-83241718D01*
X65281675Y-83197961D01*
X65586088Y-83092795D01*
X65760044Y-82999814D01*
X65855808Y-82735413D01*
X64900000Y-81779605D01*
X63944192Y-82735413D01*
X35313072Y-82735413D01*
X35313072Y-81575000D01*
X35300812Y-81450518D01*
X35264502Y-81330820D01*
X35205537Y-81220506D01*
X35126185Y-81123815D01*
X35029494Y-81044463D01*
X34919180Y-80985498D01*
X34799482Y-80949188D01*
X34675000Y-80936928D01*
X33325000Y-80936928D01*
X33200518Y-80949188D01*
X33080820Y-80985498D01*
X32970506Y-81044463D01*
X32873815Y-81123815D01*
X32794463Y-81220506D01*
X32735498Y-81330820D01*
X32699188Y-81450518D01*
X32686928Y-81575000D01*
X29739457Y-81575000D01*
X29741718Y-81537405D01*
X29697961Y-81218325D01*
X29592795Y-80913912D01*
X29499814Y-80739956D01*
X29279058Y-80660000D01*
X63720942Y-80660000D01*
X63500186Y-80739956D01*
X63359296Y-81029571D01*
X63277616Y-81341108D01*
X63258282Y-81662595D01*
X63302039Y-81981675D01*
X63407205Y-82286088D01*
X63500186Y-82460044D01*
X63764587Y-82555808D01*
X64720395Y-81600000D01*
X64706253Y-81585858D01*
X64885858Y-81406253D01*
X64900000Y-81420395D01*
X64914143Y-81406253D01*
X65093748Y-81585858D01*
X65079605Y-81600000D01*
X66035413Y-82555808D01*
X66299814Y-82460044D01*
X66440704Y-82170429D01*
X66522384Y-81858892D01*
X66541718Y-81537405D01*
X66497961Y-81218325D01*
X66392795Y-80913912D01*
X66299814Y-80739956D01*
X66079058Y-80660000D01*
X70220942Y-80660000D01*
X70000186Y-80739956D01*
X69859296Y-81029571D01*
X69777616Y-81341108D01*
X69758282Y-81662595D01*
X69802039Y-81981675D01*
X69907205Y-82286088D01*
X70000186Y-82460044D01*
X70264587Y-82555808D01*
X71220395Y-81600000D01*
X71206253Y-81585858D01*
X71385858Y-81406253D01*
X71400000Y-81420395D01*
X71414143Y-81406253D01*
X71593748Y-81585858D01*
X71579605Y-81600000D01*
X71593748Y-81614143D01*
X71414143Y-81793748D01*
X71400000Y-81779605D01*
X70444192Y-82735413D01*
X70539956Y-82999814D01*
X70829571Y-83140704D01*
X71141108Y-83222384D01*
X71462595Y-83241718D01*
X71781675Y-83197961D01*
X72086088Y-83092795D01*
X72260044Y-82999814D01*
X72340000Y-82779058D01*
X72340000Y-84761690D01*
X72174463Y-84651082D01*
X71876912Y-84527832D01*
X71561033Y-84465000D01*
X71238967Y-84465000D01*
X70923088Y-84527832D01*
X70625537Y-84651082D01*
X70357748Y-84830013D01*
X70130013Y-85057748D01*
X69951082Y-85325537D01*
X69945091Y-85340000D01*
X66354909Y-85340000D01*
X66348918Y-85325537D01*
X66169987Y-85057748D01*
X65942252Y-84830013D01*
X65674463Y-84651082D01*
X65376912Y-84527832D01*
X65061033Y-84465000D01*
X64738967Y-84465000D01*
X64423088Y-84527832D01*
X64125537Y-84651082D01*
X63857748Y-84830013D01*
X63630013Y-85057748D01*
X63451082Y-85325537D01*
X63327832Y-85623088D01*
X63265000Y-85938967D01*
X63265000Y-86261033D01*
X63327832Y-86576912D01*
X63451082Y-86874463D01*
X63630013Y-87142252D01*
X63857748Y-87369987D01*
X64125537Y-87548918D01*
X64423088Y-87672168D01*
X64738967Y-87735000D01*
X65061033Y-87735000D01*
X65376912Y-87672168D01*
X65674463Y-87548918D01*
X65942252Y-87369987D01*
X66169987Y-87142252D01*
X66348918Y-86874463D01*
X66354909Y-86860000D01*
X69945091Y-86860000D01*
X69951082Y-86874463D01*
X70130013Y-87142252D01*
X70357748Y-87369987D01*
X70625537Y-87548918D01*
X70923088Y-87672168D01*
X71238967Y-87735000D01*
X71561033Y-87735000D01*
X71876912Y-87672168D01*
X72174463Y-87548918D01*
X72340000Y-87438309D01*
X72340001Y-100940000D01*
X70267581Y-100940000D01*
X70239811Y-100942735D01*
X70238090Y-100942723D01*
X70228919Y-100943622D01*
X70200807Y-100946577D01*
X70170617Y-100949550D01*
X70168509Y-100950190D01*
X70112060Y-100961777D01*
X70053330Y-100972980D01*
X70044515Y-100975642D01*
X70044511Y-100975643D01*
X70044508Y-100975644D01*
X70044509Y-100975644D01*
X69988576Y-100992958D01*
X69933449Y-101016131D01*
X69877966Y-101038548D01*
X69869829Y-101042875D01*
X69818326Y-101070723D01*
X69768716Y-101104186D01*
X69718681Y-101136928D01*
X69711540Y-101142752D01*
X69666427Y-101180073D01*
X69624268Y-101222528D01*
X69581538Y-101264372D01*
X69575664Y-101271473D01*
X69538659Y-101316846D01*
X69505567Y-101366654D01*
X69471765Y-101416019D01*
X69467382Y-101424125D01*
X69439894Y-101475821D01*
X69417101Y-101531119D01*
X69393530Y-101586113D01*
X69390809Y-101594906D01*
X69390807Y-101594911D01*
X69390806Y-101594916D01*
X69373883Y-101650967D01*
X69362266Y-101709634D01*
X69349825Y-101768166D01*
X69349576Y-101770534D01*
X69349551Y-101770617D01*
X69349306Y-101773109D01*
X69348862Y-101777330D01*
X69343149Y-101835600D01*
X69343149Y-101835618D01*
X69340001Y-101867581D01*
X69340000Y-111492418D01*
X69342735Y-111520188D01*
X69342723Y-111521910D01*
X69343622Y-111531082D01*
X69346579Y-111559216D01*
X69349550Y-111589382D01*
X69350189Y-111591488D01*
X69361777Y-111647940D01*
X69372980Y-111706670D01*
X69375644Y-111715492D01*
X69392958Y-111771424D01*
X69416131Y-111826551D01*
X69438548Y-111882034D01*
X69442875Y-111890171D01*
X69470723Y-111941674D01*
X69504153Y-111991234D01*
X69536927Y-112041319D01*
X69542752Y-112048460D01*
X69580073Y-112093572D01*
X69622509Y-112135713D01*
X69664372Y-112178462D01*
X69671473Y-112184336D01*
X69716846Y-112221341D01*
X69766654Y-112254433D01*
X69816019Y-112288235D01*
X69824125Y-112292618D01*
X69875821Y-112320106D01*
X69931107Y-112342894D01*
X69986113Y-112366470D01*
X69994910Y-112369192D01*
X69994912Y-112369193D01*
X69994914Y-112369193D01*
X69994916Y-112369194D01*
X70050967Y-112386117D01*
X70109620Y-112397731D01*
X70168165Y-112410175D01*
X70170529Y-112410423D01*
X70170617Y-112410450D01*
X70173254Y-112410710D01*
X70177330Y-112411138D01*
X70235600Y-112416851D01*
X70235608Y-112416851D01*
X70267581Y-112420000D01*
X72340001Y-112420000D01*
X72340000Y-125561691D01*
X72174463Y-125451082D01*
X71876912Y-125327832D01*
X71561033Y-125265000D01*
X71238967Y-125265000D01*
X70923088Y-125327832D01*
X70908624Y-125333823D01*
X70400604Y-124825803D01*
X70376801Y-124796799D01*
X70261076Y-124701826D01*
X70129047Y-124631254D01*
X69985786Y-124587797D01*
X69874133Y-124576800D01*
X69874122Y-124576800D01*
X69836800Y-124573124D01*
X69799478Y-124576800D01*
X68242600Y-124576800D01*
X68242600Y-93488522D01*
X68246276Y-93451199D01*
X68242600Y-93413876D01*
X68242600Y-93413867D01*
X68231603Y-93302214D01*
X68188146Y-93158953D01*
X68117574Y-93026924D01*
X68022601Y-92911199D01*
X67993598Y-92887397D01*
X67677104Y-92570903D01*
X67653301Y-92541899D01*
X67537576Y-92446926D01*
X67405547Y-92376354D01*
X67262286Y-92332897D01*
X67150633Y-92321900D01*
X67150622Y-92321900D01*
X67113300Y-92318224D01*
X67075978Y-92321900D01*
X66190425Y-92321900D01*
X66153100Y-92318224D01*
X66115775Y-92321900D01*
X66115767Y-92321900D01*
X66004114Y-92332897D01*
X65860853Y-92376354D01*
X65728824Y-92446926D01*
X65613099Y-92541899D01*
X65589301Y-92570897D01*
X64875699Y-93284500D01*
X64813561Y-93284500D01*
X64613602Y-93324274D01*
X64425244Y-93402295D01*
X64403088Y-93417099D01*
X64253456Y-93055856D01*
X64012218Y-92694819D01*
X63705181Y-92387782D01*
X63344144Y-92146544D01*
X62942981Y-91980377D01*
X62517108Y-91895666D01*
X62082892Y-91895666D01*
X61657019Y-91980377D01*
X61255856Y-92146544D01*
X61127500Y-92232309D01*
X61127500Y-89354525D01*
X61131176Y-89317200D01*
X61127500Y-89279875D01*
X61127500Y-89279867D01*
X61116503Y-89168214D01*
X61073046Y-89024953D01*
X61002474Y-88892924D01*
X60907501Y-88777199D01*
X60878504Y-88753402D01*
X58842404Y-86717303D01*
X58818601Y-86688299D01*
X58702876Y-86593326D01*
X58570847Y-86522754D01*
X58427586Y-86479297D01*
X58315933Y-86468300D01*
X58315922Y-86468300D01*
X58278600Y-86464624D01*
X58241278Y-86468300D01*
X55053711Y-86468300D01*
X55009774Y-86424363D01*
X54840256Y-86311095D01*
X54651898Y-86233074D01*
X54451939Y-86193300D01*
X54248061Y-86193300D01*
X54048102Y-86233074D01*
X53859744Y-86311095D01*
X53690226Y-86424363D01*
X53546063Y-86568526D01*
X53432795Y-86738044D01*
X53354774Y-86926402D01*
X53315000Y-87126361D01*
X53315000Y-87330239D01*
X53354774Y-87530198D01*
X53432795Y-87718556D01*
X53496620Y-87814078D01*
X52426298Y-88884401D01*
X52397300Y-88908199D01*
X52373502Y-88937197D01*
X52373501Y-88937198D01*
X52303002Y-89023100D01*
X49018904Y-85739003D01*
X48995101Y-85709999D01*
X48879376Y-85615026D01*
X48747347Y-85544454D01*
X48604086Y-85500997D01*
X48492433Y-85490000D01*
X48492422Y-85490000D01*
X48455100Y-85486324D01*
X48417778Y-85490000D01*
X35067709Y-85490000D01*
X35017544Y-85414923D01*
X34845940Y-85243319D01*
X34978303Y-85121227D01*
X35129473Y-84913629D01*
X35237238Y-84680528D01*
X35267910Y-84579400D01*
X35144224Y-84377000D01*
X34127000Y-84377000D01*
X34127000Y-84397000D01*
X33873000Y-84397000D01*
X33873000Y-84377000D01*
X32855776Y-84377000D01*
X32732090Y-84579400D01*
X32762762Y-84680528D01*
X32870527Y-84913629D01*
X33021697Y-85121227D01*
X33154060Y-85243319D01*
X32982456Y-85414923D01*
X32839093Y-85629482D01*
X32740342Y-85867887D01*
X32690000Y-86120976D01*
X32690000Y-86379024D01*
X32740342Y-86632113D01*
X32839093Y-86870518D01*
X32982456Y-87085077D01*
X33147379Y-87250000D01*
X32982456Y-87414923D01*
X32839093Y-87629482D01*
X32740342Y-87867887D01*
X32690000Y-88120976D01*
X32690000Y-88379024D01*
X32713248Y-88495900D01*
X31570702Y-88495900D01*
X29666177Y-86591376D01*
X29672168Y-86576912D01*
X29735000Y-86261033D01*
X29735000Y-85938967D01*
X29672168Y-85623088D01*
X29548918Y-85325537D01*
X29369987Y-85057748D01*
X29142252Y-84830013D01*
X28874463Y-84651082D01*
X28576912Y-84527832D01*
X28261033Y-84465000D01*
X27938967Y-84465000D01*
X27623088Y-84527832D01*
X27325537Y-84651082D01*
X27057748Y-84830013D01*
X26830013Y-85057748D01*
X26651082Y-85325537D01*
X26645091Y-85340000D01*
X23054909Y-85340000D01*
X23048918Y-85325537D01*
X22869987Y-85057748D01*
X22642252Y-84830013D01*
X22374463Y-84651082D01*
X22076912Y-84527832D01*
X21761033Y-84465000D01*
X21438967Y-84465000D01*
X21123088Y-84527832D01*
X20825537Y-84651082D01*
X20660000Y-84761690D01*
X20660000Y-82779058D01*
X20739956Y-82999814D01*
X21029571Y-83140704D01*
X21341108Y-83222384D01*
X21662595Y-83241718D01*
X21981675Y-83197961D01*
X22286088Y-83092795D01*
X22460044Y-82999814D01*
X22555808Y-82735413D01*
X27144192Y-82735413D01*
X27239956Y-82999814D01*
X27529571Y-83140704D01*
X27841108Y-83222384D01*
X28162595Y-83241718D01*
X28481675Y-83197961D01*
X28786088Y-83092795D01*
X28960044Y-82999814D01*
X29055808Y-82735413D01*
X28100000Y-81779605D01*
X27144192Y-82735413D01*
X22555808Y-82735413D01*
X21600000Y-81779605D01*
X21585858Y-81793748D01*
X21406253Y-81614143D01*
X21420395Y-81600000D01*
X21406253Y-81585858D01*
X21585858Y-81406253D01*
X21600000Y-81420395D01*
X21614143Y-81406253D01*
X21793748Y-81585858D01*
X21779605Y-81600000D01*
X22735413Y-82555808D01*
X22999814Y-82460044D01*
X23140704Y-82170429D01*
X23222384Y-81858892D01*
X23241718Y-81537405D01*
X23197961Y-81218325D01*
X23092795Y-80913912D01*
X22999814Y-80739956D01*
X22779058Y-80660000D01*
X26920942Y-80660000D01*
X26700186Y-80739956D01*
G37*
X26700186Y-80739956D02*
X26559296Y-81029571D01*
X26477616Y-81341108D01*
X26458282Y-81662595D01*
X26502039Y-81981675D01*
X26607205Y-82286088D01*
X26700186Y-82460044D01*
X26964587Y-82555808D01*
X27920395Y-81600000D01*
X27906253Y-81585858D01*
X28085858Y-81406253D01*
X28100000Y-81420395D01*
X28114143Y-81406253D01*
X28293748Y-81585858D01*
X28279605Y-81600000D01*
X29235413Y-82555808D01*
X29499814Y-82460044D01*
X29640704Y-82170429D01*
X29722384Y-81858892D01*
X29739457Y-81575000D01*
X32686928Y-81575000D01*
X32686928Y-82925000D01*
X32699188Y-83049482D01*
X32735498Y-83169180D01*
X32794463Y-83279494D01*
X32873815Y-83376185D01*
X32967559Y-83453119D01*
X32870527Y-83586371D01*
X32762762Y-83819472D01*
X32732090Y-83920600D01*
X32855776Y-84123000D01*
X33873000Y-84123000D01*
X33873000Y-84103000D01*
X34127000Y-84103000D01*
X34127000Y-84123000D01*
X35144224Y-84123000D01*
X35267910Y-83920600D01*
X35237238Y-83819472D01*
X35129473Y-83586371D01*
X35032441Y-83453119D01*
X35126185Y-83376185D01*
X35205537Y-83279494D01*
X35264502Y-83169180D01*
X35300812Y-83049482D01*
X35313072Y-82925000D01*
X35313072Y-82735413D01*
X63944192Y-82735413D01*
X64039956Y-82999814D01*
X64329571Y-83140704D01*
X64641108Y-83222384D01*
X64962595Y-83241718D01*
X65281675Y-83197961D01*
X65586088Y-83092795D01*
X65760044Y-82999814D01*
X65855808Y-82735413D01*
X64900000Y-81779605D01*
X63944192Y-82735413D01*
X35313072Y-82735413D01*
X35313072Y-81575000D01*
X35300812Y-81450518D01*
X35264502Y-81330820D01*
X35205537Y-81220506D01*
X35126185Y-81123815D01*
X35029494Y-81044463D01*
X34919180Y-80985498D01*
X34799482Y-80949188D01*
X34675000Y-80936928D01*
X33325000Y-80936928D01*
X33200518Y-80949188D01*
X33080820Y-80985498D01*
X32970506Y-81044463D01*
X32873815Y-81123815D01*
X32794463Y-81220506D01*
X32735498Y-81330820D01*
X32699188Y-81450518D01*
X32686928Y-81575000D01*
X29739457Y-81575000D01*
X29741718Y-81537405D01*
X29697961Y-81218325D01*
X29592795Y-80913912D01*
X29499814Y-80739956D01*
X29279058Y-80660000D01*
X63720942Y-80660000D01*
X63500186Y-80739956D01*
X63359296Y-81029571D01*
X63277616Y-81341108D01*
X63258282Y-81662595D01*
X63302039Y-81981675D01*
X63407205Y-82286088D01*
X63500186Y-82460044D01*
X63764587Y-82555808D01*
X64720395Y-81600000D01*
X64706253Y-81585858D01*
X64885858Y-81406253D01*
X64900000Y-81420395D01*
X64914143Y-81406253D01*
X65093748Y-81585858D01*
X65079605Y-81600000D01*
X66035413Y-82555808D01*
X66299814Y-82460044D01*
X66440704Y-82170429D01*
X66522384Y-81858892D01*
X66541718Y-81537405D01*
X66497961Y-81218325D01*
X66392795Y-80913912D01*
X66299814Y-80739956D01*
X66079058Y-80660000D01*
X70220942Y-80660000D01*
X70000186Y-80739956D01*
X69859296Y-81029571D01*
X69777616Y-81341108D01*
X69758282Y-81662595D01*
X69802039Y-81981675D01*
X69907205Y-82286088D01*
X70000186Y-82460044D01*
X70264587Y-82555808D01*
X71220395Y-81600000D01*
X71206253Y-81585858D01*
X71385858Y-81406253D01*
X71400000Y-81420395D01*
X71414143Y-81406253D01*
X71593748Y-81585858D01*
X71579605Y-81600000D01*
X71593748Y-81614143D01*
X71414143Y-81793748D01*
X71400000Y-81779605D01*
X70444192Y-82735413D01*
X70539956Y-82999814D01*
X70829571Y-83140704D01*
X71141108Y-83222384D01*
X71462595Y-83241718D01*
X71781675Y-83197961D01*
X72086088Y-83092795D01*
X72260044Y-82999814D01*
X72340000Y-82779058D01*
X72340000Y-84761690D01*
X72174463Y-84651082D01*
X71876912Y-84527832D01*
X71561033Y-84465000D01*
X71238967Y-84465000D01*
X70923088Y-84527832D01*
X70625537Y-84651082D01*
X70357748Y-84830013D01*
X70130013Y-85057748D01*
X69951082Y-85325537D01*
X69945091Y-85340000D01*
X66354909Y-85340000D01*
X66348918Y-85325537D01*
X66169987Y-85057748D01*
X65942252Y-84830013D01*
X65674463Y-84651082D01*
X65376912Y-84527832D01*
X65061033Y-84465000D01*
X64738967Y-84465000D01*
X64423088Y-84527832D01*
X64125537Y-84651082D01*
X63857748Y-84830013D01*
X63630013Y-85057748D01*
X63451082Y-85325537D01*
X63327832Y-85623088D01*
X63265000Y-85938967D01*
X63265000Y-86261033D01*
X63327832Y-86576912D01*
X63451082Y-86874463D01*
X63630013Y-87142252D01*
X63857748Y-87369987D01*
X64125537Y-87548918D01*
X64423088Y-87672168D01*
X64738967Y-87735000D01*
X65061033Y-87735000D01*
X65376912Y-87672168D01*
X65674463Y-87548918D01*
X65942252Y-87369987D01*
X66169987Y-87142252D01*
X66348918Y-86874463D01*
X66354909Y-86860000D01*
X69945091Y-86860000D01*
X69951082Y-86874463D01*
X70130013Y-87142252D01*
X70357748Y-87369987D01*
X70625537Y-87548918D01*
X70923088Y-87672168D01*
X71238967Y-87735000D01*
X71561033Y-87735000D01*
X71876912Y-87672168D01*
X72174463Y-87548918D01*
X72340000Y-87438309D01*
X72340001Y-100940000D01*
X70267581Y-100940000D01*
X70239811Y-100942735D01*
X70238090Y-100942723D01*
X70228919Y-100943622D01*
X70200807Y-100946577D01*
X70170617Y-100949550D01*
X70168509Y-100950190D01*
X70112060Y-100961777D01*
X70053330Y-100972980D01*
X70044515Y-100975642D01*
X70044511Y-100975643D01*
X70044508Y-100975644D01*
X70044509Y-100975644D01*
X69988576Y-100992958D01*
X69933449Y-101016131D01*
X69877966Y-101038548D01*
X69869829Y-101042875D01*
X69818326Y-101070723D01*
X69768716Y-101104186D01*
X69718681Y-101136928D01*
X69711540Y-101142752D01*
X69666427Y-101180073D01*
X69624268Y-101222528D01*
X69581538Y-101264372D01*
X69575664Y-101271473D01*
X69538659Y-101316846D01*
X69505567Y-101366654D01*
X69471765Y-101416019D01*
X69467382Y-101424125D01*
X69439894Y-101475821D01*
X69417101Y-101531119D01*
X69393530Y-101586113D01*
X69390809Y-101594906D01*
X69390807Y-101594911D01*
X69390806Y-101594916D01*
X69373883Y-101650967D01*
X69362266Y-101709634D01*
X69349825Y-101768166D01*
X69349576Y-101770534D01*
X69349551Y-101770617D01*
X69349306Y-101773109D01*
X69348862Y-101777330D01*
X69343149Y-101835600D01*
X69343149Y-101835618D01*
X69340001Y-101867581D01*
X69340000Y-111492418D01*
X69342735Y-111520188D01*
X69342723Y-111521910D01*
X69343622Y-111531082D01*
X69346579Y-111559216D01*
X69349550Y-111589382D01*
X69350189Y-111591488D01*
X69361777Y-111647940D01*
X69372980Y-111706670D01*
X69375644Y-111715492D01*
X69392958Y-111771424D01*
X69416131Y-111826551D01*
X69438548Y-111882034D01*
X69442875Y-111890171D01*
X69470723Y-111941674D01*
X69504153Y-111991234D01*
X69536927Y-112041319D01*
X69542752Y-112048460D01*
X69580073Y-112093572D01*
X69622509Y-112135713D01*
X69664372Y-112178462D01*
X69671473Y-112184336D01*
X69716846Y-112221341D01*
X69766654Y-112254433D01*
X69816019Y-112288235D01*
X69824125Y-112292618D01*
X69875821Y-112320106D01*
X69931107Y-112342894D01*
X69986113Y-112366470D01*
X69994910Y-112369192D01*
X69994912Y-112369193D01*
X69994914Y-112369193D01*
X69994916Y-112369194D01*
X70050967Y-112386117D01*
X70109620Y-112397731D01*
X70168165Y-112410175D01*
X70170529Y-112410423D01*
X70170617Y-112410450D01*
X70173254Y-112410710D01*
X70177330Y-112411138D01*
X70235600Y-112416851D01*
X70235608Y-112416851D01*
X70267581Y-112420000D01*
X72340001Y-112420000D01*
X72340000Y-125561691D01*
X72174463Y-125451082D01*
X71876912Y-125327832D01*
X71561033Y-125265000D01*
X71238967Y-125265000D01*
X70923088Y-125327832D01*
X70908624Y-125333823D01*
X70400604Y-124825803D01*
X70376801Y-124796799D01*
X70261076Y-124701826D01*
X70129047Y-124631254D01*
X69985786Y-124587797D01*
X69874133Y-124576800D01*
X69874122Y-124576800D01*
X69836800Y-124573124D01*
X69799478Y-124576800D01*
X68242600Y-124576800D01*
X68242600Y-93488522D01*
X68246276Y-93451199D01*
X68242600Y-93413876D01*
X68242600Y-93413867D01*
X68231603Y-93302214D01*
X68188146Y-93158953D01*
X68117574Y-93026924D01*
X68022601Y-92911199D01*
X67993598Y-92887397D01*
X67677104Y-92570903D01*
X67653301Y-92541899D01*
X67537576Y-92446926D01*
X67405547Y-92376354D01*
X67262286Y-92332897D01*
X67150633Y-92321900D01*
X67150622Y-92321900D01*
X67113300Y-92318224D01*
X67075978Y-92321900D01*
X66190425Y-92321900D01*
X66153100Y-92318224D01*
X66115775Y-92321900D01*
X66115767Y-92321900D01*
X66004114Y-92332897D01*
X65860853Y-92376354D01*
X65728824Y-92446926D01*
X65613099Y-92541899D01*
X65589301Y-92570897D01*
X64875699Y-93284500D01*
X64813561Y-93284500D01*
X64613602Y-93324274D01*
X64425244Y-93402295D01*
X64403088Y-93417099D01*
X64253456Y-93055856D01*
X64012218Y-92694819D01*
X63705181Y-92387782D01*
X63344144Y-92146544D01*
X62942981Y-91980377D01*
X62517108Y-91895666D01*
X62082892Y-91895666D01*
X61657019Y-91980377D01*
X61255856Y-92146544D01*
X61127500Y-92232309D01*
X61127500Y-89354525D01*
X61131176Y-89317200D01*
X61127500Y-89279875D01*
X61127500Y-89279867D01*
X61116503Y-89168214D01*
X61073046Y-89024953D01*
X61002474Y-88892924D01*
X60907501Y-88777199D01*
X60878504Y-88753402D01*
X58842404Y-86717303D01*
X58818601Y-86688299D01*
X58702876Y-86593326D01*
X58570847Y-86522754D01*
X58427586Y-86479297D01*
X58315933Y-86468300D01*
X58315922Y-86468300D01*
X58278600Y-86464624D01*
X58241278Y-86468300D01*
X55053711Y-86468300D01*
X55009774Y-86424363D01*
X54840256Y-86311095D01*
X54651898Y-86233074D01*
X54451939Y-86193300D01*
X54248061Y-86193300D01*
X54048102Y-86233074D01*
X53859744Y-86311095D01*
X53690226Y-86424363D01*
X53546063Y-86568526D01*
X53432795Y-86738044D01*
X53354774Y-86926402D01*
X53315000Y-87126361D01*
X53315000Y-87330239D01*
X53354774Y-87530198D01*
X53432795Y-87718556D01*
X53496620Y-87814078D01*
X52426298Y-88884401D01*
X52397300Y-88908199D01*
X52373502Y-88937197D01*
X52373501Y-88937198D01*
X52303002Y-89023100D01*
X49018904Y-85739003D01*
X48995101Y-85709999D01*
X48879376Y-85615026D01*
X48747347Y-85544454D01*
X48604086Y-85500997D01*
X48492433Y-85490000D01*
X48492422Y-85490000D01*
X48455100Y-85486324D01*
X48417778Y-85490000D01*
X35067709Y-85490000D01*
X35017544Y-85414923D01*
X34845940Y-85243319D01*
X34978303Y-85121227D01*
X35129473Y-84913629D01*
X35237238Y-84680528D01*
X35267910Y-84579400D01*
X35144224Y-84377000D01*
X34127000Y-84377000D01*
X34127000Y-84397000D01*
X33873000Y-84397000D01*
X33873000Y-84377000D01*
X32855776Y-84377000D01*
X32732090Y-84579400D01*
X32762762Y-84680528D01*
X32870527Y-84913629D01*
X33021697Y-85121227D01*
X33154060Y-85243319D01*
X32982456Y-85414923D01*
X32839093Y-85629482D01*
X32740342Y-85867887D01*
X32690000Y-86120976D01*
X32690000Y-86379024D01*
X32740342Y-86632113D01*
X32839093Y-86870518D01*
X32982456Y-87085077D01*
X33147379Y-87250000D01*
X32982456Y-87414923D01*
X32839093Y-87629482D01*
X32740342Y-87867887D01*
X32690000Y-88120976D01*
X32690000Y-88379024D01*
X32713248Y-88495900D01*
X31570702Y-88495900D01*
X29666177Y-86591376D01*
X29672168Y-86576912D01*
X29735000Y-86261033D01*
X29735000Y-85938967D01*
X29672168Y-85623088D01*
X29548918Y-85325537D01*
X29369987Y-85057748D01*
X29142252Y-84830013D01*
X28874463Y-84651082D01*
X28576912Y-84527832D01*
X28261033Y-84465000D01*
X27938967Y-84465000D01*
X27623088Y-84527832D01*
X27325537Y-84651082D01*
X27057748Y-84830013D01*
X26830013Y-85057748D01*
X26651082Y-85325537D01*
X26645091Y-85340000D01*
X23054909Y-85340000D01*
X23048918Y-85325537D01*
X22869987Y-85057748D01*
X22642252Y-84830013D01*
X22374463Y-84651082D01*
X22076912Y-84527832D01*
X21761033Y-84465000D01*
X21438967Y-84465000D01*
X21123088Y-84527832D01*
X20825537Y-84651082D01*
X20660000Y-84761690D01*
X20660000Y-82779058D01*
X20739956Y-82999814D01*
X21029571Y-83140704D01*
X21341108Y-83222384D01*
X21662595Y-83241718D01*
X21981675Y-83197961D01*
X22286088Y-83092795D01*
X22460044Y-82999814D01*
X22555808Y-82735413D01*
X27144192Y-82735413D01*
X27239956Y-82999814D01*
X27529571Y-83140704D01*
X27841108Y-83222384D01*
X28162595Y-83241718D01*
X28481675Y-83197961D01*
X28786088Y-83092795D01*
X28960044Y-82999814D01*
X29055808Y-82735413D01*
X28100000Y-81779605D01*
X27144192Y-82735413D01*
X22555808Y-82735413D01*
X21600000Y-81779605D01*
X21585858Y-81793748D01*
X21406253Y-81614143D01*
X21420395Y-81600000D01*
X21406253Y-81585858D01*
X21585858Y-81406253D01*
X21600000Y-81420395D01*
X21614143Y-81406253D01*
X21793748Y-81585858D01*
X21779605Y-81600000D01*
X22735413Y-82555808D01*
X22999814Y-82460044D01*
X23140704Y-82170429D01*
X23222384Y-81858892D01*
X23241718Y-81537405D01*
X23197961Y-81218325D01*
X23092795Y-80913912D01*
X22999814Y-80739956D01*
X22779058Y-80660000D01*
X26920942Y-80660000D01*
X26700186Y-80739956D01*
G36*
X26651082Y-86874463D02*
G01*
X26830013Y-87142252D01*
X27057748Y-87369987D01*
X27325537Y-87548918D01*
X27623088Y-87672168D01*
X27938967Y-87735000D01*
X28261033Y-87735000D01*
X28576912Y-87672168D01*
X28591376Y-87666177D01*
X30692101Y-89766903D01*
X30715899Y-89795901D01*
X30744897Y-89819699D01*
X30831624Y-89890874D01*
X30963653Y-89961446D01*
X31106914Y-90004903D01*
X31255900Y-90019577D01*
X31293233Y-90015900D01*
X37879978Y-90015900D01*
X37917300Y-90019576D01*
X37954622Y-90015900D01*
X37954633Y-90015900D01*
X38066286Y-90004903D01*
X38102473Y-89993926D01*
X37959402Y-90136996D01*
X37930399Y-90160799D01*
X37878859Y-90223601D01*
X37835426Y-90276524D01*
X37812950Y-90318574D01*
X37764854Y-90408554D01*
X37721397Y-90551815D01*
X37710400Y-90663468D01*
X37710400Y-90663478D01*
X37706724Y-90700800D01*
X37710400Y-90738123D01*
X37710400Y-91200589D01*
X37666463Y-91244526D01*
X37553195Y-91414044D01*
X37543112Y-91438386D01*
X36229803Y-92751696D01*
X36200799Y-92775499D01*
X36155529Y-92830661D01*
X36105826Y-92891224D01*
X36041396Y-93011763D01*
X36035254Y-93023254D01*
X35991797Y-93166515D01*
X35980800Y-93278168D01*
X35980800Y-93278178D01*
X35977124Y-93315500D01*
X35980800Y-93352823D01*
X35980801Y-95437168D01*
X35977124Y-95474500D01*
X35980801Y-95511833D01*
X35990859Y-95613947D01*
X35991798Y-95623485D01*
X36035254Y-95766746D01*
X36105826Y-95898776D01*
X36160805Y-95965767D01*
X36200800Y-96014501D01*
X36229798Y-96038299D01*
X39550929Y-99359430D01*
X39508526Y-99387763D01*
X39364363Y-99531926D01*
X39251095Y-99701444D01*
X39173074Y-99889802D01*
X39133300Y-100089761D01*
X39133300Y-100293639D01*
X39173074Y-100493598D01*
X39251095Y-100681956D01*
X39364363Y-100851474D01*
X39508526Y-100995637D01*
X39678044Y-101108905D01*
X39866402Y-101186926D01*
X40065401Y-101226509D01*
X40065400Y-112943750D01*
X39959702Y-112964774D01*
X39771344Y-113042795D01*
X39601826Y-113156063D01*
X39457663Y-113300226D01*
X39344395Y-113469744D01*
X39266374Y-113658102D01*
X39226600Y-113858061D01*
X39226600Y-114061939D01*
X39266374Y-114261898D01*
X39344395Y-114450256D01*
X39457663Y-114619774D01*
X39601826Y-114763937D01*
X39758166Y-114868400D01*
X39517622Y-114868400D01*
X39480299Y-114864724D01*
X39442976Y-114868400D01*
X39442967Y-114868400D01*
X39331314Y-114879397D01*
X39188053Y-114922854D01*
X39056024Y-114993426D01*
X38940299Y-115088399D01*
X38916501Y-115117397D01*
X36016574Y-118017324D01*
X35926250Y-117927000D01*
X34727000Y-117927000D01*
X34727000Y-117947000D01*
X34473000Y-117947000D01*
X34473000Y-117927000D01*
X32187000Y-117927000D01*
X32187000Y-117947000D01*
X31933000Y-117947000D01*
X31933000Y-117927000D01*
X31913000Y-117927000D01*
X31913000Y-117673000D01*
X31933000Y-117673000D01*
X31933000Y-116479845D01*
X32187000Y-116479845D01*
X32187000Y-117673000D01*
X34473000Y-117673000D01*
X34473000Y-116473750D01*
X34727000Y-116473750D01*
X34727000Y-117673000D01*
X35926250Y-117673000D01*
X36085000Y-117514250D01*
X36088072Y-116950000D01*
X36075812Y-116825518D01*
X36039502Y-116705820D01*
X35980537Y-116595506D01*
X35901185Y-116498815D01*
X35804494Y-116419463D01*
X35694180Y-116360498D01*
X35574482Y-116324188D01*
X35450000Y-116311928D01*
X34885750Y-116315000D01*
X34727000Y-116473750D01*
X34473000Y-116473750D01*
X34314250Y-116315000D01*
X33750000Y-116311928D01*
X33625518Y-116324188D01*
X33505820Y-116360498D01*
X33395506Y-116419463D01*
X33298815Y-116498815D01*
X33219463Y-116595506D01*
X33160498Y-116705820D01*
X33136034Y-116786466D01*
X33060269Y-116702412D01*
X32826920Y-116528359D01*
X32564099Y-116403175D01*
X32416890Y-116358524D01*
X32187000Y-116479845D01*
X31933000Y-116479845D01*
X31703110Y-116358524D01*
X31555901Y-116403175D01*
X31293080Y-116528359D01*
X31059731Y-116702412D01*
X30864822Y-116918645D01*
X30795195Y-117035534D01*
X30673475Y-116853368D01*
X30466632Y-116646525D01*
X30223411Y-116484010D01*
X29953158Y-116372068D01*
X29666260Y-116315000D01*
X29373740Y-116315000D01*
X29086842Y-116372068D01*
X28816589Y-116484010D01*
X28573368Y-116646525D01*
X28366525Y-116853368D01*
X28250000Y-117027760D01*
X28133475Y-116853368D01*
X27926632Y-116646525D01*
X27683411Y-116484010D01*
X27413158Y-116372068D01*
X27126260Y-116315000D01*
X26833740Y-116315000D01*
X26546842Y-116372068D01*
X26276589Y-116484010D01*
X26033368Y-116646525D01*
X25826525Y-116853368D01*
X25710000Y-117027760D01*
X25593475Y-116853368D01*
X25386632Y-116646525D01*
X25143411Y-116484010D01*
X24873158Y-116372068D01*
X24586260Y-116315000D01*
X24293740Y-116315000D01*
X24006842Y-116372068D01*
X23736589Y-116484010D01*
X23493368Y-116646525D01*
X23286525Y-116853368D01*
X23170000Y-117027760D01*
X23053475Y-116853368D01*
X22846632Y-116646525D01*
X22603411Y-116484010D01*
X22333158Y-116372068D01*
X22046260Y-116315000D01*
X21753740Y-116315000D01*
X21466842Y-116372068D01*
X21196589Y-116484010D01*
X20953368Y-116646525D01*
X20746525Y-116853368D01*
X20660000Y-116982862D01*
X20660000Y-112420000D01*
X22732419Y-112420000D01*
X22760189Y-112417265D01*
X22761910Y-112417277D01*
X22771082Y-112416378D01*
X22799201Y-112413423D01*
X22829383Y-112410450D01*
X22831491Y-112409810D01*
X22887940Y-112398223D01*
X22946670Y-112387020D01*
X22955486Y-112384358D01*
X22955490Y-112384357D01*
X22955493Y-112384356D01*
X23011424Y-112367042D01*
X23066551Y-112343869D01*
X23122034Y-112321452D01*
X23130171Y-112317125D01*
X23181674Y-112289277D01*
X23231234Y-112255847D01*
X23281319Y-112223073D01*
X23288460Y-112217248D01*
X23333572Y-112179927D01*
X23375713Y-112137491D01*
X23418462Y-112095628D01*
X23424336Y-112088527D01*
X23461341Y-112043154D01*
X23494433Y-111993346D01*
X23528235Y-111943981D01*
X23532618Y-111935875D01*
X23560106Y-111884179D01*
X23582894Y-111828893D01*
X23606470Y-111773887D01*
X23609194Y-111765084D01*
X23626117Y-111709033D01*
X23637731Y-111650380D01*
X23650175Y-111591835D01*
X23650423Y-111589471D01*
X23650450Y-111589383D01*
X23650710Y-111586746D01*
X23651138Y-111582670D01*
X23656851Y-111524400D01*
X23656851Y-111524392D01*
X23660000Y-111492419D01*
X23660000Y-110291351D01*
X23678446Y-110319114D01*
X23684320Y-110326215D01*
X23784680Y-110445819D01*
X23827430Y-110487682D01*
X23869570Y-110530118D01*
X23876711Y-110535942D01*
X23998391Y-110633774D01*
X24048421Y-110666512D01*
X24098037Y-110699979D01*
X24106174Y-110704305D01*
X24244539Y-110776641D01*
X24299974Y-110799038D01*
X24355146Y-110822231D01*
X24363968Y-110824894D01*
X24513749Y-110868977D01*
X24572468Y-110880178D01*
X24631105Y-110892215D01*
X24640276Y-110893114D01*
X24795767Y-110907265D01*
X24855586Y-110906847D01*
X24915406Y-110907265D01*
X24924577Y-110906365D01*
X25079853Y-110890044D01*
X25138405Y-110878025D01*
X25197205Y-110866808D01*
X25206027Y-110864144D01*
X25355177Y-110817976D01*
X25410315Y-110794798D01*
X25465789Y-110772385D01*
X25473918Y-110768062D01*
X25473922Y-110768060D01*
X25473925Y-110768058D01*
X25611267Y-110693797D01*
X25660816Y-110660375D01*
X25710912Y-110627594D01*
X25718053Y-110621769D01*
X25838356Y-110522247D01*
X25880517Y-110479791D01*
X25923247Y-110437946D01*
X25929121Y-110430846D01*
X26027801Y-110309852D01*
X26060911Y-110260017D01*
X26094699Y-110210671D01*
X26099082Y-110202565D01*
X26172382Y-110064707D01*
X26195163Y-110009436D01*
X26218744Y-109954419D01*
X26221467Y-109945620D01*
X26221469Y-109945614D01*
X26266595Y-109796146D01*
X26278211Y-109737481D01*
X26290651Y-109678957D01*
X26291614Y-109669792D01*
X26306850Y-109514406D01*
X26306850Y-109514402D01*
X26310000Y-109482419D01*
X26310000Y-103517581D01*
X26306772Y-103484806D01*
X26306772Y-103474425D01*
X26305809Y-103465260D01*
X26288405Y-103310101D01*
X26275969Y-103251598D01*
X26264349Y-103192910D01*
X26261624Y-103184107D01*
X26214414Y-103035282D01*
X26190847Y-102980297D01*
X26168054Y-102924996D01*
X26163671Y-102916890D01*
X26088454Y-102780070D01*
X26054678Y-102730741D01*
X26021554Y-102680885D01*
X26015680Y-102673785D01*
X25915320Y-102554181D01*
X25872587Y-102512334D01*
X25830430Y-102469882D01*
X25823289Y-102464058D01*
X25701609Y-102366225D01*
X25651556Y-102333472D01*
X25601963Y-102300020D01*
X25593826Y-102295694D01*
X25455460Y-102223359D01*
X25400018Y-102200959D01*
X25344854Y-102177770D01*
X25336032Y-102175106D01*
X25186252Y-102131023D01*
X25127525Y-102119820D01*
X25068895Y-102107785D01*
X25059724Y-102106886D01*
X24904234Y-102092735D01*
X24844414Y-102093153D01*
X24784594Y-102092735D01*
X24775423Y-102093635D01*
X24620146Y-102109956D01*
X24561581Y-102121978D01*
X24502795Y-102133192D01*
X24493973Y-102135856D01*
X24344823Y-102182025D01*
X24289717Y-102205189D01*
X24234211Y-102227615D01*
X24226082Y-102231938D01*
X24226078Y-102231940D01*
X24226075Y-102231942D01*
X24088733Y-102306203D01*
X24039161Y-102339640D01*
X23989088Y-102372406D01*
X23981947Y-102378231D01*
X23861644Y-102477754D01*
X23819486Y-102520207D01*
X23776753Y-102562054D01*
X23770884Y-102569149D01*
X23770880Y-102569153D01*
X23770879Y-102569155D01*
X23672199Y-102690148D01*
X23660000Y-102708509D01*
X23660000Y-101867581D01*
X23657265Y-101839811D01*
X23657277Y-101838090D01*
X23656378Y-101828919D01*
X23653423Y-101800807D01*
X23650450Y-101770617D01*
X23649810Y-101768509D01*
X23638223Y-101712060D01*
X23627020Y-101653330D01*
X23624356Y-101644509D01*
X23607042Y-101588576D01*
X23583869Y-101533449D01*
X23561452Y-101477966D01*
X23557125Y-101469829D01*
X23529277Y-101418326D01*
X23495814Y-101368716D01*
X23463072Y-101318681D01*
X23457248Y-101311540D01*
X23419927Y-101266427D01*
X23377472Y-101224268D01*
X23335628Y-101181538D01*
X23328527Y-101175664D01*
X23283154Y-101138659D01*
X23233346Y-101105567D01*
X23183981Y-101071765D01*
X23175875Y-101067382D01*
X23124179Y-101039894D01*
X23068881Y-101017101D01*
X23013887Y-100993530D01*
X23005094Y-100990809D01*
X23005089Y-100990807D01*
X23005084Y-100990806D01*
X22949033Y-100973883D01*
X22890366Y-100962266D01*
X22831834Y-100949825D01*
X22829471Y-100949577D01*
X22829383Y-100949550D01*
X22826739Y-100949290D01*
X22822670Y-100948862D01*
X22764400Y-100943149D01*
X22764392Y-100943149D01*
X22732419Y-100940000D01*
X20660000Y-100940000D01*
X20660000Y-96867760D01*
X21865000Y-96867760D01*
X21865000Y-97032240D01*
X21897089Y-97193560D01*
X21960033Y-97345521D01*
X22051413Y-97482281D01*
X22167719Y-97598587D01*
X22304479Y-97689967D01*
X22456440Y-97752911D01*
X22617760Y-97785000D01*
X22782240Y-97785000D01*
X22943560Y-97752911D01*
X23095521Y-97689967D01*
X23232281Y-97598587D01*
X23348587Y-97482281D01*
X23439967Y-97345521D01*
X23502911Y-97193560D01*
X23535000Y-97032240D01*
X23535000Y-96867760D01*
X23533041Y-96857911D01*
X23765000Y-96857911D01*
X23765000Y-97042089D01*
X23800932Y-97222729D01*
X23871414Y-97392889D01*
X23973738Y-97546028D01*
X24103972Y-97676262D01*
X24257111Y-97778586D01*
X24427271Y-97849068D01*
X24607911Y-97885000D01*
X24792089Y-97885000D01*
X24972729Y-97849068D01*
X25142889Y-97778586D01*
X25296028Y-97676262D01*
X25426262Y-97546028D01*
X25528586Y-97392889D01*
X25599068Y-97222729D01*
X25635000Y-97042089D01*
X25635000Y-96867760D01*
X25865000Y-96867760D01*
X25865000Y-97032240D01*
X25897089Y-97193560D01*
X25960033Y-97345521D01*
X26051413Y-97482281D01*
X26167719Y-97598587D01*
X26304479Y-97689967D01*
X26456440Y-97752911D01*
X26617760Y-97785000D01*
X26782240Y-97785000D01*
X26943560Y-97752911D01*
X27095521Y-97689967D01*
X27232281Y-97598587D01*
X27348587Y-97482281D01*
X27439967Y-97345521D01*
X27502911Y-97193560D01*
X27535000Y-97032240D01*
X27535000Y-96867760D01*
X27865000Y-96867760D01*
X27865000Y-97032240D01*
X27897089Y-97193560D01*
X27960033Y-97345521D01*
X28051413Y-97482281D01*
X28167719Y-97598587D01*
X28304479Y-97689967D01*
X28456440Y-97752911D01*
X28617760Y-97785000D01*
X28782240Y-97785000D01*
X28943560Y-97752911D01*
X29095521Y-97689967D01*
X29232281Y-97598587D01*
X29348587Y-97482281D01*
X29439967Y-97345521D01*
X29502911Y-97193560D01*
X29535000Y-97032240D01*
X29535000Y-96867760D01*
X29865000Y-96867760D01*
X29865000Y-97032240D01*
X29897089Y-97193560D01*
X29960033Y-97345521D01*
X30051413Y-97482281D01*
X30167719Y-97598587D01*
X30304479Y-97689967D01*
X30456440Y-97752911D01*
X30617760Y-97785000D01*
X30782240Y-97785000D01*
X30943560Y-97752911D01*
X31095521Y-97689967D01*
X31232281Y-97598587D01*
X31348587Y-97482281D01*
X31439967Y-97345521D01*
X31502911Y-97193560D01*
X31535000Y-97032240D01*
X31535000Y-96867760D01*
X31533041Y-96857911D01*
X31765000Y-96857911D01*
X31765000Y-97042089D01*
X31800932Y-97222729D01*
X31871414Y-97392889D01*
X31973738Y-97546028D01*
X32103972Y-97676262D01*
X32257111Y-97778586D01*
X32427271Y-97849068D01*
X32607911Y-97885000D01*
X32792089Y-97885000D01*
X32972729Y-97849068D01*
X33142889Y-97778586D01*
X33296028Y-97676262D01*
X33426262Y-97546028D01*
X33528586Y-97392889D01*
X33599068Y-97222729D01*
X33635000Y-97042089D01*
X33635000Y-96857911D01*
X33599068Y-96677271D01*
X33528586Y-96507111D01*
X33426262Y-96353972D01*
X33296028Y-96223738D01*
X33142889Y-96121414D01*
X32972729Y-96050932D01*
X32792089Y-96015000D01*
X32607911Y-96015000D01*
X32427271Y-96050932D01*
X32257111Y-96121414D01*
X32103972Y-96223738D01*
X31973738Y-96353972D01*
X31871414Y-96507111D01*
X31800932Y-96677271D01*
X31765000Y-96857911D01*
X31533041Y-96857911D01*
X31502911Y-96706440D01*
X31439967Y-96554479D01*
X31348587Y-96417719D01*
X31232281Y-96301413D01*
X31095521Y-96210033D01*
X30943560Y-96147089D01*
X30782240Y-96115000D01*
X30617760Y-96115000D01*
X30456440Y-96147089D01*
X30304479Y-96210033D01*
X30167719Y-96301413D01*
X30051413Y-96417719D01*
X29960033Y-96554479D01*
X29897089Y-96706440D01*
X29865000Y-96867760D01*
X29535000Y-96867760D01*
X29502911Y-96706440D01*
X29439967Y-96554479D01*
X29348587Y-96417719D01*
X29232281Y-96301413D01*
X29095521Y-96210033D01*
X28943560Y-96147089D01*
X28782240Y-96115000D01*
X28617760Y-96115000D01*
X28456440Y-96147089D01*
X28304479Y-96210033D01*
X28167719Y-96301413D01*
X28051413Y-96417719D01*
X27960033Y-96554479D01*
X27897089Y-96706440D01*
X27865000Y-96867760D01*
X27535000Y-96867760D01*
X27502911Y-96706440D01*
X27439967Y-96554479D01*
X27348587Y-96417719D01*
X27232281Y-96301413D01*
X27095521Y-96210033D01*
X26943560Y-96147089D01*
X26782240Y-96115000D01*
X26617760Y-96115000D01*
X26456440Y-96147089D01*
X26304479Y-96210033D01*
X26167719Y-96301413D01*
X26051413Y-96417719D01*
X25960033Y-96554479D01*
X25897089Y-96706440D01*
X25865000Y-96867760D01*
X25635000Y-96867760D01*
X25635000Y-96857911D01*
X25599068Y-96677271D01*
X25528586Y-96507111D01*
X25426262Y-96353972D01*
X25296028Y-96223738D01*
X25142889Y-96121414D01*
X24972729Y-96050932D01*
X24792089Y-96015000D01*
X24607911Y-96015000D01*
X24427271Y-96050932D01*
X24257111Y-96121414D01*
X24103972Y-96223738D01*
X23973738Y-96353972D01*
X23871414Y-96507111D01*
X23800932Y-96677271D01*
X23765000Y-96857911D01*
X23533041Y-96857911D01*
X23502911Y-96706440D01*
X23439967Y-96554479D01*
X23348587Y-96417719D01*
X23232281Y-96301413D01*
X23095521Y-96210033D01*
X22943560Y-96147089D01*
X22782240Y-96115000D01*
X22617760Y-96115000D01*
X22456440Y-96147089D01*
X22304479Y-96210033D01*
X22167719Y-96301413D01*
X22051413Y-96417719D01*
X21960033Y-96554479D01*
X21897089Y-96706440D01*
X21865000Y-96867760D01*
X20660000Y-96867760D01*
X20660000Y-90950000D01*
X21311928Y-90950000D01*
X21311928Y-92650000D01*
X21324188Y-92774482D01*
X21360498Y-92894180D01*
X21419463Y-93004494D01*
X21498815Y-93101185D01*
X21595506Y-93180537D01*
X21705820Y-93239502D01*
X21825518Y-93275812D01*
X21950000Y-93288072D01*
X23650000Y-93288072D01*
X23774482Y-93275812D01*
X23894180Y-93239502D01*
X24004494Y-93180537D01*
X24101185Y-93101185D01*
X24180537Y-93004494D01*
X24239502Y-92894180D01*
X24263966Y-92813534D01*
X24339731Y-92897588D01*
X24573080Y-93071641D01*
X24835901Y-93196825D01*
X24983110Y-93241476D01*
X25213000Y-93120155D01*
X25213000Y-91927000D01*
X25467000Y-91927000D01*
X25467000Y-93120155D01*
X25696890Y-93241476D01*
X25844099Y-93196825D01*
X26106920Y-93071641D01*
X26340269Y-92897588D01*
X26535178Y-92681355D01*
X26684157Y-92431252D01*
X26781481Y-92156891D01*
X26660814Y-91927000D01*
X25467000Y-91927000D01*
X25213000Y-91927000D01*
X25193000Y-91927000D01*
X25193000Y-91673000D01*
X25213000Y-91673000D01*
X25213000Y-90479845D01*
X25467000Y-90479845D01*
X25467000Y-91673000D01*
X26660814Y-91673000D01*
X26781481Y-91443109D01*
X26684157Y-91168748D01*
X26535178Y-90918645D01*
X26340269Y-90702412D01*
X26106920Y-90528359D01*
X25844099Y-90403175D01*
X25696890Y-90358524D01*
X25467000Y-90479845D01*
X25213000Y-90479845D01*
X24983110Y-90358524D01*
X24835901Y-90403175D01*
X24573080Y-90528359D01*
X24339731Y-90702412D01*
X24263966Y-90786466D01*
X24239502Y-90705820D01*
X24180537Y-90595506D01*
X24101185Y-90498815D01*
X24004494Y-90419463D01*
X23894180Y-90360498D01*
X23774482Y-90324188D01*
X23650000Y-90311928D01*
X21950000Y-90311928D01*
X21825518Y-90324188D01*
X21705820Y-90360498D01*
X21595506Y-90419463D01*
X21498815Y-90498815D01*
X21419463Y-90595506D01*
X21360498Y-90705820D01*
X21324188Y-90825518D01*
X21311928Y-90950000D01*
X20660000Y-90950000D01*
X20660000Y-87438310D01*
X20825537Y-87548918D01*
X21123088Y-87672168D01*
X21438967Y-87735000D01*
X21761033Y-87735000D01*
X22076912Y-87672168D01*
X22374463Y-87548918D01*
X22642252Y-87369987D01*
X22869987Y-87142252D01*
X23048918Y-86874463D01*
X23054909Y-86860000D01*
X26645091Y-86860000D01*
X26651082Y-86874463D01*
G37*
X26651082Y-86874463D02*
X26830013Y-87142252D01*
X27057748Y-87369987D01*
X27325537Y-87548918D01*
X27623088Y-87672168D01*
X27938967Y-87735000D01*
X28261033Y-87735000D01*
X28576912Y-87672168D01*
X28591376Y-87666177D01*
X30692101Y-89766903D01*
X30715899Y-89795901D01*
X30744897Y-89819699D01*
X30831624Y-89890874D01*
X30963653Y-89961446D01*
X31106914Y-90004903D01*
X31255900Y-90019577D01*
X31293233Y-90015900D01*
X37879978Y-90015900D01*
X37917300Y-90019576D01*
X37954622Y-90015900D01*
X37954633Y-90015900D01*
X38066286Y-90004903D01*
X38102473Y-89993926D01*
X37959402Y-90136996D01*
X37930399Y-90160799D01*
X37878859Y-90223601D01*
X37835426Y-90276524D01*
X37812950Y-90318574D01*
X37764854Y-90408554D01*
X37721397Y-90551815D01*
X37710400Y-90663468D01*
X37710400Y-90663478D01*
X37706724Y-90700800D01*
X37710400Y-90738123D01*
X37710400Y-91200589D01*
X37666463Y-91244526D01*
X37553195Y-91414044D01*
X37543112Y-91438386D01*
X36229803Y-92751696D01*
X36200799Y-92775499D01*
X36155529Y-92830661D01*
X36105826Y-92891224D01*
X36041396Y-93011763D01*
X36035254Y-93023254D01*
X35991797Y-93166515D01*
X35980800Y-93278168D01*
X35980800Y-93278178D01*
X35977124Y-93315500D01*
X35980800Y-93352823D01*
X35980801Y-95437168D01*
X35977124Y-95474500D01*
X35980801Y-95511833D01*
X35990859Y-95613947D01*
X35991798Y-95623485D01*
X36035254Y-95766746D01*
X36105826Y-95898776D01*
X36160805Y-95965767D01*
X36200800Y-96014501D01*
X36229798Y-96038299D01*
X39550929Y-99359430D01*
X39508526Y-99387763D01*
X39364363Y-99531926D01*
X39251095Y-99701444D01*
X39173074Y-99889802D01*
X39133300Y-100089761D01*
X39133300Y-100293639D01*
X39173074Y-100493598D01*
X39251095Y-100681956D01*
X39364363Y-100851474D01*
X39508526Y-100995637D01*
X39678044Y-101108905D01*
X39866402Y-101186926D01*
X40065401Y-101226509D01*
X40065400Y-112943750D01*
X39959702Y-112964774D01*
X39771344Y-113042795D01*
X39601826Y-113156063D01*
X39457663Y-113300226D01*
X39344395Y-113469744D01*
X39266374Y-113658102D01*
X39226600Y-113858061D01*
X39226600Y-114061939D01*
X39266374Y-114261898D01*
X39344395Y-114450256D01*
X39457663Y-114619774D01*
X39601826Y-114763937D01*
X39758166Y-114868400D01*
X39517622Y-114868400D01*
X39480299Y-114864724D01*
X39442976Y-114868400D01*
X39442967Y-114868400D01*
X39331314Y-114879397D01*
X39188053Y-114922854D01*
X39056024Y-114993426D01*
X38940299Y-115088399D01*
X38916501Y-115117397D01*
X36016574Y-118017324D01*
X35926250Y-117927000D01*
X34727000Y-117927000D01*
X34727000Y-117947000D01*
X34473000Y-117947000D01*
X34473000Y-117927000D01*
X32187000Y-117927000D01*
X32187000Y-117947000D01*
X31933000Y-117947000D01*
X31933000Y-117927000D01*
X31913000Y-117927000D01*
X31913000Y-117673000D01*
X31933000Y-117673000D01*
X31933000Y-116479845D01*
X32187000Y-116479845D01*
X32187000Y-117673000D01*
X34473000Y-117673000D01*
X34473000Y-116473750D01*
X34727000Y-116473750D01*
X34727000Y-117673000D01*
X35926250Y-117673000D01*
X36085000Y-117514250D01*
X36088072Y-116950000D01*
X36075812Y-116825518D01*
X36039502Y-116705820D01*
X35980537Y-116595506D01*
X35901185Y-116498815D01*
X35804494Y-116419463D01*
X35694180Y-116360498D01*
X35574482Y-116324188D01*
X35450000Y-116311928D01*
X34885750Y-116315000D01*
X34727000Y-116473750D01*
X34473000Y-116473750D01*
X34314250Y-116315000D01*
X33750000Y-116311928D01*
X33625518Y-116324188D01*
X33505820Y-116360498D01*
X33395506Y-116419463D01*
X33298815Y-116498815D01*
X33219463Y-116595506D01*
X33160498Y-116705820D01*
X33136034Y-116786466D01*
X33060269Y-116702412D01*
X32826920Y-116528359D01*
X32564099Y-116403175D01*
X32416890Y-116358524D01*
X32187000Y-116479845D01*
X31933000Y-116479845D01*
X31703110Y-116358524D01*
X31555901Y-116403175D01*
X31293080Y-116528359D01*
X31059731Y-116702412D01*
X30864822Y-116918645D01*
X30795195Y-117035534D01*
X30673475Y-116853368D01*
X30466632Y-116646525D01*
X30223411Y-116484010D01*
X29953158Y-116372068D01*
X29666260Y-116315000D01*
X29373740Y-116315000D01*
X29086842Y-116372068D01*
X28816589Y-116484010D01*
X28573368Y-116646525D01*
X28366525Y-116853368D01*
X28250000Y-117027760D01*
X28133475Y-116853368D01*
X27926632Y-116646525D01*
X27683411Y-116484010D01*
X27413158Y-116372068D01*
X27126260Y-116315000D01*
X26833740Y-116315000D01*
X26546842Y-116372068D01*
X26276589Y-116484010D01*
X26033368Y-116646525D01*
X25826525Y-116853368D01*
X25710000Y-117027760D01*
X25593475Y-116853368D01*
X25386632Y-116646525D01*
X25143411Y-116484010D01*
X24873158Y-116372068D01*
X24586260Y-116315000D01*
X24293740Y-116315000D01*
X24006842Y-116372068D01*
X23736589Y-116484010D01*
X23493368Y-116646525D01*
X23286525Y-116853368D01*
X23170000Y-117027760D01*
X23053475Y-116853368D01*
X22846632Y-116646525D01*
X22603411Y-116484010D01*
X22333158Y-116372068D01*
X22046260Y-116315000D01*
X21753740Y-116315000D01*
X21466842Y-116372068D01*
X21196589Y-116484010D01*
X20953368Y-116646525D01*
X20746525Y-116853368D01*
X20660000Y-116982862D01*
X20660000Y-112420000D01*
X22732419Y-112420000D01*
X22760189Y-112417265D01*
X22761910Y-112417277D01*
X22771082Y-112416378D01*
X22799201Y-112413423D01*
X22829383Y-112410450D01*
X22831491Y-112409810D01*
X22887940Y-112398223D01*
X22946670Y-112387020D01*
X22955486Y-112384358D01*
X22955490Y-112384357D01*
X22955493Y-112384356D01*
X23011424Y-112367042D01*
X23066551Y-112343869D01*
X23122034Y-112321452D01*
X23130171Y-112317125D01*
X23181674Y-112289277D01*
X23231234Y-112255847D01*
X23281319Y-112223073D01*
X23288460Y-112217248D01*
X23333572Y-112179927D01*
X23375713Y-112137491D01*
X23418462Y-112095628D01*
X23424336Y-112088527D01*
X23461341Y-112043154D01*
X23494433Y-111993346D01*
X23528235Y-111943981D01*
X23532618Y-111935875D01*
X23560106Y-111884179D01*
X23582894Y-111828893D01*
X23606470Y-111773887D01*
X23609194Y-111765084D01*
X23626117Y-111709033D01*
X23637731Y-111650380D01*
X23650175Y-111591835D01*
X23650423Y-111589471D01*
X23650450Y-111589383D01*
X23650710Y-111586746D01*
X23651138Y-111582670D01*
X23656851Y-111524400D01*
X23656851Y-111524392D01*
X23660000Y-111492419D01*
X23660000Y-110291351D01*
X23678446Y-110319114D01*
X23684320Y-110326215D01*
X23784680Y-110445819D01*
X23827430Y-110487682D01*
X23869570Y-110530118D01*
X23876711Y-110535942D01*
X23998391Y-110633774D01*
X24048421Y-110666512D01*
X24098037Y-110699979D01*
X24106174Y-110704305D01*
X24244539Y-110776641D01*
X24299974Y-110799038D01*
X24355146Y-110822231D01*
X24363968Y-110824894D01*
X24513749Y-110868977D01*
X24572468Y-110880178D01*
X24631105Y-110892215D01*
X24640276Y-110893114D01*
X24795767Y-110907265D01*
X24855586Y-110906847D01*
X24915406Y-110907265D01*
X24924577Y-110906365D01*
X25079853Y-110890044D01*
X25138405Y-110878025D01*
X25197205Y-110866808D01*
X25206027Y-110864144D01*
X25355177Y-110817976D01*
X25410315Y-110794798D01*
X25465789Y-110772385D01*
X25473918Y-110768062D01*
X25473922Y-110768060D01*
X25473925Y-110768058D01*
X25611267Y-110693797D01*
X25660816Y-110660375D01*
X25710912Y-110627594D01*
X25718053Y-110621769D01*
X25838356Y-110522247D01*
X25880517Y-110479791D01*
X25923247Y-110437946D01*
X25929121Y-110430846D01*
X26027801Y-110309852D01*
X26060911Y-110260017D01*
X26094699Y-110210671D01*
X26099082Y-110202565D01*
X26172382Y-110064707D01*
X26195163Y-110009436D01*
X26218744Y-109954419D01*
X26221467Y-109945620D01*
X26221469Y-109945614D01*
X26266595Y-109796146D01*
X26278211Y-109737481D01*
X26290651Y-109678957D01*
X26291614Y-109669792D01*
X26306850Y-109514406D01*
X26306850Y-109514402D01*
X26310000Y-109482419D01*
X26310000Y-103517581D01*
X26306772Y-103484806D01*
X26306772Y-103474425D01*
X26305809Y-103465260D01*
X26288405Y-103310101D01*
X26275969Y-103251598D01*
X26264349Y-103192910D01*
X26261624Y-103184107D01*
X26214414Y-103035282D01*
X26190847Y-102980297D01*
X26168054Y-102924996D01*
X26163671Y-102916890D01*
X26088454Y-102780070D01*
X26054678Y-102730741D01*
X26021554Y-102680885D01*
X26015680Y-102673785D01*
X25915320Y-102554181D01*
X25872587Y-102512334D01*
X25830430Y-102469882D01*
X25823289Y-102464058D01*
X25701609Y-102366225D01*
X25651556Y-102333472D01*
X25601963Y-102300020D01*
X25593826Y-102295694D01*
X25455460Y-102223359D01*
X25400018Y-102200959D01*
X25344854Y-102177770D01*
X25336032Y-102175106D01*
X25186252Y-102131023D01*
X25127525Y-102119820D01*
X25068895Y-102107785D01*
X25059724Y-102106886D01*
X24904234Y-102092735D01*
X24844414Y-102093153D01*
X24784594Y-102092735D01*
X24775423Y-102093635D01*
X24620146Y-102109956D01*
X24561581Y-102121978D01*
X24502795Y-102133192D01*
X24493973Y-102135856D01*
X24344823Y-102182025D01*
X24289717Y-102205189D01*
X24234211Y-102227615D01*
X24226082Y-102231938D01*
X24226078Y-102231940D01*
X24226075Y-102231942D01*
X24088733Y-102306203D01*
X24039161Y-102339640D01*
X23989088Y-102372406D01*
X23981947Y-102378231D01*
X23861644Y-102477754D01*
X23819486Y-102520207D01*
X23776753Y-102562054D01*
X23770884Y-102569149D01*
X23770880Y-102569153D01*
X23770879Y-102569155D01*
X23672199Y-102690148D01*
X23660000Y-102708509D01*
X23660000Y-101867581D01*
X23657265Y-101839811D01*
X23657277Y-101838090D01*
X23656378Y-101828919D01*
X23653423Y-101800807D01*
X23650450Y-101770617D01*
X23649810Y-101768509D01*
X23638223Y-101712060D01*
X23627020Y-101653330D01*
X23624356Y-101644509D01*
X23607042Y-101588576D01*
X23583869Y-101533449D01*
X23561452Y-101477966D01*
X23557125Y-101469829D01*
X23529277Y-101418326D01*
X23495814Y-101368716D01*
X23463072Y-101318681D01*
X23457248Y-101311540D01*
X23419927Y-101266427D01*
X23377472Y-101224268D01*
X23335628Y-101181538D01*
X23328527Y-101175664D01*
X23283154Y-101138659D01*
X23233346Y-101105567D01*
X23183981Y-101071765D01*
X23175875Y-101067382D01*
X23124179Y-101039894D01*
X23068881Y-101017101D01*
X23013887Y-100993530D01*
X23005094Y-100990809D01*
X23005089Y-100990807D01*
X23005084Y-100990806D01*
X22949033Y-100973883D01*
X22890366Y-100962266D01*
X22831834Y-100949825D01*
X22829471Y-100949577D01*
X22829383Y-100949550D01*
X22826739Y-100949290D01*
X22822670Y-100948862D01*
X22764400Y-100943149D01*
X22764392Y-100943149D01*
X22732419Y-100940000D01*
X20660000Y-100940000D01*
X20660000Y-96867760D01*
X21865000Y-96867760D01*
X21865000Y-97032240D01*
X21897089Y-97193560D01*
X21960033Y-97345521D01*
X22051413Y-97482281D01*
X22167719Y-97598587D01*
X22304479Y-97689967D01*
X22456440Y-97752911D01*
X22617760Y-97785000D01*
X22782240Y-97785000D01*
X22943560Y-97752911D01*
X23095521Y-97689967D01*
X23232281Y-97598587D01*
X23348587Y-97482281D01*
X23439967Y-97345521D01*
X23502911Y-97193560D01*
X23535000Y-97032240D01*
X23535000Y-96867760D01*
X23533041Y-96857911D01*
X23765000Y-96857911D01*
X23765000Y-97042089D01*
X23800932Y-97222729D01*
X23871414Y-97392889D01*
X23973738Y-97546028D01*
X24103972Y-97676262D01*
X24257111Y-97778586D01*
X24427271Y-97849068D01*
X24607911Y-97885000D01*
X24792089Y-97885000D01*
X24972729Y-97849068D01*
X25142889Y-97778586D01*
X25296028Y-97676262D01*
X25426262Y-97546028D01*
X25528586Y-97392889D01*
X25599068Y-97222729D01*
X25635000Y-97042089D01*
X25635000Y-96867760D01*
X25865000Y-96867760D01*
X25865000Y-97032240D01*
X25897089Y-97193560D01*
X25960033Y-97345521D01*
X26051413Y-97482281D01*
X26167719Y-97598587D01*
X26304479Y-97689967D01*
X26456440Y-97752911D01*
X26617760Y-97785000D01*
X26782240Y-97785000D01*
X26943560Y-97752911D01*
X27095521Y-97689967D01*
X27232281Y-97598587D01*
X27348587Y-97482281D01*
X27439967Y-97345521D01*
X27502911Y-97193560D01*
X27535000Y-97032240D01*
X27535000Y-96867760D01*
X27865000Y-96867760D01*
X27865000Y-97032240D01*
X27897089Y-97193560D01*
X27960033Y-97345521D01*
X28051413Y-97482281D01*
X28167719Y-97598587D01*
X28304479Y-97689967D01*
X28456440Y-97752911D01*
X28617760Y-97785000D01*
X28782240Y-97785000D01*
X28943560Y-97752911D01*
X29095521Y-97689967D01*
X29232281Y-97598587D01*
X29348587Y-97482281D01*
X29439967Y-97345521D01*
X29502911Y-97193560D01*
X29535000Y-97032240D01*
X29535000Y-96867760D01*
X29865000Y-96867760D01*
X29865000Y-97032240D01*
X29897089Y-97193560D01*
X29960033Y-97345521D01*
X30051413Y-97482281D01*
X30167719Y-97598587D01*
X30304479Y-97689967D01*
X30456440Y-97752911D01*
X30617760Y-97785000D01*
X30782240Y-97785000D01*
X30943560Y-97752911D01*
X31095521Y-97689967D01*
X31232281Y-97598587D01*
X31348587Y-97482281D01*
X31439967Y-97345521D01*
X31502911Y-97193560D01*
X31535000Y-97032240D01*
X31535000Y-96867760D01*
X31533041Y-96857911D01*
X31765000Y-96857911D01*
X31765000Y-97042089D01*
X31800932Y-97222729D01*
X31871414Y-97392889D01*
X31973738Y-97546028D01*
X32103972Y-97676262D01*
X32257111Y-97778586D01*
X32427271Y-97849068D01*
X32607911Y-97885000D01*
X32792089Y-97885000D01*
X32972729Y-97849068D01*
X33142889Y-97778586D01*
X33296028Y-97676262D01*
X33426262Y-97546028D01*
X33528586Y-97392889D01*
X33599068Y-97222729D01*
X33635000Y-97042089D01*
X33635000Y-96857911D01*
X33599068Y-96677271D01*
X33528586Y-96507111D01*
X33426262Y-96353972D01*
X33296028Y-96223738D01*
X33142889Y-96121414D01*
X32972729Y-96050932D01*
X32792089Y-96015000D01*
X32607911Y-96015000D01*
X32427271Y-96050932D01*
X32257111Y-96121414D01*
X32103972Y-96223738D01*
X31973738Y-96353972D01*
X31871414Y-96507111D01*
X31800932Y-96677271D01*
X31765000Y-96857911D01*
X31533041Y-96857911D01*
X31502911Y-96706440D01*
X31439967Y-96554479D01*
X31348587Y-96417719D01*
X31232281Y-96301413D01*
X31095521Y-96210033D01*
X30943560Y-96147089D01*
X30782240Y-96115000D01*
X30617760Y-96115000D01*
X30456440Y-96147089D01*
X30304479Y-96210033D01*
X30167719Y-96301413D01*
X30051413Y-96417719D01*
X29960033Y-96554479D01*
X29897089Y-96706440D01*
X29865000Y-96867760D01*
X29535000Y-96867760D01*
X29502911Y-96706440D01*
X29439967Y-96554479D01*
X29348587Y-96417719D01*
X29232281Y-96301413D01*
X29095521Y-96210033D01*
X28943560Y-96147089D01*
X28782240Y-96115000D01*
X28617760Y-96115000D01*
X28456440Y-96147089D01*
X28304479Y-96210033D01*
X28167719Y-96301413D01*
X28051413Y-96417719D01*
X27960033Y-96554479D01*
X27897089Y-96706440D01*
X27865000Y-96867760D01*
X27535000Y-96867760D01*
X27502911Y-96706440D01*
X27439967Y-96554479D01*
X27348587Y-96417719D01*
X27232281Y-96301413D01*
X27095521Y-96210033D01*
X26943560Y-96147089D01*
X26782240Y-96115000D01*
X26617760Y-96115000D01*
X26456440Y-96147089D01*
X26304479Y-96210033D01*
X26167719Y-96301413D01*
X26051413Y-96417719D01*
X25960033Y-96554479D01*
X25897089Y-96706440D01*
X25865000Y-96867760D01*
X25635000Y-96867760D01*
X25635000Y-96857911D01*
X25599068Y-96677271D01*
X25528586Y-96507111D01*
X25426262Y-96353972D01*
X25296028Y-96223738D01*
X25142889Y-96121414D01*
X24972729Y-96050932D01*
X24792089Y-96015000D01*
X24607911Y-96015000D01*
X24427271Y-96050932D01*
X24257111Y-96121414D01*
X24103972Y-96223738D01*
X23973738Y-96353972D01*
X23871414Y-96507111D01*
X23800932Y-96677271D01*
X23765000Y-96857911D01*
X23533041Y-96857911D01*
X23502911Y-96706440D01*
X23439967Y-96554479D01*
X23348587Y-96417719D01*
X23232281Y-96301413D01*
X23095521Y-96210033D01*
X22943560Y-96147089D01*
X22782240Y-96115000D01*
X22617760Y-96115000D01*
X22456440Y-96147089D01*
X22304479Y-96210033D01*
X22167719Y-96301413D01*
X22051413Y-96417719D01*
X21960033Y-96554479D01*
X21897089Y-96706440D01*
X21865000Y-96867760D01*
X20660000Y-96867760D01*
X20660000Y-90950000D01*
X21311928Y-90950000D01*
X21311928Y-92650000D01*
X21324188Y-92774482D01*
X21360498Y-92894180D01*
X21419463Y-93004494D01*
X21498815Y-93101185D01*
X21595506Y-93180537D01*
X21705820Y-93239502D01*
X21825518Y-93275812D01*
X21950000Y-93288072D01*
X23650000Y-93288072D01*
X23774482Y-93275812D01*
X23894180Y-93239502D01*
X24004494Y-93180537D01*
X24101185Y-93101185D01*
X24180537Y-93004494D01*
X24239502Y-92894180D01*
X24263966Y-92813534D01*
X24339731Y-92897588D01*
X24573080Y-93071641D01*
X24835901Y-93196825D01*
X24983110Y-93241476D01*
X25213000Y-93120155D01*
X25213000Y-91927000D01*
X25467000Y-91927000D01*
X25467000Y-93120155D01*
X25696890Y-93241476D01*
X25844099Y-93196825D01*
X26106920Y-93071641D01*
X26340269Y-92897588D01*
X26535178Y-92681355D01*
X26684157Y-92431252D01*
X26781481Y-92156891D01*
X26660814Y-91927000D01*
X25467000Y-91927000D01*
X25213000Y-91927000D01*
X25193000Y-91927000D01*
X25193000Y-91673000D01*
X25213000Y-91673000D01*
X25213000Y-90479845D01*
X25467000Y-90479845D01*
X25467000Y-91673000D01*
X26660814Y-91673000D01*
X26781481Y-91443109D01*
X26684157Y-91168748D01*
X26535178Y-90918645D01*
X26340269Y-90702412D01*
X26106920Y-90528359D01*
X25844099Y-90403175D01*
X25696890Y-90358524D01*
X25467000Y-90479845D01*
X25213000Y-90479845D01*
X24983110Y-90358524D01*
X24835901Y-90403175D01*
X24573080Y-90528359D01*
X24339731Y-90702412D01*
X24263966Y-90786466D01*
X24239502Y-90705820D01*
X24180537Y-90595506D01*
X24101185Y-90498815D01*
X24004494Y-90419463D01*
X23894180Y-90360498D01*
X23774482Y-90324188D01*
X23650000Y-90311928D01*
X21950000Y-90311928D01*
X21825518Y-90324188D01*
X21705820Y-90360498D01*
X21595506Y-90419463D01*
X21498815Y-90498815D01*
X21419463Y-90595506D01*
X21360498Y-90705820D01*
X21324188Y-90825518D01*
X21311928Y-90950000D01*
X20660000Y-90950000D01*
X20660000Y-87438310D01*
X20825537Y-87548918D01*
X21123088Y-87672168D01*
X21438967Y-87735000D01*
X21761033Y-87735000D01*
X22076912Y-87672168D01*
X22374463Y-87548918D01*
X22642252Y-87369987D01*
X22869987Y-87142252D01*
X23048918Y-86874463D01*
X23054909Y-86860000D01*
X26645091Y-86860000D01*
X26651082Y-86874463D01*
G36*
X50845626Y-107384837D02*
G01*
X51015144Y-107498105D01*
X51203502Y-107576126D01*
X51254239Y-107586218D01*
X51283674Y-107734198D01*
X51361695Y-107922556D01*
X51474963Y-108092074D01*
X51619126Y-108236237D01*
X51784446Y-108346700D01*
X51232133Y-108346700D01*
X51194800Y-108343023D01*
X51157467Y-108346700D01*
X51045814Y-108357697D01*
X51037885Y-108360102D01*
X51013239Y-108355200D01*
X50809361Y-108355200D01*
X50609402Y-108394974D01*
X50421044Y-108472995D01*
X50251526Y-108586263D01*
X50107363Y-108730426D01*
X49994095Y-108899944D01*
X49916074Y-109088302D01*
X49876300Y-109288261D01*
X49876300Y-109492139D01*
X49916074Y-109692098D01*
X49994095Y-109880456D01*
X50107363Y-110049974D01*
X50251526Y-110194137D01*
X50421044Y-110307405D01*
X50609402Y-110385426D01*
X50809361Y-110425200D01*
X51013239Y-110425200D01*
X51213198Y-110385426D01*
X51401556Y-110307405D01*
X51495970Y-110244320D01*
X51485402Y-110257197D01*
X51485401Y-110257198D01*
X51414226Y-110343924D01*
X51343654Y-110475954D01*
X51313380Y-110575758D01*
X51300198Y-110619214D01*
X51296693Y-110654799D01*
X51285524Y-110768200D01*
X51289201Y-110805532D01*
X51289200Y-113740000D01*
X45379701Y-113740000D01*
X45375812Y-113700518D01*
X45339502Y-113580820D01*
X45296302Y-113500000D01*
X45339502Y-113419180D01*
X45375812Y-113299482D01*
X45388072Y-113175000D01*
X45385000Y-112785750D01*
X45226250Y-112627000D01*
X44155906Y-112627000D01*
X44164174Y-112424535D01*
X44156093Y-112373000D01*
X45226250Y-112373000D01*
X45385000Y-112214250D01*
X45388072Y-111825000D01*
X45375812Y-111700518D01*
X45339502Y-111580820D01*
X45296302Y-111500000D01*
X45339502Y-111419180D01*
X45375812Y-111299482D01*
X45388072Y-111175000D01*
X45388072Y-109887574D01*
X45453501Y-109953003D01*
X45477299Y-109982001D01*
X45593024Y-110076974D01*
X45725053Y-110147546D01*
X45868314Y-110191003D01*
X45979967Y-110202000D01*
X45979976Y-110202000D01*
X46017299Y-110205676D01*
X46054622Y-110202000D01*
X48185578Y-110202000D01*
X48222900Y-110205676D01*
X48260222Y-110202000D01*
X48260233Y-110202000D01*
X48371886Y-110191003D01*
X48515147Y-110147546D01*
X48647176Y-110076974D01*
X48762901Y-109982001D01*
X48786704Y-109952997D01*
X50000204Y-108739498D01*
X50029201Y-108715701D01*
X50124174Y-108599976D01*
X50194746Y-108467947D01*
X50238203Y-108324686D01*
X50249200Y-108213033D01*
X50249200Y-108213025D01*
X50252876Y-108175700D01*
X50249200Y-108138375D01*
X50249200Y-107853601D01*
X50781795Y-107321006D01*
X50845626Y-107384837D01*
G37*
X50845626Y-107384837D02*
X51015144Y-107498105D01*
X51203502Y-107576126D01*
X51254239Y-107586218D01*
X51283674Y-107734198D01*
X51361695Y-107922556D01*
X51474963Y-108092074D01*
X51619126Y-108236237D01*
X51784446Y-108346700D01*
X51232133Y-108346700D01*
X51194800Y-108343023D01*
X51157467Y-108346700D01*
X51045814Y-108357697D01*
X51037885Y-108360102D01*
X51013239Y-108355200D01*
X50809361Y-108355200D01*
X50609402Y-108394974D01*
X50421044Y-108472995D01*
X50251526Y-108586263D01*
X50107363Y-108730426D01*
X49994095Y-108899944D01*
X49916074Y-109088302D01*
X49876300Y-109288261D01*
X49876300Y-109492139D01*
X49916074Y-109692098D01*
X49994095Y-109880456D01*
X50107363Y-110049974D01*
X50251526Y-110194137D01*
X50421044Y-110307405D01*
X50609402Y-110385426D01*
X50809361Y-110425200D01*
X51013239Y-110425200D01*
X51213198Y-110385426D01*
X51401556Y-110307405D01*
X51495970Y-110244320D01*
X51485402Y-110257197D01*
X51485401Y-110257198D01*
X51414226Y-110343924D01*
X51343654Y-110475954D01*
X51313380Y-110575758D01*
X51300198Y-110619214D01*
X51296693Y-110654799D01*
X51285524Y-110768200D01*
X51289201Y-110805532D01*
X51289200Y-113740000D01*
X45379701Y-113740000D01*
X45375812Y-113700518D01*
X45339502Y-113580820D01*
X45296302Y-113500000D01*
X45339502Y-113419180D01*
X45375812Y-113299482D01*
X45388072Y-113175000D01*
X45385000Y-112785750D01*
X45226250Y-112627000D01*
X44155906Y-112627000D01*
X44164174Y-112424535D01*
X44156093Y-112373000D01*
X45226250Y-112373000D01*
X45385000Y-112214250D01*
X45388072Y-111825000D01*
X45375812Y-111700518D01*
X45339502Y-111580820D01*
X45296302Y-111500000D01*
X45339502Y-111419180D01*
X45375812Y-111299482D01*
X45388072Y-111175000D01*
X45388072Y-109887574D01*
X45453501Y-109953003D01*
X45477299Y-109982001D01*
X45593024Y-110076974D01*
X45725053Y-110147546D01*
X45868314Y-110191003D01*
X45979967Y-110202000D01*
X45979976Y-110202000D01*
X46017299Y-110205676D01*
X46054622Y-110202000D01*
X48185578Y-110202000D01*
X48222900Y-110205676D01*
X48260222Y-110202000D01*
X48260233Y-110202000D01*
X48371886Y-110191003D01*
X48515147Y-110147546D01*
X48647176Y-110076974D01*
X48762901Y-109982001D01*
X48786704Y-109952997D01*
X50000204Y-108739498D01*
X50029201Y-108715701D01*
X50124174Y-108599976D01*
X50194746Y-108467947D01*
X50238203Y-108324686D01*
X50249200Y-108213033D01*
X50249200Y-108213025D01*
X50252876Y-108175700D01*
X50249200Y-108138375D01*
X50249200Y-107853601D01*
X50781795Y-107321006D01*
X50845626Y-107384837D01*
M02*
