G04 #@! TF.GenerationSoftware,KiCad,Pcbnew,(5.1.5-0-10_14)*
G04 #@! TF.CreationDate,2020-08-26T20:56:13+02:00*
G04 #@! TF.ProjectId,HB-RC-4-Dis-TH,48422d52-432d-4342-9d44-69732d54482e,rev?*
G04 #@! TF.SameCoordinates,Original*
G04 #@! TF.FileFunction,Legend,Top*
G04 #@! TF.FilePolarity,Positive*
%FSLAX46Y46*%
G04 Gerber Fmt 4.6, Leading zero omitted, Abs format (unit mm)*
G04 Created by KiCad (PCBNEW (5.1.5-0-10_14)) date 2020-08-26 20:56:13*
%MOMM*%
%LPD*%
G04 APERTURE LIST*
%ADD10C,0.120000*%
%ADD11C,0.200000*%
%ADD12C,0.150000*%
G04 APERTURE END LIST*
D10*
X60300000Y-119300000D02*
X41500000Y-119300000D01*
X32700000Y-91700000D02*
X39000000Y-91700000D01*
X60300000Y-91700000D02*
X60300000Y-96400000D01*
X30600000Y-90300000D02*
X30600000Y-97000000D01*
X32700000Y-91700000D02*
X32700000Y-97000000D01*
X30600000Y-121500000D02*
X30600000Y-119100000D01*
X32700000Y-116600000D02*
X32700000Y-114000000D01*
X39100000Y-119300000D02*
X32700000Y-119300000D01*
X60300000Y-114500000D02*
X60300000Y-119300000D01*
X41600000Y-91700000D02*
X60300000Y-91700000D01*
X62600000Y-89500000D02*
X62600000Y-96400000D01*
D11*
X30600000Y-90300000D02*
X30600000Y-80050000D01*
X44750000Y-90300000D02*
X30600000Y-90300000D01*
X44800000Y-80050000D02*
X44800000Y-90300000D01*
X30600000Y-80050000D02*
X44750000Y-80050000D01*
D10*
X62600000Y-114500000D02*
X62600000Y-121400000D01*
X30600000Y-116600000D02*
X30600000Y-114000000D01*
X68100000Y-121500000D02*
X30600000Y-121500000D01*
X68100000Y-89500000D02*
X68100000Y-121500000D01*
X44800000Y-89500000D02*
X68100000Y-89500000D01*
X64920000Y-97830000D02*
X63200000Y-97830000D01*
X64920000Y-113170000D02*
X64920000Y-97830000D01*
X63200000Y-113170000D02*
X64920000Y-113170000D01*
X59080000Y-111700000D02*
X57900000Y-111700000D01*
X59080000Y-113170000D02*
X59080000Y-111700000D01*
X60400000Y-113170000D02*
X59080000Y-113170000D01*
X59080000Y-97830000D02*
X60400000Y-97830000D01*
X59080000Y-99300000D02*
X59080000Y-97830000D01*
X47200000Y-122750000D02*
X45700000Y-122750000D01*
X43200000Y-124000000D02*
X43200000Y-128500000D01*
X45700000Y-129750000D02*
X47200000Y-129750000D01*
X49700000Y-128500000D02*
X49700000Y-124000000D01*
X70750000Y-128000000D02*
X70750000Y-126500000D01*
X69500000Y-124000000D02*
X65000000Y-124000000D01*
X63750000Y-126500000D02*
X63750000Y-128000000D01*
X65000000Y-130500000D02*
X69500000Y-130500000D01*
X29250000Y-128000000D02*
X29250000Y-126500000D01*
X28000000Y-124000000D02*
X23500000Y-124000000D01*
X22250000Y-126500000D02*
X22250000Y-128000000D01*
X23500000Y-130500000D02*
X28000000Y-130500000D01*
X63750000Y-83000000D02*
X63750000Y-84500000D01*
X65000000Y-87000000D02*
X69500000Y-87000000D01*
X70750000Y-84500000D02*
X70750000Y-83000000D01*
X69500000Y-80500000D02*
X65000000Y-80500000D01*
X22350000Y-83100000D02*
X22350000Y-84600000D01*
X23600000Y-87100000D02*
X28100000Y-87100000D01*
X29350000Y-84600000D02*
X29350000Y-83100000D01*
X28100000Y-80600000D02*
X23600000Y-80600000D01*
D12*
X45000000Y-97000000D02*
X45000000Y-97500000D01*
X45000000Y-114000000D02*
X45000000Y-113500000D01*
X26500000Y-102000000D02*
G75*
G03X26500000Y-102000000I-500000J0D01*
G01*
X26500000Y-107000000D02*
G75*
G03X26500000Y-107000000I-500000J0D01*
G01*
X26500000Y-104500000D02*
G75*
G03X26500000Y-104500000I-500000J0D01*
G01*
X45000000Y-114000000D02*
X25000000Y-114000000D01*
X25000000Y-114000000D02*
X25000000Y-97000000D01*
X25000000Y-97000000D02*
X45000000Y-97000000D01*
D10*
X52160000Y-127960000D02*
X52160000Y-125100000D01*
X50240000Y-127960000D02*
X52160000Y-127960000D01*
X50240000Y-125100000D02*
X50240000Y-127960000D01*
X42660000Y-127960000D02*
X42660000Y-125100000D01*
X40740000Y-127960000D02*
X42660000Y-127960000D01*
X40740000Y-125100000D02*
X40740000Y-127960000D01*
D12*
X55766666Y-97852380D02*
X55766666Y-98566666D01*
X55719047Y-98709523D01*
X55623809Y-98804761D01*
X55480952Y-98852380D01*
X55385714Y-98852380D01*
X56147619Y-97852380D02*
X56766666Y-97852380D01*
X56433333Y-98233333D01*
X56576190Y-98233333D01*
X56671428Y-98280952D01*
X56719047Y-98328571D01*
X56766666Y-98423809D01*
X56766666Y-98661904D01*
X56719047Y-98757142D01*
X56671428Y-98804761D01*
X56576190Y-98852380D01*
X56290476Y-98852380D01*
X56195238Y-98804761D01*
X56147619Y-98757142D01*
X43745761Y-87150457D02*
X43793380Y-87007600D01*
X43793380Y-86769504D01*
X43745761Y-86674266D01*
X43698142Y-86626647D01*
X43602904Y-86579028D01*
X43507666Y-86579028D01*
X43412428Y-86626647D01*
X43364809Y-86674266D01*
X43317190Y-86769504D01*
X43269571Y-86959980D01*
X43221952Y-87055219D01*
X43174333Y-87102838D01*
X43079095Y-87150457D01*
X42983857Y-87150457D01*
X42888619Y-87102838D01*
X42841000Y-87055219D01*
X42793380Y-86959980D01*
X42793380Y-86721885D01*
X42841000Y-86579028D01*
X43793380Y-86150457D02*
X42793380Y-86150457D01*
X43269571Y-86150457D02*
X43269571Y-85579028D01*
X43793380Y-85579028D02*
X42793380Y-85579028D01*
X42793380Y-85245695D02*
X42793380Y-84674266D01*
X43793380Y-84959980D02*
X42793380Y-84959980D01*
X42793380Y-84436171D02*
X42793380Y-83817123D01*
X43174333Y-84150457D01*
X43174333Y-84007600D01*
X43221952Y-83912361D01*
X43269571Y-83864742D01*
X43364809Y-83817123D01*
X43602904Y-83817123D01*
X43698142Y-83864742D01*
X43745761Y-83912361D01*
X43793380Y-84007600D01*
X43793380Y-84293314D01*
X43745761Y-84388552D01*
X43698142Y-84436171D01*
X43793380Y-82864742D02*
X43793380Y-83436171D01*
X43793380Y-83150457D02*
X42793380Y-83150457D01*
X42936238Y-83245695D01*
X43031476Y-83340933D01*
X43079095Y-83436171D01*
X34784523Y-86885561D02*
X34927380Y-86933180D01*
X35165476Y-86933180D01*
X35260714Y-86885561D01*
X35308333Y-86837942D01*
X35355952Y-86742704D01*
X35355952Y-86647466D01*
X35308333Y-86552228D01*
X35260714Y-86504609D01*
X35165476Y-86456990D01*
X34975000Y-86409371D01*
X34879761Y-86361752D01*
X34832142Y-86314133D01*
X34784523Y-86218895D01*
X34784523Y-86123657D01*
X34832142Y-86028419D01*
X34879761Y-85980800D01*
X34975000Y-85933180D01*
X35213095Y-85933180D01*
X35355952Y-85980800D01*
X36355952Y-86837942D02*
X36308333Y-86885561D01*
X36165476Y-86933180D01*
X36070238Y-86933180D01*
X35927380Y-86885561D01*
X35832142Y-86790323D01*
X35784523Y-86695085D01*
X35736904Y-86504609D01*
X35736904Y-86361752D01*
X35784523Y-86171276D01*
X35832142Y-86076038D01*
X35927380Y-85980800D01*
X36070238Y-85933180D01*
X36165476Y-85933180D01*
X36308333Y-85980800D01*
X36355952Y-86028419D01*
X37260714Y-86933180D02*
X36784523Y-86933180D01*
X36784523Y-85933180D01*
X34735314Y-89400161D02*
X34878171Y-89447780D01*
X35116266Y-89447780D01*
X35211504Y-89400161D01*
X35259123Y-89352542D01*
X35306742Y-89257304D01*
X35306742Y-89162066D01*
X35259123Y-89066828D01*
X35211504Y-89019209D01*
X35116266Y-88971590D01*
X34925790Y-88923971D01*
X34830552Y-88876352D01*
X34782933Y-88828733D01*
X34735314Y-88733495D01*
X34735314Y-88638257D01*
X34782933Y-88543019D01*
X34830552Y-88495400D01*
X34925790Y-88447780D01*
X35163885Y-88447780D01*
X35306742Y-88495400D01*
X35735314Y-89447780D02*
X35735314Y-88447780D01*
X35973409Y-88447780D01*
X36116266Y-88495400D01*
X36211504Y-88590638D01*
X36259123Y-88685876D01*
X36306742Y-88876352D01*
X36306742Y-89019209D01*
X36259123Y-89209685D01*
X36211504Y-89304923D01*
X36116266Y-89400161D01*
X35973409Y-89447780D01*
X35735314Y-89447780D01*
X36687695Y-89162066D02*
X37163885Y-89162066D01*
X36592457Y-89447780D02*
X36925790Y-88447780D01*
X37259123Y-89447780D01*
X35314695Y-83466200D02*
X35219457Y-83418580D01*
X35076600Y-83418580D01*
X34933742Y-83466200D01*
X34838504Y-83561438D01*
X34790885Y-83656676D01*
X34743266Y-83847152D01*
X34743266Y-83990009D01*
X34790885Y-84180485D01*
X34838504Y-84275723D01*
X34933742Y-84370961D01*
X35076600Y-84418580D01*
X35171838Y-84418580D01*
X35314695Y-84370961D01*
X35362314Y-84323342D01*
X35362314Y-83990009D01*
X35171838Y-83990009D01*
X35790885Y-84418580D02*
X35790885Y-83418580D01*
X36362314Y-84418580D01*
X36362314Y-83418580D01*
X36838504Y-84418580D02*
X36838504Y-83418580D01*
X37076600Y-83418580D01*
X37219457Y-83466200D01*
X37314695Y-83561438D01*
X37362314Y-83656676D01*
X37409933Y-83847152D01*
X37409933Y-83990009D01*
X37362314Y-84180485D01*
X37314695Y-84275723D01*
X37219457Y-84370961D01*
X37076600Y-84418580D01*
X36838504Y-84418580D01*
X34743266Y-80802380D02*
X35076600Y-81802380D01*
X35409933Y-80802380D01*
X36314695Y-81707142D02*
X36267076Y-81754761D01*
X36124219Y-81802380D01*
X36028980Y-81802380D01*
X35886123Y-81754761D01*
X35790885Y-81659523D01*
X35743266Y-81564285D01*
X35695647Y-81373809D01*
X35695647Y-81230952D01*
X35743266Y-81040476D01*
X35790885Y-80945238D01*
X35886123Y-80850000D01*
X36028980Y-80802380D01*
X36124219Y-80802380D01*
X36267076Y-80850000D01*
X36314695Y-80897619D01*
X37314695Y-81707142D02*
X37267076Y-81754761D01*
X37124219Y-81802380D01*
X37028980Y-81802380D01*
X36886123Y-81754761D01*
X36790885Y-81659523D01*
X36743266Y-81564285D01*
X36695647Y-81373809D01*
X36695647Y-81230952D01*
X36743266Y-81040476D01*
X36790885Y-80945238D01*
X36886123Y-80850000D01*
X37028980Y-80802380D01*
X37124219Y-80802380D01*
X37267076Y-80850000D01*
X37314695Y-80897619D01*
X45166666Y-126804761D02*
X45309523Y-126852380D01*
X45547619Y-126852380D01*
X45642857Y-126804761D01*
X45690476Y-126757142D01*
X45738095Y-126661904D01*
X45738095Y-126566666D01*
X45690476Y-126471428D01*
X45642857Y-126423809D01*
X45547619Y-126376190D01*
X45357142Y-126328571D01*
X45261904Y-126280952D01*
X45214285Y-126233333D01*
X45166666Y-126138095D01*
X45166666Y-126042857D01*
X45214285Y-125947619D01*
X45261904Y-125900000D01*
X45357142Y-125852380D01*
X45595238Y-125852380D01*
X45738095Y-125900000D01*
X46071428Y-125852380D02*
X46309523Y-126852380D01*
X46500000Y-126138095D01*
X46690476Y-126852380D01*
X46928571Y-125852380D01*
X47785714Y-125852380D02*
X47309523Y-125852380D01*
X47261904Y-126328571D01*
X47309523Y-126280952D01*
X47404761Y-126233333D01*
X47642857Y-126233333D01*
X47738095Y-126280952D01*
X47785714Y-126328571D01*
X47833333Y-126423809D01*
X47833333Y-126661904D01*
X47785714Y-126757142D01*
X47738095Y-126804761D01*
X47642857Y-126852380D01*
X47404761Y-126852380D01*
X47309523Y-126804761D01*
X47261904Y-126757142D01*
X65916666Y-123404761D02*
X66059523Y-123452380D01*
X66297619Y-123452380D01*
X66392857Y-123404761D01*
X66440476Y-123357142D01*
X66488095Y-123261904D01*
X66488095Y-123166666D01*
X66440476Y-123071428D01*
X66392857Y-123023809D01*
X66297619Y-122976190D01*
X66107142Y-122928571D01*
X66011904Y-122880952D01*
X65964285Y-122833333D01*
X65916666Y-122738095D01*
X65916666Y-122642857D01*
X65964285Y-122547619D01*
X66011904Y-122500000D01*
X66107142Y-122452380D01*
X66345238Y-122452380D01*
X66488095Y-122500000D01*
X66821428Y-122452380D02*
X67059523Y-123452380D01*
X67250000Y-122738095D01*
X67440476Y-123452380D01*
X67678571Y-122452380D01*
X68488095Y-122785714D02*
X68488095Y-123452380D01*
X68250000Y-122404761D02*
X68011904Y-123119047D01*
X68630952Y-123119047D01*
X24416666Y-123404761D02*
X24559523Y-123452380D01*
X24797619Y-123452380D01*
X24892857Y-123404761D01*
X24940476Y-123357142D01*
X24988095Y-123261904D01*
X24988095Y-123166666D01*
X24940476Y-123071428D01*
X24892857Y-123023809D01*
X24797619Y-122976190D01*
X24607142Y-122928571D01*
X24511904Y-122880952D01*
X24464285Y-122833333D01*
X24416666Y-122738095D01*
X24416666Y-122642857D01*
X24464285Y-122547619D01*
X24511904Y-122500000D01*
X24607142Y-122452380D01*
X24845238Y-122452380D01*
X24988095Y-122500000D01*
X25321428Y-122452380D02*
X25559523Y-123452380D01*
X25750000Y-122738095D01*
X25940476Y-123452380D01*
X26178571Y-122452380D01*
X26464285Y-122452380D02*
X27083333Y-122452380D01*
X26750000Y-122833333D01*
X26892857Y-122833333D01*
X26988095Y-122880952D01*
X27035714Y-122928571D01*
X27083333Y-123023809D01*
X27083333Y-123261904D01*
X27035714Y-123357142D01*
X26988095Y-123404761D01*
X26892857Y-123452380D01*
X26607142Y-123452380D01*
X26511904Y-123404761D01*
X26464285Y-123357142D01*
X65916666Y-88404761D02*
X66059523Y-88452380D01*
X66297619Y-88452380D01*
X66392857Y-88404761D01*
X66440476Y-88357142D01*
X66488095Y-88261904D01*
X66488095Y-88166666D01*
X66440476Y-88071428D01*
X66392857Y-88023809D01*
X66297619Y-87976190D01*
X66107142Y-87928571D01*
X66011904Y-87880952D01*
X65964285Y-87833333D01*
X65916666Y-87738095D01*
X65916666Y-87642857D01*
X65964285Y-87547619D01*
X66011904Y-87500000D01*
X66107142Y-87452380D01*
X66345238Y-87452380D01*
X66488095Y-87500000D01*
X66821428Y-87452380D02*
X67059523Y-88452380D01*
X67250000Y-87738095D01*
X67440476Y-88452380D01*
X67678571Y-87452380D01*
X68011904Y-87547619D02*
X68059523Y-87500000D01*
X68154761Y-87452380D01*
X68392857Y-87452380D01*
X68488095Y-87500000D01*
X68535714Y-87547619D01*
X68583333Y-87642857D01*
X68583333Y-87738095D01*
X68535714Y-87880952D01*
X67964285Y-88452380D01*
X68583333Y-88452380D01*
X24516666Y-88504761D02*
X24659523Y-88552380D01*
X24897619Y-88552380D01*
X24992857Y-88504761D01*
X25040476Y-88457142D01*
X25088095Y-88361904D01*
X25088095Y-88266666D01*
X25040476Y-88171428D01*
X24992857Y-88123809D01*
X24897619Y-88076190D01*
X24707142Y-88028571D01*
X24611904Y-87980952D01*
X24564285Y-87933333D01*
X24516666Y-87838095D01*
X24516666Y-87742857D01*
X24564285Y-87647619D01*
X24611904Y-87600000D01*
X24707142Y-87552380D01*
X24945238Y-87552380D01*
X25088095Y-87600000D01*
X25421428Y-87552380D02*
X25659523Y-88552380D01*
X25850000Y-87838095D01*
X26040476Y-88552380D01*
X26278571Y-87552380D01*
X27183333Y-88552380D02*
X26611904Y-88552380D01*
X26897619Y-88552380D02*
X26897619Y-87552380D01*
X26802380Y-87695238D01*
X26707142Y-87790476D01*
X26611904Y-87838095D01*
X31804761Y-105957142D02*
X31757142Y-106004761D01*
X31614285Y-106052380D01*
X31519047Y-106052380D01*
X31376190Y-106004761D01*
X31280952Y-105909523D01*
X31233333Y-105814285D01*
X31185714Y-105623809D01*
X31185714Y-105480952D01*
X31233333Y-105290476D01*
X31280952Y-105195238D01*
X31376190Y-105100000D01*
X31519047Y-105052380D01*
X31614285Y-105052380D01*
X31757142Y-105100000D01*
X31804761Y-105147619D01*
X32804761Y-105957142D02*
X32757142Y-106004761D01*
X32614285Y-106052380D01*
X32519047Y-106052380D01*
X32376190Y-106004761D01*
X32280952Y-105909523D01*
X32233333Y-105814285D01*
X32185714Y-105623809D01*
X32185714Y-105480952D01*
X32233333Y-105290476D01*
X32280952Y-105195238D01*
X32376190Y-105100000D01*
X32519047Y-105052380D01*
X32614285Y-105052380D01*
X32757142Y-105100000D01*
X32804761Y-105147619D01*
X33757142Y-106052380D02*
X33185714Y-106052380D01*
X33471428Y-106052380D02*
X33471428Y-105052380D01*
X33376190Y-105195238D01*
X33280952Y-105290476D01*
X33185714Y-105338095D01*
X34709523Y-106052380D02*
X34138095Y-106052380D01*
X34423809Y-106052380D02*
X34423809Y-105052380D01*
X34328571Y-105195238D01*
X34233333Y-105290476D01*
X34138095Y-105338095D01*
X35328571Y-105052380D02*
X35423809Y-105052380D01*
X35519047Y-105100000D01*
X35566666Y-105147619D01*
X35614285Y-105242857D01*
X35661904Y-105433333D01*
X35661904Y-105671428D01*
X35614285Y-105861904D01*
X35566666Y-105957142D01*
X35519047Y-106004761D01*
X35423809Y-106052380D01*
X35328571Y-106052380D01*
X35233333Y-106004761D01*
X35185714Y-105957142D01*
X35138095Y-105861904D01*
X35090476Y-105671428D01*
X35090476Y-105433333D01*
X35138095Y-105242857D01*
X35185714Y-105147619D01*
X35233333Y-105100000D01*
X35328571Y-105052380D01*
X36614285Y-106052380D02*
X36042857Y-106052380D01*
X36328571Y-106052380D02*
X36328571Y-105052380D01*
X36233333Y-105195238D01*
X36138095Y-105290476D01*
X36042857Y-105338095D01*
X51691380Y-130211095D02*
X50691380Y-130211095D01*
X50691380Y-129973000D01*
X50739000Y-129830142D01*
X50834238Y-129734904D01*
X50929476Y-129687285D01*
X51119952Y-129639666D01*
X51262809Y-129639666D01*
X51453285Y-129687285D01*
X51548523Y-129734904D01*
X51643761Y-129830142D01*
X51691380Y-129973000D01*
X51691380Y-130211095D01*
X50786619Y-129258714D02*
X50739000Y-129211095D01*
X50691380Y-129115857D01*
X50691380Y-128877761D01*
X50739000Y-128782523D01*
X50786619Y-128734904D01*
X50881857Y-128687285D01*
X50977095Y-128687285D01*
X51119952Y-128734904D01*
X51691380Y-129306333D01*
X51691380Y-128687285D01*
X42096380Y-130211095D02*
X41096380Y-130211095D01*
X41096380Y-129973000D01*
X41144000Y-129830142D01*
X41239238Y-129734904D01*
X41334476Y-129687285D01*
X41524952Y-129639666D01*
X41667809Y-129639666D01*
X41858285Y-129687285D01*
X41953523Y-129734904D01*
X42048761Y-129830142D01*
X42096380Y-129973000D01*
X42096380Y-130211095D01*
X42096380Y-128687285D02*
X42096380Y-129258714D01*
X42096380Y-128973000D02*
X41096380Y-128973000D01*
X41239238Y-129068238D01*
X41334476Y-129163476D01*
X41382095Y-129258714D01*
M02*
