G04 #@! TF.GenerationSoftware,KiCad,Pcbnew,(5.1.5-0-10_14)*
G04 #@! TF.CreationDate,2020-08-16T19:30:06+02:00*
G04 #@! TF.ProjectId,HB-RC-4-Dis-TH,48422d52-432d-4342-9d44-69732d54482e,rev?*
G04 #@! TF.SameCoordinates,Original*
G04 #@! TF.FileFunction,Soldermask,Bot*
G04 #@! TF.FilePolarity,Negative*
%FSLAX46Y46*%
G04 Gerber Fmt 4.6, Leading zero omitted, Abs format (unit mm)*
G04 Created by KiCad (PCBNEW (5.1.5-0-10_14)) date 2020-08-16 19:30:06*
%MOMM*%
%LPD*%
G04 APERTURE LIST*
%ADD10C,0.100000*%
G04 APERTURE END LIST*
D10*
G36*
X71706564Y-130389389D02*
G01*
X71897833Y-130468615D01*
X71897835Y-130468616D01*
X72069973Y-130583635D01*
X72216365Y-130730027D01*
X72331385Y-130902167D01*
X72410611Y-131093436D01*
X72451000Y-131296484D01*
X72451000Y-131503516D01*
X72410611Y-131706564D01*
X72365130Y-131816365D01*
X72331384Y-131897835D01*
X72216365Y-132069973D01*
X72069973Y-132216365D01*
X71897835Y-132331384D01*
X71897834Y-132331385D01*
X71897833Y-132331385D01*
X71706564Y-132410611D01*
X71503516Y-132451000D01*
X71296484Y-132451000D01*
X71093436Y-132410611D01*
X70902167Y-132331385D01*
X70902166Y-132331385D01*
X70902165Y-132331384D01*
X70730027Y-132216365D01*
X70583635Y-132069973D01*
X70468616Y-131897835D01*
X70434870Y-131816365D01*
X70389389Y-131706564D01*
X70349000Y-131503516D01*
X70349000Y-131296484D01*
X70389389Y-131093436D01*
X70468615Y-130902167D01*
X70583635Y-130730027D01*
X70730027Y-130583635D01*
X70902165Y-130468616D01*
X70902167Y-130468615D01*
X71093436Y-130389389D01*
X71296484Y-130349000D01*
X71503516Y-130349000D01*
X71706564Y-130389389D01*
G37*
G36*
X65206564Y-130389389D02*
G01*
X65397833Y-130468615D01*
X65397835Y-130468616D01*
X65569973Y-130583635D01*
X65716365Y-130730027D01*
X65831385Y-130902167D01*
X65910611Y-131093436D01*
X65951000Y-131296484D01*
X65951000Y-131503516D01*
X65910611Y-131706564D01*
X65865130Y-131816365D01*
X65831384Y-131897835D01*
X65716365Y-132069973D01*
X65569973Y-132216365D01*
X65397835Y-132331384D01*
X65397834Y-132331385D01*
X65397833Y-132331385D01*
X65206564Y-132410611D01*
X65003516Y-132451000D01*
X64796484Y-132451000D01*
X64593436Y-132410611D01*
X64402167Y-132331385D01*
X64402166Y-132331385D01*
X64402165Y-132331384D01*
X64230027Y-132216365D01*
X64083635Y-132069973D01*
X63968616Y-131897835D01*
X63934870Y-131816365D01*
X63889389Y-131706564D01*
X63849000Y-131503516D01*
X63849000Y-131296484D01*
X63889389Y-131093436D01*
X63968615Y-130902167D01*
X64083635Y-130730027D01*
X64230027Y-130583635D01*
X64402165Y-130468616D01*
X64402167Y-130468615D01*
X64593436Y-130389389D01*
X64796484Y-130349000D01*
X65003516Y-130349000D01*
X65206564Y-130389389D01*
G37*
G36*
X28406564Y-130389389D02*
G01*
X28597833Y-130468615D01*
X28597835Y-130468616D01*
X28769973Y-130583635D01*
X28916365Y-130730027D01*
X29031385Y-130902167D01*
X29110611Y-131093436D01*
X29151000Y-131296484D01*
X29151000Y-131503516D01*
X29110611Y-131706564D01*
X29065130Y-131816365D01*
X29031384Y-131897835D01*
X28916365Y-132069973D01*
X28769973Y-132216365D01*
X28597835Y-132331384D01*
X28597834Y-132331385D01*
X28597833Y-132331385D01*
X28406564Y-132410611D01*
X28203516Y-132451000D01*
X27996484Y-132451000D01*
X27793436Y-132410611D01*
X27602167Y-132331385D01*
X27602166Y-132331385D01*
X27602165Y-132331384D01*
X27430027Y-132216365D01*
X27283635Y-132069973D01*
X27168616Y-131897835D01*
X27134870Y-131816365D01*
X27089389Y-131706564D01*
X27049000Y-131503516D01*
X27049000Y-131296484D01*
X27089389Y-131093436D01*
X27168615Y-130902167D01*
X27283635Y-130730027D01*
X27430027Y-130583635D01*
X27602165Y-130468616D01*
X27602167Y-130468615D01*
X27793436Y-130389389D01*
X27996484Y-130349000D01*
X28203516Y-130349000D01*
X28406564Y-130389389D01*
G37*
G36*
X21906564Y-130389389D02*
G01*
X22097833Y-130468615D01*
X22097835Y-130468616D01*
X22269973Y-130583635D01*
X22416365Y-130730027D01*
X22531385Y-130902167D01*
X22610611Y-131093436D01*
X22651000Y-131296484D01*
X22651000Y-131503516D01*
X22610611Y-131706564D01*
X22565130Y-131816365D01*
X22531384Y-131897835D01*
X22416365Y-132069973D01*
X22269973Y-132216365D01*
X22097835Y-132331384D01*
X22097834Y-132331385D01*
X22097833Y-132331385D01*
X21906564Y-132410611D01*
X21703516Y-132451000D01*
X21496484Y-132451000D01*
X21293436Y-132410611D01*
X21102167Y-132331385D01*
X21102166Y-132331385D01*
X21102165Y-132331384D01*
X20930027Y-132216365D01*
X20783635Y-132069973D01*
X20668616Y-131897835D01*
X20634870Y-131816365D01*
X20589389Y-131706564D01*
X20549000Y-131503516D01*
X20549000Y-131296484D01*
X20589389Y-131093436D01*
X20668615Y-130902167D01*
X20783635Y-130730027D01*
X20930027Y-130583635D01*
X21102165Y-130468616D01*
X21102167Y-130468615D01*
X21293436Y-130389389D01*
X21496484Y-130349000D01*
X21703516Y-130349000D01*
X21906564Y-130389389D01*
G37*
G36*
X48806564Y-129989389D02*
G01*
X48997833Y-130068615D01*
X48997835Y-130068616D01*
X49169973Y-130183635D01*
X49316365Y-130330027D01*
X49408967Y-130468615D01*
X49431385Y-130502167D01*
X49510611Y-130693436D01*
X49551000Y-130896484D01*
X49551000Y-131103516D01*
X49510611Y-131306564D01*
X49431385Y-131497833D01*
X49431384Y-131497835D01*
X49316365Y-131669973D01*
X49169973Y-131816365D01*
X48997835Y-131931384D01*
X48997834Y-131931385D01*
X48997833Y-131931385D01*
X48806564Y-132010611D01*
X48603516Y-132051000D01*
X48396484Y-132051000D01*
X48193436Y-132010611D01*
X48002167Y-131931385D01*
X48002166Y-131931385D01*
X48002165Y-131931384D01*
X47830027Y-131816365D01*
X47683635Y-131669973D01*
X47568616Y-131497835D01*
X47568615Y-131497833D01*
X47489389Y-131306564D01*
X47449000Y-131103516D01*
X47449000Y-130896484D01*
X47489389Y-130693436D01*
X47568615Y-130502167D01*
X47591034Y-130468615D01*
X47683635Y-130330027D01*
X47830027Y-130183635D01*
X48002165Y-130068616D01*
X48002167Y-130068615D01*
X48193436Y-129989389D01*
X48396484Y-129949000D01*
X48603516Y-129949000D01*
X48806564Y-129989389D01*
G37*
G36*
X44306564Y-129989389D02*
G01*
X44497833Y-130068615D01*
X44497835Y-130068616D01*
X44669973Y-130183635D01*
X44816365Y-130330027D01*
X44908967Y-130468615D01*
X44931385Y-130502167D01*
X45010611Y-130693436D01*
X45051000Y-130896484D01*
X45051000Y-131103516D01*
X45010611Y-131306564D01*
X44931385Y-131497833D01*
X44931384Y-131497835D01*
X44816365Y-131669973D01*
X44669973Y-131816365D01*
X44497835Y-131931384D01*
X44497834Y-131931385D01*
X44497833Y-131931385D01*
X44306564Y-132010611D01*
X44103516Y-132051000D01*
X43896484Y-132051000D01*
X43693436Y-132010611D01*
X43502167Y-131931385D01*
X43502166Y-131931385D01*
X43502165Y-131931384D01*
X43330027Y-131816365D01*
X43183635Y-131669973D01*
X43068616Y-131497835D01*
X43068615Y-131497833D01*
X42989389Y-131306564D01*
X42949000Y-131103516D01*
X42949000Y-130896484D01*
X42989389Y-130693436D01*
X43068615Y-130502167D01*
X43091034Y-130468615D01*
X43183635Y-130330027D01*
X43330027Y-130183635D01*
X43502165Y-130068616D01*
X43502167Y-130068615D01*
X43693436Y-129989389D01*
X43896484Y-129949000D01*
X44103516Y-129949000D01*
X44306564Y-129989389D01*
G37*
G36*
X60526000Y-130801000D02*
G01*
X57924000Y-130801000D01*
X57924000Y-127499000D01*
X60526000Y-127499000D01*
X60526000Y-130801000D01*
G37*
G36*
X55438674Y-128053465D02*
G01*
X55476367Y-128064899D01*
X55511103Y-128083466D01*
X55541548Y-128108452D01*
X55566534Y-128138897D01*
X55585101Y-128173633D01*
X55596535Y-128211326D01*
X55601000Y-128256661D01*
X55601000Y-129093339D01*
X55596535Y-129138674D01*
X55585101Y-129176367D01*
X55566534Y-129211103D01*
X55541548Y-129241548D01*
X55511103Y-129266534D01*
X55476367Y-129285101D01*
X55438674Y-129296535D01*
X55393339Y-129301000D01*
X54306661Y-129301000D01*
X54261326Y-129296535D01*
X54223633Y-129285101D01*
X54188897Y-129266534D01*
X54158452Y-129241548D01*
X54133466Y-129211103D01*
X54114899Y-129176367D01*
X54103465Y-129138674D01*
X54099000Y-129093339D01*
X54099000Y-128256661D01*
X54103465Y-128211326D01*
X54114899Y-128173633D01*
X54133466Y-128138897D01*
X54158452Y-128108452D01*
X54188897Y-128083466D01*
X54223633Y-128064899D01*
X54261326Y-128053465D01*
X54306661Y-128049000D01*
X55393339Y-128049000D01*
X55438674Y-128053465D01*
G37*
G36*
X38638674Y-128003465D02*
G01*
X38676367Y-128014899D01*
X38711103Y-128033466D01*
X38741548Y-128058452D01*
X38766534Y-128088897D01*
X38785101Y-128123633D01*
X38796535Y-128161326D01*
X38801000Y-128206661D01*
X38801000Y-129043339D01*
X38796535Y-129088674D01*
X38785101Y-129126367D01*
X38766534Y-129161103D01*
X38741548Y-129191548D01*
X38711103Y-129216534D01*
X38676367Y-129235101D01*
X38638674Y-129246535D01*
X38593339Y-129251000D01*
X37506661Y-129251000D01*
X37461326Y-129246535D01*
X37423633Y-129235101D01*
X37388897Y-129216534D01*
X37358452Y-129191548D01*
X37333466Y-129161103D01*
X37314899Y-129126367D01*
X37303465Y-129088674D01*
X37299000Y-129043339D01*
X37299000Y-128206661D01*
X37303465Y-128161326D01*
X37314899Y-128123633D01*
X37333466Y-128088897D01*
X37358452Y-128058452D01*
X37388897Y-128033466D01*
X37423633Y-128014899D01*
X37461326Y-128003465D01*
X37506661Y-127999000D01*
X38593339Y-127999000D01*
X38638674Y-128003465D01*
G37*
G36*
X21906564Y-125889389D02*
G01*
X22097833Y-125968615D01*
X22097835Y-125968616D01*
X22232284Y-126058452D01*
X22269973Y-126083635D01*
X22416365Y-126230027D01*
X22531385Y-126402167D01*
X22610611Y-126593436D01*
X22651000Y-126796484D01*
X22651000Y-127003516D01*
X22610611Y-127206564D01*
X22592205Y-127251000D01*
X22531384Y-127397835D01*
X22416365Y-127569973D01*
X22269973Y-127716365D01*
X22097835Y-127831384D01*
X22097834Y-127831385D01*
X22097833Y-127831385D01*
X21906564Y-127910611D01*
X21703516Y-127951000D01*
X21496484Y-127951000D01*
X21293436Y-127910611D01*
X21102167Y-127831385D01*
X21102166Y-127831385D01*
X21102165Y-127831384D01*
X20930027Y-127716365D01*
X20783635Y-127569973D01*
X20668616Y-127397835D01*
X20607795Y-127251000D01*
X20589389Y-127206564D01*
X20549000Y-127003516D01*
X20549000Y-126796484D01*
X20589389Y-126593436D01*
X20668615Y-126402167D01*
X20783635Y-126230027D01*
X20930027Y-126083635D01*
X20967716Y-126058452D01*
X21102165Y-125968616D01*
X21102167Y-125968615D01*
X21293436Y-125889389D01*
X21496484Y-125849000D01*
X21703516Y-125849000D01*
X21906564Y-125889389D01*
G37*
G36*
X71706564Y-125889389D02*
G01*
X71897833Y-125968615D01*
X71897835Y-125968616D01*
X72032284Y-126058452D01*
X72069973Y-126083635D01*
X72216365Y-126230027D01*
X72331385Y-126402167D01*
X72410611Y-126593436D01*
X72451000Y-126796484D01*
X72451000Y-127003516D01*
X72410611Y-127206564D01*
X72392205Y-127251000D01*
X72331384Y-127397835D01*
X72216365Y-127569973D01*
X72069973Y-127716365D01*
X71897835Y-127831384D01*
X71897834Y-127831385D01*
X71897833Y-127831385D01*
X71706564Y-127910611D01*
X71503516Y-127951000D01*
X71296484Y-127951000D01*
X71093436Y-127910611D01*
X70902167Y-127831385D01*
X70902166Y-127831385D01*
X70902165Y-127831384D01*
X70730027Y-127716365D01*
X70583635Y-127569973D01*
X70468616Y-127397835D01*
X70407795Y-127251000D01*
X70389389Y-127206564D01*
X70349000Y-127003516D01*
X70349000Y-126796484D01*
X70389389Y-126593436D01*
X70468615Y-126402167D01*
X70583635Y-126230027D01*
X70730027Y-126083635D01*
X70767716Y-126058452D01*
X70902165Y-125968616D01*
X70902167Y-125968615D01*
X71093436Y-125889389D01*
X71296484Y-125849000D01*
X71503516Y-125849000D01*
X71706564Y-125889389D01*
G37*
G36*
X65206564Y-125889389D02*
G01*
X65397833Y-125968615D01*
X65397835Y-125968616D01*
X65532284Y-126058452D01*
X65569973Y-126083635D01*
X65716365Y-126230027D01*
X65831385Y-126402167D01*
X65910611Y-126593436D01*
X65951000Y-126796484D01*
X65951000Y-127003516D01*
X65910611Y-127206564D01*
X65892205Y-127251000D01*
X65831384Y-127397835D01*
X65716365Y-127569973D01*
X65569973Y-127716365D01*
X65397835Y-127831384D01*
X65397834Y-127831385D01*
X65397833Y-127831385D01*
X65206564Y-127910611D01*
X65003516Y-127951000D01*
X64796484Y-127951000D01*
X64593436Y-127910611D01*
X64402167Y-127831385D01*
X64402166Y-127831385D01*
X64402165Y-127831384D01*
X64230027Y-127716365D01*
X64083635Y-127569973D01*
X63968616Y-127397835D01*
X63907795Y-127251000D01*
X63889389Y-127206564D01*
X63849000Y-127003516D01*
X63849000Y-126796484D01*
X63889389Y-126593436D01*
X63968615Y-126402167D01*
X64083635Y-126230027D01*
X64230027Y-126083635D01*
X64267716Y-126058452D01*
X64402165Y-125968616D01*
X64402167Y-125968615D01*
X64593436Y-125889389D01*
X64796484Y-125849000D01*
X65003516Y-125849000D01*
X65206564Y-125889389D01*
G37*
G36*
X28406564Y-125889389D02*
G01*
X28597833Y-125968615D01*
X28597835Y-125968616D01*
X28732284Y-126058452D01*
X28769973Y-126083635D01*
X28916365Y-126230027D01*
X29031385Y-126402167D01*
X29110611Y-126593436D01*
X29151000Y-126796484D01*
X29151000Y-127003516D01*
X29110611Y-127206564D01*
X29092205Y-127251000D01*
X29031384Y-127397835D01*
X28916365Y-127569973D01*
X28769973Y-127716365D01*
X28597835Y-127831384D01*
X28597834Y-127831385D01*
X28597833Y-127831385D01*
X28406564Y-127910611D01*
X28203516Y-127951000D01*
X27996484Y-127951000D01*
X27793436Y-127910611D01*
X27602167Y-127831385D01*
X27602166Y-127831385D01*
X27602165Y-127831384D01*
X27430027Y-127716365D01*
X27283635Y-127569973D01*
X27168616Y-127397835D01*
X27107795Y-127251000D01*
X27089389Y-127206564D01*
X27049000Y-127003516D01*
X27049000Y-126796484D01*
X27089389Y-126593436D01*
X27168615Y-126402167D01*
X27283635Y-126230027D01*
X27430027Y-126083635D01*
X27467716Y-126058452D01*
X27602165Y-125968616D01*
X27602167Y-125968615D01*
X27793436Y-125889389D01*
X27996484Y-125849000D01*
X28203516Y-125849000D01*
X28406564Y-125889389D01*
G37*
G36*
X55438674Y-126003465D02*
G01*
X55476367Y-126014899D01*
X55511103Y-126033466D01*
X55541548Y-126058452D01*
X55566534Y-126088897D01*
X55585101Y-126123633D01*
X55596535Y-126161326D01*
X55601000Y-126206661D01*
X55601000Y-127043339D01*
X55596535Y-127088674D01*
X55585101Y-127126367D01*
X55566534Y-127161103D01*
X55541548Y-127191548D01*
X55511103Y-127216534D01*
X55476367Y-127235101D01*
X55438674Y-127246535D01*
X55393339Y-127251000D01*
X54306661Y-127251000D01*
X54261326Y-127246535D01*
X54223633Y-127235101D01*
X54188897Y-127216534D01*
X54158452Y-127191548D01*
X54133466Y-127161103D01*
X54114899Y-127126367D01*
X54103465Y-127088674D01*
X54099000Y-127043339D01*
X54099000Y-126206661D01*
X54103465Y-126161326D01*
X54114899Y-126123633D01*
X54133466Y-126088897D01*
X54158452Y-126058452D01*
X54188897Y-126033466D01*
X54223633Y-126014899D01*
X54261326Y-126003465D01*
X54306661Y-125999000D01*
X55393339Y-125999000D01*
X55438674Y-126003465D01*
G37*
G36*
X38638674Y-125953465D02*
G01*
X38676367Y-125964899D01*
X38711103Y-125983466D01*
X38741548Y-126008452D01*
X38766534Y-126038897D01*
X38785101Y-126073633D01*
X38796535Y-126111326D01*
X38801000Y-126156661D01*
X38801000Y-126993339D01*
X38796535Y-127038674D01*
X38785101Y-127076367D01*
X38766534Y-127111103D01*
X38741548Y-127141548D01*
X38711103Y-127166534D01*
X38676367Y-127185101D01*
X38638674Y-127196535D01*
X38593339Y-127201000D01*
X37506661Y-127201000D01*
X37461326Y-127196535D01*
X37423633Y-127185101D01*
X37388897Y-127166534D01*
X37358452Y-127141548D01*
X37333466Y-127111103D01*
X37314899Y-127076367D01*
X37303465Y-127038674D01*
X37299000Y-126993339D01*
X37299000Y-126156661D01*
X37303465Y-126111326D01*
X37314899Y-126073633D01*
X37333466Y-126038897D01*
X37358452Y-126008452D01*
X37388897Y-125983466D01*
X37423633Y-125964899D01*
X37461326Y-125953465D01*
X37506661Y-125949000D01*
X38593339Y-125949000D01*
X38638674Y-125953465D01*
G37*
G36*
X60526000Y-126501000D02*
G01*
X57924000Y-126501000D01*
X57924000Y-123199000D01*
X60526000Y-123199000D01*
X60526000Y-126501000D01*
G37*
G36*
X44306564Y-123489389D02*
G01*
X44497833Y-123568615D01*
X44497835Y-123568616D01*
X44669973Y-123683635D01*
X44816365Y-123830027D01*
X44931385Y-124002167D01*
X45010611Y-124193436D01*
X45051000Y-124396484D01*
X45051000Y-124603516D01*
X45010611Y-124806564D01*
X44931385Y-124997833D01*
X44931384Y-124997835D01*
X44816365Y-125169973D01*
X44669973Y-125316365D01*
X44497835Y-125431384D01*
X44497834Y-125431385D01*
X44497833Y-125431385D01*
X44306564Y-125510611D01*
X44103516Y-125551000D01*
X43896484Y-125551000D01*
X43693436Y-125510611D01*
X43502167Y-125431385D01*
X43502166Y-125431385D01*
X43502165Y-125431384D01*
X43330027Y-125316365D01*
X43183635Y-125169973D01*
X43068616Y-124997835D01*
X43068615Y-124997833D01*
X42989389Y-124806564D01*
X42949000Y-124603516D01*
X42949000Y-124396484D01*
X42989389Y-124193436D01*
X43068615Y-124002167D01*
X43183635Y-123830027D01*
X43330027Y-123683635D01*
X43502165Y-123568616D01*
X43502167Y-123568615D01*
X43693436Y-123489389D01*
X43896484Y-123449000D01*
X44103516Y-123449000D01*
X44306564Y-123489389D01*
G37*
G36*
X48806564Y-123489389D02*
G01*
X48997833Y-123568615D01*
X48997835Y-123568616D01*
X49169973Y-123683635D01*
X49316365Y-123830027D01*
X49431385Y-124002167D01*
X49510611Y-124193436D01*
X49551000Y-124396484D01*
X49551000Y-124603516D01*
X49510611Y-124806564D01*
X49431385Y-124997833D01*
X49431384Y-124997835D01*
X49316365Y-125169973D01*
X49169973Y-125316365D01*
X48997835Y-125431384D01*
X48997834Y-125431385D01*
X48997833Y-125431385D01*
X48806564Y-125510611D01*
X48603516Y-125551000D01*
X48396484Y-125551000D01*
X48193436Y-125510611D01*
X48002167Y-125431385D01*
X48002166Y-125431385D01*
X48002165Y-125431384D01*
X47830027Y-125316365D01*
X47683635Y-125169973D01*
X47568616Y-124997835D01*
X47568615Y-124997833D01*
X47489389Y-124806564D01*
X47449000Y-124603516D01*
X47449000Y-124396484D01*
X47489389Y-124193436D01*
X47568615Y-124002167D01*
X47683635Y-123830027D01*
X47830027Y-123683635D01*
X48002165Y-123568616D01*
X48002167Y-123568615D01*
X48193436Y-123489389D01*
X48396484Y-123449000D01*
X48603516Y-123449000D01*
X48806564Y-123489389D01*
G37*
G36*
X43038674Y-120853465D02*
G01*
X43076367Y-120864899D01*
X43111103Y-120883466D01*
X43141548Y-120908452D01*
X43166534Y-120938897D01*
X43185101Y-120973633D01*
X43196535Y-121011326D01*
X43201000Y-121056661D01*
X43201000Y-122143339D01*
X43196535Y-122188674D01*
X43185101Y-122226367D01*
X43166534Y-122261103D01*
X43141548Y-122291548D01*
X43111103Y-122316534D01*
X43076367Y-122335101D01*
X43038674Y-122346535D01*
X42993339Y-122351000D01*
X42156661Y-122351000D01*
X42111326Y-122346535D01*
X42073633Y-122335101D01*
X42038897Y-122316534D01*
X42008452Y-122291548D01*
X41983466Y-122261103D01*
X41964899Y-122226367D01*
X41953465Y-122188674D01*
X41949000Y-122143339D01*
X41949000Y-121056661D01*
X41953465Y-121011326D01*
X41964899Y-120973633D01*
X41983466Y-120938897D01*
X42008452Y-120908452D01*
X42038897Y-120883466D01*
X42073633Y-120864899D01*
X42111326Y-120853465D01*
X42156661Y-120849000D01*
X42993339Y-120849000D01*
X43038674Y-120853465D01*
G37*
G36*
X45088674Y-120853465D02*
G01*
X45126367Y-120864899D01*
X45161103Y-120883466D01*
X45191548Y-120908452D01*
X45216534Y-120938897D01*
X45235101Y-120973633D01*
X45246535Y-121011326D01*
X45251000Y-121056661D01*
X45251000Y-122143339D01*
X45246535Y-122188674D01*
X45235101Y-122226367D01*
X45216534Y-122261103D01*
X45191548Y-122291548D01*
X45161103Y-122316534D01*
X45126367Y-122335101D01*
X45088674Y-122346535D01*
X45043339Y-122351000D01*
X44206661Y-122351000D01*
X44161326Y-122346535D01*
X44123633Y-122335101D01*
X44088897Y-122316534D01*
X44058452Y-122291548D01*
X44033466Y-122261103D01*
X44014899Y-122226367D01*
X44003465Y-122188674D01*
X43999000Y-122143339D01*
X43999000Y-121056661D01*
X44003465Y-121011326D01*
X44014899Y-120973633D01*
X44033466Y-120938897D01*
X44058452Y-120908452D01*
X44088897Y-120883466D01*
X44123633Y-120864899D01*
X44161326Y-120853465D01*
X44206661Y-120849000D01*
X45043339Y-120849000D01*
X45088674Y-120853465D01*
G37*
G36*
X53413674Y-119928465D02*
G01*
X53451367Y-119939899D01*
X53486103Y-119958466D01*
X53516548Y-119983452D01*
X53541534Y-120013897D01*
X53560101Y-120048633D01*
X53571535Y-120086326D01*
X53576000Y-120131661D01*
X53576000Y-121218339D01*
X53571535Y-121263674D01*
X53560101Y-121301367D01*
X53541534Y-121336103D01*
X53516548Y-121366548D01*
X53486103Y-121391534D01*
X53451367Y-121410101D01*
X53413674Y-121421535D01*
X53368339Y-121426000D01*
X52531661Y-121426000D01*
X52486326Y-121421535D01*
X52448633Y-121410101D01*
X52413897Y-121391534D01*
X52383452Y-121366548D01*
X52358466Y-121336103D01*
X52339899Y-121301367D01*
X52328465Y-121263674D01*
X52324000Y-121218339D01*
X52324000Y-120131661D01*
X52328465Y-120086326D01*
X52339899Y-120048633D01*
X52358466Y-120013897D01*
X52383452Y-119983452D01*
X52413897Y-119958466D01*
X52448633Y-119939899D01*
X52486326Y-119928465D01*
X52531661Y-119924000D01*
X53368339Y-119924000D01*
X53413674Y-119928465D01*
G37*
G36*
X51363674Y-119928465D02*
G01*
X51401367Y-119939899D01*
X51436103Y-119958466D01*
X51466548Y-119983452D01*
X51491534Y-120013897D01*
X51510101Y-120048633D01*
X51521535Y-120086326D01*
X51526000Y-120131661D01*
X51526000Y-121218339D01*
X51521535Y-121263674D01*
X51510101Y-121301367D01*
X51491534Y-121336103D01*
X51466548Y-121366548D01*
X51436103Y-121391534D01*
X51401367Y-121410101D01*
X51363674Y-121421535D01*
X51318339Y-121426000D01*
X50481661Y-121426000D01*
X50436326Y-121421535D01*
X50398633Y-121410101D01*
X50363897Y-121391534D01*
X50333452Y-121366548D01*
X50308466Y-121336103D01*
X50289899Y-121301367D01*
X50278465Y-121263674D01*
X50274000Y-121218339D01*
X50274000Y-120131661D01*
X50278465Y-120086326D01*
X50289899Y-120048633D01*
X50308466Y-120013897D01*
X50333452Y-119983452D01*
X50363897Y-119958466D01*
X50398633Y-119939899D01*
X50436326Y-119928465D01*
X50481661Y-119924000D01*
X51318339Y-119924000D01*
X51363674Y-119928465D01*
G37*
G36*
X45088674Y-118453465D02*
G01*
X45126367Y-118464899D01*
X45161103Y-118483466D01*
X45191548Y-118508452D01*
X45216534Y-118538897D01*
X45235101Y-118573633D01*
X45246535Y-118611326D01*
X45251000Y-118656661D01*
X45251000Y-119743339D01*
X45246535Y-119788674D01*
X45235101Y-119826367D01*
X45216534Y-119861103D01*
X45191548Y-119891548D01*
X45161103Y-119916534D01*
X45126367Y-119935101D01*
X45088674Y-119946535D01*
X45043339Y-119951000D01*
X44206661Y-119951000D01*
X44161326Y-119946535D01*
X44123633Y-119935101D01*
X44088897Y-119916534D01*
X44058452Y-119891548D01*
X44033466Y-119861103D01*
X44014899Y-119826367D01*
X44003465Y-119788674D01*
X43999000Y-119743339D01*
X43999000Y-118656661D01*
X44003465Y-118611326D01*
X44014899Y-118573633D01*
X44033466Y-118538897D01*
X44058452Y-118508452D01*
X44088897Y-118483466D01*
X44123633Y-118464899D01*
X44161326Y-118453465D01*
X44206661Y-118449000D01*
X45043339Y-118449000D01*
X45088674Y-118453465D01*
G37*
G36*
X43038674Y-118453465D02*
G01*
X43076367Y-118464899D01*
X43111103Y-118483466D01*
X43141548Y-118508452D01*
X43166534Y-118538897D01*
X43185101Y-118573633D01*
X43196535Y-118611326D01*
X43201000Y-118656661D01*
X43201000Y-119743339D01*
X43196535Y-119788674D01*
X43185101Y-119826367D01*
X43166534Y-119861103D01*
X43141548Y-119891548D01*
X43111103Y-119916534D01*
X43076367Y-119935101D01*
X43038674Y-119946535D01*
X42993339Y-119951000D01*
X42156661Y-119951000D01*
X42111326Y-119946535D01*
X42073633Y-119935101D01*
X42038897Y-119916534D01*
X42008452Y-119891548D01*
X41983466Y-119861103D01*
X41964899Y-119826367D01*
X41953465Y-119788674D01*
X41949000Y-119743339D01*
X41949000Y-118656661D01*
X41953465Y-118611326D01*
X41964899Y-118573633D01*
X41983466Y-118538897D01*
X42008452Y-118508452D01*
X42038897Y-118483466D01*
X42073633Y-118464899D01*
X42111326Y-118453465D01*
X42156661Y-118449000D01*
X42993339Y-118449000D01*
X43038674Y-118453465D01*
G37*
G36*
X35501000Y-118701000D02*
G01*
X33699000Y-118701000D01*
X33699000Y-116899000D01*
X35501000Y-116899000D01*
X35501000Y-118701000D01*
G37*
G36*
X32173512Y-116903927D02*
G01*
X32322812Y-116933624D01*
X32486784Y-117001544D01*
X32634354Y-117100147D01*
X32759853Y-117225646D01*
X32858456Y-117373216D01*
X32926376Y-117537188D01*
X32961000Y-117711259D01*
X32961000Y-117888741D01*
X32926376Y-118062812D01*
X32858456Y-118226784D01*
X32759853Y-118374354D01*
X32634354Y-118499853D01*
X32486784Y-118598456D01*
X32322812Y-118666376D01*
X32173512Y-118696073D01*
X32148742Y-118701000D01*
X31971258Y-118701000D01*
X31946488Y-118696073D01*
X31797188Y-118666376D01*
X31633216Y-118598456D01*
X31485646Y-118499853D01*
X31360147Y-118374354D01*
X31261544Y-118226784D01*
X31193624Y-118062812D01*
X31159000Y-117888741D01*
X31159000Y-117711259D01*
X31193624Y-117537188D01*
X31261544Y-117373216D01*
X31360147Y-117225646D01*
X31485646Y-117100147D01*
X31633216Y-117001544D01*
X31797188Y-116933624D01*
X31946488Y-116903927D01*
X31971258Y-116899000D01*
X32148742Y-116899000D01*
X32173512Y-116903927D01*
G37*
G36*
X29633512Y-116903927D02*
G01*
X29782812Y-116933624D01*
X29946784Y-117001544D01*
X30094354Y-117100147D01*
X30219853Y-117225646D01*
X30318456Y-117373216D01*
X30386376Y-117537188D01*
X30421000Y-117711259D01*
X30421000Y-117888741D01*
X30386376Y-118062812D01*
X30318456Y-118226784D01*
X30219853Y-118374354D01*
X30094354Y-118499853D01*
X29946784Y-118598456D01*
X29782812Y-118666376D01*
X29633512Y-118696073D01*
X29608742Y-118701000D01*
X29431258Y-118701000D01*
X29406488Y-118696073D01*
X29257188Y-118666376D01*
X29093216Y-118598456D01*
X28945646Y-118499853D01*
X28820147Y-118374354D01*
X28721544Y-118226784D01*
X28653624Y-118062812D01*
X28619000Y-117888741D01*
X28619000Y-117711259D01*
X28653624Y-117537188D01*
X28721544Y-117373216D01*
X28820147Y-117225646D01*
X28945646Y-117100147D01*
X29093216Y-117001544D01*
X29257188Y-116933624D01*
X29406488Y-116903927D01*
X29431258Y-116899000D01*
X29608742Y-116899000D01*
X29633512Y-116903927D01*
G37*
G36*
X27093512Y-116903927D02*
G01*
X27242812Y-116933624D01*
X27406784Y-117001544D01*
X27554354Y-117100147D01*
X27679853Y-117225646D01*
X27778456Y-117373216D01*
X27846376Y-117537188D01*
X27881000Y-117711259D01*
X27881000Y-117888741D01*
X27846376Y-118062812D01*
X27778456Y-118226784D01*
X27679853Y-118374354D01*
X27554354Y-118499853D01*
X27406784Y-118598456D01*
X27242812Y-118666376D01*
X27093512Y-118696073D01*
X27068742Y-118701000D01*
X26891258Y-118701000D01*
X26866488Y-118696073D01*
X26717188Y-118666376D01*
X26553216Y-118598456D01*
X26405646Y-118499853D01*
X26280147Y-118374354D01*
X26181544Y-118226784D01*
X26113624Y-118062812D01*
X26079000Y-117888741D01*
X26079000Y-117711259D01*
X26113624Y-117537188D01*
X26181544Y-117373216D01*
X26280147Y-117225646D01*
X26405646Y-117100147D01*
X26553216Y-117001544D01*
X26717188Y-116933624D01*
X26866488Y-116903927D01*
X26891258Y-116899000D01*
X27068742Y-116899000D01*
X27093512Y-116903927D01*
G37*
G36*
X24553512Y-116903927D02*
G01*
X24702812Y-116933624D01*
X24866784Y-117001544D01*
X25014354Y-117100147D01*
X25139853Y-117225646D01*
X25238456Y-117373216D01*
X25306376Y-117537188D01*
X25341000Y-117711259D01*
X25341000Y-117888741D01*
X25306376Y-118062812D01*
X25238456Y-118226784D01*
X25139853Y-118374354D01*
X25014354Y-118499853D01*
X24866784Y-118598456D01*
X24702812Y-118666376D01*
X24553512Y-118696073D01*
X24528742Y-118701000D01*
X24351258Y-118701000D01*
X24326488Y-118696073D01*
X24177188Y-118666376D01*
X24013216Y-118598456D01*
X23865646Y-118499853D01*
X23740147Y-118374354D01*
X23641544Y-118226784D01*
X23573624Y-118062812D01*
X23539000Y-117888741D01*
X23539000Y-117711259D01*
X23573624Y-117537188D01*
X23641544Y-117373216D01*
X23740147Y-117225646D01*
X23865646Y-117100147D01*
X24013216Y-117001544D01*
X24177188Y-116933624D01*
X24326488Y-116903927D01*
X24351258Y-116899000D01*
X24528742Y-116899000D01*
X24553512Y-116903927D01*
G37*
G36*
X22013512Y-116903927D02*
G01*
X22162812Y-116933624D01*
X22326784Y-117001544D01*
X22474354Y-117100147D01*
X22599853Y-117225646D01*
X22698456Y-117373216D01*
X22766376Y-117537188D01*
X22801000Y-117711259D01*
X22801000Y-117888741D01*
X22766376Y-118062812D01*
X22698456Y-118226784D01*
X22599853Y-118374354D01*
X22474354Y-118499853D01*
X22326784Y-118598456D01*
X22162812Y-118666376D01*
X22013512Y-118696073D01*
X21988742Y-118701000D01*
X21811258Y-118701000D01*
X21786488Y-118696073D01*
X21637188Y-118666376D01*
X21473216Y-118598456D01*
X21325646Y-118499853D01*
X21200147Y-118374354D01*
X21101544Y-118226784D01*
X21033624Y-118062812D01*
X20999000Y-117888741D01*
X20999000Y-117711259D01*
X21033624Y-117537188D01*
X21101544Y-117373216D01*
X21200147Y-117225646D01*
X21325646Y-117100147D01*
X21473216Y-117001544D01*
X21637188Y-116933624D01*
X21786488Y-116903927D01*
X21811258Y-116899000D01*
X21988742Y-116899000D01*
X22013512Y-116903927D01*
G37*
G36*
X51438674Y-115928465D02*
G01*
X51476367Y-115939899D01*
X51511103Y-115958466D01*
X51541548Y-115983452D01*
X51566534Y-116013897D01*
X51585101Y-116048633D01*
X51596535Y-116086326D01*
X51601000Y-116131661D01*
X51601000Y-117218339D01*
X51596535Y-117263674D01*
X51585101Y-117301367D01*
X51566534Y-117336103D01*
X51541548Y-117366548D01*
X51511103Y-117391534D01*
X51476367Y-117410101D01*
X51438674Y-117421535D01*
X51393339Y-117426000D01*
X50556661Y-117426000D01*
X50511326Y-117421535D01*
X50473633Y-117410101D01*
X50438897Y-117391534D01*
X50408452Y-117366548D01*
X50383466Y-117336103D01*
X50364899Y-117301367D01*
X50353465Y-117263674D01*
X50349000Y-117218339D01*
X50349000Y-116131661D01*
X50353465Y-116086326D01*
X50364899Y-116048633D01*
X50383466Y-116013897D01*
X50408452Y-115983452D01*
X50438897Y-115958466D01*
X50473633Y-115939899D01*
X50511326Y-115928465D01*
X50556661Y-115924000D01*
X51393339Y-115924000D01*
X51438674Y-115928465D01*
G37*
G36*
X53488674Y-115928465D02*
G01*
X53526367Y-115939899D01*
X53561103Y-115958466D01*
X53591548Y-115983452D01*
X53616534Y-116013897D01*
X53635101Y-116048633D01*
X53646535Y-116086326D01*
X53651000Y-116131661D01*
X53651000Y-117218339D01*
X53646535Y-117263674D01*
X53635101Y-117301367D01*
X53616534Y-117336103D01*
X53591548Y-117366548D01*
X53561103Y-117391534D01*
X53526367Y-117410101D01*
X53488674Y-117421535D01*
X53443339Y-117426000D01*
X52606661Y-117426000D01*
X52561326Y-117421535D01*
X52523633Y-117410101D01*
X52488897Y-117391534D01*
X52458452Y-117366548D01*
X52433466Y-117336103D01*
X52414899Y-117301367D01*
X52403465Y-117263674D01*
X52399000Y-117218339D01*
X52399000Y-116131661D01*
X52403465Y-116086326D01*
X52414899Y-116048633D01*
X52433466Y-116013897D01*
X52458452Y-115983452D01*
X52488897Y-115958466D01*
X52523633Y-115939899D01*
X52561326Y-115928465D01*
X52606661Y-115924000D01*
X53443339Y-115924000D01*
X53488674Y-115928465D01*
G37*
G36*
X43038674Y-115453465D02*
G01*
X43076367Y-115464899D01*
X43111103Y-115483466D01*
X43141548Y-115508452D01*
X43166534Y-115538897D01*
X43185101Y-115573633D01*
X43196535Y-115611326D01*
X43201000Y-115656661D01*
X43201000Y-116743339D01*
X43196535Y-116788674D01*
X43185101Y-116826367D01*
X43166534Y-116861103D01*
X43141548Y-116891548D01*
X43111103Y-116916534D01*
X43076367Y-116935101D01*
X43038674Y-116946535D01*
X42993339Y-116951000D01*
X42156661Y-116951000D01*
X42111326Y-116946535D01*
X42073633Y-116935101D01*
X42038897Y-116916534D01*
X42008452Y-116891548D01*
X41983466Y-116861103D01*
X41964899Y-116826367D01*
X41953465Y-116788674D01*
X41949000Y-116743339D01*
X41949000Y-115656661D01*
X41953465Y-115611326D01*
X41964899Y-115573633D01*
X41983466Y-115538897D01*
X42008452Y-115508452D01*
X42038897Y-115483466D01*
X42073633Y-115464899D01*
X42111326Y-115453465D01*
X42156661Y-115449000D01*
X42993339Y-115449000D01*
X43038674Y-115453465D01*
G37*
G36*
X45088674Y-115453465D02*
G01*
X45126367Y-115464899D01*
X45161103Y-115483466D01*
X45191548Y-115508452D01*
X45216534Y-115538897D01*
X45235101Y-115573633D01*
X45246535Y-115611326D01*
X45251000Y-115656661D01*
X45251000Y-116743339D01*
X45246535Y-116788674D01*
X45235101Y-116826367D01*
X45216534Y-116861103D01*
X45191548Y-116891548D01*
X45161103Y-116916534D01*
X45126367Y-116935101D01*
X45088674Y-116946535D01*
X45043339Y-116951000D01*
X44206661Y-116951000D01*
X44161326Y-116946535D01*
X44123633Y-116935101D01*
X44088897Y-116916534D01*
X44058452Y-116891548D01*
X44033466Y-116861103D01*
X44014899Y-116826367D01*
X44003465Y-116788674D01*
X43999000Y-116743339D01*
X43999000Y-115656661D01*
X44003465Y-115611326D01*
X44014899Y-115573633D01*
X44033466Y-115538897D01*
X44058452Y-115508452D01*
X44088897Y-115483466D01*
X44123633Y-115464899D01*
X44161326Y-115453465D01*
X44206661Y-115449000D01*
X45043339Y-115449000D01*
X45088674Y-115453465D01*
G37*
G36*
X24388674Y-113753465D02*
G01*
X24426367Y-113764899D01*
X24461103Y-113783466D01*
X24491548Y-113808452D01*
X24516534Y-113838897D01*
X24535101Y-113873633D01*
X24546535Y-113911326D01*
X24551000Y-113956661D01*
X24551000Y-115043339D01*
X24546535Y-115088674D01*
X24535101Y-115126367D01*
X24516534Y-115161103D01*
X24491548Y-115191548D01*
X24461103Y-115216534D01*
X24426367Y-115235101D01*
X24388674Y-115246535D01*
X24343339Y-115251000D01*
X23506661Y-115251000D01*
X23461326Y-115246535D01*
X23423633Y-115235101D01*
X23388897Y-115216534D01*
X23358452Y-115191548D01*
X23333466Y-115161103D01*
X23314899Y-115126367D01*
X23303465Y-115088674D01*
X23299000Y-115043339D01*
X23299000Y-113956661D01*
X23303465Y-113911326D01*
X23314899Y-113873633D01*
X23333466Y-113838897D01*
X23358452Y-113808452D01*
X23388897Y-113783466D01*
X23423633Y-113764899D01*
X23461326Y-113753465D01*
X23506661Y-113749000D01*
X24343339Y-113749000D01*
X24388674Y-113753465D01*
G37*
G36*
X22338674Y-113753465D02*
G01*
X22376367Y-113764899D01*
X22411103Y-113783466D01*
X22441548Y-113808452D01*
X22466534Y-113838897D01*
X22485101Y-113873633D01*
X22496535Y-113911326D01*
X22501000Y-113956661D01*
X22501000Y-115043339D01*
X22496535Y-115088674D01*
X22485101Y-115126367D01*
X22466534Y-115161103D01*
X22441548Y-115191548D01*
X22411103Y-115216534D01*
X22376367Y-115235101D01*
X22338674Y-115246535D01*
X22293339Y-115251000D01*
X21456661Y-115251000D01*
X21411326Y-115246535D01*
X21373633Y-115235101D01*
X21338897Y-115216534D01*
X21308452Y-115191548D01*
X21283466Y-115161103D01*
X21264899Y-115126367D01*
X21253465Y-115088674D01*
X21249000Y-115043339D01*
X21249000Y-113956661D01*
X21253465Y-113911326D01*
X21264899Y-113873633D01*
X21283466Y-113838897D01*
X21308452Y-113808452D01*
X21338897Y-113783466D01*
X21373633Y-113764899D01*
X21411326Y-113753465D01*
X21456661Y-113749000D01*
X22293339Y-113749000D01*
X22338674Y-113753465D01*
G37*
G36*
X67051000Y-115001000D02*
G01*
X63549000Y-115001000D01*
X63549000Y-113599000D01*
X67051000Y-113599000D01*
X67051000Y-115001000D01*
G37*
G36*
X45288674Y-112653465D02*
G01*
X45326367Y-112664899D01*
X45361103Y-112683466D01*
X45391548Y-112708452D01*
X45416534Y-112738897D01*
X45435101Y-112773633D01*
X45446535Y-112811326D01*
X45451000Y-112856661D01*
X45451000Y-113943339D01*
X45446535Y-113988674D01*
X45435101Y-114026367D01*
X45416534Y-114061103D01*
X45391548Y-114091548D01*
X45361103Y-114116534D01*
X45326367Y-114135101D01*
X45288674Y-114146535D01*
X45243339Y-114151000D01*
X44406661Y-114151000D01*
X44361326Y-114146535D01*
X44323633Y-114135101D01*
X44288897Y-114116534D01*
X44258452Y-114091548D01*
X44233466Y-114061103D01*
X44214899Y-114026367D01*
X44203465Y-113988674D01*
X44199000Y-113943339D01*
X44199000Y-112856661D01*
X44203465Y-112811326D01*
X44214899Y-112773633D01*
X44233466Y-112738897D01*
X44258452Y-112708452D01*
X44288897Y-112683466D01*
X44323633Y-112664899D01*
X44361326Y-112653465D01*
X44406661Y-112649000D01*
X45243339Y-112649000D01*
X45288674Y-112653465D01*
G37*
G36*
X43238674Y-112653465D02*
G01*
X43276367Y-112664899D01*
X43311103Y-112683466D01*
X43341548Y-112708452D01*
X43366534Y-112738897D01*
X43385101Y-112773633D01*
X43396535Y-112811326D01*
X43401000Y-112856661D01*
X43401000Y-113943339D01*
X43396535Y-113988674D01*
X43385101Y-114026367D01*
X43366534Y-114061103D01*
X43341548Y-114091548D01*
X43311103Y-114116534D01*
X43276367Y-114135101D01*
X43238674Y-114146535D01*
X43193339Y-114151000D01*
X42356661Y-114151000D01*
X42311326Y-114146535D01*
X42273633Y-114135101D01*
X42238897Y-114116534D01*
X42208452Y-114091548D01*
X42183466Y-114061103D01*
X42164899Y-114026367D01*
X42153465Y-113988674D01*
X42149000Y-113943339D01*
X42149000Y-112856661D01*
X42153465Y-112811326D01*
X42164899Y-112773633D01*
X42183466Y-112738897D01*
X42208452Y-112708452D01*
X42238897Y-112683466D01*
X42273633Y-112664899D01*
X42311326Y-112653465D01*
X42356661Y-112649000D01*
X43193339Y-112649000D01*
X43238674Y-112653465D01*
G37*
G36*
X55951000Y-113601000D02*
G01*
X54949000Y-113601000D01*
X54949000Y-112299000D01*
X55951000Y-112299000D01*
X55951000Y-113601000D01*
G37*
G36*
X59251000Y-113601000D02*
G01*
X58249000Y-113601000D01*
X58249000Y-112299000D01*
X59251000Y-112299000D01*
X59251000Y-113601000D01*
G37*
G36*
X67051000Y-112901000D02*
G01*
X63549000Y-112901000D01*
X63549000Y-111499000D01*
X67051000Y-111499000D01*
X67051000Y-112901000D01*
G37*
G36*
X43238674Y-110253465D02*
G01*
X43276367Y-110264899D01*
X43311103Y-110283466D01*
X43341548Y-110308452D01*
X43366534Y-110338897D01*
X43385101Y-110373633D01*
X43396535Y-110411326D01*
X43401000Y-110456661D01*
X43401000Y-111543339D01*
X43396535Y-111588674D01*
X43385101Y-111626367D01*
X43366534Y-111661103D01*
X43341548Y-111691548D01*
X43311103Y-111716534D01*
X43276367Y-111735101D01*
X43238674Y-111746535D01*
X43193339Y-111751000D01*
X42356661Y-111751000D01*
X42311326Y-111746535D01*
X42273633Y-111735101D01*
X42238897Y-111716534D01*
X42208452Y-111691548D01*
X42183466Y-111661103D01*
X42164899Y-111626367D01*
X42153465Y-111588674D01*
X42149000Y-111543339D01*
X42149000Y-110456661D01*
X42153465Y-110411326D01*
X42164899Y-110373633D01*
X42183466Y-110338897D01*
X42208452Y-110308452D01*
X42238897Y-110283466D01*
X42273633Y-110264899D01*
X42311326Y-110253465D01*
X42356661Y-110249000D01*
X43193339Y-110249000D01*
X43238674Y-110253465D01*
G37*
G36*
X45288674Y-110253465D02*
G01*
X45326367Y-110264899D01*
X45361103Y-110283466D01*
X45391548Y-110308452D01*
X45416534Y-110338897D01*
X45435101Y-110373633D01*
X45446535Y-110411326D01*
X45451000Y-110456661D01*
X45451000Y-111543339D01*
X45446535Y-111588674D01*
X45435101Y-111626367D01*
X45416534Y-111661103D01*
X45391548Y-111691548D01*
X45361103Y-111716534D01*
X45326367Y-111735101D01*
X45288674Y-111746535D01*
X45243339Y-111751000D01*
X44406661Y-111751000D01*
X44361326Y-111746535D01*
X44323633Y-111735101D01*
X44288897Y-111716534D01*
X44258452Y-111691548D01*
X44233466Y-111661103D01*
X44214899Y-111626367D01*
X44203465Y-111588674D01*
X44199000Y-111543339D01*
X44199000Y-110456661D01*
X44203465Y-110411326D01*
X44214899Y-110373633D01*
X44233466Y-110338897D01*
X44258452Y-110308452D01*
X44288897Y-110283466D01*
X44323633Y-110264899D01*
X44361326Y-110253465D01*
X44406661Y-110249000D01*
X45243339Y-110249000D01*
X45288674Y-110253465D01*
G37*
G36*
X59251000Y-111101000D02*
G01*
X58249000Y-111101000D01*
X58249000Y-109799000D01*
X59251000Y-109799000D01*
X59251000Y-111101000D01*
G37*
G36*
X55951000Y-111101000D02*
G01*
X54949000Y-111101000D01*
X54949000Y-109799000D01*
X55951000Y-109799000D01*
X55951000Y-111101000D01*
G37*
G36*
X65751000Y-109751000D02*
G01*
X64849000Y-109751000D01*
X64849000Y-108749000D01*
X65751000Y-108749000D01*
X65751000Y-109751000D01*
G37*
G36*
X45288674Y-107853465D02*
G01*
X45326367Y-107864899D01*
X45361103Y-107883466D01*
X45391548Y-107908452D01*
X45416534Y-107938897D01*
X45435101Y-107973633D01*
X45446535Y-108011326D01*
X45451000Y-108056661D01*
X45451000Y-109143339D01*
X45446535Y-109188674D01*
X45435101Y-109226367D01*
X45416534Y-109261103D01*
X45391548Y-109291548D01*
X45361103Y-109316534D01*
X45326367Y-109335101D01*
X45288674Y-109346535D01*
X45243339Y-109351000D01*
X44406661Y-109351000D01*
X44361326Y-109346535D01*
X44323633Y-109335101D01*
X44288897Y-109316534D01*
X44258452Y-109291548D01*
X44233466Y-109261103D01*
X44214899Y-109226367D01*
X44203465Y-109188674D01*
X44199000Y-109143339D01*
X44199000Y-108056661D01*
X44203465Y-108011326D01*
X44214899Y-107973633D01*
X44233466Y-107938897D01*
X44258452Y-107908452D01*
X44288897Y-107883466D01*
X44323633Y-107864899D01*
X44361326Y-107853465D01*
X44406661Y-107849000D01*
X45243339Y-107849000D01*
X45288674Y-107853465D01*
G37*
G36*
X43238674Y-107853465D02*
G01*
X43276367Y-107864899D01*
X43311103Y-107883466D01*
X43341548Y-107908452D01*
X43366534Y-107938897D01*
X43385101Y-107973633D01*
X43396535Y-108011326D01*
X43401000Y-108056661D01*
X43401000Y-109143339D01*
X43396535Y-109188674D01*
X43385101Y-109226367D01*
X43366534Y-109261103D01*
X43341548Y-109291548D01*
X43311103Y-109316534D01*
X43276367Y-109335101D01*
X43238674Y-109346535D01*
X43193339Y-109351000D01*
X42356661Y-109351000D01*
X42311326Y-109346535D01*
X42273633Y-109335101D01*
X42238897Y-109316534D01*
X42208452Y-109291548D01*
X42183466Y-109261103D01*
X42164899Y-109226367D01*
X42153465Y-109188674D01*
X42149000Y-109143339D01*
X42149000Y-108056661D01*
X42153465Y-108011326D01*
X42164899Y-107973633D01*
X42183466Y-107938897D01*
X42208452Y-107908452D01*
X42238897Y-107883466D01*
X42273633Y-107864899D01*
X42311326Y-107853465D01*
X42356661Y-107849000D01*
X43193339Y-107849000D01*
X43238674Y-107853465D01*
G37*
G36*
X59251000Y-108601000D02*
G01*
X58249000Y-108601000D01*
X58249000Y-107299000D01*
X59251000Y-107299000D01*
X59251000Y-108601000D01*
G37*
G36*
X55951000Y-108601000D02*
G01*
X54949000Y-108601000D01*
X54949000Y-107299000D01*
X55951000Y-107299000D01*
X55951000Y-108601000D01*
G37*
G36*
X66701000Y-107751000D02*
G01*
X65799000Y-107751000D01*
X65799000Y-106749000D01*
X66701000Y-106749000D01*
X66701000Y-107751000D01*
G37*
G36*
X64801000Y-107751000D02*
G01*
X63899000Y-107751000D01*
X63899000Y-106749000D01*
X64801000Y-106749000D01*
X64801000Y-107751000D01*
G37*
G36*
X45288674Y-105453465D02*
G01*
X45326367Y-105464899D01*
X45361103Y-105483466D01*
X45391548Y-105508452D01*
X45416534Y-105538897D01*
X45435101Y-105573633D01*
X45446535Y-105611326D01*
X45451000Y-105656661D01*
X45451000Y-106743339D01*
X45446535Y-106788674D01*
X45435101Y-106826367D01*
X45416534Y-106861103D01*
X45391548Y-106891548D01*
X45361103Y-106916534D01*
X45326367Y-106935101D01*
X45288674Y-106946535D01*
X45243339Y-106951000D01*
X44406661Y-106951000D01*
X44361326Y-106946535D01*
X44323633Y-106935101D01*
X44288897Y-106916534D01*
X44258452Y-106891548D01*
X44233466Y-106861103D01*
X44214899Y-106826367D01*
X44203465Y-106788674D01*
X44199000Y-106743339D01*
X44199000Y-105656661D01*
X44203465Y-105611326D01*
X44214899Y-105573633D01*
X44233466Y-105538897D01*
X44258452Y-105508452D01*
X44288897Y-105483466D01*
X44323633Y-105464899D01*
X44361326Y-105453465D01*
X44406661Y-105449000D01*
X45243339Y-105449000D01*
X45288674Y-105453465D01*
G37*
G36*
X43238674Y-105453465D02*
G01*
X43276367Y-105464899D01*
X43311103Y-105483466D01*
X43341548Y-105508452D01*
X43366534Y-105538897D01*
X43385101Y-105573633D01*
X43396535Y-105611326D01*
X43401000Y-105656661D01*
X43401000Y-106743339D01*
X43396535Y-106788674D01*
X43385101Y-106826367D01*
X43366534Y-106861103D01*
X43341548Y-106891548D01*
X43311103Y-106916534D01*
X43276367Y-106935101D01*
X43238674Y-106946535D01*
X43193339Y-106951000D01*
X42356661Y-106951000D01*
X42311326Y-106946535D01*
X42273633Y-106935101D01*
X42238897Y-106916534D01*
X42208452Y-106891548D01*
X42183466Y-106861103D01*
X42164899Y-106826367D01*
X42153465Y-106788674D01*
X42149000Y-106743339D01*
X42149000Y-105656661D01*
X42153465Y-105611326D01*
X42164899Y-105573633D01*
X42183466Y-105538897D01*
X42208452Y-105508452D01*
X42238897Y-105483466D01*
X42273633Y-105464899D01*
X42311326Y-105453465D01*
X42356661Y-105449000D01*
X43193339Y-105449000D01*
X43238674Y-105453465D01*
G37*
G36*
X53538674Y-105253465D02*
G01*
X53576367Y-105264899D01*
X53611103Y-105283466D01*
X53641548Y-105308452D01*
X53666534Y-105338897D01*
X53685101Y-105373633D01*
X53696535Y-105411326D01*
X53701000Y-105456661D01*
X53701000Y-106543339D01*
X53696535Y-106588674D01*
X53685101Y-106626367D01*
X53666534Y-106661103D01*
X53641548Y-106691548D01*
X53611103Y-106716534D01*
X53576367Y-106735101D01*
X53538674Y-106746535D01*
X53493339Y-106751000D01*
X52656661Y-106751000D01*
X52611326Y-106746535D01*
X52573633Y-106735101D01*
X52538897Y-106716534D01*
X52508452Y-106691548D01*
X52483466Y-106661103D01*
X52464899Y-106626367D01*
X52453465Y-106588674D01*
X52449000Y-106543339D01*
X52449000Y-105456661D01*
X52453465Y-105411326D01*
X52464899Y-105373633D01*
X52483466Y-105338897D01*
X52508452Y-105308452D01*
X52538897Y-105283466D01*
X52573633Y-105264899D01*
X52611326Y-105253465D01*
X52656661Y-105249000D01*
X53493339Y-105249000D01*
X53538674Y-105253465D01*
G37*
G36*
X51488674Y-105253465D02*
G01*
X51526367Y-105264899D01*
X51561103Y-105283466D01*
X51591548Y-105308452D01*
X51616534Y-105338897D01*
X51635101Y-105373633D01*
X51646535Y-105411326D01*
X51651000Y-105456661D01*
X51651000Y-106543339D01*
X51646535Y-106588674D01*
X51635101Y-106626367D01*
X51616534Y-106661103D01*
X51591548Y-106691548D01*
X51561103Y-106716534D01*
X51526367Y-106735101D01*
X51488674Y-106746535D01*
X51443339Y-106751000D01*
X50606661Y-106751000D01*
X50561326Y-106746535D01*
X50523633Y-106735101D01*
X50488897Y-106716534D01*
X50458452Y-106691548D01*
X50433466Y-106661103D01*
X50414899Y-106626367D01*
X50403465Y-106588674D01*
X50399000Y-106543339D01*
X50399000Y-105456661D01*
X50403465Y-105411326D01*
X50414899Y-105373633D01*
X50433466Y-105338897D01*
X50458452Y-105308452D01*
X50488897Y-105283466D01*
X50523633Y-105264899D01*
X50561326Y-105253465D01*
X50606661Y-105249000D01*
X51443339Y-105249000D01*
X51488674Y-105253465D01*
G37*
G36*
X43238674Y-102853465D02*
G01*
X43276367Y-102864899D01*
X43311103Y-102883466D01*
X43341548Y-102908452D01*
X43366534Y-102938897D01*
X43385101Y-102973633D01*
X43396535Y-103011326D01*
X43401000Y-103056661D01*
X43401000Y-104143339D01*
X43396535Y-104188674D01*
X43385101Y-104226367D01*
X43366534Y-104261103D01*
X43341548Y-104291548D01*
X43311103Y-104316534D01*
X43276367Y-104335101D01*
X43238674Y-104346535D01*
X43193339Y-104351000D01*
X42356661Y-104351000D01*
X42311326Y-104346535D01*
X42273633Y-104335101D01*
X42238897Y-104316534D01*
X42208452Y-104291548D01*
X42183466Y-104261103D01*
X42164899Y-104226367D01*
X42153465Y-104188674D01*
X42149000Y-104143339D01*
X42149000Y-103056661D01*
X42153465Y-103011326D01*
X42164899Y-102973633D01*
X42183466Y-102938897D01*
X42208452Y-102908452D01*
X42238897Y-102883466D01*
X42273633Y-102864899D01*
X42311326Y-102853465D01*
X42356661Y-102849000D01*
X43193339Y-102849000D01*
X43238674Y-102853465D01*
G37*
G36*
X45288674Y-102853465D02*
G01*
X45326367Y-102864899D01*
X45361103Y-102883466D01*
X45391548Y-102908452D01*
X45416534Y-102938897D01*
X45435101Y-102973633D01*
X45446535Y-103011326D01*
X45451000Y-103056661D01*
X45451000Y-104143339D01*
X45446535Y-104188674D01*
X45435101Y-104226367D01*
X45416534Y-104261103D01*
X45391548Y-104291548D01*
X45361103Y-104316534D01*
X45326367Y-104335101D01*
X45288674Y-104346535D01*
X45243339Y-104351000D01*
X44406661Y-104351000D01*
X44361326Y-104346535D01*
X44323633Y-104335101D01*
X44288897Y-104316534D01*
X44258452Y-104291548D01*
X44233466Y-104261103D01*
X44214899Y-104226367D01*
X44203465Y-104188674D01*
X44199000Y-104143339D01*
X44199000Y-103056661D01*
X44203465Y-103011326D01*
X44214899Y-102973633D01*
X44233466Y-102938897D01*
X44258452Y-102908452D01*
X44288897Y-102883466D01*
X44323633Y-102864899D01*
X44361326Y-102853465D01*
X44406661Y-102849000D01*
X45243339Y-102849000D01*
X45288674Y-102853465D01*
G37*
G36*
X60338674Y-101478465D02*
G01*
X60376367Y-101489899D01*
X60411103Y-101508466D01*
X60441548Y-101533452D01*
X60466534Y-101563897D01*
X60485101Y-101598633D01*
X60496535Y-101636326D01*
X60501000Y-101681661D01*
X60501000Y-102768339D01*
X60496535Y-102813674D01*
X60485101Y-102851367D01*
X60466534Y-102886103D01*
X60441548Y-102916548D01*
X60411103Y-102941534D01*
X60376367Y-102960101D01*
X60338674Y-102971535D01*
X60293339Y-102976000D01*
X59456661Y-102976000D01*
X59411326Y-102971535D01*
X59373633Y-102960101D01*
X59338897Y-102941534D01*
X59308452Y-102916548D01*
X59283466Y-102886103D01*
X59264899Y-102851367D01*
X59253465Y-102813674D01*
X59249000Y-102768339D01*
X59249000Y-101681661D01*
X59253465Y-101636326D01*
X59264899Y-101598633D01*
X59283466Y-101563897D01*
X59308452Y-101533452D01*
X59338897Y-101508466D01*
X59373633Y-101489899D01*
X59411326Y-101478465D01*
X59456661Y-101474000D01*
X60293339Y-101474000D01*
X60338674Y-101478465D01*
G37*
G36*
X62388674Y-101478465D02*
G01*
X62426367Y-101489899D01*
X62461103Y-101508466D01*
X62491548Y-101533452D01*
X62516534Y-101563897D01*
X62535101Y-101598633D01*
X62546535Y-101636326D01*
X62551000Y-101681661D01*
X62551000Y-102768339D01*
X62546535Y-102813674D01*
X62535101Y-102851367D01*
X62516534Y-102886103D01*
X62491548Y-102916548D01*
X62461103Y-102941534D01*
X62426367Y-102960101D01*
X62388674Y-102971535D01*
X62343339Y-102976000D01*
X61506661Y-102976000D01*
X61461326Y-102971535D01*
X61423633Y-102960101D01*
X61388897Y-102941534D01*
X61358452Y-102916548D01*
X61333466Y-102886103D01*
X61314899Y-102851367D01*
X61303465Y-102813674D01*
X61299000Y-102768339D01*
X61299000Y-101681661D01*
X61303465Y-101636326D01*
X61314899Y-101598633D01*
X61333466Y-101563897D01*
X61358452Y-101533452D01*
X61388897Y-101508466D01*
X61423633Y-101489899D01*
X61461326Y-101478465D01*
X61506661Y-101474000D01*
X62343339Y-101474000D01*
X62388674Y-101478465D01*
G37*
G36*
X49608674Y-101133465D02*
G01*
X49646367Y-101144899D01*
X49681103Y-101163466D01*
X49711548Y-101188452D01*
X49736534Y-101218897D01*
X49755101Y-101253633D01*
X49766535Y-101291326D01*
X49771000Y-101336661D01*
X49771000Y-102423339D01*
X49766535Y-102468674D01*
X49755101Y-102506367D01*
X49736534Y-102541103D01*
X49711548Y-102571548D01*
X49681103Y-102596534D01*
X49646367Y-102615101D01*
X49608674Y-102626535D01*
X49563339Y-102631000D01*
X48726661Y-102631000D01*
X48681326Y-102626535D01*
X48643633Y-102615101D01*
X48608897Y-102596534D01*
X48578452Y-102571548D01*
X48553466Y-102541103D01*
X48534899Y-102506367D01*
X48523465Y-102468674D01*
X48519000Y-102423339D01*
X48519000Y-101336661D01*
X48523465Y-101291326D01*
X48534899Y-101253633D01*
X48553466Y-101218897D01*
X48578452Y-101188452D01*
X48608897Y-101163466D01*
X48643633Y-101144899D01*
X48681326Y-101133465D01*
X48726661Y-101129000D01*
X49563339Y-101129000D01*
X49608674Y-101133465D01*
G37*
G36*
X51658674Y-101133465D02*
G01*
X51696367Y-101144899D01*
X51731103Y-101163466D01*
X51761548Y-101188452D01*
X51786534Y-101218897D01*
X51805101Y-101253633D01*
X51816535Y-101291326D01*
X51821000Y-101336661D01*
X51821000Y-102423339D01*
X51816535Y-102468674D01*
X51805101Y-102506367D01*
X51786534Y-102541103D01*
X51761548Y-102571548D01*
X51731103Y-102596534D01*
X51696367Y-102615101D01*
X51658674Y-102626535D01*
X51613339Y-102631000D01*
X50776661Y-102631000D01*
X50731326Y-102626535D01*
X50693633Y-102615101D01*
X50658897Y-102596534D01*
X50628452Y-102571548D01*
X50603466Y-102541103D01*
X50584899Y-102506367D01*
X50573465Y-102468674D01*
X50569000Y-102423339D01*
X50569000Y-101336661D01*
X50573465Y-101291326D01*
X50584899Y-101253633D01*
X50603466Y-101218897D01*
X50628452Y-101188452D01*
X50658897Y-101163466D01*
X50693633Y-101144899D01*
X50731326Y-101133465D01*
X50776661Y-101129000D01*
X51613339Y-101129000D01*
X51658674Y-101133465D01*
G37*
G36*
X43238674Y-100453465D02*
G01*
X43276367Y-100464899D01*
X43311103Y-100483466D01*
X43341548Y-100508452D01*
X43366534Y-100538897D01*
X43385101Y-100573633D01*
X43396535Y-100611326D01*
X43401000Y-100656661D01*
X43401000Y-101743339D01*
X43396535Y-101788674D01*
X43385101Y-101826367D01*
X43366534Y-101861103D01*
X43341548Y-101891548D01*
X43311103Y-101916534D01*
X43276367Y-101935101D01*
X43238674Y-101946535D01*
X43193339Y-101951000D01*
X42356661Y-101951000D01*
X42311326Y-101946535D01*
X42273633Y-101935101D01*
X42238897Y-101916534D01*
X42208452Y-101891548D01*
X42183466Y-101861103D01*
X42164899Y-101826367D01*
X42153465Y-101788674D01*
X42149000Y-101743339D01*
X42149000Y-100656661D01*
X42153465Y-100611326D01*
X42164899Y-100573633D01*
X42183466Y-100538897D01*
X42208452Y-100508452D01*
X42238897Y-100483466D01*
X42273633Y-100464899D01*
X42311326Y-100453465D01*
X42356661Y-100449000D01*
X43193339Y-100449000D01*
X43238674Y-100453465D01*
G37*
G36*
X45288674Y-100453465D02*
G01*
X45326367Y-100464899D01*
X45361103Y-100483466D01*
X45391548Y-100508452D01*
X45416534Y-100538897D01*
X45435101Y-100573633D01*
X45446535Y-100611326D01*
X45451000Y-100656661D01*
X45451000Y-101743339D01*
X45446535Y-101788674D01*
X45435101Y-101826367D01*
X45416534Y-101861103D01*
X45391548Y-101891548D01*
X45361103Y-101916534D01*
X45326367Y-101935101D01*
X45288674Y-101946535D01*
X45243339Y-101951000D01*
X44406661Y-101951000D01*
X44361326Y-101946535D01*
X44323633Y-101935101D01*
X44288897Y-101916534D01*
X44258452Y-101891548D01*
X44233466Y-101861103D01*
X44214899Y-101826367D01*
X44203465Y-101788674D01*
X44199000Y-101743339D01*
X44199000Y-100656661D01*
X44203465Y-100611326D01*
X44214899Y-100573633D01*
X44233466Y-100538897D01*
X44258452Y-100508452D01*
X44288897Y-100483466D01*
X44323633Y-100464899D01*
X44361326Y-100453465D01*
X44406661Y-100449000D01*
X45243339Y-100449000D01*
X45288674Y-100453465D01*
G37*
G36*
X51663674Y-99028465D02*
G01*
X51701367Y-99039899D01*
X51736103Y-99058466D01*
X51766548Y-99083452D01*
X51791534Y-99113897D01*
X51810101Y-99148633D01*
X51821535Y-99186326D01*
X51826000Y-99231661D01*
X51826000Y-100318339D01*
X51821535Y-100363674D01*
X51810101Y-100401367D01*
X51791534Y-100436103D01*
X51766548Y-100466548D01*
X51736103Y-100491534D01*
X51701367Y-100510101D01*
X51663674Y-100521535D01*
X51618339Y-100526000D01*
X50781661Y-100526000D01*
X50736326Y-100521535D01*
X50698633Y-100510101D01*
X50663897Y-100491534D01*
X50633452Y-100466548D01*
X50608466Y-100436103D01*
X50589899Y-100401367D01*
X50578465Y-100363674D01*
X50574000Y-100318339D01*
X50574000Y-99231661D01*
X50578465Y-99186326D01*
X50589899Y-99148633D01*
X50608466Y-99113897D01*
X50633452Y-99083452D01*
X50663897Y-99058466D01*
X50698633Y-99039899D01*
X50736326Y-99028465D01*
X50781661Y-99024000D01*
X51618339Y-99024000D01*
X51663674Y-99028465D01*
G37*
G36*
X53713674Y-99028465D02*
G01*
X53751367Y-99039899D01*
X53786103Y-99058466D01*
X53816548Y-99083452D01*
X53841534Y-99113897D01*
X53860101Y-99148633D01*
X53871535Y-99186326D01*
X53876000Y-99231661D01*
X53876000Y-100318339D01*
X53871535Y-100363674D01*
X53860101Y-100401367D01*
X53841534Y-100436103D01*
X53816548Y-100466548D01*
X53786103Y-100491534D01*
X53751367Y-100510101D01*
X53713674Y-100521535D01*
X53668339Y-100526000D01*
X52831661Y-100526000D01*
X52786326Y-100521535D01*
X52748633Y-100510101D01*
X52713897Y-100491534D01*
X52683452Y-100466548D01*
X52658466Y-100436103D01*
X52639899Y-100401367D01*
X52628465Y-100363674D01*
X52624000Y-100318339D01*
X52624000Y-99231661D01*
X52628465Y-99186326D01*
X52639899Y-99148633D01*
X52658466Y-99113897D01*
X52683452Y-99083452D01*
X52713897Y-99058466D01*
X52748633Y-99039899D01*
X52786326Y-99028465D01*
X52831661Y-99024000D01*
X53668339Y-99024000D01*
X53713674Y-99028465D01*
G37*
G36*
X55476000Y-97951000D02*
G01*
X46824000Y-97951000D01*
X46824000Y-96349000D01*
X55476000Y-96349000D01*
X55476000Y-97951000D01*
G37*
G36*
X30911766Y-96251899D02*
G01*
X31043888Y-96306626D01*
X31043890Y-96306627D01*
X31162798Y-96386079D01*
X31263921Y-96487202D01*
X31263922Y-96487204D01*
X31343374Y-96606112D01*
X31398101Y-96738234D01*
X31426000Y-96878494D01*
X31426000Y-97021506D01*
X31398101Y-97161766D01*
X31343374Y-97293888D01*
X31343373Y-97293890D01*
X31263921Y-97412798D01*
X31162798Y-97513921D01*
X31043890Y-97593373D01*
X31043889Y-97593374D01*
X31043888Y-97593374D01*
X30911766Y-97648101D01*
X30771506Y-97676000D01*
X30628494Y-97676000D01*
X30488234Y-97648101D01*
X30356112Y-97593374D01*
X30356111Y-97593374D01*
X30356110Y-97593373D01*
X30237202Y-97513921D01*
X30136079Y-97412798D01*
X30056627Y-97293890D01*
X30056626Y-97293888D01*
X30001899Y-97161766D01*
X29974000Y-97021506D01*
X29974000Y-96878494D01*
X30001899Y-96738234D01*
X30056626Y-96606112D01*
X30136078Y-96487204D01*
X30136079Y-96487202D01*
X30237202Y-96386079D01*
X30356110Y-96306627D01*
X30356112Y-96306626D01*
X30488234Y-96251899D01*
X30628494Y-96224000D01*
X30771506Y-96224000D01*
X30911766Y-96251899D01*
G37*
G36*
X32911766Y-96251899D02*
G01*
X33043888Y-96306626D01*
X33043890Y-96306627D01*
X33162798Y-96386079D01*
X33263921Y-96487202D01*
X33263922Y-96487204D01*
X33343374Y-96606112D01*
X33398101Y-96738234D01*
X33426000Y-96878494D01*
X33426000Y-97021506D01*
X33398101Y-97161766D01*
X33343374Y-97293888D01*
X33343373Y-97293890D01*
X33263921Y-97412798D01*
X33162798Y-97513921D01*
X33043890Y-97593373D01*
X33043889Y-97593374D01*
X33043888Y-97593374D01*
X32911766Y-97648101D01*
X32771506Y-97676000D01*
X32628494Y-97676000D01*
X32488234Y-97648101D01*
X32356112Y-97593374D01*
X32356111Y-97593374D01*
X32356110Y-97593373D01*
X32237202Y-97513921D01*
X32136079Y-97412798D01*
X32056627Y-97293890D01*
X32056626Y-97293888D01*
X32001899Y-97161766D01*
X31974000Y-97021506D01*
X31974000Y-96878494D01*
X32001899Y-96738234D01*
X32056626Y-96606112D01*
X32136078Y-96487204D01*
X32136079Y-96487202D01*
X32237202Y-96386079D01*
X32356110Y-96306627D01*
X32356112Y-96306626D01*
X32488234Y-96251899D01*
X32628494Y-96224000D01*
X32771506Y-96224000D01*
X32911766Y-96251899D01*
G37*
G36*
X28911766Y-96251899D02*
G01*
X29043888Y-96306626D01*
X29043890Y-96306627D01*
X29162798Y-96386079D01*
X29263921Y-96487202D01*
X29263922Y-96487204D01*
X29343374Y-96606112D01*
X29398101Y-96738234D01*
X29426000Y-96878494D01*
X29426000Y-97021506D01*
X29398101Y-97161766D01*
X29343374Y-97293888D01*
X29343373Y-97293890D01*
X29263921Y-97412798D01*
X29162798Y-97513921D01*
X29043890Y-97593373D01*
X29043889Y-97593374D01*
X29043888Y-97593374D01*
X28911766Y-97648101D01*
X28771506Y-97676000D01*
X28628494Y-97676000D01*
X28488234Y-97648101D01*
X28356112Y-97593374D01*
X28356111Y-97593374D01*
X28356110Y-97593373D01*
X28237202Y-97513921D01*
X28136079Y-97412798D01*
X28056627Y-97293890D01*
X28056626Y-97293888D01*
X28001899Y-97161766D01*
X27974000Y-97021506D01*
X27974000Y-96878494D01*
X28001899Y-96738234D01*
X28056626Y-96606112D01*
X28136078Y-96487204D01*
X28136079Y-96487202D01*
X28237202Y-96386079D01*
X28356110Y-96306627D01*
X28356112Y-96306626D01*
X28488234Y-96251899D01*
X28628494Y-96224000D01*
X28771506Y-96224000D01*
X28911766Y-96251899D01*
G37*
G36*
X26911766Y-96251899D02*
G01*
X27043888Y-96306626D01*
X27043890Y-96306627D01*
X27162798Y-96386079D01*
X27263921Y-96487202D01*
X27263922Y-96487204D01*
X27343374Y-96606112D01*
X27398101Y-96738234D01*
X27426000Y-96878494D01*
X27426000Y-97021506D01*
X27398101Y-97161766D01*
X27343374Y-97293888D01*
X27343373Y-97293890D01*
X27263921Y-97412798D01*
X27162798Y-97513921D01*
X27043890Y-97593373D01*
X27043889Y-97593374D01*
X27043888Y-97593374D01*
X26911766Y-97648101D01*
X26771506Y-97676000D01*
X26628494Y-97676000D01*
X26488234Y-97648101D01*
X26356112Y-97593374D01*
X26356111Y-97593374D01*
X26356110Y-97593373D01*
X26237202Y-97513921D01*
X26136079Y-97412798D01*
X26056627Y-97293890D01*
X26056626Y-97293888D01*
X26001899Y-97161766D01*
X25974000Y-97021506D01*
X25974000Y-96878494D01*
X26001899Y-96738234D01*
X26056626Y-96606112D01*
X26136078Y-96487204D01*
X26136079Y-96487202D01*
X26237202Y-96386079D01*
X26356110Y-96306627D01*
X26356112Y-96306626D01*
X26488234Y-96251899D01*
X26628494Y-96224000D01*
X26771506Y-96224000D01*
X26911766Y-96251899D01*
G37*
G36*
X24911766Y-96251899D02*
G01*
X25043888Y-96306626D01*
X25043890Y-96306627D01*
X25162798Y-96386079D01*
X25263921Y-96487202D01*
X25263922Y-96487204D01*
X25343374Y-96606112D01*
X25398101Y-96738234D01*
X25426000Y-96878494D01*
X25426000Y-97021506D01*
X25398101Y-97161766D01*
X25343374Y-97293888D01*
X25343373Y-97293890D01*
X25263921Y-97412798D01*
X25162798Y-97513921D01*
X25043890Y-97593373D01*
X25043889Y-97593374D01*
X25043888Y-97593374D01*
X24911766Y-97648101D01*
X24771506Y-97676000D01*
X24628494Y-97676000D01*
X24488234Y-97648101D01*
X24356112Y-97593374D01*
X24356111Y-97593374D01*
X24356110Y-97593373D01*
X24237202Y-97513921D01*
X24136079Y-97412798D01*
X24056627Y-97293890D01*
X24056626Y-97293888D01*
X24001899Y-97161766D01*
X23974000Y-97021506D01*
X23974000Y-96878494D01*
X24001899Y-96738234D01*
X24056626Y-96606112D01*
X24136078Y-96487204D01*
X24136079Y-96487202D01*
X24237202Y-96386079D01*
X24356110Y-96306627D01*
X24356112Y-96306626D01*
X24488234Y-96251899D01*
X24628494Y-96224000D01*
X24771506Y-96224000D01*
X24911766Y-96251899D01*
G37*
G36*
X22911766Y-96251899D02*
G01*
X23043888Y-96306626D01*
X23043890Y-96306627D01*
X23162798Y-96386079D01*
X23263921Y-96487202D01*
X23263922Y-96487204D01*
X23343374Y-96606112D01*
X23398101Y-96738234D01*
X23426000Y-96878494D01*
X23426000Y-97021506D01*
X23398101Y-97161766D01*
X23343374Y-97293888D01*
X23343373Y-97293890D01*
X23263921Y-97412798D01*
X23162798Y-97513921D01*
X23043890Y-97593373D01*
X23043889Y-97593374D01*
X23043888Y-97593374D01*
X22911766Y-97648101D01*
X22771506Y-97676000D01*
X22628494Y-97676000D01*
X22488234Y-97648101D01*
X22356112Y-97593374D01*
X22356111Y-97593374D01*
X22356110Y-97593373D01*
X22237202Y-97513921D01*
X22136079Y-97412798D01*
X22056627Y-97293890D01*
X22056626Y-97293888D01*
X22001899Y-97161766D01*
X21974000Y-97021506D01*
X21974000Y-96878494D01*
X22001899Y-96738234D01*
X22056626Y-96606112D01*
X22136078Y-96487204D01*
X22136079Y-96487202D01*
X22237202Y-96386079D01*
X22356110Y-96306627D01*
X22356112Y-96306626D01*
X22488234Y-96251899D01*
X22628494Y-96224000D01*
X22771506Y-96224000D01*
X22911766Y-96251899D01*
G37*
G36*
X57651000Y-95776000D02*
G01*
X56049000Y-95776000D01*
X56049000Y-87124000D01*
X57651000Y-87124000D01*
X57651000Y-95776000D01*
G37*
G36*
X46251000Y-95776000D02*
G01*
X44649000Y-95776000D01*
X44649000Y-87124000D01*
X46251000Y-87124000D01*
X46251000Y-95776000D01*
G37*
G36*
X42863674Y-92703465D02*
G01*
X42901367Y-92714899D01*
X42936103Y-92733466D01*
X42966548Y-92758452D01*
X42991534Y-92788897D01*
X43010101Y-92823633D01*
X43021535Y-92861326D01*
X43026000Y-92906661D01*
X43026000Y-93743339D01*
X43021535Y-93788674D01*
X43010101Y-93826367D01*
X42991534Y-93861103D01*
X42966548Y-93891548D01*
X42936103Y-93916534D01*
X42901367Y-93935101D01*
X42863674Y-93946535D01*
X42818339Y-93951000D01*
X41731661Y-93951000D01*
X41686326Y-93946535D01*
X41648633Y-93935101D01*
X41613897Y-93916534D01*
X41583452Y-93891548D01*
X41558466Y-93861103D01*
X41539899Y-93826367D01*
X41528465Y-93788674D01*
X41524000Y-93743339D01*
X41524000Y-92906661D01*
X41528465Y-92861326D01*
X41539899Y-92823633D01*
X41558466Y-92788897D01*
X41583452Y-92758452D01*
X41613897Y-92733466D01*
X41648633Y-92714899D01*
X41686326Y-92703465D01*
X41731661Y-92699000D01*
X42818339Y-92699000D01*
X42863674Y-92703465D01*
G37*
G36*
X60263674Y-91578465D02*
G01*
X60301367Y-91589899D01*
X60336103Y-91608466D01*
X60366548Y-91633452D01*
X60391534Y-91663897D01*
X60410101Y-91698633D01*
X60421535Y-91736326D01*
X60426000Y-91781661D01*
X60426000Y-92618339D01*
X60421535Y-92663674D01*
X60410101Y-92701367D01*
X60391534Y-92736103D01*
X60366548Y-92766548D01*
X60336103Y-92791534D01*
X60301367Y-92810101D01*
X60263674Y-92821535D01*
X60218339Y-92826000D01*
X59131661Y-92826000D01*
X59086326Y-92821535D01*
X59048633Y-92810101D01*
X59013897Y-92791534D01*
X58983452Y-92766548D01*
X58958466Y-92736103D01*
X58939899Y-92701367D01*
X58928465Y-92663674D01*
X58924000Y-92618339D01*
X58924000Y-91781661D01*
X58928465Y-91736326D01*
X58939899Y-91698633D01*
X58958466Y-91663897D01*
X58983452Y-91633452D01*
X59013897Y-91608466D01*
X59048633Y-91589899D01*
X59086326Y-91578465D01*
X59131661Y-91574000D01*
X60218339Y-91574000D01*
X60263674Y-91578465D01*
G37*
G36*
X25453512Y-90903927D02*
G01*
X25602812Y-90933624D01*
X25766784Y-91001544D01*
X25914354Y-91100147D01*
X26039853Y-91225646D01*
X26138456Y-91373216D01*
X26206376Y-91537188D01*
X26241000Y-91711259D01*
X26241000Y-91888741D01*
X26206376Y-92062812D01*
X26138456Y-92226784D01*
X26039853Y-92374354D01*
X25914354Y-92499853D01*
X25766784Y-92598456D01*
X25602812Y-92666376D01*
X25453512Y-92696073D01*
X25428742Y-92701000D01*
X25251258Y-92701000D01*
X25226488Y-92696073D01*
X25077188Y-92666376D01*
X24913216Y-92598456D01*
X24765646Y-92499853D01*
X24640147Y-92374354D01*
X24541544Y-92226784D01*
X24473624Y-92062812D01*
X24439000Y-91888741D01*
X24439000Y-91711259D01*
X24473624Y-91537188D01*
X24541544Y-91373216D01*
X24640147Y-91225646D01*
X24765646Y-91100147D01*
X24913216Y-91001544D01*
X25077188Y-90933624D01*
X25226488Y-90903927D01*
X25251258Y-90899000D01*
X25428742Y-90899000D01*
X25453512Y-90903927D01*
G37*
G36*
X23701000Y-92701000D02*
G01*
X21899000Y-92701000D01*
X21899000Y-90899000D01*
X23701000Y-90899000D01*
X23701000Y-92701000D01*
G37*
G36*
X42863674Y-90653465D02*
G01*
X42901367Y-90664899D01*
X42936103Y-90683466D01*
X42966548Y-90708452D01*
X42991534Y-90738897D01*
X43010101Y-90773633D01*
X43021535Y-90811326D01*
X43026000Y-90856661D01*
X43026000Y-91693339D01*
X43021535Y-91738674D01*
X43010101Y-91776367D01*
X42991534Y-91811103D01*
X42966548Y-91841548D01*
X42936103Y-91866534D01*
X42901367Y-91885101D01*
X42863674Y-91896535D01*
X42818339Y-91901000D01*
X41731661Y-91901000D01*
X41686326Y-91896535D01*
X41648633Y-91885101D01*
X41613897Y-91866534D01*
X41583452Y-91841548D01*
X41558466Y-91811103D01*
X41539899Y-91776367D01*
X41528465Y-91738674D01*
X41524000Y-91693339D01*
X41524000Y-90856661D01*
X41528465Y-90811326D01*
X41539899Y-90773633D01*
X41558466Y-90738897D01*
X41583452Y-90708452D01*
X41613897Y-90683466D01*
X41648633Y-90664899D01*
X41686326Y-90653465D01*
X41731661Y-90649000D01*
X42818339Y-90649000D01*
X42863674Y-90653465D01*
G37*
G36*
X60263674Y-89528465D02*
G01*
X60301367Y-89539899D01*
X60336103Y-89558466D01*
X60366548Y-89583452D01*
X60391534Y-89613897D01*
X60410101Y-89648633D01*
X60421535Y-89686326D01*
X60426000Y-89731661D01*
X60426000Y-90568339D01*
X60421535Y-90613674D01*
X60410101Y-90651367D01*
X60391534Y-90686103D01*
X60366548Y-90716548D01*
X60336103Y-90741534D01*
X60301367Y-90760101D01*
X60263674Y-90771535D01*
X60218339Y-90776000D01*
X59131661Y-90776000D01*
X59086326Y-90771535D01*
X59048633Y-90760101D01*
X59013897Y-90741534D01*
X58983452Y-90716548D01*
X58958466Y-90686103D01*
X58939899Y-90651367D01*
X58928465Y-90613674D01*
X58924000Y-90568339D01*
X58924000Y-89731661D01*
X58928465Y-89686326D01*
X58939899Y-89648633D01*
X58958466Y-89613897D01*
X58983452Y-89583452D01*
X59013897Y-89558466D01*
X59048633Y-89539899D01*
X59086326Y-89528465D01*
X59131661Y-89524000D01*
X60218339Y-89524000D01*
X60263674Y-89528465D01*
G37*
G36*
X31913512Y-88073927D02*
G01*
X32062812Y-88103624D01*
X32226784Y-88171544D01*
X32374354Y-88270147D01*
X32499853Y-88395646D01*
X32598456Y-88543216D01*
X32666376Y-88707188D01*
X32701000Y-88881259D01*
X32701000Y-89058741D01*
X32666376Y-89232812D01*
X32598456Y-89396784D01*
X32499853Y-89544354D01*
X32374354Y-89669853D01*
X32226784Y-89768456D01*
X32062812Y-89836376D01*
X31913512Y-89866073D01*
X31888742Y-89871000D01*
X31711258Y-89871000D01*
X31686488Y-89866073D01*
X31537188Y-89836376D01*
X31373216Y-89768456D01*
X31225646Y-89669853D01*
X31100147Y-89544354D01*
X31001544Y-89396784D01*
X30933624Y-89232812D01*
X30899000Y-89058741D01*
X30899000Y-88881259D01*
X30933624Y-88707188D01*
X31001544Y-88543216D01*
X31100147Y-88395646D01*
X31225646Y-88270147D01*
X31373216Y-88171544D01*
X31537188Y-88103624D01*
X31686488Y-88073927D01*
X31711258Y-88069000D01*
X31888742Y-88069000D01*
X31913512Y-88073927D01*
G37*
G36*
X37438674Y-87903465D02*
G01*
X37476367Y-87914899D01*
X37511103Y-87933466D01*
X37541548Y-87958452D01*
X37566534Y-87988897D01*
X37585101Y-88023633D01*
X37596535Y-88061326D01*
X37601000Y-88106661D01*
X37601000Y-89193339D01*
X37596535Y-89238674D01*
X37585101Y-89276367D01*
X37566534Y-89311103D01*
X37541548Y-89341548D01*
X37511103Y-89366534D01*
X37476367Y-89385101D01*
X37438674Y-89396535D01*
X37393339Y-89401000D01*
X36556661Y-89401000D01*
X36511326Y-89396535D01*
X36473633Y-89385101D01*
X36438897Y-89366534D01*
X36408452Y-89341548D01*
X36383466Y-89311103D01*
X36364899Y-89276367D01*
X36353465Y-89238674D01*
X36349000Y-89193339D01*
X36349000Y-88106661D01*
X36353465Y-88061326D01*
X36364899Y-88023633D01*
X36383466Y-87988897D01*
X36408452Y-87958452D01*
X36438897Y-87933466D01*
X36473633Y-87914899D01*
X36511326Y-87903465D01*
X36556661Y-87899000D01*
X37393339Y-87899000D01*
X37438674Y-87903465D01*
G37*
G36*
X39488674Y-87903465D02*
G01*
X39526367Y-87914899D01*
X39561103Y-87933466D01*
X39591548Y-87958452D01*
X39616534Y-87988897D01*
X39635101Y-88023633D01*
X39646535Y-88061326D01*
X39651000Y-88106661D01*
X39651000Y-89193339D01*
X39646535Y-89238674D01*
X39635101Y-89276367D01*
X39616534Y-89311103D01*
X39591548Y-89341548D01*
X39561103Y-89366534D01*
X39526367Y-89385101D01*
X39488674Y-89396535D01*
X39443339Y-89401000D01*
X38606661Y-89401000D01*
X38561326Y-89396535D01*
X38523633Y-89385101D01*
X38488897Y-89366534D01*
X38458452Y-89341548D01*
X38433466Y-89311103D01*
X38414899Y-89276367D01*
X38403465Y-89238674D01*
X38399000Y-89193339D01*
X38399000Y-88106661D01*
X38403465Y-88061326D01*
X38414899Y-88023633D01*
X38433466Y-87988897D01*
X38458452Y-87958452D01*
X38488897Y-87933466D01*
X38523633Y-87914899D01*
X38561326Y-87903465D01*
X38606661Y-87899000D01*
X39443339Y-87899000D01*
X39488674Y-87903465D01*
G37*
G36*
X31913512Y-85533927D02*
G01*
X32062812Y-85563624D01*
X32226784Y-85631544D01*
X32374354Y-85730147D01*
X32499853Y-85855646D01*
X32598456Y-86003216D01*
X32666376Y-86167188D01*
X32701000Y-86341259D01*
X32701000Y-86518741D01*
X32666376Y-86692812D01*
X32598456Y-86856784D01*
X32499853Y-87004354D01*
X32374354Y-87129853D01*
X32226784Y-87228456D01*
X32062812Y-87296376D01*
X31913512Y-87326073D01*
X31888742Y-87331000D01*
X31711258Y-87331000D01*
X31686488Y-87326073D01*
X31537188Y-87296376D01*
X31373216Y-87228456D01*
X31225646Y-87129853D01*
X31100147Y-87004354D01*
X31001544Y-86856784D01*
X30933624Y-86692812D01*
X30899000Y-86518741D01*
X30899000Y-86341259D01*
X30933624Y-86167188D01*
X31001544Y-86003216D01*
X31100147Y-85855646D01*
X31225646Y-85730147D01*
X31373216Y-85631544D01*
X31537188Y-85563624D01*
X31686488Y-85533927D01*
X31711258Y-85529000D01*
X31888742Y-85529000D01*
X31913512Y-85533927D01*
G37*
G36*
X37438674Y-85753465D02*
G01*
X37476367Y-85764899D01*
X37511103Y-85783466D01*
X37541548Y-85808452D01*
X37566534Y-85838897D01*
X37585101Y-85873633D01*
X37596535Y-85911326D01*
X37601000Y-85956661D01*
X37601000Y-87043339D01*
X37596535Y-87088674D01*
X37585101Y-87126367D01*
X37566534Y-87161103D01*
X37541548Y-87191548D01*
X37511103Y-87216534D01*
X37476367Y-87235101D01*
X37438674Y-87246535D01*
X37393339Y-87251000D01*
X36556661Y-87251000D01*
X36511326Y-87246535D01*
X36473633Y-87235101D01*
X36438897Y-87216534D01*
X36408452Y-87191548D01*
X36383466Y-87161103D01*
X36364899Y-87126367D01*
X36353465Y-87088674D01*
X36349000Y-87043339D01*
X36349000Y-85956661D01*
X36353465Y-85911326D01*
X36364899Y-85873633D01*
X36383466Y-85838897D01*
X36408452Y-85808452D01*
X36438897Y-85783466D01*
X36473633Y-85764899D01*
X36511326Y-85753465D01*
X36556661Y-85749000D01*
X37393339Y-85749000D01*
X37438674Y-85753465D01*
G37*
G36*
X39488674Y-85753465D02*
G01*
X39526367Y-85764899D01*
X39561103Y-85783466D01*
X39591548Y-85808452D01*
X39616534Y-85838897D01*
X39635101Y-85873633D01*
X39646535Y-85911326D01*
X39651000Y-85956661D01*
X39651000Y-87043339D01*
X39646535Y-87088674D01*
X39635101Y-87126367D01*
X39616534Y-87161103D01*
X39591548Y-87191548D01*
X39561103Y-87216534D01*
X39526367Y-87235101D01*
X39488674Y-87246535D01*
X39443339Y-87251000D01*
X38606661Y-87251000D01*
X38561326Y-87246535D01*
X38523633Y-87235101D01*
X38488897Y-87216534D01*
X38458452Y-87191548D01*
X38433466Y-87161103D01*
X38414899Y-87126367D01*
X38403465Y-87088674D01*
X38399000Y-87043339D01*
X38399000Y-85956661D01*
X38403465Y-85911326D01*
X38414899Y-85873633D01*
X38433466Y-85838897D01*
X38458452Y-85808452D01*
X38488897Y-85783466D01*
X38523633Y-85764899D01*
X38561326Y-85753465D01*
X38606661Y-85749000D01*
X39443339Y-85749000D01*
X39488674Y-85753465D01*
G37*
G36*
X71706564Y-85089389D02*
G01*
X71897833Y-85168615D01*
X71897835Y-85168616D01*
X72069973Y-85283635D01*
X72216365Y-85430027D01*
X72305632Y-85563624D01*
X72331385Y-85602167D01*
X72410611Y-85793436D01*
X72451000Y-85996484D01*
X72451000Y-86203516D01*
X72410611Y-86406564D01*
X72364146Y-86518741D01*
X72331384Y-86597835D01*
X72216365Y-86769973D01*
X72069973Y-86916365D01*
X71897835Y-87031384D01*
X71897834Y-87031385D01*
X71897833Y-87031385D01*
X71706564Y-87110611D01*
X71503516Y-87151000D01*
X71296484Y-87151000D01*
X71093436Y-87110611D01*
X70902167Y-87031385D01*
X70902166Y-87031385D01*
X70902165Y-87031384D01*
X70730027Y-86916365D01*
X70583635Y-86769973D01*
X70468616Y-86597835D01*
X70435854Y-86518741D01*
X70389389Y-86406564D01*
X70349000Y-86203516D01*
X70349000Y-85996484D01*
X70389389Y-85793436D01*
X70468615Y-85602167D01*
X70494369Y-85563624D01*
X70583635Y-85430027D01*
X70730027Y-85283635D01*
X70902165Y-85168616D01*
X70902167Y-85168615D01*
X71093436Y-85089389D01*
X71296484Y-85049000D01*
X71503516Y-85049000D01*
X71706564Y-85089389D01*
G37*
G36*
X65206564Y-85089389D02*
G01*
X65397833Y-85168615D01*
X65397835Y-85168616D01*
X65569973Y-85283635D01*
X65716365Y-85430027D01*
X65805632Y-85563624D01*
X65831385Y-85602167D01*
X65910611Y-85793436D01*
X65951000Y-85996484D01*
X65951000Y-86203516D01*
X65910611Y-86406564D01*
X65864146Y-86518741D01*
X65831384Y-86597835D01*
X65716365Y-86769973D01*
X65569973Y-86916365D01*
X65397835Y-87031384D01*
X65397834Y-87031385D01*
X65397833Y-87031385D01*
X65206564Y-87110611D01*
X65003516Y-87151000D01*
X64796484Y-87151000D01*
X64593436Y-87110611D01*
X64402167Y-87031385D01*
X64402166Y-87031385D01*
X64402165Y-87031384D01*
X64230027Y-86916365D01*
X64083635Y-86769973D01*
X63968616Y-86597835D01*
X63935854Y-86518741D01*
X63889389Y-86406564D01*
X63849000Y-86203516D01*
X63849000Y-85996484D01*
X63889389Y-85793436D01*
X63968615Y-85602167D01*
X63994369Y-85563624D01*
X64083635Y-85430027D01*
X64230027Y-85283635D01*
X64402165Y-85168616D01*
X64402167Y-85168615D01*
X64593436Y-85089389D01*
X64796484Y-85049000D01*
X65003516Y-85049000D01*
X65206564Y-85089389D01*
G37*
G36*
X21906564Y-85089389D02*
G01*
X22097833Y-85168615D01*
X22097835Y-85168616D01*
X22269973Y-85283635D01*
X22416365Y-85430027D01*
X22505632Y-85563624D01*
X22531385Y-85602167D01*
X22610611Y-85793436D01*
X22651000Y-85996484D01*
X22651000Y-86203516D01*
X22610611Y-86406564D01*
X22564146Y-86518741D01*
X22531384Y-86597835D01*
X22416365Y-86769973D01*
X22269973Y-86916365D01*
X22097835Y-87031384D01*
X22097834Y-87031385D01*
X22097833Y-87031385D01*
X21906564Y-87110611D01*
X21703516Y-87151000D01*
X21496484Y-87151000D01*
X21293436Y-87110611D01*
X21102167Y-87031385D01*
X21102166Y-87031385D01*
X21102165Y-87031384D01*
X20930027Y-86916365D01*
X20783635Y-86769973D01*
X20668616Y-86597835D01*
X20635854Y-86518741D01*
X20589389Y-86406564D01*
X20549000Y-86203516D01*
X20549000Y-85996484D01*
X20589389Y-85793436D01*
X20668615Y-85602167D01*
X20694369Y-85563624D01*
X20783635Y-85430027D01*
X20930027Y-85283635D01*
X21102165Y-85168616D01*
X21102167Y-85168615D01*
X21293436Y-85089389D01*
X21496484Y-85049000D01*
X21703516Y-85049000D01*
X21906564Y-85089389D01*
G37*
G36*
X28406564Y-85089389D02*
G01*
X28597833Y-85168615D01*
X28597835Y-85168616D01*
X28769973Y-85283635D01*
X28916365Y-85430027D01*
X29005632Y-85563624D01*
X29031385Y-85602167D01*
X29110611Y-85793436D01*
X29151000Y-85996484D01*
X29151000Y-86203516D01*
X29110611Y-86406564D01*
X29064146Y-86518741D01*
X29031384Y-86597835D01*
X28916365Y-86769973D01*
X28769973Y-86916365D01*
X28597835Y-87031384D01*
X28597834Y-87031385D01*
X28597833Y-87031385D01*
X28406564Y-87110611D01*
X28203516Y-87151000D01*
X27996484Y-87151000D01*
X27793436Y-87110611D01*
X27602167Y-87031385D01*
X27602166Y-87031385D01*
X27602165Y-87031384D01*
X27430027Y-86916365D01*
X27283635Y-86769973D01*
X27168616Y-86597835D01*
X27135854Y-86518741D01*
X27089389Y-86406564D01*
X27049000Y-86203516D01*
X27049000Y-85996484D01*
X27089389Y-85793436D01*
X27168615Y-85602167D01*
X27194369Y-85563624D01*
X27283635Y-85430027D01*
X27430027Y-85283635D01*
X27602165Y-85168616D01*
X27602167Y-85168615D01*
X27793436Y-85089389D01*
X27996484Y-85049000D01*
X28203516Y-85049000D01*
X28406564Y-85089389D01*
G37*
G36*
X55476000Y-86551000D02*
G01*
X46824000Y-86551000D01*
X46824000Y-84949000D01*
X55476000Y-84949000D01*
X55476000Y-86551000D01*
G37*
G36*
X31913512Y-82993927D02*
G01*
X32062812Y-83023624D01*
X32226784Y-83091544D01*
X32374354Y-83190147D01*
X32499853Y-83315646D01*
X32598456Y-83463216D01*
X32666376Y-83627188D01*
X32696073Y-83776488D01*
X32701000Y-83801258D01*
X32701000Y-83978742D01*
X32699735Y-83985101D01*
X32666376Y-84152812D01*
X32598456Y-84316784D01*
X32499853Y-84464354D01*
X32374354Y-84589853D01*
X32226784Y-84688456D01*
X32062812Y-84756376D01*
X31913512Y-84786073D01*
X31888742Y-84791000D01*
X31711258Y-84791000D01*
X31686488Y-84786073D01*
X31537188Y-84756376D01*
X31373216Y-84688456D01*
X31225646Y-84589853D01*
X31100147Y-84464354D01*
X31001544Y-84316784D01*
X30933624Y-84152812D01*
X30900265Y-83985101D01*
X30899000Y-83978742D01*
X30899000Y-83801258D01*
X30903927Y-83776488D01*
X30933624Y-83627188D01*
X31001544Y-83463216D01*
X31100147Y-83315646D01*
X31225646Y-83190147D01*
X31373216Y-83091544D01*
X31537188Y-83023624D01*
X31686488Y-82993927D01*
X31711258Y-82989000D01*
X31888742Y-82989000D01*
X31913512Y-82993927D01*
G37*
G36*
X51013674Y-82503465D02*
G01*
X51051367Y-82514899D01*
X51086103Y-82533466D01*
X51116548Y-82558452D01*
X51141534Y-82588897D01*
X51160101Y-82623633D01*
X51171535Y-82661326D01*
X51176000Y-82706661D01*
X51176000Y-83793339D01*
X51171535Y-83838674D01*
X51160101Y-83876367D01*
X51141534Y-83911103D01*
X51116548Y-83941548D01*
X51086103Y-83966534D01*
X51051367Y-83985101D01*
X51013674Y-83996535D01*
X50968339Y-84001000D01*
X50131661Y-84001000D01*
X50086326Y-83996535D01*
X50048633Y-83985101D01*
X50013897Y-83966534D01*
X49983452Y-83941548D01*
X49958466Y-83911103D01*
X49939899Y-83876367D01*
X49928465Y-83838674D01*
X49924000Y-83793339D01*
X49924000Y-82706661D01*
X49928465Y-82661326D01*
X49939899Y-82623633D01*
X49958466Y-82588897D01*
X49983452Y-82558452D01*
X50013897Y-82533466D01*
X50048633Y-82514899D01*
X50086326Y-82503465D01*
X50131661Y-82499000D01*
X50968339Y-82499000D01*
X51013674Y-82503465D01*
G37*
G36*
X53063674Y-82503465D02*
G01*
X53101367Y-82514899D01*
X53136103Y-82533466D01*
X53166548Y-82558452D01*
X53191534Y-82588897D01*
X53210101Y-82623633D01*
X53221535Y-82661326D01*
X53226000Y-82706661D01*
X53226000Y-83793339D01*
X53221535Y-83838674D01*
X53210101Y-83876367D01*
X53191534Y-83911103D01*
X53166548Y-83941548D01*
X53136103Y-83966534D01*
X53101367Y-83985101D01*
X53063674Y-83996535D01*
X53018339Y-84001000D01*
X52181661Y-84001000D01*
X52136326Y-83996535D01*
X52098633Y-83985101D01*
X52063897Y-83966534D01*
X52033452Y-83941548D01*
X52008466Y-83911103D01*
X51989899Y-83876367D01*
X51978465Y-83838674D01*
X51974000Y-83793339D01*
X51974000Y-82706661D01*
X51978465Y-82661326D01*
X51989899Y-82623633D01*
X52008466Y-82588897D01*
X52033452Y-82558452D01*
X52063897Y-82533466D01*
X52098633Y-82514899D01*
X52136326Y-82503465D01*
X52181661Y-82499000D01*
X53018339Y-82499000D01*
X53063674Y-82503465D01*
G37*
G36*
X47238674Y-82103465D02*
G01*
X47276367Y-82114899D01*
X47311103Y-82133466D01*
X47341548Y-82158452D01*
X47366534Y-82188897D01*
X47385101Y-82223633D01*
X47396535Y-82261326D01*
X47401000Y-82306661D01*
X47401000Y-83393339D01*
X47396535Y-83438674D01*
X47385101Y-83476367D01*
X47366534Y-83511103D01*
X47341548Y-83541548D01*
X47311103Y-83566534D01*
X47276367Y-83585101D01*
X47238674Y-83596535D01*
X47193339Y-83601000D01*
X46356661Y-83601000D01*
X46311326Y-83596535D01*
X46273633Y-83585101D01*
X46238897Y-83566534D01*
X46208452Y-83541548D01*
X46183466Y-83511103D01*
X46164899Y-83476367D01*
X46153465Y-83438674D01*
X46149000Y-83393339D01*
X46149000Y-82306661D01*
X46153465Y-82261326D01*
X46164899Y-82223633D01*
X46183466Y-82188897D01*
X46208452Y-82158452D01*
X46238897Y-82133466D01*
X46273633Y-82114899D01*
X46311326Y-82103465D01*
X46356661Y-82099000D01*
X47193339Y-82099000D01*
X47238674Y-82103465D01*
G37*
G36*
X45188674Y-82103465D02*
G01*
X45226367Y-82114899D01*
X45261103Y-82133466D01*
X45291548Y-82158452D01*
X45316534Y-82188897D01*
X45335101Y-82223633D01*
X45346535Y-82261326D01*
X45351000Y-82306661D01*
X45351000Y-83393339D01*
X45346535Y-83438674D01*
X45335101Y-83476367D01*
X45316534Y-83511103D01*
X45291548Y-83541548D01*
X45261103Y-83566534D01*
X45226367Y-83585101D01*
X45188674Y-83596535D01*
X45143339Y-83601000D01*
X44306661Y-83601000D01*
X44261326Y-83596535D01*
X44223633Y-83585101D01*
X44188897Y-83566534D01*
X44158452Y-83541548D01*
X44133466Y-83511103D01*
X44114899Y-83476367D01*
X44103465Y-83438674D01*
X44099000Y-83393339D01*
X44099000Y-82306661D01*
X44103465Y-82261326D01*
X44114899Y-82223633D01*
X44133466Y-82188897D01*
X44158452Y-82158452D01*
X44188897Y-82133466D01*
X44223633Y-82114899D01*
X44261326Y-82103465D01*
X44306661Y-82099000D01*
X45143339Y-82099000D01*
X45188674Y-82103465D01*
G37*
G36*
X21906564Y-80589389D02*
G01*
X22097833Y-80668615D01*
X22097835Y-80668616D01*
X22269973Y-80783635D01*
X22416365Y-80930027D01*
X22521377Y-81087188D01*
X22531385Y-81102167D01*
X22610611Y-81293436D01*
X22651000Y-81496484D01*
X22651000Y-81703516D01*
X22610611Y-81906564D01*
X22603242Y-81924354D01*
X22531384Y-82097835D01*
X22416365Y-82269973D01*
X22269973Y-82416365D01*
X22097835Y-82531384D01*
X22097834Y-82531385D01*
X22097833Y-82531385D01*
X21906564Y-82610611D01*
X21703516Y-82651000D01*
X21496484Y-82651000D01*
X21293436Y-82610611D01*
X21102167Y-82531385D01*
X21102166Y-82531385D01*
X21102165Y-82531384D01*
X20930027Y-82416365D01*
X20783635Y-82269973D01*
X20668616Y-82097835D01*
X20596758Y-81924354D01*
X20589389Y-81906564D01*
X20549000Y-81703516D01*
X20549000Y-81496484D01*
X20589389Y-81293436D01*
X20668615Y-81102167D01*
X20678624Y-81087188D01*
X20783635Y-80930027D01*
X20930027Y-80783635D01*
X21102165Y-80668616D01*
X21102167Y-80668615D01*
X21293436Y-80589389D01*
X21496484Y-80549000D01*
X21703516Y-80549000D01*
X21906564Y-80589389D01*
G37*
G36*
X28406564Y-80589389D02*
G01*
X28597833Y-80668615D01*
X28597835Y-80668616D01*
X28769973Y-80783635D01*
X28916365Y-80930027D01*
X29021377Y-81087188D01*
X29031385Y-81102167D01*
X29110611Y-81293436D01*
X29151000Y-81496484D01*
X29151000Y-81703516D01*
X29110611Y-81906564D01*
X29103242Y-81924354D01*
X29031384Y-82097835D01*
X28916365Y-82269973D01*
X28769973Y-82416365D01*
X28597835Y-82531384D01*
X28597834Y-82531385D01*
X28597833Y-82531385D01*
X28406564Y-82610611D01*
X28203516Y-82651000D01*
X27996484Y-82651000D01*
X27793436Y-82610611D01*
X27602167Y-82531385D01*
X27602166Y-82531385D01*
X27602165Y-82531384D01*
X27430027Y-82416365D01*
X27283635Y-82269973D01*
X27168616Y-82097835D01*
X27096758Y-81924354D01*
X27089389Y-81906564D01*
X27049000Y-81703516D01*
X27049000Y-81496484D01*
X27089389Y-81293436D01*
X27168615Y-81102167D01*
X27178624Y-81087188D01*
X27283635Y-80930027D01*
X27430027Y-80783635D01*
X27602165Y-80668616D01*
X27602167Y-80668615D01*
X27793436Y-80589389D01*
X27996484Y-80549000D01*
X28203516Y-80549000D01*
X28406564Y-80589389D01*
G37*
G36*
X65206564Y-80589389D02*
G01*
X65397833Y-80668615D01*
X65397835Y-80668616D01*
X65569973Y-80783635D01*
X65716365Y-80930027D01*
X65821377Y-81087188D01*
X65831385Y-81102167D01*
X65910611Y-81293436D01*
X65951000Y-81496484D01*
X65951000Y-81703516D01*
X65910611Y-81906564D01*
X65903242Y-81924354D01*
X65831384Y-82097835D01*
X65716365Y-82269973D01*
X65569973Y-82416365D01*
X65397835Y-82531384D01*
X65397834Y-82531385D01*
X65397833Y-82531385D01*
X65206564Y-82610611D01*
X65003516Y-82651000D01*
X64796484Y-82651000D01*
X64593436Y-82610611D01*
X64402167Y-82531385D01*
X64402166Y-82531385D01*
X64402165Y-82531384D01*
X64230027Y-82416365D01*
X64083635Y-82269973D01*
X63968616Y-82097835D01*
X63896758Y-81924354D01*
X63889389Y-81906564D01*
X63849000Y-81703516D01*
X63849000Y-81496484D01*
X63889389Y-81293436D01*
X63968615Y-81102167D01*
X63978624Y-81087188D01*
X64083635Y-80930027D01*
X64230027Y-80783635D01*
X64402165Y-80668616D01*
X64402167Y-80668615D01*
X64593436Y-80589389D01*
X64796484Y-80549000D01*
X65003516Y-80549000D01*
X65206564Y-80589389D01*
G37*
G36*
X71706564Y-80589389D02*
G01*
X71897833Y-80668615D01*
X71897835Y-80668616D01*
X72069973Y-80783635D01*
X72216365Y-80930027D01*
X72321377Y-81087188D01*
X72331385Y-81102167D01*
X72410611Y-81293436D01*
X72451000Y-81496484D01*
X72451000Y-81703516D01*
X72410611Y-81906564D01*
X72403242Y-81924354D01*
X72331384Y-82097835D01*
X72216365Y-82269973D01*
X72069973Y-82416365D01*
X71897835Y-82531384D01*
X71897834Y-82531385D01*
X71897833Y-82531385D01*
X71706564Y-82610611D01*
X71503516Y-82651000D01*
X71296484Y-82651000D01*
X71093436Y-82610611D01*
X70902167Y-82531385D01*
X70902166Y-82531385D01*
X70902165Y-82531384D01*
X70730027Y-82416365D01*
X70583635Y-82269973D01*
X70468616Y-82097835D01*
X70396758Y-81924354D01*
X70389389Y-81906564D01*
X70349000Y-81703516D01*
X70349000Y-81496484D01*
X70389389Y-81293436D01*
X70468615Y-81102167D01*
X70478624Y-81087188D01*
X70583635Y-80930027D01*
X70730027Y-80783635D01*
X70902165Y-80668616D01*
X70902167Y-80668615D01*
X71093436Y-80589389D01*
X71296484Y-80549000D01*
X71503516Y-80549000D01*
X71706564Y-80589389D01*
G37*
G36*
X31913512Y-80453927D02*
G01*
X32062812Y-80483624D01*
X32226784Y-80551544D01*
X32374354Y-80650147D01*
X32499853Y-80775646D01*
X32598456Y-80923216D01*
X32666376Y-81087188D01*
X32701000Y-81261259D01*
X32701000Y-81438741D01*
X32666376Y-81612812D01*
X32598456Y-81776784D01*
X32499853Y-81924354D01*
X32374354Y-82049853D01*
X32226784Y-82148456D01*
X32062812Y-82216376D01*
X31913512Y-82246073D01*
X31888742Y-82251000D01*
X31711258Y-82251000D01*
X31686488Y-82246073D01*
X31537188Y-82216376D01*
X31373216Y-82148456D01*
X31225646Y-82049853D01*
X31100147Y-81924354D01*
X31001544Y-81776784D01*
X30933624Y-81612812D01*
X30899000Y-81438741D01*
X30899000Y-81261259D01*
X30933624Y-81087188D01*
X31001544Y-80923216D01*
X31100147Y-80775646D01*
X31225646Y-80650147D01*
X31373216Y-80551544D01*
X31537188Y-80483624D01*
X31686488Y-80453927D01*
X31711258Y-80449000D01*
X31888742Y-80449000D01*
X31913512Y-80453927D01*
G37*
M02*
