M48
; DRILL file {KiCad (5.1.5-0-10_14)} date 2020 September 27, Sunday 11:11:54
; FORMAT={-:-/ absolute / inch / decimal}
; #@! TF.CreationDate,2020-09-27T11:11:54+02:00
; #@! TF.GenerationSoftware,Kicad,Pcbnew,(5.1.5-0-10_14)
FMAT,2
INCH
T1C0.0157
T2C0.0236
T3C0.0394
T4C0.0433
%
G90
G05
T1
X0.7756Y-2.1669
X0.7874Y-1.2795
X0.7874Y-1.7717
X0.8858Y-1.2795
X0.8858Y-1.378
X0.8858Y-1.4764
X0.8858Y-1.5748
X0.8858Y-1.6732
X0.8858Y-1.7717
X0.9843Y-1.2795
X0.9843Y-1.378
X0.9843Y-1.4764
X0.9843Y-1.5748
X0.9843Y-1.6732
X0.9843Y-1.7717
X1.0707Y-0.9992
X1.0827Y-1.2795
X1.0827Y-1.378
X1.0827Y-1.4764
X1.0827Y-1.5748
X1.0827Y-1.6732
X1.0827Y-1.7717
X1.1589Y-1.044
X1.1594Y-1.0038
X1.161Y-0.9599
X1.1811Y-1.2795
X1.1811Y-1.378
X1.1811Y-1.4764
X1.1811Y-1.5748
X1.1811Y-1.6732
X1.1811Y-1.7717
X1.2795Y-1.2795
X1.2795Y-1.378
X1.2795Y-1.4764
X1.2795Y-1.5748
X1.2795Y-1.6732
X1.2795Y-1.7717
X1.2933Y-0.7457
X1.3398Y-2.4807
X1.3585Y-2.2549
X1.3732Y-1.1523
X1.4204Y-2.3388
X1.4238Y-1.0407
X1.4352Y-0.8655
X1.4754Y-1.1858
X1.4778Y-1.0696
X1.5033Y-1.964
X1.5748Y-0.5669
X1.5846Y-1.0982
X1.5935Y-0.9221
X1.602Y-1.4229
X1.6037Y-1.7086
X1.6146Y-1.369
X1.6197Y-1.3063
X1.6242Y-1.7954
X1.6291Y-2.0516
X1.6484Y-0.822
X1.6605Y-0.9172
X1.661Y-1.2484
X1.6795Y-1.4225
X1.685Y-1.1063
X1.6908Y-1.9069
X1.7027Y-1.0099
X1.7143Y-1.7098
X1.7198Y-1.4781
X1.7329Y-1.8954
X1.7368Y-2.1925
X1.7687Y-1.0156
X1.8073Y-1.0794
X1.813Y-1.7819
X1.8183Y-2.1181
X1.8449Y-1.4627
X1.8519Y-1.5593
X1.8815Y-0.6744
X1.9011Y-1.0884
X1.91Y-1.4933
X1.9249Y-0.6274
X1.9259Y-0.9943
X1.9276Y-1.9425
X1.9317Y-1.7799
X1.9335Y-2.0421
X1.9445Y-1.2187
X1.9476Y-1.1709
X1.9494Y-1.3388
X1.9693Y-1.8441
X2.001Y-2.1578
X2.0342Y-0.9194
X2.0378Y-1.1383
X2.0465Y-1.9807
X2.0842Y-1.3516
X2.0866Y-0.5906
X2.0897Y-1.4734
X2.0916Y-1.7105
X2.1048Y-0.676
X2.1323Y-1.02
X2.1335Y-1.102
X2.1408Y-1.3287
X2.1442Y-0.9191
X2.1824Y-1.5689
X2.1896Y-0.7114
X2.1978Y-1.7169
X2.2043Y-1.638
X2.2376Y-1.3258
X2.2441Y-2.1508
X2.264Y-1.3935
X2.2897Y-1.5477
X2.3101Y-1.8943
X2.3425Y-1.4295
X2.3661Y-0.6457
X2.4165Y-2.2193
X2.4803Y-0.9055
X2.4803Y-0.9843
X2.4803Y-1.063
X2.4803Y-1.1417
X2.4803Y-1.2205
X2.4898Y-1.7906
X0.6433Y-1.1154
X0.8008Y-1.1154
X0.8795Y-1.1154
X0.9583Y-1.1154
T2
X0.722Y-1.1154
X1.037Y-1.1154
T3
X1.8677Y-2.3476
X1.8677Y-2.4476
X1.0094Y-0.5819
X1.0094Y-0.6819
X1.0094Y-0.7819
X1.0094Y-0.8819
X0.6315Y-2.0169
X0.7315Y-2.0169
X0.8315Y-2.0169
X0.9315Y-2.0169
X1.0315Y-2.0169
X1.1315Y-2.0169
X1.0354Y-2.3461
X1.0354Y-2.4461
T4
X0.6039Y-2.3004
X0.6039Y-2.4776
X0.8598Y-2.3004
X0.8598Y-2.4776
X1.4583Y-2.2217
X1.4583Y-2.4776
X1.6354Y-2.2217
X1.6354Y-2.4776
X2.2378Y-0.5878
X2.2378Y-0.765
X2.4937Y-0.5878
X2.4937Y-0.765
X2.2378Y-2.3004
X2.2378Y-2.4776
X2.4937Y-2.3004
X2.4937Y-2.4776
X0.6079Y-0.5917
X0.6079Y-0.7689
X0.8638Y-0.5917
X0.8638Y-0.7689
T0
M30
