G04 #@! TF.GenerationSoftware,KiCad,Pcbnew,(5.1.5-0-10_14)*
G04 #@! TF.CreationDate,2020-10-05T14:06:28+02:00*
G04 #@! TF.ProjectId,HB-RC-4-Dis-TH,48422d52-432d-4342-9d44-69732d54482e,rev?*
G04 #@! TF.SameCoordinates,Original*
G04 #@! TF.FileFunction,Soldermask,Bot*
G04 #@! TF.FilePolarity,Negative*
%FSLAX46Y46*%
G04 Gerber Fmt 4.6, Leading zero omitted, Abs format (unit mm)*
G04 Created by KiCad (PCBNEW (5.1.5-0-10_14)) date 2020-10-05 14:06:28*
%MOMM*%
%LPD*%
G04 APERTURE LIST*
%ADD10C,0.100000*%
G04 APERTURE END LIST*
D10*
G36*
X53366000Y-64031000D02*
G01*
X50764000Y-64031000D01*
X50764000Y-60729000D01*
X53366000Y-60729000D01*
X53366000Y-64031000D01*
G37*
G36*
X63646564Y-61919389D02*
G01*
X63837833Y-61998615D01*
X63837835Y-61998616D01*
X64009973Y-62113635D01*
X64156365Y-62260027D01*
X64198454Y-62323017D01*
X64271385Y-62432167D01*
X64350611Y-62623436D01*
X64391000Y-62826484D01*
X64391000Y-63033516D01*
X64350611Y-63236564D01*
X64271385Y-63427833D01*
X64271384Y-63427835D01*
X64156365Y-63599973D01*
X64009973Y-63746365D01*
X63837835Y-63861384D01*
X63837834Y-63861385D01*
X63837833Y-63861385D01*
X63646564Y-63940611D01*
X63443516Y-63981000D01*
X63236484Y-63981000D01*
X63033436Y-63940611D01*
X62842167Y-63861385D01*
X62842166Y-63861385D01*
X62842165Y-63861384D01*
X62670027Y-63746365D01*
X62523635Y-63599973D01*
X62408616Y-63427835D01*
X62408615Y-63427833D01*
X62329389Y-63236564D01*
X62289000Y-63033516D01*
X62289000Y-62826484D01*
X62329389Y-62623436D01*
X62408615Y-62432167D01*
X62481547Y-62323017D01*
X62523635Y-62260027D01*
X62670027Y-62113635D01*
X62842165Y-61998616D01*
X62842167Y-61998615D01*
X63033436Y-61919389D01*
X63236484Y-61879000D01*
X63443516Y-61879000D01*
X63646564Y-61919389D01*
G37*
G36*
X57146564Y-61919389D02*
G01*
X57337833Y-61998615D01*
X57337835Y-61998616D01*
X57509973Y-62113635D01*
X57656365Y-62260027D01*
X57698454Y-62323017D01*
X57771385Y-62432167D01*
X57850611Y-62623436D01*
X57891000Y-62826484D01*
X57891000Y-63033516D01*
X57850611Y-63236564D01*
X57771385Y-63427833D01*
X57771384Y-63427835D01*
X57656365Y-63599973D01*
X57509973Y-63746365D01*
X57337835Y-63861384D01*
X57337834Y-63861385D01*
X57337833Y-63861385D01*
X57146564Y-63940611D01*
X56943516Y-63981000D01*
X56736484Y-63981000D01*
X56533436Y-63940611D01*
X56342167Y-63861385D01*
X56342166Y-63861385D01*
X56342165Y-63861384D01*
X56170027Y-63746365D01*
X56023635Y-63599973D01*
X55908616Y-63427835D01*
X55908615Y-63427833D01*
X55829389Y-63236564D01*
X55789000Y-63033516D01*
X55789000Y-62826484D01*
X55829389Y-62623436D01*
X55908615Y-62432167D01*
X55981547Y-62323017D01*
X56023635Y-62260027D01*
X56170027Y-62113635D01*
X56342165Y-61998616D01*
X56342167Y-61998615D01*
X56533436Y-61919389D01*
X56736484Y-61879000D01*
X56943516Y-61879000D01*
X57146564Y-61919389D01*
G37*
G36*
X41846564Y-61919389D02*
G01*
X42037833Y-61998615D01*
X42037835Y-61998616D01*
X42209973Y-62113635D01*
X42356365Y-62260027D01*
X42398454Y-62323017D01*
X42471385Y-62432167D01*
X42550611Y-62623436D01*
X42591000Y-62826484D01*
X42591000Y-63033516D01*
X42550611Y-63236564D01*
X42471385Y-63427833D01*
X42471384Y-63427835D01*
X42356365Y-63599973D01*
X42209973Y-63746365D01*
X42037835Y-63861384D01*
X42037834Y-63861385D01*
X42037833Y-63861385D01*
X41846564Y-63940611D01*
X41643516Y-63981000D01*
X41436484Y-63981000D01*
X41233436Y-63940611D01*
X41042167Y-63861385D01*
X41042166Y-63861385D01*
X41042165Y-63861384D01*
X40870027Y-63746365D01*
X40723635Y-63599973D01*
X40608616Y-63427835D01*
X40608615Y-63427833D01*
X40529389Y-63236564D01*
X40489000Y-63033516D01*
X40489000Y-62826484D01*
X40529389Y-62623436D01*
X40608615Y-62432167D01*
X40681547Y-62323017D01*
X40723635Y-62260027D01*
X40870027Y-62113635D01*
X41042165Y-61998616D01*
X41042167Y-61998615D01*
X41233436Y-61919389D01*
X41436484Y-61879000D01*
X41643516Y-61879000D01*
X41846564Y-61919389D01*
G37*
G36*
X37346564Y-61919389D02*
G01*
X37537833Y-61998615D01*
X37537835Y-61998616D01*
X37709973Y-62113635D01*
X37856365Y-62260027D01*
X37898454Y-62323017D01*
X37971385Y-62432167D01*
X38050611Y-62623436D01*
X38091000Y-62826484D01*
X38091000Y-63033516D01*
X38050611Y-63236564D01*
X37971385Y-63427833D01*
X37971384Y-63427835D01*
X37856365Y-63599973D01*
X37709973Y-63746365D01*
X37537835Y-63861384D01*
X37537834Y-63861385D01*
X37537833Y-63861385D01*
X37346564Y-63940611D01*
X37143516Y-63981000D01*
X36936484Y-63981000D01*
X36733436Y-63940611D01*
X36542167Y-63861385D01*
X36542166Y-63861385D01*
X36542165Y-63861384D01*
X36370027Y-63746365D01*
X36223635Y-63599973D01*
X36108616Y-63427835D01*
X36108615Y-63427833D01*
X36029389Y-63236564D01*
X35989000Y-63033516D01*
X35989000Y-62826484D01*
X36029389Y-62623436D01*
X36108615Y-62432167D01*
X36181547Y-62323017D01*
X36223635Y-62260027D01*
X36370027Y-62113635D01*
X36542165Y-61998616D01*
X36542167Y-61998615D01*
X36733436Y-61919389D01*
X36936484Y-61879000D01*
X37143516Y-61879000D01*
X37346564Y-61919389D01*
G37*
G36*
X22146564Y-61919389D02*
G01*
X22337833Y-61998615D01*
X22337835Y-61998616D01*
X22509973Y-62113635D01*
X22656365Y-62260027D01*
X22698454Y-62323017D01*
X22771385Y-62432167D01*
X22850611Y-62623436D01*
X22891000Y-62826484D01*
X22891000Y-63033516D01*
X22850611Y-63236564D01*
X22771385Y-63427833D01*
X22771384Y-63427835D01*
X22656365Y-63599973D01*
X22509973Y-63746365D01*
X22337835Y-63861384D01*
X22337834Y-63861385D01*
X22337833Y-63861385D01*
X22146564Y-63940611D01*
X21943516Y-63981000D01*
X21736484Y-63981000D01*
X21533436Y-63940611D01*
X21342167Y-63861385D01*
X21342166Y-63861385D01*
X21342165Y-63861384D01*
X21170027Y-63746365D01*
X21023635Y-63599973D01*
X20908616Y-63427835D01*
X20908615Y-63427833D01*
X20829389Y-63236564D01*
X20789000Y-63033516D01*
X20789000Y-62826484D01*
X20829389Y-62623436D01*
X20908615Y-62432167D01*
X20981547Y-62323017D01*
X21023635Y-62260027D01*
X21170027Y-62113635D01*
X21342165Y-61998616D01*
X21342167Y-61998615D01*
X21533436Y-61919389D01*
X21736484Y-61879000D01*
X21943516Y-61879000D01*
X22146564Y-61919389D01*
G37*
G36*
X15646564Y-61919389D02*
G01*
X15837833Y-61998615D01*
X15837835Y-61998616D01*
X16009973Y-62113635D01*
X16156365Y-62260027D01*
X16198454Y-62323017D01*
X16271385Y-62432167D01*
X16350611Y-62623436D01*
X16391000Y-62826484D01*
X16391000Y-63033516D01*
X16350611Y-63236564D01*
X16271385Y-63427833D01*
X16271384Y-63427835D01*
X16156365Y-63599973D01*
X16009973Y-63746365D01*
X15837835Y-63861384D01*
X15837834Y-63861385D01*
X15837833Y-63861385D01*
X15646564Y-63940611D01*
X15443516Y-63981000D01*
X15236484Y-63981000D01*
X15033436Y-63940611D01*
X14842167Y-63861385D01*
X14842166Y-63861385D01*
X14842165Y-63861384D01*
X14670027Y-63746365D01*
X14523635Y-63599973D01*
X14408616Y-63427835D01*
X14408615Y-63427833D01*
X14329389Y-63236564D01*
X14289000Y-63033516D01*
X14289000Y-62826484D01*
X14329389Y-62623436D01*
X14408615Y-62432167D01*
X14481547Y-62323017D01*
X14523635Y-62260027D01*
X14670027Y-62113635D01*
X14842165Y-61998616D01*
X14842167Y-61998615D01*
X15033436Y-61919389D01*
X15236484Y-61879000D01*
X15443516Y-61879000D01*
X15646564Y-61919389D01*
G37*
G36*
X32501674Y-62159465D02*
G01*
X32539367Y-62170899D01*
X32574103Y-62189466D01*
X32604548Y-62214452D01*
X32629534Y-62244897D01*
X32648101Y-62279633D01*
X32659535Y-62317326D01*
X32664000Y-62362661D01*
X32664000Y-63449339D01*
X32659535Y-63494674D01*
X32648101Y-63532367D01*
X32629534Y-63567103D01*
X32604548Y-63597548D01*
X32574103Y-63622534D01*
X32539367Y-63641101D01*
X32501674Y-63652535D01*
X32456339Y-63657000D01*
X31619661Y-63657000D01*
X31574326Y-63652535D01*
X31536633Y-63641101D01*
X31501897Y-63622534D01*
X31471452Y-63597548D01*
X31446466Y-63567103D01*
X31427899Y-63532367D01*
X31416465Y-63494674D01*
X31412000Y-63449339D01*
X31412000Y-62362661D01*
X31416465Y-62317326D01*
X31427899Y-62279633D01*
X31446466Y-62244897D01*
X31471452Y-62214452D01*
X31501897Y-62189466D01*
X31536633Y-62170899D01*
X31574326Y-62159465D01*
X31619661Y-62155000D01*
X32456339Y-62155000D01*
X32501674Y-62159465D01*
G37*
G36*
X30451674Y-62159465D02*
G01*
X30489367Y-62170899D01*
X30524103Y-62189466D01*
X30554548Y-62214452D01*
X30579534Y-62244897D01*
X30598101Y-62279633D01*
X30609535Y-62317326D01*
X30614000Y-62362661D01*
X30614000Y-63449339D01*
X30609535Y-63494674D01*
X30598101Y-63532367D01*
X30579534Y-63567103D01*
X30554548Y-63597548D01*
X30524103Y-63622534D01*
X30489367Y-63641101D01*
X30451674Y-63652535D01*
X30406339Y-63657000D01*
X29569661Y-63657000D01*
X29524326Y-63652535D01*
X29486633Y-63641101D01*
X29451897Y-63622534D01*
X29421452Y-63597548D01*
X29396466Y-63567103D01*
X29377899Y-63532367D01*
X29366465Y-63494674D01*
X29362000Y-63449339D01*
X29362000Y-62362661D01*
X29366465Y-62317326D01*
X29377899Y-62279633D01*
X29396466Y-62244897D01*
X29421452Y-62214452D01*
X29451897Y-62189466D01*
X29486633Y-62170899D01*
X29524326Y-62159465D01*
X29569661Y-62155000D01*
X30406339Y-62155000D01*
X30451674Y-62159465D01*
G37*
G36*
X47553512Y-61273927D02*
G01*
X47702812Y-61303624D01*
X47866784Y-61371544D01*
X48014354Y-61470147D01*
X48139853Y-61595646D01*
X48238456Y-61743216D01*
X48306376Y-61907188D01*
X48341000Y-62081259D01*
X48341000Y-62258741D01*
X48306376Y-62432812D01*
X48238456Y-62596784D01*
X48139853Y-62744354D01*
X48014354Y-62869853D01*
X47866784Y-62968456D01*
X47702812Y-63036376D01*
X47553512Y-63066073D01*
X47528742Y-63071000D01*
X47351258Y-63071000D01*
X47326488Y-63066073D01*
X47177188Y-63036376D01*
X47013216Y-62968456D01*
X46865646Y-62869853D01*
X46740147Y-62744354D01*
X46641544Y-62596784D01*
X46573624Y-62432812D01*
X46539000Y-62258741D01*
X46539000Y-62081259D01*
X46573624Y-61907188D01*
X46641544Y-61743216D01*
X46740147Y-61595646D01*
X46865646Y-61470147D01*
X47013216Y-61371544D01*
X47177188Y-61303624D01*
X47326488Y-61273927D01*
X47351258Y-61269000D01*
X47528742Y-61269000D01*
X47553512Y-61273927D01*
G37*
G36*
X26413512Y-61233927D02*
G01*
X26562812Y-61263624D01*
X26726784Y-61331544D01*
X26874354Y-61430147D01*
X26999853Y-61555646D01*
X27098456Y-61703216D01*
X27166376Y-61867188D01*
X27201000Y-62041259D01*
X27201000Y-62218741D01*
X27166376Y-62392812D01*
X27098456Y-62556784D01*
X26999853Y-62704354D01*
X26874354Y-62829853D01*
X26726784Y-62928456D01*
X26562812Y-62996376D01*
X26413512Y-63026073D01*
X26388742Y-63031000D01*
X26211258Y-63031000D01*
X26186488Y-63026073D01*
X26037188Y-62996376D01*
X25873216Y-62928456D01*
X25725646Y-62829853D01*
X25600147Y-62704354D01*
X25501544Y-62556784D01*
X25433624Y-62392812D01*
X25399000Y-62218741D01*
X25399000Y-62041259D01*
X25433624Y-61867188D01*
X25501544Y-61703216D01*
X25600147Y-61555646D01*
X25725646Y-61430147D01*
X25873216Y-61331544D01*
X26037188Y-61263624D01*
X26186488Y-61233927D01*
X26211258Y-61229000D01*
X26388742Y-61229000D01*
X26413512Y-61233927D01*
G37*
G36*
X32630500Y-60930000D02*
G01*
X31468500Y-60930000D01*
X31468500Y-60178000D01*
X32630500Y-60178000D01*
X32630500Y-60930000D01*
G37*
G36*
X30430500Y-60930000D02*
G01*
X29268500Y-60930000D01*
X29268500Y-58278000D01*
X30430500Y-58278000D01*
X30430500Y-60930000D01*
G37*
G36*
X48341000Y-60531000D02*
G01*
X46539000Y-60531000D01*
X46539000Y-58729000D01*
X48341000Y-58729000D01*
X48341000Y-60531000D01*
G37*
G36*
X27201000Y-60491000D02*
G01*
X25399000Y-60491000D01*
X25399000Y-58689000D01*
X27201000Y-58689000D01*
X27201000Y-60491000D01*
G37*
G36*
X53366000Y-59731000D02*
G01*
X50764000Y-59731000D01*
X50764000Y-56429000D01*
X53366000Y-56429000D01*
X53366000Y-59731000D01*
G37*
G36*
X15646564Y-57419389D02*
G01*
X15837833Y-57498615D01*
X15837835Y-57498616D01*
X15938338Y-57565770D01*
X16009973Y-57613635D01*
X16156365Y-57760027D01*
X16271385Y-57932167D01*
X16350611Y-58123436D01*
X16391000Y-58326484D01*
X16391000Y-58533516D01*
X16350611Y-58736564D01*
X16271385Y-58927833D01*
X16271384Y-58927835D01*
X16156365Y-59099973D01*
X16009973Y-59246365D01*
X15837835Y-59361384D01*
X15837834Y-59361385D01*
X15837833Y-59361385D01*
X15646564Y-59440611D01*
X15443516Y-59481000D01*
X15236484Y-59481000D01*
X15033436Y-59440611D01*
X14842167Y-59361385D01*
X14842166Y-59361385D01*
X14842165Y-59361384D01*
X14670027Y-59246365D01*
X14523635Y-59099973D01*
X14408616Y-58927835D01*
X14408615Y-58927833D01*
X14329389Y-58736564D01*
X14289000Y-58533516D01*
X14289000Y-58326484D01*
X14329389Y-58123436D01*
X14408615Y-57932167D01*
X14523635Y-57760027D01*
X14670027Y-57613635D01*
X14741662Y-57565770D01*
X14842165Y-57498616D01*
X14842167Y-57498615D01*
X15033436Y-57419389D01*
X15236484Y-57379000D01*
X15443516Y-57379000D01*
X15646564Y-57419389D01*
G37*
G36*
X63646564Y-57419389D02*
G01*
X63837833Y-57498615D01*
X63837835Y-57498616D01*
X63938338Y-57565770D01*
X64009973Y-57613635D01*
X64156365Y-57760027D01*
X64271385Y-57932167D01*
X64350611Y-58123436D01*
X64391000Y-58326484D01*
X64391000Y-58533516D01*
X64350611Y-58736564D01*
X64271385Y-58927833D01*
X64271384Y-58927835D01*
X64156365Y-59099973D01*
X64009973Y-59246365D01*
X63837835Y-59361384D01*
X63837834Y-59361385D01*
X63837833Y-59361385D01*
X63646564Y-59440611D01*
X63443516Y-59481000D01*
X63236484Y-59481000D01*
X63033436Y-59440611D01*
X62842167Y-59361385D01*
X62842166Y-59361385D01*
X62842165Y-59361384D01*
X62670027Y-59246365D01*
X62523635Y-59099973D01*
X62408616Y-58927835D01*
X62408615Y-58927833D01*
X62329389Y-58736564D01*
X62289000Y-58533516D01*
X62289000Y-58326484D01*
X62329389Y-58123436D01*
X62408615Y-57932167D01*
X62523635Y-57760027D01*
X62670027Y-57613635D01*
X62741662Y-57565770D01*
X62842165Y-57498616D01*
X62842167Y-57498615D01*
X63033436Y-57419389D01*
X63236484Y-57379000D01*
X63443516Y-57379000D01*
X63646564Y-57419389D01*
G37*
G36*
X22146564Y-57419389D02*
G01*
X22337833Y-57498615D01*
X22337835Y-57498616D01*
X22438338Y-57565770D01*
X22509973Y-57613635D01*
X22656365Y-57760027D01*
X22771385Y-57932167D01*
X22850611Y-58123436D01*
X22891000Y-58326484D01*
X22891000Y-58533516D01*
X22850611Y-58736564D01*
X22771385Y-58927833D01*
X22771384Y-58927835D01*
X22656365Y-59099973D01*
X22509973Y-59246365D01*
X22337835Y-59361384D01*
X22337834Y-59361385D01*
X22337833Y-59361385D01*
X22146564Y-59440611D01*
X21943516Y-59481000D01*
X21736484Y-59481000D01*
X21533436Y-59440611D01*
X21342167Y-59361385D01*
X21342166Y-59361385D01*
X21342165Y-59361384D01*
X21170027Y-59246365D01*
X21023635Y-59099973D01*
X20908616Y-58927835D01*
X20908615Y-58927833D01*
X20829389Y-58736564D01*
X20789000Y-58533516D01*
X20789000Y-58326484D01*
X20829389Y-58123436D01*
X20908615Y-57932167D01*
X21023635Y-57760027D01*
X21170027Y-57613635D01*
X21241662Y-57565770D01*
X21342165Y-57498616D01*
X21342167Y-57498615D01*
X21533436Y-57419389D01*
X21736484Y-57379000D01*
X21943516Y-57379000D01*
X22146564Y-57419389D01*
G37*
G36*
X57146564Y-57419389D02*
G01*
X57337833Y-57498615D01*
X57337835Y-57498616D01*
X57438338Y-57565770D01*
X57509973Y-57613635D01*
X57656365Y-57760027D01*
X57771385Y-57932167D01*
X57850611Y-58123436D01*
X57891000Y-58326484D01*
X57891000Y-58533516D01*
X57850611Y-58736564D01*
X57771385Y-58927833D01*
X57771384Y-58927835D01*
X57656365Y-59099973D01*
X57509973Y-59246365D01*
X57337835Y-59361384D01*
X57337834Y-59361385D01*
X57337833Y-59361385D01*
X57146564Y-59440611D01*
X56943516Y-59481000D01*
X56736484Y-59481000D01*
X56533436Y-59440611D01*
X56342167Y-59361385D01*
X56342166Y-59361385D01*
X56342165Y-59361384D01*
X56170027Y-59246365D01*
X56023635Y-59099973D01*
X55908616Y-58927835D01*
X55908615Y-58927833D01*
X55829389Y-58736564D01*
X55789000Y-58533516D01*
X55789000Y-58326484D01*
X55829389Y-58123436D01*
X55908615Y-57932167D01*
X56023635Y-57760027D01*
X56170027Y-57613635D01*
X56241662Y-57565770D01*
X56342165Y-57498616D01*
X56342167Y-57498615D01*
X56533436Y-57419389D01*
X56736484Y-57379000D01*
X56943516Y-57379000D01*
X57146564Y-57419389D01*
G37*
G36*
X32630500Y-59030000D02*
G01*
X31468500Y-59030000D01*
X31468500Y-58278000D01*
X32630500Y-58278000D01*
X32630500Y-59030000D01*
G37*
G36*
X25742674Y-56073465D02*
G01*
X25780367Y-56084899D01*
X25815103Y-56103466D01*
X25845548Y-56128452D01*
X25870534Y-56158897D01*
X25889101Y-56193633D01*
X25900535Y-56231326D01*
X25905000Y-56276661D01*
X25905000Y-57363339D01*
X25900535Y-57408674D01*
X25889101Y-57446367D01*
X25870534Y-57481103D01*
X25845548Y-57511548D01*
X25815103Y-57536534D01*
X25780367Y-57555101D01*
X25742674Y-57566535D01*
X25697339Y-57571000D01*
X24860661Y-57571000D01*
X24815326Y-57566535D01*
X24777633Y-57555101D01*
X24742897Y-57536534D01*
X24712452Y-57511548D01*
X24687466Y-57481103D01*
X24668899Y-57446367D01*
X24657465Y-57408674D01*
X24653000Y-57363339D01*
X24653000Y-56276661D01*
X24657465Y-56231326D01*
X24668899Y-56193633D01*
X24687466Y-56158897D01*
X24712452Y-56128452D01*
X24742897Y-56103466D01*
X24777633Y-56084899D01*
X24815326Y-56073465D01*
X24860661Y-56069000D01*
X25697339Y-56069000D01*
X25742674Y-56073465D01*
G37*
G36*
X27792674Y-56073465D02*
G01*
X27830367Y-56084899D01*
X27865103Y-56103466D01*
X27895548Y-56128452D01*
X27920534Y-56158897D01*
X27939101Y-56193633D01*
X27950535Y-56231326D01*
X27955000Y-56276661D01*
X27955000Y-57363339D01*
X27950535Y-57408674D01*
X27939101Y-57446367D01*
X27920534Y-57481103D01*
X27895548Y-57511548D01*
X27865103Y-57536534D01*
X27830367Y-57555101D01*
X27792674Y-57566535D01*
X27747339Y-57571000D01*
X26910661Y-57571000D01*
X26865326Y-57566535D01*
X26827633Y-57555101D01*
X26792897Y-57536534D01*
X26762452Y-57511548D01*
X26737466Y-57481103D01*
X26718899Y-57446367D01*
X26707465Y-57408674D01*
X26703000Y-57363339D01*
X26703000Y-56276661D01*
X26707465Y-56231326D01*
X26718899Y-56193633D01*
X26737466Y-56158897D01*
X26762452Y-56128452D01*
X26792897Y-56103466D01*
X26827633Y-56084899D01*
X26865326Y-56073465D01*
X26910661Y-56069000D01*
X27747339Y-56069000D01*
X27792674Y-56073465D01*
G37*
G36*
X37346564Y-55419389D02*
G01*
X37537833Y-55498615D01*
X37537835Y-55498616D01*
X37709973Y-55613635D01*
X37856365Y-55760027D01*
X37903025Y-55829858D01*
X37971385Y-55932167D01*
X38050611Y-56123436D01*
X38091000Y-56326484D01*
X38091000Y-56533516D01*
X38050611Y-56736564D01*
X37971385Y-56927833D01*
X37971384Y-56927835D01*
X37856365Y-57099973D01*
X37709973Y-57246365D01*
X37537835Y-57361384D01*
X37537834Y-57361385D01*
X37537833Y-57361385D01*
X37346564Y-57440611D01*
X37143516Y-57481000D01*
X36936484Y-57481000D01*
X36733436Y-57440611D01*
X36542167Y-57361385D01*
X36542166Y-57361385D01*
X36542165Y-57361384D01*
X36370027Y-57246365D01*
X36223635Y-57099973D01*
X36108616Y-56927835D01*
X36108615Y-56927833D01*
X36029389Y-56736564D01*
X35989000Y-56533516D01*
X35989000Y-56326484D01*
X36029389Y-56123436D01*
X36108615Y-55932167D01*
X36176976Y-55829858D01*
X36223635Y-55760027D01*
X36370027Y-55613635D01*
X36542165Y-55498616D01*
X36542167Y-55498615D01*
X36733436Y-55419389D01*
X36936484Y-55379000D01*
X37143516Y-55379000D01*
X37346564Y-55419389D01*
G37*
G36*
X41846564Y-55419389D02*
G01*
X42037833Y-55498615D01*
X42037835Y-55498616D01*
X42209973Y-55613635D01*
X42356365Y-55760027D01*
X42403025Y-55829858D01*
X42471385Y-55932167D01*
X42550611Y-56123436D01*
X42591000Y-56326484D01*
X42591000Y-56533516D01*
X42550611Y-56736564D01*
X42471385Y-56927833D01*
X42471384Y-56927835D01*
X42356365Y-57099973D01*
X42209973Y-57246365D01*
X42037835Y-57361384D01*
X42037834Y-57361385D01*
X42037833Y-57361385D01*
X41846564Y-57440611D01*
X41643516Y-57481000D01*
X41436484Y-57481000D01*
X41233436Y-57440611D01*
X41042167Y-57361385D01*
X41042166Y-57361385D01*
X41042165Y-57361384D01*
X40870027Y-57246365D01*
X40723635Y-57099973D01*
X40608616Y-56927835D01*
X40608615Y-56927833D01*
X40529389Y-56736564D01*
X40489000Y-56533516D01*
X40489000Y-56326484D01*
X40529389Y-56123436D01*
X40608615Y-55932167D01*
X40676976Y-55829858D01*
X40723635Y-55760027D01*
X40870027Y-55613635D01*
X41042165Y-55498616D01*
X41042167Y-55498615D01*
X41233436Y-55419389D01*
X41436484Y-55379000D01*
X41643516Y-55379000D01*
X41846564Y-55419389D01*
G37*
G36*
X32918674Y-55047465D02*
G01*
X32956367Y-55058899D01*
X32991103Y-55077466D01*
X33021548Y-55102452D01*
X33046534Y-55132897D01*
X33065101Y-55167633D01*
X33076535Y-55205326D01*
X33081000Y-55250661D01*
X33081000Y-56337339D01*
X33076535Y-56382674D01*
X33065101Y-56420367D01*
X33046534Y-56455103D01*
X33021548Y-56485548D01*
X32991103Y-56510534D01*
X32956367Y-56529101D01*
X32918674Y-56540535D01*
X32873339Y-56545000D01*
X32036661Y-56545000D01*
X31991326Y-56540535D01*
X31953633Y-56529101D01*
X31918897Y-56510534D01*
X31888452Y-56485548D01*
X31863466Y-56455103D01*
X31844899Y-56420367D01*
X31833465Y-56382674D01*
X31829000Y-56337339D01*
X31829000Y-55250661D01*
X31833465Y-55205326D01*
X31844899Y-55167633D01*
X31863466Y-55132897D01*
X31888452Y-55102452D01*
X31918897Y-55077466D01*
X31953633Y-55058899D01*
X31991326Y-55047465D01*
X32036661Y-55043000D01*
X32873339Y-55043000D01*
X32918674Y-55047465D01*
G37*
G36*
X34968674Y-55047465D02*
G01*
X35006367Y-55058899D01*
X35041103Y-55077466D01*
X35071548Y-55102452D01*
X35096534Y-55132897D01*
X35115101Y-55167633D01*
X35126535Y-55205326D01*
X35131000Y-55250661D01*
X35131000Y-56337339D01*
X35126535Y-56382674D01*
X35115101Y-56420367D01*
X35096534Y-56455103D01*
X35071548Y-56485548D01*
X35041103Y-56510534D01*
X35006367Y-56529101D01*
X34968674Y-56540535D01*
X34923339Y-56545000D01*
X34086661Y-56545000D01*
X34041326Y-56540535D01*
X34003633Y-56529101D01*
X33968897Y-56510534D01*
X33938452Y-56485548D01*
X33913466Y-56455103D01*
X33894899Y-56420367D01*
X33883465Y-56382674D01*
X33879000Y-56337339D01*
X33879000Y-55250661D01*
X33883465Y-55205326D01*
X33894899Y-55167633D01*
X33913466Y-55132897D01*
X33938452Y-55102452D01*
X33968897Y-55077466D01*
X34003633Y-55058899D01*
X34041326Y-55047465D01*
X34086661Y-55043000D01*
X34923339Y-55043000D01*
X34968674Y-55047465D01*
G37*
G36*
X46699999Y-54529737D02*
G01*
X46714528Y-54534145D01*
X46727711Y-54539606D01*
X46751745Y-54544388D01*
X46776249Y-54544389D01*
X46800282Y-54539609D01*
X46822921Y-54530232D01*
X46824765Y-54529000D01*
X48056050Y-54529000D01*
X48068164Y-54535475D01*
X48091613Y-54542588D01*
X48115999Y-54544990D01*
X48140385Y-54542588D01*
X48163834Y-54535475D01*
X48168746Y-54533152D01*
X48180001Y-54529737D01*
X48196140Y-54528148D01*
X48733861Y-54528148D01*
X48752199Y-54529954D01*
X48764450Y-54530556D01*
X48782869Y-54530556D01*
X48805149Y-54532750D01*
X48889233Y-54549476D01*
X48910660Y-54555976D01*
X48989858Y-54588780D01*
X48995303Y-54591691D01*
X48995309Y-54591693D01*
X49004169Y-54596429D01*
X49004173Y-54596432D01*
X49009614Y-54599340D01*
X49080899Y-54646971D01*
X49098204Y-54661172D01*
X49158828Y-54721796D01*
X49173029Y-54739101D01*
X49220660Y-54810386D01*
X49223568Y-54815827D01*
X49223571Y-54815831D01*
X49228307Y-54824691D01*
X49228309Y-54824697D01*
X49231220Y-54830142D01*
X49264024Y-54909340D01*
X49270524Y-54930767D01*
X49287250Y-55014851D01*
X49289444Y-55037131D01*
X49289444Y-55055550D01*
X49290046Y-55067801D01*
X49291852Y-55086139D01*
X49291852Y-55573861D01*
X49290046Y-55592199D01*
X49289444Y-55604450D01*
X49289444Y-55622869D01*
X49287250Y-55645149D01*
X49270524Y-55729233D01*
X49264024Y-55750660D01*
X49231220Y-55829858D01*
X49228309Y-55835303D01*
X49228307Y-55835309D01*
X49223571Y-55844169D01*
X49223568Y-55844173D01*
X49220660Y-55849614D01*
X49173029Y-55920899D01*
X49158828Y-55938204D01*
X49098204Y-55998828D01*
X49080899Y-56013029D01*
X49009614Y-56060660D01*
X49004173Y-56063568D01*
X49004169Y-56063571D01*
X48995309Y-56068307D01*
X48995303Y-56068309D01*
X48989858Y-56071220D01*
X48910660Y-56104024D01*
X48889233Y-56110524D01*
X48805149Y-56127250D01*
X48782869Y-56129444D01*
X48764450Y-56129444D01*
X48752199Y-56130046D01*
X48733862Y-56131852D01*
X48196140Y-56131852D01*
X48180001Y-56130263D01*
X48165472Y-56125855D01*
X48152289Y-56120394D01*
X48128255Y-56115612D01*
X48103751Y-56115611D01*
X48079718Y-56120391D01*
X48057079Y-56129768D01*
X48055235Y-56131000D01*
X46823950Y-56131000D01*
X46811836Y-56124525D01*
X46788387Y-56117412D01*
X46764001Y-56115010D01*
X46739615Y-56117412D01*
X46716166Y-56124525D01*
X46711254Y-56126848D01*
X46699999Y-56130263D01*
X46683860Y-56131852D01*
X46146138Y-56131852D01*
X46127801Y-56130046D01*
X46115550Y-56129444D01*
X46097131Y-56129444D01*
X46074851Y-56127250D01*
X45990767Y-56110524D01*
X45969340Y-56104024D01*
X45890142Y-56071220D01*
X45884697Y-56068309D01*
X45884691Y-56068307D01*
X45875831Y-56063571D01*
X45875827Y-56063568D01*
X45870386Y-56060660D01*
X45799101Y-56013029D01*
X45781796Y-55998828D01*
X45721172Y-55938204D01*
X45706971Y-55920899D01*
X45659340Y-55849614D01*
X45656432Y-55844173D01*
X45656429Y-55844169D01*
X45651693Y-55835309D01*
X45651691Y-55835303D01*
X45648780Y-55829858D01*
X45615976Y-55750660D01*
X45609476Y-55729233D01*
X45592750Y-55645149D01*
X45590556Y-55622869D01*
X45590556Y-55604450D01*
X45589954Y-55592199D01*
X45588148Y-55573862D01*
X45588148Y-55086139D01*
X45589954Y-55067801D01*
X45590556Y-55055550D01*
X45590556Y-55037131D01*
X45592750Y-55014851D01*
X45609476Y-54930767D01*
X45615976Y-54909340D01*
X45648780Y-54830142D01*
X45651691Y-54824697D01*
X45651693Y-54824691D01*
X45656429Y-54815831D01*
X45656432Y-54815827D01*
X45659340Y-54810386D01*
X45706971Y-54739101D01*
X45721172Y-54721796D01*
X45781796Y-54661172D01*
X45799101Y-54646971D01*
X45870386Y-54599340D01*
X45875827Y-54596432D01*
X45875831Y-54596429D01*
X45884691Y-54591693D01*
X45884697Y-54591691D01*
X45890142Y-54588780D01*
X45969340Y-54555976D01*
X45990767Y-54549476D01*
X46074851Y-54532750D01*
X46097131Y-54530556D01*
X46115550Y-54530556D01*
X46127801Y-54529954D01*
X46146139Y-54528148D01*
X46683860Y-54528148D01*
X46699999Y-54529737D01*
G37*
G36*
X63998674Y-52173465D02*
G01*
X64036367Y-52184899D01*
X64071103Y-52203466D01*
X64101548Y-52228452D01*
X64126534Y-52258897D01*
X64145101Y-52293633D01*
X64156535Y-52331326D01*
X64161000Y-52376661D01*
X64161000Y-53463339D01*
X64156535Y-53508674D01*
X64145101Y-53546367D01*
X64126534Y-53581103D01*
X64101548Y-53611548D01*
X64071103Y-53636534D01*
X64036367Y-53655101D01*
X63998674Y-53666535D01*
X63953339Y-53671000D01*
X63116661Y-53671000D01*
X63071326Y-53666535D01*
X63033633Y-53655101D01*
X62998897Y-53636534D01*
X62968452Y-53611548D01*
X62943466Y-53581103D01*
X62924899Y-53546367D01*
X62913465Y-53508674D01*
X62909000Y-53463339D01*
X62909000Y-52376661D01*
X62913465Y-52331326D01*
X62924899Y-52293633D01*
X62943466Y-52258897D01*
X62968452Y-52228452D01*
X62998897Y-52203466D01*
X63033633Y-52184899D01*
X63071326Y-52173465D01*
X63116661Y-52169000D01*
X63953339Y-52169000D01*
X63998674Y-52173465D01*
G37*
G36*
X61948674Y-52173465D02*
G01*
X61986367Y-52184899D01*
X62021103Y-52203466D01*
X62051548Y-52228452D01*
X62076534Y-52258897D01*
X62095101Y-52293633D01*
X62106535Y-52331326D01*
X62111000Y-52376661D01*
X62111000Y-53463339D01*
X62106535Y-53508674D01*
X62095101Y-53546367D01*
X62076534Y-53581103D01*
X62051548Y-53611548D01*
X62021103Y-53636534D01*
X61986367Y-53655101D01*
X61948674Y-53666535D01*
X61903339Y-53671000D01*
X61066661Y-53671000D01*
X61021326Y-53666535D01*
X60983633Y-53655101D01*
X60948897Y-53636534D01*
X60918452Y-53611548D01*
X60893466Y-53581103D01*
X60874899Y-53546367D01*
X60863465Y-53508674D01*
X60859000Y-53463339D01*
X60859000Y-52376661D01*
X60863465Y-52331326D01*
X60874899Y-52293633D01*
X60893466Y-52258897D01*
X60918452Y-52228452D01*
X60948897Y-52203466D01*
X60983633Y-52184899D01*
X61021326Y-52173465D01*
X61066661Y-52169000D01*
X61903339Y-52169000D01*
X61948674Y-52173465D01*
G37*
G36*
X53028674Y-51283465D02*
G01*
X53066367Y-51294899D01*
X53101103Y-51313466D01*
X53131548Y-51338452D01*
X53156534Y-51368897D01*
X53175101Y-51403633D01*
X53186535Y-51441326D01*
X53191000Y-51486661D01*
X53191000Y-52573339D01*
X53186535Y-52618674D01*
X53175101Y-52656367D01*
X53156534Y-52691103D01*
X53131548Y-52721548D01*
X53101103Y-52746534D01*
X53066367Y-52765101D01*
X53028674Y-52776535D01*
X52983339Y-52781000D01*
X52146661Y-52781000D01*
X52101326Y-52776535D01*
X52063633Y-52765101D01*
X52028897Y-52746534D01*
X51998452Y-52721548D01*
X51973466Y-52691103D01*
X51954899Y-52656367D01*
X51943465Y-52618674D01*
X51939000Y-52573339D01*
X51939000Y-51486661D01*
X51943465Y-51441326D01*
X51954899Y-51403633D01*
X51973466Y-51368897D01*
X51998452Y-51338452D01*
X52028897Y-51313466D01*
X52063633Y-51294899D01*
X52101326Y-51283465D01*
X52146661Y-51279000D01*
X52983339Y-51279000D01*
X53028674Y-51283465D01*
G37*
G36*
X50978674Y-51283465D02*
G01*
X51016367Y-51294899D01*
X51051103Y-51313466D01*
X51081548Y-51338452D01*
X51106534Y-51368897D01*
X51125101Y-51403633D01*
X51136535Y-51441326D01*
X51141000Y-51486661D01*
X51141000Y-52573339D01*
X51136535Y-52618674D01*
X51125101Y-52656367D01*
X51106534Y-52691103D01*
X51081548Y-52721548D01*
X51051103Y-52746534D01*
X51016367Y-52765101D01*
X50978674Y-52776535D01*
X50933339Y-52781000D01*
X50096661Y-52781000D01*
X50051326Y-52776535D01*
X50013633Y-52765101D01*
X49978897Y-52746534D01*
X49948452Y-52721548D01*
X49923466Y-52691103D01*
X49904899Y-52656367D01*
X49893465Y-52618674D01*
X49889000Y-52573339D01*
X49889000Y-51486661D01*
X49893465Y-51441326D01*
X49904899Y-51403633D01*
X49923466Y-51368897D01*
X49948452Y-51338452D01*
X49978897Y-51313466D01*
X50013633Y-51294899D01*
X50051326Y-51283465D01*
X50096661Y-51279000D01*
X50933339Y-51279000D01*
X50978674Y-51283465D01*
G37*
G36*
X16153512Y-50333927D02*
G01*
X16302812Y-50363624D01*
X16466784Y-50431544D01*
X16614354Y-50530147D01*
X16739853Y-50655646D01*
X16838456Y-50803216D01*
X16906376Y-50967188D01*
X16941000Y-51141259D01*
X16941000Y-51318741D01*
X16906376Y-51492812D01*
X16838456Y-51656784D01*
X16739853Y-51804354D01*
X16614354Y-51929853D01*
X16466784Y-52028456D01*
X16302812Y-52096376D01*
X16153512Y-52126073D01*
X16128742Y-52131000D01*
X15951258Y-52131000D01*
X15926488Y-52126073D01*
X15777188Y-52096376D01*
X15613216Y-52028456D01*
X15465646Y-51929853D01*
X15340147Y-51804354D01*
X15241544Y-51656784D01*
X15173624Y-51492812D01*
X15139000Y-51318741D01*
X15139000Y-51141259D01*
X15173624Y-50967188D01*
X15241544Y-50803216D01*
X15340147Y-50655646D01*
X15465646Y-50530147D01*
X15613216Y-50431544D01*
X15777188Y-50363624D01*
X15926488Y-50333927D01*
X15951258Y-50329000D01*
X16128742Y-50329000D01*
X16153512Y-50333927D01*
G37*
G36*
X18693512Y-50333927D02*
G01*
X18842812Y-50363624D01*
X19006784Y-50431544D01*
X19154354Y-50530147D01*
X19279853Y-50655646D01*
X19378456Y-50803216D01*
X19446376Y-50967188D01*
X19481000Y-51141259D01*
X19481000Y-51318741D01*
X19446376Y-51492812D01*
X19378456Y-51656784D01*
X19279853Y-51804354D01*
X19154354Y-51929853D01*
X19006784Y-52028456D01*
X18842812Y-52096376D01*
X18693512Y-52126073D01*
X18668742Y-52131000D01*
X18491258Y-52131000D01*
X18466488Y-52126073D01*
X18317188Y-52096376D01*
X18153216Y-52028456D01*
X18005646Y-51929853D01*
X17880147Y-51804354D01*
X17781544Y-51656784D01*
X17713624Y-51492812D01*
X17679000Y-51318741D01*
X17679000Y-51141259D01*
X17713624Y-50967188D01*
X17781544Y-50803216D01*
X17880147Y-50655646D01*
X18005646Y-50530147D01*
X18153216Y-50431544D01*
X18317188Y-50363624D01*
X18466488Y-50333927D01*
X18491258Y-50329000D01*
X18668742Y-50329000D01*
X18693512Y-50333927D01*
G37*
G36*
X21233512Y-50333927D02*
G01*
X21382812Y-50363624D01*
X21546784Y-50431544D01*
X21694354Y-50530147D01*
X21819853Y-50655646D01*
X21918456Y-50803216D01*
X21986376Y-50967188D01*
X22021000Y-51141259D01*
X22021000Y-51318741D01*
X21986376Y-51492812D01*
X21918456Y-51656784D01*
X21819853Y-51804354D01*
X21694354Y-51929853D01*
X21546784Y-52028456D01*
X21382812Y-52096376D01*
X21233512Y-52126073D01*
X21208742Y-52131000D01*
X21031258Y-52131000D01*
X21006488Y-52126073D01*
X20857188Y-52096376D01*
X20693216Y-52028456D01*
X20545646Y-51929853D01*
X20420147Y-51804354D01*
X20321544Y-51656784D01*
X20253624Y-51492812D01*
X20219000Y-51318741D01*
X20219000Y-51141259D01*
X20253624Y-50967188D01*
X20321544Y-50803216D01*
X20420147Y-50655646D01*
X20545646Y-50530147D01*
X20693216Y-50431544D01*
X20857188Y-50363624D01*
X21006488Y-50333927D01*
X21031258Y-50329000D01*
X21208742Y-50329000D01*
X21233512Y-50333927D01*
G37*
G36*
X23773512Y-50333927D02*
G01*
X23922812Y-50363624D01*
X24086784Y-50431544D01*
X24234354Y-50530147D01*
X24359853Y-50655646D01*
X24458456Y-50803216D01*
X24526376Y-50967188D01*
X24561000Y-51141259D01*
X24561000Y-51318741D01*
X24526376Y-51492812D01*
X24458456Y-51656784D01*
X24359853Y-51804354D01*
X24234354Y-51929853D01*
X24086784Y-52028456D01*
X23922812Y-52096376D01*
X23773512Y-52126073D01*
X23748742Y-52131000D01*
X23571258Y-52131000D01*
X23546488Y-52126073D01*
X23397188Y-52096376D01*
X23233216Y-52028456D01*
X23085646Y-51929853D01*
X22960147Y-51804354D01*
X22861544Y-51656784D01*
X22793624Y-51492812D01*
X22759000Y-51318741D01*
X22759000Y-51141259D01*
X22793624Y-50967188D01*
X22861544Y-50803216D01*
X22960147Y-50655646D01*
X23085646Y-50530147D01*
X23233216Y-50431544D01*
X23397188Y-50363624D01*
X23546488Y-50333927D01*
X23571258Y-50329000D01*
X23748742Y-50329000D01*
X23773512Y-50333927D01*
G37*
G36*
X26313512Y-50333927D02*
G01*
X26462812Y-50363624D01*
X26626784Y-50431544D01*
X26774354Y-50530147D01*
X26899853Y-50655646D01*
X26998456Y-50803216D01*
X27066376Y-50967188D01*
X27101000Y-51141259D01*
X27101000Y-51318741D01*
X27066376Y-51492812D01*
X26998456Y-51656784D01*
X26899853Y-51804354D01*
X26774354Y-51929853D01*
X26626784Y-52028456D01*
X26462812Y-52096376D01*
X26313512Y-52126073D01*
X26288742Y-52131000D01*
X26111258Y-52131000D01*
X26086488Y-52126073D01*
X25937188Y-52096376D01*
X25773216Y-52028456D01*
X25625646Y-51929853D01*
X25500147Y-51804354D01*
X25401544Y-51656784D01*
X25333624Y-51492812D01*
X25299000Y-51318741D01*
X25299000Y-51141259D01*
X25333624Y-50967188D01*
X25401544Y-50803216D01*
X25500147Y-50655646D01*
X25625646Y-50530147D01*
X25773216Y-50431544D01*
X25937188Y-50363624D01*
X26086488Y-50333927D01*
X26111258Y-50329000D01*
X26288742Y-50329000D01*
X26313512Y-50333927D01*
G37*
G36*
X29641000Y-52131000D02*
G01*
X27839000Y-52131000D01*
X27839000Y-50329000D01*
X29641000Y-50329000D01*
X29641000Y-52131000D01*
G37*
G36*
X37678674Y-50183465D02*
G01*
X37716367Y-50194899D01*
X37751103Y-50213466D01*
X37781548Y-50238452D01*
X37806534Y-50268897D01*
X37825101Y-50303633D01*
X37836535Y-50341326D01*
X37841000Y-50386661D01*
X37841000Y-51473339D01*
X37836535Y-51518674D01*
X37825101Y-51556367D01*
X37806534Y-51591103D01*
X37781548Y-51621548D01*
X37751103Y-51646534D01*
X37716367Y-51665101D01*
X37678674Y-51676535D01*
X37633339Y-51681000D01*
X36796661Y-51681000D01*
X36751326Y-51676535D01*
X36713633Y-51665101D01*
X36678897Y-51646534D01*
X36648452Y-51621548D01*
X36623466Y-51591103D01*
X36604899Y-51556367D01*
X36593465Y-51518674D01*
X36589000Y-51473339D01*
X36589000Y-50386661D01*
X36593465Y-50341326D01*
X36604899Y-50303633D01*
X36623466Y-50268897D01*
X36648452Y-50238452D01*
X36678897Y-50213466D01*
X36713633Y-50194899D01*
X36751326Y-50183465D01*
X36796661Y-50179000D01*
X37633339Y-50179000D01*
X37678674Y-50183465D01*
G37*
G36*
X39728674Y-50183465D02*
G01*
X39766367Y-50194899D01*
X39801103Y-50213466D01*
X39831548Y-50238452D01*
X39856534Y-50268897D01*
X39875101Y-50303633D01*
X39886535Y-50341326D01*
X39891000Y-50386661D01*
X39891000Y-51473339D01*
X39886535Y-51518674D01*
X39875101Y-51556367D01*
X39856534Y-51591103D01*
X39831548Y-51621548D01*
X39801103Y-51646534D01*
X39766367Y-51665101D01*
X39728674Y-51676535D01*
X39683339Y-51681000D01*
X38846661Y-51681000D01*
X38801326Y-51676535D01*
X38763633Y-51665101D01*
X38728897Y-51646534D01*
X38698452Y-51621548D01*
X38673466Y-51591103D01*
X38654899Y-51556367D01*
X38643465Y-51518674D01*
X38639000Y-51473339D01*
X38639000Y-50386661D01*
X38643465Y-50341326D01*
X38654899Y-50303633D01*
X38673466Y-50268897D01*
X38698452Y-50238452D01*
X38728897Y-50213466D01*
X38763633Y-50194899D01*
X38801326Y-50183465D01*
X38846661Y-50179000D01*
X39683339Y-50179000D01*
X39728674Y-50183465D01*
G37*
G36*
X61941000Y-51155000D02*
G01*
X61039000Y-51155000D01*
X61039000Y-50153000D01*
X61941000Y-50153000D01*
X61941000Y-51155000D01*
G37*
G36*
X63841000Y-51155000D02*
G01*
X62939000Y-51155000D01*
X62939000Y-50153000D01*
X63841000Y-50153000D01*
X63841000Y-51155000D01*
G37*
G36*
X46628674Y-49583465D02*
G01*
X46666367Y-49594899D01*
X46701103Y-49613466D01*
X46731548Y-49638452D01*
X46756534Y-49668897D01*
X46775101Y-49703633D01*
X46786535Y-49741326D01*
X46791000Y-49786661D01*
X46791000Y-50873339D01*
X46786535Y-50918674D01*
X46775101Y-50956367D01*
X46756534Y-50991103D01*
X46731548Y-51021548D01*
X46701103Y-51046534D01*
X46666367Y-51065101D01*
X46628674Y-51076535D01*
X46583339Y-51081000D01*
X45746661Y-51081000D01*
X45701326Y-51076535D01*
X45663633Y-51065101D01*
X45628897Y-51046534D01*
X45598452Y-51021548D01*
X45573466Y-50991103D01*
X45554899Y-50956367D01*
X45543465Y-50918674D01*
X45539000Y-50873339D01*
X45539000Y-49786661D01*
X45543465Y-49741326D01*
X45554899Y-49703633D01*
X45573466Y-49668897D01*
X45598452Y-49638452D01*
X45628897Y-49613466D01*
X45663633Y-49594899D01*
X45701326Y-49583465D01*
X45746661Y-49579000D01*
X46583339Y-49579000D01*
X46628674Y-49583465D01*
G37*
G36*
X44578674Y-49583465D02*
G01*
X44616367Y-49594899D01*
X44651103Y-49613466D01*
X44681548Y-49638452D01*
X44706534Y-49668897D01*
X44725101Y-49703633D01*
X44736535Y-49741326D01*
X44741000Y-49786661D01*
X44741000Y-50873339D01*
X44736535Y-50918674D01*
X44725101Y-50956367D01*
X44706534Y-50991103D01*
X44681548Y-51021548D01*
X44651103Y-51046534D01*
X44616367Y-51065101D01*
X44578674Y-51076535D01*
X44533339Y-51081000D01*
X43696661Y-51081000D01*
X43651326Y-51076535D01*
X43613633Y-51065101D01*
X43578897Y-51046534D01*
X43548452Y-51021548D01*
X43523466Y-50991103D01*
X43504899Y-50956367D01*
X43493465Y-50918674D01*
X43489000Y-50873339D01*
X43489000Y-49786661D01*
X43493465Y-49741326D01*
X43504899Y-49703633D01*
X43523466Y-49668897D01*
X43548452Y-49638452D01*
X43578897Y-49613466D01*
X43613633Y-49594899D01*
X43651326Y-49583465D01*
X43696661Y-49579000D01*
X44533339Y-49579000D01*
X44578674Y-49583465D01*
G37*
G36*
X50968674Y-49323465D02*
G01*
X51006367Y-49334899D01*
X51041103Y-49353466D01*
X51071548Y-49378452D01*
X51096534Y-49408897D01*
X51115101Y-49443633D01*
X51126535Y-49481326D01*
X51131000Y-49526661D01*
X51131000Y-50613339D01*
X51126535Y-50658674D01*
X51115101Y-50696367D01*
X51096534Y-50731103D01*
X51071548Y-50761548D01*
X51041103Y-50786534D01*
X51006367Y-50805101D01*
X50968674Y-50816535D01*
X50923339Y-50821000D01*
X50086661Y-50821000D01*
X50041326Y-50816535D01*
X50003633Y-50805101D01*
X49968897Y-50786534D01*
X49938452Y-50761548D01*
X49913466Y-50731103D01*
X49894899Y-50696367D01*
X49883465Y-50658674D01*
X49879000Y-50613339D01*
X49879000Y-49526661D01*
X49883465Y-49481326D01*
X49894899Y-49443633D01*
X49913466Y-49408897D01*
X49938452Y-49378452D01*
X49968897Y-49353466D01*
X50003633Y-49334899D01*
X50041326Y-49323465D01*
X50086661Y-49319000D01*
X50923339Y-49319000D01*
X50968674Y-49323465D01*
G37*
G36*
X53018674Y-49323465D02*
G01*
X53056367Y-49334899D01*
X53091103Y-49353466D01*
X53121548Y-49378452D01*
X53146534Y-49408897D01*
X53165101Y-49443633D01*
X53176535Y-49481326D01*
X53181000Y-49526661D01*
X53181000Y-50613339D01*
X53176535Y-50658674D01*
X53165101Y-50696367D01*
X53146534Y-50731103D01*
X53121548Y-50761548D01*
X53091103Y-50786534D01*
X53056367Y-50805101D01*
X53018674Y-50816535D01*
X52973339Y-50821000D01*
X52136661Y-50821000D01*
X52091326Y-50816535D01*
X52053633Y-50805101D01*
X52018897Y-50786534D01*
X51988452Y-50761548D01*
X51963466Y-50731103D01*
X51944899Y-50696367D01*
X51933465Y-50658674D01*
X51929000Y-50613339D01*
X51929000Y-49526661D01*
X51933465Y-49481326D01*
X51944899Y-49443633D01*
X51963466Y-49408897D01*
X51988452Y-49378452D01*
X52018897Y-49353466D01*
X52053633Y-49334899D01*
X52091326Y-49323465D01*
X52136661Y-49319000D01*
X52973339Y-49319000D01*
X53018674Y-49323465D01*
G37*
G36*
X37678674Y-47983465D02*
G01*
X37716367Y-47994899D01*
X37751103Y-48013466D01*
X37781548Y-48038452D01*
X37806534Y-48068897D01*
X37825101Y-48103633D01*
X37836535Y-48141326D01*
X37841000Y-48186661D01*
X37841000Y-49273339D01*
X37836535Y-49318674D01*
X37825101Y-49356367D01*
X37806534Y-49391103D01*
X37781548Y-49421548D01*
X37751103Y-49446534D01*
X37716367Y-49465101D01*
X37678674Y-49476535D01*
X37633339Y-49481000D01*
X36796661Y-49481000D01*
X36751326Y-49476535D01*
X36713633Y-49465101D01*
X36678897Y-49446534D01*
X36648452Y-49421548D01*
X36623466Y-49391103D01*
X36604899Y-49356367D01*
X36593465Y-49318674D01*
X36589000Y-49273339D01*
X36589000Y-48186661D01*
X36593465Y-48141326D01*
X36604899Y-48103633D01*
X36623466Y-48068897D01*
X36648452Y-48038452D01*
X36678897Y-48013466D01*
X36713633Y-47994899D01*
X36751326Y-47983465D01*
X36796661Y-47979000D01*
X37633339Y-47979000D01*
X37678674Y-47983465D01*
G37*
G36*
X39728674Y-47983465D02*
G01*
X39766367Y-47994899D01*
X39801103Y-48013466D01*
X39831548Y-48038452D01*
X39856534Y-48068897D01*
X39875101Y-48103633D01*
X39886535Y-48141326D01*
X39891000Y-48186661D01*
X39891000Y-49273339D01*
X39886535Y-49318674D01*
X39875101Y-49356367D01*
X39856534Y-49391103D01*
X39831548Y-49421548D01*
X39801103Y-49446534D01*
X39766367Y-49465101D01*
X39728674Y-49476535D01*
X39683339Y-49481000D01*
X38846661Y-49481000D01*
X38801326Y-49476535D01*
X38763633Y-49465101D01*
X38728897Y-49446534D01*
X38698452Y-49421548D01*
X38673466Y-49391103D01*
X38654899Y-49356367D01*
X38643465Y-49318674D01*
X38639000Y-49273339D01*
X38639000Y-48186661D01*
X38643465Y-48141326D01*
X38654899Y-48103633D01*
X38673466Y-48068897D01*
X38698452Y-48038452D01*
X38728897Y-48013466D01*
X38763633Y-47994899D01*
X38801326Y-47983465D01*
X38846661Y-47979000D01*
X39683339Y-47979000D01*
X39728674Y-47983465D01*
G37*
G36*
X16498674Y-47683465D02*
G01*
X16536367Y-47694899D01*
X16571103Y-47713466D01*
X16601548Y-47738452D01*
X16626534Y-47768897D01*
X16645101Y-47803633D01*
X16656535Y-47841326D01*
X16661000Y-47886661D01*
X16661000Y-48973339D01*
X16656535Y-49018674D01*
X16645101Y-49056367D01*
X16626534Y-49091103D01*
X16601548Y-49121548D01*
X16571103Y-49146534D01*
X16536367Y-49165101D01*
X16498674Y-49176535D01*
X16453339Y-49181000D01*
X15616661Y-49181000D01*
X15571326Y-49176535D01*
X15533633Y-49165101D01*
X15498897Y-49146534D01*
X15468452Y-49121548D01*
X15443466Y-49091103D01*
X15424899Y-49056367D01*
X15413465Y-49018674D01*
X15409000Y-48973339D01*
X15409000Y-47886661D01*
X15413465Y-47841326D01*
X15424899Y-47803633D01*
X15443466Y-47768897D01*
X15468452Y-47738452D01*
X15498897Y-47713466D01*
X15533633Y-47694899D01*
X15571326Y-47683465D01*
X15616661Y-47679000D01*
X16453339Y-47679000D01*
X16498674Y-47683465D01*
G37*
G36*
X18548674Y-47683465D02*
G01*
X18586367Y-47694899D01*
X18621103Y-47713466D01*
X18651548Y-47738452D01*
X18676534Y-47768897D01*
X18695101Y-47803633D01*
X18706535Y-47841326D01*
X18711000Y-47886661D01*
X18711000Y-48973339D01*
X18706535Y-49018674D01*
X18695101Y-49056367D01*
X18676534Y-49091103D01*
X18651548Y-49121548D01*
X18621103Y-49146534D01*
X18586367Y-49165101D01*
X18548674Y-49176535D01*
X18503339Y-49181000D01*
X17666661Y-49181000D01*
X17621326Y-49176535D01*
X17583633Y-49165101D01*
X17548897Y-49146534D01*
X17518452Y-49121548D01*
X17493466Y-49091103D01*
X17474899Y-49056367D01*
X17463465Y-49018674D01*
X17459000Y-48973339D01*
X17459000Y-47886661D01*
X17463465Y-47841326D01*
X17474899Y-47803633D01*
X17493466Y-47768897D01*
X17518452Y-47738452D01*
X17548897Y-47713466D01*
X17583633Y-47694899D01*
X17621326Y-47683465D01*
X17666661Y-47679000D01*
X18503339Y-47679000D01*
X18548674Y-47683465D01*
G37*
G36*
X62891000Y-49155000D02*
G01*
X61989000Y-49155000D01*
X61989000Y-48153000D01*
X62891000Y-48153000D01*
X62891000Y-49155000D01*
G37*
G36*
X46528674Y-46083465D02*
G01*
X46566367Y-46094899D01*
X46601103Y-46113466D01*
X46631548Y-46138452D01*
X46656534Y-46168897D01*
X46675101Y-46203633D01*
X46686535Y-46241326D01*
X46691000Y-46286661D01*
X46691000Y-47373339D01*
X46686535Y-47418674D01*
X46675101Y-47456367D01*
X46656534Y-47491103D01*
X46631548Y-47521548D01*
X46601103Y-47546534D01*
X46566367Y-47565101D01*
X46528674Y-47576535D01*
X46483339Y-47581000D01*
X45646661Y-47581000D01*
X45601326Y-47576535D01*
X45563633Y-47565101D01*
X45528897Y-47546534D01*
X45498452Y-47521548D01*
X45473466Y-47491103D01*
X45454899Y-47456367D01*
X45443465Y-47418674D01*
X45439000Y-47373339D01*
X45439000Y-46286661D01*
X45443465Y-46241326D01*
X45454899Y-46203633D01*
X45473466Y-46168897D01*
X45498452Y-46138452D01*
X45528897Y-46113466D01*
X45563633Y-46094899D01*
X45601326Y-46083465D01*
X45646661Y-46079000D01*
X46483339Y-46079000D01*
X46528674Y-46083465D01*
G37*
G36*
X44478674Y-46083465D02*
G01*
X44516367Y-46094899D01*
X44551103Y-46113466D01*
X44581548Y-46138452D01*
X44606534Y-46168897D01*
X44625101Y-46203633D01*
X44636535Y-46241326D01*
X44641000Y-46286661D01*
X44641000Y-47373339D01*
X44636535Y-47418674D01*
X44625101Y-47456367D01*
X44606534Y-47491103D01*
X44581548Y-47521548D01*
X44551103Y-47546534D01*
X44516367Y-47565101D01*
X44478674Y-47576535D01*
X44433339Y-47581000D01*
X43596661Y-47581000D01*
X43551326Y-47576535D01*
X43513633Y-47565101D01*
X43478897Y-47546534D01*
X43448452Y-47521548D01*
X43423466Y-47491103D01*
X43404899Y-47456367D01*
X43393465Y-47418674D01*
X43389000Y-47373339D01*
X43389000Y-46286661D01*
X43393465Y-46241326D01*
X43404899Y-46203633D01*
X43423466Y-46168897D01*
X43448452Y-46138452D01*
X43478897Y-46113466D01*
X43513633Y-46094899D01*
X43551326Y-46083465D01*
X43596661Y-46079000D01*
X44433339Y-46079000D01*
X44478674Y-46083465D01*
G37*
G36*
X37678674Y-45783465D02*
G01*
X37716367Y-45794899D01*
X37751103Y-45813466D01*
X37781548Y-45838452D01*
X37806534Y-45868897D01*
X37825101Y-45903633D01*
X37836535Y-45941326D01*
X37841000Y-45986661D01*
X37841000Y-47073339D01*
X37836535Y-47118674D01*
X37825101Y-47156367D01*
X37806534Y-47191103D01*
X37781548Y-47221548D01*
X37751103Y-47246534D01*
X37716367Y-47265101D01*
X37678674Y-47276535D01*
X37633339Y-47281000D01*
X36796661Y-47281000D01*
X36751326Y-47276535D01*
X36713633Y-47265101D01*
X36678897Y-47246534D01*
X36648452Y-47221548D01*
X36623466Y-47191103D01*
X36604899Y-47156367D01*
X36593465Y-47118674D01*
X36589000Y-47073339D01*
X36589000Y-45986661D01*
X36593465Y-45941326D01*
X36604899Y-45903633D01*
X36623466Y-45868897D01*
X36648452Y-45838452D01*
X36678897Y-45813466D01*
X36713633Y-45794899D01*
X36751326Y-45783465D01*
X36796661Y-45779000D01*
X37633339Y-45779000D01*
X37678674Y-45783465D01*
G37*
G36*
X39728674Y-45783465D02*
G01*
X39766367Y-45794899D01*
X39801103Y-45813466D01*
X39831548Y-45838452D01*
X39856534Y-45868897D01*
X39875101Y-45903633D01*
X39886535Y-45941326D01*
X39891000Y-45986661D01*
X39891000Y-47073339D01*
X39886535Y-47118674D01*
X39875101Y-47156367D01*
X39856534Y-47191103D01*
X39831548Y-47221548D01*
X39801103Y-47246534D01*
X39766367Y-47265101D01*
X39728674Y-47276535D01*
X39683339Y-47281000D01*
X38846661Y-47281000D01*
X38801326Y-47276535D01*
X38763633Y-47265101D01*
X38728897Y-47246534D01*
X38698452Y-47221548D01*
X38673466Y-47191103D01*
X38654899Y-47156367D01*
X38643465Y-47118674D01*
X38639000Y-47073339D01*
X38639000Y-45986661D01*
X38643465Y-45941326D01*
X38654899Y-45903633D01*
X38673466Y-45868897D01*
X38698452Y-45838452D01*
X38728897Y-45813466D01*
X38763633Y-45794899D01*
X38801326Y-45783465D01*
X38846661Y-45779000D01*
X39683339Y-45779000D01*
X39728674Y-45783465D01*
G37*
G36*
X48791000Y-47031000D02*
G01*
X47789000Y-47031000D01*
X47789000Y-45729000D01*
X48791000Y-45729000D01*
X48791000Y-47031000D01*
G37*
G36*
X52091000Y-47031000D02*
G01*
X51089000Y-47031000D01*
X51089000Y-45729000D01*
X52091000Y-45729000D01*
X52091000Y-47031000D01*
G37*
G36*
X59891000Y-46701000D02*
G01*
X56389000Y-46701000D01*
X56389000Y-45299000D01*
X59891000Y-45299000D01*
X59891000Y-46701000D01*
G37*
G36*
X39728674Y-43383465D02*
G01*
X39766367Y-43394899D01*
X39801103Y-43413466D01*
X39831548Y-43438452D01*
X39856534Y-43468897D01*
X39875101Y-43503633D01*
X39886535Y-43541326D01*
X39891000Y-43586661D01*
X39891000Y-44673339D01*
X39886535Y-44718674D01*
X39875101Y-44756367D01*
X39856534Y-44791103D01*
X39831548Y-44821548D01*
X39801103Y-44846534D01*
X39766367Y-44865101D01*
X39728674Y-44876535D01*
X39683339Y-44881000D01*
X38846661Y-44881000D01*
X38801326Y-44876535D01*
X38763633Y-44865101D01*
X38728897Y-44846534D01*
X38698452Y-44821548D01*
X38673466Y-44791103D01*
X38654899Y-44756367D01*
X38643465Y-44718674D01*
X38639000Y-44673339D01*
X38639000Y-43586661D01*
X38643465Y-43541326D01*
X38654899Y-43503633D01*
X38673466Y-43468897D01*
X38698452Y-43438452D01*
X38728897Y-43413466D01*
X38763633Y-43394899D01*
X38801326Y-43383465D01*
X38846661Y-43379000D01*
X39683339Y-43379000D01*
X39728674Y-43383465D01*
G37*
G36*
X37678674Y-43383465D02*
G01*
X37716367Y-43394899D01*
X37751103Y-43413466D01*
X37781548Y-43438452D01*
X37806534Y-43468897D01*
X37825101Y-43503633D01*
X37836535Y-43541326D01*
X37841000Y-43586661D01*
X37841000Y-44673339D01*
X37836535Y-44718674D01*
X37825101Y-44756367D01*
X37806534Y-44791103D01*
X37781548Y-44821548D01*
X37751103Y-44846534D01*
X37716367Y-44865101D01*
X37678674Y-44876535D01*
X37633339Y-44881000D01*
X36796661Y-44881000D01*
X36751326Y-44876535D01*
X36713633Y-44865101D01*
X36678897Y-44846534D01*
X36648452Y-44821548D01*
X36623466Y-44791103D01*
X36604899Y-44756367D01*
X36593465Y-44718674D01*
X36589000Y-44673339D01*
X36589000Y-43586661D01*
X36593465Y-43541326D01*
X36604899Y-43503633D01*
X36623466Y-43468897D01*
X36648452Y-43438452D01*
X36678897Y-43413466D01*
X36713633Y-43394899D01*
X36751326Y-43383465D01*
X36796661Y-43379000D01*
X37633339Y-43379000D01*
X37678674Y-43383465D01*
G37*
G36*
X59891000Y-44601000D02*
G01*
X56389000Y-44601000D01*
X56389000Y-43199000D01*
X59891000Y-43199000D01*
X59891000Y-44601000D01*
G37*
G36*
X52091000Y-44531000D02*
G01*
X51089000Y-44531000D01*
X51089000Y-43229000D01*
X52091000Y-43229000D01*
X52091000Y-44531000D01*
G37*
G36*
X48791000Y-44531000D02*
G01*
X47789000Y-44531000D01*
X47789000Y-43229000D01*
X48791000Y-43229000D01*
X48791000Y-44531000D01*
G37*
G36*
X46158674Y-43103465D02*
G01*
X46196367Y-43114899D01*
X46231103Y-43133466D01*
X46261548Y-43158452D01*
X46286534Y-43188897D01*
X46305101Y-43223633D01*
X46316535Y-43261326D01*
X46321000Y-43306661D01*
X46321000Y-44143339D01*
X46316535Y-44188674D01*
X46305101Y-44226367D01*
X46286534Y-44261103D01*
X46261548Y-44291548D01*
X46231103Y-44316534D01*
X46196367Y-44335101D01*
X46158674Y-44346535D01*
X46113339Y-44351000D01*
X45026661Y-44351000D01*
X44981326Y-44346535D01*
X44943633Y-44335101D01*
X44908897Y-44316534D01*
X44878452Y-44291548D01*
X44853466Y-44261103D01*
X44834899Y-44226367D01*
X44823465Y-44188674D01*
X44819000Y-44143339D01*
X44819000Y-43306661D01*
X44823465Y-43261326D01*
X44834899Y-43223633D01*
X44853466Y-43188897D01*
X44878452Y-43158452D01*
X44908897Y-43133466D01*
X44943633Y-43114899D01*
X44981326Y-43103465D01*
X45026661Y-43099000D01*
X46113339Y-43099000D01*
X46158674Y-43103465D01*
G37*
G36*
X58591000Y-42611000D02*
G01*
X57689000Y-42611000D01*
X57689000Y-41609000D01*
X58591000Y-41609000D01*
X58591000Y-42611000D01*
G37*
G36*
X39728674Y-41083465D02*
G01*
X39766367Y-41094899D01*
X39801103Y-41113466D01*
X39831548Y-41138452D01*
X39856534Y-41168897D01*
X39875101Y-41203633D01*
X39886535Y-41241326D01*
X39891000Y-41286661D01*
X39891000Y-42373339D01*
X39886535Y-42418674D01*
X39875101Y-42456367D01*
X39856534Y-42491103D01*
X39831548Y-42521548D01*
X39801103Y-42546534D01*
X39766367Y-42565101D01*
X39728674Y-42576535D01*
X39683339Y-42581000D01*
X38846661Y-42581000D01*
X38801326Y-42576535D01*
X38763633Y-42565101D01*
X38728897Y-42546534D01*
X38698452Y-42521548D01*
X38673466Y-42491103D01*
X38654899Y-42456367D01*
X38643465Y-42418674D01*
X38639000Y-42373339D01*
X38639000Y-41286661D01*
X38643465Y-41241326D01*
X38654899Y-41203633D01*
X38673466Y-41168897D01*
X38698452Y-41138452D01*
X38728897Y-41113466D01*
X38763633Y-41094899D01*
X38801326Y-41083465D01*
X38846661Y-41079000D01*
X39683339Y-41079000D01*
X39728674Y-41083465D01*
G37*
G36*
X37678674Y-41083465D02*
G01*
X37716367Y-41094899D01*
X37751103Y-41113466D01*
X37781548Y-41138452D01*
X37806534Y-41168897D01*
X37825101Y-41203633D01*
X37836535Y-41241326D01*
X37841000Y-41286661D01*
X37841000Y-42373339D01*
X37836535Y-42418674D01*
X37825101Y-42456367D01*
X37806534Y-42491103D01*
X37781548Y-42521548D01*
X37751103Y-42546534D01*
X37716367Y-42565101D01*
X37678674Y-42576535D01*
X37633339Y-42581000D01*
X36796661Y-42581000D01*
X36751326Y-42576535D01*
X36713633Y-42565101D01*
X36678897Y-42546534D01*
X36648452Y-42521548D01*
X36623466Y-42491103D01*
X36604899Y-42456367D01*
X36593465Y-42418674D01*
X36589000Y-42373339D01*
X36589000Y-41286661D01*
X36593465Y-41241326D01*
X36604899Y-41203633D01*
X36623466Y-41168897D01*
X36648452Y-41138452D01*
X36678897Y-41113466D01*
X36713633Y-41094899D01*
X36751326Y-41083465D01*
X36796661Y-41079000D01*
X37633339Y-41079000D01*
X37678674Y-41083465D01*
G37*
G36*
X46158674Y-41053465D02*
G01*
X46196367Y-41064899D01*
X46231103Y-41083466D01*
X46261548Y-41108452D01*
X46286534Y-41138897D01*
X46305101Y-41173633D01*
X46316535Y-41211326D01*
X46321000Y-41256661D01*
X46321000Y-42093339D01*
X46316535Y-42138674D01*
X46305101Y-42176367D01*
X46286534Y-42211103D01*
X46261548Y-42241548D01*
X46231103Y-42266534D01*
X46196367Y-42285101D01*
X46158674Y-42296535D01*
X46113339Y-42301000D01*
X45026661Y-42301000D01*
X44981326Y-42296535D01*
X44943633Y-42285101D01*
X44908897Y-42266534D01*
X44878452Y-42241548D01*
X44853466Y-42211103D01*
X44834899Y-42176367D01*
X44823465Y-42138674D01*
X44819000Y-42093339D01*
X44819000Y-41256661D01*
X44823465Y-41211326D01*
X44834899Y-41173633D01*
X44853466Y-41138897D01*
X44878452Y-41108452D01*
X44908897Y-41083466D01*
X44943633Y-41064899D01*
X44981326Y-41053465D01*
X45026661Y-41049000D01*
X46113339Y-41049000D01*
X46158674Y-41053465D01*
G37*
G36*
X48791000Y-42031000D02*
G01*
X47789000Y-42031000D01*
X47789000Y-40729000D01*
X48791000Y-40729000D01*
X48791000Y-42031000D01*
G37*
G36*
X52091000Y-42031000D02*
G01*
X51089000Y-42031000D01*
X51089000Y-40729000D01*
X52091000Y-40729000D01*
X52091000Y-42031000D01*
G37*
G36*
X57641000Y-40611000D02*
G01*
X56739000Y-40611000D01*
X56739000Y-39609000D01*
X57641000Y-39609000D01*
X57641000Y-40611000D01*
G37*
G36*
X59541000Y-40611000D02*
G01*
X58639000Y-40611000D01*
X58639000Y-39609000D01*
X59541000Y-39609000D01*
X59541000Y-40611000D01*
G37*
G36*
X39728674Y-38683465D02*
G01*
X39766367Y-38694899D01*
X39801103Y-38713466D01*
X39831548Y-38738452D01*
X39856534Y-38768897D01*
X39875101Y-38803633D01*
X39886535Y-38841326D01*
X39891000Y-38886661D01*
X39891000Y-39973339D01*
X39886535Y-40018674D01*
X39875101Y-40056367D01*
X39856534Y-40091103D01*
X39831548Y-40121548D01*
X39801103Y-40146534D01*
X39766367Y-40165101D01*
X39728674Y-40176535D01*
X39683339Y-40181000D01*
X38846661Y-40181000D01*
X38801326Y-40176535D01*
X38763633Y-40165101D01*
X38728897Y-40146534D01*
X38698452Y-40121548D01*
X38673466Y-40091103D01*
X38654899Y-40056367D01*
X38643465Y-40018674D01*
X38639000Y-39973339D01*
X38639000Y-38886661D01*
X38643465Y-38841326D01*
X38654899Y-38803633D01*
X38673466Y-38768897D01*
X38698452Y-38738452D01*
X38728897Y-38713466D01*
X38763633Y-38694899D01*
X38801326Y-38683465D01*
X38846661Y-38679000D01*
X39683339Y-38679000D01*
X39728674Y-38683465D01*
G37*
G36*
X37678674Y-38683465D02*
G01*
X37716367Y-38694899D01*
X37751103Y-38713466D01*
X37781548Y-38738452D01*
X37806534Y-38768897D01*
X37825101Y-38803633D01*
X37836535Y-38841326D01*
X37841000Y-38886661D01*
X37841000Y-39973339D01*
X37836535Y-40018674D01*
X37825101Y-40056367D01*
X37806534Y-40091103D01*
X37781548Y-40121548D01*
X37751103Y-40146534D01*
X37716367Y-40165101D01*
X37678674Y-40176535D01*
X37633339Y-40181000D01*
X36796661Y-40181000D01*
X36751326Y-40176535D01*
X36713633Y-40165101D01*
X36678897Y-40146534D01*
X36648452Y-40121548D01*
X36623466Y-40091103D01*
X36604899Y-40056367D01*
X36593465Y-40018674D01*
X36589000Y-39973339D01*
X36589000Y-38886661D01*
X36593465Y-38841326D01*
X36604899Y-38803633D01*
X36623466Y-38768897D01*
X36648452Y-38738452D01*
X36678897Y-38713466D01*
X36713633Y-38694899D01*
X36751326Y-38683465D01*
X36796661Y-38679000D01*
X37633339Y-38679000D01*
X37678674Y-38683465D01*
G37*
G36*
X37678674Y-36483465D02*
G01*
X37716367Y-36494899D01*
X37751103Y-36513466D01*
X37781548Y-36538452D01*
X37806534Y-36568897D01*
X37825101Y-36603633D01*
X37836535Y-36641326D01*
X37841000Y-36686661D01*
X37841000Y-37773339D01*
X37836535Y-37818674D01*
X37825101Y-37856367D01*
X37806534Y-37891103D01*
X37781548Y-37921548D01*
X37751103Y-37946534D01*
X37716367Y-37965101D01*
X37678674Y-37976535D01*
X37633339Y-37981000D01*
X36796661Y-37981000D01*
X36751326Y-37976535D01*
X36713633Y-37965101D01*
X36678897Y-37946534D01*
X36648452Y-37921548D01*
X36623466Y-37891103D01*
X36604899Y-37856367D01*
X36593465Y-37818674D01*
X36589000Y-37773339D01*
X36589000Y-36686661D01*
X36593465Y-36641326D01*
X36604899Y-36603633D01*
X36623466Y-36568897D01*
X36648452Y-36538452D01*
X36678897Y-36513466D01*
X36713633Y-36494899D01*
X36751326Y-36483465D01*
X36796661Y-36479000D01*
X37633339Y-36479000D01*
X37678674Y-36483465D01*
G37*
G36*
X39728674Y-36483465D02*
G01*
X39766367Y-36494899D01*
X39801103Y-36513466D01*
X39831548Y-36538452D01*
X39856534Y-36568897D01*
X39875101Y-36603633D01*
X39886535Y-36641326D01*
X39891000Y-36686661D01*
X39891000Y-37773339D01*
X39886535Y-37818674D01*
X39875101Y-37856367D01*
X39856534Y-37891103D01*
X39831548Y-37921548D01*
X39801103Y-37946534D01*
X39766367Y-37965101D01*
X39728674Y-37976535D01*
X39683339Y-37981000D01*
X38846661Y-37981000D01*
X38801326Y-37976535D01*
X38763633Y-37965101D01*
X38728897Y-37946534D01*
X38698452Y-37921548D01*
X38673466Y-37891103D01*
X38654899Y-37856367D01*
X38643465Y-37818674D01*
X38639000Y-37773339D01*
X38639000Y-36686661D01*
X38643465Y-36641326D01*
X38654899Y-36603633D01*
X38673466Y-36568897D01*
X38698452Y-36538452D01*
X38728897Y-36513466D01*
X38763633Y-36494899D01*
X38801326Y-36483465D01*
X38846661Y-36479000D01*
X39683339Y-36479000D01*
X39728674Y-36483465D01*
G37*
G36*
X44578674Y-35083465D02*
G01*
X44616367Y-35094899D01*
X44651103Y-35113466D01*
X44681548Y-35138452D01*
X44706534Y-35168897D01*
X44725101Y-35203633D01*
X44736535Y-35241326D01*
X44741000Y-35286661D01*
X44741000Y-36373339D01*
X44736535Y-36418674D01*
X44725101Y-36456367D01*
X44706534Y-36491103D01*
X44681548Y-36521548D01*
X44651103Y-36546534D01*
X44616367Y-36565101D01*
X44578674Y-36576535D01*
X44533339Y-36581000D01*
X43696661Y-36581000D01*
X43651326Y-36576535D01*
X43613633Y-36565101D01*
X43578897Y-36546534D01*
X43548452Y-36521548D01*
X43523466Y-36491103D01*
X43504899Y-36456367D01*
X43493465Y-36418674D01*
X43489000Y-36373339D01*
X43489000Y-35286661D01*
X43493465Y-35241326D01*
X43504899Y-35203633D01*
X43523466Y-35168897D01*
X43548452Y-35138452D01*
X43578897Y-35113466D01*
X43613633Y-35094899D01*
X43651326Y-35083465D01*
X43696661Y-35079000D01*
X44533339Y-35079000D01*
X44578674Y-35083465D01*
G37*
G36*
X46628674Y-35083465D02*
G01*
X46666367Y-35094899D01*
X46701103Y-35113466D01*
X46731548Y-35138452D01*
X46756534Y-35168897D01*
X46775101Y-35203633D01*
X46786535Y-35241326D01*
X46791000Y-35286661D01*
X46791000Y-36373339D01*
X46786535Y-36418674D01*
X46775101Y-36456367D01*
X46756534Y-36491103D01*
X46731548Y-36521548D01*
X46701103Y-36546534D01*
X46666367Y-36565101D01*
X46628674Y-36576535D01*
X46583339Y-36581000D01*
X45746661Y-36581000D01*
X45701326Y-36576535D01*
X45663633Y-36565101D01*
X45628897Y-36546534D01*
X45598452Y-36521548D01*
X45573466Y-36491103D01*
X45554899Y-36456367D01*
X45543465Y-36418674D01*
X45539000Y-36373339D01*
X45539000Y-35286661D01*
X45543465Y-35241326D01*
X45554899Y-35203633D01*
X45573466Y-35168897D01*
X45598452Y-35138452D01*
X45628897Y-35113466D01*
X45663633Y-35094899D01*
X45701326Y-35083465D01*
X45746661Y-35079000D01*
X46583339Y-35079000D01*
X46628674Y-35083465D01*
G37*
G36*
X55228674Y-34908465D02*
G01*
X55266367Y-34919899D01*
X55301103Y-34938466D01*
X55331548Y-34963452D01*
X55356534Y-34993897D01*
X55375101Y-35028633D01*
X55386535Y-35066326D01*
X55391000Y-35111661D01*
X55391000Y-36198339D01*
X55386535Y-36243674D01*
X55375101Y-36281367D01*
X55356534Y-36316103D01*
X55331548Y-36346548D01*
X55301103Y-36371534D01*
X55266367Y-36390101D01*
X55228674Y-36401535D01*
X55183339Y-36406000D01*
X54346661Y-36406000D01*
X54301326Y-36401535D01*
X54263633Y-36390101D01*
X54228897Y-36371534D01*
X54198452Y-36346548D01*
X54173466Y-36316103D01*
X54154899Y-36281367D01*
X54143465Y-36243674D01*
X54139000Y-36198339D01*
X54139000Y-35111661D01*
X54143465Y-35066326D01*
X54154899Y-35028633D01*
X54173466Y-34993897D01*
X54198452Y-34963452D01*
X54228897Y-34938466D01*
X54263633Y-34919899D01*
X54301326Y-34908465D01*
X54346661Y-34904000D01*
X55183339Y-34904000D01*
X55228674Y-34908465D01*
G37*
G36*
X53178674Y-34908465D02*
G01*
X53216367Y-34919899D01*
X53251103Y-34938466D01*
X53281548Y-34963452D01*
X53306534Y-34993897D01*
X53325101Y-35028633D01*
X53336535Y-35066326D01*
X53341000Y-35111661D01*
X53341000Y-36198339D01*
X53336535Y-36243674D01*
X53325101Y-36281367D01*
X53306534Y-36316103D01*
X53281548Y-36346548D01*
X53251103Y-36371534D01*
X53216367Y-36390101D01*
X53178674Y-36401535D01*
X53133339Y-36406000D01*
X52296661Y-36406000D01*
X52251326Y-36401535D01*
X52213633Y-36390101D01*
X52178897Y-36371534D01*
X52148452Y-36346548D01*
X52123466Y-36316103D01*
X52104899Y-36281367D01*
X52093465Y-36243674D01*
X52089000Y-36198339D01*
X52089000Y-35111661D01*
X52093465Y-35066326D01*
X52104899Y-35028633D01*
X52123466Y-34993897D01*
X52148452Y-34963452D01*
X52178897Y-34938466D01*
X52213633Y-34919899D01*
X52251326Y-34908465D01*
X52296661Y-34904000D01*
X53133339Y-34904000D01*
X53178674Y-34908465D01*
G37*
G36*
X37678674Y-34283465D02*
G01*
X37716367Y-34294899D01*
X37751103Y-34313466D01*
X37781548Y-34338452D01*
X37806534Y-34368897D01*
X37825101Y-34403633D01*
X37836535Y-34441326D01*
X37841000Y-34486661D01*
X37841000Y-35573339D01*
X37836535Y-35618674D01*
X37825101Y-35656367D01*
X37806534Y-35691103D01*
X37781548Y-35721548D01*
X37751103Y-35746534D01*
X37716367Y-35765101D01*
X37678674Y-35776535D01*
X37633339Y-35781000D01*
X36796661Y-35781000D01*
X36751326Y-35776535D01*
X36713633Y-35765101D01*
X36678897Y-35746534D01*
X36648452Y-35721548D01*
X36623466Y-35691103D01*
X36604899Y-35656367D01*
X36593465Y-35618674D01*
X36589000Y-35573339D01*
X36589000Y-34486661D01*
X36593465Y-34441326D01*
X36604899Y-34403633D01*
X36623466Y-34368897D01*
X36648452Y-34338452D01*
X36678897Y-34313466D01*
X36713633Y-34294899D01*
X36751326Y-34283465D01*
X36796661Y-34279000D01*
X37633339Y-34279000D01*
X37678674Y-34283465D01*
G37*
G36*
X39728674Y-34283465D02*
G01*
X39766367Y-34294899D01*
X39801103Y-34313466D01*
X39831548Y-34338452D01*
X39856534Y-34368897D01*
X39875101Y-34403633D01*
X39886535Y-34441326D01*
X39891000Y-34486661D01*
X39891000Y-35573339D01*
X39886535Y-35618674D01*
X39875101Y-35656367D01*
X39856534Y-35691103D01*
X39831548Y-35721548D01*
X39801103Y-35746534D01*
X39766367Y-35765101D01*
X39728674Y-35776535D01*
X39683339Y-35781000D01*
X38846661Y-35781000D01*
X38801326Y-35776535D01*
X38763633Y-35765101D01*
X38728897Y-35746534D01*
X38698452Y-35721548D01*
X38673466Y-35691103D01*
X38654899Y-35656367D01*
X38643465Y-35618674D01*
X38639000Y-35573339D01*
X38639000Y-34486661D01*
X38643465Y-34441326D01*
X38654899Y-34403633D01*
X38673466Y-34368897D01*
X38698452Y-34338452D01*
X38728897Y-34313466D01*
X38763633Y-34294899D01*
X38801326Y-34283465D01*
X38846661Y-34279000D01*
X39683339Y-34279000D01*
X39728674Y-34283465D01*
G37*
G36*
X37678674Y-32083465D02*
G01*
X37716367Y-32094899D01*
X37751103Y-32113466D01*
X37781548Y-32138452D01*
X37806534Y-32168897D01*
X37825101Y-32203633D01*
X37836535Y-32241326D01*
X37841000Y-32286661D01*
X37841000Y-33373339D01*
X37836535Y-33418674D01*
X37825101Y-33456367D01*
X37806534Y-33491103D01*
X37781548Y-33521548D01*
X37751103Y-33546534D01*
X37716367Y-33565101D01*
X37678674Y-33576535D01*
X37633339Y-33581000D01*
X36796661Y-33581000D01*
X36751326Y-33576535D01*
X36713633Y-33565101D01*
X36678897Y-33546534D01*
X36648452Y-33521548D01*
X36623466Y-33491103D01*
X36604899Y-33456367D01*
X36593465Y-33418674D01*
X36589000Y-33373339D01*
X36589000Y-32286661D01*
X36593465Y-32241326D01*
X36604899Y-32203633D01*
X36623466Y-32168897D01*
X36648452Y-32138452D01*
X36678897Y-32113466D01*
X36713633Y-32094899D01*
X36751326Y-32083465D01*
X36796661Y-32079000D01*
X37633339Y-32079000D01*
X37678674Y-32083465D01*
G37*
G36*
X39728674Y-32083465D02*
G01*
X39766367Y-32094899D01*
X39801103Y-32113466D01*
X39831548Y-32138452D01*
X39856534Y-32168897D01*
X39875101Y-32203633D01*
X39886535Y-32241326D01*
X39891000Y-32286661D01*
X39891000Y-33373339D01*
X39886535Y-33418674D01*
X39875101Y-33456367D01*
X39856534Y-33491103D01*
X39831548Y-33521548D01*
X39801103Y-33546534D01*
X39766367Y-33565101D01*
X39728674Y-33576535D01*
X39683339Y-33581000D01*
X38846661Y-33581000D01*
X38801326Y-33576535D01*
X38763633Y-33565101D01*
X38728897Y-33546534D01*
X38698452Y-33521548D01*
X38673466Y-33491103D01*
X38654899Y-33456367D01*
X38643465Y-33418674D01*
X38639000Y-33373339D01*
X38639000Y-32286661D01*
X38643465Y-32241326D01*
X38654899Y-32203633D01*
X38673466Y-32168897D01*
X38698452Y-32138452D01*
X38728897Y-32113466D01*
X38763633Y-32094899D01*
X38801326Y-32083465D01*
X38846661Y-32079000D01*
X39683339Y-32079000D01*
X39728674Y-32083465D01*
G37*
G36*
X45103674Y-31758465D02*
G01*
X45141367Y-31769899D01*
X45176103Y-31788466D01*
X45206548Y-31813452D01*
X45231534Y-31843897D01*
X45250101Y-31878633D01*
X45261535Y-31916326D01*
X45266000Y-31961661D01*
X45266000Y-33048339D01*
X45261535Y-33093674D01*
X45250101Y-33131367D01*
X45231534Y-33166103D01*
X45206548Y-33196548D01*
X45176103Y-33221534D01*
X45141367Y-33240101D01*
X45103674Y-33251535D01*
X45058339Y-33256000D01*
X44221661Y-33256000D01*
X44176326Y-33251535D01*
X44138633Y-33240101D01*
X44103897Y-33221534D01*
X44073452Y-33196548D01*
X44048466Y-33166103D01*
X44029899Y-33131367D01*
X44018465Y-33093674D01*
X44014000Y-33048339D01*
X44014000Y-31961661D01*
X44018465Y-31916326D01*
X44029899Y-31878633D01*
X44048466Y-31843897D01*
X44073452Y-31813452D01*
X44103897Y-31788466D01*
X44138633Y-31769899D01*
X44176326Y-31758465D01*
X44221661Y-31754000D01*
X45058339Y-31754000D01*
X45103674Y-31758465D01*
G37*
G36*
X47153674Y-31758465D02*
G01*
X47191367Y-31769899D01*
X47226103Y-31788466D01*
X47256548Y-31813452D01*
X47281534Y-31843897D01*
X47300101Y-31878633D01*
X47311535Y-31916326D01*
X47316000Y-31961661D01*
X47316000Y-33048339D01*
X47311535Y-33093674D01*
X47300101Y-33131367D01*
X47281534Y-33166103D01*
X47256548Y-33196548D01*
X47226103Y-33221534D01*
X47191367Y-33240101D01*
X47153674Y-33251535D01*
X47108339Y-33256000D01*
X46271661Y-33256000D01*
X46226326Y-33251535D01*
X46188633Y-33240101D01*
X46153897Y-33221534D01*
X46123452Y-33196548D01*
X46098466Y-33166103D01*
X46079899Y-33131367D01*
X46068465Y-33093674D01*
X46064000Y-33048339D01*
X46064000Y-31961661D01*
X46068465Y-31916326D01*
X46079899Y-31878633D01*
X46098466Y-31843897D01*
X46123452Y-31813452D01*
X46153897Y-31788466D01*
X46188633Y-31769899D01*
X46226326Y-31758465D01*
X46271661Y-31754000D01*
X47108339Y-31754000D01*
X47153674Y-31758465D01*
G37*
G36*
X52738674Y-30753465D02*
G01*
X52776367Y-30764899D01*
X52811103Y-30783466D01*
X52841548Y-30808452D01*
X52866534Y-30838897D01*
X52885101Y-30873633D01*
X52896535Y-30911326D01*
X52901000Y-30956661D01*
X52901000Y-32043339D01*
X52896535Y-32088674D01*
X52885101Y-32126367D01*
X52866534Y-32161103D01*
X52841548Y-32191548D01*
X52811103Y-32216534D01*
X52776367Y-32235101D01*
X52738674Y-32246535D01*
X52693339Y-32251000D01*
X51856661Y-32251000D01*
X51811326Y-32246535D01*
X51773633Y-32235101D01*
X51738897Y-32216534D01*
X51708452Y-32191548D01*
X51683466Y-32161103D01*
X51664899Y-32126367D01*
X51653465Y-32088674D01*
X51649000Y-32043339D01*
X51649000Y-30956661D01*
X51653465Y-30911326D01*
X51664899Y-30873633D01*
X51683466Y-30838897D01*
X51708452Y-30808452D01*
X51738897Y-30783466D01*
X51773633Y-30764899D01*
X51811326Y-30753465D01*
X51856661Y-30749000D01*
X52693339Y-30749000D01*
X52738674Y-30753465D01*
G37*
G36*
X54788674Y-30753465D02*
G01*
X54826367Y-30764899D01*
X54861103Y-30783466D01*
X54891548Y-30808452D01*
X54916534Y-30838897D01*
X54935101Y-30873633D01*
X54946535Y-30911326D01*
X54951000Y-30956661D01*
X54951000Y-32043339D01*
X54946535Y-32088674D01*
X54935101Y-32126367D01*
X54916534Y-32161103D01*
X54891548Y-32191548D01*
X54861103Y-32216534D01*
X54826367Y-32235101D01*
X54788674Y-32246535D01*
X54743339Y-32251000D01*
X53906661Y-32251000D01*
X53861326Y-32246535D01*
X53823633Y-32235101D01*
X53788897Y-32216534D01*
X53758452Y-32191548D01*
X53733466Y-32161103D01*
X53714899Y-32126367D01*
X53703465Y-32088674D01*
X53699000Y-32043339D01*
X53699000Y-30956661D01*
X53703465Y-30911326D01*
X53714899Y-30873633D01*
X53733466Y-30838897D01*
X53758452Y-30808452D01*
X53788897Y-30783466D01*
X53823633Y-30764899D01*
X53861326Y-30753465D01*
X53906661Y-30749000D01*
X54743339Y-30749000D01*
X54788674Y-30753465D01*
G37*
G36*
X56538674Y-29853465D02*
G01*
X56576367Y-29864899D01*
X56611103Y-29883466D01*
X56641548Y-29908452D01*
X56666534Y-29938897D01*
X56685101Y-29973633D01*
X56696535Y-30011326D01*
X56701000Y-30056661D01*
X56701000Y-31143339D01*
X56696535Y-31188674D01*
X56685101Y-31226367D01*
X56666534Y-31261103D01*
X56641548Y-31291548D01*
X56611103Y-31316534D01*
X56576367Y-31335101D01*
X56538674Y-31346535D01*
X56493339Y-31351000D01*
X55656661Y-31351000D01*
X55611326Y-31346535D01*
X55573633Y-31335101D01*
X55538897Y-31316534D01*
X55508452Y-31291548D01*
X55483466Y-31261103D01*
X55464899Y-31226367D01*
X55453465Y-31188674D01*
X55449000Y-31143339D01*
X55449000Y-30056661D01*
X55453465Y-30011326D01*
X55464899Y-29973633D01*
X55483466Y-29938897D01*
X55508452Y-29908452D01*
X55538897Y-29883466D01*
X55573633Y-29864899D01*
X55611326Y-29853465D01*
X55656661Y-29849000D01*
X56493339Y-29849000D01*
X56538674Y-29853465D01*
G37*
G36*
X58588674Y-29853465D02*
G01*
X58626367Y-29864899D01*
X58661103Y-29883466D01*
X58691548Y-29908452D01*
X58716534Y-29938897D01*
X58735101Y-29973633D01*
X58746535Y-30011326D01*
X58751000Y-30056661D01*
X58751000Y-31143339D01*
X58746535Y-31188674D01*
X58735101Y-31226367D01*
X58716534Y-31261103D01*
X58691548Y-31291548D01*
X58661103Y-31316534D01*
X58626367Y-31335101D01*
X58588674Y-31346535D01*
X58543339Y-31351000D01*
X57706661Y-31351000D01*
X57661326Y-31346535D01*
X57623633Y-31335101D01*
X57588897Y-31316534D01*
X57558452Y-31291548D01*
X57533466Y-31261103D01*
X57514899Y-31226367D01*
X57503465Y-31188674D01*
X57499000Y-31143339D01*
X57499000Y-30056661D01*
X57503465Y-30011326D01*
X57514899Y-29973633D01*
X57533466Y-29938897D01*
X57558452Y-29908452D01*
X57588897Y-29883466D01*
X57623633Y-29864899D01*
X57661326Y-29853465D01*
X57706661Y-29849000D01*
X58543339Y-29849000D01*
X58588674Y-29853465D01*
G37*
G36*
X48916000Y-30681000D02*
G01*
X40264000Y-30681000D01*
X40264000Y-29079000D01*
X48916000Y-29079000D01*
X48916000Y-30681000D01*
G37*
G36*
X53688674Y-28513465D02*
G01*
X53726367Y-28524899D01*
X53761103Y-28543466D01*
X53791548Y-28568452D01*
X53816534Y-28598897D01*
X53835101Y-28633633D01*
X53846535Y-28671326D01*
X53851000Y-28716661D01*
X53851000Y-29553339D01*
X53846535Y-29598674D01*
X53835101Y-29636367D01*
X53816534Y-29671103D01*
X53791548Y-29701548D01*
X53761103Y-29726534D01*
X53726367Y-29745101D01*
X53688674Y-29756535D01*
X53643339Y-29761000D01*
X52556661Y-29761000D01*
X52511326Y-29756535D01*
X52473633Y-29745101D01*
X52438897Y-29726534D01*
X52408452Y-29701548D01*
X52383466Y-29671103D01*
X52364899Y-29636367D01*
X52353465Y-29598674D01*
X52349000Y-29553339D01*
X52349000Y-28716661D01*
X52353465Y-28671326D01*
X52364899Y-28633633D01*
X52383466Y-28598897D01*
X52408452Y-28568452D01*
X52438897Y-28543466D01*
X52473633Y-28524899D01*
X52511326Y-28513465D01*
X52556661Y-28509000D01*
X53643339Y-28509000D01*
X53688674Y-28513465D01*
G37*
G36*
X22551766Y-27631899D02*
G01*
X22683888Y-27686626D01*
X22683890Y-27686627D01*
X22802798Y-27766079D01*
X22903921Y-27867202D01*
X22903922Y-27867204D01*
X22983374Y-27986112D01*
X23038101Y-28118234D01*
X23066000Y-28258494D01*
X23066000Y-28401506D01*
X23038101Y-28541766D01*
X23000048Y-28633633D01*
X22983373Y-28673890D01*
X22903921Y-28792798D01*
X22802798Y-28893921D01*
X22683890Y-28973373D01*
X22683889Y-28973374D01*
X22683888Y-28973374D01*
X22551766Y-29028101D01*
X22411506Y-29056000D01*
X22268494Y-29056000D01*
X22128234Y-29028101D01*
X21996112Y-28973374D01*
X21996111Y-28973374D01*
X21996110Y-28973373D01*
X21877202Y-28893921D01*
X21776079Y-28792798D01*
X21696627Y-28673890D01*
X21679952Y-28633633D01*
X21641899Y-28541766D01*
X21614000Y-28401506D01*
X21614000Y-28258494D01*
X21641899Y-28118234D01*
X21696626Y-27986112D01*
X21776078Y-27867204D01*
X21776079Y-27867202D01*
X21877202Y-27766079D01*
X21996110Y-27686627D01*
X21996112Y-27686626D01*
X22128234Y-27631899D01*
X22268494Y-27604000D01*
X22411506Y-27604000D01*
X22551766Y-27631899D01*
G37*
G36*
X24551766Y-27631899D02*
G01*
X24683888Y-27686626D01*
X24683890Y-27686627D01*
X24802798Y-27766079D01*
X24903921Y-27867202D01*
X24903922Y-27867204D01*
X24983374Y-27986112D01*
X25038101Y-28118234D01*
X25066000Y-28258494D01*
X25066000Y-28401506D01*
X25038101Y-28541766D01*
X25000048Y-28633633D01*
X24983373Y-28673890D01*
X24903921Y-28792798D01*
X24802798Y-28893921D01*
X24683890Y-28973373D01*
X24683889Y-28973374D01*
X24683888Y-28973374D01*
X24551766Y-29028101D01*
X24411506Y-29056000D01*
X24268494Y-29056000D01*
X24128234Y-29028101D01*
X23996112Y-28973374D01*
X23996111Y-28973374D01*
X23996110Y-28973373D01*
X23877202Y-28893921D01*
X23776079Y-28792798D01*
X23696627Y-28673890D01*
X23679952Y-28633633D01*
X23641899Y-28541766D01*
X23614000Y-28401506D01*
X23614000Y-28258494D01*
X23641899Y-28118234D01*
X23696626Y-27986112D01*
X23776078Y-27867204D01*
X23776079Y-27867202D01*
X23877202Y-27766079D01*
X23996110Y-27686627D01*
X23996112Y-27686626D01*
X24128234Y-27631899D01*
X24268494Y-27604000D01*
X24411506Y-27604000D01*
X24551766Y-27631899D01*
G37*
G36*
X26551766Y-27631899D02*
G01*
X26683888Y-27686626D01*
X26683890Y-27686627D01*
X26802798Y-27766079D01*
X26903921Y-27867202D01*
X26903922Y-27867204D01*
X26983374Y-27986112D01*
X27038101Y-28118234D01*
X27066000Y-28258494D01*
X27066000Y-28401506D01*
X27038101Y-28541766D01*
X27000048Y-28633633D01*
X26983373Y-28673890D01*
X26903921Y-28792798D01*
X26802798Y-28893921D01*
X26683890Y-28973373D01*
X26683889Y-28973374D01*
X26683888Y-28973374D01*
X26551766Y-29028101D01*
X26411506Y-29056000D01*
X26268494Y-29056000D01*
X26128234Y-29028101D01*
X25996112Y-28973374D01*
X25996111Y-28973374D01*
X25996110Y-28973373D01*
X25877202Y-28893921D01*
X25776079Y-28792798D01*
X25696627Y-28673890D01*
X25679952Y-28633633D01*
X25641899Y-28541766D01*
X25614000Y-28401506D01*
X25614000Y-28258494D01*
X25641899Y-28118234D01*
X25696626Y-27986112D01*
X25776078Y-27867204D01*
X25776079Y-27867202D01*
X25877202Y-27766079D01*
X25996110Y-27686627D01*
X25996112Y-27686626D01*
X26128234Y-27631899D01*
X26268494Y-27604000D01*
X26411506Y-27604000D01*
X26551766Y-27631899D01*
G37*
G36*
X18551766Y-27631899D02*
G01*
X18683888Y-27686626D01*
X18683890Y-27686627D01*
X18802798Y-27766079D01*
X18903921Y-27867202D01*
X18903922Y-27867204D01*
X18983374Y-27986112D01*
X19038101Y-28118234D01*
X19066000Y-28258494D01*
X19066000Y-28401506D01*
X19038101Y-28541766D01*
X19000048Y-28633633D01*
X18983373Y-28673890D01*
X18903921Y-28792798D01*
X18802798Y-28893921D01*
X18683890Y-28973373D01*
X18683889Y-28973374D01*
X18683888Y-28973374D01*
X18551766Y-29028101D01*
X18411506Y-29056000D01*
X18268494Y-29056000D01*
X18128234Y-29028101D01*
X17996112Y-28973374D01*
X17996111Y-28973374D01*
X17996110Y-28973373D01*
X17877202Y-28893921D01*
X17776079Y-28792798D01*
X17696627Y-28673890D01*
X17679952Y-28633633D01*
X17641899Y-28541766D01*
X17614000Y-28401506D01*
X17614000Y-28258494D01*
X17641899Y-28118234D01*
X17696626Y-27986112D01*
X17776078Y-27867204D01*
X17776079Y-27867202D01*
X17877202Y-27766079D01*
X17996110Y-27686627D01*
X17996112Y-27686626D01*
X18128234Y-27631899D01*
X18268494Y-27604000D01*
X18411506Y-27604000D01*
X18551766Y-27631899D01*
G37*
G36*
X16551766Y-27631899D02*
G01*
X16683888Y-27686626D01*
X16683890Y-27686627D01*
X16802798Y-27766079D01*
X16903921Y-27867202D01*
X16903922Y-27867204D01*
X16983374Y-27986112D01*
X17038101Y-28118234D01*
X17066000Y-28258494D01*
X17066000Y-28401506D01*
X17038101Y-28541766D01*
X17000048Y-28633633D01*
X16983373Y-28673890D01*
X16903921Y-28792798D01*
X16802798Y-28893921D01*
X16683890Y-28973373D01*
X16683889Y-28973374D01*
X16683888Y-28973374D01*
X16551766Y-29028101D01*
X16411506Y-29056000D01*
X16268494Y-29056000D01*
X16128234Y-29028101D01*
X15996112Y-28973374D01*
X15996111Y-28973374D01*
X15996110Y-28973373D01*
X15877202Y-28893921D01*
X15776079Y-28792798D01*
X15696627Y-28673890D01*
X15679952Y-28633633D01*
X15641899Y-28541766D01*
X15614000Y-28401506D01*
X15614000Y-28258494D01*
X15641899Y-28118234D01*
X15696626Y-27986112D01*
X15776078Y-27867204D01*
X15776079Y-27867202D01*
X15877202Y-27766079D01*
X15996110Y-27686627D01*
X15996112Y-27686626D01*
X16128234Y-27631899D01*
X16268494Y-27604000D01*
X16411506Y-27604000D01*
X16551766Y-27631899D01*
G37*
G36*
X20551766Y-27631899D02*
G01*
X20683888Y-27686626D01*
X20683890Y-27686627D01*
X20802798Y-27766079D01*
X20903921Y-27867202D01*
X20903922Y-27867204D01*
X20983374Y-27986112D01*
X21038101Y-28118234D01*
X21066000Y-28258494D01*
X21066000Y-28401506D01*
X21038101Y-28541766D01*
X21000048Y-28633633D01*
X20983373Y-28673890D01*
X20903921Y-28792798D01*
X20802798Y-28893921D01*
X20683890Y-28973373D01*
X20683889Y-28973374D01*
X20683888Y-28973374D01*
X20551766Y-29028101D01*
X20411506Y-29056000D01*
X20268494Y-29056000D01*
X20128234Y-29028101D01*
X19996112Y-28973374D01*
X19996111Y-28973374D01*
X19996110Y-28973373D01*
X19877202Y-28893921D01*
X19776079Y-28792798D01*
X19696627Y-28673890D01*
X19679952Y-28633633D01*
X19641899Y-28541766D01*
X19614000Y-28401506D01*
X19614000Y-28258494D01*
X19641899Y-28118234D01*
X19696626Y-27986112D01*
X19776078Y-27867204D01*
X19776079Y-27867202D01*
X19877202Y-27766079D01*
X19996110Y-27686627D01*
X19996112Y-27686626D01*
X20128234Y-27631899D01*
X20268494Y-27604000D01*
X20411506Y-27604000D01*
X20551766Y-27631899D01*
G37*
G36*
X39691000Y-28506000D02*
G01*
X38089000Y-28506000D01*
X38089000Y-19854000D01*
X39691000Y-19854000D01*
X39691000Y-28506000D01*
G37*
G36*
X51091000Y-28506000D02*
G01*
X49489000Y-28506000D01*
X49489000Y-19854000D01*
X51091000Y-19854000D01*
X51091000Y-28506000D01*
G37*
G36*
X53688674Y-26463465D02*
G01*
X53726367Y-26474899D01*
X53761103Y-26493466D01*
X53791548Y-26518452D01*
X53816534Y-26548897D01*
X53835101Y-26583633D01*
X53846535Y-26621326D01*
X53851000Y-26666661D01*
X53851000Y-27503339D01*
X53846535Y-27548674D01*
X53835101Y-27586367D01*
X53816534Y-27621103D01*
X53791548Y-27651548D01*
X53761103Y-27676534D01*
X53726367Y-27695101D01*
X53688674Y-27706535D01*
X53643339Y-27711000D01*
X52556661Y-27711000D01*
X52511326Y-27706535D01*
X52473633Y-27695101D01*
X52438897Y-27676534D01*
X52408452Y-27651548D01*
X52383466Y-27621103D01*
X52364899Y-27586367D01*
X52353465Y-27548674D01*
X52349000Y-27503339D01*
X52349000Y-26666661D01*
X52353465Y-26621326D01*
X52364899Y-26583633D01*
X52383466Y-26548897D01*
X52408452Y-26518452D01*
X52438897Y-26493466D01*
X52473633Y-26474899D01*
X52511326Y-26463465D01*
X52556661Y-26459000D01*
X53643339Y-26459000D01*
X53688674Y-26463465D01*
G37*
G36*
X36888674Y-24633465D02*
G01*
X36926367Y-24644899D01*
X36961103Y-24663466D01*
X36991548Y-24688452D01*
X37016534Y-24718897D01*
X37035101Y-24753633D01*
X37046535Y-24791326D01*
X37051000Y-24836661D01*
X37051000Y-25673339D01*
X37046535Y-25718674D01*
X37035101Y-25756367D01*
X37016534Y-25791103D01*
X36991548Y-25821548D01*
X36961103Y-25846534D01*
X36926367Y-25865101D01*
X36888674Y-25876535D01*
X36843339Y-25881000D01*
X35756661Y-25881000D01*
X35711326Y-25876535D01*
X35673633Y-25865101D01*
X35638897Y-25846534D01*
X35608452Y-25821548D01*
X35583466Y-25791103D01*
X35564899Y-25756367D01*
X35553465Y-25718674D01*
X35549000Y-25673339D01*
X35549000Y-24836661D01*
X35553465Y-24791326D01*
X35564899Y-24753633D01*
X35583466Y-24718897D01*
X35608452Y-24688452D01*
X35638897Y-24663466D01*
X35673633Y-24644899D01*
X35711326Y-24633465D01*
X35756661Y-24629000D01*
X36843339Y-24629000D01*
X36888674Y-24633465D01*
G37*
G36*
X16841000Y-25791000D02*
G01*
X15039000Y-25791000D01*
X15039000Y-24789000D01*
X16841000Y-24789000D01*
X16841000Y-25791000D01*
G37*
G36*
X53703674Y-24308465D02*
G01*
X53741367Y-24319899D01*
X53776103Y-24338466D01*
X53806548Y-24363452D01*
X53831534Y-24393897D01*
X53850101Y-24428633D01*
X53861535Y-24466326D01*
X53866000Y-24511661D01*
X53866000Y-25348339D01*
X53861535Y-25393674D01*
X53850101Y-25431367D01*
X53831534Y-25466103D01*
X53806548Y-25496548D01*
X53776103Y-25521534D01*
X53741367Y-25540101D01*
X53703674Y-25551535D01*
X53658339Y-25556000D01*
X52571661Y-25556000D01*
X52526326Y-25551535D01*
X52488633Y-25540101D01*
X52453897Y-25521534D01*
X52423452Y-25496548D01*
X52398466Y-25466103D01*
X52379899Y-25431367D01*
X52368465Y-25393674D01*
X52364000Y-25348339D01*
X52364000Y-24511661D01*
X52368465Y-24466326D01*
X52379899Y-24428633D01*
X52398466Y-24393897D01*
X52423452Y-24363452D01*
X52453897Y-24338466D01*
X52488633Y-24319899D01*
X52526326Y-24308465D01*
X52571661Y-24304000D01*
X53658339Y-24304000D01*
X53703674Y-24308465D01*
G37*
G36*
X36888674Y-22583465D02*
G01*
X36926367Y-22594899D01*
X36961103Y-22613466D01*
X36991548Y-22638452D01*
X37016534Y-22668897D01*
X37035101Y-22703633D01*
X37046535Y-22741326D01*
X37051000Y-22786661D01*
X37051000Y-23623339D01*
X37046535Y-23668674D01*
X37035101Y-23706367D01*
X37016534Y-23741103D01*
X36991548Y-23771548D01*
X36961103Y-23796534D01*
X36926367Y-23815101D01*
X36888674Y-23826535D01*
X36843339Y-23831000D01*
X35756661Y-23831000D01*
X35711326Y-23826535D01*
X35673633Y-23815101D01*
X35638897Y-23796534D01*
X35608452Y-23771548D01*
X35583466Y-23741103D01*
X35564899Y-23706367D01*
X35553465Y-23668674D01*
X35549000Y-23623339D01*
X35549000Y-22786661D01*
X35553465Y-22741326D01*
X35564899Y-22703633D01*
X35583466Y-22668897D01*
X35608452Y-22638452D01*
X35638897Y-22613466D01*
X35673633Y-22594899D01*
X35711326Y-22583465D01*
X35756661Y-22579000D01*
X36843339Y-22579000D01*
X36888674Y-22583465D01*
G37*
G36*
X53703674Y-22258465D02*
G01*
X53741367Y-22269899D01*
X53776103Y-22288466D01*
X53806548Y-22313452D01*
X53831534Y-22343897D01*
X53850101Y-22378633D01*
X53861535Y-22416326D01*
X53866000Y-22461661D01*
X53866000Y-23298339D01*
X53861535Y-23343674D01*
X53850101Y-23381367D01*
X53831534Y-23416103D01*
X53806548Y-23446548D01*
X53776103Y-23471534D01*
X53741367Y-23490101D01*
X53703674Y-23501535D01*
X53658339Y-23506000D01*
X52571661Y-23506000D01*
X52526326Y-23501535D01*
X52488633Y-23490101D01*
X52453897Y-23471534D01*
X52423452Y-23446548D01*
X52398466Y-23416103D01*
X52379899Y-23381367D01*
X52368465Y-23343674D01*
X52364000Y-23298339D01*
X52364000Y-22461661D01*
X52368465Y-22416326D01*
X52379899Y-22378633D01*
X52398466Y-22343897D01*
X52423452Y-22313452D01*
X52453897Y-22288466D01*
X52488633Y-22269899D01*
X52526326Y-22258465D01*
X52571661Y-22254000D01*
X53658339Y-22254000D01*
X53703674Y-22258465D01*
G37*
G36*
X25753512Y-21503927D02*
G01*
X25902812Y-21533624D01*
X26066784Y-21601544D01*
X26214354Y-21700147D01*
X26339853Y-21825646D01*
X26438456Y-21973216D01*
X26506376Y-22137188D01*
X26529611Y-22254000D01*
X26538735Y-22299869D01*
X26541000Y-22311259D01*
X26541000Y-22488741D01*
X26506376Y-22662812D01*
X26438456Y-22826784D01*
X26339853Y-22974354D01*
X26214354Y-23099853D01*
X26066784Y-23198456D01*
X25902812Y-23266376D01*
X25753512Y-23296073D01*
X25728742Y-23301000D01*
X25551258Y-23301000D01*
X25526488Y-23296073D01*
X25377188Y-23266376D01*
X25213216Y-23198456D01*
X25065646Y-23099853D01*
X24940147Y-22974354D01*
X24841544Y-22826784D01*
X24773624Y-22662812D01*
X24739000Y-22488741D01*
X24739000Y-22311259D01*
X24741266Y-22299869D01*
X24750389Y-22254000D01*
X24773624Y-22137188D01*
X24841544Y-21973216D01*
X24940147Y-21825646D01*
X25065646Y-21700147D01*
X25213216Y-21601544D01*
X25377188Y-21533624D01*
X25526488Y-21503927D01*
X25551258Y-21499000D01*
X25728742Y-21499000D01*
X25753512Y-21503927D01*
G37*
G36*
X30668674Y-21683465D02*
G01*
X30706367Y-21694899D01*
X30741103Y-21713466D01*
X30771548Y-21738452D01*
X30796534Y-21768897D01*
X30815101Y-21803633D01*
X30826535Y-21841326D01*
X30831000Y-21886661D01*
X30831000Y-22973339D01*
X30826535Y-23018674D01*
X30815101Y-23056367D01*
X30796534Y-23091103D01*
X30771548Y-23121548D01*
X30741103Y-23146534D01*
X30706367Y-23165101D01*
X30668674Y-23176535D01*
X30623339Y-23181000D01*
X29786661Y-23181000D01*
X29741326Y-23176535D01*
X29703633Y-23165101D01*
X29668897Y-23146534D01*
X29638452Y-23121548D01*
X29613466Y-23091103D01*
X29594899Y-23056367D01*
X29583465Y-23018674D01*
X29579000Y-22973339D01*
X29579000Y-21886661D01*
X29583465Y-21841326D01*
X29594899Y-21803633D01*
X29613466Y-21768897D01*
X29638452Y-21738452D01*
X29668897Y-21713466D01*
X29703633Y-21694899D01*
X29741326Y-21683465D01*
X29786661Y-21679000D01*
X30623339Y-21679000D01*
X30668674Y-21683465D01*
G37*
G36*
X28618674Y-21683465D02*
G01*
X28656367Y-21694899D01*
X28691103Y-21713466D01*
X28721548Y-21738452D01*
X28746534Y-21768897D01*
X28765101Y-21803633D01*
X28776535Y-21841326D01*
X28781000Y-21886661D01*
X28781000Y-22973339D01*
X28776535Y-23018674D01*
X28765101Y-23056367D01*
X28746534Y-23091103D01*
X28721548Y-23121548D01*
X28691103Y-23146534D01*
X28656367Y-23165101D01*
X28618674Y-23176535D01*
X28573339Y-23181000D01*
X27736661Y-23181000D01*
X27691326Y-23176535D01*
X27653633Y-23165101D01*
X27618897Y-23146534D01*
X27588452Y-23121548D01*
X27563466Y-23091103D01*
X27544899Y-23056367D01*
X27533465Y-23018674D01*
X27529000Y-22973339D01*
X27529000Y-21886661D01*
X27533465Y-21841326D01*
X27544899Y-21803633D01*
X27563466Y-21768897D01*
X27588452Y-21738452D01*
X27618897Y-21713466D01*
X27653633Y-21694899D01*
X27691326Y-21683465D01*
X27736661Y-21679000D01*
X28573339Y-21679000D01*
X28618674Y-21683465D01*
G37*
G36*
X16841000Y-22391000D02*
G01*
X15039000Y-22391000D01*
X15039000Y-21389000D01*
X16841000Y-21389000D01*
X16841000Y-22391000D01*
G37*
G36*
X25753512Y-18963927D02*
G01*
X25902812Y-18993624D01*
X26066784Y-19061544D01*
X26214354Y-19160147D01*
X26339853Y-19285646D01*
X26438456Y-19433216D01*
X26506376Y-19597188D01*
X26541000Y-19771259D01*
X26541000Y-19948741D01*
X26506376Y-20122812D01*
X26438456Y-20286784D01*
X26339853Y-20434354D01*
X26214354Y-20559853D01*
X26066784Y-20658456D01*
X25902812Y-20726376D01*
X25753512Y-20756073D01*
X25728742Y-20761000D01*
X25551258Y-20761000D01*
X25526488Y-20756073D01*
X25377188Y-20726376D01*
X25213216Y-20658456D01*
X25065646Y-20559853D01*
X24940147Y-20434354D01*
X24841544Y-20286784D01*
X24773624Y-20122812D01*
X24739000Y-19948741D01*
X24739000Y-19771259D01*
X24773624Y-19597188D01*
X24841544Y-19433216D01*
X24940147Y-19285646D01*
X25065646Y-19160147D01*
X25213216Y-19061544D01*
X25377188Y-18993624D01*
X25526488Y-18963927D01*
X25551258Y-18959000D01*
X25728742Y-18959000D01*
X25753512Y-18963927D01*
G37*
G36*
X30668674Y-19113465D02*
G01*
X30706367Y-19124899D01*
X30741103Y-19143466D01*
X30771548Y-19168452D01*
X30796534Y-19198897D01*
X30815101Y-19233633D01*
X30826535Y-19271326D01*
X30831000Y-19316661D01*
X30831000Y-20403339D01*
X30826535Y-20448674D01*
X30815101Y-20486367D01*
X30796534Y-20521103D01*
X30771548Y-20551548D01*
X30741103Y-20576534D01*
X30706367Y-20595101D01*
X30668674Y-20606535D01*
X30623339Y-20611000D01*
X29786661Y-20611000D01*
X29741326Y-20606535D01*
X29703633Y-20595101D01*
X29668897Y-20576534D01*
X29638452Y-20551548D01*
X29613466Y-20521103D01*
X29594899Y-20486367D01*
X29583465Y-20448674D01*
X29579000Y-20403339D01*
X29579000Y-19316661D01*
X29583465Y-19271326D01*
X29594899Y-19233633D01*
X29613466Y-19198897D01*
X29638452Y-19168452D01*
X29668897Y-19143466D01*
X29703633Y-19124899D01*
X29741326Y-19113465D01*
X29786661Y-19109000D01*
X30623339Y-19109000D01*
X30668674Y-19113465D01*
G37*
G36*
X28618674Y-19113465D02*
G01*
X28656367Y-19124899D01*
X28691103Y-19143466D01*
X28721548Y-19168452D01*
X28746534Y-19198897D01*
X28765101Y-19233633D01*
X28776535Y-19271326D01*
X28781000Y-19316661D01*
X28781000Y-20403339D01*
X28776535Y-20448674D01*
X28765101Y-20486367D01*
X28746534Y-20521103D01*
X28721548Y-20551548D01*
X28691103Y-20576534D01*
X28656367Y-20595101D01*
X28618674Y-20606535D01*
X28573339Y-20611000D01*
X27736661Y-20611000D01*
X27691326Y-20606535D01*
X27653633Y-20595101D01*
X27618897Y-20576534D01*
X27588452Y-20551548D01*
X27563466Y-20521103D01*
X27544899Y-20486367D01*
X27533465Y-20448674D01*
X27529000Y-20403339D01*
X27529000Y-19316661D01*
X27533465Y-19271326D01*
X27544899Y-19233633D01*
X27563466Y-19198897D01*
X27588452Y-19168452D01*
X27618897Y-19143466D01*
X27653633Y-19124899D01*
X27691326Y-19113465D01*
X27736661Y-19109000D01*
X28573339Y-19109000D01*
X28618674Y-19113465D01*
G37*
G36*
X15746564Y-18519389D02*
G01*
X15937833Y-18598615D01*
X15937835Y-18598616D01*
X16109973Y-18713635D01*
X16256365Y-18860027D01*
X16345632Y-18993624D01*
X16371385Y-19032167D01*
X16450611Y-19223436D01*
X16491000Y-19426484D01*
X16491000Y-19633516D01*
X16450611Y-19836564D01*
X16412806Y-19927833D01*
X16371384Y-20027835D01*
X16256365Y-20199973D01*
X16109973Y-20346365D01*
X15937835Y-20461384D01*
X15937834Y-20461385D01*
X15937833Y-20461385D01*
X15746564Y-20540611D01*
X15543516Y-20581000D01*
X15336484Y-20581000D01*
X15133436Y-20540611D01*
X14942167Y-20461385D01*
X14942166Y-20461385D01*
X14942165Y-20461384D01*
X14770027Y-20346365D01*
X14623635Y-20199973D01*
X14508616Y-20027835D01*
X14467194Y-19927833D01*
X14429389Y-19836564D01*
X14389000Y-19633516D01*
X14389000Y-19426484D01*
X14429389Y-19223436D01*
X14508615Y-19032167D01*
X14534369Y-18993624D01*
X14623635Y-18860027D01*
X14770027Y-18713635D01*
X14942165Y-18598616D01*
X14942167Y-18598615D01*
X15133436Y-18519389D01*
X15336484Y-18479000D01*
X15543516Y-18479000D01*
X15746564Y-18519389D01*
G37*
G36*
X22246564Y-18519389D02*
G01*
X22437833Y-18598615D01*
X22437835Y-18598616D01*
X22609973Y-18713635D01*
X22756365Y-18860027D01*
X22845632Y-18993624D01*
X22871385Y-19032167D01*
X22950611Y-19223436D01*
X22991000Y-19426484D01*
X22991000Y-19633516D01*
X22950611Y-19836564D01*
X22912806Y-19927833D01*
X22871384Y-20027835D01*
X22756365Y-20199973D01*
X22609973Y-20346365D01*
X22437835Y-20461384D01*
X22437834Y-20461385D01*
X22437833Y-20461385D01*
X22246564Y-20540611D01*
X22043516Y-20581000D01*
X21836484Y-20581000D01*
X21633436Y-20540611D01*
X21442167Y-20461385D01*
X21442166Y-20461385D01*
X21442165Y-20461384D01*
X21270027Y-20346365D01*
X21123635Y-20199973D01*
X21008616Y-20027835D01*
X20967194Y-19927833D01*
X20929389Y-19836564D01*
X20889000Y-19633516D01*
X20889000Y-19426484D01*
X20929389Y-19223436D01*
X21008615Y-19032167D01*
X21034369Y-18993624D01*
X21123635Y-18860027D01*
X21270027Y-18713635D01*
X21442165Y-18598616D01*
X21442167Y-18598615D01*
X21633436Y-18519389D01*
X21836484Y-18479000D01*
X22043516Y-18479000D01*
X22246564Y-18519389D01*
G37*
G36*
X57146564Y-18419389D02*
G01*
X57337833Y-18498615D01*
X57337835Y-18498616D01*
X57509973Y-18613635D01*
X57656365Y-18760027D01*
X57770972Y-18931548D01*
X57771385Y-18932167D01*
X57850611Y-19123436D01*
X57891000Y-19326484D01*
X57891000Y-19533516D01*
X57850611Y-19736564D01*
X57771385Y-19927833D01*
X57771384Y-19927835D01*
X57656365Y-20099973D01*
X57509973Y-20246365D01*
X57337835Y-20361384D01*
X57337834Y-20361385D01*
X57337833Y-20361385D01*
X57146564Y-20440611D01*
X56943516Y-20481000D01*
X56736484Y-20481000D01*
X56533436Y-20440611D01*
X56342167Y-20361385D01*
X56342166Y-20361385D01*
X56342165Y-20361384D01*
X56170027Y-20246365D01*
X56023635Y-20099973D01*
X55908616Y-19927835D01*
X55908615Y-19927833D01*
X55829389Y-19736564D01*
X55789000Y-19533516D01*
X55789000Y-19326484D01*
X55829389Y-19123436D01*
X55908615Y-18932167D01*
X55909029Y-18931548D01*
X56023635Y-18760027D01*
X56170027Y-18613635D01*
X56342165Y-18498616D01*
X56342167Y-18498615D01*
X56533436Y-18419389D01*
X56736484Y-18379000D01*
X56943516Y-18379000D01*
X57146564Y-18419389D01*
G37*
G36*
X63646564Y-18419389D02*
G01*
X63837833Y-18498615D01*
X63837835Y-18498616D01*
X64009973Y-18613635D01*
X64156365Y-18760027D01*
X64270972Y-18931548D01*
X64271385Y-18932167D01*
X64350611Y-19123436D01*
X64391000Y-19326484D01*
X64391000Y-19533516D01*
X64350611Y-19736564D01*
X64271385Y-19927833D01*
X64271384Y-19927835D01*
X64156365Y-20099973D01*
X64009973Y-20246365D01*
X63837835Y-20361384D01*
X63837834Y-20361385D01*
X63837833Y-20361385D01*
X63646564Y-20440611D01*
X63443516Y-20481000D01*
X63236484Y-20481000D01*
X63033436Y-20440611D01*
X62842167Y-20361385D01*
X62842166Y-20361385D01*
X62842165Y-20361384D01*
X62670027Y-20246365D01*
X62523635Y-20099973D01*
X62408616Y-19927835D01*
X62408615Y-19927833D01*
X62329389Y-19736564D01*
X62289000Y-19533516D01*
X62289000Y-19326484D01*
X62329389Y-19123436D01*
X62408615Y-18932167D01*
X62409029Y-18931548D01*
X62523635Y-18760027D01*
X62670027Y-18613635D01*
X62842165Y-18498616D01*
X62842167Y-18498615D01*
X63033436Y-18419389D01*
X63236484Y-18379000D01*
X63443516Y-18379000D01*
X63646564Y-18419389D01*
G37*
G36*
X48916000Y-19281000D02*
G01*
X40264000Y-19281000D01*
X40264000Y-17679000D01*
X48916000Y-17679000D01*
X48916000Y-19281000D01*
G37*
G36*
X54838674Y-17493465D02*
G01*
X54876367Y-17504899D01*
X54911103Y-17523466D01*
X54941548Y-17548452D01*
X54966534Y-17578897D01*
X54985101Y-17613633D01*
X54996535Y-17651326D01*
X55001000Y-17696661D01*
X55001000Y-18783339D01*
X54996535Y-18828674D01*
X54985101Y-18866367D01*
X54966534Y-18901103D01*
X54941548Y-18931548D01*
X54911103Y-18956534D01*
X54876367Y-18975101D01*
X54838674Y-18986535D01*
X54793339Y-18991000D01*
X53956661Y-18991000D01*
X53911326Y-18986535D01*
X53873633Y-18975101D01*
X53838897Y-18956534D01*
X53808452Y-18931548D01*
X53783466Y-18901103D01*
X53764899Y-18866367D01*
X53753465Y-18828674D01*
X53749000Y-18783339D01*
X53749000Y-17696661D01*
X53753465Y-17651326D01*
X53764899Y-17613633D01*
X53783466Y-17578897D01*
X53808452Y-17548452D01*
X53838897Y-17523466D01*
X53873633Y-17504899D01*
X53911326Y-17493465D01*
X53956661Y-17489000D01*
X54793339Y-17489000D01*
X54838674Y-17493465D01*
G37*
G36*
X52788674Y-17493465D02*
G01*
X52826367Y-17504899D01*
X52861103Y-17523466D01*
X52891548Y-17548452D01*
X52916534Y-17578897D01*
X52935101Y-17613633D01*
X52946535Y-17651326D01*
X52951000Y-17696661D01*
X52951000Y-18783339D01*
X52946535Y-18828674D01*
X52935101Y-18866367D01*
X52916534Y-18901103D01*
X52891548Y-18931548D01*
X52861103Y-18956534D01*
X52826367Y-18975101D01*
X52788674Y-18986535D01*
X52743339Y-18991000D01*
X51906661Y-18991000D01*
X51861326Y-18986535D01*
X51823633Y-18975101D01*
X51788897Y-18956534D01*
X51758452Y-18931548D01*
X51733466Y-18901103D01*
X51714899Y-18866367D01*
X51703465Y-18828674D01*
X51699000Y-18783339D01*
X51699000Y-17696661D01*
X51703465Y-17651326D01*
X51714899Y-17613633D01*
X51733466Y-17578897D01*
X51758452Y-17548452D01*
X51788897Y-17523466D01*
X51823633Y-17504899D01*
X51861326Y-17493465D01*
X51906661Y-17489000D01*
X52743339Y-17489000D01*
X52788674Y-17493465D01*
G37*
G36*
X25753512Y-16423927D02*
G01*
X25902812Y-16453624D01*
X26066784Y-16521544D01*
X26214354Y-16620147D01*
X26339853Y-16745646D01*
X26438456Y-16893216D01*
X26506376Y-17057188D01*
X26533013Y-17191103D01*
X26539069Y-17221548D01*
X26541000Y-17231259D01*
X26541000Y-17408741D01*
X26506376Y-17582812D01*
X26438456Y-17746784D01*
X26339853Y-17894354D01*
X26214354Y-18019853D01*
X26066784Y-18118456D01*
X25902812Y-18186376D01*
X25753512Y-18216073D01*
X25728742Y-18221000D01*
X25551258Y-18221000D01*
X25526488Y-18216073D01*
X25377188Y-18186376D01*
X25213216Y-18118456D01*
X25065646Y-18019853D01*
X24940147Y-17894354D01*
X24841544Y-17746784D01*
X24773624Y-17582812D01*
X24739000Y-17408741D01*
X24739000Y-17231259D01*
X24740932Y-17221548D01*
X24746987Y-17191103D01*
X24773624Y-17057188D01*
X24841544Y-16893216D01*
X24940147Y-16745646D01*
X25065646Y-16620147D01*
X25213216Y-16521544D01*
X25377188Y-16453624D01*
X25526488Y-16423927D01*
X25551258Y-16419000D01*
X25728742Y-16419000D01*
X25753512Y-16423927D01*
G37*
G36*
X36928674Y-15783465D02*
G01*
X36966367Y-15794899D01*
X37001103Y-15813466D01*
X37031548Y-15838452D01*
X37056534Y-15868897D01*
X37075101Y-15903633D01*
X37086535Y-15941326D01*
X37091000Y-15986661D01*
X37091000Y-17073339D01*
X37086535Y-17118674D01*
X37075101Y-17156367D01*
X37056534Y-17191103D01*
X37031548Y-17221548D01*
X37001103Y-17246534D01*
X36966367Y-17265101D01*
X36928674Y-17276535D01*
X36883339Y-17281000D01*
X36046661Y-17281000D01*
X36001326Y-17276535D01*
X35963633Y-17265101D01*
X35928897Y-17246534D01*
X35898452Y-17221548D01*
X35873466Y-17191103D01*
X35854899Y-17156367D01*
X35843465Y-17118674D01*
X35839000Y-17073339D01*
X35839000Y-15986661D01*
X35843465Y-15941326D01*
X35854899Y-15903633D01*
X35873466Y-15868897D01*
X35898452Y-15838452D01*
X35928897Y-15813466D01*
X35963633Y-15794899D01*
X36001326Y-15783465D01*
X36046661Y-15779000D01*
X36883339Y-15779000D01*
X36928674Y-15783465D01*
G37*
G36*
X34878674Y-15783465D02*
G01*
X34916367Y-15794899D01*
X34951103Y-15813466D01*
X34981548Y-15838452D01*
X35006534Y-15868897D01*
X35025101Y-15903633D01*
X35036535Y-15941326D01*
X35041000Y-15986661D01*
X35041000Y-17073339D01*
X35036535Y-17118674D01*
X35025101Y-17156367D01*
X35006534Y-17191103D01*
X34981548Y-17221548D01*
X34951103Y-17246534D01*
X34916367Y-17265101D01*
X34878674Y-17276535D01*
X34833339Y-17281000D01*
X33996661Y-17281000D01*
X33951326Y-17276535D01*
X33913633Y-17265101D01*
X33878897Y-17246534D01*
X33848452Y-17221548D01*
X33823466Y-17191103D01*
X33804899Y-17156367D01*
X33793465Y-17118674D01*
X33789000Y-17073339D01*
X33789000Y-15986661D01*
X33793465Y-15941326D01*
X33804899Y-15903633D01*
X33823466Y-15868897D01*
X33848452Y-15838452D01*
X33878897Y-15813466D01*
X33913633Y-15794899D01*
X33951326Y-15783465D01*
X33996661Y-15779000D01*
X34833339Y-15779000D01*
X34878674Y-15783465D01*
G37*
G36*
X46503674Y-15233465D02*
G01*
X46541367Y-15244899D01*
X46576103Y-15263466D01*
X46606548Y-15288452D01*
X46631534Y-15318897D01*
X46650101Y-15353633D01*
X46661535Y-15391326D01*
X46666000Y-15436661D01*
X46666000Y-16523339D01*
X46661535Y-16568674D01*
X46650101Y-16606367D01*
X46631534Y-16641103D01*
X46606548Y-16671548D01*
X46576103Y-16696534D01*
X46541367Y-16715101D01*
X46503674Y-16726535D01*
X46458339Y-16731000D01*
X45621661Y-16731000D01*
X45576326Y-16726535D01*
X45538633Y-16715101D01*
X45503897Y-16696534D01*
X45473452Y-16671548D01*
X45448466Y-16641103D01*
X45429899Y-16606367D01*
X45418465Y-16568674D01*
X45414000Y-16523339D01*
X45414000Y-15436661D01*
X45418465Y-15391326D01*
X45429899Y-15353633D01*
X45448466Y-15318897D01*
X45473452Y-15288452D01*
X45503897Y-15263466D01*
X45538633Y-15244899D01*
X45576326Y-15233465D01*
X45621661Y-15229000D01*
X46458339Y-15229000D01*
X46503674Y-15233465D01*
G37*
G36*
X44453674Y-15233465D02*
G01*
X44491367Y-15244899D01*
X44526103Y-15263466D01*
X44556548Y-15288452D01*
X44581534Y-15318897D01*
X44600101Y-15353633D01*
X44611535Y-15391326D01*
X44616000Y-15436661D01*
X44616000Y-16523339D01*
X44611535Y-16568674D01*
X44600101Y-16606367D01*
X44581534Y-16641103D01*
X44556548Y-16671548D01*
X44526103Y-16696534D01*
X44491367Y-16715101D01*
X44453674Y-16726535D01*
X44408339Y-16731000D01*
X43571661Y-16731000D01*
X43526326Y-16726535D01*
X43488633Y-16715101D01*
X43453897Y-16696534D01*
X43423452Y-16671548D01*
X43398466Y-16641103D01*
X43379899Y-16606367D01*
X43368465Y-16568674D01*
X43364000Y-16523339D01*
X43364000Y-15436661D01*
X43368465Y-15391326D01*
X43379899Y-15353633D01*
X43398466Y-15318897D01*
X43423452Y-15288452D01*
X43453897Y-15263466D01*
X43488633Y-15244899D01*
X43526326Y-15233465D01*
X43571661Y-15229000D01*
X44408339Y-15229000D01*
X44453674Y-15233465D01*
G37*
G36*
X22246564Y-14019389D02*
G01*
X22437833Y-14098615D01*
X22437835Y-14098616D01*
X22609973Y-14213635D01*
X22756365Y-14360027D01*
X22861377Y-14517188D01*
X22871385Y-14532167D01*
X22950611Y-14723436D01*
X22991000Y-14926484D01*
X22991000Y-15133516D01*
X22950611Y-15336564D01*
X22891259Y-15479852D01*
X22871384Y-15527835D01*
X22756365Y-15699973D01*
X22609973Y-15846365D01*
X22437835Y-15961384D01*
X22437834Y-15961385D01*
X22437833Y-15961385D01*
X22246564Y-16040611D01*
X22043516Y-16081000D01*
X21836484Y-16081000D01*
X21633436Y-16040611D01*
X21442167Y-15961385D01*
X21442166Y-15961385D01*
X21442165Y-15961384D01*
X21270027Y-15846365D01*
X21123635Y-15699973D01*
X21008616Y-15527835D01*
X20988741Y-15479852D01*
X20929389Y-15336564D01*
X20889000Y-15133516D01*
X20889000Y-14926484D01*
X20929389Y-14723436D01*
X21008615Y-14532167D01*
X21018624Y-14517188D01*
X21123635Y-14360027D01*
X21270027Y-14213635D01*
X21442165Y-14098616D01*
X21442167Y-14098615D01*
X21633436Y-14019389D01*
X21836484Y-13979000D01*
X22043516Y-13979000D01*
X22246564Y-14019389D01*
G37*
G36*
X15746564Y-14019389D02*
G01*
X15937833Y-14098615D01*
X15937835Y-14098616D01*
X16109973Y-14213635D01*
X16256365Y-14360027D01*
X16361377Y-14517188D01*
X16371385Y-14532167D01*
X16450611Y-14723436D01*
X16491000Y-14926484D01*
X16491000Y-15133516D01*
X16450611Y-15336564D01*
X16391259Y-15479852D01*
X16371384Y-15527835D01*
X16256365Y-15699973D01*
X16109973Y-15846365D01*
X15937835Y-15961384D01*
X15937834Y-15961385D01*
X15937833Y-15961385D01*
X15746564Y-16040611D01*
X15543516Y-16081000D01*
X15336484Y-16081000D01*
X15133436Y-16040611D01*
X14942167Y-15961385D01*
X14942166Y-15961385D01*
X14942165Y-15961384D01*
X14770027Y-15846365D01*
X14623635Y-15699973D01*
X14508616Y-15527835D01*
X14488741Y-15479852D01*
X14429389Y-15336564D01*
X14389000Y-15133516D01*
X14389000Y-14926484D01*
X14429389Y-14723436D01*
X14508615Y-14532167D01*
X14518624Y-14517188D01*
X14623635Y-14360027D01*
X14770027Y-14213635D01*
X14942165Y-14098616D01*
X14942167Y-14098615D01*
X15133436Y-14019389D01*
X15336484Y-13979000D01*
X15543516Y-13979000D01*
X15746564Y-14019389D01*
G37*
G36*
X63646564Y-13919389D02*
G01*
X63837833Y-13998615D01*
X63837835Y-13998616D01*
X63868924Y-14019389D01*
X64009973Y-14113635D01*
X64156365Y-14260027D01*
X64271385Y-14432167D01*
X64350611Y-14623436D01*
X64391000Y-14826484D01*
X64391000Y-15033516D01*
X64350611Y-15236564D01*
X64284149Y-15397017D01*
X64271384Y-15427835D01*
X64156365Y-15599973D01*
X64009973Y-15746365D01*
X63837835Y-15861384D01*
X63837834Y-15861385D01*
X63837833Y-15861385D01*
X63646564Y-15940611D01*
X63443516Y-15981000D01*
X63236484Y-15981000D01*
X63033436Y-15940611D01*
X62842167Y-15861385D01*
X62842166Y-15861385D01*
X62842165Y-15861384D01*
X62670027Y-15746365D01*
X62523635Y-15599973D01*
X62408616Y-15427835D01*
X62395851Y-15397017D01*
X62329389Y-15236564D01*
X62289000Y-15033516D01*
X62289000Y-14826484D01*
X62329389Y-14623436D01*
X62408615Y-14432167D01*
X62523635Y-14260027D01*
X62670027Y-14113635D01*
X62811076Y-14019389D01*
X62842165Y-13998616D01*
X62842167Y-13998615D01*
X63033436Y-13919389D01*
X63236484Y-13879000D01*
X63443516Y-13879000D01*
X63646564Y-13919389D01*
G37*
G36*
X57146564Y-13919389D02*
G01*
X57337833Y-13998615D01*
X57337835Y-13998616D01*
X57368924Y-14019389D01*
X57509973Y-14113635D01*
X57656365Y-14260027D01*
X57771385Y-14432167D01*
X57850611Y-14623436D01*
X57891000Y-14826484D01*
X57891000Y-15033516D01*
X57850611Y-15236564D01*
X57784149Y-15397017D01*
X57771384Y-15427835D01*
X57656365Y-15599973D01*
X57509973Y-15746365D01*
X57337835Y-15861384D01*
X57337834Y-15861385D01*
X57337833Y-15861385D01*
X57146564Y-15940611D01*
X56943516Y-15981000D01*
X56736484Y-15981000D01*
X56533436Y-15940611D01*
X56342167Y-15861385D01*
X56342166Y-15861385D01*
X56342165Y-15861384D01*
X56170027Y-15746365D01*
X56023635Y-15599973D01*
X55908616Y-15427835D01*
X55895851Y-15397017D01*
X55829389Y-15236564D01*
X55789000Y-15033516D01*
X55789000Y-14826484D01*
X55829389Y-14623436D01*
X55908615Y-14432167D01*
X56023635Y-14260027D01*
X56170027Y-14113635D01*
X56311076Y-14019389D01*
X56342165Y-13998616D01*
X56342167Y-13998615D01*
X56533436Y-13919389D01*
X56736484Y-13879000D01*
X56943516Y-13879000D01*
X57146564Y-13919389D01*
G37*
G36*
X25753512Y-13883927D02*
G01*
X25902812Y-13913624D01*
X26066784Y-13981544D01*
X26214354Y-14080147D01*
X26339853Y-14205646D01*
X26438456Y-14353216D01*
X26506376Y-14517188D01*
X26541000Y-14691259D01*
X26541000Y-14868741D01*
X26506376Y-15042812D01*
X26438456Y-15206784D01*
X26339853Y-15354354D01*
X26214354Y-15479853D01*
X26066784Y-15578456D01*
X25902812Y-15646376D01*
X25753512Y-15676073D01*
X25728742Y-15681000D01*
X25551258Y-15681000D01*
X25526488Y-15676073D01*
X25377188Y-15646376D01*
X25213216Y-15578456D01*
X25065646Y-15479853D01*
X24940147Y-15354354D01*
X24841544Y-15206784D01*
X24773624Y-15042812D01*
X24739000Y-14868741D01*
X24739000Y-14691259D01*
X24773624Y-14517188D01*
X24841544Y-14353216D01*
X24940147Y-14205646D01*
X25065646Y-14080147D01*
X25213216Y-13981544D01*
X25377188Y-13913624D01*
X25526488Y-13883927D01*
X25551258Y-13879000D01*
X25728742Y-13879000D01*
X25753512Y-13883927D01*
G37*
G36*
X50518674Y-14083465D02*
G01*
X50556367Y-14094899D01*
X50591103Y-14113466D01*
X50621548Y-14138452D01*
X50646534Y-14168897D01*
X50665101Y-14203633D01*
X50676535Y-14241326D01*
X50681000Y-14286661D01*
X50681000Y-15373339D01*
X50676535Y-15418674D01*
X50665101Y-15456367D01*
X50646534Y-15491103D01*
X50621548Y-15521548D01*
X50591103Y-15546534D01*
X50556367Y-15565101D01*
X50518674Y-15576535D01*
X50473339Y-15581000D01*
X49636661Y-15581000D01*
X49591326Y-15576535D01*
X49553633Y-15565101D01*
X49518897Y-15546534D01*
X49488452Y-15521548D01*
X49463466Y-15491103D01*
X49444899Y-15456367D01*
X49433465Y-15418674D01*
X49429000Y-15373339D01*
X49429000Y-14286661D01*
X49433465Y-14241326D01*
X49444899Y-14203633D01*
X49463466Y-14168897D01*
X49488452Y-14138452D01*
X49518897Y-14113466D01*
X49553633Y-14094899D01*
X49591326Y-14083465D01*
X49636661Y-14079000D01*
X50473339Y-14079000D01*
X50518674Y-14083465D01*
G37*
G36*
X48468674Y-14083465D02*
G01*
X48506367Y-14094899D01*
X48541103Y-14113466D01*
X48571548Y-14138452D01*
X48596534Y-14168897D01*
X48615101Y-14203633D01*
X48626535Y-14241326D01*
X48631000Y-14286661D01*
X48631000Y-15373339D01*
X48626535Y-15418674D01*
X48615101Y-15456367D01*
X48596534Y-15491103D01*
X48571548Y-15521548D01*
X48541103Y-15546534D01*
X48506367Y-15565101D01*
X48468674Y-15576535D01*
X48423339Y-15581000D01*
X47586661Y-15581000D01*
X47541326Y-15576535D01*
X47503633Y-15565101D01*
X47468897Y-15546534D01*
X47438452Y-15521548D01*
X47413466Y-15491103D01*
X47394899Y-15456367D01*
X47383465Y-15418674D01*
X47379000Y-15373339D01*
X47379000Y-14286661D01*
X47383465Y-14241326D01*
X47394899Y-14203633D01*
X47413466Y-14168897D01*
X47438452Y-14138452D01*
X47468897Y-14113466D01*
X47503633Y-14094899D01*
X47541326Y-14083465D01*
X47586661Y-14079000D01*
X48423339Y-14079000D01*
X48468674Y-14083465D01*
G37*
M02*
