G04 #@! TF.GenerationSoftware,KiCad,Pcbnew,(5.1.5-0-10_14)*
G04 #@! TF.CreationDate,2020-10-05T14:30:26+02:00*
G04 #@! TF.ProjectId,HB-RC-4-Dis-TH,48422d52-432d-4342-9d44-69732d54482e,rev?*
G04 #@! TF.SameCoordinates,Original*
G04 #@! TF.FileFunction,Soldermask,Top*
G04 #@! TF.FilePolarity,Negative*
%FSLAX46Y46*%
G04 Gerber Fmt 4.6, Leading zero omitted, Abs format (unit mm)*
G04 Created by KiCad (PCBNEW (5.1.5-0-10_14)) date 2020-10-05 14:30:26*
%MOMM*%
%LPD*%
G04 APERTURE LIST*
%ADD10C,0.100000*%
G04 APERTURE END LIST*
D10*
G36*
X63646564Y-61919389D02*
G01*
X63837833Y-61998615D01*
X63837835Y-61998616D01*
X63961517Y-62081258D01*
X64009973Y-62113635D01*
X64156365Y-62260027D01*
X64271385Y-62432167D01*
X64350611Y-62623436D01*
X64391000Y-62826484D01*
X64391000Y-63033516D01*
X64350611Y-63236564D01*
X64271385Y-63427833D01*
X64271384Y-63427835D01*
X64156365Y-63599973D01*
X64009973Y-63746365D01*
X63837835Y-63861384D01*
X63837834Y-63861385D01*
X63837833Y-63861385D01*
X63646564Y-63940611D01*
X63443516Y-63981000D01*
X63236484Y-63981000D01*
X63033436Y-63940611D01*
X62842167Y-63861385D01*
X62842166Y-63861385D01*
X62842165Y-63861384D01*
X62670027Y-63746365D01*
X62523635Y-63599973D01*
X62408616Y-63427835D01*
X62408615Y-63427833D01*
X62329389Y-63236564D01*
X62289000Y-63033516D01*
X62289000Y-62826484D01*
X62329389Y-62623436D01*
X62408615Y-62432167D01*
X62523635Y-62260027D01*
X62670027Y-62113635D01*
X62718483Y-62081258D01*
X62842165Y-61998616D01*
X62842167Y-61998615D01*
X63033436Y-61919389D01*
X63236484Y-61879000D01*
X63443516Y-61879000D01*
X63646564Y-61919389D01*
G37*
G36*
X57146564Y-61919389D02*
G01*
X57337833Y-61998615D01*
X57337835Y-61998616D01*
X57461517Y-62081258D01*
X57509973Y-62113635D01*
X57656365Y-62260027D01*
X57771385Y-62432167D01*
X57850611Y-62623436D01*
X57891000Y-62826484D01*
X57891000Y-63033516D01*
X57850611Y-63236564D01*
X57771385Y-63427833D01*
X57771384Y-63427835D01*
X57656365Y-63599973D01*
X57509973Y-63746365D01*
X57337835Y-63861384D01*
X57337834Y-63861385D01*
X57337833Y-63861385D01*
X57146564Y-63940611D01*
X56943516Y-63981000D01*
X56736484Y-63981000D01*
X56533436Y-63940611D01*
X56342167Y-63861385D01*
X56342166Y-63861385D01*
X56342165Y-63861384D01*
X56170027Y-63746365D01*
X56023635Y-63599973D01*
X55908616Y-63427835D01*
X55908615Y-63427833D01*
X55829389Y-63236564D01*
X55789000Y-63033516D01*
X55789000Y-62826484D01*
X55829389Y-62623436D01*
X55908615Y-62432167D01*
X56023635Y-62260027D01*
X56170027Y-62113635D01*
X56218483Y-62081258D01*
X56342165Y-61998616D01*
X56342167Y-61998615D01*
X56533436Y-61919389D01*
X56736484Y-61879000D01*
X56943516Y-61879000D01*
X57146564Y-61919389D01*
G37*
G36*
X41846564Y-61919389D02*
G01*
X42037833Y-61998615D01*
X42037835Y-61998616D01*
X42161517Y-62081258D01*
X42209973Y-62113635D01*
X42356365Y-62260027D01*
X42471385Y-62432167D01*
X42550611Y-62623436D01*
X42591000Y-62826484D01*
X42591000Y-63033516D01*
X42550611Y-63236564D01*
X42471385Y-63427833D01*
X42471384Y-63427835D01*
X42356365Y-63599973D01*
X42209973Y-63746365D01*
X42037835Y-63861384D01*
X42037834Y-63861385D01*
X42037833Y-63861385D01*
X41846564Y-63940611D01*
X41643516Y-63981000D01*
X41436484Y-63981000D01*
X41233436Y-63940611D01*
X41042167Y-63861385D01*
X41042166Y-63861385D01*
X41042165Y-63861384D01*
X40870027Y-63746365D01*
X40723635Y-63599973D01*
X40608616Y-63427835D01*
X40608615Y-63427833D01*
X40529389Y-63236564D01*
X40489000Y-63033516D01*
X40489000Y-62826484D01*
X40529389Y-62623436D01*
X40608615Y-62432167D01*
X40723635Y-62260027D01*
X40870027Y-62113635D01*
X40918483Y-62081258D01*
X41042165Y-61998616D01*
X41042167Y-61998615D01*
X41233436Y-61919389D01*
X41436484Y-61879000D01*
X41643516Y-61879000D01*
X41846564Y-61919389D01*
G37*
G36*
X37346564Y-61919389D02*
G01*
X37537833Y-61998615D01*
X37537835Y-61998616D01*
X37661517Y-62081258D01*
X37709973Y-62113635D01*
X37856365Y-62260027D01*
X37971385Y-62432167D01*
X38050611Y-62623436D01*
X38091000Y-62826484D01*
X38091000Y-63033516D01*
X38050611Y-63236564D01*
X37971385Y-63427833D01*
X37971384Y-63427835D01*
X37856365Y-63599973D01*
X37709973Y-63746365D01*
X37537835Y-63861384D01*
X37537834Y-63861385D01*
X37537833Y-63861385D01*
X37346564Y-63940611D01*
X37143516Y-63981000D01*
X36936484Y-63981000D01*
X36733436Y-63940611D01*
X36542167Y-63861385D01*
X36542166Y-63861385D01*
X36542165Y-63861384D01*
X36370027Y-63746365D01*
X36223635Y-63599973D01*
X36108616Y-63427835D01*
X36108615Y-63427833D01*
X36029389Y-63236564D01*
X35989000Y-63033516D01*
X35989000Y-62826484D01*
X36029389Y-62623436D01*
X36108615Y-62432167D01*
X36223635Y-62260027D01*
X36370027Y-62113635D01*
X36418483Y-62081258D01*
X36542165Y-61998616D01*
X36542167Y-61998615D01*
X36733436Y-61919389D01*
X36936484Y-61879000D01*
X37143516Y-61879000D01*
X37346564Y-61919389D01*
G37*
G36*
X22146564Y-61919389D02*
G01*
X22337833Y-61998615D01*
X22337835Y-61998616D01*
X22461517Y-62081258D01*
X22509973Y-62113635D01*
X22656365Y-62260027D01*
X22771385Y-62432167D01*
X22850611Y-62623436D01*
X22891000Y-62826484D01*
X22891000Y-63033516D01*
X22850611Y-63236564D01*
X22771385Y-63427833D01*
X22771384Y-63427835D01*
X22656365Y-63599973D01*
X22509973Y-63746365D01*
X22337835Y-63861384D01*
X22337834Y-63861385D01*
X22337833Y-63861385D01*
X22146564Y-63940611D01*
X21943516Y-63981000D01*
X21736484Y-63981000D01*
X21533436Y-63940611D01*
X21342167Y-63861385D01*
X21342166Y-63861385D01*
X21342165Y-63861384D01*
X21170027Y-63746365D01*
X21023635Y-63599973D01*
X20908616Y-63427835D01*
X20908615Y-63427833D01*
X20829389Y-63236564D01*
X20789000Y-63033516D01*
X20789000Y-62826484D01*
X20829389Y-62623436D01*
X20908615Y-62432167D01*
X21023635Y-62260027D01*
X21170027Y-62113635D01*
X21218483Y-62081258D01*
X21342165Y-61998616D01*
X21342167Y-61998615D01*
X21533436Y-61919389D01*
X21736484Y-61879000D01*
X21943516Y-61879000D01*
X22146564Y-61919389D01*
G37*
G36*
X15646564Y-61919389D02*
G01*
X15837833Y-61998615D01*
X15837835Y-61998616D01*
X15961517Y-62081258D01*
X16009973Y-62113635D01*
X16156365Y-62260027D01*
X16271385Y-62432167D01*
X16350611Y-62623436D01*
X16391000Y-62826484D01*
X16391000Y-63033516D01*
X16350611Y-63236564D01*
X16271385Y-63427833D01*
X16271384Y-63427835D01*
X16156365Y-63599973D01*
X16009973Y-63746365D01*
X15837835Y-63861384D01*
X15837834Y-63861385D01*
X15837833Y-63861385D01*
X15646564Y-63940611D01*
X15443516Y-63981000D01*
X15236484Y-63981000D01*
X15033436Y-63940611D01*
X14842167Y-63861385D01*
X14842166Y-63861385D01*
X14842165Y-63861384D01*
X14670027Y-63746365D01*
X14523635Y-63599973D01*
X14408616Y-63427835D01*
X14408615Y-63427833D01*
X14329389Y-63236564D01*
X14289000Y-63033516D01*
X14289000Y-62826484D01*
X14329389Y-62623436D01*
X14408615Y-62432167D01*
X14523635Y-62260027D01*
X14670027Y-62113635D01*
X14718483Y-62081258D01*
X14842165Y-61998616D01*
X14842167Y-61998615D01*
X15033436Y-61919389D01*
X15236484Y-61879000D01*
X15443516Y-61879000D01*
X15646564Y-61919389D01*
G37*
G36*
X47553512Y-61273927D02*
G01*
X47702812Y-61303624D01*
X47866784Y-61371544D01*
X48014354Y-61470147D01*
X48139853Y-61595646D01*
X48238456Y-61743216D01*
X48306376Y-61907188D01*
X48341000Y-62081259D01*
X48341000Y-62258741D01*
X48306376Y-62432812D01*
X48238456Y-62596784D01*
X48139853Y-62744354D01*
X48014354Y-62869853D01*
X47866784Y-62968456D01*
X47702812Y-63036376D01*
X47553512Y-63066073D01*
X47528742Y-63071000D01*
X47351258Y-63071000D01*
X47326488Y-63066073D01*
X47177188Y-63036376D01*
X47013216Y-62968456D01*
X46865646Y-62869853D01*
X46740147Y-62744354D01*
X46641544Y-62596784D01*
X46573624Y-62432812D01*
X46539000Y-62258741D01*
X46539000Y-62081259D01*
X46573624Y-61907188D01*
X46641544Y-61743216D01*
X46740147Y-61595646D01*
X46865646Y-61470147D01*
X47013216Y-61371544D01*
X47177188Y-61303624D01*
X47326488Y-61273927D01*
X47351258Y-61269000D01*
X47528742Y-61269000D01*
X47553512Y-61273927D01*
G37*
G36*
X26413512Y-61233927D02*
G01*
X26562812Y-61263624D01*
X26726784Y-61331544D01*
X26874354Y-61430147D01*
X26999853Y-61555646D01*
X27098456Y-61703216D01*
X27166376Y-61867188D01*
X27201000Y-62041259D01*
X27201000Y-62218741D01*
X27166376Y-62392812D01*
X27098456Y-62556784D01*
X26999853Y-62704354D01*
X26874354Y-62829853D01*
X26726784Y-62928456D01*
X26562812Y-62996376D01*
X26413512Y-63026073D01*
X26388742Y-63031000D01*
X26211258Y-63031000D01*
X26186488Y-63026073D01*
X26037188Y-62996376D01*
X25873216Y-62928456D01*
X25725646Y-62829853D01*
X25600147Y-62704354D01*
X25501544Y-62556784D01*
X25433624Y-62392812D01*
X25399000Y-62218741D01*
X25399000Y-62041259D01*
X25433624Y-61867188D01*
X25501544Y-61703216D01*
X25600147Y-61555646D01*
X25725646Y-61430147D01*
X25873216Y-61331544D01*
X26037188Y-61263624D01*
X26186488Y-61233927D01*
X26211258Y-61229000D01*
X26388742Y-61229000D01*
X26413512Y-61233927D01*
G37*
G36*
X35128674Y-59933465D02*
G01*
X35166367Y-59944899D01*
X35201103Y-59963466D01*
X35231548Y-59988452D01*
X35256534Y-60018897D01*
X35275101Y-60053633D01*
X35286535Y-60091326D01*
X35291000Y-60136661D01*
X35291000Y-60973339D01*
X35286535Y-61018674D01*
X35275101Y-61056367D01*
X35256534Y-61091103D01*
X35231548Y-61121548D01*
X35201103Y-61146534D01*
X35166367Y-61165101D01*
X35128674Y-61176535D01*
X35083339Y-61181000D01*
X33996661Y-61181000D01*
X33951326Y-61176535D01*
X33913633Y-61165101D01*
X33878897Y-61146534D01*
X33848452Y-61121548D01*
X33823466Y-61091103D01*
X33804899Y-61056367D01*
X33793465Y-61018674D01*
X33789000Y-60973339D01*
X33789000Y-60136661D01*
X33793465Y-60091326D01*
X33804899Y-60053633D01*
X33823466Y-60018897D01*
X33848452Y-59988452D01*
X33878897Y-59963466D01*
X33913633Y-59944899D01*
X33951326Y-59933465D01*
X33996661Y-59929000D01*
X35083339Y-59929000D01*
X35128674Y-59933465D01*
G37*
G36*
X44708674Y-59933465D02*
G01*
X44746367Y-59944899D01*
X44781103Y-59963466D01*
X44811548Y-59988452D01*
X44836534Y-60018897D01*
X44855101Y-60053633D01*
X44866535Y-60091326D01*
X44871000Y-60136661D01*
X44871000Y-60973339D01*
X44866535Y-61018674D01*
X44855101Y-61056367D01*
X44836534Y-61091103D01*
X44811548Y-61121548D01*
X44781103Y-61146534D01*
X44746367Y-61165101D01*
X44708674Y-61176535D01*
X44663339Y-61181000D01*
X43576661Y-61181000D01*
X43531326Y-61176535D01*
X43493633Y-61165101D01*
X43458897Y-61146534D01*
X43428452Y-61121548D01*
X43403466Y-61091103D01*
X43384899Y-61056367D01*
X43373465Y-61018674D01*
X43369000Y-60973339D01*
X43369000Y-60136661D01*
X43373465Y-60091326D01*
X43384899Y-60053633D01*
X43403466Y-60018897D01*
X43428452Y-59988452D01*
X43458897Y-59963466D01*
X43493633Y-59944899D01*
X43531326Y-59933465D01*
X43576661Y-59929000D01*
X44663339Y-59929000D01*
X44708674Y-59933465D01*
G37*
G36*
X48341000Y-60531000D02*
G01*
X46539000Y-60531000D01*
X46539000Y-58729000D01*
X48341000Y-58729000D01*
X48341000Y-60531000D01*
G37*
G36*
X27201000Y-60491000D02*
G01*
X25399000Y-60491000D01*
X25399000Y-58689000D01*
X27201000Y-58689000D01*
X27201000Y-60491000D01*
G37*
G36*
X15646564Y-57419389D02*
G01*
X15837833Y-57498615D01*
X15837835Y-57498616D01*
X16009973Y-57613635D01*
X16156365Y-57760027D01*
X16258890Y-57913466D01*
X16271385Y-57932167D01*
X16350611Y-58123436D01*
X16391000Y-58326484D01*
X16391000Y-58533516D01*
X16350611Y-58736564D01*
X16299968Y-58858827D01*
X16271384Y-58927835D01*
X16156365Y-59099973D01*
X16009973Y-59246365D01*
X15837835Y-59361384D01*
X15837834Y-59361385D01*
X15837833Y-59361385D01*
X15646564Y-59440611D01*
X15443516Y-59481000D01*
X15236484Y-59481000D01*
X15033436Y-59440611D01*
X14842167Y-59361385D01*
X14842166Y-59361385D01*
X14842165Y-59361384D01*
X14670027Y-59246365D01*
X14523635Y-59099973D01*
X14408616Y-58927835D01*
X14380032Y-58858827D01*
X14329389Y-58736564D01*
X14289000Y-58533516D01*
X14289000Y-58326484D01*
X14329389Y-58123436D01*
X14408615Y-57932167D01*
X14421111Y-57913466D01*
X14523635Y-57760027D01*
X14670027Y-57613635D01*
X14842165Y-57498616D01*
X14842167Y-57498615D01*
X15033436Y-57419389D01*
X15236484Y-57379000D01*
X15443516Y-57379000D01*
X15646564Y-57419389D01*
G37*
G36*
X22146564Y-57419389D02*
G01*
X22337833Y-57498615D01*
X22337835Y-57498616D01*
X22509973Y-57613635D01*
X22656365Y-57760027D01*
X22758890Y-57913466D01*
X22771385Y-57932167D01*
X22850611Y-58123436D01*
X22891000Y-58326484D01*
X22891000Y-58533516D01*
X22850611Y-58736564D01*
X22799968Y-58858827D01*
X22771384Y-58927835D01*
X22656365Y-59099973D01*
X22509973Y-59246365D01*
X22337835Y-59361384D01*
X22337834Y-59361385D01*
X22337833Y-59361385D01*
X22146564Y-59440611D01*
X21943516Y-59481000D01*
X21736484Y-59481000D01*
X21533436Y-59440611D01*
X21342167Y-59361385D01*
X21342166Y-59361385D01*
X21342165Y-59361384D01*
X21170027Y-59246365D01*
X21023635Y-59099973D01*
X20908616Y-58927835D01*
X20880032Y-58858827D01*
X20829389Y-58736564D01*
X20789000Y-58533516D01*
X20789000Y-58326484D01*
X20829389Y-58123436D01*
X20908615Y-57932167D01*
X20921111Y-57913466D01*
X21023635Y-57760027D01*
X21170027Y-57613635D01*
X21342165Y-57498616D01*
X21342167Y-57498615D01*
X21533436Y-57419389D01*
X21736484Y-57379000D01*
X21943516Y-57379000D01*
X22146564Y-57419389D01*
G37*
G36*
X57146564Y-57419389D02*
G01*
X57337833Y-57498615D01*
X57337835Y-57498616D01*
X57509973Y-57613635D01*
X57656365Y-57760027D01*
X57758890Y-57913466D01*
X57771385Y-57932167D01*
X57850611Y-58123436D01*
X57891000Y-58326484D01*
X57891000Y-58533516D01*
X57850611Y-58736564D01*
X57799968Y-58858827D01*
X57771384Y-58927835D01*
X57656365Y-59099973D01*
X57509973Y-59246365D01*
X57337835Y-59361384D01*
X57337834Y-59361385D01*
X57337833Y-59361385D01*
X57146564Y-59440611D01*
X56943516Y-59481000D01*
X56736484Y-59481000D01*
X56533436Y-59440611D01*
X56342167Y-59361385D01*
X56342166Y-59361385D01*
X56342165Y-59361384D01*
X56170027Y-59246365D01*
X56023635Y-59099973D01*
X55908616Y-58927835D01*
X55880032Y-58858827D01*
X55829389Y-58736564D01*
X55789000Y-58533516D01*
X55789000Y-58326484D01*
X55829389Y-58123436D01*
X55908615Y-57932167D01*
X55921111Y-57913466D01*
X56023635Y-57760027D01*
X56170027Y-57613635D01*
X56342165Y-57498616D01*
X56342167Y-57498615D01*
X56533436Y-57419389D01*
X56736484Y-57379000D01*
X56943516Y-57379000D01*
X57146564Y-57419389D01*
G37*
G36*
X63646564Y-57419389D02*
G01*
X63837833Y-57498615D01*
X63837835Y-57498616D01*
X64009973Y-57613635D01*
X64156365Y-57760027D01*
X64258890Y-57913466D01*
X64271385Y-57932167D01*
X64350611Y-58123436D01*
X64391000Y-58326484D01*
X64391000Y-58533516D01*
X64350611Y-58736564D01*
X64299968Y-58858827D01*
X64271384Y-58927835D01*
X64156365Y-59099973D01*
X64009973Y-59246365D01*
X63837835Y-59361384D01*
X63837834Y-59361385D01*
X63837833Y-59361385D01*
X63646564Y-59440611D01*
X63443516Y-59481000D01*
X63236484Y-59481000D01*
X63033436Y-59440611D01*
X62842167Y-59361385D01*
X62842166Y-59361385D01*
X62842165Y-59361384D01*
X62670027Y-59246365D01*
X62523635Y-59099973D01*
X62408616Y-58927835D01*
X62380032Y-58858827D01*
X62329389Y-58736564D01*
X62289000Y-58533516D01*
X62289000Y-58326484D01*
X62329389Y-58123436D01*
X62408615Y-57932167D01*
X62421111Y-57913466D01*
X62523635Y-57760027D01*
X62670027Y-57613635D01*
X62842165Y-57498616D01*
X62842167Y-57498615D01*
X63033436Y-57419389D01*
X63236484Y-57379000D01*
X63443516Y-57379000D01*
X63646564Y-57419389D01*
G37*
G36*
X35128674Y-57883465D02*
G01*
X35166367Y-57894899D01*
X35201103Y-57913466D01*
X35231548Y-57938452D01*
X35256534Y-57968897D01*
X35275101Y-58003633D01*
X35286535Y-58041326D01*
X35291000Y-58086661D01*
X35291000Y-58923339D01*
X35286535Y-58968674D01*
X35275101Y-59006367D01*
X35256534Y-59041103D01*
X35231548Y-59071548D01*
X35201103Y-59096534D01*
X35166367Y-59115101D01*
X35128674Y-59126535D01*
X35083339Y-59131000D01*
X33996661Y-59131000D01*
X33951326Y-59126535D01*
X33913633Y-59115101D01*
X33878897Y-59096534D01*
X33848452Y-59071548D01*
X33823466Y-59041103D01*
X33804899Y-59006367D01*
X33793465Y-58968674D01*
X33789000Y-58923339D01*
X33789000Y-58086661D01*
X33793465Y-58041326D01*
X33804899Y-58003633D01*
X33823466Y-57968897D01*
X33848452Y-57938452D01*
X33878897Y-57913466D01*
X33913633Y-57894899D01*
X33951326Y-57883465D01*
X33996661Y-57879000D01*
X35083339Y-57879000D01*
X35128674Y-57883465D01*
G37*
G36*
X44708674Y-57883465D02*
G01*
X44746367Y-57894899D01*
X44781103Y-57913466D01*
X44811548Y-57938452D01*
X44836534Y-57968897D01*
X44855101Y-58003633D01*
X44866535Y-58041326D01*
X44871000Y-58086661D01*
X44871000Y-58923339D01*
X44866535Y-58968674D01*
X44855101Y-59006367D01*
X44836534Y-59041103D01*
X44811548Y-59071548D01*
X44781103Y-59096534D01*
X44746367Y-59115101D01*
X44708674Y-59126535D01*
X44663339Y-59131000D01*
X43576661Y-59131000D01*
X43531326Y-59126535D01*
X43493633Y-59115101D01*
X43458897Y-59096534D01*
X43428452Y-59071548D01*
X43403466Y-59041103D01*
X43384899Y-59006367D01*
X43373465Y-58968674D01*
X43369000Y-58923339D01*
X43369000Y-58086661D01*
X43373465Y-58041326D01*
X43384899Y-58003633D01*
X43403466Y-57968897D01*
X43428452Y-57938452D01*
X43458897Y-57913466D01*
X43493633Y-57894899D01*
X43531326Y-57883465D01*
X43576661Y-57879000D01*
X44663339Y-57879000D01*
X44708674Y-57883465D01*
G37*
G36*
X37346564Y-55419389D02*
G01*
X37537833Y-55498615D01*
X37537835Y-55498616D01*
X37709973Y-55613635D01*
X37856365Y-55760027D01*
X37971385Y-55932167D01*
X38050611Y-56123436D01*
X38091000Y-56326484D01*
X38091000Y-56533516D01*
X38050611Y-56736564D01*
X37971385Y-56927833D01*
X37971384Y-56927835D01*
X37856365Y-57099973D01*
X37709973Y-57246365D01*
X37537835Y-57361384D01*
X37537834Y-57361385D01*
X37537833Y-57361385D01*
X37346564Y-57440611D01*
X37143516Y-57481000D01*
X36936484Y-57481000D01*
X36733436Y-57440611D01*
X36542167Y-57361385D01*
X36542166Y-57361385D01*
X36542165Y-57361384D01*
X36370027Y-57246365D01*
X36223635Y-57099973D01*
X36108616Y-56927835D01*
X36108615Y-56927833D01*
X36029389Y-56736564D01*
X35989000Y-56533516D01*
X35989000Y-56326484D01*
X36029389Y-56123436D01*
X36108615Y-55932167D01*
X36223635Y-55760027D01*
X36370027Y-55613635D01*
X36542165Y-55498616D01*
X36542167Y-55498615D01*
X36733436Y-55419389D01*
X36936484Y-55379000D01*
X37143516Y-55379000D01*
X37346564Y-55419389D01*
G37*
G36*
X41846564Y-55419389D02*
G01*
X42037833Y-55498615D01*
X42037835Y-55498616D01*
X42209973Y-55613635D01*
X42356365Y-55760027D01*
X42471385Y-55932167D01*
X42550611Y-56123436D01*
X42591000Y-56326484D01*
X42591000Y-56533516D01*
X42550611Y-56736564D01*
X42471385Y-56927833D01*
X42471384Y-56927835D01*
X42356365Y-57099973D01*
X42209973Y-57246365D01*
X42037835Y-57361384D01*
X42037834Y-57361385D01*
X42037833Y-57361385D01*
X41846564Y-57440611D01*
X41643516Y-57481000D01*
X41436484Y-57481000D01*
X41233436Y-57440611D01*
X41042167Y-57361385D01*
X41042166Y-57361385D01*
X41042165Y-57361384D01*
X40870027Y-57246365D01*
X40723635Y-57099973D01*
X40608616Y-56927835D01*
X40608615Y-56927833D01*
X40529389Y-56736564D01*
X40489000Y-56533516D01*
X40489000Y-56326484D01*
X40529389Y-56123436D01*
X40608615Y-55932167D01*
X40723635Y-55760027D01*
X40870027Y-55613635D01*
X41042165Y-55498616D01*
X41042167Y-55498615D01*
X41233436Y-55419389D01*
X41436484Y-55379000D01*
X41643516Y-55379000D01*
X41846564Y-55419389D01*
G37*
G36*
X29641000Y-52131000D02*
G01*
X27839000Y-52131000D01*
X27839000Y-50329000D01*
X29641000Y-50329000D01*
X29641000Y-52131000D01*
G37*
G36*
X26313512Y-50333927D02*
G01*
X26462812Y-50363624D01*
X26626784Y-50431544D01*
X26774354Y-50530147D01*
X26899853Y-50655646D01*
X26998456Y-50803216D01*
X27066376Y-50967188D01*
X27101000Y-51141259D01*
X27101000Y-51318741D01*
X27066376Y-51492812D01*
X26998456Y-51656784D01*
X26899853Y-51804354D01*
X26774354Y-51929853D01*
X26626784Y-52028456D01*
X26462812Y-52096376D01*
X26313512Y-52126073D01*
X26288742Y-52131000D01*
X26111258Y-52131000D01*
X26086488Y-52126073D01*
X25937188Y-52096376D01*
X25773216Y-52028456D01*
X25625646Y-51929853D01*
X25500147Y-51804354D01*
X25401544Y-51656784D01*
X25333624Y-51492812D01*
X25299000Y-51318741D01*
X25299000Y-51141259D01*
X25333624Y-50967188D01*
X25401544Y-50803216D01*
X25500147Y-50655646D01*
X25625646Y-50530147D01*
X25773216Y-50431544D01*
X25937188Y-50363624D01*
X26086488Y-50333927D01*
X26111258Y-50329000D01*
X26288742Y-50329000D01*
X26313512Y-50333927D01*
G37*
G36*
X23773512Y-50333927D02*
G01*
X23922812Y-50363624D01*
X24086784Y-50431544D01*
X24234354Y-50530147D01*
X24359853Y-50655646D01*
X24458456Y-50803216D01*
X24526376Y-50967188D01*
X24561000Y-51141259D01*
X24561000Y-51318741D01*
X24526376Y-51492812D01*
X24458456Y-51656784D01*
X24359853Y-51804354D01*
X24234354Y-51929853D01*
X24086784Y-52028456D01*
X23922812Y-52096376D01*
X23773512Y-52126073D01*
X23748742Y-52131000D01*
X23571258Y-52131000D01*
X23546488Y-52126073D01*
X23397188Y-52096376D01*
X23233216Y-52028456D01*
X23085646Y-51929853D01*
X22960147Y-51804354D01*
X22861544Y-51656784D01*
X22793624Y-51492812D01*
X22759000Y-51318741D01*
X22759000Y-51141259D01*
X22793624Y-50967188D01*
X22861544Y-50803216D01*
X22960147Y-50655646D01*
X23085646Y-50530147D01*
X23233216Y-50431544D01*
X23397188Y-50363624D01*
X23546488Y-50333927D01*
X23571258Y-50329000D01*
X23748742Y-50329000D01*
X23773512Y-50333927D01*
G37*
G36*
X21233512Y-50333927D02*
G01*
X21382812Y-50363624D01*
X21546784Y-50431544D01*
X21694354Y-50530147D01*
X21819853Y-50655646D01*
X21918456Y-50803216D01*
X21986376Y-50967188D01*
X22021000Y-51141259D01*
X22021000Y-51318741D01*
X21986376Y-51492812D01*
X21918456Y-51656784D01*
X21819853Y-51804354D01*
X21694354Y-51929853D01*
X21546784Y-52028456D01*
X21382812Y-52096376D01*
X21233512Y-52126073D01*
X21208742Y-52131000D01*
X21031258Y-52131000D01*
X21006488Y-52126073D01*
X20857188Y-52096376D01*
X20693216Y-52028456D01*
X20545646Y-51929853D01*
X20420147Y-51804354D01*
X20321544Y-51656784D01*
X20253624Y-51492812D01*
X20219000Y-51318741D01*
X20219000Y-51141259D01*
X20253624Y-50967188D01*
X20321544Y-50803216D01*
X20420147Y-50655646D01*
X20545646Y-50530147D01*
X20693216Y-50431544D01*
X20857188Y-50363624D01*
X21006488Y-50333927D01*
X21031258Y-50329000D01*
X21208742Y-50329000D01*
X21233512Y-50333927D01*
G37*
G36*
X16153512Y-50333927D02*
G01*
X16302812Y-50363624D01*
X16466784Y-50431544D01*
X16614354Y-50530147D01*
X16739853Y-50655646D01*
X16838456Y-50803216D01*
X16906376Y-50967188D01*
X16941000Y-51141259D01*
X16941000Y-51318741D01*
X16906376Y-51492812D01*
X16838456Y-51656784D01*
X16739853Y-51804354D01*
X16614354Y-51929853D01*
X16466784Y-52028456D01*
X16302812Y-52096376D01*
X16153512Y-52126073D01*
X16128742Y-52131000D01*
X15951258Y-52131000D01*
X15926488Y-52126073D01*
X15777188Y-52096376D01*
X15613216Y-52028456D01*
X15465646Y-51929853D01*
X15340147Y-51804354D01*
X15241544Y-51656784D01*
X15173624Y-51492812D01*
X15139000Y-51318741D01*
X15139000Y-51141259D01*
X15173624Y-50967188D01*
X15241544Y-50803216D01*
X15340147Y-50655646D01*
X15465646Y-50530147D01*
X15613216Y-50431544D01*
X15777188Y-50363624D01*
X15926488Y-50333927D01*
X15951258Y-50329000D01*
X16128742Y-50329000D01*
X16153512Y-50333927D01*
G37*
G36*
X18693512Y-50333927D02*
G01*
X18842812Y-50363624D01*
X19006784Y-50431544D01*
X19154354Y-50530147D01*
X19279853Y-50655646D01*
X19378456Y-50803216D01*
X19446376Y-50967188D01*
X19481000Y-51141259D01*
X19481000Y-51318741D01*
X19446376Y-51492812D01*
X19378456Y-51656784D01*
X19279853Y-51804354D01*
X19154354Y-51929853D01*
X19006784Y-52028456D01*
X18842812Y-52096376D01*
X18693512Y-52126073D01*
X18668742Y-52131000D01*
X18491258Y-52131000D01*
X18466488Y-52126073D01*
X18317188Y-52096376D01*
X18153216Y-52028456D01*
X18005646Y-51929853D01*
X17880147Y-51804354D01*
X17781544Y-51656784D01*
X17713624Y-51492812D01*
X17679000Y-51318741D01*
X17679000Y-51141259D01*
X17713624Y-50967188D01*
X17781544Y-50803216D01*
X17880147Y-50655646D01*
X18005646Y-50530147D01*
X18153216Y-50431544D01*
X18317188Y-50363624D01*
X18466488Y-50333927D01*
X18491258Y-50329000D01*
X18668742Y-50329000D01*
X18693512Y-50333927D01*
G37*
G36*
X56691000Y-47531000D02*
G01*
X52589000Y-47531000D01*
X52589000Y-45629000D01*
X56691000Y-45629000D01*
X56691000Y-47531000D01*
G37*
G36*
X38791000Y-46656000D02*
G01*
X36768494Y-46656000D01*
X36628234Y-46628101D01*
X36496112Y-46573374D01*
X36496111Y-46573374D01*
X36496110Y-46573373D01*
X36377202Y-46493921D01*
X36276079Y-46392798D01*
X36196627Y-46273890D01*
X36196626Y-46273888D01*
X36141899Y-46141766D01*
X36114000Y-46001506D01*
X36114000Y-45858494D01*
X36141899Y-45718234D01*
X36196626Y-45586112D01*
X36276078Y-45467204D01*
X36276079Y-45467202D01*
X36377202Y-45366079D01*
X36496110Y-45286627D01*
X36496112Y-45286626D01*
X36628234Y-45231899D01*
X36768494Y-45204000D01*
X38791000Y-45204000D01*
X38791000Y-46656000D01*
G37*
G36*
X52091000Y-44881000D02*
G01*
X50689000Y-44881000D01*
X50689000Y-32979000D01*
X52091000Y-32979000D01*
X52091000Y-44881000D01*
G37*
G36*
X38791000Y-44656000D02*
G01*
X36768494Y-44656000D01*
X36628234Y-44628101D01*
X36496112Y-44573374D01*
X36496111Y-44573374D01*
X36496110Y-44573373D01*
X36377202Y-44493921D01*
X36276079Y-44392798D01*
X36196627Y-44273890D01*
X36196626Y-44273888D01*
X36141899Y-44141766D01*
X36114000Y-44001506D01*
X36114000Y-43858494D01*
X36141899Y-43718234D01*
X36196626Y-43586112D01*
X36276078Y-43467204D01*
X36276079Y-43467202D01*
X36377202Y-43366079D01*
X36496110Y-43286627D01*
X36496112Y-43286626D01*
X36628234Y-43231899D01*
X36768494Y-43204000D01*
X38791000Y-43204000D01*
X38791000Y-44656000D01*
G37*
G36*
X38791000Y-42656000D02*
G01*
X36768494Y-42656000D01*
X36628234Y-42628101D01*
X36496112Y-42573374D01*
X36496111Y-42573374D01*
X36496110Y-42573373D01*
X36377202Y-42493921D01*
X36276079Y-42392798D01*
X36196627Y-42273890D01*
X36196626Y-42273888D01*
X36141899Y-42141766D01*
X36114000Y-42001506D01*
X36114000Y-41858494D01*
X36141899Y-41718234D01*
X36196626Y-41586112D01*
X36276078Y-41467204D01*
X36276079Y-41467202D01*
X36377202Y-41366079D01*
X36496110Y-41286627D01*
X36496112Y-41286626D01*
X36628234Y-41231899D01*
X36768494Y-41204000D01*
X38791000Y-41204000D01*
X38791000Y-42656000D01*
G37*
G36*
X38791000Y-40656000D02*
G01*
X36768494Y-40656000D01*
X36628234Y-40628101D01*
X36496112Y-40573374D01*
X36496111Y-40573374D01*
X36496110Y-40573373D01*
X36377202Y-40493921D01*
X36276079Y-40392798D01*
X36196627Y-40273890D01*
X36196626Y-40273888D01*
X36141899Y-40141766D01*
X36114000Y-40001506D01*
X36114000Y-39858494D01*
X36141899Y-39718234D01*
X36196626Y-39586112D01*
X36276078Y-39467204D01*
X36276079Y-39467202D01*
X36377202Y-39366079D01*
X36496110Y-39286627D01*
X36496112Y-39286626D01*
X36628234Y-39231899D01*
X36768494Y-39204000D01*
X38791000Y-39204000D01*
X38791000Y-40656000D01*
G37*
G36*
X38791000Y-38656000D02*
G01*
X36768494Y-38656000D01*
X36628234Y-38628101D01*
X36496112Y-38573374D01*
X36496111Y-38573374D01*
X36496110Y-38573373D01*
X36377202Y-38493921D01*
X36276079Y-38392798D01*
X36196627Y-38273890D01*
X36196626Y-38273888D01*
X36141899Y-38141766D01*
X36114000Y-38001506D01*
X36114000Y-37858494D01*
X36141899Y-37718234D01*
X36196626Y-37586112D01*
X36276078Y-37467204D01*
X36276079Y-37467202D01*
X36377202Y-37366079D01*
X36496110Y-37286627D01*
X36496112Y-37286626D01*
X36628234Y-37231899D01*
X36768494Y-37204000D01*
X38791000Y-37204000D01*
X38791000Y-38656000D01*
G37*
G36*
X38791000Y-36656000D02*
G01*
X36768494Y-36656000D01*
X36628234Y-36628101D01*
X36496112Y-36573374D01*
X36496111Y-36573374D01*
X36496110Y-36573373D01*
X36377202Y-36493921D01*
X36276079Y-36392798D01*
X36196627Y-36273890D01*
X36196626Y-36273888D01*
X36141899Y-36141766D01*
X36114000Y-36001506D01*
X36114000Y-35858494D01*
X36141899Y-35718234D01*
X36196626Y-35586112D01*
X36276078Y-35467204D01*
X36276079Y-35467202D01*
X36377202Y-35366079D01*
X36496110Y-35286627D01*
X36496112Y-35286626D01*
X36628234Y-35231899D01*
X36768494Y-35204000D01*
X38791000Y-35204000D01*
X38791000Y-36656000D01*
G37*
G36*
X38791000Y-34656000D02*
G01*
X36768494Y-34656000D01*
X36628234Y-34628101D01*
X36496112Y-34573374D01*
X36496111Y-34573374D01*
X36496110Y-34573373D01*
X36377202Y-34493921D01*
X36276079Y-34392798D01*
X36196627Y-34273890D01*
X36196626Y-34273888D01*
X36141899Y-34141766D01*
X36114000Y-34001506D01*
X36114000Y-33858494D01*
X36141899Y-33718234D01*
X36196626Y-33586112D01*
X36276078Y-33467204D01*
X36276079Y-33467202D01*
X36377202Y-33366079D01*
X36496110Y-33286627D01*
X36496112Y-33286626D01*
X36628234Y-33231899D01*
X36768494Y-33204000D01*
X38791000Y-33204000D01*
X38791000Y-34656000D01*
G37*
G36*
X38791000Y-32656000D02*
G01*
X36768494Y-32656000D01*
X36628234Y-32628101D01*
X36496112Y-32573374D01*
X36496111Y-32573374D01*
X36496110Y-32573373D01*
X36377202Y-32493921D01*
X36276079Y-32392798D01*
X36196627Y-32273890D01*
X36196626Y-32273888D01*
X36141899Y-32141766D01*
X36114000Y-32001506D01*
X36114000Y-31858494D01*
X36141899Y-31718234D01*
X36196626Y-31586112D01*
X36276078Y-31467204D01*
X36276079Y-31467202D01*
X36377202Y-31366079D01*
X36496110Y-31286627D01*
X36496112Y-31286626D01*
X36628234Y-31231899D01*
X36768494Y-31204000D01*
X38791000Y-31204000D01*
X38791000Y-32656000D01*
G37*
G36*
X56691000Y-32231000D02*
G01*
X52589000Y-32231000D01*
X52589000Y-30329000D01*
X56691000Y-30329000D01*
X56691000Y-32231000D01*
G37*
G36*
X25753512Y-21503927D02*
G01*
X25902812Y-21533624D01*
X26066784Y-21601544D01*
X26214354Y-21700147D01*
X26339853Y-21825646D01*
X26438456Y-21973216D01*
X26506376Y-22137188D01*
X26541000Y-22311259D01*
X26541000Y-22488741D01*
X26506376Y-22662812D01*
X26438456Y-22826784D01*
X26339853Y-22974354D01*
X26214354Y-23099853D01*
X26066784Y-23198456D01*
X25902812Y-23266376D01*
X25753512Y-23296073D01*
X25728742Y-23301000D01*
X25551258Y-23301000D01*
X25526488Y-23296073D01*
X25377188Y-23266376D01*
X25213216Y-23198456D01*
X25065646Y-23099853D01*
X24940147Y-22974354D01*
X24841544Y-22826784D01*
X24773624Y-22662812D01*
X24739000Y-22488741D01*
X24739000Y-22311259D01*
X24773624Y-22137188D01*
X24841544Y-21973216D01*
X24940147Y-21825646D01*
X25065646Y-21700147D01*
X25213216Y-21601544D01*
X25377188Y-21533624D01*
X25526488Y-21503927D01*
X25551258Y-21499000D01*
X25728742Y-21499000D01*
X25753512Y-21503927D01*
G37*
G36*
X25753512Y-18963927D02*
G01*
X25902812Y-18993624D01*
X26066784Y-19061544D01*
X26214354Y-19160147D01*
X26339853Y-19285646D01*
X26438456Y-19433216D01*
X26506376Y-19597188D01*
X26541000Y-19771259D01*
X26541000Y-19948741D01*
X26506376Y-20122812D01*
X26438456Y-20286784D01*
X26339853Y-20434354D01*
X26214354Y-20559853D01*
X26066784Y-20658456D01*
X25902812Y-20726376D01*
X25753512Y-20756073D01*
X25728742Y-20761000D01*
X25551258Y-20761000D01*
X25526488Y-20756073D01*
X25377188Y-20726376D01*
X25213216Y-20658456D01*
X25065646Y-20559853D01*
X24940147Y-20434354D01*
X24841544Y-20286784D01*
X24773624Y-20122812D01*
X24739000Y-19948741D01*
X24739000Y-19771259D01*
X24773624Y-19597188D01*
X24841544Y-19433216D01*
X24940147Y-19285646D01*
X25065646Y-19160147D01*
X25213216Y-19061544D01*
X25377188Y-18993624D01*
X25526488Y-18963927D01*
X25551258Y-18959000D01*
X25728742Y-18959000D01*
X25753512Y-18963927D01*
G37*
G36*
X46661000Y-20721000D02*
G01*
X44559000Y-20721000D01*
X44559000Y-19979000D01*
X46661000Y-19979000D01*
X46661000Y-20721000D01*
G37*
G36*
X52961000Y-20721000D02*
G01*
X50859000Y-20721000D01*
X50859000Y-19979000D01*
X52961000Y-19979000D01*
X52961000Y-20721000D01*
G37*
G36*
X15746564Y-18519389D02*
G01*
X15937833Y-18598615D01*
X15937835Y-18598616D01*
X16109973Y-18713635D01*
X16256365Y-18860027D01*
X16345632Y-18993624D01*
X16371385Y-19032167D01*
X16450611Y-19223436D01*
X16491000Y-19426484D01*
X16491000Y-19633516D01*
X16450611Y-19836564D01*
X16412806Y-19927833D01*
X16371384Y-20027835D01*
X16256365Y-20199973D01*
X16109973Y-20346365D01*
X15937835Y-20461384D01*
X15937834Y-20461385D01*
X15937833Y-20461385D01*
X15746564Y-20540611D01*
X15543516Y-20581000D01*
X15336484Y-20581000D01*
X15133436Y-20540611D01*
X14942167Y-20461385D01*
X14942166Y-20461385D01*
X14942165Y-20461384D01*
X14770027Y-20346365D01*
X14623635Y-20199973D01*
X14508616Y-20027835D01*
X14467194Y-19927833D01*
X14429389Y-19836564D01*
X14389000Y-19633516D01*
X14389000Y-19426484D01*
X14429389Y-19223436D01*
X14508615Y-19032167D01*
X14534369Y-18993624D01*
X14623635Y-18860027D01*
X14770027Y-18713635D01*
X14942165Y-18598616D01*
X14942167Y-18598615D01*
X15133436Y-18519389D01*
X15336484Y-18479000D01*
X15543516Y-18479000D01*
X15746564Y-18519389D01*
G37*
G36*
X22246564Y-18519389D02*
G01*
X22437833Y-18598615D01*
X22437835Y-18598616D01*
X22609973Y-18713635D01*
X22756365Y-18860027D01*
X22845632Y-18993624D01*
X22871385Y-19032167D01*
X22950611Y-19223436D01*
X22991000Y-19426484D01*
X22991000Y-19633516D01*
X22950611Y-19836564D01*
X22912806Y-19927833D01*
X22871384Y-20027835D01*
X22756365Y-20199973D01*
X22609973Y-20346365D01*
X22437835Y-20461384D01*
X22437834Y-20461385D01*
X22437833Y-20461385D01*
X22246564Y-20540611D01*
X22043516Y-20581000D01*
X21836484Y-20581000D01*
X21633436Y-20540611D01*
X21442167Y-20461385D01*
X21442166Y-20461385D01*
X21442165Y-20461384D01*
X21270027Y-20346365D01*
X21123635Y-20199973D01*
X21008616Y-20027835D01*
X20967194Y-19927833D01*
X20929389Y-19836564D01*
X20889000Y-19633516D01*
X20889000Y-19426484D01*
X20929389Y-19223436D01*
X21008615Y-19032167D01*
X21034369Y-18993624D01*
X21123635Y-18860027D01*
X21270027Y-18713635D01*
X21442165Y-18598616D01*
X21442167Y-18598615D01*
X21633436Y-18519389D01*
X21836484Y-18479000D01*
X22043516Y-18479000D01*
X22246564Y-18519389D01*
G37*
G36*
X63646564Y-18419389D02*
G01*
X63837833Y-18498615D01*
X63837835Y-18498616D01*
X63868924Y-18519389D01*
X64009973Y-18613635D01*
X64156365Y-18760027D01*
X64271385Y-18932167D01*
X64350611Y-19123436D01*
X64391000Y-19326484D01*
X64391000Y-19533516D01*
X64350611Y-19736564D01*
X64309189Y-19836565D01*
X64271384Y-19927835D01*
X64156365Y-20099973D01*
X64009973Y-20246365D01*
X63837835Y-20361384D01*
X63837834Y-20361385D01*
X63837833Y-20361385D01*
X63646564Y-20440611D01*
X63443516Y-20481000D01*
X63236484Y-20481000D01*
X63033436Y-20440611D01*
X62842167Y-20361385D01*
X62842166Y-20361385D01*
X62842165Y-20361384D01*
X62670027Y-20246365D01*
X62523635Y-20099973D01*
X62408616Y-19927835D01*
X62370811Y-19836565D01*
X62329389Y-19736564D01*
X62289000Y-19533516D01*
X62289000Y-19326484D01*
X62329389Y-19123436D01*
X62408615Y-18932167D01*
X62523635Y-18760027D01*
X62670027Y-18613635D01*
X62811076Y-18519389D01*
X62842165Y-18498616D01*
X62842167Y-18498615D01*
X63033436Y-18419389D01*
X63236484Y-18379000D01*
X63443516Y-18379000D01*
X63646564Y-18419389D01*
G37*
G36*
X57146564Y-18419389D02*
G01*
X57337833Y-18498615D01*
X57337835Y-18498616D01*
X57368924Y-18519389D01*
X57509973Y-18613635D01*
X57656365Y-18760027D01*
X57771385Y-18932167D01*
X57850611Y-19123436D01*
X57891000Y-19326484D01*
X57891000Y-19533516D01*
X57850611Y-19736564D01*
X57809189Y-19836565D01*
X57771384Y-19927835D01*
X57656365Y-20099973D01*
X57509973Y-20246365D01*
X57337835Y-20361384D01*
X57337834Y-20361385D01*
X57337833Y-20361385D01*
X57146564Y-20440611D01*
X56943516Y-20481000D01*
X56736484Y-20481000D01*
X56533436Y-20440611D01*
X56342167Y-20361385D01*
X56342166Y-20361385D01*
X56342165Y-20361384D01*
X56170027Y-20246365D01*
X56023635Y-20099973D01*
X55908616Y-19927835D01*
X55870811Y-19836565D01*
X55829389Y-19736564D01*
X55789000Y-19533516D01*
X55789000Y-19326484D01*
X55829389Y-19123436D01*
X55908615Y-18932167D01*
X56023635Y-18760027D01*
X56170027Y-18613635D01*
X56311076Y-18519389D01*
X56342165Y-18498616D01*
X56342167Y-18498615D01*
X56533436Y-18419389D01*
X56736484Y-18379000D01*
X56943516Y-18379000D01*
X57146564Y-18419389D01*
G37*
G36*
X25753512Y-16423927D02*
G01*
X25902812Y-16453624D01*
X26066784Y-16521544D01*
X26214354Y-16620147D01*
X26339853Y-16745646D01*
X26438456Y-16893216D01*
X26506376Y-17057188D01*
X26541000Y-17231259D01*
X26541000Y-17408741D01*
X26506376Y-17582812D01*
X26438456Y-17746784D01*
X26339853Y-17894354D01*
X26214354Y-18019853D01*
X26066784Y-18118456D01*
X25902812Y-18186376D01*
X25753512Y-18216073D01*
X25728742Y-18221000D01*
X25551258Y-18221000D01*
X25526488Y-18216073D01*
X25377188Y-18186376D01*
X25213216Y-18118456D01*
X25065646Y-18019853D01*
X24940147Y-17894354D01*
X24841544Y-17746784D01*
X24773624Y-17582812D01*
X24739000Y-17408741D01*
X24739000Y-17231259D01*
X24773624Y-17057188D01*
X24841544Y-16893216D01*
X24940147Y-16745646D01*
X25065646Y-16620147D01*
X25213216Y-16521544D01*
X25377188Y-16453624D01*
X25526488Y-16423927D01*
X25551258Y-16419000D01*
X25728742Y-16419000D01*
X25753512Y-16423927D01*
G37*
G36*
X52961000Y-18181000D02*
G01*
X50859000Y-18181000D01*
X50859000Y-17439000D01*
X52961000Y-17439000D01*
X52961000Y-18181000D01*
G37*
G36*
X46661000Y-18181000D02*
G01*
X44559000Y-18181000D01*
X44559000Y-17439000D01*
X46661000Y-17439000D01*
X46661000Y-18181000D01*
G37*
G36*
X47688674Y-14623465D02*
G01*
X47726367Y-14634899D01*
X47761103Y-14653466D01*
X47791548Y-14678452D01*
X47816534Y-14708897D01*
X47835101Y-14743633D01*
X47846535Y-14781326D01*
X47851000Y-14826661D01*
X47851000Y-15913339D01*
X47846535Y-15958674D01*
X47835101Y-15996367D01*
X47816534Y-16031103D01*
X47791548Y-16061548D01*
X47761103Y-16086534D01*
X47726367Y-16105101D01*
X47688674Y-16116535D01*
X47643339Y-16121000D01*
X46806661Y-16121000D01*
X46761326Y-16116535D01*
X46723633Y-16105101D01*
X46688897Y-16086534D01*
X46658452Y-16061548D01*
X46633466Y-16031103D01*
X46614899Y-15996367D01*
X46603465Y-15958674D01*
X46599000Y-15913339D01*
X46599000Y-14826661D01*
X46603465Y-14781326D01*
X46614899Y-14743633D01*
X46633466Y-14708897D01*
X46658452Y-14678452D01*
X46688897Y-14653466D01*
X46723633Y-14634899D01*
X46761326Y-14623465D01*
X46806661Y-14619000D01*
X47643339Y-14619000D01*
X47688674Y-14623465D01*
G37*
G36*
X45638674Y-14623465D02*
G01*
X45676367Y-14634899D01*
X45711103Y-14653466D01*
X45741548Y-14678452D01*
X45766534Y-14708897D01*
X45785101Y-14743633D01*
X45796535Y-14781326D01*
X45801000Y-14826661D01*
X45801000Y-15913339D01*
X45796535Y-15958674D01*
X45785101Y-15996367D01*
X45766534Y-16031103D01*
X45741548Y-16061548D01*
X45711103Y-16086534D01*
X45676367Y-16105101D01*
X45638674Y-16116535D01*
X45593339Y-16121000D01*
X44756661Y-16121000D01*
X44711326Y-16116535D01*
X44673633Y-16105101D01*
X44638897Y-16086534D01*
X44608452Y-16061548D01*
X44583466Y-16031103D01*
X44564899Y-15996367D01*
X44553465Y-15958674D01*
X44549000Y-15913339D01*
X44549000Y-14826661D01*
X44553465Y-14781326D01*
X44564899Y-14743633D01*
X44583466Y-14708897D01*
X44608452Y-14678452D01*
X44638897Y-14653466D01*
X44673633Y-14634899D01*
X44711326Y-14623465D01*
X44756661Y-14619000D01*
X45593339Y-14619000D01*
X45638674Y-14623465D01*
G37*
G36*
X22246564Y-14019389D02*
G01*
X22437833Y-14098615D01*
X22437835Y-14098616D01*
X22609973Y-14213635D01*
X22756365Y-14360027D01*
X22861377Y-14517188D01*
X22871385Y-14532167D01*
X22950611Y-14723436D01*
X22991000Y-14926484D01*
X22991000Y-15133516D01*
X22950611Y-15336564D01*
X22943242Y-15354354D01*
X22871384Y-15527835D01*
X22756365Y-15699973D01*
X22609973Y-15846365D01*
X22437835Y-15961384D01*
X22437834Y-15961385D01*
X22437833Y-15961385D01*
X22246564Y-16040611D01*
X22043516Y-16081000D01*
X21836484Y-16081000D01*
X21633436Y-16040611D01*
X21442167Y-15961385D01*
X21442166Y-15961385D01*
X21442165Y-15961384D01*
X21270027Y-15846365D01*
X21123635Y-15699973D01*
X21008616Y-15527835D01*
X20936758Y-15354354D01*
X20929389Y-15336564D01*
X20889000Y-15133516D01*
X20889000Y-14926484D01*
X20929389Y-14723436D01*
X21008615Y-14532167D01*
X21018624Y-14517188D01*
X21123635Y-14360027D01*
X21270027Y-14213635D01*
X21442165Y-14098616D01*
X21442167Y-14098615D01*
X21633436Y-14019389D01*
X21836484Y-13979000D01*
X22043516Y-13979000D01*
X22246564Y-14019389D01*
G37*
G36*
X15746564Y-14019389D02*
G01*
X15937833Y-14098615D01*
X15937835Y-14098616D01*
X16109973Y-14213635D01*
X16256365Y-14360027D01*
X16361377Y-14517188D01*
X16371385Y-14532167D01*
X16450611Y-14723436D01*
X16491000Y-14926484D01*
X16491000Y-15133516D01*
X16450611Y-15336564D01*
X16443242Y-15354354D01*
X16371384Y-15527835D01*
X16256365Y-15699973D01*
X16109973Y-15846365D01*
X15937835Y-15961384D01*
X15937834Y-15961385D01*
X15937833Y-15961385D01*
X15746564Y-16040611D01*
X15543516Y-16081000D01*
X15336484Y-16081000D01*
X15133436Y-16040611D01*
X14942167Y-15961385D01*
X14942166Y-15961385D01*
X14942165Y-15961384D01*
X14770027Y-15846365D01*
X14623635Y-15699973D01*
X14508616Y-15527835D01*
X14436758Y-15354354D01*
X14429389Y-15336564D01*
X14389000Y-15133516D01*
X14389000Y-14926484D01*
X14429389Y-14723436D01*
X14508615Y-14532167D01*
X14518624Y-14517188D01*
X14623635Y-14360027D01*
X14770027Y-14213635D01*
X14942165Y-14098616D01*
X14942167Y-14098615D01*
X15133436Y-14019389D01*
X15336484Y-13979000D01*
X15543516Y-13979000D01*
X15746564Y-14019389D01*
G37*
G36*
X63646564Y-13919389D02*
G01*
X63837833Y-13998615D01*
X63837835Y-13998616D01*
X63868924Y-14019389D01*
X64009973Y-14113635D01*
X64156365Y-14260027D01*
X64271385Y-14432167D01*
X64350611Y-14623436D01*
X64391000Y-14826484D01*
X64391000Y-15033516D01*
X64350611Y-15236564D01*
X64309189Y-15336565D01*
X64271384Y-15427835D01*
X64156365Y-15599973D01*
X64009973Y-15746365D01*
X63837835Y-15861384D01*
X63837834Y-15861385D01*
X63837833Y-15861385D01*
X63646564Y-15940611D01*
X63443516Y-15981000D01*
X63236484Y-15981000D01*
X63033436Y-15940611D01*
X62842167Y-15861385D01*
X62842166Y-15861385D01*
X62842165Y-15861384D01*
X62670027Y-15746365D01*
X62523635Y-15599973D01*
X62408616Y-15427835D01*
X62370811Y-15336565D01*
X62329389Y-15236564D01*
X62289000Y-15033516D01*
X62289000Y-14826484D01*
X62329389Y-14623436D01*
X62408615Y-14432167D01*
X62523635Y-14260027D01*
X62670027Y-14113635D01*
X62811076Y-14019389D01*
X62842165Y-13998616D01*
X62842167Y-13998615D01*
X63033436Y-13919389D01*
X63236484Y-13879000D01*
X63443516Y-13879000D01*
X63646564Y-13919389D01*
G37*
G36*
X57146564Y-13919389D02*
G01*
X57337833Y-13998615D01*
X57337835Y-13998616D01*
X57368924Y-14019389D01*
X57509973Y-14113635D01*
X57656365Y-14260027D01*
X57771385Y-14432167D01*
X57850611Y-14623436D01*
X57891000Y-14826484D01*
X57891000Y-15033516D01*
X57850611Y-15236564D01*
X57809189Y-15336565D01*
X57771384Y-15427835D01*
X57656365Y-15599973D01*
X57509973Y-15746365D01*
X57337835Y-15861384D01*
X57337834Y-15861385D01*
X57337833Y-15861385D01*
X57146564Y-15940611D01*
X56943516Y-15981000D01*
X56736484Y-15981000D01*
X56533436Y-15940611D01*
X56342167Y-15861385D01*
X56342166Y-15861385D01*
X56342165Y-15861384D01*
X56170027Y-15746365D01*
X56023635Y-15599973D01*
X55908616Y-15427835D01*
X55870811Y-15336565D01*
X55829389Y-15236564D01*
X55789000Y-15033516D01*
X55789000Y-14826484D01*
X55829389Y-14623436D01*
X55908615Y-14432167D01*
X56023635Y-14260027D01*
X56170027Y-14113635D01*
X56311076Y-14019389D01*
X56342165Y-13998616D01*
X56342167Y-13998615D01*
X56533436Y-13919389D01*
X56736484Y-13879000D01*
X56943516Y-13879000D01*
X57146564Y-13919389D01*
G37*
G36*
X25753512Y-13883927D02*
G01*
X25902812Y-13913624D01*
X26066784Y-13981544D01*
X26214354Y-14080147D01*
X26339853Y-14205646D01*
X26438456Y-14353216D01*
X26506376Y-14517188D01*
X26541000Y-14691259D01*
X26541000Y-14868741D01*
X26506376Y-15042812D01*
X26438456Y-15206784D01*
X26339853Y-15354354D01*
X26214354Y-15479853D01*
X26066784Y-15578456D01*
X25902812Y-15646376D01*
X25753512Y-15676073D01*
X25728742Y-15681000D01*
X25551258Y-15681000D01*
X25526488Y-15676073D01*
X25377188Y-15646376D01*
X25213216Y-15578456D01*
X25065646Y-15479853D01*
X24940147Y-15354354D01*
X24841544Y-15206784D01*
X24773624Y-15042812D01*
X24739000Y-14868741D01*
X24739000Y-14691259D01*
X24773624Y-14517188D01*
X24841544Y-14353216D01*
X24940147Y-14205646D01*
X25065646Y-14080147D01*
X25213216Y-13981544D01*
X25377188Y-13913624D01*
X25526488Y-13883927D01*
X25551258Y-13879000D01*
X25728742Y-13879000D01*
X25753512Y-13883927D01*
G37*
M02*
