M48
; DRILL file {KiCad (5.1.5-0-10_14)} date 2020 August 15, Saturday 08:38:26
; FORMAT={-:-/ absolute / inch / decimal}
; #@! TF.CreationDate,2020-08-15T08:38:26+02:00
; #@! TF.GenerationSoftware,Kicad,Pcbnew,(5.1.5-0-10_14)
FMAT,2
INCH
T1C0.0157
T2C0.0236
T3C0.0315
T4C0.0394
T5C0.0433
%
G90
G05
T1
X1.1417Y-4.4449
X1.2638Y-4.5551
X1.4291Y-4.4449
X1.4291Y-4.5591
X1.5146Y-3.6183
X1.5506Y-4.9833
X1.565Y-3.2776
X1.5678Y-3.5598
X1.5814Y-3.9446
X1.5849Y-3.6085
X1.5851Y-4.4866
X1.6142Y-5.1102
X1.7992Y-5.0354
X1.8303Y-4.1381
X1.8575Y-4.2286
X1.8622Y-4.1892
X1.877Y-3.7679
X1.8818Y-4.2601
X1.9564Y-3.7528
X1.9606Y-4.4134
X1.9653Y-3.8906
X2.0044Y-4.3067
X2.0059Y-3.8794
X2.0278Y-4.1961
X2.041Y-3.3212
X2.0582Y-4.2296
X2.0797Y-4.3933
X2.0824Y-4.1163
X2.086Y-4.3241
X2.1049Y-4.5465
X2.1071Y-4.9833
X2.1127Y-3.5334
X2.1151Y-3.7601
X2.125Y-4.3959
X2.1398Y-3.4342
X2.149Y-4.4535
X2.1528Y-3.6984
X2.1708Y-3.6588
X2.226Y-4.0749
X2.2372Y-4.3789
X2.2839Y-4.0836
X2.2916Y-3.4741
X2.3306Y-4.2963
X2.3329Y-4.1164
X2.3943Y-3.9804
X2.4166Y-3.8392
X2.4528Y-3.4843
X2.5557Y-3.7134
X2.6271Y-3.6935
X0.8937Y-3.8169
X1.0512Y-3.8169
X1.1299Y-3.8169
X1.2087Y-3.8169
T2
X0.9724Y-3.8169
X1.2874Y-3.8169
T3
X1.3386Y-3.2382
X1.3386Y-3.3169
X1.3386Y-3.3957
X1.3386Y-3.4744
T4
X0.8622Y-4.6378
X0.9622Y-4.6378
X1.0622Y-4.6378
X1.1622Y-4.6378
X1.2622Y-4.6378
X1.3622Y-4.6378
X0.8976Y-3.6142
X0.9976Y-3.6142
T5
X0.8504Y-4.9961
X0.8504Y-5.1732
X1.1063Y-4.9961
X1.1063Y-5.1732
X2.5551Y-4.9961
X2.5551Y-5.1732
X2.811Y-4.9961
X2.811Y-5.1732
X1.7323Y-4.9016
X1.7323Y-5.1575
X1.9094Y-4.9016
X1.9094Y-5.1575
X0.8504Y-3.2126
X0.8504Y-3.3898
X1.1063Y-3.2126
X1.1063Y-3.3898
X2.5551Y-3.2126
X2.5551Y-3.3898
X2.811Y-3.2126
X2.811Y-3.3898
T0
M30
