M48
; DRILL file {KiCad (5.1.5-0-10_14)} date 2020 August 26, Wednesday 20:56:15
; FORMAT={-:-/ absolute / inch / decimal}
; #@! TF.CreationDate,2020-08-26T20:56:15+02:00
; #@! TF.GenerationSoftware,Kicad,Pcbnew,(5.1.5-0-10_14)
FMAT,2
INCH
T1C0.0157
T2C0.0236
T3C0.0394
T4C0.0433
%
G90
G05
T1
X0.8898Y-3.6535
X1.0197Y-3.3465
X1.0512Y-4.563
X1.0827Y-3.937
X1.0827Y-4.3307
X1.0827Y-4.4291
X1.1496Y-4.563
X1.1811Y-3.937
X1.1811Y-4.0354
X1.1811Y-4.1339
X1.1811Y-4.2323
X1.1811Y-4.3307
X1.1811Y-4.4291
X1.192Y-3.7786
X1.2024Y-3.6887
X1.2756Y-4.8307
X1.2795Y-3.937
X1.2795Y-4.0354
X1.2795Y-4.1339
X1.2795Y-4.2323
X1.2795Y-4.3307
X1.2795Y-4.4291
X1.3024Y-3.6075
X1.3258Y-5.0049
X1.378Y-3.937
X1.378Y-4.0354
X1.378Y-4.1339
X1.378Y-4.2323
X1.378Y-4.3307
X1.378Y-4.4291
X1.4055Y-3.6929
X1.4083Y-3.326
X1.4252Y-4.8031
X1.4566Y-3.7946
X1.4764Y-3.937
X1.4764Y-4.0354
X1.4764Y-4.1339
X1.4764Y-4.2323
X1.4764Y-4.3307
X1.4764Y-4.4291
X1.5276Y-3.2283
X1.5596Y-4.9242
X1.5748Y-3.937
X1.5748Y-4.0354
X1.5748Y-4.1339
X1.5748Y-4.2323
X1.5748Y-4.3307
X1.5748Y-4.4291
X1.6374Y-3.5728
X1.7079Y-3.6823
X1.7355Y-3.7431
X1.7535Y-3.4279
X1.7896Y-4.4939
X1.8182Y-3.8133
X1.8465Y-4.7874
X1.8729Y-4.1392
X1.8755Y-3.9882
X1.8757Y-4.52
X1.8835Y-3.9244
X1.8862Y-3.8667
X1.888Y-3.7091
X1.8895Y-4.0337
X1.8901Y-3.6119
X1.9403Y-3.6537
X1.9915Y-3.6669
X2.0215Y-3.7326
X2.0315Y-4.8386
X2.0406Y-4.1019
X2.0506Y-3.666
X2.0801Y-4.9526
X2.0935Y-3.583
X2.1024Y-5.0984
X2.1191Y-3.4059
X2.1441Y-3.6946
X2.1499Y-3.6156
X2.1893Y-3.5944
X2.2008Y-3.2244
X2.2369Y-4.3978
X2.2386Y-3.3798
X2.2395Y-3.9529
X2.2441Y-4.7913
X2.3176Y-3.7284
X2.3204Y-3.4964
X2.3501Y-3.692
X2.3535Y-3.4359
X2.3543Y-3.2244
X2.355Y-3.9715
X2.3609Y-4.1028
X2.3972Y-3.986
X2.407Y-4.3056
X2.4165Y-4.5699
X2.6703Y-4.0829
X2.6706Y-4.1263
X2.7008Y-3.3386
X2.7559Y-4.4488
X2.7559Y-4.5276
X2.7559Y-4.6063
X2.7559Y-4.685
X2.7559Y-4.7638
X0.9252Y-3.7362
X1.0827Y-3.7362
X1.1614Y-3.7362
X1.2402Y-3.7362
T2
X1.0039Y-3.7362
X1.3189Y-3.7362
T3
X0.9685Y-3.563
X1.0685Y-3.563
X0.8976Y-4.6378
X0.9976Y-4.6378
X1.0976Y-4.6378
X1.1976Y-4.6378
X1.2976Y-4.6378
X1.3976Y-4.6378
X1.2913Y-3.2028
X1.2913Y-3.3028
X1.2913Y-3.4028
X1.2913Y-3.5028
T4
X2.5197Y-3.2087
X2.5197Y-3.3858
X2.7756Y-3.2087
X2.7756Y-3.3858
X0.8858Y-4.9213
X0.8858Y-5.0984
X1.1417Y-4.9213
X0.8898Y-3.2126
X0.8898Y-3.3898
X1.1457Y-3.2126
X1.1457Y-3.3898
X2.5197Y-5.0984
X2.7756Y-4.9213
X2.7756Y-5.0984
X1.1417Y-5.0984
X1.7402Y-4.8425
X1.7402Y-5.0984
X1.9173Y-4.8425
X1.9173Y-5.0984
X2.5197Y-4.9213
T0
M30
