M48
; DRILL file {KiCad (5.1.5-0-10_14)} date 2020 August 15, Saturday 12:56:03
; FORMAT={-:-/ absolute / inch / decimal}
; #@! TF.CreationDate,2020-08-15T12:56:03+02:00
; #@! TF.GenerationSoftware,Kicad,Pcbnew,(5.1.5-0-10_14)
FMAT,2
INCH
T1C0.0157
T2C0.0236
T3C0.0394
T4C0.0433
%
G90
G05
T1
X0.9843Y-3.3071
X1.0001Y-4.7391
X1.0827Y-3.5236
X1.1024Y-4.0157
X1.1024Y-4.1339
X1.1024Y-4.2323
X1.1024Y-4.3307
X1.1024Y-4.4291
X1.1762Y-3.8563
X1.2008Y-4.0157
X1.2008Y-4.1339
X1.2008Y-4.2323
X1.2008Y-4.3307
X1.2008Y-4.4291
X1.2598Y-5.1378
X1.2622Y-4.9189
X1.2992Y-4.0157
X1.2992Y-4.1339
X1.2992Y-4.2323
X1.2992Y-4.3307
X1.2992Y-4.4291
X1.378Y-4.9213
X1.378Y-5.1378
X1.3976Y-4.0157
X1.3976Y-4.1339
X1.3976Y-4.2323
X1.3976Y-4.3307
X1.3976Y-4.4291
X1.4554Y-3.7593
X1.4961Y-4.0157
X1.4961Y-4.1339
X1.4961Y-4.2323
X1.4961Y-4.3307
X1.4961Y-4.4291
X1.5492Y-3.8696
X1.5496Y-4.9833
X1.6732Y-4.8504
X1.6895Y-3.9053
X1.7361Y-3.5694
X1.8036Y-4.137
X1.8087Y-4.2414
X1.8268Y-4.8701
X1.8296Y-4.183
X1.8381Y-4.4926
X1.8505Y-4.3066
X1.8617Y-4.1041
X1.8642Y-3.6068
X1.8759Y-3.7713
X1.8974Y-4.3567
X1.9125Y-3.5579
X1.9259Y-4.278
X1.9349Y-4.1724
X1.9638Y-3.9665
X1.9718Y-4.2163
X2.0512Y-4.8898
X2.0967Y-3.6929
X2.108Y-4.9833
X2.1237Y-4.0132
X2.1267Y-3.5686
X2.151Y-4.547
X2.1512Y-3.7547
X2.1596Y-3.7145
X2.171Y-4.0157
X2.173Y-4.3996
X2.1791Y-3.6465
X2.2047Y-5.1575
X2.2292Y-3.9128
X2.2892Y-4.4012
X2.316Y-4.1083
X2.3195Y-3.5856
X2.3425Y-5.1575
X2.4566Y-3.8663
X2.4711Y-3.9093
X2.4805Y-4.4658
X2.4977Y-3.9385
X2.5545Y-3.8604
X2.5799Y-3.9286
X2.6772Y-3.2874
X2.6969Y-3.5827
X2.6969Y-3.6811
X0.8937Y-3.8169
X1.0512Y-3.8169
X1.1299Y-3.8169
X1.2087Y-3.8169
T2
X0.9724Y-3.8169
X1.2874Y-3.8169
T3
X1.252Y-3.2028
X1.252Y-3.3028
X1.252Y-3.4028
X1.252Y-3.5028
X0.8622Y-4.6378
X0.9622Y-4.6378
X1.0622Y-4.6378
X1.1622Y-4.6378
X1.2622Y-4.6378
X1.3622Y-4.6378
X0.8976Y-3.6142
X0.9976Y-3.6142
T4
X0.8504Y-4.9961
X0.8504Y-5.1732
X1.1063Y-4.9961
X1.1063Y-5.1732
X2.5551Y-4.9961
X2.5551Y-5.1732
X2.811Y-4.9961
X2.811Y-5.1732
X1.7323Y-4.9016
X1.7323Y-5.1575
X1.9094Y-4.9016
X1.9094Y-5.1575
X0.8504Y-3.2126
X0.8504Y-3.3898
X1.1063Y-3.2126
X1.1063Y-3.3898
X2.5551Y-3.2126
X2.5551Y-3.3898
X2.811Y-3.2126
X2.811Y-3.3898
T0
M30
