G04 #@! TF.GenerationSoftware,KiCad,Pcbnew,(5.1.5-0-10_14)*
G04 #@! TF.CreationDate,2020-09-18T07:25:40+02:00*
G04 #@! TF.ProjectId,HB-RC-4-Dis-TH,48422d52-432d-4342-9d44-69732d54482e,rev?*
G04 #@! TF.SameCoordinates,Original*
G04 #@! TF.FileFunction,Copper,L1,Top*
G04 #@! TF.FilePolarity,Positive*
%FSLAX46Y46*%
G04 Gerber Fmt 4.6, Leading zero omitted, Abs format (unit mm)*
G04 Created by KiCad (PCBNEW (5.1.5-0-10_14)) date 2020-09-18 07:25:40*
%MOMM*%
%LPD*%
G04 APERTURE LIST*
%ADD10R,2.000000X0.640000*%
%ADD11O,1.700000X1.700000*%
%ADD12R,1.700000X1.700000*%
%ADD13C,0.100000*%
%ADD14R,1.300000X0.300000*%
%ADD15R,4.000000X1.800000*%
%ADD16C,2.000000*%
%ADD17C,1.350000*%
%ADD18R,1.800000X1.350000*%
%ADD19C,0.800000*%
%ADD20C,0.250000*%
%ADD21C,0.300000*%
%ADD22C,0.254000*%
G04 APERTURE END LIST*
D10*
X45610000Y-20350000D03*
X45610000Y-17810000D03*
X51910000Y-17810000D03*
X51910000Y-20350000D03*
D11*
X26300000Y-62130000D03*
D12*
X26300000Y-59590000D03*
G04 #@! TA.AperFunction,SMDPad,CuDef*
D13*
G36*
X47574505Y-14201204D02*
G01*
X47598773Y-14204804D01*
X47622572Y-14210765D01*
X47645671Y-14219030D01*
X47667850Y-14229520D01*
X47688893Y-14242132D01*
X47708599Y-14256747D01*
X47726777Y-14273223D01*
X47743253Y-14291401D01*
X47757868Y-14311107D01*
X47770480Y-14332150D01*
X47780970Y-14354329D01*
X47789235Y-14377428D01*
X47795196Y-14401227D01*
X47798796Y-14425495D01*
X47800000Y-14449999D01*
X47800000Y-15350001D01*
X47798796Y-15374505D01*
X47795196Y-15398773D01*
X47789235Y-15422572D01*
X47780970Y-15445671D01*
X47770480Y-15467850D01*
X47757868Y-15488893D01*
X47743253Y-15508599D01*
X47726777Y-15526777D01*
X47708599Y-15543253D01*
X47688893Y-15557868D01*
X47667850Y-15570480D01*
X47645671Y-15580970D01*
X47622572Y-15589235D01*
X47598773Y-15595196D01*
X47574505Y-15598796D01*
X47550001Y-15600000D01*
X46899999Y-15600000D01*
X46875495Y-15598796D01*
X46851227Y-15595196D01*
X46827428Y-15589235D01*
X46804329Y-15580970D01*
X46782150Y-15570480D01*
X46761107Y-15557868D01*
X46741401Y-15543253D01*
X46723223Y-15526777D01*
X46706747Y-15508599D01*
X46692132Y-15488893D01*
X46679520Y-15467850D01*
X46669030Y-15445671D01*
X46660765Y-15422572D01*
X46654804Y-15398773D01*
X46651204Y-15374505D01*
X46650000Y-15350001D01*
X46650000Y-14449999D01*
X46651204Y-14425495D01*
X46654804Y-14401227D01*
X46660765Y-14377428D01*
X46669030Y-14354329D01*
X46679520Y-14332150D01*
X46692132Y-14311107D01*
X46706747Y-14291401D01*
X46723223Y-14273223D01*
X46741401Y-14256747D01*
X46761107Y-14242132D01*
X46782150Y-14229520D01*
X46804329Y-14219030D01*
X46827428Y-14210765D01*
X46851227Y-14204804D01*
X46875495Y-14201204D01*
X46899999Y-14200000D01*
X47550001Y-14200000D01*
X47574505Y-14201204D01*
G37*
G04 #@! TD.AperFunction*
G04 #@! TA.AperFunction,SMDPad,CuDef*
G36*
X45524505Y-14201204D02*
G01*
X45548773Y-14204804D01*
X45572572Y-14210765D01*
X45595671Y-14219030D01*
X45617850Y-14229520D01*
X45638893Y-14242132D01*
X45658599Y-14256747D01*
X45676777Y-14273223D01*
X45693253Y-14291401D01*
X45707868Y-14311107D01*
X45720480Y-14332150D01*
X45730970Y-14354329D01*
X45739235Y-14377428D01*
X45745196Y-14401227D01*
X45748796Y-14425495D01*
X45750000Y-14449999D01*
X45750000Y-15350001D01*
X45748796Y-15374505D01*
X45745196Y-15398773D01*
X45739235Y-15422572D01*
X45730970Y-15445671D01*
X45720480Y-15467850D01*
X45707868Y-15488893D01*
X45693253Y-15508599D01*
X45676777Y-15526777D01*
X45658599Y-15543253D01*
X45638893Y-15557868D01*
X45617850Y-15570480D01*
X45595671Y-15580970D01*
X45572572Y-15589235D01*
X45548773Y-15595196D01*
X45524505Y-15598796D01*
X45500001Y-15600000D01*
X44849999Y-15600000D01*
X44825495Y-15598796D01*
X44801227Y-15595196D01*
X44777428Y-15589235D01*
X44754329Y-15580970D01*
X44732150Y-15570480D01*
X44711107Y-15557868D01*
X44691401Y-15543253D01*
X44673223Y-15526777D01*
X44656747Y-15508599D01*
X44642132Y-15488893D01*
X44629520Y-15467850D01*
X44619030Y-15445671D01*
X44610765Y-15422572D01*
X44604804Y-15398773D01*
X44601204Y-15374505D01*
X44600000Y-15350001D01*
X44600000Y-14449999D01*
X44601204Y-14425495D01*
X44604804Y-14401227D01*
X44610765Y-14377428D01*
X44619030Y-14354329D01*
X44629520Y-14332150D01*
X44642132Y-14311107D01*
X44656747Y-14291401D01*
X44673223Y-14273223D01*
X44691401Y-14256747D01*
X44711107Y-14242132D01*
X44732150Y-14229520D01*
X44754329Y-14219030D01*
X44777428Y-14210765D01*
X44801227Y-14204804D01*
X44825495Y-14201204D01*
X44849999Y-14200000D01*
X45500001Y-14200000D01*
X45524505Y-14201204D01*
G37*
G04 #@! TD.AperFunction*
D14*
X51390000Y-33180000D03*
X51390000Y-33680000D03*
X51390000Y-34180000D03*
X51390000Y-34680000D03*
X51390000Y-35180000D03*
X51390000Y-35680000D03*
X51390000Y-36180000D03*
X51390000Y-36680000D03*
X51390000Y-37180000D03*
X51390000Y-37680000D03*
X51390000Y-38180000D03*
X51390000Y-38680000D03*
X51390000Y-39180000D03*
X51390000Y-39680000D03*
X51390000Y-40180000D03*
X51390000Y-40680000D03*
X51390000Y-41180000D03*
X51390000Y-41680000D03*
X51390000Y-42180000D03*
X51390000Y-42680000D03*
X51390000Y-43180000D03*
X51390000Y-43680000D03*
X51390000Y-44180000D03*
X51390000Y-44680000D03*
D15*
X54640000Y-31280000D03*
X54640000Y-46580000D03*
D11*
X25640000Y-14780000D03*
X25640000Y-17320000D03*
X25640000Y-19860000D03*
X25640000Y-22400000D03*
D16*
X37040000Y-56430000D03*
X41540000Y-56430000D03*
X37040000Y-62930000D03*
X41540000Y-62930000D03*
X63340000Y-58430000D03*
X63340000Y-62930000D03*
X56840000Y-58430000D03*
X56840000Y-62930000D03*
X21840000Y-58430000D03*
X21840000Y-62930000D03*
X15340000Y-58430000D03*
X15340000Y-62930000D03*
X56840000Y-19430000D03*
X56840000Y-14930000D03*
X63340000Y-19430000D03*
X63340000Y-14930000D03*
X15440000Y-19530000D03*
X15440000Y-15030000D03*
X21940000Y-19530000D03*
X21940000Y-15030000D03*
D11*
X47440000Y-62170000D03*
D12*
X47440000Y-59630000D03*
D11*
X16040000Y-51230000D03*
X18580000Y-51230000D03*
X21120000Y-51230000D03*
X23660000Y-51230000D03*
X26200000Y-51230000D03*
D12*
X28740000Y-51230000D03*
D17*
X36840000Y-31930000D03*
D18*
X37840000Y-31930000D03*
D17*
X36840000Y-45930000D03*
X36840000Y-43930000D03*
X36840000Y-41930000D03*
X36840000Y-39930000D03*
X36840000Y-37930000D03*
X36840000Y-35930000D03*
X36840000Y-33930000D03*
D18*
X37840000Y-45930000D03*
X37840000Y-43930000D03*
X37840000Y-41930000D03*
X37840000Y-39930000D03*
X37840000Y-37930000D03*
X37840000Y-35930000D03*
X37840000Y-33930000D03*
G04 #@! TA.AperFunction,SMDPad,CuDef*
D13*
G36*
X44514505Y-57931204D02*
G01*
X44538773Y-57934804D01*
X44562572Y-57940765D01*
X44585671Y-57949030D01*
X44607850Y-57959520D01*
X44628893Y-57972132D01*
X44648599Y-57986747D01*
X44666777Y-58003223D01*
X44683253Y-58021401D01*
X44697868Y-58041107D01*
X44710480Y-58062150D01*
X44720970Y-58084329D01*
X44729235Y-58107428D01*
X44735196Y-58131227D01*
X44738796Y-58155495D01*
X44740000Y-58179999D01*
X44740000Y-58830001D01*
X44738796Y-58854505D01*
X44735196Y-58878773D01*
X44729235Y-58902572D01*
X44720970Y-58925671D01*
X44710480Y-58947850D01*
X44697868Y-58968893D01*
X44683253Y-58988599D01*
X44666777Y-59006777D01*
X44648599Y-59023253D01*
X44628893Y-59037868D01*
X44607850Y-59050480D01*
X44585671Y-59060970D01*
X44562572Y-59069235D01*
X44538773Y-59075196D01*
X44514505Y-59078796D01*
X44490001Y-59080000D01*
X43589999Y-59080000D01*
X43565495Y-59078796D01*
X43541227Y-59075196D01*
X43517428Y-59069235D01*
X43494329Y-59060970D01*
X43472150Y-59050480D01*
X43451107Y-59037868D01*
X43431401Y-59023253D01*
X43413223Y-59006777D01*
X43396747Y-58988599D01*
X43382132Y-58968893D01*
X43369520Y-58947850D01*
X43359030Y-58925671D01*
X43350765Y-58902572D01*
X43344804Y-58878773D01*
X43341204Y-58854505D01*
X43340000Y-58830001D01*
X43340000Y-58179999D01*
X43341204Y-58155495D01*
X43344804Y-58131227D01*
X43350765Y-58107428D01*
X43359030Y-58084329D01*
X43369520Y-58062150D01*
X43382132Y-58041107D01*
X43396747Y-58021401D01*
X43413223Y-58003223D01*
X43431401Y-57986747D01*
X43451107Y-57972132D01*
X43472150Y-57959520D01*
X43494329Y-57949030D01*
X43517428Y-57940765D01*
X43541227Y-57934804D01*
X43565495Y-57931204D01*
X43589999Y-57930000D01*
X44490001Y-57930000D01*
X44514505Y-57931204D01*
G37*
G04 #@! TD.AperFunction*
G04 #@! TA.AperFunction,SMDPad,CuDef*
G36*
X44514505Y-59981204D02*
G01*
X44538773Y-59984804D01*
X44562572Y-59990765D01*
X44585671Y-59999030D01*
X44607850Y-60009520D01*
X44628893Y-60022132D01*
X44648599Y-60036747D01*
X44666777Y-60053223D01*
X44683253Y-60071401D01*
X44697868Y-60091107D01*
X44710480Y-60112150D01*
X44720970Y-60134329D01*
X44729235Y-60157428D01*
X44735196Y-60181227D01*
X44738796Y-60205495D01*
X44740000Y-60229999D01*
X44740000Y-60880001D01*
X44738796Y-60904505D01*
X44735196Y-60928773D01*
X44729235Y-60952572D01*
X44720970Y-60975671D01*
X44710480Y-60997850D01*
X44697868Y-61018893D01*
X44683253Y-61038599D01*
X44666777Y-61056777D01*
X44648599Y-61073253D01*
X44628893Y-61087868D01*
X44607850Y-61100480D01*
X44585671Y-61110970D01*
X44562572Y-61119235D01*
X44538773Y-61125196D01*
X44514505Y-61128796D01*
X44490001Y-61130000D01*
X43589999Y-61130000D01*
X43565495Y-61128796D01*
X43541227Y-61125196D01*
X43517428Y-61119235D01*
X43494329Y-61110970D01*
X43472150Y-61100480D01*
X43451107Y-61087868D01*
X43431401Y-61073253D01*
X43413223Y-61056777D01*
X43396747Y-61038599D01*
X43382132Y-61018893D01*
X43369520Y-60997850D01*
X43359030Y-60975671D01*
X43350765Y-60952572D01*
X43344804Y-60928773D01*
X43341204Y-60904505D01*
X43340000Y-60880001D01*
X43340000Y-60229999D01*
X43341204Y-60205495D01*
X43344804Y-60181227D01*
X43350765Y-60157428D01*
X43359030Y-60134329D01*
X43369520Y-60112150D01*
X43382132Y-60091107D01*
X43396747Y-60071401D01*
X43413223Y-60053223D01*
X43431401Y-60036747D01*
X43451107Y-60022132D01*
X43472150Y-60009520D01*
X43494329Y-59999030D01*
X43517428Y-59990765D01*
X43541227Y-59984804D01*
X43565495Y-59981204D01*
X43589999Y-59980000D01*
X44490001Y-59980000D01*
X44514505Y-59981204D01*
G37*
G04 #@! TD.AperFunction*
G04 #@! TA.AperFunction,SMDPad,CuDef*
G36*
X35014505Y-57931204D02*
G01*
X35038773Y-57934804D01*
X35062572Y-57940765D01*
X35085671Y-57949030D01*
X35107850Y-57959520D01*
X35128893Y-57972132D01*
X35148599Y-57986747D01*
X35166777Y-58003223D01*
X35183253Y-58021401D01*
X35197868Y-58041107D01*
X35210480Y-58062150D01*
X35220970Y-58084329D01*
X35229235Y-58107428D01*
X35235196Y-58131227D01*
X35238796Y-58155495D01*
X35240000Y-58179999D01*
X35240000Y-58830001D01*
X35238796Y-58854505D01*
X35235196Y-58878773D01*
X35229235Y-58902572D01*
X35220970Y-58925671D01*
X35210480Y-58947850D01*
X35197868Y-58968893D01*
X35183253Y-58988599D01*
X35166777Y-59006777D01*
X35148599Y-59023253D01*
X35128893Y-59037868D01*
X35107850Y-59050480D01*
X35085671Y-59060970D01*
X35062572Y-59069235D01*
X35038773Y-59075196D01*
X35014505Y-59078796D01*
X34990001Y-59080000D01*
X34089999Y-59080000D01*
X34065495Y-59078796D01*
X34041227Y-59075196D01*
X34017428Y-59069235D01*
X33994329Y-59060970D01*
X33972150Y-59050480D01*
X33951107Y-59037868D01*
X33931401Y-59023253D01*
X33913223Y-59006777D01*
X33896747Y-58988599D01*
X33882132Y-58968893D01*
X33869520Y-58947850D01*
X33859030Y-58925671D01*
X33850765Y-58902572D01*
X33844804Y-58878773D01*
X33841204Y-58854505D01*
X33840000Y-58830001D01*
X33840000Y-58179999D01*
X33841204Y-58155495D01*
X33844804Y-58131227D01*
X33850765Y-58107428D01*
X33859030Y-58084329D01*
X33869520Y-58062150D01*
X33882132Y-58041107D01*
X33896747Y-58021401D01*
X33913223Y-58003223D01*
X33931401Y-57986747D01*
X33951107Y-57972132D01*
X33972150Y-57959520D01*
X33994329Y-57949030D01*
X34017428Y-57940765D01*
X34041227Y-57934804D01*
X34065495Y-57931204D01*
X34089999Y-57930000D01*
X34990001Y-57930000D01*
X35014505Y-57931204D01*
G37*
G04 #@! TD.AperFunction*
G04 #@! TA.AperFunction,SMDPad,CuDef*
G36*
X35014505Y-59981204D02*
G01*
X35038773Y-59984804D01*
X35062572Y-59990765D01*
X35085671Y-59999030D01*
X35107850Y-60009520D01*
X35128893Y-60022132D01*
X35148599Y-60036747D01*
X35166777Y-60053223D01*
X35183253Y-60071401D01*
X35197868Y-60091107D01*
X35210480Y-60112150D01*
X35220970Y-60134329D01*
X35229235Y-60157428D01*
X35235196Y-60181227D01*
X35238796Y-60205495D01*
X35240000Y-60229999D01*
X35240000Y-60880001D01*
X35238796Y-60904505D01*
X35235196Y-60928773D01*
X35229235Y-60952572D01*
X35220970Y-60975671D01*
X35210480Y-60997850D01*
X35197868Y-61018893D01*
X35183253Y-61038599D01*
X35166777Y-61056777D01*
X35148599Y-61073253D01*
X35128893Y-61087868D01*
X35107850Y-61100480D01*
X35085671Y-61110970D01*
X35062572Y-61119235D01*
X35038773Y-61125196D01*
X35014505Y-61128796D01*
X34990001Y-61130000D01*
X34089999Y-61130000D01*
X34065495Y-61128796D01*
X34041227Y-61125196D01*
X34017428Y-61119235D01*
X33994329Y-61110970D01*
X33972150Y-61100480D01*
X33951107Y-61087868D01*
X33931401Y-61073253D01*
X33913223Y-61056777D01*
X33896747Y-61038599D01*
X33882132Y-61018893D01*
X33869520Y-60997850D01*
X33859030Y-60975671D01*
X33850765Y-60952572D01*
X33844804Y-60928773D01*
X33841204Y-60904505D01*
X33840000Y-60880001D01*
X33840000Y-60229999D01*
X33841204Y-60205495D01*
X33844804Y-60181227D01*
X33850765Y-60157428D01*
X33859030Y-60134329D01*
X33869520Y-60112150D01*
X33882132Y-60091107D01*
X33896747Y-60071401D01*
X33913223Y-60053223D01*
X33931401Y-60036747D01*
X33951107Y-60022132D01*
X33972150Y-60009520D01*
X33994329Y-59999030D01*
X34017428Y-59990765D01*
X34041227Y-59984804D01*
X34065495Y-59981204D01*
X34089999Y-59980000D01*
X34990001Y-59980000D01*
X35014505Y-59981204D01*
G37*
G04 #@! TD.AperFunction*
D19*
X27327100Y-29210200D03*
X33067000Y-22194100D03*
X51697900Y-24682200D03*
X52680200Y-36969600D03*
X25000000Y-32500000D03*
X20000000Y-32500000D03*
X22500000Y-32500000D03*
X27500000Y-32500000D03*
X30000000Y-32500000D03*
X32500000Y-32500000D03*
X32500000Y-35000000D03*
X30000000Y-35000000D03*
X27500000Y-35000000D03*
X25000000Y-35000000D03*
X22500000Y-35000000D03*
X22500000Y-37500000D03*
X22500000Y-40000000D03*
X25000000Y-40000000D03*
X25000000Y-37500000D03*
X27500000Y-37500000D03*
X27500000Y-40000000D03*
X30000000Y-40000000D03*
X30000000Y-37500000D03*
X32500000Y-37500000D03*
X32500000Y-40000000D03*
X32500000Y-42500000D03*
X30000000Y-42500000D03*
X27500000Y-42500000D03*
X22500000Y-42500000D03*
X25000000Y-42500000D03*
X22500000Y-45000000D03*
X25000000Y-45000000D03*
X27500000Y-45000000D03*
X30000000Y-45000000D03*
X32500000Y-45000000D03*
X22500000Y-42500000D03*
X20000000Y-42500000D03*
X20000000Y-45000000D03*
X49520000Y-63190000D03*
X54190300Y-62930000D03*
X41700000Y-58460000D03*
X63535000Y-55265000D03*
X63030000Y-30050000D03*
X63030000Y-26800000D03*
X63030000Y-23430000D03*
X30870000Y-15350000D03*
X16320000Y-17240000D03*
X51850000Y-48800000D03*
X49010000Y-48910000D03*
X52652800Y-41439000D03*
X34505000Y-57315700D03*
X44110000Y-52720000D03*
X41758800Y-23933200D03*
X43640700Y-25105500D03*
X30157300Y-26045300D03*
X42420700Y-25937100D03*
X29955000Y-27345700D03*
X47114400Y-37507700D03*
X43256200Y-45483200D03*
X44256600Y-23351900D03*
X36563100Y-28932000D03*
X49603500Y-18286500D03*
X48131400Y-25895800D03*
X48356300Y-24895400D03*
X56581600Y-24826900D03*
X55108700Y-26416900D03*
X48683100Y-22736300D03*
X41528600Y-22922200D03*
X38691700Y-29534400D03*
X40279300Y-23783700D03*
X39120400Y-30768400D03*
X40528200Y-22783300D03*
X47153900Y-24754400D03*
X53306500Y-49771800D03*
X40548700Y-39100500D03*
X41423400Y-36773600D03*
X41171200Y-35467700D03*
X40445000Y-34742300D03*
X40588800Y-32929600D03*
X41441000Y-43821200D03*
X41117800Y-42811700D03*
X56269300Y-48087200D03*
X51046700Y-47939100D03*
X52715000Y-34347500D03*
X41617100Y-34017000D03*
X49844800Y-33698500D03*
X56061900Y-41828000D03*
X40465800Y-46497000D03*
X54063200Y-42800900D03*
X58065000Y-54299500D03*
X46140000Y-53647200D03*
X48843900Y-16028400D03*
X49824800Y-29948700D03*
X43072700Y-27710100D03*
X48880900Y-27674700D03*
X41601700Y-51872700D03*
X60689300Y-30390100D03*
X53347400Y-17283800D03*
D20*
X27327100Y-29210200D02*
X27327100Y-27844000D01*
X27327100Y-27844000D02*
X32977000Y-22194100D01*
X32977000Y-22194100D02*
X33067000Y-22194100D01*
X51697900Y-24035800D02*
X58360500Y-24035800D01*
X58360500Y-24035800D02*
X59968600Y-25643900D01*
X59968600Y-25643900D02*
X59968600Y-27734500D01*
X59968600Y-27734500D02*
X59216800Y-28486300D01*
X59216800Y-28486300D02*
X59216800Y-35194900D01*
X52972700Y-41439000D02*
X52652800Y-41439000D01*
X51697900Y-24035800D02*
X51697900Y-24682200D01*
X46745300Y-19083200D02*
X51697900Y-24035800D01*
X45670000Y-17900000D02*
X46745300Y-17900000D01*
X38007600Y-17320000D02*
X38587600Y-17900000D01*
X56840000Y-14930000D02*
X55771200Y-13861200D01*
X38007600Y-17320000D02*
X26815300Y-17320000D01*
X25640000Y-17320000D02*
X26815300Y-17320000D01*
X36840000Y-43930000D02*
X35264200Y-45505800D01*
X52365300Y-41180000D02*
X52393800Y-41180000D01*
X52393800Y-41180000D02*
X52652800Y-41439000D01*
X37840000Y-43930000D02*
X36840000Y-43930000D01*
X41540000Y-62930000D02*
X39165000Y-60555000D01*
X39165000Y-60555000D02*
X34540000Y-60555000D01*
X41540000Y-62930000D02*
X42674000Y-61796000D01*
X42674000Y-61796000D02*
X44040000Y-61796000D01*
X51390000Y-41180000D02*
X52365300Y-41180000D01*
X39065300Y-43930000D02*
X39065300Y-43790100D01*
X39065300Y-43790100D02*
X41675400Y-41180000D01*
X41675400Y-41180000D02*
X51390000Y-41180000D01*
X25640000Y-17320000D02*
X24230000Y-17320000D01*
X24230000Y-17320000D02*
X21940000Y-15030000D01*
X37840000Y-43930000D02*
X39065300Y-43930000D01*
X26200000Y-51230000D02*
X28740000Y-51230000D01*
X52365300Y-36680000D02*
X52390600Y-36680000D01*
X52390600Y-36680000D02*
X52680200Y-36969600D01*
X51390000Y-36680000D02*
X52365300Y-36680000D01*
X27479300Y-62252000D02*
X29176300Y-60555000D01*
X29176300Y-60555000D02*
X34540000Y-60555000D01*
X44040000Y-61796000D02*
X45890700Y-61796000D01*
X45890700Y-61796000D02*
X46264700Y-62170000D01*
X44040000Y-61796000D02*
X44040000Y-60555000D01*
X47440000Y-62170000D02*
X46264700Y-62170000D01*
X55771200Y-13861200D02*
X42678800Y-13861200D01*
X40180000Y-17900000D02*
X45670000Y-17900000D01*
X40180000Y-16360000D02*
X40180000Y-17900000D01*
X38587600Y-17900000D02*
X40180000Y-17900000D01*
X42678800Y-13861200D02*
X40180000Y-16360000D01*
X59216800Y-35623200D02*
X58770000Y-36080000D01*
X59216800Y-35194900D02*
X59216800Y-35623200D01*
X34540000Y-58505000D02*
X34540000Y-57350700D01*
X34540000Y-57350700D02*
X34505000Y-57315700D01*
X44040000Y-53160000D02*
X44040000Y-58505000D01*
X44110000Y-52720000D02*
X44040000Y-53160000D01*
X39065300Y-31930000D02*
X39845700Y-31149600D01*
X39845700Y-31149600D02*
X39845700Y-25846300D01*
X39845700Y-25846300D02*
X41758800Y-23933200D01*
X37840000Y-31930000D02*
X39065300Y-31930000D01*
X37840000Y-31930000D02*
X36840000Y-31930000D01*
X37840000Y-33930000D02*
X37917200Y-33930000D01*
X37917200Y-33930000D02*
X41681100Y-30166100D01*
X41681100Y-30166100D02*
X41681100Y-25637800D01*
X41681100Y-25637800D02*
X42213400Y-25105500D01*
X42213400Y-25105500D02*
X43640700Y-25105500D01*
X36840000Y-33930000D02*
X37840000Y-33930000D01*
X36840000Y-37930000D02*
X35742400Y-36832400D01*
X35742400Y-36832400D02*
X35742400Y-30659300D01*
X35742400Y-30659300D02*
X34948000Y-29864900D01*
X34948000Y-29864900D02*
X33976900Y-29864900D01*
X33976900Y-29864900D02*
X30157300Y-26045300D01*
X37840000Y-37930000D02*
X36840000Y-37930000D01*
X42336800Y-30935600D02*
X42336800Y-26021000D01*
X42336800Y-26021000D02*
X42420700Y-25937100D01*
X39065300Y-39930000D02*
X39065300Y-33418800D01*
X39065300Y-33418800D02*
X41548500Y-30935600D01*
X41548500Y-30935600D02*
X42336800Y-30935600D01*
X42336800Y-30935600D02*
X50411300Y-30935600D01*
X50411300Y-30935600D02*
X53479500Y-34003800D01*
X53479500Y-34003800D02*
X53479500Y-37565800D01*
X53479500Y-37565800D02*
X52365300Y-38680000D01*
X51390000Y-38680000D02*
X52365300Y-38680000D01*
X37840000Y-39930000D02*
X39065300Y-39930000D01*
X36840000Y-39930000D02*
X37840000Y-39930000D01*
X39065300Y-41930000D02*
X42389100Y-38606200D01*
X42389100Y-38606200D02*
X47144600Y-38606200D01*
X47144600Y-38606200D02*
X47570800Y-38180000D01*
X47570800Y-38180000D02*
X51390000Y-38180000D01*
X36840000Y-41930000D02*
X35171100Y-40261100D01*
X35171100Y-40261100D02*
X35171100Y-30785100D01*
X35171100Y-30785100D02*
X34701300Y-30315300D01*
X34701300Y-30315300D02*
X32924600Y-30315300D01*
X32924600Y-30315300D02*
X29955000Y-27345700D01*
X37292000Y-41930000D02*
X36840000Y-41930000D01*
X37840000Y-41930000D02*
X39065300Y-41930000D01*
X37566000Y-41930000D02*
X37840000Y-41930000D01*
X37566000Y-41930000D02*
X37292000Y-41930000D01*
X36840000Y-45930000D02*
X36840000Y-46055000D01*
X36840000Y-46055000D02*
X34626300Y-48268700D01*
X34626300Y-48268700D02*
X33084300Y-48268700D01*
X33084300Y-48268700D02*
X30758800Y-50594200D01*
X30758800Y-50594200D02*
X30758800Y-51407700D01*
X30758800Y-51407700D02*
X29761200Y-52405300D01*
X29761200Y-52405300D02*
X25643200Y-52405300D01*
X25643200Y-52405300D02*
X24835300Y-51597400D01*
X24835300Y-51597400D02*
X24835300Y-51230000D01*
X36840000Y-45930000D02*
X37840000Y-45930000D01*
X23660000Y-51230000D02*
X24835300Y-51230000D01*
X50414700Y-37474400D02*
X50381400Y-37507700D01*
X50381400Y-37507700D02*
X47114400Y-37507700D01*
X50414700Y-37474400D02*
X50414700Y-37180000D01*
X50902400Y-37680000D02*
X50620300Y-37680000D01*
X50620300Y-37680000D02*
X50414700Y-37474400D01*
X37840000Y-45930000D02*
X39065300Y-45930000D01*
X39065300Y-45930000D02*
X39512100Y-45483200D01*
X39512100Y-45483200D02*
X43256200Y-45483200D01*
X51390000Y-37180000D02*
X50414700Y-37180000D01*
X51390000Y-37680000D02*
X50902400Y-37680000D01*
X36563100Y-28932000D02*
X36563100Y-25663300D01*
X36563100Y-25663300D02*
X40210100Y-22016300D01*
X40210100Y-22016300D02*
X42921000Y-22016300D01*
X42921000Y-22016300D02*
X44256600Y-23351900D01*
X19755300Y-51230000D02*
X19755300Y-51597300D01*
X19755300Y-51597300D02*
X21021100Y-52863100D01*
X21021100Y-52863100D02*
X29944500Y-52863100D01*
X29944500Y-52863100D02*
X31314600Y-51493000D01*
X31314600Y-51493000D02*
X31314600Y-50675300D01*
X31314600Y-50675300D02*
X33270800Y-48719100D01*
X33270800Y-48719100D02*
X48064800Y-48719100D01*
X48064800Y-48719100D02*
X51578900Y-45205000D01*
X51578900Y-45205000D02*
X53733600Y-45205000D01*
X53733600Y-45205000D02*
X59667200Y-39271400D01*
X59667200Y-39271400D02*
X59667200Y-30371900D01*
X59667200Y-30371900D02*
X60437300Y-29601800D01*
X60437300Y-29601800D02*
X60437300Y-25475700D01*
X60437300Y-25475700D02*
X58450300Y-23488700D01*
X58450300Y-23488700D02*
X53243000Y-23488700D01*
X53243000Y-23488700D02*
X49603500Y-19849200D01*
X49603500Y-19849200D02*
X49603500Y-18286500D01*
X18580000Y-51230000D02*
X19755300Y-51230000D01*
X48131400Y-25895800D02*
X47255000Y-25895800D01*
X47255000Y-25895800D02*
X44981900Y-23622700D01*
X44981900Y-23622700D02*
X44981900Y-23051400D01*
X44981900Y-23051400D02*
X43399200Y-21468700D01*
X43399200Y-21468700D02*
X27746600Y-21468700D01*
X27746600Y-21468700D02*
X26815300Y-22400000D01*
X25640000Y-22400000D02*
X26815300Y-22400000D01*
X25640000Y-19860000D02*
X43320900Y-19860000D01*
X43320900Y-19860000D02*
X48356300Y-24895400D01*
X56581600Y-24826900D02*
X56314500Y-25094000D01*
X56314500Y-25094000D02*
X56314500Y-27292500D01*
X56314500Y-27292500D02*
X58318700Y-29296700D01*
X58318700Y-29296700D02*
X58318700Y-35456100D01*
X58318700Y-35456100D02*
X53094800Y-40680000D01*
X51390000Y-40680000D02*
X52365300Y-40680000D01*
X53094800Y-40680000D02*
X52365300Y-40680000D01*
X55108700Y-26416900D02*
X55108700Y-26723600D01*
X55108700Y-26723600D02*
X57865900Y-29480800D01*
X57865900Y-29480800D02*
X57865900Y-35272000D01*
X57865900Y-35272000D02*
X52957900Y-40180000D01*
X52957900Y-40180000D02*
X51390000Y-40180000D01*
X48683100Y-22736300D02*
X52074600Y-26127800D01*
X52074600Y-26127800D02*
X53552300Y-26127800D01*
X53552300Y-26127800D02*
X57415600Y-29991100D01*
X57415600Y-29991100D02*
X57415600Y-34992100D01*
X57415600Y-34992100D02*
X52727700Y-39680000D01*
X52727700Y-39680000D02*
X51390000Y-39680000D01*
X51390000Y-39180000D02*
X52515700Y-39180000D01*
X52515700Y-39180000D02*
X56965300Y-34730400D01*
X56965300Y-34730400D02*
X56965300Y-30179400D01*
X56965300Y-30179400D02*
X55747800Y-28961900D01*
X55747800Y-28961900D02*
X48684600Y-28961900D01*
X48684600Y-28961900D02*
X42645000Y-22922300D01*
X42645000Y-22922300D02*
X41528600Y-22922300D01*
X41528600Y-22922300D02*
X41528600Y-22922200D01*
X38691700Y-29534400D02*
X38691700Y-25371300D01*
X38691700Y-25371300D02*
X40279300Y-23783700D01*
X39120400Y-30768400D02*
X38877000Y-30768400D01*
X38877000Y-30768400D02*
X37966300Y-29857700D01*
X37966300Y-29857700D02*
X37966300Y-25067500D01*
X37966300Y-25067500D02*
X40250500Y-22783300D01*
X40250500Y-22783300D02*
X40528200Y-22783300D01*
X47153900Y-24754400D02*
X47153900Y-24586500D01*
X47153900Y-24586500D02*
X43547300Y-20979900D01*
X43547300Y-20979900D02*
X27598500Y-20979900D01*
X27598500Y-20979900D02*
X27538400Y-21040000D01*
X27538400Y-21040000D02*
X23450000Y-21040000D01*
X23450000Y-21040000D02*
X21940000Y-19530000D01*
X15440000Y-19530000D02*
X21940000Y-19530000D01*
X56840000Y-19430000D02*
X63340000Y-19430000D01*
X21840000Y-58430000D02*
X15340000Y-58430000D01*
X40890200Y-49771800D02*
X53306500Y-49771800D01*
X32240000Y-58320000D02*
X40890200Y-49771800D01*
X23220000Y-58320000D02*
X32240000Y-58320000D01*
X23110000Y-58430000D02*
X23220000Y-58320000D01*
X21840000Y-58430000D02*
X23110000Y-58430000D01*
X56840000Y-58430000D02*
X63340000Y-58430000D01*
X51390000Y-36180000D02*
X43469200Y-36180000D01*
X43469200Y-36180000D02*
X40548700Y-39100500D01*
X51390000Y-35680000D02*
X42517000Y-35680000D01*
X42517000Y-35680000D02*
X41423400Y-36773600D01*
X51390000Y-35180000D02*
X50414700Y-35180000D01*
X50414700Y-35180000D02*
X50402100Y-35192600D01*
X50402100Y-35192600D02*
X41446300Y-35192600D01*
X41446300Y-35192600D02*
X41171200Y-35467700D01*
X50414700Y-34180000D02*
X49852400Y-34742300D01*
X49852400Y-34742300D02*
X40445000Y-34742300D01*
X51390000Y-34180000D02*
X50414700Y-34180000D01*
X50414700Y-33180000D02*
X50164300Y-32929600D01*
X50164300Y-32929600D02*
X40588800Y-32929600D01*
X51390000Y-33180000D02*
X50414700Y-33180000D01*
X51390000Y-43180000D02*
X42082200Y-43180000D01*
X42082200Y-43180000D02*
X41441000Y-43821200D01*
X51390000Y-42680000D02*
X41249500Y-42680000D01*
X41249500Y-42680000D02*
X41117800Y-42811700D01*
X51046700Y-47939100D02*
X56121200Y-47939100D01*
X56121200Y-47939100D02*
X56269300Y-48087200D01*
X52365300Y-34680000D02*
X52697800Y-34347500D01*
X52697800Y-34347500D02*
X52715000Y-34347500D01*
X51390000Y-34680000D02*
X52365300Y-34680000D01*
X49844800Y-33698500D02*
X41935600Y-33698500D01*
X41935600Y-33698500D02*
X41617100Y-34017000D01*
X50414700Y-33680000D02*
X50396200Y-33698500D01*
X50396200Y-33698500D02*
X49844800Y-33698500D01*
X51390000Y-33680000D02*
X50414700Y-33680000D01*
X52365300Y-44180000D02*
X52365300Y-44179900D01*
X52365300Y-44179900D02*
X53710000Y-44179900D01*
X53710000Y-44179900D02*
X56061900Y-41828000D01*
X51390000Y-44180000D02*
X52365300Y-44180000D01*
X50414700Y-44180000D02*
X48097700Y-46497000D01*
X48097700Y-46497000D02*
X40465800Y-46497000D01*
X50902400Y-44180000D02*
X51390000Y-44180000D01*
X50902400Y-44180000D02*
X50414700Y-44180000D01*
X51390000Y-43680000D02*
X53184100Y-43680000D01*
X53184100Y-43680000D02*
X54063200Y-42800900D01*
X37840000Y-35930000D02*
X36840000Y-35930000D01*
D21*
X49871800Y-54299500D02*
X58065000Y-54299500D01*
X44641300Y-59530000D02*
X49871800Y-54299500D01*
X26380000Y-59510000D02*
X44641300Y-59530000D01*
D20*
X48793800Y-14930000D02*
X50328900Y-16465100D01*
X50328900Y-16465100D02*
X50328900Y-18898900D01*
X50328900Y-18898900D02*
X51870000Y-20440000D01*
X46140000Y-53647200D02*
X52857200Y-53647200D01*
X52857200Y-53647200D02*
X61414600Y-45089800D01*
X61414600Y-45089800D02*
X61414600Y-25816100D01*
X61414600Y-25816100D02*
X58186500Y-22588000D01*
X58186500Y-22588000D02*
X55093300Y-22588000D01*
X55093300Y-22588000D02*
X52945300Y-20440000D01*
X51870000Y-20440000D02*
X52945300Y-20440000D01*
X48793800Y-14930000D02*
X47430000Y-14930000D01*
X47430000Y-14930000D02*
X47400000Y-14900000D01*
X45900000Y-16028400D02*
X48843900Y-16028400D01*
X45900000Y-16028400D02*
X45100000Y-15200000D01*
X49824800Y-29948700D02*
X45311300Y-29948700D01*
X45311300Y-29948700D02*
X43072700Y-27710100D01*
X45670000Y-20380000D02*
X46745300Y-20380000D01*
X49091000Y-24577400D02*
X46745300Y-22231700D01*
X49091000Y-27464600D02*
X49091000Y-24577400D01*
X46745300Y-22231700D02*
X46745300Y-20380000D01*
X48880900Y-27674700D02*
X49091000Y-27464600D01*
X41601700Y-51872700D02*
X53959900Y-51872700D01*
X53959900Y-51872700D02*
X60689300Y-45143300D01*
X60689300Y-45143300D02*
X60689300Y-30390100D01*
X53347400Y-17497900D02*
X53347400Y-17283800D01*
X52830000Y-17830000D02*
X53347400Y-17497900D01*
D22*
G36*
X61826113Y-45796470D02*
G01*
X61834910Y-45799192D01*
X61834912Y-45799193D01*
X61834914Y-45799193D01*
X61834916Y-45799194D01*
X61890967Y-45816117D01*
X61949620Y-45827731D01*
X62008165Y-45840175D01*
X62010529Y-45840423D01*
X62010617Y-45840450D01*
X62013254Y-45840710D01*
X62017330Y-45841138D01*
X62075600Y-45846851D01*
X62075608Y-45846851D01*
X62107581Y-45850000D01*
X64180001Y-45850000D01*
X64180000Y-57024873D01*
X64114463Y-56981082D01*
X63816912Y-56857832D01*
X63501033Y-56795000D01*
X63178967Y-56795000D01*
X62863088Y-56857832D01*
X62565537Y-56981082D01*
X62297748Y-57160013D01*
X62070013Y-57387748D01*
X61891082Y-57655537D01*
X61885091Y-57670000D01*
X58294909Y-57670000D01*
X58288918Y-57655537D01*
X58109987Y-57387748D01*
X57882252Y-57160013D01*
X57614463Y-56981082D01*
X57316912Y-56857832D01*
X57001033Y-56795000D01*
X56678967Y-56795000D01*
X56363088Y-56857832D01*
X56065537Y-56981082D01*
X55797748Y-57160013D01*
X55570013Y-57387748D01*
X55391082Y-57655537D01*
X55267832Y-57953088D01*
X55205000Y-58268967D01*
X55205000Y-58591033D01*
X55267832Y-58906912D01*
X55391082Y-59204463D01*
X55570013Y-59472252D01*
X55797748Y-59699987D01*
X56065537Y-59878918D01*
X56363088Y-60002168D01*
X56678967Y-60065000D01*
X57001033Y-60065000D01*
X57316912Y-60002168D01*
X57614463Y-59878918D01*
X57882252Y-59699987D01*
X58109987Y-59472252D01*
X58288918Y-59204463D01*
X58294909Y-59190000D01*
X61885091Y-59190000D01*
X61891082Y-59204463D01*
X62070013Y-59472252D01*
X62297748Y-59699987D01*
X62565537Y-59878918D01*
X62863088Y-60002168D01*
X63178967Y-60065000D01*
X63501033Y-60065000D01*
X63816912Y-60002168D01*
X64114463Y-59878918D01*
X64180000Y-59835127D01*
X64180000Y-61520435D01*
X63910429Y-61389296D01*
X63598892Y-61307616D01*
X63277405Y-61288282D01*
X62958325Y-61332039D01*
X62653912Y-61437205D01*
X62479956Y-61530186D01*
X62384192Y-61794587D01*
X63340000Y-62750395D01*
X63354143Y-62736253D01*
X63533748Y-62915858D01*
X63519605Y-62930000D01*
X63533748Y-62944143D01*
X63354143Y-63123748D01*
X63340000Y-63109605D01*
X63325858Y-63123748D01*
X63146253Y-62944143D01*
X63160395Y-62930000D01*
X62204587Y-61974192D01*
X61940186Y-62069956D01*
X61799296Y-62359571D01*
X61717616Y-62671108D01*
X61698282Y-62992595D01*
X61742039Y-63311675D01*
X61847205Y-63616088D01*
X61929472Y-63770000D01*
X58249565Y-63770000D01*
X58380704Y-63500429D01*
X58462384Y-63188892D01*
X58481718Y-62867405D01*
X58437961Y-62548325D01*
X58332795Y-62243912D01*
X58239814Y-62069956D01*
X57975413Y-61974192D01*
X57019605Y-62930000D01*
X57033748Y-62944143D01*
X56854143Y-63123748D01*
X56840000Y-63109605D01*
X56825858Y-63123748D01*
X56646253Y-62944143D01*
X56660395Y-62930000D01*
X55704587Y-61974192D01*
X55440186Y-62069956D01*
X55299296Y-62359571D01*
X55217616Y-62671108D01*
X55198282Y-62992595D01*
X55242039Y-63311675D01*
X55347205Y-63616088D01*
X55429472Y-63770000D01*
X42949565Y-63770000D01*
X43080704Y-63500429D01*
X43162384Y-63188892D01*
X43181718Y-62867405D01*
X43137961Y-62548325D01*
X43130556Y-62526890D01*
X45998524Y-62526890D01*
X46043175Y-62674099D01*
X46168359Y-62936920D01*
X46342412Y-63170269D01*
X46558645Y-63365178D01*
X46808748Y-63514157D01*
X47083109Y-63611481D01*
X47313000Y-63490814D01*
X47313000Y-62297000D01*
X47567000Y-62297000D01*
X47567000Y-63490814D01*
X47796891Y-63611481D01*
X48071252Y-63514157D01*
X48321355Y-63365178D01*
X48537588Y-63170269D01*
X48711641Y-62936920D01*
X48836825Y-62674099D01*
X48881476Y-62526890D01*
X48760155Y-62297000D01*
X47567000Y-62297000D01*
X47313000Y-62297000D01*
X46119845Y-62297000D01*
X45998524Y-62526890D01*
X43130556Y-62526890D01*
X43032795Y-62243912D01*
X42939814Y-62069956D01*
X42675413Y-61974192D01*
X41719605Y-62930000D01*
X41733748Y-62944143D01*
X41554143Y-63123748D01*
X41540000Y-63109605D01*
X41525858Y-63123748D01*
X41346253Y-62944143D01*
X41360395Y-62930000D01*
X40404587Y-61974192D01*
X40140186Y-62069956D01*
X39999296Y-62359571D01*
X39917616Y-62671108D01*
X39898282Y-62992595D01*
X39942039Y-63311675D01*
X40047205Y-63616088D01*
X40129472Y-63770000D01*
X38445128Y-63770000D01*
X38488918Y-63704463D01*
X38612168Y-63406912D01*
X38675000Y-63091033D01*
X38675000Y-62768967D01*
X38612168Y-62453088D01*
X38488918Y-62155537D01*
X38309987Y-61887748D01*
X38216826Y-61794587D01*
X40584192Y-61794587D01*
X41540000Y-62750395D01*
X42495808Y-61794587D01*
X42400044Y-61530186D01*
X42110429Y-61389296D01*
X41798892Y-61307616D01*
X41477405Y-61288282D01*
X41158325Y-61332039D01*
X40853912Y-61437205D01*
X40679956Y-61530186D01*
X40584192Y-61794587D01*
X38216826Y-61794587D01*
X38082252Y-61660013D01*
X37814463Y-61481082D01*
X37516912Y-61357832D01*
X37201033Y-61295000D01*
X36878967Y-61295000D01*
X36563088Y-61357832D01*
X36265537Y-61481082D01*
X35997748Y-61660013D01*
X35770013Y-61887748D01*
X35591082Y-62155537D01*
X35467832Y-62453088D01*
X35405000Y-62768967D01*
X35405000Y-63091033D01*
X35467832Y-63406912D01*
X35591082Y-63704463D01*
X35634872Y-63770000D01*
X23249565Y-63770000D01*
X23380704Y-63500429D01*
X23462384Y-63188892D01*
X23481718Y-62867405D01*
X23437961Y-62548325D01*
X23416737Y-62486890D01*
X24858524Y-62486890D01*
X24903175Y-62634099D01*
X25028359Y-62896920D01*
X25202412Y-63130269D01*
X25418645Y-63325178D01*
X25668748Y-63474157D01*
X25943109Y-63571481D01*
X26173000Y-63450814D01*
X26173000Y-62257000D01*
X26427000Y-62257000D01*
X26427000Y-63450814D01*
X26656891Y-63571481D01*
X26931252Y-63474157D01*
X27181355Y-63325178D01*
X27397588Y-63130269D01*
X27571641Y-62896920D01*
X27696825Y-62634099D01*
X27741476Y-62486890D01*
X27620155Y-62257000D01*
X26427000Y-62257000D01*
X26173000Y-62257000D01*
X24979845Y-62257000D01*
X24858524Y-62486890D01*
X23416737Y-62486890D01*
X23332795Y-62243912D01*
X23239814Y-62069956D01*
X22975413Y-61974192D01*
X22019605Y-62930000D01*
X22033748Y-62944143D01*
X21854143Y-63123748D01*
X21840000Y-63109605D01*
X21825858Y-63123748D01*
X21646253Y-62944143D01*
X21660395Y-62930000D01*
X20704587Y-61974192D01*
X20440186Y-62069956D01*
X20299296Y-62359571D01*
X20217616Y-62671108D01*
X20198282Y-62992595D01*
X20242039Y-63311675D01*
X20347205Y-63616088D01*
X20429472Y-63770000D01*
X16749565Y-63770000D01*
X16880704Y-63500429D01*
X16962384Y-63188892D01*
X16981718Y-62867405D01*
X16937961Y-62548325D01*
X16832795Y-62243912D01*
X16739814Y-62069956D01*
X16475413Y-61974192D01*
X15519605Y-62930000D01*
X15533748Y-62944143D01*
X15354143Y-63123748D01*
X15340000Y-63109605D01*
X15325858Y-63123748D01*
X15146253Y-62944143D01*
X15160395Y-62930000D01*
X15146253Y-62915858D01*
X15325858Y-62736253D01*
X15340000Y-62750395D01*
X16295808Y-61794587D01*
X20884192Y-61794587D01*
X21840000Y-62750395D01*
X22795808Y-61794587D01*
X22700044Y-61530186D01*
X22410429Y-61389296D01*
X22098892Y-61307616D01*
X21777405Y-61288282D01*
X21458325Y-61332039D01*
X21153912Y-61437205D01*
X20979956Y-61530186D01*
X20884192Y-61794587D01*
X16295808Y-61794587D01*
X16200044Y-61530186D01*
X15910429Y-61389296D01*
X15598892Y-61307616D01*
X15277405Y-61288282D01*
X14958325Y-61332039D01*
X14653912Y-61437205D01*
X14500000Y-61519472D01*
X14500000Y-59835128D01*
X14565537Y-59878918D01*
X14863088Y-60002168D01*
X15178967Y-60065000D01*
X15501033Y-60065000D01*
X15816912Y-60002168D01*
X16114463Y-59878918D01*
X16382252Y-59699987D01*
X16609987Y-59472252D01*
X16788918Y-59204463D01*
X16794909Y-59190000D01*
X20385091Y-59190000D01*
X20391082Y-59204463D01*
X20570013Y-59472252D01*
X20797748Y-59699987D01*
X21065537Y-59878918D01*
X21363088Y-60002168D01*
X21678967Y-60065000D01*
X22001033Y-60065000D01*
X22316912Y-60002168D01*
X22614463Y-59878918D01*
X22882252Y-59699987D01*
X23109987Y-59472252D01*
X23288918Y-59204463D01*
X23305281Y-59164960D01*
X23402247Y-59135546D01*
X23506165Y-59080000D01*
X24811928Y-59080000D01*
X24811928Y-60440000D01*
X24824188Y-60564482D01*
X24860498Y-60684180D01*
X24919463Y-60794494D01*
X24998815Y-60891185D01*
X25095506Y-60970537D01*
X25205820Y-61029502D01*
X25286466Y-61053966D01*
X25202412Y-61129731D01*
X25028359Y-61363080D01*
X24903175Y-61625901D01*
X24858524Y-61773110D01*
X24979845Y-62003000D01*
X26173000Y-62003000D01*
X26173000Y-61983000D01*
X26427000Y-61983000D01*
X26427000Y-62003000D01*
X27620155Y-62003000D01*
X27741476Y-61773110D01*
X27696825Y-61625901D01*
X27571641Y-61363080D01*
X27397789Y-61130000D01*
X33201928Y-61130000D01*
X33214188Y-61254482D01*
X33250498Y-61374180D01*
X33309463Y-61484494D01*
X33388815Y-61581185D01*
X33485506Y-61660537D01*
X33595820Y-61719502D01*
X33715518Y-61755812D01*
X33840000Y-61768072D01*
X34254250Y-61765000D01*
X34413000Y-61606250D01*
X34413000Y-60682000D01*
X34667000Y-60682000D01*
X34667000Y-61606250D01*
X34825750Y-61765000D01*
X35240000Y-61768072D01*
X35364482Y-61755812D01*
X35484180Y-61719502D01*
X35594494Y-61660537D01*
X35691185Y-61581185D01*
X35770537Y-61484494D01*
X35829502Y-61374180D01*
X35865812Y-61254482D01*
X35878072Y-61130000D01*
X42701928Y-61130000D01*
X42714188Y-61254482D01*
X42750498Y-61374180D01*
X42809463Y-61484494D01*
X42888815Y-61581185D01*
X42985506Y-61660537D01*
X43095820Y-61719502D01*
X43215518Y-61755812D01*
X43340000Y-61768072D01*
X43754250Y-61765000D01*
X43913000Y-61606250D01*
X43913000Y-60682000D01*
X44167000Y-60682000D01*
X44167000Y-61606250D01*
X44325750Y-61765000D01*
X44740000Y-61768072D01*
X44864482Y-61755812D01*
X44984180Y-61719502D01*
X45094494Y-61660537D01*
X45191185Y-61581185D01*
X45270537Y-61484494D01*
X45329502Y-61374180D01*
X45365812Y-61254482D01*
X45378072Y-61130000D01*
X45375000Y-60840750D01*
X45216250Y-60682000D01*
X44167000Y-60682000D01*
X43913000Y-60682000D01*
X42863750Y-60682000D01*
X42705000Y-60840750D01*
X42701928Y-61130000D01*
X35878072Y-61130000D01*
X35875000Y-60840750D01*
X35716250Y-60682000D01*
X34667000Y-60682000D01*
X34413000Y-60682000D01*
X33363750Y-60682000D01*
X33205000Y-60840750D01*
X33201928Y-61130000D01*
X27397789Y-61130000D01*
X27397588Y-61129731D01*
X27313534Y-61053966D01*
X27394180Y-61029502D01*
X27504494Y-60970537D01*
X27601185Y-60891185D01*
X27680537Y-60794494D01*
X27739502Y-60684180D01*
X27775812Y-60564482D01*
X27788072Y-60440000D01*
X27788072Y-60296542D01*
X33238261Y-60302511D01*
X33363750Y-60428000D01*
X34413000Y-60428000D01*
X34413000Y-60408000D01*
X34667000Y-60408000D01*
X34667000Y-60428000D01*
X35716250Y-60428000D01*
X35838891Y-60305359D01*
X42748677Y-60312927D01*
X42863750Y-60428000D01*
X43913000Y-60428000D01*
X43913000Y-60408000D01*
X44167000Y-60408000D01*
X44167000Y-60428000D01*
X45216250Y-60428000D01*
X45375000Y-60269250D01*
X45378072Y-59980000D01*
X45371203Y-59910254D01*
X45951928Y-59329529D01*
X45951928Y-60480000D01*
X45964188Y-60604482D01*
X46000498Y-60724180D01*
X46059463Y-60834494D01*
X46138815Y-60931185D01*
X46235506Y-61010537D01*
X46345820Y-61069502D01*
X46426466Y-61093966D01*
X46342412Y-61169731D01*
X46168359Y-61403080D01*
X46043175Y-61665901D01*
X45998524Y-61813110D01*
X46119845Y-62043000D01*
X47313000Y-62043000D01*
X47313000Y-62023000D01*
X47567000Y-62023000D01*
X47567000Y-62043000D01*
X48760155Y-62043000D01*
X48881476Y-61813110D01*
X48875858Y-61794587D01*
X55884192Y-61794587D01*
X56840000Y-62750395D01*
X57795808Y-61794587D01*
X57700044Y-61530186D01*
X57410429Y-61389296D01*
X57098892Y-61307616D01*
X56777405Y-61288282D01*
X56458325Y-61332039D01*
X56153912Y-61437205D01*
X55979956Y-61530186D01*
X55884192Y-61794587D01*
X48875858Y-61794587D01*
X48836825Y-61665901D01*
X48711641Y-61403080D01*
X48537588Y-61169731D01*
X48453534Y-61093966D01*
X48534180Y-61069502D01*
X48644494Y-61010537D01*
X48741185Y-60931185D01*
X48820537Y-60834494D01*
X48879502Y-60724180D01*
X48915812Y-60604482D01*
X48928072Y-60480000D01*
X48928072Y-58780000D01*
X48915812Y-58655518D01*
X48879502Y-58535820D01*
X48820537Y-58425506D01*
X48741185Y-58328815D01*
X48644494Y-58249463D01*
X48534180Y-58190498D01*
X48414482Y-58154188D01*
X48290000Y-58141928D01*
X47139529Y-58141928D01*
X50196958Y-55084500D01*
X57386289Y-55084500D01*
X57405226Y-55103437D01*
X57574744Y-55216705D01*
X57763102Y-55294726D01*
X57963061Y-55334500D01*
X58166939Y-55334500D01*
X58366898Y-55294726D01*
X58555256Y-55216705D01*
X58724774Y-55103437D01*
X58868937Y-54959274D01*
X58982205Y-54789756D01*
X59060226Y-54601398D01*
X59100000Y-54401439D01*
X59100000Y-54197561D01*
X59060226Y-53997602D01*
X58982205Y-53809244D01*
X58868937Y-53639726D01*
X58779522Y-53550311D01*
X58782981Y-53549623D01*
X59184144Y-53383456D01*
X59545181Y-53142218D01*
X59852218Y-52835181D01*
X60093456Y-52474144D01*
X60259623Y-52072981D01*
X60344334Y-51647108D01*
X60344334Y-51212892D01*
X60259623Y-50787019D01*
X60093456Y-50385856D01*
X59852218Y-50024819D01*
X59545181Y-49717782D01*
X59184144Y-49476544D01*
X58782981Y-49310377D01*
X58357108Y-49225666D01*
X58353536Y-49225666D01*
X61795747Y-45783455D01*
X61826113Y-45796470D01*
G37*
X61826113Y-45796470D02*
X61834910Y-45799192D01*
X61834912Y-45799193D01*
X61834914Y-45799193D01*
X61834916Y-45799194D01*
X61890967Y-45816117D01*
X61949620Y-45827731D01*
X62008165Y-45840175D01*
X62010529Y-45840423D01*
X62010617Y-45840450D01*
X62013254Y-45840710D01*
X62017330Y-45841138D01*
X62075600Y-45846851D01*
X62075608Y-45846851D01*
X62107581Y-45850000D01*
X64180001Y-45850000D01*
X64180000Y-57024873D01*
X64114463Y-56981082D01*
X63816912Y-56857832D01*
X63501033Y-56795000D01*
X63178967Y-56795000D01*
X62863088Y-56857832D01*
X62565537Y-56981082D01*
X62297748Y-57160013D01*
X62070013Y-57387748D01*
X61891082Y-57655537D01*
X61885091Y-57670000D01*
X58294909Y-57670000D01*
X58288918Y-57655537D01*
X58109987Y-57387748D01*
X57882252Y-57160013D01*
X57614463Y-56981082D01*
X57316912Y-56857832D01*
X57001033Y-56795000D01*
X56678967Y-56795000D01*
X56363088Y-56857832D01*
X56065537Y-56981082D01*
X55797748Y-57160013D01*
X55570013Y-57387748D01*
X55391082Y-57655537D01*
X55267832Y-57953088D01*
X55205000Y-58268967D01*
X55205000Y-58591033D01*
X55267832Y-58906912D01*
X55391082Y-59204463D01*
X55570013Y-59472252D01*
X55797748Y-59699987D01*
X56065537Y-59878918D01*
X56363088Y-60002168D01*
X56678967Y-60065000D01*
X57001033Y-60065000D01*
X57316912Y-60002168D01*
X57614463Y-59878918D01*
X57882252Y-59699987D01*
X58109987Y-59472252D01*
X58288918Y-59204463D01*
X58294909Y-59190000D01*
X61885091Y-59190000D01*
X61891082Y-59204463D01*
X62070013Y-59472252D01*
X62297748Y-59699987D01*
X62565537Y-59878918D01*
X62863088Y-60002168D01*
X63178967Y-60065000D01*
X63501033Y-60065000D01*
X63816912Y-60002168D01*
X64114463Y-59878918D01*
X64180000Y-59835127D01*
X64180000Y-61520435D01*
X63910429Y-61389296D01*
X63598892Y-61307616D01*
X63277405Y-61288282D01*
X62958325Y-61332039D01*
X62653912Y-61437205D01*
X62479956Y-61530186D01*
X62384192Y-61794587D01*
X63340000Y-62750395D01*
X63354143Y-62736253D01*
X63533748Y-62915858D01*
X63519605Y-62930000D01*
X63533748Y-62944143D01*
X63354143Y-63123748D01*
X63340000Y-63109605D01*
X63325858Y-63123748D01*
X63146253Y-62944143D01*
X63160395Y-62930000D01*
X62204587Y-61974192D01*
X61940186Y-62069956D01*
X61799296Y-62359571D01*
X61717616Y-62671108D01*
X61698282Y-62992595D01*
X61742039Y-63311675D01*
X61847205Y-63616088D01*
X61929472Y-63770000D01*
X58249565Y-63770000D01*
X58380704Y-63500429D01*
X58462384Y-63188892D01*
X58481718Y-62867405D01*
X58437961Y-62548325D01*
X58332795Y-62243912D01*
X58239814Y-62069956D01*
X57975413Y-61974192D01*
X57019605Y-62930000D01*
X57033748Y-62944143D01*
X56854143Y-63123748D01*
X56840000Y-63109605D01*
X56825858Y-63123748D01*
X56646253Y-62944143D01*
X56660395Y-62930000D01*
X55704587Y-61974192D01*
X55440186Y-62069956D01*
X55299296Y-62359571D01*
X55217616Y-62671108D01*
X55198282Y-62992595D01*
X55242039Y-63311675D01*
X55347205Y-63616088D01*
X55429472Y-63770000D01*
X42949565Y-63770000D01*
X43080704Y-63500429D01*
X43162384Y-63188892D01*
X43181718Y-62867405D01*
X43137961Y-62548325D01*
X43130556Y-62526890D01*
X45998524Y-62526890D01*
X46043175Y-62674099D01*
X46168359Y-62936920D01*
X46342412Y-63170269D01*
X46558645Y-63365178D01*
X46808748Y-63514157D01*
X47083109Y-63611481D01*
X47313000Y-63490814D01*
X47313000Y-62297000D01*
X47567000Y-62297000D01*
X47567000Y-63490814D01*
X47796891Y-63611481D01*
X48071252Y-63514157D01*
X48321355Y-63365178D01*
X48537588Y-63170269D01*
X48711641Y-62936920D01*
X48836825Y-62674099D01*
X48881476Y-62526890D01*
X48760155Y-62297000D01*
X47567000Y-62297000D01*
X47313000Y-62297000D01*
X46119845Y-62297000D01*
X45998524Y-62526890D01*
X43130556Y-62526890D01*
X43032795Y-62243912D01*
X42939814Y-62069956D01*
X42675413Y-61974192D01*
X41719605Y-62930000D01*
X41733748Y-62944143D01*
X41554143Y-63123748D01*
X41540000Y-63109605D01*
X41525858Y-63123748D01*
X41346253Y-62944143D01*
X41360395Y-62930000D01*
X40404587Y-61974192D01*
X40140186Y-62069956D01*
X39999296Y-62359571D01*
X39917616Y-62671108D01*
X39898282Y-62992595D01*
X39942039Y-63311675D01*
X40047205Y-63616088D01*
X40129472Y-63770000D01*
X38445128Y-63770000D01*
X38488918Y-63704463D01*
X38612168Y-63406912D01*
X38675000Y-63091033D01*
X38675000Y-62768967D01*
X38612168Y-62453088D01*
X38488918Y-62155537D01*
X38309987Y-61887748D01*
X38216826Y-61794587D01*
X40584192Y-61794587D01*
X41540000Y-62750395D01*
X42495808Y-61794587D01*
X42400044Y-61530186D01*
X42110429Y-61389296D01*
X41798892Y-61307616D01*
X41477405Y-61288282D01*
X41158325Y-61332039D01*
X40853912Y-61437205D01*
X40679956Y-61530186D01*
X40584192Y-61794587D01*
X38216826Y-61794587D01*
X38082252Y-61660013D01*
X37814463Y-61481082D01*
X37516912Y-61357832D01*
X37201033Y-61295000D01*
X36878967Y-61295000D01*
X36563088Y-61357832D01*
X36265537Y-61481082D01*
X35997748Y-61660013D01*
X35770013Y-61887748D01*
X35591082Y-62155537D01*
X35467832Y-62453088D01*
X35405000Y-62768967D01*
X35405000Y-63091033D01*
X35467832Y-63406912D01*
X35591082Y-63704463D01*
X35634872Y-63770000D01*
X23249565Y-63770000D01*
X23380704Y-63500429D01*
X23462384Y-63188892D01*
X23481718Y-62867405D01*
X23437961Y-62548325D01*
X23416737Y-62486890D01*
X24858524Y-62486890D01*
X24903175Y-62634099D01*
X25028359Y-62896920D01*
X25202412Y-63130269D01*
X25418645Y-63325178D01*
X25668748Y-63474157D01*
X25943109Y-63571481D01*
X26173000Y-63450814D01*
X26173000Y-62257000D01*
X26427000Y-62257000D01*
X26427000Y-63450814D01*
X26656891Y-63571481D01*
X26931252Y-63474157D01*
X27181355Y-63325178D01*
X27397588Y-63130269D01*
X27571641Y-62896920D01*
X27696825Y-62634099D01*
X27741476Y-62486890D01*
X27620155Y-62257000D01*
X26427000Y-62257000D01*
X26173000Y-62257000D01*
X24979845Y-62257000D01*
X24858524Y-62486890D01*
X23416737Y-62486890D01*
X23332795Y-62243912D01*
X23239814Y-62069956D01*
X22975413Y-61974192D01*
X22019605Y-62930000D01*
X22033748Y-62944143D01*
X21854143Y-63123748D01*
X21840000Y-63109605D01*
X21825858Y-63123748D01*
X21646253Y-62944143D01*
X21660395Y-62930000D01*
X20704587Y-61974192D01*
X20440186Y-62069956D01*
X20299296Y-62359571D01*
X20217616Y-62671108D01*
X20198282Y-62992595D01*
X20242039Y-63311675D01*
X20347205Y-63616088D01*
X20429472Y-63770000D01*
X16749565Y-63770000D01*
X16880704Y-63500429D01*
X16962384Y-63188892D01*
X16981718Y-62867405D01*
X16937961Y-62548325D01*
X16832795Y-62243912D01*
X16739814Y-62069956D01*
X16475413Y-61974192D01*
X15519605Y-62930000D01*
X15533748Y-62944143D01*
X15354143Y-63123748D01*
X15340000Y-63109605D01*
X15325858Y-63123748D01*
X15146253Y-62944143D01*
X15160395Y-62930000D01*
X15146253Y-62915858D01*
X15325858Y-62736253D01*
X15340000Y-62750395D01*
X16295808Y-61794587D01*
X20884192Y-61794587D01*
X21840000Y-62750395D01*
X22795808Y-61794587D01*
X22700044Y-61530186D01*
X22410429Y-61389296D01*
X22098892Y-61307616D01*
X21777405Y-61288282D01*
X21458325Y-61332039D01*
X21153912Y-61437205D01*
X20979956Y-61530186D01*
X20884192Y-61794587D01*
X16295808Y-61794587D01*
X16200044Y-61530186D01*
X15910429Y-61389296D01*
X15598892Y-61307616D01*
X15277405Y-61288282D01*
X14958325Y-61332039D01*
X14653912Y-61437205D01*
X14500000Y-61519472D01*
X14500000Y-59835128D01*
X14565537Y-59878918D01*
X14863088Y-60002168D01*
X15178967Y-60065000D01*
X15501033Y-60065000D01*
X15816912Y-60002168D01*
X16114463Y-59878918D01*
X16382252Y-59699987D01*
X16609987Y-59472252D01*
X16788918Y-59204463D01*
X16794909Y-59190000D01*
X20385091Y-59190000D01*
X20391082Y-59204463D01*
X20570013Y-59472252D01*
X20797748Y-59699987D01*
X21065537Y-59878918D01*
X21363088Y-60002168D01*
X21678967Y-60065000D01*
X22001033Y-60065000D01*
X22316912Y-60002168D01*
X22614463Y-59878918D01*
X22882252Y-59699987D01*
X23109987Y-59472252D01*
X23288918Y-59204463D01*
X23305281Y-59164960D01*
X23402247Y-59135546D01*
X23506165Y-59080000D01*
X24811928Y-59080000D01*
X24811928Y-60440000D01*
X24824188Y-60564482D01*
X24860498Y-60684180D01*
X24919463Y-60794494D01*
X24998815Y-60891185D01*
X25095506Y-60970537D01*
X25205820Y-61029502D01*
X25286466Y-61053966D01*
X25202412Y-61129731D01*
X25028359Y-61363080D01*
X24903175Y-61625901D01*
X24858524Y-61773110D01*
X24979845Y-62003000D01*
X26173000Y-62003000D01*
X26173000Y-61983000D01*
X26427000Y-61983000D01*
X26427000Y-62003000D01*
X27620155Y-62003000D01*
X27741476Y-61773110D01*
X27696825Y-61625901D01*
X27571641Y-61363080D01*
X27397789Y-61130000D01*
X33201928Y-61130000D01*
X33214188Y-61254482D01*
X33250498Y-61374180D01*
X33309463Y-61484494D01*
X33388815Y-61581185D01*
X33485506Y-61660537D01*
X33595820Y-61719502D01*
X33715518Y-61755812D01*
X33840000Y-61768072D01*
X34254250Y-61765000D01*
X34413000Y-61606250D01*
X34413000Y-60682000D01*
X34667000Y-60682000D01*
X34667000Y-61606250D01*
X34825750Y-61765000D01*
X35240000Y-61768072D01*
X35364482Y-61755812D01*
X35484180Y-61719502D01*
X35594494Y-61660537D01*
X35691185Y-61581185D01*
X35770537Y-61484494D01*
X35829502Y-61374180D01*
X35865812Y-61254482D01*
X35878072Y-61130000D01*
X42701928Y-61130000D01*
X42714188Y-61254482D01*
X42750498Y-61374180D01*
X42809463Y-61484494D01*
X42888815Y-61581185D01*
X42985506Y-61660537D01*
X43095820Y-61719502D01*
X43215518Y-61755812D01*
X43340000Y-61768072D01*
X43754250Y-61765000D01*
X43913000Y-61606250D01*
X43913000Y-60682000D01*
X44167000Y-60682000D01*
X44167000Y-61606250D01*
X44325750Y-61765000D01*
X44740000Y-61768072D01*
X44864482Y-61755812D01*
X44984180Y-61719502D01*
X45094494Y-61660537D01*
X45191185Y-61581185D01*
X45270537Y-61484494D01*
X45329502Y-61374180D01*
X45365812Y-61254482D01*
X45378072Y-61130000D01*
X45375000Y-60840750D01*
X45216250Y-60682000D01*
X44167000Y-60682000D01*
X43913000Y-60682000D01*
X42863750Y-60682000D01*
X42705000Y-60840750D01*
X42701928Y-61130000D01*
X35878072Y-61130000D01*
X35875000Y-60840750D01*
X35716250Y-60682000D01*
X34667000Y-60682000D01*
X34413000Y-60682000D01*
X33363750Y-60682000D01*
X33205000Y-60840750D01*
X33201928Y-61130000D01*
X27397789Y-61130000D01*
X27397588Y-61129731D01*
X27313534Y-61053966D01*
X27394180Y-61029502D01*
X27504494Y-60970537D01*
X27601185Y-60891185D01*
X27680537Y-60794494D01*
X27739502Y-60684180D01*
X27775812Y-60564482D01*
X27788072Y-60440000D01*
X27788072Y-60296542D01*
X33238261Y-60302511D01*
X33363750Y-60428000D01*
X34413000Y-60428000D01*
X34413000Y-60408000D01*
X34667000Y-60408000D01*
X34667000Y-60428000D01*
X35716250Y-60428000D01*
X35838891Y-60305359D01*
X42748677Y-60312927D01*
X42863750Y-60428000D01*
X43913000Y-60428000D01*
X43913000Y-60408000D01*
X44167000Y-60408000D01*
X44167000Y-60428000D01*
X45216250Y-60428000D01*
X45375000Y-60269250D01*
X45378072Y-59980000D01*
X45371203Y-59910254D01*
X45951928Y-59329529D01*
X45951928Y-60480000D01*
X45964188Y-60604482D01*
X46000498Y-60724180D01*
X46059463Y-60834494D01*
X46138815Y-60931185D01*
X46235506Y-61010537D01*
X46345820Y-61069502D01*
X46426466Y-61093966D01*
X46342412Y-61169731D01*
X46168359Y-61403080D01*
X46043175Y-61665901D01*
X45998524Y-61813110D01*
X46119845Y-62043000D01*
X47313000Y-62043000D01*
X47313000Y-62023000D01*
X47567000Y-62023000D01*
X47567000Y-62043000D01*
X48760155Y-62043000D01*
X48881476Y-61813110D01*
X48875858Y-61794587D01*
X55884192Y-61794587D01*
X56840000Y-62750395D01*
X57795808Y-61794587D01*
X57700044Y-61530186D01*
X57410429Y-61389296D01*
X57098892Y-61307616D01*
X56777405Y-61288282D01*
X56458325Y-61332039D01*
X56153912Y-61437205D01*
X55979956Y-61530186D01*
X55884192Y-61794587D01*
X48875858Y-61794587D01*
X48836825Y-61665901D01*
X48711641Y-61403080D01*
X48537588Y-61169731D01*
X48453534Y-61093966D01*
X48534180Y-61069502D01*
X48644494Y-61010537D01*
X48741185Y-60931185D01*
X48820537Y-60834494D01*
X48879502Y-60724180D01*
X48915812Y-60604482D01*
X48928072Y-60480000D01*
X48928072Y-58780000D01*
X48915812Y-58655518D01*
X48879502Y-58535820D01*
X48820537Y-58425506D01*
X48741185Y-58328815D01*
X48644494Y-58249463D01*
X48534180Y-58190498D01*
X48414482Y-58154188D01*
X48290000Y-58141928D01*
X47139529Y-58141928D01*
X50196958Y-55084500D01*
X57386289Y-55084500D01*
X57405226Y-55103437D01*
X57574744Y-55216705D01*
X57763102Y-55294726D01*
X57963061Y-55334500D01*
X58166939Y-55334500D01*
X58366898Y-55294726D01*
X58555256Y-55216705D01*
X58724774Y-55103437D01*
X58868937Y-54959274D01*
X58982205Y-54789756D01*
X59060226Y-54601398D01*
X59100000Y-54401439D01*
X59100000Y-54197561D01*
X59060226Y-53997602D01*
X58982205Y-53809244D01*
X58868937Y-53639726D01*
X58779522Y-53550311D01*
X58782981Y-53549623D01*
X59184144Y-53383456D01*
X59545181Y-53142218D01*
X59852218Y-52835181D01*
X60093456Y-52474144D01*
X60259623Y-52072981D01*
X60344334Y-51647108D01*
X60344334Y-51212892D01*
X60259623Y-50787019D01*
X60093456Y-50385856D01*
X59852218Y-50024819D01*
X59545181Y-49717782D01*
X59184144Y-49476544D01*
X58782981Y-49310377D01*
X58357108Y-49225666D01*
X58353536Y-49225666D01*
X61795747Y-45783455D01*
X61826113Y-45796470D01*
G36*
X50011700Y-48041039D02*
G01*
X50051474Y-48240998D01*
X50129495Y-48429356D01*
X50242763Y-48598874D01*
X50386926Y-48743037D01*
X50556444Y-48856305D01*
X50744802Y-48934326D01*
X50944761Y-48974100D01*
X51148639Y-48974100D01*
X51348598Y-48934326D01*
X51536956Y-48856305D01*
X51706474Y-48743037D01*
X51750411Y-48699100D01*
X55433375Y-48699100D01*
X55465363Y-48746974D01*
X55609526Y-48891137D01*
X55763668Y-48994131D01*
X53645099Y-51112700D01*
X42305411Y-51112700D01*
X42261474Y-51068763D01*
X42091956Y-50955495D01*
X41903598Y-50877474D01*
X41703639Y-50837700D01*
X41499761Y-50837700D01*
X41299802Y-50877474D01*
X41111444Y-50955495D01*
X40941926Y-51068763D01*
X40797763Y-51212926D01*
X40684495Y-51382444D01*
X40606474Y-51570802D01*
X40566700Y-51770761D01*
X40566700Y-51974639D01*
X40606474Y-52174598D01*
X40684495Y-52362956D01*
X40797763Y-52532474D01*
X40941926Y-52676637D01*
X41111444Y-52789905D01*
X41299802Y-52867926D01*
X41499761Y-52907700D01*
X41703639Y-52907700D01*
X41903598Y-52867926D01*
X42091956Y-52789905D01*
X42261474Y-52676637D01*
X42305411Y-52632700D01*
X43075000Y-52632700D01*
X43075000Y-52821939D01*
X43114774Y-53021898D01*
X43192795Y-53210256D01*
X43280000Y-53340768D01*
X43280001Y-57350473D01*
X43250149Y-57359528D01*
X43096613Y-57441595D01*
X42962038Y-57552038D01*
X42851595Y-57686613D01*
X42769528Y-57840149D01*
X42718992Y-58006745D01*
X42701928Y-58179999D01*
X42701928Y-58742876D01*
X35878072Y-58735402D01*
X35878072Y-58179999D01*
X35861008Y-58006745D01*
X35810472Y-57840149D01*
X35728405Y-57686613D01*
X35617962Y-57552038D01*
X35527959Y-57478174D01*
X35540000Y-57417639D01*
X35540000Y-57213761D01*
X35500226Y-57013802D01*
X35422205Y-56825444D01*
X35308937Y-56655926D01*
X35164774Y-56511763D01*
X35156584Y-56506291D01*
X35407021Y-56258807D01*
X35405000Y-56268967D01*
X35405000Y-56591033D01*
X35467832Y-56906912D01*
X35591082Y-57204463D01*
X35770013Y-57472252D01*
X35997748Y-57699987D01*
X36265537Y-57878918D01*
X36563088Y-58002168D01*
X36878967Y-58065000D01*
X37201033Y-58065000D01*
X37516912Y-58002168D01*
X37814463Y-57878918D01*
X38082252Y-57699987D01*
X38216826Y-57565413D01*
X40584192Y-57565413D01*
X40679956Y-57829814D01*
X40969571Y-57970704D01*
X41281108Y-58052384D01*
X41602595Y-58071718D01*
X41921675Y-58027961D01*
X42226088Y-57922795D01*
X42400044Y-57829814D01*
X42495808Y-57565413D01*
X41540000Y-56609605D01*
X40584192Y-57565413D01*
X38216826Y-57565413D01*
X38309987Y-57472252D01*
X38488918Y-57204463D01*
X38612168Y-56906912D01*
X38675000Y-56591033D01*
X38675000Y-56492595D01*
X39898282Y-56492595D01*
X39942039Y-56811675D01*
X40047205Y-57116088D01*
X40140186Y-57290044D01*
X40404587Y-57385808D01*
X41360395Y-56430000D01*
X41719605Y-56430000D01*
X42675413Y-57385808D01*
X42939814Y-57290044D01*
X43080704Y-57000429D01*
X43162384Y-56688892D01*
X43181718Y-56367405D01*
X43137961Y-56048325D01*
X43032795Y-55743912D01*
X42939814Y-55569956D01*
X42675413Y-55474192D01*
X41719605Y-56430000D01*
X41360395Y-56430000D01*
X40404587Y-55474192D01*
X40140186Y-55569956D01*
X39999296Y-55859571D01*
X39917616Y-56171108D01*
X39898282Y-56492595D01*
X38675000Y-56492595D01*
X38675000Y-56268967D01*
X38612168Y-55953088D01*
X38488918Y-55655537D01*
X38309987Y-55387748D01*
X38216826Y-55294587D01*
X40584192Y-55294587D01*
X41540000Y-56250395D01*
X42495808Y-55294587D01*
X42400044Y-55030186D01*
X42110429Y-54889296D01*
X41798892Y-54807616D01*
X41477405Y-54788282D01*
X41158325Y-54832039D01*
X40853912Y-54937205D01*
X40679956Y-55030186D01*
X40584192Y-55294587D01*
X38216826Y-55294587D01*
X38082252Y-55160013D01*
X37814463Y-54981082D01*
X37516912Y-54857832D01*
X37201033Y-54795000D01*
X36888295Y-54795000D01*
X41202365Y-50531800D01*
X52602789Y-50531800D01*
X52646726Y-50575737D01*
X52816244Y-50689005D01*
X53004602Y-50767026D01*
X53204561Y-50806800D01*
X53408439Y-50806800D01*
X53608398Y-50767026D01*
X53796756Y-50689005D01*
X53966274Y-50575737D01*
X54110437Y-50431574D01*
X54223705Y-50262056D01*
X54301726Y-50073698D01*
X54341500Y-49873739D01*
X54341500Y-49669861D01*
X54301726Y-49469902D01*
X54223705Y-49281544D01*
X54110437Y-49112026D01*
X53966274Y-48967863D01*
X53796756Y-48854595D01*
X53608398Y-48776574D01*
X53408439Y-48736800D01*
X53204561Y-48736800D01*
X53004602Y-48776574D01*
X52816244Y-48854595D01*
X52646726Y-48967863D01*
X52602789Y-49011800D01*
X48846901Y-49011800D01*
X50011700Y-47847001D01*
X50011700Y-48041039D01*
G37*
X50011700Y-48041039D02*
X50051474Y-48240998D01*
X50129495Y-48429356D01*
X50242763Y-48598874D01*
X50386926Y-48743037D01*
X50556444Y-48856305D01*
X50744802Y-48934326D01*
X50944761Y-48974100D01*
X51148639Y-48974100D01*
X51348598Y-48934326D01*
X51536956Y-48856305D01*
X51706474Y-48743037D01*
X51750411Y-48699100D01*
X55433375Y-48699100D01*
X55465363Y-48746974D01*
X55609526Y-48891137D01*
X55763668Y-48994131D01*
X53645099Y-51112700D01*
X42305411Y-51112700D01*
X42261474Y-51068763D01*
X42091956Y-50955495D01*
X41903598Y-50877474D01*
X41703639Y-50837700D01*
X41499761Y-50837700D01*
X41299802Y-50877474D01*
X41111444Y-50955495D01*
X40941926Y-51068763D01*
X40797763Y-51212926D01*
X40684495Y-51382444D01*
X40606474Y-51570802D01*
X40566700Y-51770761D01*
X40566700Y-51974639D01*
X40606474Y-52174598D01*
X40684495Y-52362956D01*
X40797763Y-52532474D01*
X40941926Y-52676637D01*
X41111444Y-52789905D01*
X41299802Y-52867926D01*
X41499761Y-52907700D01*
X41703639Y-52907700D01*
X41903598Y-52867926D01*
X42091956Y-52789905D01*
X42261474Y-52676637D01*
X42305411Y-52632700D01*
X43075000Y-52632700D01*
X43075000Y-52821939D01*
X43114774Y-53021898D01*
X43192795Y-53210256D01*
X43280000Y-53340768D01*
X43280001Y-57350473D01*
X43250149Y-57359528D01*
X43096613Y-57441595D01*
X42962038Y-57552038D01*
X42851595Y-57686613D01*
X42769528Y-57840149D01*
X42718992Y-58006745D01*
X42701928Y-58179999D01*
X42701928Y-58742876D01*
X35878072Y-58735402D01*
X35878072Y-58179999D01*
X35861008Y-58006745D01*
X35810472Y-57840149D01*
X35728405Y-57686613D01*
X35617962Y-57552038D01*
X35527959Y-57478174D01*
X35540000Y-57417639D01*
X35540000Y-57213761D01*
X35500226Y-57013802D01*
X35422205Y-56825444D01*
X35308937Y-56655926D01*
X35164774Y-56511763D01*
X35156584Y-56506291D01*
X35407021Y-56258807D01*
X35405000Y-56268967D01*
X35405000Y-56591033D01*
X35467832Y-56906912D01*
X35591082Y-57204463D01*
X35770013Y-57472252D01*
X35997748Y-57699987D01*
X36265537Y-57878918D01*
X36563088Y-58002168D01*
X36878967Y-58065000D01*
X37201033Y-58065000D01*
X37516912Y-58002168D01*
X37814463Y-57878918D01*
X38082252Y-57699987D01*
X38216826Y-57565413D01*
X40584192Y-57565413D01*
X40679956Y-57829814D01*
X40969571Y-57970704D01*
X41281108Y-58052384D01*
X41602595Y-58071718D01*
X41921675Y-58027961D01*
X42226088Y-57922795D01*
X42400044Y-57829814D01*
X42495808Y-57565413D01*
X41540000Y-56609605D01*
X40584192Y-57565413D01*
X38216826Y-57565413D01*
X38309987Y-57472252D01*
X38488918Y-57204463D01*
X38612168Y-56906912D01*
X38675000Y-56591033D01*
X38675000Y-56492595D01*
X39898282Y-56492595D01*
X39942039Y-56811675D01*
X40047205Y-57116088D01*
X40140186Y-57290044D01*
X40404587Y-57385808D01*
X41360395Y-56430000D01*
X41719605Y-56430000D01*
X42675413Y-57385808D01*
X42939814Y-57290044D01*
X43080704Y-57000429D01*
X43162384Y-56688892D01*
X43181718Y-56367405D01*
X43137961Y-56048325D01*
X43032795Y-55743912D01*
X42939814Y-55569956D01*
X42675413Y-55474192D01*
X41719605Y-56430000D01*
X41360395Y-56430000D01*
X40404587Y-55474192D01*
X40140186Y-55569956D01*
X39999296Y-55859571D01*
X39917616Y-56171108D01*
X39898282Y-56492595D01*
X38675000Y-56492595D01*
X38675000Y-56268967D01*
X38612168Y-55953088D01*
X38488918Y-55655537D01*
X38309987Y-55387748D01*
X38216826Y-55294587D01*
X40584192Y-55294587D01*
X41540000Y-56250395D01*
X42495808Y-55294587D01*
X42400044Y-55030186D01*
X42110429Y-54889296D01*
X41798892Y-54807616D01*
X41477405Y-54788282D01*
X41158325Y-54832039D01*
X40853912Y-54937205D01*
X40679956Y-55030186D01*
X40584192Y-55294587D01*
X38216826Y-55294587D01*
X38082252Y-55160013D01*
X37814463Y-54981082D01*
X37516912Y-54857832D01*
X37201033Y-54795000D01*
X36888295Y-54795000D01*
X41202365Y-50531800D01*
X52602789Y-50531800D01*
X52646726Y-50575737D01*
X52816244Y-50689005D01*
X53004602Y-50767026D01*
X53204561Y-50806800D01*
X53408439Y-50806800D01*
X53608398Y-50767026D01*
X53796756Y-50689005D01*
X53966274Y-50575737D01*
X54110437Y-50431574D01*
X54223705Y-50262056D01*
X54301726Y-50073698D01*
X54341500Y-49873739D01*
X54341500Y-49669861D01*
X54301726Y-49469902D01*
X54223705Y-49281544D01*
X54110437Y-49112026D01*
X53966274Y-48967863D01*
X53796756Y-48854595D01*
X53608398Y-48776574D01*
X53408439Y-48736800D01*
X53204561Y-48736800D01*
X53004602Y-48776574D01*
X52816244Y-48854595D01*
X52646726Y-48967863D01*
X52602789Y-49011800D01*
X48846901Y-49011800D01*
X50011700Y-47847001D01*
X50011700Y-48041039D01*
G36*
X20491082Y-20304463D02*
G01*
X20670013Y-20572252D01*
X20897748Y-20799987D01*
X21165537Y-20978918D01*
X21463088Y-21102168D01*
X21778967Y-21165000D01*
X22101033Y-21165000D01*
X22416912Y-21102168D01*
X22431375Y-21096177D01*
X22886205Y-21551008D01*
X22909999Y-21580001D01*
X22938992Y-21603795D01*
X22938996Y-21603799D01*
X22983108Y-21640000D01*
X23025724Y-21674974D01*
X23157753Y-21745546D01*
X23301014Y-21789003D01*
X23412667Y-21800000D01*
X23412676Y-21800000D01*
X23449999Y-21803676D01*
X23487322Y-21800000D01*
X24281176Y-21800000D01*
X24212068Y-21966842D01*
X24155000Y-22253740D01*
X24155000Y-22546260D01*
X24212068Y-22833158D01*
X24324010Y-23103411D01*
X24486525Y-23346632D01*
X24693368Y-23553475D01*
X24936589Y-23715990D01*
X25206842Y-23827932D01*
X25493740Y-23885000D01*
X25786260Y-23885000D01*
X26073158Y-23827932D01*
X26343411Y-23715990D01*
X26586632Y-23553475D01*
X26793475Y-23346632D01*
X26922796Y-23153089D01*
X26964286Y-23149003D01*
X27107547Y-23105546D01*
X27239576Y-23034974D01*
X27355301Y-22940001D01*
X27379103Y-22910998D01*
X28061402Y-22228700D01*
X31867598Y-22228700D01*
X26816098Y-27280201D01*
X26787100Y-27303999D01*
X26763302Y-27332997D01*
X26763301Y-27332998D01*
X26692126Y-27419724D01*
X26672829Y-27455826D01*
X26612729Y-27430932D01*
X26432089Y-27395000D01*
X26247911Y-27395000D01*
X26067271Y-27430932D01*
X25897111Y-27501414D01*
X25743972Y-27603738D01*
X25613738Y-27733972D01*
X25511414Y-27887111D01*
X25440932Y-28057271D01*
X25405000Y-28237911D01*
X25405000Y-28422089D01*
X25440932Y-28602729D01*
X25511414Y-28772889D01*
X25613738Y-28926028D01*
X25743972Y-29056262D01*
X25897111Y-29158586D01*
X26067271Y-29229068D01*
X26247911Y-29265000D01*
X26292100Y-29265000D01*
X26292100Y-29312139D01*
X26331874Y-29512098D01*
X26409895Y-29700456D01*
X26523163Y-29869974D01*
X26667326Y-30014137D01*
X26836844Y-30127405D01*
X27025202Y-30205426D01*
X27225161Y-30245200D01*
X27429039Y-30245200D01*
X27628998Y-30205426D01*
X27817356Y-30127405D01*
X27986874Y-30014137D01*
X28131037Y-29869974D01*
X28244305Y-29700456D01*
X28322326Y-29512098D01*
X28362100Y-29312139D01*
X28362100Y-29108261D01*
X28322326Y-28908302D01*
X28244305Y-28719944D01*
X28131037Y-28550426D01*
X28087100Y-28506489D01*
X28087100Y-28158801D01*
X28920000Y-27325901D01*
X28920000Y-27447639D01*
X28959774Y-27647598D01*
X29037795Y-27835956D01*
X29151063Y-28005474D01*
X29295226Y-28149637D01*
X29464744Y-28262905D01*
X29653102Y-28340926D01*
X29853061Y-28380700D01*
X29915199Y-28380700D01*
X32360800Y-30826302D01*
X32384599Y-30855301D01*
X32500324Y-30950274D01*
X32632353Y-31020846D01*
X32775614Y-31064303D01*
X32836482Y-31070298D01*
X32924600Y-31078977D01*
X32961933Y-31075300D01*
X34386499Y-31075300D01*
X34411101Y-31099902D01*
X34411100Y-40223778D01*
X34407424Y-40261100D01*
X34411100Y-40298422D01*
X34411100Y-40298432D01*
X34422097Y-40410085D01*
X34461132Y-40538769D01*
X34465554Y-40553346D01*
X34536126Y-40685376D01*
X34568204Y-40724463D01*
X34631099Y-40801101D01*
X34660103Y-40824904D01*
X35547615Y-41712417D01*
X35530000Y-41800976D01*
X35530000Y-42059024D01*
X35580342Y-42312113D01*
X35679093Y-42550518D01*
X35822456Y-42765077D01*
X36004923Y-42947544D01*
X36117191Y-43022559D01*
X36116205Y-43026600D01*
X36305754Y-43216149D01*
X36301928Y-43255000D01*
X36304446Y-43574051D01*
X35936600Y-43206205D01*
X35705379Y-43262630D01*
X35596983Y-43496808D01*
X35536355Y-43747633D01*
X35525826Y-44005465D01*
X35565800Y-44260398D01*
X35654741Y-44502633D01*
X35705379Y-44597370D01*
X35936600Y-44653795D01*
X36304446Y-44285949D01*
X36301928Y-44605000D01*
X36305754Y-44643851D01*
X36116205Y-44833400D01*
X36117191Y-44837441D01*
X36004923Y-44912456D01*
X35822456Y-45094923D01*
X35679093Y-45309482D01*
X35580342Y-45547887D01*
X35530000Y-45800976D01*
X35530000Y-46059024D01*
X35568354Y-46251844D01*
X34311499Y-47508700D01*
X33121625Y-47508700D01*
X33084300Y-47505024D01*
X33046975Y-47508700D01*
X33046967Y-47508700D01*
X32935314Y-47519697D01*
X32792053Y-47563154D01*
X32660024Y-47633726D01*
X32544299Y-47728699D01*
X32520501Y-47757697D01*
X30247803Y-50030396D01*
X30218799Y-50054199D01*
X30168582Y-50115390D01*
X30120537Y-50025506D01*
X30041185Y-49928815D01*
X29944494Y-49849463D01*
X29834180Y-49790498D01*
X29714482Y-49754188D01*
X29590000Y-49741928D01*
X29025750Y-49745000D01*
X28867000Y-49903750D01*
X28867000Y-51103000D01*
X28887000Y-51103000D01*
X28887000Y-51357000D01*
X28867000Y-51357000D01*
X28867000Y-51377000D01*
X28613000Y-51377000D01*
X28613000Y-51357000D01*
X26327000Y-51357000D01*
X26327000Y-51377000D01*
X26073000Y-51377000D01*
X26073000Y-51357000D01*
X26053000Y-51357000D01*
X26053000Y-51103000D01*
X26073000Y-51103000D01*
X26073000Y-49909845D01*
X26327000Y-49909845D01*
X26327000Y-51103000D01*
X28613000Y-51103000D01*
X28613000Y-49903750D01*
X28454250Y-49745000D01*
X27890000Y-49741928D01*
X27765518Y-49754188D01*
X27645820Y-49790498D01*
X27535506Y-49849463D01*
X27438815Y-49928815D01*
X27359463Y-50025506D01*
X27300498Y-50135820D01*
X27276034Y-50216466D01*
X27200269Y-50132412D01*
X26966920Y-49958359D01*
X26704099Y-49833175D01*
X26556890Y-49788524D01*
X26327000Y-49909845D01*
X26073000Y-49909845D01*
X25843110Y-49788524D01*
X25695901Y-49833175D01*
X25433080Y-49958359D01*
X25199731Y-50132412D01*
X25004822Y-50348645D01*
X24935195Y-50465534D01*
X24813475Y-50283368D01*
X24606632Y-50076525D01*
X24363411Y-49914010D01*
X24093158Y-49802068D01*
X23806260Y-49745000D01*
X23513740Y-49745000D01*
X23226842Y-49802068D01*
X22956589Y-49914010D01*
X22713368Y-50076525D01*
X22506525Y-50283368D01*
X22390000Y-50457760D01*
X22273475Y-50283368D01*
X22066632Y-50076525D01*
X21823411Y-49914010D01*
X21553158Y-49802068D01*
X21266260Y-49745000D01*
X20973740Y-49745000D01*
X20686842Y-49802068D01*
X20416589Y-49914010D01*
X20173368Y-50076525D01*
X19966525Y-50283368D01*
X19850000Y-50457760D01*
X19733475Y-50283368D01*
X19526632Y-50076525D01*
X19283411Y-49914010D01*
X19013158Y-49802068D01*
X18726260Y-49745000D01*
X18433740Y-49745000D01*
X18146842Y-49802068D01*
X17876589Y-49914010D01*
X17633368Y-50076525D01*
X17426525Y-50283368D01*
X17310000Y-50457760D01*
X17193475Y-50283368D01*
X16986632Y-50076525D01*
X16743411Y-49914010D01*
X16473158Y-49802068D01*
X16186260Y-49745000D01*
X15893740Y-49745000D01*
X15606842Y-49802068D01*
X15336589Y-49914010D01*
X15093368Y-50076525D01*
X14886525Y-50283368D01*
X14724010Y-50526589D01*
X14612068Y-50796842D01*
X14555000Y-51083740D01*
X14555000Y-51376260D01*
X14612068Y-51663158D01*
X14724010Y-51933411D01*
X14886525Y-52176632D01*
X15093368Y-52383475D01*
X15336589Y-52545990D01*
X15606842Y-52657932D01*
X15893740Y-52715000D01*
X16186260Y-52715000D01*
X16473158Y-52657932D01*
X16743411Y-52545990D01*
X16986632Y-52383475D01*
X17193475Y-52176632D01*
X17310000Y-52002240D01*
X17426525Y-52176632D01*
X17633368Y-52383475D01*
X17876589Y-52545990D01*
X18146842Y-52657932D01*
X18433740Y-52715000D01*
X18726260Y-52715000D01*
X19013158Y-52657932D01*
X19283411Y-52545990D01*
X19490690Y-52407491D01*
X20457301Y-53374103D01*
X20481099Y-53403101D01*
X20510097Y-53426899D01*
X20596824Y-53498074D01*
X20728853Y-53568646D01*
X20872114Y-53612103D01*
X21021100Y-53626777D01*
X21058433Y-53623100D01*
X29907178Y-53623100D01*
X29944500Y-53626776D01*
X29981822Y-53623100D01*
X29981833Y-53623100D01*
X30093486Y-53612103D01*
X30236747Y-53568646D01*
X30368776Y-53498074D01*
X30484501Y-53403101D01*
X30508304Y-53374097D01*
X31275350Y-52607051D01*
X31427782Y-52835181D01*
X31734819Y-53142218D01*
X32095856Y-53383456D01*
X32497019Y-53549623D01*
X32922892Y-53634334D01*
X33357108Y-53634334D01*
X33782981Y-53549623D01*
X34184144Y-53383456D01*
X34545181Y-53142218D01*
X34852218Y-52835181D01*
X35093456Y-52474144D01*
X35259623Y-52072981D01*
X35344334Y-51647108D01*
X35344334Y-51212892D01*
X35259623Y-50787019D01*
X35093456Y-50385856D01*
X34852218Y-50024819D01*
X34545181Y-49717782D01*
X34187969Y-49479100D01*
X40105158Y-49479100D01*
X31927835Y-57560000D01*
X23257322Y-57560000D01*
X23222811Y-57556601D01*
X23109987Y-57387748D01*
X22882252Y-57160013D01*
X22614463Y-56981082D01*
X22316912Y-56857832D01*
X22001033Y-56795000D01*
X21678967Y-56795000D01*
X21363088Y-56857832D01*
X21065537Y-56981082D01*
X20797748Y-57160013D01*
X20570013Y-57387748D01*
X20391082Y-57655537D01*
X20385091Y-57670000D01*
X16794909Y-57670000D01*
X16788918Y-57655537D01*
X16609987Y-57387748D01*
X16382252Y-57160013D01*
X16114463Y-56981082D01*
X15816912Y-56857832D01*
X15501033Y-56795000D01*
X15178967Y-56795000D01*
X14863088Y-56857832D01*
X14565537Y-56981082D01*
X14500000Y-57024872D01*
X14500000Y-45850000D01*
X16572419Y-45850000D01*
X16600189Y-45847265D01*
X16601910Y-45847277D01*
X16611082Y-45846378D01*
X16639201Y-45843423D01*
X16669383Y-45840450D01*
X16671491Y-45839810D01*
X16727940Y-45828223D01*
X16786670Y-45817020D01*
X16795486Y-45814358D01*
X16795490Y-45814357D01*
X16795493Y-45814356D01*
X16851424Y-45797042D01*
X16906551Y-45773869D01*
X16962034Y-45751452D01*
X16970171Y-45747125D01*
X17021674Y-45719277D01*
X17071234Y-45685847D01*
X17121319Y-45653073D01*
X17128460Y-45647248D01*
X17173572Y-45609927D01*
X17215713Y-45567491D01*
X17258462Y-45525628D01*
X17264336Y-45518527D01*
X17301341Y-45473154D01*
X17334433Y-45423346D01*
X17368235Y-45373981D01*
X17372618Y-45365875D01*
X17400106Y-45314179D01*
X17422894Y-45258893D01*
X17446470Y-45203887D01*
X17449194Y-45195084D01*
X17466117Y-45139033D01*
X17477731Y-45080380D01*
X17490175Y-45021835D01*
X17490423Y-45019471D01*
X17490450Y-45019383D01*
X17490710Y-45016746D01*
X17491138Y-45012670D01*
X17496851Y-44954400D01*
X17496851Y-44954392D01*
X17500000Y-44922419D01*
X17500000Y-41451758D01*
X17521946Y-41505004D01*
X17526329Y-41513110D01*
X17601546Y-41649930D01*
X17635324Y-41699261D01*
X17668446Y-41749114D01*
X17674320Y-41756215D01*
X17774680Y-41875819D01*
X17817430Y-41917682D01*
X17859570Y-41960118D01*
X17866711Y-41965942D01*
X17988391Y-42063774D01*
X18038421Y-42096512D01*
X18088037Y-42129979D01*
X18096174Y-42134305D01*
X18234539Y-42206641D01*
X18289974Y-42229038D01*
X18345146Y-42252231D01*
X18353968Y-42254894D01*
X18503749Y-42298977D01*
X18562468Y-42310178D01*
X18621105Y-42322215D01*
X18630276Y-42323114D01*
X18785767Y-42337265D01*
X18845586Y-42336847D01*
X18905406Y-42337265D01*
X18914577Y-42336365D01*
X19069853Y-42320044D01*
X19128405Y-42308025D01*
X19187205Y-42296808D01*
X19196027Y-42294144D01*
X19345177Y-42247976D01*
X19400315Y-42224798D01*
X19455789Y-42202385D01*
X19463918Y-42198062D01*
X19463922Y-42198060D01*
X19463925Y-42198058D01*
X19601267Y-42123797D01*
X19650816Y-42090375D01*
X19700912Y-42057594D01*
X19708053Y-42051769D01*
X19828356Y-41952247D01*
X19870517Y-41909791D01*
X19913247Y-41867946D01*
X19919121Y-41860846D01*
X20017801Y-41739852D01*
X20050911Y-41690017D01*
X20084699Y-41640671D01*
X20089082Y-41632565D01*
X20162382Y-41494707D01*
X20185163Y-41439436D01*
X20208744Y-41384419D01*
X20211467Y-41375620D01*
X20211469Y-41375614D01*
X20256595Y-41226146D01*
X20268211Y-41167481D01*
X20280651Y-41108957D01*
X20281614Y-41099792D01*
X20296850Y-40944406D01*
X20296850Y-40944402D01*
X20300000Y-40912419D01*
X20300000Y-34947581D01*
X20296772Y-34914806D01*
X20296772Y-34904425D01*
X20295809Y-34895260D01*
X20278405Y-34740101D01*
X20265969Y-34681598D01*
X20254349Y-34622910D01*
X20251624Y-34614107D01*
X20204414Y-34465282D01*
X20180847Y-34410297D01*
X20158054Y-34354996D01*
X20153671Y-34346890D01*
X20078454Y-34210070D01*
X20044678Y-34160741D01*
X20011554Y-34110885D01*
X20005680Y-34103785D01*
X19905320Y-33984181D01*
X19862587Y-33942334D01*
X19820430Y-33899882D01*
X19813289Y-33894058D01*
X19691609Y-33796225D01*
X19641556Y-33763472D01*
X19591963Y-33730020D01*
X19583826Y-33725694D01*
X19445460Y-33653359D01*
X19390018Y-33630959D01*
X19334854Y-33607770D01*
X19326032Y-33605106D01*
X19176252Y-33561023D01*
X19117525Y-33549820D01*
X19058895Y-33537785D01*
X19049724Y-33536886D01*
X18894234Y-33522735D01*
X18834414Y-33523153D01*
X18774594Y-33522735D01*
X18765423Y-33523635D01*
X18610146Y-33539956D01*
X18551581Y-33551978D01*
X18492795Y-33563192D01*
X18483973Y-33565856D01*
X18334823Y-33612025D01*
X18279717Y-33635189D01*
X18224211Y-33657615D01*
X18216082Y-33661938D01*
X18216078Y-33661940D01*
X18216075Y-33661942D01*
X18078733Y-33736203D01*
X18029161Y-33769640D01*
X17979088Y-33802406D01*
X17971947Y-33808231D01*
X17851644Y-33907754D01*
X17809486Y-33950207D01*
X17766753Y-33992054D01*
X17760884Y-33999149D01*
X17760880Y-33999153D01*
X17760879Y-33999155D01*
X17662199Y-34120148D01*
X17629074Y-34170006D01*
X17595301Y-34219329D01*
X17590918Y-34227435D01*
X17517618Y-34365292D01*
X17494836Y-34420565D01*
X17471256Y-34475581D01*
X17468533Y-34484380D01*
X17468533Y-34484382D01*
X17468532Y-34484384D01*
X17423405Y-34633853D01*
X17411788Y-34692526D01*
X17399349Y-34751043D01*
X17398386Y-34760208D01*
X17386604Y-34880371D01*
X17369277Y-34848326D01*
X17335814Y-34798716D01*
X17303072Y-34748681D01*
X17297248Y-34741540D01*
X17259927Y-34696427D01*
X17217472Y-34654268D01*
X17175628Y-34611538D01*
X17168527Y-34605664D01*
X17123154Y-34568659D01*
X17073346Y-34535567D01*
X17023981Y-34501765D01*
X17015875Y-34497382D01*
X16964179Y-34469894D01*
X16908881Y-34447101D01*
X16853887Y-34423530D01*
X16845094Y-34420809D01*
X16845089Y-34420807D01*
X16845084Y-34420806D01*
X16789033Y-34403883D01*
X16730366Y-34392266D01*
X16671834Y-34379825D01*
X16669471Y-34379577D01*
X16669383Y-34379550D01*
X16666739Y-34379290D01*
X16662670Y-34378862D01*
X16604400Y-34373149D01*
X16604392Y-34373149D01*
X16572419Y-34370000D01*
X14500000Y-34370000D01*
X14500000Y-28247760D01*
X15505000Y-28247760D01*
X15505000Y-28412240D01*
X15537089Y-28573560D01*
X15600033Y-28725521D01*
X15691413Y-28862281D01*
X15807719Y-28978587D01*
X15944479Y-29069967D01*
X16096440Y-29132911D01*
X16257760Y-29165000D01*
X16422240Y-29165000D01*
X16583560Y-29132911D01*
X16735521Y-29069967D01*
X16872281Y-28978587D01*
X16988587Y-28862281D01*
X17079967Y-28725521D01*
X17142911Y-28573560D01*
X17175000Y-28412240D01*
X17175000Y-28247760D01*
X17173041Y-28237911D01*
X17405000Y-28237911D01*
X17405000Y-28422089D01*
X17440932Y-28602729D01*
X17511414Y-28772889D01*
X17613738Y-28926028D01*
X17743972Y-29056262D01*
X17897111Y-29158586D01*
X18067271Y-29229068D01*
X18247911Y-29265000D01*
X18432089Y-29265000D01*
X18612729Y-29229068D01*
X18782889Y-29158586D01*
X18936028Y-29056262D01*
X19066262Y-28926028D01*
X19168586Y-28772889D01*
X19239068Y-28602729D01*
X19275000Y-28422089D01*
X19275000Y-28247760D01*
X19505000Y-28247760D01*
X19505000Y-28412240D01*
X19537089Y-28573560D01*
X19600033Y-28725521D01*
X19691413Y-28862281D01*
X19807719Y-28978587D01*
X19944479Y-29069967D01*
X20096440Y-29132911D01*
X20257760Y-29165000D01*
X20422240Y-29165000D01*
X20583560Y-29132911D01*
X20735521Y-29069967D01*
X20872281Y-28978587D01*
X20988587Y-28862281D01*
X21079967Y-28725521D01*
X21142911Y-28573560D01*
X21175000Y-28412240D01*
X21175000Y-28247760D01*
X21505000Y-28247760D01*
X21505000Y-28412240D01*
X21537089Y-28573560D01*
X21600033Y-28725521D01*
X21691413Y-28862281D01*
X21807719Y-28978587D01*
X21944479Y-29069967D01*
X22096440Y-29132911D01*
X22257760Y-29165000D01*
X22422240Y-29165000D01*
X22583560Y-29132911D01*
X22735521Y-29069967D01*
X22872281Y-28978587D01*
X22988587Y-28862281D01*
X23079967Y-28725521D01*
X23142911Y-28573560D01*
X23175000Y-28412240D01*
X23175000Y-28247760D01*
X23505000Y-28247760D01*
X23505000Y-28412240D01*
X23537089Y-28573560D01*
X23600033Y-28725521D01*
X23691413Y-28862281D01*
X23807719Y-28978587D01*
X23944479Y-29069967D01*
X24096440Y-29132911D01*
X24257760Y-29165000D01*
X24422240Y-29165000D01*
X24583560Y-29132911D01*
X24735521Y-29069967D01*
X24872281Y-28978587D01*
X24988587Y-28862281D01*
X25079967Y-28725521D01*
X25142911Y-28573560D01*
X25175000Y-28412240D01*
X25175000Y-28247760D01*
X25142911Y-28086440D01*
X25079967Y-27934479D01*
X24988587Y-27797719D01*
X24872281Y-27681413D01*
X24735521Y-27590033D01*
X24583560Y-27527089D01*
X24422240Y-27495000D01*
X24257760Y-27495000D01*
X24096440Y-27527089D01*
X23944479Y-27590033D01*
X23807719Y-27681413D01*
X23691413Y-27797719D01*
X23600033Y-27934479D01*
X23537089Y-28086440D01*
X23505000Y-28247760D01*
X23175000Y-28247760D01*
X23142911Y-28086440D01*
X23079967Y-27934479D01*
X22988587Y-27797719D01*
X22872281Y-27681413D01*
X22735521Y-27590033D01*
X22583560Y-27527089D01*
X22422240Y-27495000D01*
X22257760Y-27495000D01*
X22096440Y-27527089D01*
X21944479Y-27590033D01*
X21807719Y-27681413D01*
X21691413Y-27797719D01*
X21600033Y-27934479D01*
X21537089Y-28086440D01*
X21505000Y-28247760D01*
X21175000Y-28247760D01*
X21142911Y-28086440D01*
X21079967Y-27934479D01*
X20988587Y-27797719D01*
X20872281Y-27681413D01*
X20735521Y-27590033D01*
X20583560Y-27527089D01*
X20422240Y-27495000D01*
X20257760Y-27495000D01*
X20096440Y-27527089D01*
X19944479Y-27590033D01*
X19807719Y-27681413D01*
X19691413Y-27797719D01*
X19600033Y-27934479D01*
X19537089Y-28086440D01*
X19505000Y-28247760D01*
X19275000Y-28247760D01*
X19275000Y-28237911D01*
X19239068Y-28057271D01*
X19168586Y-27887111D01*
X19066262Y-27733972D01*
X18936028Y-27603738D01*
X18782889Y-27501414D01*
X18612729Y-27430932D01*
X18432089Y-27395000D01*
X18247911Y-27395000D01*
X18067271Y-27430932D01*
X17897111Y-27501414D01*
X17743972Y-27603738D01*
X17613738Y-27733972D01*
X17511414Y-27887111D01*
X17440932Y-28057271D01*
X17405000Y-28237911D01*
X17173041Y-28237911D01*
X17142911Y-28086440D01*
X17079967Y-27934479D01*
X16988587Y-27797719D01*
X16872281Y-27681413D01*
X16735521Y-27590033D01*
X16583560Y-27527089D01*
X16422240Y-27495000D01*
X16257760Y-27495000D01*
X16096440Y-27527089D01*
X15944479Y-27590033D01*
X15807719Y-27681413D01*
X15691413Y-27797719D01*
X15600033Y-27934479D01*
X15537089Y-28086440D01*
X15505000Y-28247760D01*
X14500000Y-28247760D01*
X14500000Y-20868310D01*
X14665537Y-20978918D01*
X14963088Y-21102168D01*
X15278967Y-21165000D01*
X15601033Y-21165000D01*
X15916912Y-21102168D01*
X16214463Y-20978918D01*
X16482252Y-20799987D01*
X16709987Y-20572252D01*
X16888918Y-20304463D01*
X16894909Y-20290000D01*
X20485091Y-20290000D01*
X20491082Y-20304463D01*
G37*
X20491082Y-20304463D02*
X20670013Y-20572252D01*
X20897748Y-20799987D01*
X21165537Y-20978918D01*
X21463088Y-21102168D01*
X21778967Y-21165000D01*
X22101033Y-21165000D01*
X22416912Y-21102168D01*
X22431375Y-21096177D01*
X22886205Y-21551008D01*
X22909999Y-21580001D01*
X22938992Y-21603795D01*
X22938996Y-21603799D01*
X22983108Y-21640000D01*
X23025724Y-21674974D01*
X23157753Y-21745546D01*
X23301014Y-21789003D01*
X23412667Y-21800000D01*
X23412676Y-21800000D01*
X23449999Y-21803676D01*
X23487322Y-21800000D01*
X24281176Y-21800000D01*
X24212068Y-21966842D01*
X24155000Y-22253740D01*
X24155000Y-22546260D01*
X24212068Y-22833158D01*
X24324010Y-23103411D01*
X24486525Y-23346632D01*
X24693368Y-23553475D01*
X24936589Y-23715990D01*
X25206842Y-23827932D01*
X25493740Y-23885000D01*
X25786260Y-23885000D01*
X26073158Y-23827932D01*
X26343411Y-23715990D01*
X26586632Y-23553475D01*
X26793475Y-23346632D01*
X26922796Y-23153089D01*
X26964286Y-23149003D01*
X27107547Y-23105546D01*
X27239576Y-23034974D01*
X27355301Y-22940001D01*
X27379103Y-22910998D01*
X28061402Y-22228700D01*
X31867598Y-22228700D01*
X26816098Y-27280201D01*
X26787100Y-27303999D01*
X26763302Y-27332997D01*
X26763301Y-27332998D01*
X26692126Y-27419724D01*
X26672829Y-27455826D01*
X26612729Y-27430932D01*
X26432089Y-27395000D01*
X26247911Y-27395000D01*
X26067271Y-27430932D01*
X25897111Y-27501414D01*
X25743972Y-27603738D01*
X25613738Y-27733972D01*
X25511414Y-27887111D01*
X25440932Y-28057271D01*
X25405000Y-28237911D01*
X25405000Y-28422089D01*
X25440932Y-28602729D01*
X25511414Y-28772889D01*
X25613738Y-28926028D01*
X25743972Y-29056262D01*
X25897111Y-29158586D01*
X26067271Y-29229068D01*
X26247911Y-29265000D01*
X26292100Y-29265000D01*
X26292100Y-29312139D01*
X26331874Y-29512098D01*
X26409895Y-29700456D01*
X26523163Y-29869974D01*
X26667326Y-30014137D01*
X26836844Y-30127405D01*
X27025202Y-30205426D01*
X27225161Y-30245200D01*
X27429039Y-30245200D01*
X27628998Y-30205426D01*
X27817356Y-30127405D01*
X27986874Y-30014137D01*
X28131037Y-29869974D01*
X28244305Y-29700456D01*
X28322326Y-29512098D01*
X28362100Y-29312139D01*
X28362100Y-29108261D01*
X28322326Y-28908302D01*
X28244305Y-28719944D01*
X28131037Y-28550426D01*
X28087100Y-28506489D01*
X28087100Y-28158801D01*
X28920000Y-27325901D01*
X28920000Y-27447639D01*
X28959774Y-27647598D01*
X29037795Y-27835956D01*
X29151063Y-28005474D01*
X29295226Y-28149637D01*
X29464744Y-28262905D01*
X29653102Y-28340926D01*
X29853061Y-28380700D01*
X29915199Y-28380700D01*
X32360800Y-30826302D01*
X32384599Y-30855301D01*
X32500324Y-30950274D01*
X32632353Y-31020846D01*
X32775614Y-31064303D01*
X32836482Y-31070298D01*
X32924600Y-31078977D01*
X32961933Y-31075300D01*
X34386499Y-31075300D01*
X34411101Y-31099902D01*
X34411100Y-40223778D01*
X34407424Y-40261100D01*
X34411100Y-40298422D01*
X34411100Y-40298432D01*
X34422097Y-40410085D01*
X34461132Y-40538769D01*
X34465554Y-40553346D01*
X34536126Y-40685376D01*
X34568204Y-40724463D01*
X34631099Y-40801101D01*
X34660103Y-40824904D01*
X35547615Y-41712417D01*
X35530000Y-41800976D01*
X35530000Y-42059024D01*
X35580342Y-42312113D01*
X35679093Y-42550518D01*
X35822456Y-42765077D01*
X36004923Y-42947544D01*
X36117191Y-43022559D01*
X36116205Y-43026600D01*
X36305754Y-43216149D01*
X36301928Y-43255000D01*
X36304446Y-43574051D01*
X35936600Y-43206205D01*
X35705379Y-43262630D01*
X35596983Y-43496808D01*
X35536355Y-43747633D01*
X35525826Y-44005465D01*
X35565800Y-44260398D01*
X35654741Y-44502633D01*
X35705379Y-44597370D01*
X35936600Y-44653795D01*
X36304446Y-44285949D01*
X36301928Y-44605000D01*
X36305754Y-44643851D01*
X36116205Y-44833400D01*
X36117191Y-44837441D01*
X36004923Y-44912456D01*
X35822456Y-45094923D01*
X35679093Y-45309482D01*
X35580342Y-45547887D01*
X35530000Y-45800976D01*
X35530000Y-46059024D01*
X35568354Y-46251844D01*
X34311499Y-47508700D01*
X33121625Y-47508700D01*
X33084300Y-47505024D01*
X33046975Y-47508700D01*
X33046967Y-47508700D01*
X32935314Y-47519697D01*
X32792053Y-47563154D01*
X32660024Y-47633726D01*
X32544299Y-47728699D01*
X32520501Y-47757697D01*
X30247803Y-50030396D01*
X30218799Y-50054199D01*
X30168582Y-50115390D01*
X30120537Y-50025506D01*
X30041185Y-49928815D01*
X29944494Y-49849463D01*
X29834180Y-49790498D01*
X29714482Y-49754188D01*
X29590000Y-49741928D01*
X29025750Y-49745000D01*
X28867000Y-49903750D01*
X28867000Y-51103000D01*
X28887000Y-51103000D01*
X28887000Y-51357000D01*
X28867000Y-51357000D01*
X28867000Y-51377000D01*
X28613000Y-51377000D01*
X28613000Y-51357000D01*
X26327000Y-51357000D01*
X26327000Y-51377000D01*
X26073000Y-51377000D01*
X26073000Y-51357000D01*
X26053000Y-51357000D01*
X26053000Y-51103000D01*
X26073000Y-51103000D01*
X26073000Y-49909845D01*
X26327000Y-49909845D01*
X26327000Y-51103000D01*
X28613000Y-51103000D01*
X28613000Y-49903750D01*
X28454250Y-49745000D01*
X27890000Y-49741928D01*
X27765518Y-49754188D01*
X27645820Y-49790498D01*
X27535506Y-49849463D01*
X27438815Y-49928815D01*
X27359463Y-50025506D01*
X27300498Y-50135820D01*
X27276034Y-50216466D01*
X27200269Y-50132412D01*
X26966920Y-49958359D01*
X26704099Y-49833175D01*
X26556890Y-49788524D01*
X26327000Y-49909845D01*
X26073000Y-49909845D01*
X25843110Y-49788524D01*
X25695901Y-49833175D01*
X25433080Y-49958359D01*
X25199731Y-50132412D01*
X25004822Y-50348645D01*
X24935195Y-50465534D01*
X24813475Y-50283368D01*
X24606632Y-50076525D01*
X24363411Y-49914010D01*
X24093158Y-49802068D01*
X23806260Y-49745000D01*
X23513740Y-49745000D01*
X23226842Y-49802068D01*
X22956589Y-49914010D01*
X22713368Y-50076525D01*
X22506525Y-50283368D01*
X22390000Y-50457760D01*
X22273475Y-50283368D01*
X22066632Y-50076525D01*
X21823411Y-49914010D01*
X21553158Y-49802068D01*
X21266260Y-49745000D01*
X20973740Y-49745000D01*
X20686842Y-49802068D01*
X20416589Y-49914010D01*
X20173368Y-50076525D01*
X19966525Y-50283368D01*
X19850000Y-50457760D01*
X19733475Y-50283368D01*
X19526632Y-50076525D01*
X19283411Y-49914010D01*
X19013158Y-49802068D01*
X18726260Y-49745000D01*
X18433740Y-49745000D01*
X18146842Y-49802068D01*
X17876589Y-49914010D01*
X17633368Y-50076525D01*
X17426525Y-50283368D01*
X17310000Y-50457760D01*
X17193475Y-50283368D01*
X16986632Y-50076525D01*
X16743411Y-49914010D01*
X16473158Y-49802068D01*
X16186260Y-49745000D01*
X15893740Y-49745000D01*
X15606842Y-49802068D01*
X15336589Y-49914010D01*
X15093368Y-50076525D01*
X14886525Y-50283368D01*
X14724010Y-50526589D01*
X14612068Y-50796842D01*
X14555000Y-51083740D01*
X14555000Y-51376260D01*
X14612068Y-51663158D01*
X14724010Y-51933411D01*
X14886525Y-52176632D01*
X15093368Y-52383475D01*
X15336589Y-52545990D01*
X15606842Y-52657932D01*
X15893740Y-52715000D01*
X16186260Y-52715000D01*
X16473158Y-52657932D01*
X16743411Y-52545990D01*
X16986632Y-52383475D01*
X17193475Y-52176632D01*
X17310000Y-52002240D01*
X17426525Y-52176632D01*
X17633368Y-52383475D01*
X17876589Y-52545990D01*
X18146842Y-52657932D01*
X18433740Y-52715000D01*
X18726260Y-52715000D01*
X19013158Y-52657932D01*
X19283411Y-52545990D01*
X19490690Y-52407491D01*
X20457301Y-53374103D01*
X20481099Y-53403101D01*
X20510097Y-53426899D01*
X20596824Y-53498074D01*
X20728853Y-53568646D01*
X20872114Y-53612103D01*
X21021100Y-53626777D01*
X21058433Y-53623100D01*
X29907178Y-53623100D01*
X29944500Y-53626776D01*
X29981822Y-53623100D01*
X29981833Y-53623100D01*
X30093486Y-53612103D01*
X30236747Y-53568646D01*
X30368776Y-53498074D01*
X30484501Y-53403101D01*
X30508304Y-53374097D01*
X31275350Y-52607051D01*
X31427782Y-52835181D01*
X31734819Y-53142218D01*
X32095856Y-53383456D01*
X32497019Y-53549623D01*
X32922892Y-53634334D01*
X33357108Y-53634334D01*
X33782981Y-53549623D01*
X34184144Y-53383456D01*
X34545181Y-53142218D01*
X34852218Y-52835181D01*
X35093456Y-52474144D01*
X35259623Y-52072981D01*
X35344334Y-51647108D01*
X35344334Y-51212892D01*
X35259623Y-50787019D01*
X35093456Y-50385856D01*
X34852218Y-50024819D01*
X34545181Y-49717782D01*
X34187969Y-49479100D01*
X40105158Y-49479100D01*
X31927835Y-57560000D01*
X23257322Y-57560000D01*
X23222811Y-57556601D01*
X23109987Y-57387748D01*
X22882252Y-57160013D01*
X22614463Y-56981082D01*
X22316912Y-56857832D01*
X22001033Y-56795000D01*
X21678967Y-56795000D01*
X21363088Y-56857832D01*
X21065537Y-56981082D01*
X20797748Y-57160013D01*
X20570013Y-57387748D01*
X20391082Y-57655537D01*
X20385091Y-57670000D01*
X16794909Y-57670000D01*
X16788918Y-57655537D01*
X16609987Y-57387748D01*
X16382252Y-57160013D01*
X16114463Y-56981082D01*
X15816912Y-56857832D01*
X15501033Y-56795000D01*
X15178967Y-56795000D01*
X14863088Y-56857832D01*
X14565537Y-56981082D01*
X14500000Y-57024872D01*
X14500000Y-45850000D01*
X16572419Y-45850000D01*
X16600189Y-45847265D01*
X16601910Y-45847277D01*
X16611082Y-45846378D01*
X16639201Y-45843423D01*
X16669383Y-45840450D01*
X16671491Y-45839810D01*
X16727940Y-45828223D01*
X16786670Y-45817020D01*
X16795486Y-45814358D01*
X16795490Y-45814357D01*
X16795493Y-45814356D01*
X16851424Y-45797042D01*
X16906551Y-45773869D01*
X16962034Y-45751452D01*
X16970171Y-45747125D01*
X17021674Y-45719277D01*
X17071234Y-45685847D01*
X17121319Y-45653073D01*
X17128460Y-45647248D01*
X17173572Y-45609927D01*
X17215713Y-45567491D01*
X17258462Y-45525628D01*
X17264336Y-45518527D01*
X17301341Y-45473154D01*
X17334433Y-45423346D01*
X17368235Y-45373981D01*
X17372618Y-45365875D01*
X17400106Y-45314179D01*
X17422894Y-45258893D01*
X17446470Y-45203887D01*
X17449194Y-45195084D01*
X17466117Y-45139033D01*
X17477731Y-45080380D01*
X17490175Y-45021835D01*
X17490423Y-45019471D01*
X17490450Y-45019383D01*
X17490710Y-45016746D01*
X17491138Y-45012670D01*
X17496851Y-44954400D01*
X17496851Y-44954392D01*
X17500000Y-44922419D01*
X17500000Y-41451758D01*
X17521946Y-41505004D01*
X17526329Y-41513110D01*
X17601546Y-41649930D01*
X17635324Y-41699261D01*
X17668446Y-41749114D01*
X17674320Y-41756215D01*
X17774680Y-41875819D01*
X17817430Y-41917682D01*
X17859570Y-41960118D01*
X17866711Y-41965942D01*
X17988391Y-42063774D01*
X18038421Y-42096512D01*
X18088037Y-42129979D01*
X18096174Y-42134305D01*
X18234539Y-42206641D01*
X18289974Y-42229038D01*
X18345146Y-42252231D01*
X18353968Y-42254894D01*
X18503749Y-42298977D01*
X18562468Y-42310178D01*
X18621105Y-42322215D01*
X18630276Y-42323114D01*
X18785767Y-42337265D01*
X18845586Y-42336847D01*
X18905406Y-42337265D01*
X18914577Y-42336365D01*
X19069853Y-42320044D01*
X19128405Y-42308025D01*
X19187205Y-42296808D01*
X19196027Y-42294144D01*
X19345177Y-42247976D01*
X19400315Y-42224798D01*
X19455789Y-42202385D01*
X19463918Y-42198062D01*
X19463922Y-42198060D01*
X19463925Y-42198058D01*
X19601267Y-42123797D01*
X19650816Y-42090375D01*
X19700912Y-42057594D01*
X19708053Y-42051769D01*
X19828356Y-41952247D01*
X19870517Y-41909791D01*
X19913247Y-41867946D01*
X19919121Y-41860846D01*
X20017801Y-41739852D01*
X20050911Y-41690017D01*
X20084699Y-41640671D01*
X20089082Y-41632565D01*
X20162382Y-41494707D01*
X20185163Y-41439436D01*
X20208744Y-41384419D01*
X20211467Y-41375620D01*
X20211469Y-41375614D01*
X20256595Y-41226146D01*
X20268211Y-41167481D01*
X20280651Y-41108957D01*
X20281614Y-41099792D01*
X20296850Y-40944406D01*
X20296850Y-40944402D01*
X20300000Y-40912419D01*
X20300000Y-34947581D01*
X20296772Y-34914806D01*
X20296772Y-34904425D01*
X20295809Y-34895260D01*
X20278405Y-34740101D01*
X20265969Y-34681598D01*
X20254349Y-34622910D01*
X20251624Y-34614107D01*
X20204414Y-34465282D01*
X20180847Y-34410297D01*
X20158054Y-34354996D01*
X20153671Y-34346890D01*
X20078454Y-34210070D01*
X20044678Y-34160741D01*
X20011554Y-34110885D01*
X20005680Y-34103785D01*
X19905320Y-33984181D01*
X19862587Y-33942334D01*
X19820430Y-33899882D01*
X19813289Y-33894058D01*
X19691609Y-33796225D01*
X19641556Y-33763472D01*
X19591963Y-33730020D01*
X19583826Y-33725694D01*
X19445460Y-33653359D01*
X19390018Y-33630959D01*
X19334854Y-33607770D01*
X19326032Y-33605106D01*
X19176252Y-33561023D01*
X19117525Y-33549820D01*
X19058895Y-33537785D01*
X19049724Y-33536886D01*
X18894234Y-33522735D01*
X18834414Y-33523153D01*
X18774594Y-33522735D01*
X18765423Y-33523635D01*
X18610146Y-33539956D01*
X18551581Y-33551978D01*
X18492795Y-33563192D01*
X18483973Y-33565856D01*
X18334823Y-33612025D01*
X18279717Y-33635189D01*
X18224211Y-33657615D01*
X18216082Y-33661938D01*
X18216078Y-33661940D01*
X18216075Y-33661942D01*
X18078733Y-33736203D01*
X18029161Y-33769640D01*
X17979088Y-33802406D01*
X17971947Y-33808231D01*
X17851644Y-33907754D01*
X17809486Y-33950207D01*
X17766753Y-33992054D01*
X17760884Y-33999149D01*
X17760880Y-33999153D01*
X17760879Y-33999155D01*
X17662199Y-34120148D01*
X17629074Y-34170006D01*
X17595301Y-34219329D01*
X17590918Y-34227435D01*
X17517618Y-34365292D01*
X17494836Y-34420565D01*
X17471256Y-34475581D01*
X17468533Y-34484380D01*
X17468533Y-34484382D01*
X17468532Y-34484384D01*
X17423405Y-34633853D01*
X17411788Y-34692526D01*
X17399349Y-34751043D01*
X17398386Y-34760208D01*
X17386604Y-34880371D01*
X17369277Y-34848326D01*
X17335814Y-34798716D01*
X17303072Y-34748681D01*
X17297248Y-34741540D01*
X17259927Y-34696427D01*
X17217472Y-34654268D01*
X17175628Y-34611538D01*
X17168527Y-34605664D01*
X17123154Y-34568659D01*
X17073346Y-34535567D01*
X17023981Y-34501765D01*
X17015875Y-34497382D01*
X16964179Y-34469894D01*
X16908881Y-34447101D01*
X16853887Y-34423530D01*
X16845094Y-34420809D01*
X16845089Y-34420807D01*
X16845084Y-34420806D01*
X16789033Y-34403883D01*
X16730366Y-34392266D01*
X16671834Y-34379825D01*
X16669471Y-34379577D01*
X16669383Y-34379550D01*
X16666739Y-34379290D01*
X16662670Y-34378862D01*
X16604400Y-34373149D01*
X16604392Y-34373149D01*
X16572419Y-34370000D01*
X14500000Y-34370000D01*
X14500000Y-28247760D01*
X15505000Y-28247760D01*
X15505000Y-28412240D01*
X15537089Y-28573560D01*
X15600033Y-28725521D01*
X15691413Y-28862281D01*
X15807719Y-28978587D01*
X15944479Y-29069967D01*
X16096440Y-29132911D01*
X16257760Y-29165000D01*
X16422240Y-29165000D01*
X16583560Y-29132911D01*
X16735521Y-29069967D01*
X16872281Y-28978587D01*
X16988587Y-28862281D01*
X17079967Y-28725521D01*
X17142911Y-28573560D01*
X17175000Y-28412240D01*
X17175000Y-28247760D01*
X17173041Y-28237911D01*
X17405000Y-28237911D01*
X17405000Y-28422089D01*
X17440932Y-28602729D01*
X17511414Y-28772889D01*
X17613738Y-28926028D01*
X17743972Y-29056262D01*
X17897111Y-29158586D01*
X18067271Y-29229068D01*
X18247911Y-29265000D01*
X18432089Y-29265000D01*
X18612729Y-29229068D01*
X18782889Y-29158586D01*
X18936028Y-29056262D01*
X19066262Y-28926028D01*
X19168586Y-28772889D01*
X19239068Y-28602729D01*
X19275000Y-28422089D01*
X19275000Y-28247760D01*
X19505000Y-28247760D01*
X19505000Y-28412240D01*
X19537089Y-28573560D01*
X19600033Y-28725521D01*
X19691413Y-28862281D01*
X19807719Y-28978587D01*
X19944479Y-29069967D01*
X20096440Y-29132911D01*
X20257760Y-29165000D01*
X20422240Y-29165000D01*
X20583560Y-29132911D01*
X20735521Y-29069967D01*
X20872281Y-28978587D01*
X20988587Y-28862281D01*
X21079967Y-28725521D01*
X21142911Y-28573560D01*
X21175000Y-28412240D01*
X21175000Y-28247760D01*
X21505000Y-28247760D01*
X21505000Y-28412240D01*
X21537089Y-28573560D01*
X21600033Y-28725521D01*
X21691413Y-28862281D01*
X21807719Y-28978587D01*
X21944479Y-29069967D01*
X22096440Y-29132911D01*
X22257760Y-29165000D01*
X22422240Y-29165000D01*
X22583560Y-29132911D01*
X22735521Y-29069967D01*
X22872281Y-28978587D01*
X22988587Y-28862281D01*
X23079967Y-28725521D01*
X23142911Y-28573560D01*
X23175000Y-28412240D01*
X23175000Y-28247760D01*
X23505000Y-28247760D01*
X23505000Y-28412240D01*
X23537089Y-28573560D01*
X23600033Y-28725521D01*
X23691413Y-28862281D01*
X23807719Y-28978587D01*
X23944479Y-29069967D01*
X24096440Y-29132911D01*
X24257760Y-29165000D01*
X24422240Y-29165000D01*
X24583560Y-29132911D01*
X24735521Y-29069967D01*
X24872281Y-28978587D01*
X24988587Y-28862281D01*
X25079967Y-28725521D01*
X25142911Y-28573560D01*
X25175000Y-28412240D01*
X25175000Y-28247760D01*
X25142911Y-28086440D01*
X25079967Y-27934479D01*
X24988587Y-27797719D01*
X24872281Y-27681413D01*
X24735521Y-27590033D01*
X24583560Y-27527089D01*
X24422240Y-27495000D01*
X24257760Y-27495000D01*
X24096440Y-27527089D01*
X23944479Y-27590033D01*
X23807719Y-27681413D01*
X23691413Y-27797719D01*
X23600033Y-27934479D01*
X23537089Y-28086440D01*
X23505000Y-28247760D01*
X23175000Y-28247760D01*
X23142911Y-28086440D01*
X23079967Y-27934479D01*
X22988587Y-27797719D01*
X22872281Y-27681413D01*
X22735521Y-27590033D01*
X22583560Y-27527089D01*
X22422240Y-27495000D01*
X22257760Y-27495000D01*
X22096440Y-27527089D01*
X21944479Y-27590033D01*
X21807719Y-27681413D01*
X21691413Y-27797719D01*
X21600033Y-27934479D01*
X21537089Y-28086440D01*
X21505000Y-28247760D01*
X21175000Y-28247760D01*
X21142911Y-28086440D01*
X21079967Y-27934479D01*
X20988587Y-27797719D01*
X20872281Y-27681413D01*
X20735521Y-27590033D01*
X20583560Y-27527089D01*
X20422240Y-27495000D01*
X20257760Y-27495000D01*
X20096440Y-27527089D01*
X19944479Y-27590033D01*
X19807719Y-27681413D01*
X19691413Y-27797719D01*
X19600033Y-27934479D01*
X19537089Y-28086440D01*
X19505000Y-28247760D01*
X19275000Y-28247760D01*
X19275000Y-28237911D01*
X19239068Y-28057271D01*
X19168586Y-27887111D01*
X19066262Y-27733972D01*
X18936028Y-27603738D01*
X18782889Y-27501414D01*
X18612729Y-27430932D01*
X18432089Y-27395000D01*
X18247911Y-27395000D01*
X18067271Y-27430932D01*
X17897111Y-27501414D01*
X17743972Y-27603738D01*
X17613738Y-27733972D01*
X17511414Y-27887111D01*
X17440932Y-28057271D01*
X17405000Y-28237911D01*
X17173041Y-28237911D01*
X17142911Y-28086440D01*
X17079967Y-27934479D01*
X16988587Y-27797719D01*
X16872281Y-27681413D01*
X16735521Y-27590033D01*
X16583560Y-27527089D01*
X16422240Y-27495000D01*
X16257760Y-27495000D01*
X16096440Y-27527089D01*
X15944479Y-27590033D01*
X15807719Y-27681413D01*
X15691413Y-27797719D01*
X15600033Y-27934479D01*
X15537089Y-28086440D01*
X15505000Y-28247760D01*
X14500000Y-28247760D01*
X14500000Y-20868310D01*
X14665537Y-20978918D01*
X14963088Y-21102168D01*
X15278967Y-21165000D01*
X15601033Y-21165000D01*
X15916912Y-21102168D01*
X16214463Y-20978918D01*
X16482252Y-20799987D01*
X16709987Y-20572252D01*
X16888918Y-20304463D01*
X16894909Y-20290000D01*
X20485091Y-20290000D01*
X20491082Y-20304463D01*
G36*
X50101928Y-39030000D02*
G01*
X50101928Y-39330000D01*
X50111777Y-39430000D01*
X50101928Y-39530000D01*
X50101928Y-39830000D01*
X50111777Y-39930000D01*
X50101928Y-40030000D01*
X50101928Y-40330000D01*
X50111777Y-40430000D01*
X50101928Y-40530000D01*
X50101928Y-40830000D01*
X50112118Y-40933465D01*
X50105000Y-40998250D01*
X50137247Y-41030497D01*
X50150498Y-41074180D01*
X50207061Y-41180000D01*
X50150498Y-41285820D01*
X50137247Y-41329503D01*
X50105000Y-41361750D01*
X50112118Y-41426535D01*
X50101928Y-41530000D01*
X50101928Y-41830000D01*
X50110792Y-41920000D01*
X41646227Y-41920000D01*
X41608056Y-41894495D01*
X41419698Y-41816474D01*
X41219739Y-41776700D01*
X41015861Y-41776700D01*
X40815902Y-41816474D01*
X40627544Y-41894495D01*
X40458026Y-42007763D01*
X40313863Y-42151926D01*
X40200595Y-42321444D01*
X40122574Y-42509802D01*
X40082800Y-42709761D01*
X40082800Y-42913639D01*
X40122574Y-43113598D01*
X40200595Y-43301956D01*
X40313863Y-43471474D01*
X40431824Y-43589435D01*
X40406000Y-43719261D01*
X40406000Y-43923139D01*
X40445774Y-44123098D01*
X40523795Y-44311456D01*
X40637063Y-44480974D01*
X40781226Y-44625137D01*
X40927988Y-44723200D01*
X39549433Y-44723200D01*
X39512100Y-44719523D01*
X39474767Y-44723200D01*
X39364421Y-44734068D01*
X39365812Y-44729482D01*
X39378072Y-44605000D01*
X39375000Y-44215750D01*
X39216250Y-44057000D01*
X38145906Y-44057000D01*
X38154174Y-43854535D01*
X38146093Y-43803000D01*
X39216250Y-43803000D01*
X39375000Y-43644250D01*
X39378072Y-43255000D01*
X39365812Y-43130518D01*
X39329502Y-43010820D01*
X39286302Y-42930000D01*
X39329502Y-42849180D01*
X39365812Y-42729482D01*
X39376037Y-42625663D01*
X39489576Y-42564974D01*
X39605301Y-42470001D01*
X39629104Y-42440997D01*
X42703902Y-39366200D01*
X47107278Y-39366200D01*
X47144600Y-39369876D01*
X47181922Y-39366200D01*
X47181933Y-39366200D01*
X47293586Y-39355203D01*
X47436847Y-39311746D01*
X47568876Y-39241174D01*
X47684601Y-39146201D01*
X47708404Y-39117197D01*
X47885601Y-38940000D01*
X50110792Y-38940000D01*
X50101928Y-39030000D01*
G37*
X50101928Y-39030000D02*
X50101928Y-39330000D01*
X50111777Y-39430000D01*
X50101928Y-39530000D01*
X50101928Y-39830000D01*
X50111777Y-39930000D01*
X50101928Y-40030000D01*
X50101928Y-40330000D01*
X50111777Y-40430000D01*
X50101928Y-40530000D01*
X50101928Y-40830000D01*
X50112118Y-40933465D01*
X50105000Y-40998250D01*
X50137247Y-41030497D01*
X50150498Y-41074180D01*
X50207061Y-41180000D01*
X50150498Y-41285820D01*
X50137247Y-41329503D01*
X50105000Y-41361750D01*
X50112118Y-41426535D01*
X50101928Y-41530000D01*
X50101928Y-41830000D01*
X50110792Y-41920000D01*
X41646227Y-41920000D01*
X41608056Y-41894495D01*
X41419698Y-41816474D01*
X41219739Y-41776700D01*
X41015861Y-41776700D01*
X40815902Y-41816474D01*
X40627544Y-41894495D01*
X40458026Y-42007763D01*
X40313863Y-42151926D01*
X40200595Y-42321444D01*
X40122574Y-42509802D01*
X40082800Y-42709761D01*
X40082800Y-42913639D01*
X40122574Y-43113598D01*
X40200595Y-43301956D01*
X40313863Y-43471474D01*
X40431824Y-43589435D01*
X40406000Y-43719261D01*
X40406000Y-43923139D01*
X40445774Y-44123098D01*
X40523795Y-44311456D01*
X40637063Y-44480974D01*
X40781226Y-44625137D01*
X40927988Y-44723200D01*
X39549433Y-44723200D01*
X39512100Y-44719523D01*
X39474767Y-44723200D01*
X39364421Y-44734068D01*
X39365812Y-44729482D01*
X39378072Y-44605000D01*
X39375000Y-44215750D01*
X39216250Y-44057000D01*
X38145906Y-44057000D01*
X38154174Y-43854535D01*
X38146093Y-43803000D01*
X39216250Y-43803000D01*
X39375000Y-43644250D01*
X39378072Y-43255000D01*
X39365812Y-43130518D01*
X39329502Y-43010820D01*
X39286302Y-42930000D01*
X39329502Y-42849180D01*
X39365812Y-42729482D01*
X39376037Y-42625663D01*
X39489576Y-42564974D01*
X39605301Y-42470001D01*
X39629104Y-42440997D01*
X42703902Y-39366200D01*
X47107278Y-39366200D01*
X47144600Y-39369876D01*
X47181922Y-39366200D01*
X47181933Y-39366200D01*
X47293586Y-39355203D01*
X47436847Y-39311746D01*
X47568876Y-39241174D01*
X47684601Y-39146201D01*
X47708404Y-39117197D01*
X47885601Y-38940000D01*
X50110792Y-38940000D01*
X50101928Y-39030000D01*
G36*
X58907200Y-38956598D02*
G01*
X56780705Y-41083094D01*
X56721674Y-41024063D01*
X56552156Y-40910795D01*
X56363798Y-40832774D01*
X56163839Y-40793000D01*
X55959961Y-40793000D01*
X55760002Y-40832774D01*
X55571644Y-40910795D01*
X55402126Y-41024063D01*
X55257963Y-41168226D01*
X55144695Y-41337744D01*
X55066674Y-41526102D01*
X55026900Y-41726061D01*
X55026900Y-41788198D01*
X54770555Y-42044544D01*
X54722974Y-41996963D01*
X54553456Y-41883695D01*
X54365098Y-41805674D01*
X54165139Y-41765900D01*
X53961261Y-41765900D01*
X53761302Y-41805674D01*
X53572944Y-41883695D01*
X53403426Y-41996963D01*
X53259263Y-42141126D01*
X53145995Y-42310644D01*
X53067974Y-42499002D01*
X53028200Y-42698961D01*
X53028200Y-42761099D01*
X52869299Y-42920000D01*
X52669208Y-42920000D01*
X52678072Y-42830000D01*
X52678072Y-42530000D01*
X52668223Y-42430000D01*
X52678072Y-42330000D01*
X52678072Y-42030000D01*
X52668223Y-41929999D01*
X52678072Y-41830000D01*
X52678072Y-41530000D01*
X52669208Y-41440000D01*
X53057478Y-41440000D01*
X53094800Y-41443676D01*
X53132122Y-41440000D01*
X53132133Y-41440000D01*
X53243786Y-41429003D01*
X53387047Y-41385546D01*
X53519076Y-41314974D01*
X53634801Y-41220001D01*
X53658604Y-41190997D01*
X58829703Y-36019899D01*
X58858701Y-35996101D01*
X58907200Y-35937004D01*
X58907200Y-38956598D01*
G37*
X58907200Y-38956598D02*
X56780705Y-41083094D01*
X56721674Y-41024063D01*
X56552156Y-40910795D01*
X56363798Y-40832774D01*
X56163839Y-40793000D01*
X55959961Y-40793000D01*
X55760002Y-40832774D01*
X55571644Y-40910795D01*
X55402126Y-41024063D01*
X55257963Y-41168226D01*
X55144695Y-41337744D01*
X55066674Y-41526102D01*
X55026900Y-41726061D01*
X55026900Y-41788198D01*
X54770555Y-42044544D01*
X54722974Y-41996963D01*
X54553456Y-41883695D01*
X54365098Y-41805674D01*
X54165139Y-41765900D01*
X53961261Y-41765900D01*
X53761302Y-41805674D01*
X53572944Y-41883695D01*
X53403426Y-41996963D01*
X53259263Y-42141126D01*
X53145995Y-42310644D01*
X53067974Y-42499002D01*
X53028200Y-42698961D01*
X53028200Y-42761099D01*
X52869299Y-42920000D01*
X52669208Y-42920000D01*
X52678072Y-42830000D01*
X52678072Y-42530000D01*
X52668223Y-42430000D01*
X52678072Y-42330000D01*
X52678072Y-42030000D01*
X52668223Y-41929999D01*
X52678072Y-41830000D01*
X52678072Y-41530000D01*
X52669208Y-41440000D01*
X53057478Y-41440000D01*
X53094800Y-41443676D01*
X53132122Y-41440000D01*
X53132133Y-41440000D01*
X53243786Y-41429003D01*
X53387047Y-41385546D01*
X53519076Y-41314974D01*
X53634801Y-41220001D01*
X53658604Y-41190997D01*
X58829703Y-36019899D01*
X58858701Y-35996101D01*
X58907200Y-35937004D01*
X58907200Y-38956598D01*
G36*
X52719501Y-37250997D02*
G01*
X52678072Y-37292426D01*
X52678072Y-37030000D01*
X52667882Y-36926535D01*
X52675000Y-36861750D01*
X52642753Y-36829503D01*
X52629502Y-36785820D01*
X52572939Y-36680000D01*
X52629502Y-36574180D01*
X52642753Y-36530497D01*
X52675000Y-36498250D01*
X52667882Y-36433465D01*
X52678072Y-36330000D01*
X52678072Y-36030000D01*
X52668223Y-35930000D01*
X52678072Y-35830000D01*
X52678072Y-35530000D01*
X52668223Y-35430000D01*
X52672901Y-35382500D01*
X52719500Y-35382500D01*
X52719501Y-37250997D01*
G37*
X52719501Y-37250997D02*
X52678072Y-37292426D01*
X52678072Y-37030000D01*
X52667882Y-36926535D01*
X52675000Y-36861750D01*
X52642753Y-36829503D01*
X52629502Y-36785820D01*
X52572939Y-36680000D01*
X52629502Y-36574180D01*
X52642753Y-36530497D01*
X52675000Y-36498250D01*
X52667882Y-36433465D01*
X52678072Y-36330000D01*
X52678072Y-36030000D01*
X52668223Y-35930000D01*
X52678072Y-35830000D01*
X52678072Y-35530000D01*
X52668223Y-35430000D01*
X52672901Y-35382500D01*
X52719500Y-35382500D01*
X52719501Y-37250997D01*
G36*
X55299296Y-14359571D02*
G01*
X55217616Y-14671108D01*
X55198282Y-14992595D01*
X55242039Y-15311675D01*
X55347205Y-15616088D01*
X55440186Y-15790044D01*
X55704587Y-15885808D01*
X56660395Y-14930000D01*
X56646253Y-14915858D01*
X56825858Y-14736253D01*
X56840000Y-14750395D01*
X56854143Y-14736253D01*
X57033748Y-14915858D01*
X57019605Y-14930000D01*
X57975413Y-15885808D01*
X58239814Y-15790044D01*
X58380704Y-15500429D01*
X58462384Y-15188892D01*
X58481718Y-14867405D01*
X58437961Y-14548325D01*
X58332795Y-14243912D01*
X58250528Y-14090000D01*
X61930435Y-14090000D01*
X61799296Y-14359571D01*
X61717616Y-14671108D01*
X61698282Y-14992595D01*
X61742039Y-15311675D01*
X61847205Y-15616088D01*
X61940186Y-15790044D01*
X62204587Y-15885808D01*
X63160395Y-14930000D01*
X63146253Y-14915858D01*
X63325858Y-14736253D01*
X63340000Y-14750395D01*
X63354143Y-14736253D01*
X63533748Y-14915858D01*
X63519605Y-14930000D01*
X63533748Y-14944143D01*
X63354143Y-15123748D01*
X63340000Y-15109605D01*
X62384192Y-16065413D01*
X62479956Y-16329814D01*
X62769571Y-16470704D01*
X63081108Y-16552384D01*
X63402595Y-16571718D01*
X63721675Y-16527961D01*
X64026088Y-16422795D01*
X64180000Y-16340528D01*
X64180000Y-18024873D01*
X64114463Y-17981082D01*
X63816912Y-17857832D01*
X63501033Y-17795000D01*
X63178967Y-17795000D01*
X62863088Y-17857832D01*
X62565537Y-17981082D01*
X62297748Y-18160013D01*
X62070013Y-18387748D01*
X61891082Y-18655537D01*
X61885091Y-18670000D01*
X58294909Y-18670000D01*
X58288918Y-18655537D01*
X58109987Y-18387748D01*
X57882252Y-18160013D01*
X57614463Y-17981082D01*
X57316912Y-17857832D01*
X57001033Y-17795000D01*
X56678967Y-17795000D01*
X56363088Y-17857832D01*
X56065537Y-17981082D01*
X55797748Y-18160013D01*
X55570013Y-18387748D01*
X55391082Y-18655537D01*
X55267832Y-18953088D01*
X55205000Y-19268967D01*
X55205000Y-19591033D01*
X55267832Y-19906912D01*
X55391082Y-20204463D01*
X55570013Y-20472252D01*
X55797748Y-20699987D01*
X56065537Y-20878918D01*
X56363088Y-21002168D01*
X56678967Y-21065000D01*
X57001033Y-21065000D01*
X57316912Y-21002168D01*
X57614463Y-20878918D01*
X57882252Y-20699987D01*
X58109987Y-20472252D01*
X58288918Y-20204463D01*
X58294909Y-20190000D01*
X61885091Y-20190000D01*
X61891082Y-20204463D01*
X62070013Y-20472252D01*
X62297748Y-20699987D01*
X62565537Y-20878918D01*
X62863088Y-21002168D01*
X63178967Y-21065000D01*
X63501033Y-21065000D01*
X63816912Y-21002168D01*
X64114463Y-20878918D01*
X64180000Y-20835127D01*
X64180001Y-34370000D01*
X62174600Y-34370000D01*
X62174600Y-25853423D01*
X62178276Y-25816100D01*
X62174600Y-25778777D01*
X62174600Y-25778767D01*
X62163603Y-25667114D01*
X62120146Y-25523853D01*
X62049574Y-25391824D01*
X61954601Y-25276099D01*
X61925603Y-25252301D01*
X58750304Y-22077003D01*
X58726501Y-22047999D01*
X58610776Y-21953026D01*
X58478747Y-21882454D01*
X58335486Y-21838997D01*
X58223833Y-21828000D01*
X58223822Y-21828000D01*
X58186500Y-21824324D01*
X58149178Y-21828000D01*
X55408102Y-21828000D01*
X53541295Y-19961194D01*
X53535812Y-19905518D01*
X53499502Y-19785820D01*
X53440537Y-19675506D01*
X53361185Y-19578815D01*
X53264494Y-19499463D01*
X53154180Y-19440498D01*
X53034482Y-19404188D01*
X52910000Y-19391928D01*
X51896730Y-19391928D01*
X51272873Y-18768072D01*
X52910000Y-18768072D01*
X53034482Y-18755812D01*
X53154180Y-18719502D01*
X53264494Y-18660537D01*
X53361185Y-18581185D01*
X53440537Y-18484494D01*
X53499502Y-18374180D01*
X53520601Y-18304625D01*
X53649298Y-18279026D01*
X53837656Y-18201005D01*
X54007174Y-18087737D01*
X54151337Y-17943574D01*
X54264605Y-17774056D01*
X54342626Y-17585698D01*
X54382400Y-17385739D01*
X54382400Y-17181861D01*
X54342626Y-16981902D01*
X54264605Y-16793544D01*
X54151337Y-16624026D01*
X54007174Y-16479863D01*
X53837656Y-16366595D01*
X53649298Y-16288574D01*
X53449339Y-16248800D01*
X53245461Y-16248800D01*
X53045502Y-16288574D01*
X52857144Y-16366595D01*
X52687626Y-16479863D01*
X52543463Y-16624026D01*
X52430195Y-16793544D01*
X52406011Y-16851928D01*
X51088900Y-16851928D01*
X51088900Y-16502422D01*
X51092576Y-16465099D01*
X51088900Y-16427776D01*
X51088900Y-16427767D01*
X51077903Y-16316114D01*
X51034446Y-16172853D01*
X50977018Y-16065413D01*
X55884192Y-16065413D01*
X55979956Y-16329814D01*
X56269571Y-16470704D01*
X56581108Y-16552384D01*
X56902595Y-16571718D01*
X57221675Y-16527961D01*
X57526088Y-16422795D01*
X57700044Y-16329814D01*
X57795808Y-16065413D01*
X56840000Y-15109605D01*
X55884192Y-16065413D01*
X50977018Y-16065413D01*
X50963874Y-16040824D01*
X50868901Y-15925099D01*
X50839904Y-15901302D01*
X49357604Y-14419003D01*
X49333801Y-14389999D01*
X49218076Y-14295026D01*
X49086047Y-14224454D01*
X48942786Y-14180997D01*
X48831133Y-14170000D01*
X48831122Y-14170000D01*
X48793800Y-14166324D01*
X48756478Y-14170000D01*
X48388627Y-14170000D01*
X48370472Y-14110149D01*
X48359702Y-14090000D01*
X55430435Y-14090000D01*
X55299296Y-14359571D01*
G37*
X55299296Y-14359571D02*
X55217616Y-14671108D01*
X55198282Y-14992595D01*
X55242039Y-15311675D01*
X55347205Y-15616088D01*
X55440186Y-15790044D01*
X55704587Y-15885808D01*
X56660395Y-14930000D01*
X56646253Y-14915858D01*
X56825858Y-14736253D01*
X56840000Y-14750395D01*
X56854143Y-14736253D01*
X57033748Y-14915858D01*
X57019605Y-14930000D01*
X57975413Y-15885808D01*
X58239814Y-15790044D01*
X58380704Y-15500429D01*
X58462384Y-15188892D01*
X58481718Y-14867405D01*
X58437961Y-14548325D01*
X58332795Y-14243912D01*
X58250528Y-14090000D01*
X61930435Y-14090000D01*
X61799296Y-14359571D01*
X61717616Y-14671108D01*
X61698282Y-14992595D01*
X61742039Y-15311675D01*
X61847205Y-15616088D01*
X61940186Y-15790044D01*
X62204587Y-15885808D01*
X63160395Y-14930000D01*
X63146253Y-14915858D01*
X63325858Y-14736253D01*
X63340000Y-14750395D01*
X63354143Y-14736253D01*
X63533748Y-14915858D01*
X63519605Y-14930000D01*
X63533748Y-14944143D01*
X63354143Y-15123748D01*
X63340000Y-15109605D01*
X62384192Y-16065413D01*
X62479956Y-16329814D01*
X62769571Y-16470704D01*
X63081108Y-16552384D01*
X63402595Y-16571718D01*
X63721675Y-16527961D01*
X64026088Y-16422795D01*
X64180000Y-16340528D01*
X64180000Y-18024873D01*
X64114463Y-17981082D01*
X63816912Y-17857832D01*
X63501033Y-17795000D01*
X63178967Y-17795000D01*
X62863088Y-17857832D01*
X62565537Y-17981082D01*
X62297748Y-18160013D01*
X62070013Y-18387748D01*
X61891082Y-18655537D01*
X61885091Y-18670000D01*
X58294909Y-18670000D01*
X58288918Y-18655537D01*
X58109987Y-18387748D01*
X57882252Y-18160013D01*
X57614463Y-17981082D01*
X57316912Y-17857832D01*
X57001033Y-17795000D01*
X56678967Y-17795000D01*
X56363088Y-17857832D01*
X56065537Y-17981082D01*
X55797748Y-18160013D01*
X55570013Y-18387748D01*
X55391082Y-18655537D01*
X55267832Y-18953088D01*
X55205000Y-19268967D01*
X55205000Y-19591033D01*
X55267832Y-19906912D01*
X55391082Y-20204463D01*
X55570013Y-20472252D01*
X55797748Y-20699987D01*
X56065537Y-20878918D01*
X56363088Y-21002168D01*
X56678967Y-21065000D01*
X57001033Y-21065000D01*
X57316912Y-21002168D01*
X57614463Y-20878918D01*
X57882252Y-20699987D01*
X58109987Y-20472252D01*
X58288918Y-20204463D01*
X58294909Y-20190000D01*
X61885091Y-20190000D01*
X61891082Y-20204463D01*
X62070013Y-20472252D01*
X62297748Y-20699987D01*
X62565537Y-20878918D01*
X62863088Y-21002168D01*
X63178967Y-21065000D01*
X63501033Y-21065000D01*
X63816912Y-21002168D01*
X64114463Y-20878918D01*
X64180000Y-20835127D01*
X64180001Y-34370000D01*
X62174600Y-34370000D01*
X62174600Y-25853423D01*
X62178276Y-25816100D01*
X62174600Y-25778777D01*
X62174600Y-25778767D01*
X62163603Y-25667114D01*
X62120146Y-25523853D01*
X62049574Y-25391824D01*
X61954601Y-25276099D01*
X61925603Y-25252301D01*
X58750304Y-22077003D01*
X58726501Y-22047999D01*
X58610776Y-21953026D01*
X58478747Y-21882454D01*
X58335486Y-21838997D01*
X58223833Y-21828000D01*
X58223822Y-21828000D01*
X58186500Y-21824324D01*
X58149178Y-21828000D01*
X55408102Y-21828000D01*
X53541295Y-19961194D01*
X53535812Y-19905518D01*
X53499502Y-19785820D01*
X53440537Y-19675506D01*
X53361185Y-19578815D01*
X53264494Y-19499463D01*
X53154180Y-19440498D01*
X53034482Y-19404188D01*
X52910000Y-19391928D01*
X51896730Y-19391928D01*
X51272873Y-18768072D01*
X52910000Y-18768072D01*
X53034482Y-18755812D01*
X53154180Y-18719502D01*
X53264494Y-18660537D01*
X53361185Y-18581185D01*
X53440537Y-18484494D01*
X53499502Y-18374180D01*
X53520601Y-18304625D01*
X53649298Y-18279026D01*
X53837656Y-18201005D01*
X54007174Y-18087737D01*
X54151337Y-17943574D01*
X54264605Y-17774056D01*
X54342626Y-17585698D01*
X54382400Y-17385739D01*
X54382400Y-17181861D01*
X54342626Y-16981902D01*
X54264605Y-16793544D01*
X54151337Y-16624026D01*
X54007174Y-16479863D01*
X53837656Y-16366595D01*
X53649298Y-16288574D01*
X53449339Y-16248800D01*
X53245461Y-16248800D01*
X53045502Y-16288574D01*
X52857144Y-16366595D01*
X52687626Y-16479863D01*
X52543463Y-16624026D01*
X52430195Y-16793544D01*
X52406011Y-16851928D01*
X51088900Y-16851928D01*
X51088900Y-16502422D01*
X51092576Y-16465099D01*
X51088900Y-16427776D01*
X51088900Y-16427767D01*
X51077903Y-16316114D01*
X51034446Y-16172853D01*
X50977018Y-16065413D01*
X55884192Y-16065413D01*
X55979956Y-16329814D01*
X56269571Y-16470704D01*
X56581108Y-16552384D01*
X56902595Y-16571718D01*
X57221675Y-16527961D01*
X57526088Y-16422795D01*
X57700044Y-16329814D01*
X57795808Y-16065413D01*
X56840000Y-15109605D01*
X55884192Y-16065413D01*
X50977018Y-16065413D01*
X50963874Y-16040824D01*
X50868901Y-15925099D01*
X50839904Y-15901302D01*
X49357604Y-14419003D01*
X49333801Y-14389999D01*
X49218076Y-14295026D01*
X49086047Y-14224454D01*
X48942786Y-14180997D01*
X48831133Y-14170000D01*
X48831122Y-14170000D01*
X48793800Y-14166324D01*
X48756478Y-14170000D01*
X48388627Y-14170000D01*
X48370472Y-14110149D01*
X48359702Y-14090000D01*
X55430435Y-14090000D01*
X55299296Y-14359571D01*
G36*
X59677300Y-29286998D02*
G01*
X59156198Y-29808101D01*
X59127200Y-29831899D01*
X59103402Y-29860897D01*
X59103401Y-29860898D01*
X59078700Y-29890996D01*
X59078700Y-29334023D01*
X59082376Y-29296700D01*
X59078700Y-29259377D01*
X59078700Y-29259367D01*
X59067703Y-29147714D01*
X59024246Y-29004453D01*
X58953674Y-28872424D01*
X58858701Y-28756699D01*
X58829704Y-28732902D01*
X58669081Y-28572279D01*
X58782981Y-28549623D01*
X59184144Y-28383456D01*
X59545181Y-28142218D01*
X59677300Y-28010099D01*
X59677300Y-29286998D01*
G37*
X59677300Y-29286998D02*
X59156198Y-29808101D01*
X59127200Y-29831899D01*
X59103402Y-29860897D01*
X59103401Y-29860898D01*
X59078700Y-29890996D01*
X59078700Y-29334023D01*
X59082376Y-29296700D01*
X59078700Y-29259377D01*
X59078700Y-29259367D01*
X59067703Y-29147714D01*
X59024246Y-29004453D01*
X58953674Y-28872424D01*
X58858701Y-28756699D01*
X58829704Y-28732902D01*
X58669081Y-28572279D01*
X58782981Y-28549623D01*
X59184144Y-28383456D01*
X59545181Y-28142218D01*
X59677300Y-28010099D01*
X59677300Y-29286998D01*
G36*
X20540186Y-14169956D02*
G01*
X20399296Y-14459571D01*
X20317616Y-14771108D01*
X20298282Y-15092595D01*
X20342039Y-15411675D01*
X20447205Y-15716088D01*
X20540186Y-15890044D01*
X20804587Y-15985808D01*
X21760395Y-15030000D01*
X21746253Y-15015858D01*
X21925858Y-14836253D01*
X21940000Y-14850395D01*
X21954143Y-14836253D01*
X22133748Y-15015858D01*
X22119605Y-15030000D01*
X23075413Y-15985808D01*
X23339814Y-15890044D01*
X23480704Y-15600429D01*
X23562384Y-15288892D01*
X23581718Y-14967405D01*
X23537961Y-14648325D01*
X23432795Y-14343912D01*
X23339814Y-14169956D01*
X23119058Y-14090000D01*
X24318455Y-14090000D01*
X24212068Y-14346842D01*
X24155000Y-14633740D01*
X24155000Y-14926260D01*
X24212068Y-15213158D01*
X24324010Y-15483411D01*
X24486525Y-15726632D01*
X24693368Y-15933475D01*
X24875534Y-16055195D01*
X24758645Y-16124822D01*
X24542412Y-16319731D01*
X24368359Y-16553080D01*
X24243175Y-16815901D01*
X24198524Y-16963110D01*
X24319845Y-17193000D01*
X25513000Y-17193000D01*
X25513000Y-17173000D01*
X25767000Y-17173000D01*
X25767000Y-17193000D01*
X26960155Y-17193000D01*
X27081476Y-16963110D01*
X27036825Y-16815901D01*
X26911641Y-16553080D01*
X26737588Y-16319731D01*
X26521355Y-16124822D01*
X26404466Y-16055195D01*
X26586632Y-15933475D01*
X26793475Y-15726632D01*
X26955990Y-15483411D01*
X27067932Y-15213158D01*
X27125000Y-14926260D01*
X27125000Y-14633740D01*
X27067932Y-14346842D01*
X26961545Y-14090000D01*
X44040298Y-14090000D01*
X44029528Y-14110149D01*
X43978992Y-14276745D01*
X43961928Y-14449999D01*
X43961928Y-15350001D01*
X43978992Y-15523255D01*
X44029528Y-15689851D01*
X44111595Y-15843387D01*
X44222038Y-15977962D01*
X44356613Y-16088405D01*
X44510149Y-16170472D01*
X44676745Y-16221008D01*
X44849999Y-16238072D01*
X45045945Y-16238072D01*
X45331993Y-16534275D01*
X45359999Y-16568401D01*
X45412725Y-16611672D01*
X45464716Y-16655879D01*
X45470556Y-16659133D01*
X45475724Y-16663374D01*
X45535901Y-16695540D01*
X45595494Y-16728742D01*
X45601855Y-16730793D01*
X45607753Y-16733946D01*
X45673055Y-16753755D01*
X45737975Y-16774691D01*
X45744616Y-16775462D01*
X45751014Y-16777403D01*
X45818940Y-16784093D01*
X45886683Y-16791960D01*
X45930684Y-16788400D01*
X48140189Y-16788400D01*
X48184126Y-16832337D01*
X48353644Y-16945605D01*
X48542002Y-17023626D01*
X48741961Y-17063400D01*
X48945839Y-17063400D01*
X49145798Y-17023626D01*
X49334156Y-16945605D01*
X49503674Y-16832337D01*
X49562505Y-16773506D01*
X49568900Y-16779902D01*
X49568900Y-17251500D01*
X49501561Y-17251500D01*
X49301602Y-17291274D01*
X49113244Y-17369295D01*
X48943726Y-17482563D01*
X48799563Y-17626726D01*
X48686295Y-17796244D01*
X48608274Y-17984602D01*
X48568500Y-18184561D01*
X48568500Y-18388439D01*
X48608274Y-18588398D01*
X48686295Y-18776756D01*
X48799563Y-18946274D01*
X48843501Y-18990212D01*
X48843500Y-19811877D01*
X48839824Y-19849200D01*
X48843500Y-19886522D01*
X48843500Y-19886532D01*
X48854497Y-19998185D01*
X48874757Y-20064974D01*
X48897954Y-20141446D01*
X48968526Y-20273476D01*
X48984679Y-20293158D01*
X49063499Y-20389201D01*
X49092503Y-20413004D01*
X52679200Y-23999702D01*
X52702999Y-24028701D01*
X52818724Y-24123674D01*
X52950753Y-24194246D01*
X53094014Y-24237703D01*
X53205667Y-24248700D01*
X53205676Y-24248700D01*
X53242999Y-24252376D01*
X53280322Y-24248700D01*
X55723157Y-24248700D01*
X55664395Y-24336644D01*
X55586374Y-24525002D01*
X55546600Y-24724961D01*
X55546600Y-24928839D01*
X55560304Y-24997736D01*
X55554500Y-25056668D01*
X55554500Y-25056678D01*
X55550824Y-25094000D01*
X55554500Y-25131323D01*
X55554500Y-25481281D01*
X55410598Y-25421674D01*
X55210639Y-25381900D01*
X55006761Y-25381900D01*
X54806802Y-25421674D01*
X54618444Y-25499695D01*
X54448926Y-25612963D01*
X54304763Y-25757126D01*
X54285402Y-25786101D01*
X54116104Y-25616803D01*
X54092301Y-25587799D01*
X53976576Y-25492826D01*
X53844547Y-25422254D01*
X53701286Y-25378797D01*
X53589633Y-25367800D01*
X53589622Y-25367800D01*
X53552300Y-25364124D01*
X53514978Y-25367800D01*
X52389402Y-25367800D01*
X49718100Y-22696499D01*
X49718100Y-22634361D01*
X49678326Y-22434402D01*
X49600305Y-22246044D01*
X49487037Y-22076526D01*
X49342874Y-21932363D01*
X49173356Y-21819095D01*
X48984998Y-21741074D01*
X48785039Y-21701300D01*
X48581161Y-21701300D01*
X48381202Y-21741074D01*
X48192844Y-21819095D01*
X48023326Y-21932363D01*
X47879163Y-22076526D01*
X47793352Y-22204951D01*
X47505300Y-21916899D01*
X47505300Y-20417333D01*
X47508977Y-20380000D01*
X47494303Y-20231014D01*
X47450846Y-20087753D01*
X47380274Y-19955724D01*
X47285301Y-19839999D01*
X47184043Y-19756899D01*
X47140537Y-19675506D01*
X47061185Y-19578815D01*
X46964494Y-19499463D01*
X46854180Y-19440498D01*
X46734482Y-19404188D01*
X46610000Y-19391928D01*
X44610000Y-19391928D01*
X44485518Y-19404188D01*
X44365820Y-19440498D01*
X44255506Y-19499463D01*
X44158815Y-19578815D01*
X44138847Y-19603146D01*
X43884704Y-19349003D01*
X43860901Y-19319999D01*
X43745176Y-19225026D01*
X43613147Y-19154454D01*
X43469886Y-19110997D01*
X43358233Y-19100000D01*
X43358222Y-19100000D01*
X43320900Y-19096324D01*
X43283578Y-19100000D01*
X26918178Y-19100000D01*
X26793475Y-18913368D01*
X26586632Y-18706525D01*
X26404466Y-18584805D01*
X26521355Y-18515178D01*
X26737588Y-18320269D01*
X26879508Y-18130000D01*
X43971928Y-18130000D01*
X43984188Y-18254482D01*
X44020498Y-18374180D01*
X44079463Y-18484494D01*
X44158815Y-18581185D01*
X44255506Y-18660537D01*
X44365820Y-18719502D01*
X44485518Y-18755812D01*
X44610000Y-18768072D01*
X45324250Y-18765000D01*
X45483000Y-18606250D01*
X45483000Y-17937000D01*
X45737000Y-17937000D01*
X45737000Y-18606250D01*
X45895750Y-18765000D01*
X46610000Y-18768072D01*
X46734482Y-18755812D01*
X46854180Y-18719502D01*
X46964494Y-18660537D01*
X47061185Y-18581185D01*
X47140537Y-18484494D01*
X47199502Y-18374180D01*
X47235812Y-18254482D01*
X47248072Y-18130000D01*
X47245000Y-18095750D01*
X47086250Y-17937000D01*
X45737000Y-17937000D01*
X45483000Y-17937000D01*
X44133750Y-17937000D01*
X43975000Y-18095750D01*
X43971928Y-18130000D01*
X26879508Y-18130000D01*
X26911641Y-18086920D01*
X27036825Y-17824099D01*
X27081476Y-17676890D01*
X26982848Y-17490000D01*
X43971928Y-17490000D01*
X43975000Y-17524250D01*
X44133750Y-17683000D01*
X45483000Y-17683000D01*
X45483000Y-17013750D01*
X45737000Y-17013750D01*
X45737000Y-17683000D01*
X47086250Y-17683000D01*
X47245000Y-17524250D01*
X47248072Y-17490000D01*
X47235812Y-17365518D01*
X47199502Y-17245820D01*
X47140537Y-17135506D01*
X47061185Y-17038815D01*
X46964494Y-16959463D01*
X46854180Y-16900498D01*
X46734482Y-16864188D01*
X46610000Y-16851928D01*
X45895750Y-16855000D01*
X45737000Y-17013750D01*
X45483000Y-17013750D01*
X45324250Y-16855000D01*
X44610000Y-16851928D01*
X44485518Y-16864188D01*
X44365820Y-16900498D01*
X44255506Y-16959463D01*
X44158815Y-17038815D01*
X44079463Y-17135506D01*
X44020498Y-17245820D01*
X43984188Y-17365518D01*
X43971928Y-17490000D01*
X26982848Y-17490000D01*
X26960155Y-17447000D01*
X25767000Y-17447000D01*
X25767000Y-17467000D01*
X25513000Y-17467000D01*
X25513000Y-17447000D01*
X24319845Y-17447000D01*
X24198524Y-17676890D01*
X24243175Y-17824099D01*
X24368359Y-18086920D01*
X24542412Y-18320269D01*
X24758645Y-18515178D01*
X24875534Y-18584805D01*
X24693368Y-18706525D01*
X24486525Y-18913368D01*
X24324010Y-19156589D01*
X24212068Y-19426842D01*
X24155000Y-19713740D01*
X24155000Y-20006260D01*
X24209451Y-20280000D01*
X23764803Y-20280000D01*
X23506177Y-20021375D01*
X23512168Y-20006912D01*
X23575000Y-19691033D01*
X23575000Y-19368967D01*
X23512168Y-19053088D01*
X23388918Y-18755537D01*
X23209987Y-18487748D01*
X22982252Y-18260013D01*
X22714463Y-18081082D01*
X22416912Y-17957832D01*
X22101033Y-17895000D01*
X21778967Y-17895000D01*
X21463088Y-17957832D01*
X21165537Y-18081082D01*
X20897748Y-18260013D01*
X20670013Y-18487748D01*
X20491082Y-18755537D01*
X20485091Y-18770000D01*
X16894909Y-18770000D01*
X16888918Y-18755537D01*
X16709987Y-18487748D01*
X16482252Y-18260013D01*
X16214463Y-18081082D01*
X15916912Y-17957832D01*
X15601033Y-17895000D01*
X15278967Y-17895000D01*
X14963088Y-17957832D01*
X14665537Y-18081082D01*
X14500000Y-18191690D01*
X14500000Y-16209058D01*
X14579956Y-16429814D01*
X14869571Y-16570704D01*
X15181108Y-16652384D01*
X15502595Y-16671718D01*
X15821675Y-16627961D01*
X16126088Y-16522795D01*
X16300044Y-16429814D01*
X16395808Y-16165413D01*
X20984192Y-16165413D01*
X21079956Y-16429814D01*
X21369571Y-16570704D01*
X21681108Y-16652384D01*
X22002595Y-16671718D01*
X22321675Y-16627961D01*
X22626088Y-16522795D01*
X22800044Y-16429814D01*
X22895808Y-16165413D01*
X21940000Y-15209605D01*
X20984192Y-16165413D01*
X16395808Y-16165413D01*
X15440000Y-15209605D01*
X15425858Y-15223748D01*
X15246253Y-15044143D01*
X15260395Y-15030000D01*
X15246253Y-15015858D01*
X15425858Y-14836253D01*
X15440000Y-14850395D01*
X15454143Y-14836253D01*
X15633748Y-15015858D01*
X15619605Y-15030000D01*
X16575413Y-15985808D01*
X16839814Y-15890044D01*
X16980704Y-15600429D01*
X17062384Y-15288892D01*
X17081718Y-14967405D01*
X17037961Y-14648325D01*
X16932795Y-14343912D01*
X16839814Y-14169956D01*
X16619058Y-14090000D01*
X20760942Y-14090000D01*
X20540186Y-14169956D01*
G37*
X20540186Y-14169956D02*
X20399296Y-14459571D01*
X20317616Y-14771108D01*
X20298282Y-15092595D01*
X20342039Y-15411675D01*
X20447205Y-15716088D01*
X20540186Y-15890044D01*
X20804587Y-15985808D01*
X21760395Y-15030000D01*
X21746253Y-15015858D01*
X21925858Y-14836253D01*
X21940000Y-14850395D01*
X21954143Y-14836253D01*
X22133748Y-15015858D01*
X22119605Y-15030000D01*
X23075413Y-15985808D01*
X23339814Y-15890044D01*
X23480704Y-15600429D01*
X23562384Y-15288892D01*
X23581718Y-14967405D01*
X23537961Y-14648325D01*
X23432795Y-14343912D01*
X23339814Y-14169956D01*
X23119058Y-14090000D01*
X24318455Y-14090000D01*
X24212068Y-14346842D01*
X24155000Y-14633740D01*
X24155000Y-14926260D01*
X24212068Y-15213158D01*
X24324010Y-15483411D01*
X24486525Y-15726632D01*
X24693368Y-15933475D01*
X24875534Y-16055195D01*
X24758645Y-16124822D01*
X24542412Y-16319731D01*
X24368359Y-16553080D01*
X24243175Y-16815901D01*
X24198524Y-16963110D01*
X24319845Y-17193000D01*
X25513000Y-17193000D01*
X25513000Y-17173000D01*
X25767000Y-17173000D01*
X25767000Y-17193000D01*
X26960155Y-17193000D01*
X27081476Y-16963110D01*
X27036825Y-16815901D01*
X26911641Y-16553080D01*
X26737588Y-16319731D01*
X26521355Y-16124822D01*
X26404466Y-16055195D01*
X26586632Y-15933475D01*
X26793475Y-15726632D01*
X26955990Y-15483411D01*
X27067932Y-15213158D01*
X27125000Y-14926260D01*
X27125000Y-14633740D01*
X27067932Y-14346842D01*
X26961545Y-14090000D01*
X44040298Y-14090000D01*
X44029528Y-14110149D01*
X43978992Y-14276745D01*
X43961928Y-14449999D01*
X43961928Y-15350001D01*
X43978992Y-15523255D01*
X44029528Y-15689851D01*
X44111595Y-15843387D01*
X44222038Y-15977962D01*
X44356613Y-16088405D01*
X44510149Y-16170472D01*
X44676745Y-16221008D01*
X44849999Y-16238072D01*
X45045945Y-16238072D01*
X45331993Y-16534275D01*
X45359999Y-16568401D01*
X45412725Y-16611672D01*
X45464716Y-16655879D01*
X45470556Y-16659133D01*
X45475724Y-16663374D01*
X45535901Y-16695540D01*
X45595494Y-16728742D01*
X45601855Y-16730793D01*
X45607753Y-16733946D01*
X45673055Y-16753755D01*
X45737975Y-16774691D01*
X45744616Y-16775462D01*
X45751014Y-16777403D01*
X45818940Y-16784093D01*
X45886683Y-16791960D01*
X45930684Y-16788400D01*
X48140189Y-16788400D01*
X48184126Y-16832337D01*
X48353644Y-16945605D01*
X48542002Y-17023626D01*
X48741961Y-17063400D01*
X48945839Y-17063400D01*
X49145798Y-17023626D01*
X49334156Y-16945605D01*
X49503674Y-16832337D01*
X49562505Y-16773506D01*
X49568900Y-16779902D01*
X49568900Y-17251500D01*
X49501561Y-17251500D01*
X49301602Y-17291274D01*
X49113244Y-17369295D01*
X48943726Y-17482563D01*
X48799563Y-17626726D01*
X48686295Y-17796244D01*
X48608274Y-17984602D01*
X48568500Y-18184561D01*
X48568500Y-18388439D01*
X48608274Y-18588398D01*
X48686295Y-18776756D01*
X48799563Y-18946274D01*
X48843501Y-18990212D01*
X48843500Y-19811877D01*
X48839824Y-19849200D01*
X48843500Y-19886522D01*
X48843500Y-19886532D01*
X48854497Y-19998185D01*
X48874757Y-20064974D01*
X48897954Y-20141446D01*
X48968526Y-20273476D01*
X48984679Y-20293158D01*
X49063499Y-20389201D01*
X49092503Y-20413004D01*
X52679200Y-23999702D01*
X52702999Y-24028701D01*
X52818724Y-24123674D01*
X52950753Y-24194246D01*
X53094014Y-24237703D01*
X53205667Y-24248700D01*
X53205676Y-24248700D01*
X53242999Y-24252376D01*
X53280322Y-24248700D01*
X55723157Y-24248700D01*
X55664395Y-24336644D01*
X55586374Y-24525002D01*
X55546600Y-24724961D01*
X55546600Y-24928839D01*
X55560304Y-24997736D01*
X55554500Y-25056668D01*
X55554500Y-25056678D01*
X55550824Y-25094000D01*
X55554500Y-25131323D01*
X55554500Y-25481281D01*
X55410598Y-25421674D01*
X55210639Y-25381900D01*
X55006761Y-25381900D01*
X54806802Y-25421674D01*
X54618444Y-25499695D01*
X54448926Y-25612963D01*
X54304763Y-25757126D01*
X54285402Y-25786101D01*
X54116104Y-25616803D01*
X54092301Y-25587799D01*
X53976576Y-25492826D01*
X53844547Y-25422254D01*
X53701286Y-25378797D01*
X53589633Y-25367800D01*
X53589622Y-25367800D01*
X53552300Y-25364124D01*
X53514978Y-25367800D01*
X52389402Y-25367800D01*
X49718100Y-22696499D01*
X49718100Y-22634361D01*
X49678326Y-22434402D01*
X49600305Y-22246044D01*
X49487037Y-22076526D01*
X49342874Y-21932363D01*
X49173356Y-21819095D01*
X48984998Y-21741074D01*
X48785039Y-21701300D01*
X48581161Y-21701300D01*
X48381202Y-21741074D01*
X48192844Y-21819095D01*
X48023326Y-21932363D01*
X47879163Y-22076526D01*
X47793352Y-22204951D01*
X47505300Y-21916899D01*
X47505300Y-20417333D01*
X47508977Y-20380000D01*
X47494303Y-20231014D01*
X47450846Y-20087753D01*
X47380274Y-19955724D01*
X47285301Y-19839999D01*
X47184043Y-19756899D01*
X47140537Y-19675506D01*
X47061185Y-19578815D01*
X46964494Y-19499463D01*
X46854180Y-19440498D01*
X46734482Y-19404188D01*
X46610000Y-19391928D01*
X44610000Y-19391928D01*
X44485518Y-19404188D01*
X44365820Y-19440498D01*
X44255506Y-19499463D01*
X44158815Y-19578815D01*
X44138847Y-19603146D01*
X43884704Y-19349003D01*
X43860901Y-19319999D01*
X43745176Y-19225026D01*
X43613147Y-19154454D01*
X43469886Y-19110997D01*
X43358233Y-19100000D01*
X43358222Y-19100000D01*
X43320900Y-19096324D01*
X43283578Y-19100000D01*
X26918178Y-19100000D01*
X26793475Y-18913368D01*
X26586632Y-18706525D01*
X26404466Y-18584805D01*
X26521355Y-18515178D01*
X26737588Y-18320269D01*
X26879508Y-18130000D01*
X43971928Y-18130000D01*
X43984188Y-18254482D01*
X44020498Y-18374180D01*
X44079463Y-18484494D01*
X44158815Y-18581185D01*
X44255506Y-18660537D01*
X44365820Y-18719502D01*
X44485518Y-18755812D01*
X44610000Y-18768072D01*
X45324250Y-18765000D01*
X45483000Y-18606250D01*
X45483000Y-17937000D01*
X45737000Y-17937000D01*
X45737000Y-18606250D01*
X45895750Y-18765000D01*
X46610000Y-18768072D01*
X46734482Y-18755812D01*
X46854180Y-18719502D01*
X46964494Y-18660537D01*
X47061185Y-18581185D01*
X47140537Y-18484494D01*
X47199502Y-18374180D01*
X47235812Y-18254482D01*
X47248072Y-18130000D01*
X47245000Y-18095750D01*
X47086250Y-17937000D01*
X45737000Y-17937000D01*
X45483000Y-17937000D01*
X44133750Y-17937000D01*
X43975000Y-18095750D01*
X43971928Y-18130000D01*
X26879508Y-18130000D01*
X26911641Y-18086920D01*
X27036825Y-17824099D01*
X27081476Y-17676890D01*
X26982848Y-17490000D01*
X43971928Y-17490000D01*
X43975000Y-17524250D01*
X44133750Y-17683000D01*
X45483000Y-17683000D01*
X45483000Y-17013750D01*
X45737000Y-17013750D01*
X45737000Y-17683000D01*
X47086250Y-17683000D01*
X47245000Y-17524250D01*
X47248072Y-17490000D01*
X47235812Y-17365518D01*
X47199502Y-17245820D01*
X47140537Y-17135506D01*
X47061185Y-17038815D01*
X46964494Y-16959463D01*
X46854180Y-16900498D01*
X46734482Y-16864188D01*
X46610000Y-16851928D01*
X45895750Y-16855000D01*
X45737000Y-17013750D01*
X45483000Y-17013750D01*
X45324250Y-16855000D01*
X44610000Y-16851928D01*
X44485518Y-16864188D01*
X44365820Y-16900498D01*
X44255506Y-16959463D01*
X44158815Y-17038815D01*
X44079463Y-17135506D01*
X44020498Y-17245820D01*
X43984188Y-17365518D01*
X43971928Y-17490000D01*
X26982848Y-17490000D01*
X26960155Y-17447000D01*
X25767000Y-17447000D01*
X25767000Y-17467000D01*
X25513000Y-17467000D01*
X25513000Y-17447000D01*
X24319845Y-17447000D01*
X24198524Y-17676890D01*
X24243175Y-17824099D01*
X24368359Y-18086920D01*
X24542412Y-18320269D01*
X24758645Y-18515178D01*
X24875534Y-18584805D01*
X24693368Y-18706525D01*
X24486525Y-18913368D01*
X24324010Y-19156589D01*
X24212068Y-19426842D01*
X24155000Y-19713740D01*
X24155000Y-20006260D01*
X24209451Y-20280000D01*
X23764803Y-20280000D01*
X23506177Y-20021375D01*
X23512168Y-20006912D01*
X23575000Y-19691033D01*
X23575000Y-19368967D01*
X23512168Y-19053088D01*
X23388918Y-18755537D01*
X23209987Y-18487748D01*
X22982252Y-18260013D01*
X22714463Y-18081082D01*
X22416912Y-17957832D01*
X22101033Y-17895000D01*
X21778967Y-17895000D01*
X21463088Y-17957832D01*
X21165537Y-18081082D01*
X20897748Y-18260013D01*
X20670013Y-18487748D01*
X20491082Y-18755537D01*
X20485091Y-18770000D01*
X16894909Y-18770000D01*
X16888918Y-18755537D01*
X16709987Y-18487748D01*
X16482252Y-18260013D01*
X16214463Y-18081082D01*
X15916912Y-17957832D01*
X15601033Y-17895000D01*
X15278967Y-17895000D01*
X14963088Y-17957832D01*
X14665537Y-18081082D01*
X14500000Y-18191690D01*
X14500000Y-16209058D01*
X14579956Y-16429814D01*
X14869571Y-16570704D01*
X15181108Y-16652384D01*
X15502595Y-16671718D01*
X15821675Y-16627961D01*
X16126088Y-16522795D01*
X16300044Y-16429814D01*
X16395808Y-16165413D01*
X20984192Y-16165413D01*
X21079956Y-16429814D01*
X21369571Y-16570704D01*
X21681108Y-16652384D01*
X22002595Y-16671718D01*
X22321675Y-16627961D01*
X22626088Y-16522795D01*
X22800044Y-16429814D01*
X22895808Y-16165413D01*
X21940000Y-15209605D01*
X20984192Y-16165413D01*
X16395808Y-16165413D01*
X15440000Y-15209605D01*
X15425858Y-15223748D01*
X15246253Y-15044143D01*
X15260395Y-15030000D01*
X15246253Y-15015858D01*
X15425858Y-14836253D01*
X15440000Y-14850395D01*
X15454143Y-14836253D01*
X15633748Y-15015858D01*
X15619605Y-15030000D01*
X16575413Y-15985808D01*
X16839814Y-15890044D01*
X16980704Y-15600429D01*
X17062384Y-15288892D01*
X17081718Y-14967405D01*
X17037961Y-14648325D01*
X16932795Y-14343912D01*
X16839814Y-14169956D01*
X16619058Y-14090000D01*
X20760942Y-14090000D01*
X20540186Y-14169956D01*
M02*
