G04 #@! TF.GenerationSoftware,KiCad,Pcbnew,(5.1.5-0-10_14)*
G04 #@! TF.CreationDate,2020-08-15T12:56:05+02:00*
G04 #@! TF.ProjectId,HB-RC-4-Dis-TH,48422d52-432d-4342-9d44-69732d54482e,rev?*
G04 #@! TF.SameCoordinates,Original*
G04 #@! TF.FileFunction,Paste,Top*
G04 #@! TF.FilePolarity,Positive*
%FSLAX46Y46*%
G04 Gerber Fmt 4.6, Leading zero omitted, Abs format (unit mm)*
G04 Created by KiCad (PCBNEW (5.1.5-0-10_14)) date 2020-08-15 12:56:05*
%MOMM*%
%LPD*%
G04 APERTURE LIST*
%ADD10R,1.300000X0.300000*%
%ADD11R,4.000000X1.800000*%
%ADD12C,1.350000*%
%ADD13C,0.100000*%
G04 APERTURE END LIST*
D10*
X56450000Y-100750000D03*
X56450000Y-101250000D03*
X56450000Y-101750000D03*
X56450000Y-102250000D03*
X56450000Y-102750000D03*
X56450000Y-103250000D03*
X56450000Y-103750000D03*
X56450000Y-104250000D03*
X56450000Y-104750000D03*
X56450000Y-105250000D03*
X56450000Y-105750000D03*
X56450000Y-106250000D03*
X56450000Y-106750000D03*
X56450000Y-107250000D03*
X56450000Y-107750000D03*
X56450000Y-108250000D03*
X56450000Y-108750000D03*
X56450000Y-109250000D03*
X56450000Y-109750000D03*
X56450000Y-110250000D03*
X56450000Y-110750000D03*
X56450000Y-111250000D03*
X56450000Y-111750000D03*
X56450000Y-112250000D03*
D11*
X59700000Y-98850000D03*
X59700000Y-114150000D03*
D12*
X42850000Y-100500000D03*
X42850000Y-114500000D03*
X42850000Y-112500000D03*
X42850000Y-110500000D03*
X42850000Y-108500000D03*
X42850000Y-106500000D03*
X42850000Y-104500000D03*
X42850000Y-102500000D03*
D13*
G36*
X51474505Y-126001204D02*
G01*
X51498773Y-126004804D01*
X51522572Y-126010765D01*
X51545671Y-126019030D01*
X51567850Y-126029520D01*
X51588893Y-126042132D01*
X51608599Y-126056747D01*
X51626777Y-126073223D01*
X51643253Y-126091401D01*
X51657868Y-126111107D01*
X51670480Y-126132150D01*
X51680970Y-126154329D01*
X51689235Y-126177428D01*
X51695196Y-126201227D01*
X51698796Y-126225495D01*
X51700000Y-126249999D01*
X51700000Y-126900001D01*
X51698796Y-126924505D01*
X51695196Y-126948773D01*
X51689235Y-126972572D01*
X51680970Y-126995671D01*
X51670480Y-127017850D01*
X51657868Y-127038893D01*
X51643253Y-127058599D01*
X51626777Y-127076777D01*
X51608599Y-127093253D01*
X51588893Y-127107868D01*
X51567850Y-127120480D01*
X51545671Y-127130970D01*
X51522572Y-127139235D01*
X51498773Y-127145196D01*
X51474505Y-127148796D01*
X51450001Y-127150000D01*
X50549999Y-127150000D01*
X50525495Y-127148796D01*
X50501227Y-127145196D01*
X50477428Y-127139235D01*
X50454329Y-127130970D01*
X50432150Y-127120480D01*
X50411107Y-127107868D01*
X50391401Y-127093253D01*
X50373223Y-127076777D01*
X50356747Y-127058599D01*
X50342132Y-127038893D01*
X50329520Y-127017850D01*
X50319030Y-126995671D01*
X50310765Y-126972572D01*
X50304804Y-126948773D01*
X50301204Y-126924505D01*
X50300000Y-126900001D01*
X50300000Y-126249999D01*
X50301204Y-126225495D01*
X50304804Y-126201227D01*
X50310765Y-126177428D01*
X50319030Y-126154329D01*
X50329520Y-126132150D01*
X50342132Y-126111107D01*
X50356747Y-126091401D01*
X50373223Y-126073223D01*
X50391401Y-126056747D01*
X50411107Y-126042132D01*
X50432150Y-126029520D01*
X50454329Y-126019030D01*
X50477428Y-126010765D01*
X50501227Y-126004804D01*
X50525495Y-126001204D01*
X50549999Y-126000000D01*
X51450001Y-126000000D01*
X51474505Y-126001204D01*
G37*
G36*
X51474505Y-128051204D02*
G01*
X51498773Y-128054804D01*
X51522572Y-128060765D01*
X51545671Y-128069030D01*
X51567850Y-128079520D01*
X51588893Y-128092132D01*
X51608599Y-128106747D01*
X51626777Y-128123223D01*
X51643253Y-128141401D01*
X51657868Y-128161107D01*
X51670480Y-128182150D01*
X51680970Y-128204329D01*
X51689235Y-128227428D01*
X51695196Y-128251227D01*
X51698796Y-128275495D01*
X51700000Y-128299999D01*
X51700000Y-128950001D01*
X51698796Y-128974505D01*
X51695196Y-128998773D01*
X51689235Y-129022572D01*
X51680970Y-129045671D01*
X51670480Y-129067850D01*
X51657868Y-129088893D01*
X51643253Y-129108599D01*
X51626777Y-129126777D01*
X51608599Y-129143253D01*
X51588893Y-129157868D01*
X51567850Y-129170480D01*
X51545671Y-129180970D01*
X51522572Y-129189235D01*
X51498773Y-129195196D01*
X51474505Y-129198796D01*
X51450001Y-129200000D01*
X50549999Y-129200000D01*
X50525495Y-129198796D01*
X50501227Y-129195196D01*
X50477428Y-129189235D01*
X50454329Y-129180970D01*
X50432150Y-129170480D01*
X50411107Y-129157868D01*
X50391401Y-129143253D01*
X50373223Y-129126777D01*
X50356747Y-129108599D01*
X50342132Y-129088893D01*
X50329520Y-129067850D01*
X50319030Y-129045671D01*
X50310765Y-129022572D01*
X50304804Y-128998773D01*
X50301204Y-128974505D01*
X50300000Y-128950001D01*
X50300000Y-128299999D01*
X50301204Y-128275495D01*
X50304804Y-128251227D01*
X50310765Y-128227428D01*
X50319030Y-128204329D01*
X50329520Y-128182150D01*
X50342132Y-128161107D01*
X50356747Y-128141401D01*
X50373223Y-128123223D01*
X50391401Y-128106747D01*
X50411107Y-128092132D01*
X50432150Y-128079520D01*
X50454329Y-128069030D01*
X50477428Y-128060765D01*
X50501227Y-128054804D01*
X50525495Y-128051204D01*
X50549999Y-128050000D01*
X51450001Y-128050000D01*
X51474505Y-128051204D01*
G37*
G36*
X41974505Y-126001204D02*
G01*
X41998773Y-126004804D01*
X42022572Y-126010765D01*
X42045671Y-126019030D01*
X42067850Y-126029520D01*
X42088893Y-126042132D01*
X42108599Y-126056747D01*
X42126777Y-126073223D01*
X42143253Y-126091401D01*
X42157868Y-126111107D01*
X42170480Y-126132150D01*
X42180970Y-126154329D01*
X42189235Y-126177428D01*
X42195196Y-126201227D01*
X42198796Y-126225495D01*
X42200000Y-126249999D01*
X42200000Y-126900001D01*
X42198796Y-126924505D01*
X42195196Y-126948773D01*
X42189235Y-126972572D01*
X42180970Y-126995671D01*
X42170480Y-127017850D01*
X42157868Y-127038893D01*
X42143253Y-127058599D01*
X42126777Y-127076777D01*
X42108599Y-127093253D01*
X42088893Y-127107868D01*
X42067850Y-127120480D01*
X42045671Y-127130970D01*
X42022572Y-127139235D01*
X41998773Y-127145196D01*
X41974505Y-127148796D01*
X41950001Y-127150000D01*
X41049999Y-127150000D01*
X41025495Y-127148796D01*
X41001227Y-127145196D01*
X40977428Y-127139235D01*
X40954329Y-127130970D01*
X40932150Y-127120480D01*
X40911107Y-127107868D01*
X40891401Y-127093253D01*
X40873223Y-127076777D01*
X40856747Y-127058599D01*
X40842132Y-127038893D01*
X40829520Y-127017850D01*
X40819030Y-126995671D01*
X40810765Y-126972572D01*
X40804804Y-126948773D01*
X40801204Y-126924505D01*
X40800000Y-126900001D01*
X40800000Y-126249999D01*
X40801204Y-126225495D01*
X40804804Y-126201227D01*
X40810765Y-126177428D01*
X40819030Y-126154329D01*
X40829520Y-126132150D01*
X40842132Y-126111107D01*
X40856747Y-126091401D01*
X40873223Y-126073223D01*
X40891401Y-126056747D01*
X40911107Y-126042132D01*
X40932150Y-126029520D01*
X40954329Y-126019030D01*
X40977428Y-126010765D01*
X41001227Y-126004804D01*
X41025495Y-126001204D01*
X41049999Y-126000000D01*
X41950001Y-126000000D01*
X41974505Y-126001204D01*
G37*
G36*
X41974505Y-128051204D02*
G01*
X41998773Y-128054804D01*
X42022572Y-128060765D01*
X42045671Y-128069030D01*
X42067850Y-128079520D01*
X42088893Y-128092132D01*
X42108599Y-128106747D01*
X42126777Y-128123223D01*
X42143253Y-128141401D01*
X42157868Y-128161107D01*
X42170480Y-128182150D01*
X42180970Y-128204329D01*
X42189235Y-128227428D01*
X42195196Y-128251227D01*
X42198796Y-128275495D01*
X42200000Y-128299999D01*
X42200000Y-128950001D01*
X42198796Y-128974505D01*
X42195196Y-128998773D01*
X42189235Y-129022572D01*
X42180970Y-129045671D01*
X42170480Y-129067850D01*
X42157868Y-129088893D01*
X42143253Y-129108599D01*
X42126777Y-129126777D01*
X42108599Y-129143253D01*
X42088893Y-129157868D01*
X42067850Y-129170480D01*
X42045671Y-129180970D01*
X42022572Y-129189235D01*
X41998773Y-129195196D01*
X41974505Y-129198796D01*
X41950001Y-129200000D01*
X41049999Y-129200000D01*
X41025495Y-129198796D01*
X41001227Y-129195196D01*
X40977428Y-129189235D01*
X40954329Y-129180970D01*
X40932150Y-129170480D01*
X40911107Y-129157868D01*
X40891401Y-129143253D01*
X40873223Y-129126777D01*
X40856747Y-129108599D01*
X40842132Y-129088893D01*
X40829520Y-129067850D01*
X40819030Y-129045671D01*
X40810765Y-129022572D01*
X40804804Y-128998773D01*
X40801204Y-128974505D01*
X40800000Y-128950001D01*
X40800000Y-128299999D01*
X40801204Y-128275495D01*
X40804804Y-128251227D01*
X40810765Y-128227428D01*
X40819030Y-128204329D01*
X40829520Y-128182150D01*
X40842132Y-128161107D01*
X40856747Y-128141401D01*
X40873223Y-128123223D01*
X40891401Y-128106747D01*
X40911107Y-128092132D01*
X40932150Y-128079520D01*
X40954329Y-128069030D01*
X40977428Y-128060765D01*
X41001227Y-128054804D01*
X41025495Y-128051204D01*
X41049999Y-128050000D01*
X41950001Y-128050000D01*
X41974505Y-128051204D01*
G37*
M02*
