G04 #@! TF.GenerationSoftware,KiCad,Pcbnew,(5.1.5-0-10_14)*
G04 #@! TF.CreationDate,2020-08-26T20:56:13+02:00*
G04 #@! TF.ProjectId,HB-RC-4-Dis-TH,48422d52-432d-4342-9d44-69732d54482e,rev?*
G04 #@! TF.SameCoordinates,Original*
G04 #@! TF.FileFunction,Paste,Bot*
G04 #@! TF.FilePolarity,Positive*
%FSLAX46Y46*%
G04 Gerber Fmt 4.6, Leading zero omitted, Abs format (unit mm)*
G04 Created by KiCad (PCBNEW (5.1.5-0-10_14)) date 2020-08-26 20:56:13*
%MOMM*%
%LPD*%
G04 APERTURE LIST*
%ADD10C,0.100000*%
%ADD11R,2.500000X3.200000*%
%ADD12R,0.800000X0.900000*%
%ADD13R,3.400000X1.300000*%
%ADD14R,0.900000X1.200000*%
%ADD15R,1.500000X0.550000*%
%ADD16R,0.550000X1.500000*%
G04 APERTURE END LIST*
D10*
G36*
X54199505Y-98376204D02*
G01*
X54223773Y-98379804D01*
X54247572Y-98385765D01*
X54270671Y-98394030D01*
X54292850Y-98404520D01*
X54313893Y-98417132D01*
X54333599Y-98431747D01*
X54351777Y-98448223D01*
X54368253Y-98466401D01*
X54382868Y-98486107D01*
X54395480Y-98507150D01*
X54405970Y-98529329D01*
X54414235Y-98552428D01*
X54420196Y-98576227D01*
X54423796Y-98600495D01*
X54425000Y-98624999D01*
X54425000Y-99525001D01*
X54423796Y-99549505D01*
X54420196Y-99573773D01*
X54414235Y-99597572D01*
X54405970Y-99620671D01*
X54395480Y-99642850D01*
X54382868Y-99663893D01*
X54368253Y-99683599D01*
X54351777Y-99701777D01*
X54333599Y-99718253D01*
X54313893Y-99732868D01*
X54292850Y-99745480D01*
X54270671Y-99755970D01*
X54247572Y-99764235D01*
X54223773Y-99770196D01*
X54199505Y-99773796D01*
X54175001Y-99775000D01*
X53524999Y-99775000D01*
X53500495Y-99773796D01*
X53476227Y-99770196D01*
X53452428Y-99764235D01*
X53429329Y-99755970D01*
X53407150Y-99745480D01*
X53386107Y-99732868D01*
X53366401Y-99718253D01*
X53348223Y-99701777D01*
X53331747Y-99683599D01*
X53317132Y-99663893D01*
X53304520Y-99642850D01*
X53294030Y-99620671D01*
X53285765Y-99597572D01*
X53279804Y-99573773D01*
X53276204Y-99549505D01*
X53275000Y-99525001D01*
X53275000Y-98624999D01*
X53276204Y-98600495D01*
X53279804Y-98576227D01*
X53285765Y-98552428D01*
X53294030Y-98529329D01*
X53304520Y-98507150D01*
X53317132Y-98486107D01*
X53331747Y-98466401D01*
X53348223Y-98448223D01*
X53366401Y-98431747D01*
X53386107Y-98417132D01*
X53407150Y-98404520D01*
X53429329Y-98394030D01*
X53452428Y-98385765D01*
X53476227Y-98379804D01*
X53500495Y-98376204D01*
X53524999Y-98375000D01*
X54175001Y-98375000D01*
X54199505Y-98376204D01*
G37*
G36*
X52149505Y-98376204D02*
G01*
X52173773Y-98379804D01*
X52197572Y-98385765D01*
X52220671Y-98394030D01*
X52242850Y-98404520D01*
X52263893Y-98417132D01*
X52283599Y-98431747D01*
X52301777Y-98448223D01*
X52318253Y-98466401D01*
X52332868Y-98486107D01*
X52345480Y-98507150D01*
X52355970Y-98529329D01*
X52364235Y-98552428D01*
X52370196Y-98576227D01*
X52373796Y-98600495D01*
X52375000Y-98624999D01*
X52375000Y-99525001D01*
X52373796Y-99549505D01*
X52370196Y-99573773D01*
X52364235Y-99597572D01*
X52355970Y-99620671D01*
X52345480Y-99642850D01*
X52332868Y-99663893D01*
X52318253Y-99683599D01*
X52301777Y-99701777D01*
X52283599Y-99718253D01*
X52263893Y-99732868D01*
X52242850Y-99745480D01*
X52220671Y-99755970D01*
X52197572Y-99764235D01*
X52173773Y-99770196D01*
X52149505Y-99773796D01*
X52125001Y-99775000D01*
X51474999Y-99775000D01*
X51450495Y-99773796D01*
X51426227Y-99770196D01*
X51402428Y-99764235D01*
X51379329Y-99755970D01*
X51357150Y-99745480D01*
X51336107Y-99732868D01*
X51316401Y-99718253D01*
X51298223Y-99701777D01*
X51281747Y-99683599D01*
X51267132Y-99663893D01*
X51254520Y-99642850D01*
X51244030Y-99620671D01*
X51235765Y-99597572D01*
X51229804Y-99573773D01*
X51226204Y-99549505D01*
X51225000Y-99525001D01*
X51225000Y-98624999D01*
X51226204Y-98600495D01*
X51229804Y-98576227D01*
X51235765Y-98552428D01*
X51244030Y-98529329D01*
X51254520Y-98507150D01*
X51267132Y-98486107D01*
X51281747Y-98466401D01*
X51298223Y-98448223D01*
X51316401Y-98431747D01*
X51336107Y-98417132D01*
X51357150Y-98404520D01*
X51379329Y-98394030D01*
X51402428Y-98385765D01*
X51426227Y-98379804D01*
X51450495Y-98376204D01*
X51474999Y-98375000D01*
X52125001Y-98375000D01*
X52149505Y-98376204D01*
G37*
G36*
X60749505Y-90926204D02*
G01*
X60773773Y-90929804D01*
X60797572Y-90935765D01*
X60820671Y-90944030D01*
X60842850Y-90954520D01*
X60863893Y-90967132D01*
X60883599Y-90981747D01*
X60901777Y-90998223D01*
X60918253Y-91016401D01*
X60932868Y-91036107D01*
X60945480Y-91057150D01*
X60955970Y-91079329D01*
X60964235Y-91102428D01*
X60970196Y-91126227D01*
X60973796Y-91150495D01*
X60975000Y-91174999D01*
X60975000Y-91825001D01*
X60973796Y-91849505D01*
X60970196Y-91873773D01*
X60964235Y-91897572D01*
X60955970Y-91920671D01*
X60945480Y-91942850D01*
X60932868Y-91963893D01*
X60918253Y-91983599D01*
X60901777Y-92001777D01*
X60883599Y-92018253D01*
X60863893Y-92032868D01*
X60842850Y-92045480D01*
X60820671Y-92055970D01*
X60797572Y-92064235D01*
X60773773Y-92070196D01*
X60749505Y-92073796D01*
X60725001Y-92075000D01*
X59824999Y-92075000D01*
X59800495Y-92073796D01*
X59776227Y-92070196D01*
X59752428Y-92064235D01*
X59729329Y-92055970D01*
X59707150Y-92045480D01*
X59686107Y-92032868D01*
X59666401Y-92018253D01*
X59648223Y-92001777D01*
X59631747Y-91983599D01*
X59617132Y-91963893D01*
X59604520Y-91942850D01*
X59594030Y-91920671D01*
X59585765Y-91897572D01*
X59579804Y-91873773D01*
X59576204Y-91849505D01*
X59575000Y-91825001D01*
X59575000Y-91174999D01*
X59576204Y-91150495D01*
X59579804Y-91126227D01*
X59585765Y-91102428D01*
X59594030Y-91079329D01*
X59604520Y-91057150D01*
X59617132Y-91036107D01*
X59631747Y-91016401D01*
X59648223Y-90998223D01*
X59666401Y-90981747D01*
X59686107Y-90967132D01*
X59707150Y-90954520D01*
X59729329Y-90944030D01*
X59752428Y-90935765D01*
X59776227Y-90929804D01*
X59800495Y-90926204D01*
X59824999Y-90925000D01*
X60725001Y-90925000D01*
X60749505Y-90926204D01*
G37*
G36*
X60749505Y-88876204D02*
G01*
X60773773Y-88879804D01*
X60797572Y-88885765D01*
X60820671Y-88894030D01*
X60842850Y-88904520D01*
X60863893Y-88917132D01*
X60883599Y-88931747D01*
X60901777Y-88948223D01*
X60918253Y-88966401D01*
X60932868Y-88986107D01*
X60945480Y-89007150D01*
X60955970Y-89029329D01*
X60964235Y-89052428D01*
X60970196Y-89076227D01*
X60973796Y-89100495D01*
X60975000Y-89124999D01*
X60975000Y-89775001D01*
X60973796Y-89799505D01*
X60970196Y-89823773D01*
X60964235Y-89847572D01*
X60955970Y-89870671D01*
X60945480Y-89892850D01*
X60932868Y-89913893D01*
X60918253Y-89933599D01*
X60901777Y-89951777D01*
X60883599Y-89968253D01*
X60863893Y-89982868D01*
X60842850Y-89995480D01*
X60820671Y-90005970D01*
X60797572Y-90014235D01*
X60773773Y-90020196D01*
X60749505Y-90023796D01*
X60725001Y-90025000D01*
X59824999Y-90025000D01*
X59800495Y-90023796D01*
X59776227Y-90020196D01*
X59752428Y-90014235D01*
X59729329Y-90005970D01*
X59707150Y-89995480D01*
X59686107Y-89982868D01*
X59666401Y-89968253D01*
X59648223Y-89951777D01*
X59631747Y-89933599D01*
X59617132Y-89913893D01*
X59604520Y-89892850D01*
X59594030Y-89870671D01*
X59585765Y-89847572D01*
X59579804Y-89823773D01*
X59576204Y-89799505D01*
X59575000Y-89775001D01*
X59575000Y-89124999D01*
X59576204Y-89100495D01*
X59579804Y-89076227D01*
X59585765Y-89052428D01*
X59594030Y-89029329D01*
X59604520Y-89007150D01*
X59617132Y-88986107D01*
X59631747Y-88966401D01*
X59648223Y-88948223D01*
X59666401Y-88931747D01*
X59686107Y-88917132D01*
X59707150Y-88904520D01*
X59729329Y-88894030D01*
X59752428Y-88885765D01*
X59776227Y-88879804D01*
X59800495Y-88876204D01*
X59824999Y-88875000D01*
X60725001Y-88875000D01*
X60749505Y-88876204D01*
G37*
G36*
X51499505Y-81851204D02*
G01*
X51523773Y-81854804D01*
X51547572Y-81860765D01*
X51570671Y-81869030D01*
X51592850Y-81879520D01*
X51613893Y-81892132D01*
X51633599Y-81906747D01*
X51651777Y-81923223D01*
X51668253Y-81941401D01*
X51682868Y-81961107D01*
X51695480Y-81982150D01*
X51705970Y-82004329D01*
X51714235Y-82027428D01*
X51720196Y-82051227D01*
X51723796Y-82075495D01*
X51725000Y-82099999D01*
X51725000Y-83000001D01*
X51723796Y-83024505D01*
X51720196Y-83048773D01*
X51714235Y-83072572D01*
X51705970Y-83095671D01*
X51695480Y-83117850D01*
X51682868Y-83138893D01*
X51668253Y-83158599D01*
X51651777Y-83176777D01*
X51633599Y-83193253D01*
X51613893Y-83207868D01*
X51592850Y-83220480D01*
X51570671Y-83230970D01*
X51547572Y-83239235D01*
X51523773Y-83245196D01*
X51499505Y-83248796D01*
X51475001Y-83250000D01*
X50824999Y-83250000D01*
X50800495Y-83248796D01*
X50776227Y-83245196D01*
X50752428Y-83239235D01*
X50729329Y-83230970D01*
X50707150Y-83220480D01*
X50686107Y-83207868D01*
X50666401Y-83193253D01*
X50648223Y-83176777D01*
X50631747Y-83158599D01*
X50617132Y-83138893D01*
X50604520Y-83117850D01*
X50594030Y-83095671D01*
X50585765Y-83072572D01*
X50579804Y-83048773D01*
X50576204Y-83024505D01*
X50575000Y-83000001D01*
X50575000Y-82099999D01*
X50576204Y-82075495D01*
X50579804Y-82051227D01*
X50585765Y-82027428D01*
X50594030Y-82004329D01*
X50604520Y-81982150D01*
X50617132Y-81961107D01*
X50631747Y-81941401D01*
X50648223Y-81923223D01*
X50666401Y-81906747D01*
X50686107Y-81892132D01*
X50707150Y-81879520D01*
X50729329Y-81869030D01*
X50752428Y-81860765D01*
X50776227Y-81854804D01*
X50800495Y-81851204D01*
X50824999Y-81850000D01*
X51475001Y-81850000D01*
X51499505Y-81851204D01*
G37*
G36*
X53549505Y-81851204D02*
G01*
X53573773Y-81854804D01*
X53597572Y-81860765D01*
X53620671Y-81869030D01*
X53642850Y-81879520D01*
X53663893Y-81892132D01*
X53683599Y-81906747D01*
X53701777Y-81923223D01*
X53718253Y-81941401D01*
X53732868Y-81961107D01*
X53745480Y-81982150D01*
X53755970Y-82004329D01*
X53764235Y-82027428D01*
X53770196Y-82051227D01*
X53773796Y-82075495D01*
X53775000Y-82099999D01*
X53775000Y-83000001D01*
X53773796Y-83024505D01*
X53770196Y-83048773D01*
X53764235Y-83072572D01*
X53755970Y-83095671D01*
X53745480Y-83117850D01*
X53732868Y-83138893D01*
X53718253Y-83158599D01*
X53701777Y-83176777D01*
X53683599Y-83193253D01*
X53663893Y-83207868D01*
X53642850Y-83220480D01*
X53620671Y-83230970D01*
X53597572Y-83239235D01*
X53573773Y-83245196D01*
X53549505Y-83248796D01*
X53525001Y-83250000D01*
X52874999Y-83250000D01*
X52850495Y-83248796D01*
X52826227Y-83245196D01*
X52802428Y-83239235D01*
X52779329Y-83230970D01*
X52757150Y-83220480D01*
X52736107Y-83207868D01*
X52716401Y-83193253D01*
X52698223Y-83176777D01*
X52681747Y-83158599D01*
X52667132Y-83138893D01*
X52654520Y-83117850D01*
X52644030Y-83095671D01*
X52635765Y-83072572D01*
X52629804Y-83048773D01*
X52626204Y-83024505D01*
X52625000Y-83000001D01*
X52625000Y-82099999D01*
X52626204Y-82075495D01*
X52629804Y-82051227D01*
X52635765Y-82027428D01*
X52644030Y-82004329D01*
X52654520Y-81982150D01*
X52667132Y-81961107D01*
X52681747Y-81941401D01*
X52698223Y-81923223D01*
X52716401Y-81906747D01*
X52736107Y-81892132D01*
X52757150Y-81879520D01*
X52779329Y-81869030D01*
X52802428Y-81860765D01*
X52826227Y-81854804D01*
X52850495Y-81851204D01*
X52874999Y-81850000D01*
X53525001Y-81850000D01*
X53549505Y-81851204D01*
G37*
D11*
X59225000Y-124650000D03*
X59225000Y-128950000D03*
D10*
G36*
X43799505Y-89201204D02*
G01*
X43823773Y-89204804D01*
X43847572Y-89210765D01*
X43870671Y-89219030D01*
X43892850Y-89229520D01*
X43913893Y-89242132D01*
X43933599Y-89256747D01*
X43951777Y-89273223D01*
X43968253Y-89291401D01*
X43982868Y-89311107D01*
X43995480Y-89332150D01*
X44005970Y-89354329D01*
X44014235Y-89377428D01*
X44020196Y-89401227D01*
X44023796Y-89425495D01*
X44025000Y-89449999D01*
X44025000Y-90100001D01*
X44023796Y-90124505D01*
X44020196Y-90148773D01*
X44014235Y-90172572D01*
X44005970Y-90195671D01*
X43995480Y-90217850D01*
X43982868Y-90238893D01*
X43968253Y-90258599D01*
X43951777Y-90276777D01*
X43933599Y-90293253D01*
X43913893Y-90307868D01*
X43892850Y-90320480D01*
X43870671Y-90330970D01*
X43847572Y-90339235D01*
X43823773Y-90345196D01*
X43799505Y-90348796D01*
X43775001Y-90350000D01*
X42874999Y-90350000D01*
X42850495Y-90348796D01*
X42826227Y-90345196D01*
X42802428Y-90339235D01*
X42779329Y-90330970D01*
X42757150Y-90320480D01*
X42736107Y-90307868D01*
X42716401Y-90293253D01*
X42698223Y-90276777D01*
X42681747Y-90258599D01*
X42667132Y-90238893D01*
X42654520Y-90217850D01*
X42644030Y-90195671D01*
X42635765Y-90172572D01*
X42629804Y-90148773D01*
X42626204Y-90124505D01*
X42625000Y-90100001D01*
X42625000Y-89449999D01*
X42626204Y-89425495D01*
X42629804Y-89401227D01*
X42635765Y-89377428D01*
X42644030Y-89354329D01*
X42654520Y-89332150D01*
X42667132Y-89311107D01*
X42681747Y-89291401D01*
X42698223Y-89273223D01*
X42716401Y-89256747D01*
X42736107Y-89242132D01*
X42757150Y-89229520D01*
X42779329Y-89219030D01*
X42802428Y-89210765D01*
X42826227Y-89204804D01*
X42850495Y-89201204D01*
X42874999Y-89200000D01*
X43775001Y-89200000D01*
X43799505Y-89201204D01*
G37*
G36*
X43799505Y-91251204D02*
G01*
X43823773Y-91254804D01*
X43847572Y-91260765D01*
X43870671Y-91269030D01*
X43892850Y-91279520D01*
X43913893Y-91292132D01*
X43933599Y-91306747D01*
X43951777Y-91323223D01*
X43968253Y-91341401D01*
X43982868Y-91361107D01*
X43995480Y-91382150D01*
X44005970Y-91404329D01*
X44014235Y-91427428D01*
X44020196Y-91451227D01*
X44023796Y-91475495D01*
X44025000Y-91499999D01*
X44025000Y-92150001D01*
X44023796Y-92174505D01*
X44020196Y-92198773D01*
X44014235Y-92222572D01*
X44005970Y-92245671D01*
X43995480Y-92267850D01*
X43982868Y-92288893D01*
X43968253Y-92308599D01*
X43951777Y-92326777D01*
X43933599Y-92343253D01*
X43913893Y-92357868D01*
X43892850Y-92370480D01*
X43870671Y-92380970D01*
X43847572Y-92389235D01*
X43823773Y-92395196D01*
X43799505Y-92398796D01*
X43775001Y-92400000D01*
X42874999Y-92400000D01*
X42850495Y-92398796D01*
X42826227Y-92395196D01*
X42802428Y-92389235D01*
X42779329Y-92380970D01*
X42757150Y-92370480D01*
X42736107Y-92357868D01*
X42716401Y-92343253D01*
X42698223Y-92326777D01*
X42681747Y-92308599D01*
X42667132Y-92288893D01*
X42654520Y-92267850D01*
X42644030Y-92245671D01*
X42635765Y-92222572D01*
X42629804Y-92198773D01*
X42626204Y-92174505D01*
X42625000Y-92150001D01*
X42625000Y-91499999D01*
X42626204Y-91475495D01*
X42629804Y-91451227D01*
X42635765Y-91427428D01*
X42644030Y-91404329D01*
X42654520Y-91382150D01*
X42667132Y-91361107D01*
X42681747Y-91341401D01*
X42698223Y-91323223D01*
X42716401Y-91306747D01*
X42736107Y-91292132D01*
X42757150Y-91279520D01*
X42779329Y-91269030D01*
X42802428Y-91260765D01*
X42826227Y-91254804D01*
X42850495Y-91251204D01*
X42874999Y-91250000D01*
X43775001Y-91250000D01*
X43799505Y-91251204D01*
G37*
G36*
X58024505Y-117901204D02*
G01*
X58048773Y-117904804D01*
X58072572Y-117910765D01*
X58095671Y-117919030D01*
X58117850Y-117929520D01*
X58138893Y-117942132D01*
X58158599Y-117956747D01*
X58176777Y-117973223D01*
X58193253Y-117991401D01*
X58207868Y-118011107D01*
X58220480Y-118032150D01*
X58230970Y-118054329D01*
X58239235Y-118077428D01*
X58245196Y-118101227D01*
X58248796Y-118125495D01*
X58250000Y-118149999D01*
X58250000Y-119050001D01*
X58248796Y-119074505D01*
X58245196Y-119098773D01*
X58239235Y-119122572D01*
X58230970Y-119145671D01*
X58220480Y-119167850D01*
X58207868Y-119188893D01*
X58193253Y-119208599D01*
X58176777Y-119226777D01*
X58158599Y-119243253D01*
X58138893Y-119257868D01*
X58117850Y-119270480D01*
X58095671Y-119280970D01*
X58072572Y-119289235D01*
X58048773Y-119295196D01*
X58024505Y-119298796D01*
X58000001Y-119300000D01*
X57349999Y-119300000D01*
X57325495Y-119298796D01*
X57301227Y-119295196D01*
X57277428Y-119289235D01*
X57254329Y-119280970D01*
X57232150Y-119270480D01*
X57211107Y-119257868D01*
X57191401Y-119243253D01*
X57173223Y-119226777D01*
X57156747Y-119208599D01*
X57142132Y-119188893D01*
X57129520Y-119167850D01*
X57119030Y-119145671D01*
X57110765Y-119122572D01*
X57104804Y-119098773D01*
X57101204Y-119074505D01*
X57100000Y-119050001D01*
X57100000Y-118149999D01*
X57101204Y-118125495D01*
X57104804Y-118101227D01*
X57110765Y-118077428D01*
X57119030Y-118054329D01*
X57129520Y-118032150D01*
X57142132Y-118011107D01*
X57156747Y-117991401D01*
X57173223Y-117973223D01*
X57191401Y-117956747D01*
X57211107Y-117942132D01*
X57232150Y-117929520D01*
X57254329Y-117919030D01*
X57277428Y-117910765D01*
X57301227Y-117904804D01*
X57325495Y-117901204D01*
X57349999Y-117900000D01*
X58000001Y-117900000D01*
X58024505Y-117901204D01*
G37*
G36*
X60074505Y-117901204D02*
G01*
X60098773Y-117904804D01*
X60122572Y-117910765D01*
X60145671Y-117919030D01*
X60167850Y-117929520D01*
X60188893Y-117942132D01*
X60208599Y-117956747D01*
X60226777Y-117973223D01*
X60243253Y-117991401D01*
X60257868Y-118011107D01*
X60270480Y-118032150D01*
X60280970Y-118054329D01*
X60289235Y-118077428D01*
X60295196Y-118101227D01*
X60298796Y-118125495D01*
X60300000Y-118149999D01*
X60300000Y-119050001D01*
X60298796Y-119074505D01*
X60295196Y-119098773D01*
X60289235Y-119122572D01*
X60280970Y-119145671D01*
X60270480Y-119167850D01*
X60257868Y-119188893D01*
X60243253Y-119208599D01*
X60226777Y-119226777D01*
X60208599Y-119243253D01*
X60188893Y-119257868D01*
X60167850Y-119270480D01*
X60145671Y-119280970D01*
X60122572Y-119289235D01*
X60098773Y-119295196D01*
X60074505Y-119298796D01*
X60050001Y-119300000D01*
X59399999Y-119300000D01*
X59375495Y-119298796D01*
X59351227Y-119295196D01*
X59327428Y-119289235D01*
X59304329Y-119280970D01*
X59282150Y-119270480D01*
X59261107Y-119257868D01*
X59241401Y-119243253D01*
X59223223Y-119226777D01*
X59206747Y-119208599D01*
X59192132Y-119188893D01*
X59179520Y-119167850D01*
X59169030Y-119145671D01*
X59160765Y-119122572D01*
X59154804Y-119098773D01*
X59151204Y-119074505D01*
X59150000Y-119050001D01*
X59150000Y-118149999D01*
X59151204Y-118125495D01*
X59154804Y-118101227D01*
X59160765Y-118077428D01*
X59169030Y-118054329D01*
X59179520Y-118032150D01*
X59192132Y-118011107D01*
X59206747Y-117991401D01*
X59223223Y-117973223D01*
X59241401Y-117956747D01*
X59261107Y-117942132D01*
X59282150Y-117929520D01*
X59304329Y-117919030D01*
X59327428Y-117910765D01*
X59351227Y-117904804D01*
X59375495Y-117901204D01*
X59399999Y-117900000D01*
X60050001Y-117900000D01*
X60074505Y-117901204D01*
G37*
G36*
X46774505Y-112401204D02*
G01*
X46798773Y-112404804D01*
X46822572Y-112410765D01*
X46845671Y-112419030D01*
X46867850Y-112429520D01*
X46888893Y-112442132D01*
X46908599Y-112456747D01*
X46926777Y-112473223D01*
X46943253Y-112491401D01*
X46957868Y-112511107D01*
X46970480Y-112532150D01*
X46980970Y-112554329D01*
X46989235Y-112577428D01*
X46995196Y-112601227D01*
X46998796Y-112625495D01*
X47000000Y-112649999D01*
X47000000Y-113550001D01*
X46998796Y-113574505D01*
X46995196Y-113598773D01*
X46989235Y-113622572D01*
X46980970Y-113645671D01*
X46970480Y-113667850D01*
X46957868Y-113688893D01*
X46943253Y-113708599D01*
X46926777Y-113726777D01*
X46908599Y-113743253D01*
X46888893Y-113757868D01*
X46867850Y-113770480D01*
X46845671Y-113780970D01*
X46822572Y-113789235D01*
X46798773Y-113795196D01*
X46774505Y-113798796D01*
X46750001Y-113800000D01*
X46099999Y-113800000D01*
X46075495Y-113798796D01*
X46051227Y-113795196D01*
X46027428Y-113789235D01*
X46004329Y-113780970D01*
X45982150Y-113770480D01*
X45961107Y-113757868D01*
X45941401Y-113743253D01*
X45923223Y-113726777D01*
X45906747Y-113708599D01*
X45892132Y-113688893D01*
X45879520Y-113667850D01*
X45869030Y-113645671D01*
X45860765Y-113622572D01*
X45854804Y-113598773D01*
X45851204Y-113574505D01*
X45850000Y-113550001D01*
X45850000Y-112649999D01*
X45851204Y-112625495D01*
X45854804Y-112601227D01*
X45860765Y-112577428D01*
X45869030Y-112554329D01*
X45879520Y-112532150D01*
X45892132Y-112511107D01*
X45906747Y-112491401D01*
X45923223Y-112473223D01*
X45941401Y-112456747D01*
X45961107Y-112442132D01*
X45982150Y-112429520D01*
X46004329Y-112419030D01*
X46027428Y-112410765D01*
X46051227Y-112404804D01*
X46075495Y-112401204D01*
X46099999Y-112400000D01*
X46750001Y-112400000D01*
X46774505Y-112401204D01*
G37*
G36*
X44724505Y-112401204D02*
G01*
X44748773Y-112404804D01*
X44772572Y-112410765D01*
X44795671Y-112419030D01*
X44817850Y-112429520D01*
X44838893Y-112442132D01*
X44858599Y-112456747D01*
X44876777Y-112473223D01*
X44893253Y-112491401D01*
X44907868Y-112511107D01*
X44920480Y-112532150D01*
X44930970Y-112554329D01*
X44939235Y-112577428D01*
X44945196Y-112601227D01*
X44948796Y-112625495D01*
X44950000Y-112649999D01*
X44950000Y-113550001D01*
X44948796Y-113574505D01*
X44945196Y-113598773D01*
X44939235Y-113622572D01*
X44930970Y-113645671D01*
X44920480Y-113667850D01*
X44907868Y-113688893D01*
X44893253Y-113708599D01*
X44876777Y-113726777D01*
X44858599Y-113743253D01*
X44838893Y-113757868D01*
X44817850Y-113770480D01*
X44795671Y-113780970D01*
X44772572Y-113789235D01*
X44748773Y-113795196D01*
X44724505Y-113798796D01*
X44700001Y-113800000D01*
X44049999Y-113800000D01*
X44025495Y-113798796D01*
X44001227Y-113795196D01*
X43977428Y-113789235D01*
X43954329Y-113780970D01*
X43932150Y-113770480D01*
X43911107Y-113757868D01*
X43891401Y-113743253D01*
X43873223Y-113726777D01*
X43856747Y-113708599D01*
X43842132Y-113688893D01*
X43829520Y-113667850D01*
X43819030Y-113645671D01*
X43810765Y-113622572D01*
X43804804Y-113598773D01*
X43801204Y-113574505D01*
X43800000Y-113550001D01*
X43800000Y-112649999D01*
X43801204Y-112625495D01*
X43804804Y-112601227D01*
X43810765Y-112577428D01*
X43819030Y-112554329D01*
X43829520Y-112532150D01*
X43842132Y-112511107D01*
X43856747Y-112491401D01*
X43873223Y-112473223D01*
X43891401Y-112456747D01*
X43911107Y-112442132D01*
X43932150Y-112429520D01*
X43954329Y-112419030D01*
X43977428Y-112410765D01*
X44001227Y-112404804D01*
X44025495Y-112401204D01*
X44049999Y-112400000D01*
X44700001Y-112400000D01*
X44724505Y-112401204D01*
G37*
D12*
X65290000Y-108680000D03*
X66240000Y-106680000D03*
X64340000Y-106680000D03*
D13*
X65300000Y-112570000D03*
X65300000Y-110470000D03*
D14*
X58750000Y-112950000D03*
X55450000Y-112950000D03*
X55450000Y-110450000D03*
X58750000Y-110450000D03*
X55450000Y-107950000D03*
X58750000Y-107950000D03*
D10*
G36*
X44724505Y-116801204D02*
G01*
X44748773Y-116804804D01*
X44772572Y-116810765D01*
X44795671Y-116819030D01*
X44817850Y-116829520D01*
X44838893Y-116842132D01*
X44858599Y-116856747D01*
X44876777Y-116873223D01*
X44893253Y-116891401D01*
X44907868Y-116911107D01*
X44920480Y-116932150D01*
X44930970Y-116954329D01*
X44939235Y-116977428D01*
X44945196Y-117001227D01*
X44948796Y-117025495D01*
X44950000Y-117049999D01*
X44950000Y-117950001D01*
X44948796Y-117974505D01*
X44945196Y-117998773D01*
X44939235Y-118022572D01*
X44930970Y-118045671D01*
X44920480Y-118067850D01*
X44907868Y-118088893D01*
X44893253Y-118108599D01*
X44876777Y-118126777D01*
X44858599Y-118143253D01*
X44838893Y-118157868D01*
X44817850Y-118170480D01*
X44795671Y-118180970D01*
X44772572Y-118189235D01*
X44748773Y-118195196D01*
X44724505Y-118198796D01*
X44700001Y-118200000D01*
X44049999Y-118200000D01*
X44025495Y-118198796D01*
X44001227Y-118195196D01*
X43977428Y-118189235D01*
X43954329Y-118180970D01*
X43932150Y-118170480D01*
X43911107Y-118157868D01*
X43891401Y-118143253D01*
X43873223Y-118126777D01*
X43856747Y-118108599D01*
X43842132Y-118088893D01*
X43829520Y-118067850D01*
X43819030Y-118045671D01*
X43810765Y-118022572D01*
X43804804Y-117998773D01*
X43801204Y-117974505D01*
X43800000Y-117950001D01*
X43800000Y-117049999D01*
X43801204Y-117025495D01*
X43804804Y-117001227D01*
X43810765Y-116977428D01*
X43819030Y-116954329D01*
X43829520Y-116932150D01*
X43842132Y-116911107D01*
X43856747Y-116891401D01*
X43873223Y-116873223D01*
X43891401Y-116856747D01*
X43911107Y-116842132D01*
X43932150Y-116829520D01*
X43954329Y-116819030D01*
X43977428Y-116810765D01*
X44001227Y-116804804D01*
X44025495Y-116801204D01*
X44049999Y-116800000D01*
X44700001Y-116800000D01*
X44724505Y-116801204D01*
G37*
G36*
X46774505Y-116801204D02*
G01*
X46798773Y-116804804D01*
X46822572Y-116810765D01*
X46845671Y-116819030D01*
X46867850Y-116829520D01*
X46888893Y-116842132D01*
X46908599Y-116856747D01*
X46926777Y-116873223D01*
X46943253Y-116891401D01*
X46957868Y-116911107D01*
X46970480Y-116932150D01*
X46980970Y-116954329D01*
X46989235Y-116977428D01*
X46995196Y-117001227D01*
X46998796Y-117025495D01*
X47000000Y-117049999D01*
X47000000Y-117950001D01*
X46998796Y-117974505D01*
X46995196Y-117998773D01*
X46989235Y-118022572D01*
X46980970Y-118045671D01*
X46970480Y-118067850D01*
X46957868Y-118088893D01*
X46943253Y-118108599D01*
X46926777Y-118126777D01*
X46908599Y-118143253D01*
X46888893Y-118157868D01*
X46867850Y-118170480D01*
X46845671Y-118180970D01*
X46822572Y-118189235D01*
X46798773Y-118195196D01*
X46774505Y-118198796D01*
X46750001Y-118200000D01*
X46099999Y-118200000D01*
X46075495Y-118198796D01*
X46051227Y-118195196D01*
X46027428Y-118189235D01*
X46004329Y-118180970D01*
X45982150Y-118170480D01*
X45961107Y-118157868D01*
X45941401Y-118143253D01*
X45923223Y-118126777D01*
X45906747Y-118108599D01*
X45892132Y-118088893D01*
X45879520Y-118067850D01*
X45869030Y-118045671D01*
X45860765Y-118022572D01*
X45854804Y-117998773D01*
X45851204Y-117974505D01*
X45850000Y-117950001D01*
X45850000Y-117049999D01*
X45851204Y-117025495D01*
X45854804Y-117001227D01*
X45860765Y-116977428D01*
X45869030Y-116954329D01*
X45879520Y-116932150D01*
X45892132Y-116911107D01*
X45906747Y-116891401D01*
X45923223Y-116873223D01*
X45941401Y-116856747D01*
X45961107Y-116842132D01*
X45982150Y-116829520D01*
X46004329Y-116819030D01*
X46027428Y-116810765D01*
X46051227Y-116804804D01*
X46075495Y-116801204D01*
X46099999Y-116800000D01*
X46750001Y-116800000D01*
X46774505Y-116801204D01*
G37*
G36*
X62274505Y-101526204D02*
G01*
X62298773Y-101529804D01*
X62322572Y-101535765D01*
X62345671Y-101544030D01*
X62367850Y-101554520D01*
X62388893Y-101567132D01*
X62408599Y-101581747D01*
X62426777Y-101598223D01*
X62443253Y-101616401D01*
X62457868Y-101636107D01*
X62470480Y-101657150D01*
X62480970Y-101679329D01*
X62489235Y-101702428D01*
X62495196Y-101726227D01*
X62498796Y-101750495D01*
X62500000Y-101774999D01*
X62500000Y-102675001D01*
X62498796Y-102699505D01*
X62495196Y-102723773D01*
X62489235Y-102747572D01*
X62480970Y-102770671D01*
X62470480Y-102792850D01*
X62457868Y-102813893D01*
X62443253Y-102833599D01*
X62426777Y-102851777D01*
X62408599Y-102868253D01*
X62388893Y-102882868D01*
X62367850Y-102895480D01*
X62345671Y-102905970D01*
X62322572Y-102914235D01*
X62298773Y-102920196D01*
X62274505Y-102923796D01*
X62250001Y-102925000D01*
X61599999Y-102925000D01*
X61575495Y-102923796D01*
X61551227Y-102920196D01*
X61527428Y-102914235D01*
X61504329Y-102905970D01*
X61482150Y-102895480D01*
X61461107Y-102882868D01*
X61441401Y-102868253D01*
X61423223Y-102851777D01*
X61406747Y-102833599D01*
X61392132Y-102813893D01*
X61379520Y-102792850D01*
X61369030Y-102770671D01*
X61360765Y-102747572D01*
X61354804Y-102723773D01*
X61351204Y-102699505D01*
X61350000Y-102675001D01*
X61350000Y-101774999D01*
X61351204Y-101750495D01*
X61354804Y-101726227D01*
X61360765Y-101702428D01*
X61369030Y-101679329D01*
X61379520Y-101657150D01*
X61392132Y-101636107D01*
X61406747Y-101616401D01*
X61423223Y-101598223D01*
X61441401Y-101581747D01*
X61461107Y-101567132D01*
X61482150Y-101554520D01*
X61504329Y-101544030D01*
X61527428Y-101535765D01*
X61551227Y-101529804D01*
X61575495Y-101526204D01*
X61599999Y-101525000D01*
X62250001Y-101525000D01*
X62274505Y-101526204D01*
G37*
G36*
X60224505Y-101526204D02*
G01*
X60248773Y-101529804D01*
X60272572Y-101535765D01*
X60295671Y-101544030D01*
X60317850Y-101554520D01*
X60338893Y-101567132D01*
X60358599Y-101581747D01*
X60376777Y-101598223D01*
X60393253Y-101616401D01*
X60407868Y-101636107D01*
X60420480Y-101657150D01*
X60430970Y-101679329D01*
X60439235Y-101702428D01*
X60445196Y-101726227D01*
X60448796Y-101750495D01*
X60450000Y-101774999D01*
X60450000Y-102675001D01*
X60448796Y-102699505D01*
X60445196Y-102723773D01*
X60439235Y-102747572D01*
X60430970Y-102770671D01*
X60420480Y-102792850D01*
X60407868Y-102813893D01*
X60393253Y-102833599D01*
X60376777Y-102851777D01*
X60358599Y-102868253D01*
X60338893Y-102882868D01*
X60317850Y-102895480D01*
X60295671Y-102905970D01*
X60272572Y-102914235D01*
X60248773Y-102920196D01*
X60224505Y-102923796D01*
X60200001Y-102925000D01*
X59549999Y-102925000D01*
X59525495Y-102923796D01*
X59501227Y-102920196D01*
X59477428Y-102914235D01*
X59454329Y-102905970D01*
X59432150Y-102895480D01*
X59411107Y-102882868D01*
X59391401Y-102868253D01*
X59373223Y-102851777D01*
X59356747Y-102833599D01*
X59342132Y-102813893D01*
X59329520Y-102792850D01*
X59319030Y-102770671D01*
X59310765Y-102747572D01*
X59304804Y-102723773D01*
X59301204Y-102699505D01*
X59300000Y-102675001D01*
X59300000Y-101774999D01*
X59301204Y-101750495D01*
X59304804Y-101726227D01*
X59310765Y-101702428D01*
X59319030Y-101679329D01*
X59329520Y-101657150D01*
X59342132Y-101636107D01*
X59356747Y-101616401D01*
X59373223Y-101598223D01*
X59391401Y-101581747D01*
X59411107Y-101567132D01*
X59432150Y-101554520D01*
X59454329Y-101544030D01*
X59477428Y-101535765D01*
X59501227Y-101529804D01*
X59525495Y-101526204D01*
X59549999Y-101525000D01*
X60200001Y-101525000D01*
X60224505Y-101526204D01*
G37*
G36*
X53424505Y-105301204D02*
G01*
X53448773Y-105304804D01*
X53472572Y-105310765D01*
X53495671Y-105319030D01*
X53517850Y-105329520D01*
X53538893Y-105342132D01*
X53558599Y-105356747D01*
X53576777Y-105373223D01*
X53593253Y-105391401D01*
X53607868Y-105411107D01*
X53620480Y-105432150D01*
X53630970Y-105454329D01*
X53639235Y-105477428D01*
X53645196Y-105501227D01*
X53648796Y-105525495D01*
X53650000Y-105549999D01*
X53650000Y-106450001D01*
X53648796Y-106474505D01*
X53645196Y-106498773D01*
X53639235Y-106522572D01*
X53630970Y-106545671D01*
X53620480Y-106567850D01*
X53607868Y-106588893D01*
X53593253Y-106608599D01*
X53576777Y-106626777D01*
X53558599Y-106643253D01*
X53538893Y-106657868D01*
X53517850Y-106670480D01*
X53495671Y-106680970D01*
X53472572Y-106689235D01*
X53448773Y-106695196D01*
X53424505Y-106698796D01*
X53400001Y-106700000D01*
X52749999Y-106700000D01*
X52725495Y-106698796D01*
X52701227Y-106695196D01*
X52677428Y-106689235D01*
X52654329Y-106680970D01*
X52632150Y-106670480D01*
X52611107Y-106657868D01*
X52591401Y-106643253D01*
X52573223Y-106626777D01*
X52556747Y-106608599D01*
X52542132Y-106588893D01*
X52529520Y-106567850D01*
X52519030Y-106545671D01*
X52510765Y-106522572D01*
X52504804Y-106498773D01*
X52501204Y-106474505D01*
X52500000Y-106450001D01*
X52500000Y-105549999D01*
X52501204Y-105525495D01*
X52504804Y-105501227D01*
X52510765Y-105477428D01*
X52519030Y-105454329D01*
X52529520Y-105432150D01*
X52542132Y-105411107D01*
X52556747Y-105391401D01*
X52573223Y-105373223D01*
X52591401Y-105356747D01*
X52611107Y-105342132D01*
X52632150Y-105329520D01*
X52654329Y-105319030D01*
X52677428Y-105310765D01*
X52701227Y-105304804D01*
X52725495Y-105301204D01*
X52749999Y-105300000D01*
X53400001Y-105300000D01*
X53424505Y-105301204D01*
G37*
G36*
X51374505Y-105301204D02*
G01*
X51398773Y-105304804D01*
X51422572Y-105310765D01*
X51445671Y-105319030D01*
X51467850Y-105329520D01*
X51488893Y-105342132D01*
X51508599Y-105356747D01*
X51526777Y-105373223D01*
X51543253Y-105391401D01*
X51557868Y-105411107D01*
X51570480Y-105432150D01*
X51580970Y-105454329D01*
X51589235Y-105477428D01*
X51595196Y-105501227D01*
X51598796Y-105525495D01*
X51600000Y-105549999D01*
X51600000Y-106450001D01*
X51598796Y-106474505D01*
X51595196Y-106498773D01*
X51589235Y-106522572D01*
X51580970Y-106545671D01*
X51570480Y-106567850D01*
X51557868Y-106588893D01*
X51543253Y-106608599D01*
X51526777Y-106626777D01*
X51508599Y-106643253D01*
X51488893Y-106657868D01*
X51467850Y-106670480D01*
X51445671Y-106680970D01*
X51422572Y-106689235D01*
X51398773Y-106695196D01*
X51374505Y-106698796D01*
X51350001Y-106700000D01*
X50699999Y-106700000D01*
X50675495Y-106698796D01*
X50651227Y-106695196D01*
X50627428Y-106689235D01*
X50604329Y-106680970D01*
X50582150Y-106670480D01*
X50561107Y-106657868D01*
X50541401Y-106643253D01*
X50523223Y-106626777D01*
X50506747Y-106608599D01*
X50492132Y-106588893D01*
X50479520Y-106567850D01*
X50469030Y-106545671D01*
X50460765Y-106522572D01*
X50454804Y-106498773D01*
X50451204Y-106474505D01*
X50450000Y-106450001D01*
X50450000Y-105549999D01*
X50451204Y-105525495D01*
X50454804Y-105501227D01*
X50460765Y-105477428D01*
X50469030Y-105454329D01*
X50479520Y-105432150D01*
X50492132Y-105411107D01*
X50506747Y-105391401D01*
X50523223Y-105373223D01*
X50541401Y-105356747D01*
X50561107Y-105342132D01*
X50582150Y-105329520D01*
X50604329Y-105319030D01*
X50627428Y-105310765D01*
X50651227Y-105304804D01*
X50675495Y-105301204D01*
X50699999Y-105300000D01*
X51350001Y-105300000D01*
X51374505Y-105301204D01*
G37*
G36*
X46774505Y-110001204D02*
G01*
X46798773Y-110004804D01*
X46822572Y-110010765D01*
X46845671Y-110019030D01*
X46867850Y-110029520D01*
X46888893Y-110042132D01*
X46908599Y-110056747D01*
X46926777Y-110073223D01*
X46943253Y-110091401D01*
X46957868Y-110111107D01*
X46970480Y-110132150D01*
X46980970Y-110154329D01*
X46989235Y-110177428D01*
X46995196Y-110201227D01*
X46998796Y-110225495D01*
X47000000Y-110249999D01*
X47000000Y-111150001D01*
X46998796Y-111174505D01*
X46995196Y-111198773D01*
X46989235Y-111222572D01*
X46980970Y-111245671D01*
X46970480Y-111267850D01*
X46957868Y-111288893D01*
X46943253Y-111308599D01*
X46926777Y-111326777D01*
X46908599Y-111343253D01*
X46888893Y-111357868D01*
X46867850Y-111370480D01*
X46845671Y-111380970D01*
X46822572Y-111389235D01*
X46798773Y-111395196D01*
X46774505Y-111398796D01*
X46750001Y-111400000D01*
X46099999Y-111400000D01*
X46075495Y-111398796D01*
X46051227Y-111395196D01*
X46027428Y-111389235D01*
X46004329Y-111380970D01*
X45982150Y-111370480D01*
X45961107Y-111357868D01*
X45941401Y-111343253D01*
X45923223Y-111326777D01*
X45906747Y-111308599D01*
X45892132Y-111288893D01*
X45879520Y-111267850D01*
X45869030Y-111245671D01*
X45860765Y-111222572D01*
X45854804Y-111198773D01*
X45851204Y-111174505D01*
X45850000Y-111150001D01*
X45850000Y-110249999D01*
X45851204Y-110225495D01*
X45854804Y-110201227D01*
X45860765Y-110177428D01*
X45869030Y-110154329D01*
X45879520Y-110132150D01*
X45892132Y-110111107D01*
X45906747Y-110091401D01*
X45923223Y-110073223D01*
X45941401Y-110056747D01*
X45961107Y-110042132D01*
X45982150Y-110029520D01*
X46004329Y-110019030D01*
X46027428Y-110010765D01*
X46051227Y-110004804D01*
X46075495Y-110001204D01*
X46099999Y-110000000D01*
X46750001Y-110000000D01*
X46774505Y-110001204D01*
G37*
G36*
X44724505Y-110001204D02*
G01*
X44748773Y-110004804D01*
X44772572Y-110010765D01*
X44795671Y-110019030D01*
X44817850Y-110029520D01*
X44838893Y-110042132D01*
X44858599Y-110056747D01*
X44876777Y-110073223D01*
X44893253Y-110091401D01*
X44907868Y-110111107D01*
X44920480Y-110132150D01*
X44930970Y-110154329D01*
X44939235Y-110177428D01*
X44945196Y-110201227D01*
X44948796Y-110225495D01*
X44950000Y-110249999D01*
X44950000Y-111150001D01*
X44948796Y-111174505D01*
X44945196Y-111198773D01*
X44939235Y-111222572D01*
X44930970Y-111245671D01*
X44920480Y-111267850D01*
X44907868Y-111288893D01*
X44893253Y-111308599D01*
X44876777Y-111326777D01*
X44858599Y-111343253D01*
X44838893Y-111357868D01*
X44817850Y-111370480D01*
X44795671Y-111380970D01*
X44772572Y-111389235D01*
X44748773Y-111395196D01*
X44724505Y-111398796D01*
X44700001Y-111400000D01*
X44049999Y-111400000D01*
X44025495Y-111398796D01*
X44001227Y-111395196D01*
X43977428Y-111389235D01*
X43954329Y-111380970D01*
X43932150Y-111370480D01*
X43911107Y-111357868D01*
X43891401Y-111343253D01*
X43873223Y-111326777D01*
X43856747Y-111308599D01*
X43842132Y-111288893D01*
X43829520Y-111267850D01*
X43819030Y-111245671D01*
X43810765Y-111222572D01*
X43804804Y-111198773D01*
X43801204Y-111174505D01*
X43800000Y-111150001D01*
X43800000Y-110249999D01*
X43801204Y-110225495D01*
X43804804Y-110201227D01*
X43810765Y-110177428D01*
X43819030Y-110154329D01*
X43829520Y-110132150D01*
X43842132Y-110111107D01*
X43856747Y-110091401D01*
X43873223Y-110073223D01*
X43891401Y-110056747D01*
X43911107Y-110042132D01*
X43932150Y-110029520D01*
X43954329Y-110019030D01*
X43977428Y-110010765D01*
X44001227Y-110004804D01*
X44025495Y-110001204D01*
X44049999Y-110000000D01*
X44700001Y-110000000D01*
X44724505Y-110001204D01*
G37*
G36*
X46774505Y-114601204D02*
G01*
X46798773Y-114604804D01*
X46822572Y-114610765D01*
X46845671Y-114619030D01*
X46867850Y-114629520D01*
X46888893Y-114642132D01*
X46908599Y-114656747D01*
X46926777Y-114673223D01*
X46943253Y-114691401D01*
X46957868Y-114711107D01*
X46970480Y-114732150D01*
X46980970Y-114754329D01*
X46989235Y-114777428D01*
X46995196Y-114801227D01*
X46998796Y-114825495D01*
X47000000Y-114849999D01*
X47000000Y-115750001D01*
X46998796Y-115774505D01*
X46995196Y-115798773D01*
X46989235Y-115822572D01*
X46980970Y-115845671D01*
X46970480Y-115867850D01*
X46957868Y-115888893D01*
X46943253Y-115908599D01*
X46926777Y-115926777D01*
X46908599Y-115943253D01*
X46888893Y-115957868D01*
X46867850Y-115970480D01*
X46845671Y-115980970D01*
X46822572Y-115989235D01*
X46798773Y-115995196D01*
X46774505Y-115998796D01*
X46750001Y-116000000D01*
X46099999Y-116000000D01*
X46075495Y-115998796D01*
X46051227Y-115995196D01*
X46027428Y-115989235D01*
X46004329Y-115980970D01*
X45982150Y-115970480D01*
X45961107Y-115957868D01*
X45941401Y-115943253D01*
X45923223Y-115926777D01*
X45906747Y-115908599D01*
X45892132Y-115888893D01*
X45879520Y-115867850D01*
X45869030Y-115845671D01*
X45860765Y-115822572D01*
X45854804Y-115798773D01*
X45851204Y-115774505D01*
X45850000Y-115750001D01*
X45850000Y-114849999D01*
X45851204Y-114825495D01*
X45854804Y-114801227D01*
X45860765Y-114777428D01*
X45869030Y-114754329D01*
X45879520Y-114732150D01*
X45892132Y-114711107D01*
X45906747Y-114691401D01*
X45923223Y-114673223D01*
X45941401Y-114656747D01*
X45961107Y-114642132D01*
X45982150Y-114629520D01*
X46004329Y-114619030D01*
X46027428Y-114610765D01*
X46051227Y-114604804D01*
X46075495Y-114601204D01*
X46099999Y-114600000D01*
X46750001Y-114600000D01*
X46774505Y-114601204D01*
G37*
G36*
X44724505Y-114601204D02*
G01*
X44748773Y-114604804D01*
X44772572Y-114610765D01*
X44795671Y-114619030D01*
X44817850Y-114629520D01*
X44838893Y-114642132D01*
X44858599Y-114656747D01*
X44876777Y-114673223D01*
X44893253Y-114691401D01*
X44907868Y-114711107D01*
X44920480Y-114732150D01*
X44930970Y-114754329D01*
X44939235Y-114777428D01*
X44945196Y-114801227D01*
X44948796Y-114825495D01*
X44950000Y-114849999D01*
X44950000Y-115750001D01*
X44948796Y-115774505D01*
X44945196Y-115798773D01*
X44939235Y-115822572D01*
X44930970Y-115845671D01*
X44920480Y-115867850D01*
X44907868Y-115888893D01*
X44893253Y-115908599D01*
X44876777Y-115926777D01*
X44858599Y-115943253D01*
X44838893Y-115957868D01*
X44817850Y-115970480D01*
X44795671Y-115980970D01*
X44772572Y-115989235D01*
X44748773Y-115995196D01*
X44724505Y-115998796D01*
X44700001Y-116000000D01*
X44049999Y-116000000D01*
X44025495Y-115998796D01*
X44001227Y-115995196D01*
X43977428Y-115989235D01*
X43954329Y-115980970D01*
X43932150Y-115970480D01*
X43911107Y-115957868D01*
X43891401Y-115943253D01*
X43873223Y-115926777D01*
X43856747Y-115908599D01*
X43842132Y-115888893D01*
X43829520Y-115867850D01*
X43819030Y-115845671D01*
X43810765Y-115822572D01*
X43804804Y-115798773D01*
X43801204Y-115774505D01*
X43800000Y-115750001D01*
X43800000Y-114849999D01*
X43801204Y-114825495D01*
X43804804Y-114801227D01*
X43810765Y-114777428D01*
X43819030Y-114754329D01*
X43829520Y-114732150D01*
X43842132Y-114711107D01*
X43856747Y-114691401D01*
X43873223Y-114673223D01*
X43891401Y-114656747D01*
X43911107Y-114642132D01*
X43932150Y-114629520D01*
X43954329Y-114619030D01*
X43977428Y-114610765D01*
X44001227Y-114604804D01*
X44025495Y-114601204D01*
X44049999Y-114600000D01*
X44700001Y-114600000D01*
X44724505Y-114601204D01*
G37*
G36*
X46774505Y-98701204D02*
G01*
X46798773Y-98704804D01*
X46822572Y-98710765D01*
X46845671Y-98719030D01*
X46867850Y-98729520D01*
X46888893Y-98742132D01*
X46908599Y-98756747D01*
X46926777Y-98773223D01*
X46943253Y-98791401D01*
X46957868Y-98811107D01*
X46970480Y-98832150D01*
X46980970Y-98854329D01*
X46989235Y-98877428D01*
X46995196Y-98901227D01*
X46998796Y-98925495D01*
X47000000Y-98949999D01*
X47000000Y-99850001D01*
X46998796Y-99874505D01*
X46995196Y-99898773D01*
X46989235Y-99922572D01*
X46980970Y-99945671D01*
X46970480Y-99967850D01*
X46957868Y-99988893D01*
X46943253Y-100008599D01*
X46926777Y-100026777D01*
X46908599Y-100043253D01*
X46888893Y-100057868D01*
X46867850Y-100070480D01*
X46845671Y-100080970D01*
X46822572Y-100089235D01*
X46798773Y-100095196D01*
X46774505Y-100098796D01*
X46750001Y-100100000D01*
X46099999Y-100100000D01*
X46075495Y-100098796D01*
X46051227Y-100095196D01*
X46027428Y-100089235D01*
X46004329Y-100080970D01*
X45982150Y-100070480D01*
X45961107Y-100057868D01*
X45941401Y-100043253D01*
X45923223Y-100026777D01*
X45906747Y-100008599D01*
X45892132Y-99988893D01*
X45879520Y-99967850D01*
X45869030Y-99945671D01*
X45860765Y-99922572D01*
X45854804Y-99898773D01*
X45851204Y-99874505D01*
X45850000Y-99850001D01*
X45850000Y-98949999D01*
X45851204Y-98925495D01*
X45854804Y-98901227D01*
X45860765Y-98877428D01*
X45869030Y-98854329D01*
X45879520Y-98832150D01*
X45892132Y-98811107D01*
X45906747Y-98791401D01*
X45923223Y-98773223D01*
X45941401Y-98756747D01*
X45961107Y-98742132D01*
X45982150Y-98729520D01*
X46004329Y-98719030D01*
X46027428Y-98710765D01*
X46051227Y-98704804D01*
X46075495Y-98701204D01*
X46099999Y-98700000D01*
X46750001Y-98700000D01*
X46774505Y-98701204D01*
G37*
G36*
X44724505Y-98701204D02*
G01*
X44748773Y-98704804D01*
X44772572Y-98710765D01*
X44795671Y-98719030D01*
X44817850Y-98729520D01*
X44838893Y-98742132D01*
X44858599Y-98756747D01*
X44876777Y-98773223D01*
X44893253Y-98791401D01*
X44907868Y-98811107D01*
X44920480Y-98832150D01*
X44930970Y-98854329D01*
X44939235Y-98877428D01*
X44945196Y-98901227D01*
X44948796Y-98925495D01*
X44950000Y-98949999D01*
X44950000Y-99850001D01*
X44948796Y-99874505D01*
X44945196Y-99898773D01*
X44939235Y-99922572D01*
X44930970Y-99945671D01*
X44920480Y-99967850D01*
X44907868Y-99988893D01*
X44893253Y-100008599D01*
X44876777Y-100026777D01*
X44858599Y-100043253D01*
X44838893Y-100057868D01*
X44817850Y-100070480D01*
X44795671Y-100080970D01*
X44772572Y-100089235D01*
X44748773Y-100095196D01*
X44724505Y-100098796D01*
X44700001Y-100100000D01*
X44049999Y-100100000D01*
X44025495Y-100098796D01*
X44001227Y-100095196D01*
X43977428Y-100089235D01*
X43954329Y-100080970D01*
X43932150Y-100070480D01*
X43911107Y-100057868D01*
X43891401Y-100043253D01*
X43873223Y-100026777D01*
X43856747Y-100008599D01*
X43842132Y-99988893D01*
X43829520Y-99967850D01*
X43819030Y-99945671D01*
X43810765Y-99922572D01*
X43804804Y-99898773D01*
X43801204Y-99874505D01*
X43800000Y-99850001D01*
X43800000Y-98949999D01*
X43801204Y-98925495D01*
X43804804Y-98901227D01*
X43810765Y-98877428D01*
X43819030Y-98854329D01*
X43829520Y-98832150D01*
X43842132Y-98811107D01*
X43856747Y-98791401D01*
X43873223Y-98773223D01*
X43891401Y-98756747D01*
X43911107Y-98742132D01*
X43932150Y-98729520D01*
X43954329Y-98719030D01*
X43977428Y-98710765D01*
X44001227Y-98704804D01*
X44025495Y-98701204D01*
X44049999Y-98700000D01*
X44700001Y-98700000D01*
X44724505Y-98701204D01*
G37*
G36*
X46774505Y-100901204D02*
G01*
X46798773Y-100904804D01*
X46822572Y-100910765D01*
X46845671Y-100919030D01*
X46867850Y-100929520D01*
X46888893Y-100942132D01*
X46908599Y-100956747D01*
X46926777Y-100973223D01*
X46943253Y-100991401D01*
X46957868Y-101011107D01*
X46970480Y-101032150D01*
X46980970Y-101054329D01*
X46989235Y-101077428D01*
X46995196Y-101101227D01*
X46998796Y-101125495D01*
X47000000Y-101149999D01*
X47000000Y-102050001D01*
X46998796Y-102074505D01*
X46995196Y-102098773D01*
X46989235Y-102122572D01*
X46980970Y-102145671D01*
X46970480Y-102167850D01*
X46957868Y-102188893D01*
X46943253Y-102208599D01*
X46926777Y-102226777D01*
X46908599Y-102243253D01*
X46888893Y-102257868D01*
X46867850Y-102270480D01*
X46845671Y-102280970D01*
X46822572Y-102289235D01*
X46798773Y-102295196D01*
X46774505Y-102298796D01*
X46750001Y-102300000D01*
X46099999Y-102300000D01*
X46075495Y-102298796D01*
X46051227Y-102295196D01*
X46027428Y-102289235D01*
X46004329Y-102280970D01*
X45982150Y-102270480D01*
X45961107Y-102257868D01*
X45941401Y-102243253D01*
X45923223Y-102226777D01*
X45906747Y-102208599D01*
X45892132Y-102188893D01*
X45879520Y-102167850D01*
X45869030Y-102145671D01*
X45860765Y-102122572D01*
X45854804Y-102098773D01*
X45851204Y-102074505D01*
X45850000Y-102050001D01*
X45850000Y-101149999D01*
X45851204Y-101125495D01*
X45854804Y-101101227D01*
X45860765Y-101077428D01*
X45869030Y-101054329D01*
X45879520Y-101032150D01*
X45892132Y-101011107D01*
X45906747Y-100991401D01*
X45923223Y-100973223D01*
X45941401Y-100956747D01*
X45961107Y-100942132D01*
X45982150Y-100929520D01*
X46004329Y-100919030D01*
X46027428Y-100910765D01*
X46051227Y-100904804D01*
X46075495Y-100901204D01*
X46099999Y-100900000D01*
X46750001Y-100900000D01*
X46774505Y-100901204D01*
G37*
G36*
X44724505Y-100901204D02*
G01*
X44748773Y-100904804D01*
X44772572Y-100910765D01*
X44795671Y-100919030D01*
X44817850Y-100929520D01*
X44838893Y-100942132D01*
X44858599Y-100956747D01*
X44876777Y-100973223D01*
X44893253Y-100991401D01*
X44907868Y-101011107D01*
X44920480Y-101032150D01*
X44930970Y-101054329D01*
X44939235Y-101077428D01*
X44945196Y-101101227D01*
X44948796Y-101125495D01*
X44950000Y-101149999D01*
X44950000Y-102050001D01*
X44948796Y-102074505D01*
X44945196Y-102098773D01*
X44939235Y-102122572D01*
X44930970Y-102145671D01*
X44920480Y-102167850D01*
X44907868Y-102188893D01*
X44893253Y-102208599D01*
X44876777Y-102226777D01*
X44858599Y-102243253D01*
X44838893Y-102257868D01*
X44817850Y-102270480D01*
X44795671Y-102280970D01*
X44772572Y-102289235D01*
X44748773Y-102295196D01*
X44724505Y-102298796D01*
X44700001Y-102300000D01*
X44049999Y-102300000D01*
X44025495Y-102298796D01*
X44001227Y-102295196D01*
X43977428Y-102289235D01*
X43954329Y-102280970D01*
X43932150Y-102270480D01*
X43911107Y-102257868D01*
X43891401Y-102243253D01*
X43873223Y-102226777D01*
X43856747Y-102208599D01*
X43842132Y-102188893D01*
X43829520Y-102167850D01*
X43819030Y-102145671D01*
X43810765Y-102122572D01*
X43804804Y-102098773D01*
X43801204Y-102074505D01*
X43800000Y-102050001D01*
X43800000Y-101149999D01*
X43801204Y-101125495D01*
X43804804Y-101101227D01*
X43810765Y-101077428D01*
X43819030Y-101054329D01*
X43829520Y-101032150D01*
X43842132Y-101011107D01*
X43856747Y-100991401D01*
X43873223Y-100973223D01*
X43891401Y-100956747D01*
X43911107Y-100942132D01*
X43932150Y-100929520D01*
X43954329Y-100919030D01*
X43977428Y-100910765D01*
X44001227Y-100904804D01*
X44025495Y-100901204D01*
X44049999Y-100900000D01*
X44700001Y-100900000D01*
X44724505Y-100901204D01*
G37*
G36*
X46774505Y-103101204D02*
G01*
X46798773Y-103104804D01*
X46822572Y-103110765D01*
X46845671Y-103119030D01*
X46867850Y-103129520D01*
X46888893Y-103142132D01*
X46908599Y-103156747D01*
X46926777Y-103173223D01*
X46943253Y-103191401D01*
X46957868Y-103211107D01*
X46970480Y-103232150D01*
X46980970Y-103254329D01*
X46989235Y-103277428D01*
X46995196Y-103301227D01*
X46998796Y-103325495D01*
X47000000Y-103349999D01*
X47000000Y-104250001D01*
X46998796Y-104274505D01*
X46995196Y-104298773D01*
X46989235Y-104322572D01*
X46980970Y-104345671D01*
X46970480Y-104367850D01*
X46957868Y-104388893D01*
X46943253Y-104408599D01*
X46926777Y-104426777D01*
X46908599Y-104443253D01*
X46888893Y-104457868D01*
X46867850Y-104470480D01*
X46845671Y-104480970D01*
X46822572Y-104489235D01*
X46798773Y-104495196D01*
X46774505Y-104498796D01*
X46750001Y-104500000D01*
X46099999Y-104500000D01*
X46075495Y-104498796D01*
X46051227Y-104495196D01*
X46027428Y-104489235D01*
X46004329Y-104480970D01*
X45982150Y-104470480D01*
X45961107Y-104457868D01*
X45941401Y-104443253D01*
X45923223Y-104426777D01*
X45906747Y-104408599D01*
X45892132Y-104388893D01*
X45879520Y-104367850D01*
X45869030Y-104345671D01*
X45860765Y-104322572D01*
X45854804Y-104298773D01*
X45851204Y-104274505D01*
X45850000Y-104250001D01*
X45850000Y-103349999D01*
X45851204Y-103325495D01*
X45854804Y-103301227D01*
X45860765Y-103277428D01*
X45869030Y-103254329D01*
X45879520Y-103232150D01*
X45892132Y-103211107D01*
X45906747Y-103191401D01*
X45923223Y-103173223D01*
X45941401Y-103156747D01*
X45961107Y-103142132D01*
X45982150Y-103129520D01*
X46004329Y-103119030D01*
X46027428Y-103110765D01*
X46051227Y-103104804D01*
X46075495Y-103101204D01*
X46099999Y-103100000D01*
X46750001Y-103100000D01*
X46774505Y-103101204D01*
G37*
G36*
X44724505Y-103101204D02*
G01*
X44748773Y-103104804D01*
X44772572Y-103110765D01*
X44795671Y-103119030D01*
X44817850Y-103129520D01*
X44838893Y-103142132D01*
X44858599Y-103156747D01*
X44876777Y-103173223D01*
X44893253Y-103191401D01*
X44907868Y-103211107D01*
X44920480Y-103232150D01*
X44930970Y-103254329D01*
X44939235Y-103277428D01*
X44945196Y-103301227D01*
X44948796Y-103325495D01*
X44950000Y-103349999D01*
X44950000Y-104250001D01*
X44948796Y-104274505D01*
X44945196Y-104298773D01*
X44939235Y-104322572D01*
X44930970Y-104345671D01*
X44920480Y-104367850D01*
X44907868Y-104388893D01*
X44893253Y-104408599D01*
X44876777Y-104426777D01*
X44858599Y-104443253D01*
X44838893Y-104457868D01*
X44817850Y-104470480D01*
X44795671Y-104480970D01*
X44772572Y-104489235D01*
X44748773Y-104495196D01*
X44724505Y-104498796D01*
X44700001Y-104500000D01*
X44049999Y-104500000D01*
X44025495Y-104498796D01*
X44001227Y-104495196D01*
X43977428Y-104489235D01*
X43954329Y-104480970D01*
X43932150Y-104470480D01*
X43911107Y-104457868D01*
X43891401Y-104443253D01*
X43873223Y-104426777D01*
X43856747Y-104408599D01*
X43842132Y-104388893D01*
X43829520Y-104367850D01*
X43819030Y-104345671D01*
X43810765Y-104322572D01*
X43804804Y-104298773D01*
X43801204Y-104274505D01*
X43800000Y-104250001D01*
X43800000Y-103349999D01*
X43801204Y-103325495D01*
X43804804Y-103301227D01*
X43810765Y-103277428D01*
X43819030Y-103254329D01*
X43829520Y-103232150D01*
X43842132Y-103211107D01*
X43856747Y-103191401D01*
X43873223Y-103173223D01*
X43891401Y-103156747D01*
X43911107Y-103142132D01*
X43932150Y-103129520D01*
X43954329Y-103119030D01*
X43977428Y-103110765D01*
X44001227Y-103104804D01*
X44025495Y-103101204D01*
X44049999Y-103100000D01*
X44700001Y-103100000D01*
X44724505Y-103101204D01*
G37*
G36*
X46774505Y-105301204D02*
G01*
X46798773Y-105304804D01*
X46822572Y-105310765D01*
X46845671Y-105319030D01*
X46867850Y-105329520D01*
X46888893Y-105342132D01*
X46908599Y-105356747D01*
X46926777Y-105373223D01*
X46943253Y-105391401D01*
X46957868Y-105411107D01*
X46970480Y-105432150D01*
X46980970Y-105454329D01*
X46989235Y-105477428D01*
X46995196Y-105501227D01*
X46998796Y-105525495D01*
X47000000Y-105549999D01*
X47000000Y-106450001D01*
X46998796Y-106474505D01*
X46995196Y-106498773D01*
X46989235Y-106522572D01*
X46980970Y-106545671D01*
X46970480Y-106567850D01*
X46957868Y-106588893D01*
X46943253Y-106608599D01*
X46926777Y-106626777D01*
X46908599Y-106643253D01*
X46888893Y-106657868D01*
X46867850Y-106670480D01*
X46845671Y-106680970D01*
X46822572Y-106689235D01*
X46798773Y-106695196D01*
X46774505Y-106698796D01*
X46750001Y-106700000D01*
X46099999Y-106700000D01*
X46075495Y-106698796D01*
X46051227Y-106695196D01*
X46027428Y-106689235D01*
X46004329Y-106680970D01*
X45982150Y-106670480D01*
X45961107Y-106657868D01*
X45941401Y-106643253D01*
X45923223Y-106626777D01*
X45906747Y-106608599D01*
X45892132Y-106588893D01*
X45879520Y-106567850D01*
X45869030Y-106545671D01*
X45860765Y-106522572D01*
X45854804Y-106498773D01*
X45851204Y-106474505D01*
X45850000Y-106450001D01*
X45850000Y-105549999D01*
X45851204Y-105525495D01*
X45854804Y-105501227D01*
X45860765Y-105477428D01*
X45869030Y-105454329D01*
X45879520Y-105432150D01*
X45892132Y-105411107D01*
X45906747Y-105391401D01*
X45923223Y-105373223D01*
X45941401Y-105356747D01*
X45961107Y-105342132D01*
X45982150Y-105329520D01*
X46004329Y-105319030D01*
X46027428Y-105310765D01*
X46051227Y-105304804D01*
X46075495Y-105301204D01*
X46099999Y-105300000D01*
X46750001Y-105300000D01*
X46774505Y-105301204D01*
G37*
G36*
X44724505Y-105301204D02*
G01*
X44748773Y-105304804D01*
X44772572Y-105310765D01*
X44795671Y-105319030D01*
X44817850Y-105329520D01*
X44838893Y-105342132D01*
X44858599Y-105356747D01*
X44876777Y-105373223D01*
X44893253Y-105391401D01*
X44907868Y-105411107D01*
X44920480Y-105432150D01*
X44930970Y-105454329D01*
X44939235Y-105477428D01*
X44945196Y-105501227D01*
X44948796Y-105525495D01*
X44950000Y-105549999D01*
X44950000Y-106450001D01*
X44948796Y-106474505D01*
X44945196Y-106498773D01*
X44939235Y-106522572D01*
X44930970Y-106545671D01*
X44920480Y-106567850D01*
X44907868Y-106588893D01*
X44893253Y-106608599D01*
X44876777Y-106626777D01*
X44858599Y-106643253D01*
X44838893Y-106657868D01*
X44817850Y-106670480D01*
X44795671Y-106680970D01*
X44772572Y-106689235D01*
X44748773Y-106695196D01*
X44724505Y-106698796D01*
X44700001Y-106700000D01*
X44049999Y-106700000D01*
X44025495Y-106698796D01*
X44001227Y-106695196D01*
X43977428Y-106689235D01*
X43954329Y-106680970D01*
X43932150Y-106670480D01*
X43911107Y-106657868D01*
X43891401Y-106643253D01*
X43873223Y-106626777D01*
X43856747Y-106608599D01*
X43842132Y-106588893D01*
X43829520Y-106567850D01*
X43819030Y-106545671D01*
X43810765Y-106522572D01*
X43804804Y-106498773D01*
X43801204Y-106474505D01*
X43800000Y-106450001D01*
X43800000Y-105549999D01*
X43801204Y-105525495D01*
X43804804Y-105501227D01*
X43810765Y-105477428D01*
X43819030Y-105454329D01*
X43829520Y-105432150D01*
X43842132Y-105411107D01*
X43856747Y-105391401D01*
X43873223Y-105373223D01*
X43891401Y-105356747D01*
X43911107Y-105342132D01*
X43932150Y-105329520D01*
X43954329Y-105319030D01*
X43977428Y-105310765D01*
X44001227Y-105304804D01*
X44025495Y-105301204D01*
X44049999Y-105300000D01*
X44700001Y-105300000D01*
X44724505Y-105301204D01*
G37*
G36*
X46774505Y-107701204D02*
G01*
X46798773Y-107704804D01*
X46822572Y-107710765D01*
X46845671Y-107719030D01*
X46867850Y-107729520D01*
X46888893Y-107742132D01*
X46908599Y-107756747D01*
X46926777Y-107773223D01*
X46943253Y-107791401D01*
X46957868Y-107811107D01*
X46970480Y-107832150D01*
X46980970Y-107854329D01*
X46989235Y-107877428D01*
X46995196Y-107901227D01*
X46998796Y-107925495D01*
X47000000Y-107949999D01*
X47000000Y-108850001D01*
X46998796Y-108874505D01*
X46995196Y-108898773D01*
X46989235Y-108922572D01*
X46980970Y-108945671D01*
X46970480Y-108967850D01*
X46957868Y-108988893D01*
X46943253Y-109008599D01*
X46926777Y-109026777D01*
X46908599Y-109043253D01*
X46888893Y-109057868D01*
X46867850Y-109070480D01*
X46845671Y-109080970D01*
X46822572Y-109089235D01*
X46798773Y-109095196D01*
X46774505Y-109098796D01*
X46750001Y-109100000D01*
X46099999Y-109100000D01*
X46075495Y-109098796D01*
X46051227Y-109095196D01*
X46027428Y-109089235D01*
X46004329Y-109080970D01*
X45982150Y-109070480D01*
X45961107Y-109057868D01*
X45941401Y-109043253D01*
X45923223Y-109026777D01*
X45906747Y-109008599D01*
X45892132Y-108988893D01*
X45879520Y-108967850D01*
X45869030Y-108945671D01*
X45860765Y-108922572D01*
X45854804Y-108898773D01*
X45851204Y-108874505D01*
X45850000Y-108850001D01*
X45850000Y-107949999D01*
X45851204Y-107925495D01*
X45854804Y-107901227D01*
X45860765Y-107877428D01*
X45869030Y-107854329D01*
X45879520Y-107832150D01*
X45892132Y-107811107D01*
X45906747Y-107791401D01*
X45923223Y-107773223D01*
X45941401Y-107756747D01*
X45961107Y-107742132D01*
X45982150Y-107729520D01*
X46004329Y-107719030D01*
X46027428Y-107710765D01*
X46051227Y-107704804D01*
X46075495Y-107701204D01*
X46099999Y-107700000D01*
X46750001Y-107700000D01*
X46774505Y-107701204D01*
G37*
G36*
X44724505Y-107701204D02*
G01*
X44748773Y-107704804D01*
X44772572Y-107710765D01*
X44795671Y-107719030D01*
X44817850Y-107729520D01*
X44838893Y-107742132D01*
X44858599Y-107756747D01*
X44876777Y-107773223D01*
X44893253Y-107791401D01*
X44907868Y-107811107D01*
X44920480Y-107832150D01*
X44930970Y-107854329D01*
X44939235Y-107877428D01*
X44945196Y-107901227D01*
X44948796Y-107925495D01*
X44950000Y-107949999D01*
X44950000Y-108850001D01*
X44948796Y-108874505D01*
X44945196Y-108898773D01*
X44939235Y-108922572D01*
X44930970Y-108945671D01*
X44920480Y-108967850D01*
X44907868Y-108988893D01*
X44893253Y-109008599D01*
X44876777Y-109026777D01*
X44858599Y-109043253D01*
X44838893Y-109057868D01*
X44817850Y-109070480D01*
X44795671Y-109080970D01*
X44772572Y-109089235D01*
X44748773Y-109095196D01*
X44724505Y-109098796D01*
X44700001Y-109100000D01*
X44049999Y-109100000D01*
X44025495Y-109098796D01*
X44001227Y-109095196D01*
X43977428Y-109089235D01*
X43954329Y-109080970D01*
X43932150Y-109070480D01*
X43911107Y-109057868D01*
X43891401Y-109043253D01*
X43873223Y-109026777D01*
X43856747Y-109008599D01*
X43842132Y-108988893D01*
X43829520Y-108967850D01*
X43819030Y-108945671D01*
X43810765Y-108922572D01*
X43804804Y-108898773D01*
X43801204Y-108874505D01*
X43800000Y-108850001D01*
X43800000Y-107949999D01*
X43801204Y-107925495D01*
X43804804Y-107901227D01*
X43810765Y-107877428D01*
X43819030Y-107854329D01*
X43829520Y-107832150D01*
X43842132Y-107811107D01*
X43856747Y-107791401D01*
X43873223Y-107773223D01*
X43891401Y-107756747D01*
X43911107Y-107742132D01*
X43932150Y-107729520D01*
X43954329Y-107719030D01*
X43977428Y-107710765D01*
X44001227Y-107704804D01*
X44025495Y-107701204D01*
X44049999Y-107700000D01*
X44700001Y-107700000D01*
X44724505Y-107701204D01*
G37*
G36*
X52574505Y-119101204D02*
G01*
X52598773Y-119104804D01*
X52622572Y-119110765D01*
X52645671Y-119119030D01*
X52667850Y-119129520D01*
X52688893Y-119142132D01*
X52708599Y-119156747D01*
X52726777Y-119173223D01*
X52743253Y-119191401D01*
X52757868Y-119211107D01*
X52770480Y-119232150D01*
X52780970Y-119254329D01*
X52789235Y-119277428D01*
X52795196Y-119301227D01*
X52798796Y-119325495D01*
X52800000Y-119349999D01*
X52800000Y-120250001D01*
X52798796Y-120274505D01*
X52795196Y-120298773D01*
X52789235Y-120322572D01*
X52780970Y-120345671D01*
X52770480Y-120367850D01*
X52757868Y-120388893D01*
X52743253Y-120408599D01*
X52726777Y-120426777D01*
X52708599Y-120443253D01*
X52688893Y-120457868D01*
X52667850Y-120470480D01*
X52645671Y-120480970D01*
X52622572Y-120489235D01*
X52598773Y-120495196D01*
X52574505Y-120498796D01*
X52550001Y-120500000D01*
X51899999Y-120500000D01*
X51875495Y-120498796D01*
X51851227Y-120495196D01*
X51827428Y-120489235D01*
X51804329Y-120480970D01*
X51782150Y-120470480D01*
X51761107Y-120457868D01*
X51741401Y-120443253D01*
X51723223Y-120426777D01*
X51706747Y-120408599D01*
X51692132Y-120388893D01*
X51679520Y-120367850D01*
X51669030Y-120345671D01*
X51660765Y-120322572D01*
X51654804Y-120298773D01*
X51651204Y-120274505D01*
X51650000Y-120250001D01*
X51650000Y-119349999D01*
X51651204Y-119325495D01*
X51654804Y-119301227D01*
X51660765Y-119277428D01*
X51669030Y-119254329D01*
X51679520Y-119232150D01*
X51692132Y-119211107D01*
X51706747Y-119191401D01*
X51723223Y-119173223D01*
X51741401Y-119156747D01*
X51761107Y-119142132D01*
X51782150Y-119129520D01*
X51804329Y-119119030D01*
X51827428Y-119110765D01*
X51851227Y-119104804D01*
X51875495Y-119101204D01*
X51899999Y-119100000D01*
X52550001Y-119100000D01*
X52574505Y-119101204D01*
G37*
G36*
X50524505Y-119101204D02*
G01*
X50548773Y-119104804D01*
X50572572Y-119110765D01*
X50595671Y-119119030D01*
X50617850Y-119129520D01*
X50638893Y-119142132D01*
X50658599Y-119156747D01*
X50676777Y-119173223D01*
X50693253Y-119191401D01*
X50707868Y-119211107D01*
X50720480Y-119232150D01*
X50730970Y-119254329D01*
X50739235Y-119277428D01*
X50745196Y-119301227D01*
X50748796Y-119325495D01*
X50750000Y-119349999D01*
X50750000Y-120250001D01*
X50748796Y-120274505D01*
X50745196Y-120298773D01*
X50739235Y-120322572D01*
X50730970Y-120345671D01*
X50720480Y-120367850D01*
X50707868Y-120388893D01*
X50693253Y-120408599D01*
X50676777Y-120426777D01*
X50658599Y-120443253D01*
X50638893Y-120457868D01*
X50617850Y-120470480D01*
X50595671Y-120480970D01*
X50572572Y-120489235D01*
X50548773Y-120495196D01*
X50524505Y-120498796D01*
X50500001Y-120500000D01*
X49849999Y-120500000D01*
X49825495Y-120498796D01*
X49801227Y-120495196D01*
X49777428Y-120489235D01*
X49754329Y-120480970D01*
X49732150Y-120470480D01*
X49711107Y-120457868D01*
X49691401Y-120443253D01*
X49673223Y-120426777D01*
X49656747Y-120408599D01*
X49642132Y-120388893D01*
X49629520Y-120367850D01*
X49619030Y-120345671D01*
X49610765Y-120322572D01*
X49604804Y-120298773D01*
X49601204Y-120274505D01*
X49600000Y-120250001D01*
X49600000Y-119349999D01*
X49601204Y-119325495D01*
X49604804Y-119301227D01*
X49610765Y-119277428D01*
X49619030Y-119254329D01*
X49629520Y-119232150D01*
X49642132Y-119211107D01*
X49656747Y-119191401D01*
X49673223Y-119173223D01*
X49691401Y-119156747D01*
X49711107Y-119142132D01*
X49732150Y-119129520D01*
X49754329Y-119119030D01*
X49777428Y-119110765D01*
X49801227Y-119104804D01*
X49825495Y-119101204D01*
X49849999Y-119100000D01*
X50500001Y-119100000D01*
X50524505Y-119101204D01*
G37*
D15*
X46050000Y-86750000D03*
X46050000Y-87550000D03*
X46050000Y-88350000D03*
X46050000Y-89150000D03*
X46050000Y-89950000D03*
X46050000Y-90750000D03*
X46050000Y-91550000D03*
X46050000Y-92350000D03*
X46050000Y-93150000D03*
X46050000Y-93950000D03*
X46050000Y-94750000D03*
D16*
X47750000Y-96450000D03*
X48550000Y-96450000D03*
X49350000Y-96450000D03*
X50150000Y-96450000D03*
X50950000Y-96450000D03*
X51750000Y-96450000D03*
X52550000Y-96450000D03*
X53350000Y-96450000D03*
X54150000Y-96450000D03*
X54950000Y-96450000D03*
X55750000Y-96450000D03*
D15*
X57450000Y-94750000D03*
X57450000Y-93950000D03*
X57450000Y-93150000D03*
X57450000Y-92350000D03*
X57450000Y-91550000D03*
X57450000Y-90750000D03*
X57450000Y-89950000D03*
X57450000Y-89150000D03*
X57450000Y-88350000D03*
X57450000Y-87550000D03*
X57450000Y-86750000D03*
D16*
X55750000Y-85050000D03*
X54950000Y-85050000D03*
X54150000Y-85050000D03*
X53350000Y-85050000D03*
X52550000Y-85050000D03*
X51750000Y-85050000D03*
X50950000Y-85050000D03*
X50150000Y-85050000D03*
X49350000Y-85050000D03*
X48550000Y-85050000D03*
X47750000Y-85050000D03*
D10*
G36*
X37324505Y-87951204D02*
G01*
X37348773Y-87954804D01*
X37372572Y-87960765D01*
X37395671Y-87969030D01*
X37417850Y-87979520D01*
X37438893Y-87992132D01*
X37458599Y-88006747D01*
X37476777Y-88023223D01*
X37493253Y-88041401D01*
X37507868Y-88061107D01*
X37520480Y-88082150D01*
X37530970Y-88104329D01*
X37539235Y-88127428D01*
X37545196Y-88151227D01*
X37548796Y-88175495D01*
X37550000Y-88199999D01*
X37550000Y-89100001D01*
X37548796Y-89124505D01*
X37545196Y-89148773D01*
X37539235Y-89172572D01*
X37530970Y-89195671D01*
X37520480Y-89217850D01*
X37507868Y-89238893D01*
X37493253Y-89258599D01*
X37476777Y-89276777D01*
X37458599Y-89293253D01*
X37438893Y-89307868D01*
X37417850Y-89320480D01*
X37395671Y-89330970D01*
X37372572Y-89339235D01*
X37348773Y-89345196D01*
X37324505Y-89348796D01*
X37300001Y-89350000D01*
X36649999Y-89350000D01*
X36625495Y-89348796D01*
X36601227Y-89345196D01*
X36577428Y-89339235D01*
X36554329Y-89330970D01*
X36532150Y-89320480D01*
X36511107Y-89307868D01*
X36491401Y-89293253D01*
X36473223Y-89276777D01*
X36456747Y-89258599D01*
X36442132Y-89238893D01*
X36429520Y-89217850D01*
X36419030Y-89195671D01*
X36410765Y-89172572D01*
X36404804Y-89148773D01*
X36401204Y-89124505D01*
X36400000Y-89100001D01*
X36400000Y-88199999D01*
X36401204Y-88175495D01*
X36404804Y-88151227D01*
X36410765Y-88127428D01*
X36419030Y-88104329D01*
X36429520Y-88082150D01*
X36442132Y-88061107D01*
X36456747Y-88041401D01*
X36473223Y-88023223D01*
X36491401Y-88006747D01*
X36511107Y-87992132D01*
X36532150Y-87979520D01*
X36554329Y-87969030D01*
X36577428Y-87960765D01*
X36601227Y-87954804D01*
X36625495Y-87951204D01*
X36649999Y-87950000D01*
X37300001Y-87950000D01*
X37324505Y-87951204D01*
G37*
G36*
X39374505Y-87951204D02*
G01*
X39398773Y-87954804D01*
X39422572Y-87960765D01*
X39445671Y-87969030D01*
X39467850Y-87979520D01*
X39488893Y-87992132D01*
X39508599Y-88006747D01*
X39526777Y-88023223D01*
X39543253Y-88041401D01*
X39557868Y-88061107D01*
X39570480Y-88082150D01*
X39580970Y-88104329D01*
X39589235Y-88127428D01*
X39595196Y-88151227D01*
X39598796Y-88175495D01*
X39600000Y-88199999D01*
X39600000Y-89100001D01*
X39598796Y-89124505D01*
X39595196Y-89148773D01*
X39589235Y-89172572D01*
X39580970Y-89195671D01*
X39570480Y-89217850D01*
X39557868Y-89238893D01*
X39543253Y-89258599D01*
X39526777Y-89276777D01*
X39508599Y-89293253D01*
X39488893Y-89307868D01*
X39467850Y-89320480D01*
X39445671Y-89330970D01*
X39422572Y-89339235D01*
X39398773Y-89345196D01*
X39374505Y-89348796D01*
X39350001Y-89350000D01*
X38699999Y-89350000D01*
X38675495Y-89348796D01*
X38651227Y-89345196D01*
X38627428Y-89339235D01*
X38604329Y-89330970D01*
X38582150Y-89320480D01*
X38561107Y-89307868D01*
X38541401Y-89293253D01*
X38523223Y-89276777D01*
X38506747Y-89258599D01*
X38492132Y-89238893D01*
X38479520Y-89217850D01*
X38469030Y-89195671D01*
X38460765Y-89172572D01*
X38454804Y-89148773D01*
X38451204Y-89124505D01*
X38450000Y-89100001D01*
X38450000Y-88199999D01*
X38451204Y-88175495D01*
X38454804Y-88151227D01*
X38460765Y-88127428D01*
X38469030Y-88104329D01*
X38479520Y-88082150D01*
X38492132Y-88061107D01*
X38506747Y-88041401D01*
X38523223Y-88023223D01*
X38541401Y-88006747D01*
X38561107Y-87992132D01*
X38582150Y-87979520D01*
X38604329Y-87969030D01*
X38627428Y-87960765D01*
X38651227Y-87954804D01*
X38675495Y-87951204D01*
X38699999Y-87950000D01*
X39350001Y-87950000D01*
X39374505Y-87951204D01*
G37*
G36*
X37324505Y-85801204D02*
G01*
X37348773Y-85804804D01*
X37372572Y-85810765D01*
X37395671Y-85819030D01*
X37417850Y-85829520D01*
X37438893Y-85842132D01*
X37458599Y-85856747D01*
X37476777Y-85873223D01*
X37493253Y-85891401D01*
X37507868Y-85911107D01*
X37520480Y-85932150D01*
X37530970Y-85954329D01*
X37539235Y-85977428D01*
X37545196Y-86001227D01*
X37548796Y-86025495D01*
X37550000Y-86049999D01*
X37550000Y-86950001D01*
X37548796Y-86974505D01*
X37545196Y-86998773D01*
X37539235Y-87022572D01*
X37530970Y-87045671D01*
X37520480Y-87067850D01*
X37507868Y-87088893D01*
X37493253Y-87108599D01*
X37476777Y-87126777D01*
X37458599Y-87143253D01*
X37438893Y-87157868D01*
X37417850Y-87170480D01*
X37395671Y-87180970D01*
X37372572Y-87189235D01*
X37348773Y-87195196D01*
X37324505Y-87198796D01*
X37300001Y-87200000D01*
X36649999Y-87200000D01*
X36625495Y-87198796D01*
X36601227Y-87195196D01*
X36577428Y-87189235D01*
X36554329Y-87180970D01*
X36532150Y-87170480D01*
X36511107Y-87157868D01*
X36491401Y-87143253D01*
X36473223Y-87126777D01*
X36456747Y-87108599D01*
X36442132Y-87088893D01*
X36429520Y-87067850D01*
X36419030Y-87045671D01*
X36410765Y-87022572D01*
X36404804Y-86998773D01*
X36401204Y-86974505D01*
X36400000Y-86950001D01*
X36400000Y-86049999D01*
X36401204Y-86025495D01*
X36404804Y-86001227D01*
X36410765Y-85977428D01*
X36419030Y-85954329D01*
X36429520Y-85932150D01*
X36442132Y-85911107D01*
X36456747Y-85891401D01*
X36473223Y-85873223D01*
X36491401Y-85856747D01*
X36511107Y-85842132D01*
X36532150Y-85829520D01*
X36554329Y-85819030D01*
X36577428Y-85810765D01*
X36601227Y-85804804D01*
X36625495Y-85801204D01*
X36649999Y-85800000D01*
X37300001Y-85800000D01*
X37324505Y-85801204D01*
G37*
G36*
X39374505Y-85801204D02*
G01*
X39398773Y-85804804D01*
X39422572Y-85810765D01*
X39445671Y-85819030D01*
X39467850Y-85829520D01*
X39488893Y-85842132D01*
X39508599Y-85856747D01*
X39526777Y-85873223D01*
X39543253Y-85891401D01*
X39557868Y-85911107D01*
X39570480Y-85932150D01*
X39580970Y-85954329D01*
X39589235Y-85977428D01*
X39595196Y-86001227D01*
X39598796Y-86025495D01*
X39600000Y-86049999D01*
X39600000Y-86950001D01*
X39598796Y-86974505D01*
X39595196Y-86998773D01*
X39589235Y-87022572D01*
X39580970Y-87045671D01*
X39570480Y-87067850D01*
X39557868Y-87088893D01*
X39543253Y-87108599D01*
X39526777Y-87126777D01*
X39508599Y-87143253D01*
X39488893Y-87157868D01*
X39467850Y-87170480D01*
X39445671Y-87180970D01*
X39422572Y-87189235D01*
X39398773Y-87195196D01*
X39374505Y-87198796D01*
X39350001Y-87200000D01*
X38699999Y-87200000D01*
X38675495Y-87198796D01*
X38651227Y-87195196D01*
X38627428Y-87189235D01*
X38604329Y-87180970D01*
X38582150Y-87170480D01*
X38561107Y-87157868D01*
X38541401Y-87143253D01*
X38523223Y-87126777D01*
X38506747Y-87108599D01*
X38492132Y-87088893D01*
X38479520Y-87067850D01*
X38469030Y-87045671D01*
X38460765Y-87022572D01*
X38454804Y-86998773D01*
X38451204Y-86974505D01*
X38450000Y-86950001D01*
X38450000Y-86049999D01*
X38451204Y-86025495D01*
X38454804Y-86001227D01*
X38460765Y-85977428D01*
X38469030Y-85954329D01*
X38479520Y-85932150D01*
X38492132Y-85911107D01*
X38506747Y-85891401D01*
X38523223Y-85873223D01*
X38541401Y-85856747D01*
X38561107Y-85842132D01*
X38582150Y-85829520D01*
X38604329Y-85819030D01*
X38627428Y-85810765D01*
X38651227Y-85804804D01*
X38675495Y-85801204D01*
X38699999Y-85800000D01*
X39350001Y-85800000D01*
X39374505Y-85801204D01*
G37*
G36*
X41924505Y-82401204D02*
G01*
X41948773Y-82404804D01*
X41972572Y-82410765D01*
X41995671Y-82419030D01*
X42017850Y-82429520D01*
X42038893Y-82442132D01*
X42058599Y-82456747D01*
X42076777Y-82473223D01*
X42093253Y-82491401D01*
X42107868Y-82511107D01*
X42120480Y-82532150D01*
X42130970Y-82554329D01*
X42139235Y-82577428D01*
X42145196Y-82601227D01*
X42148796Y-82625495D01*
X42150000Y-82649999D01*
X42150000Y-83550001D01*
X42148796Y-83574505D01*
X42145196Y-83598773D01*
X42139235Y-83622572D01*
X42130970Y-83645671D01*
X42120480Y-83667850D01*
X42107868Y-83688893D01*
X42093253Y-83708599D01*
X42076777Y-83726777D01*
X42058599Y-83743253D01*
X42038893Y-83757868D01*
X42017850Y-83770480D01*
X41995671Y-83780970D01*
X41972572Y-83789235D01*
X41948773Y-83795196D01*
X41924505Y-83798796D01*
X41900001Y-83800000D01*
X41249999Y-83800000D01*
X41225495Y-83798796D01*
X41201227Y-83795196D01*
X41177428Y-83789235D01*
X41154329Y-83780970D01*
X41132150Y-83770480D01*
X41111107Y-83757868D01*
X41091401Y-83743253D01*
X41073223Y-83726777D01*
X41056747Y-83708599D01*
X41042132Y-83688893D01*
X41029520Y-83667850D01*
X41019030Y-83645671D01*
X41010765Y-83622572D01*
X41004804Y-83598773D01*
X41001204Y-83574505D01*
X41000000Y-83550001D01*
X41000000Y-82649999D01*
X41001204Y-82625495D01*
X41004804Y-82601227D01*
X41010765Y-82577428D01*
X41019030Y-82554329D01*
X41029520Y-82532150D01*
X41042132Y-82511107D01*
X41056747Y-82491401D01*
X41073223Y-82473223D01*
X41091401Y-82456747D01*
X41111107Y-82442132D01*
X41132150Y-82429520D01*
X41154329Y-82419030D01*
X41177428Y-82410765D01*
X41201227Y-82404804D01*
X41225495Y-82401204D01*
X41249999Y-82400000D01*
X41900001Y-82400000D01*
X41924505Y-82401204D01*
G37*
G36*
X43974505Y-82401204D02*
G01*
X43998773Y-82404804D01*
X44022572Y-82410765D01*
X44045671Y-82419030D01*
X44067850Y-82429520D01*
X44088893Y-82442132D01*
X44108599Y-82456747D01*
X44126777Y-82473223D01*
X44143253Y-82491401D01*
X44157868Y-82511107D01*
X44170480Y-82532150D01*
X44180970Y-82554329D01*
X44189235Y-82577428D01*
X44195196Y-82601227D01*
X44198796Y-82625495D01*
X44200000Y-82649999D01*
X44200000Y-83550001D01*
X44198796Y-83574505D01*
X44195196Y-83598773D01*
X44189235Y-83622572D01*
X44180970Y-83645671D01*
X44170480Y-83667850D01*
X44157868Y-83688893D01*
X44143253Y-83708599D01*
X44126777Y-83726777D01*
X44108599Y-83743253D01*
X44088893Y-83757868D01*
X44067850Y-83770480D01*
X44045671Y-83780970D01*
X44022572Y-83789235D01*
X43998773Y-83795196D01*
X43974505Y-83798796D01*
X43950001Y-83800000D01*
X43299999Y-83800000D01*
X43275495Y-83798796D01*
X43251227Y-83795196D01*
X43227428Y-83789235D01*
X43204329Y-83780970D01*
X43182150Y-83770480D01*
X43161107Y-83757868D01*
X43141401Y-83743253D01*
X43123223Y-83726777D01*
X43106747Y-83708599D01*
X43092132Y-83688893D01*
X43079520Y-83667850D01*
X43069030Y-83645671D01*
X43060765Y-83622572D01*
X43054804Y-83598773D01*
X43051204Y-83574505D01*
X43050000Y-83550001D01*
X43050000Y-82649999D01*
X43051204Y-82625495D01*
X43054804Y-82601227D01*
X43060765Y-82577428D01*
X43069030Y-82554329D01*
X43079520Y-82532150D01*
X43092132Y-82511107D01*
X43106747Y-82491401D01*
X43123223Y-82473223D01*
X43141401Y-82456747D01*
X43161107Y-82442132D01*
X43182150Y-82429520D01*
X43204329Y-82419030D01*
X43227428Y-82410765D01*
X43251227Y-82404804D01*
X43275495Y-82401204D01*
X43299999Y-82400000D01*
X43950001Y-82400000D01*
X43974505Y-82401204D01*
G37*
G36*
X55074505Y-124451204D02*
G01*
X55098773Y-124454804D01*
X55122572Y-124460765D01*
X55145671Y-124469030D01*
X55167850Y-124479520D01*
X55188893Y-124492132D01*
X55208599Y-124506747D01*
X55226777Y-124523223D01*
X55243253Y-124541401D01*
X55257868Y-124561107D01*
X55270480Y-124582150D01*
X55280970Y-124604329D01*
X55289235Y-124627428D01*
X55295196Y-124651227D01*
X55298796Y-124675495D01*
X55300000Y-124699999D01*
X55300000Y-125350001D01*
X55298796Y-125374505D01*
X55295196Y-125398773D01*
X55289235Y-125422572D01*
X55280970Y-125445671D01*
X55270480Y-125467850D01*
X55257868Y-125488893D01*
X55243253Y-125508599D01*
X55226777Y-125526777D01*
X55208599Y-125543253D01*
X55188893Y-125557868D01*
X55167850Y-125570480D01*
X55145671Y-125580970D01*
X55122572Y-125589235D01*
X55098773Y-125595196D01*
X55074505Y-125598796D01*
X55050001Y-125600000D01*
X54149999Y-125600000D01*
X54125495Y-125598796D01*
X54101227Y-125595196D01*
X54077428Y-125589235D01*
X54054329Y-125580970D01*
X54032150Y-125570480D01*
X54011107Y-125557868D01*
X53991401Y-125543253D01*
X53973223Y-125526777D01*
X53956747Y-125508599D01*
X53942132Y-125488893D01*
X53929520Y-125467850D01*
X53919030Y-125445671D01*
X53910765Y-125422572D01*
X53904804Y-125398773D01*
X53901204Y-125374505D01*
X53900000Y-125350001D01*
X53900000Y-124699999D01*
X53901204Y-124675495D01*
X53904804Y-124651227D01*
X53910765Y-124627428D01*
X53919030Y-124604329D01*
X53929520Y-124582150D01*
X53942132Y-124561107D01*
X53956747Y-124541401D01*
X53973223Y-124523223D01*
X53991401Y-124506747D01*
X54011107Y-124492132D01*
X54032150Y-124479520D01*
X54054329Y-124469030D01*
X54077428Y-124460765D01*
X54101227Y-124454804D01*
X54125495Y-124451204D01*
X54149999Y-124450000D01*
X55050001Y-124450000D01*
X55074505Y-124451204D01*
G37*
G36*
X55074505Y-122401204D02*
G01*
X55098773Y-122404804D01*
X55122572Y-122410765D01*
X55145671Y-122419030D01*
X55167850Y-122429520D01*
X55188893Y-122442132D01*
X55208599Y-122456747D01*
X55226777Y-122473223D01*
X55243253Y-122491401D01*
X55257868Y-122511107D01*
X55270480Y-122532150D01*
X55280970Y-122554329D01*
X55289235Y-122577428D01*
X55295196Y-122601227D01*
X55298796Y-122625495D01*
X55300000Y-122649999D01*
X55300000Y-123300001D01*
X55298796Y-123324505D01*
X55295196Y-123348773D01*
X55289235Y-123372572D01*
X55280970Y-123395671D01*
X55270480Y-123417850D01*
X55257868Y-123438893D01*
X55243253Y-123458599D01*
X55226777Y-123476777D01*
X55208599Y-123493253D01*
X55188893Y-123507868D01*
X55167850Y-123520480D01*
X55145671Y-123530970D01*
X55122572Y-123539235D01*
X55098773Y-123545196D01*
X55074505Y-123548796D01*
X55050001Y-123550000D01*
X54149999Y-123550000D01*
X54125495Y-123548796D01*
X54101227Y-123545196D01*
X54077428Y-123539235D01*
X54054329Y-123530970D01*
X54032150Y-123520480D01*
X54011107Y-123507868D01*
X53991401Y-123493253D01*
X53973223Y-123476777D01*
X53956747Y-123458599D01*
X53942132Y-123438893D01*
X53929520Y-123417850D01*
X53919030Y-123395671D01*
X53910765Y-123372572D01*
X53904804Y-123348773D01*
X53901204Y-123324505D01*
X53900000Y-123300001D01*
X53900000Y-122649999D01*
X53901204Y-122625495D01*
X53904804Y-122601227D01*
X53910765Y-122577428D01*
X53919030Y-122554329D01*
X53929520Y-122532150D01*
X53942132Y-122511107D01*
X53956747Y-122491401D01*
X53973223Y-122473223D01*
X53991401Y-122456747D01*
X54011107Y-122442132D01*
X54032150Y-122429520D01*
X54054329Y-122419030D01*
X54077428Y-122410765D01*
X54101227Y-122404804D01*
X54125495Y-122401204D01*
X54149999Y-122400000D01*
X55050001Y-122400000D01*
X55074505Y-122401204D01*
G37*
G36*
X38774505Y-124551204D02*
G01*
X38798773Y-124554804D01*
X38822572Y-124560765D01*
X38845671Y-124569030D01*
X38867850Y-124579520D01*
X38888893Y-124592132D01*
X38908599Y-124606747D01*
X38926777Y-124623223D01*
X38943253Y-124641401D01*
X38957868Y-124661107D01*
X38970480Y-124682150D01*
X38980970Y-124704329D01*
X38989235Y-124727428D01*
X38995196Y-124751227D01*
X38998796Y-124775495D01*
X39000000Y-124799999D01*
X39000000Y-125450001D01*
X38998796Y-125474505D01*
X38995196Y-125498773D01*
X38989235Y-125522572D01*
X38980970Y-125545671D01*
X38970480Y-125567850D01*
X38957868Y-125588893D01*
X38943253Y-125608599D01*
X38926777Y-125626777D01*
X38908599Y-125643253D01*
X38888893Y-125657868D01*
X38867850Y-125670480D01*
X38845671Y-125680970D01*
X38822572Y-125689235D01*
X38798773Y-125695196D01*
X38774505Y-125698796D01*
X38750001Y-125700000D01*
X37849999Y-125700000D01*
X37825495Y-125698796D01*
X37801227Y-125695196D01*
X37777428Y-125689235D01*
X37754329Y-125680970D01*
X37732150Y-125670480D01*
X37711107Y-125657868D01*
X37691401Y-125643253D01*
X37673223Y-125626777D01*
X37656747Y-125608599D01*
X37642132Y-125588893D01*
X37629520Y-125567850D01*
X37619030Y-125545671D01*
X37610765Y-125522572D01*
X37604804Y-125498773D01*
X37601204Y-125474505D01*
X37600000Y-125450001D01*
X37600000Y-124799999D01*
X37601204Y-124775495D01*
X37604804Y-124751227D01*
X37610765Y-124727428D01*
X37619030Y-124704329D01*
X37629520Y-124682150D01*
X37642132Y-124661107D01*
X37656747Y-124641401D01*
X37673223Y-124623223D01*
X37691401Y-124606747D01*
X37711107Y-124592132D01*
X37732150Y-124579520D01*
X37754329Y-124569030D01*
X37777428Y-124560765D01*
X37801227Y-124554804D01*
X37825495Y-124551204D01*
X37849999Y-124550000D01*
X38750001Y-124550000D01*
X38774505Y-124551204D01*
G37*
G36*
X38774505Y-122501204D02*
G01*
X38798773Y-122504804D01*
X38822572Y-122510765D01*
X38845671Y-122519030D01*
X38867850Y-122529520D01*
X38888893Y-122542132D01*
X38908599Y-122556747D01*
X38926777Y-122573223D01*
X38943253Y-122591401D01*
X38957868Y-122611107D01*
X38970480Y-122632150D01*
X38980970Y-122654329D01*
X38989235Y-122677428D01*
X38995196Y-122701227D01*
X38998796Y-122725495D01*
X39000000Y-122749999D01*
X39000000Y-123400001D01*
X38998796Y-123424505D01*
X38995196Y-123448773D01*
X38989235Y-123472572D01*
X38980970Y-123495671D01*
X38970480Y-123517850D01*
X38957868Y-123538893D01*
X38943253Y-123558599D01*
X38926777Y-123576777D01*
X38908599Y-123593253D01*
X38888893Y-123607868D01*
X38867850Y-123620480D01*
X38845671Y-123630970D01*
X38822572Y-123639235D01*
X38798773Y-123645196D01*
X38774505Y-123648796D01*
X38750001Y-123650000D01*
X37849999Y-123650000D01*
X37825495Y-123648796D01*
X37801227Y-123645196D01*
X37777428Y-123639235D01*
X37754329Y-123630970D01*
X37732150Y-123620480D01*
X37711107Y-123607868D01*
X37691401Y-123593253D01*
X37673223Y-123576777D01*
X37656747Y-123558599D01*
X37642132Y-123538893D01*
X37629520Y-123517850D01*
X37619030Y-123495671D01*
X37610765Y-123472572D01*
X37604804Y-123448773D01*
X37601204Y-123424505D01*
X37600000Y-123400001D01*
X37600000Y-122749999D01*
X37601204Y-122725495D01*
X37604804Y-122701227D01*
X37610765Y-122677428D01*
X37619030Y-122654329D01*
X37629520Y-122632150D01*
X37642132Y-122611107D01*
X37656747Y-122591401D01*
X37673223Y-122573223D01*
X37691401Y-122556747D01*
X37711107Y-122542132D01*
X37732150Y-122529520D01*
X37754329Y-122519030D01*
X37777428Y-122510765D01*
X37801227Y-122504804D01*
X37825495Y-122501204D01*
X37849999Y-122500000D01*
X38750001Y-122500000D01*
X38774505Y-122501204D01*
G37*
G36*
X53674505Y-101701204D02*
G01*
X53698773Y-101704804D01*
X53722572Y-101710765D01*
X53745671Y-101719030D01*
X53767850Y-101729520D01*
X53788893Y-101742132D01*
X53808599Y-101756747D01*
X53826777Y-101773223D01*
X53843253Y-101791401D01*
X53857868Y-101811107D01*
X53870480Y-101832150D01*
X53880970Y-101854329D01*
X53889235Y-101877428D01*
X53895196Y-101901227D01*
X53898796Y-101925495D01*
X53900000Y-101949999D01*
X53900000Y-102850001D01*
X53898796Y-102874505D01*
X53895196Y-102898773D01*
X53889235Y-102922572D01*
X53880970Y-102945671D01*
X53870480Y-102967850D01*
X53857868Y-102988893D01*
X53843253Y-103008599D01*
X53826777Y-103026777D01*
X53808599Y-103043253D01*
X53788893Y-103057868D01*
X53767850Y-103070480D01*
X53745671Y-103080970D01*
X53722572Y-103089235D01*
X53698773Y-103095196D01*
X53674505Y-103098796D01*
X53650001Y-103100000D01*
X52999999Y-103100000D01*
X52975495Y-103098796D01*
X52951227Y-103095196D01*
X52927428Y-103089235D01*
X52904329Y-103080970D01*
X52882150Y-103070480D01*
X52861107Y-103057868D01*
X52841401Y-103043253D01*
X52823223Y-103026777D01*
X52806747Y-103008599D01*
X52792132Y-102988893D01*
X52779520Y-102967850D01*
X52769030Y-102945671D01*
X52760765Y-102922572D01*
X52754804Y-102898773D01*
X52751204Y-102874505D01*
X52750000Y-102850001D01*
X52750000Y-101949999D01*
X52751204Y-101925495D01*
X52754804Y-101901227D01*
X52760765Y-101877428D01*
X52769030Y-101854329D01*
X52779520Y-101832150D01*
X52792132Y-101811107D01*
X52806747Y-101791401D01*
X52823223Y-101773223D01*
X52841401Y-101756747D01*
X52861107Y-101742132D01*
X52882150Y-101729520D01*
X52904329Y-101719030D01*
X52927428Y-101710765D01*
X52951227Y-101704804D01*
X52975495Y-101701204D01*
X52999999Y-101700000D01*
X53650001Y-101700000D01*
X53674505Y-101701204D01*
G37*
G36*
X51624505Y-101701204D02*
G01*
X51648773Y-101704804D01*
X51672572Y-101710765D01*
X51695671Y-101719030D01*
X51717850Y-101729520D01*
X51738893Y-101742132D01*
X51758599Y-101756747D01*
X51776777Y-101773223D01*
X51793253Y-101791401D01*
X51807868Y-101811107D01*
X51820480Y-101832150D01*
X51830970Y-101854329D01*
X51839235Y-101877428D01*
X51845196Y-101901227D01*
X51848796Y-101925495D01*
X51850000Y-101949999D01*
X51850000Y-102850001D01*
X51848796Y-102874505D01*
X51845196Y-102898773D01*
X51839235Y-102922572D01*
X51830970Y-102945671D01*
X51820480Y-102967850D01*
X51807868Y-102988893D01*
X51793253Y-103008599D01*
X51776777Y-103026777D01*
X51758599Y-103043253D01*
X51738893Y-103057868D01*
X51717850Y-103070480D01*
X51695671Y-103080970D01*
X51672572Y-103089235D01*
X51648773Y-103095196D01*
X51624505Y-103098796D01*
X51600001Y-103100000D01*
X50949999Y-103100000D01*
X50925495Y-103098796D01*
X50901227Y-103095196D01*
X50877428Y-103089235D01*
X50854329Y-103080970D01*
X50832150Y-103070480D01*
X50811107Y-103057868D01*
X50791401Y-103043253D01*
X50773223Y-103026777D01*
X50756747Y-103008599D01*
X50742132Y-102988893D01*
X50729520Y-102967850D01*
X50719030Y-102945671D01*
X50710765Y-102922572D01*
X50704804Y-102898773D01*
X50701204Y-102874505D01*
X50700000Y-102850001D01*
X50700000Y-101949999D01*
X50701204Y-101925495D01*
X50704804Y-101901227D01*
X50710765Y-101877428D01*
X50719030Y-101854329D01*
X50729520Y-101832150D01*
X50742132Y-101811107D01*
X50756747Y-101791401D01*
X50773223Y-101773223D01*
X50791401Y-101756747D01*
X50811107Y-101742132D01*
X50832150Y-101729520D01*
X50854329Y-101719030D01*
X50877428Y-101710765D01*
X50901227Y-101704804D01*
X50925495Y-101701204D01*
X50949999Y-101700000D01*
X51600001Y-101700000D01*
X51624505Y-101701204D01*
G37*
G36*
X24399505Y-113801204D02*
G01*
X24423773Y-113804804D01*
X24447572Y-113810765D01*
X24470671Y-113819030D01*
X24492850Y-113829520D01*
X24513893Y-113842132D01*
X24533599Y-113856747D01*
X24551777Y-113873223D01*
X24568253Y-113891401D01*
X24582868Y-113911107D01*
X24595480Y-113932150D01*
X24605970Y-113954329D01*
X24614235Y-113977428D01*
X24620196Y-114001227D01*
X24623796Y-114025495D01*
X24625000Y-114049999D01*
X24625000Y-114950001D01*
X24623796Y-114974505D01*
X24620196Y-114998773D01*
X24614235Y-115022572D01*
X24605970Y-115045671D01*
X24595480Y-115067850D01*
X24582868Y-115088893D01*
X24568253Y-115108599D01*
X24551777Y-115126777D01*
X24533599Y-115143253D01*
X24513893Y-115157868D01*
X24492850Y-115170480D01*
X24470671Y-115180970D01*
X24447572Y-115189235D01*
X24423773Y-115195196D01*
X24399505Y-115198796D01*
X24375001Y-115200000D01*
X23724999Y-115200000D01*
X23700495Y-115198796D01*
X23676227Y-115195196D01*
X23652428Y-115189235D01*
X23629329Y-115180970D01*
X23607150Y-115170480D01*
X23586107Y-115157868D01*
X23566401Y-115143253D01*
X23548223Y-115126777D01*
X23531747Y-115108599D01*
X23517132Y-115088893D01*
X23504520Y-115067850D01*
X23494030Y-115045671D01*
X23485765Y-115022572D01*
X23479804Y-114998773D01*
X23476204Y-114974505D01*
X23475000Y-114950001D01*
X23475000Y-114049999D01*
X23476204Y-114025495D01*
X23479804Y-114001227D01*
X23485765Y-113977428D01*
X23494030Y-113954329D01*
X23504520Y-113932150D01*
X23517132Y-113911107D01*
X23531747Y-113891401D01*
X23548223Y-113873223D01*
X23566401Y-113856747D01*
X23586107Y-113842132D01*
X23607150Y-113829520D01*
X23629329Y-113819030D01*
X23652428Y-113810765D01*
X23676227Y-113804804D01*
X23700495Y-113801204D01*
X23724999Y-113800000D01*
X24375001Y-113800000D01*
X24399505Y-113801204D01*
G37*
G36*
X22349505Y-113801204D02*
G01*
X22373773Y-113804804D01*
X22397572Y-113810765D01*
X22420671Y-113819030D01*
X22442850Y-113829520D01*
X22463893Y-113842132D01*
X22483599Y-113856747D01*
X22501777Y-113873223D01*
X22518253Y-113891401D01*
X22532868Y-113911107D01*
X22545480Y-113932150D01*
X22555970Y-113954329D01*
X22564235Y-113977428D01*
X22570196Y-114001227D01*
X22573796Y-114025495D01*
X22575000Y-114049999D01*
X22575000Y-114950001D01*
X22573796Y-114974505D01*
X22570196Y-114998773D01*
X22564235Y-115022572D01*
X22555970Y-115045671D01*
X22545480Y-115067850D01*
X22532868Y-115088893D01*
X22518253Y-115108599D01*
X22501777Y-115126777D01*
X22483599Y-115143253D01*
X22463893Y-115157868D01*
X22442850Y-115170480D01*
X22420671Y-115180970D01*
X22397572Y-115189235D01*
X22373773Y-115195196D01*
X22349505Y-115198796D01*
X22325001Y-115200000D01*
X21674999Y-115200000D01*
X21650495Y-115198796D01*
X21626227Y-115195196D01*
X21602428Y-115189235D01*
X21579329Y-115180970D01*
X21557150Y-115170480D01*
X21536107Y-115157868D01*
X21516401Y-115143253D01*
X21498223Y-115126777D01*
X21481747Y-115108599D01*
X21467132Y-115088893D01*
X21454520Y-115067850D01*
X21444030Y-115045671D01*
X21435765Y-115022572D01*
X21429804Y-114998773D01*
X21426204Y-114974505D01*
X21425000Y-114950001D01*
X21425000Y-114049999D01*
X21426204Y-114025495D01*
X21429804Y-114001227D01*
X21435765Y-113977428D01*
X21444030Y-113954329D01*
X21454520Y-113932150D01*
X21467132Y-113911107D01*
X21481747Y-113891401D01*
X21498223Y-113873223D01*
X21516401Y-113856747D01*
X21536107Y-113842132D01*
X21557150Y-113829520D01*
X21579329Y-113819030D01*
X21602428Y-113810765D01*
X21626227Y-113804804D01*
X21650495Y-113801204D01*
X21674999Y-113800000D01*
X22325001Y-113800000D01*
X22349505Y-113801204D01*
G37*
M02*
