G04 #@! TF.GenerationSoftware,KiCad,Pcbnew,(5.1.5-0-10_14)*
G04 #@! TF.CreationDate,2020-08-26T20:56:13+02:00*
G04 #@! TF.ProjectId,HB-RC-4-Dis-TH,48422d52-432d-4342-9d44-69732d54482e,rev?*
G04 #@! TF.SameCoordinates,Original*
G04 #@! TF.FileFunction,Profile,NP*
%FSLAX46Y46*%
G04 Gerber Fmt 4.6, Leading zero omitted, Abs format (unit mm)*
G04 Created by KiCad (PCBNEW (5.1.5-0-10_14)) date 2020-08-26 20:56:13*
%MOMM*%
%LPD*%
G04 APERTURE LIST*
%ADD10C,0.050000*%
%ADD11C,0.120000*%
G04 APERTURE END LIST*
D10*
X26800000Y-107450000D02*
G75*
G02X25200000Y-107450000I-800000J0D01*
G01*
X25200000Y-101550000D02*
G75*
G02X26800000Y-101550000I800000J0D01*
G01*
X21300000Y-131000000D02*
G75*
G02X21000000Y-130700000I0J300000D01*
G01*
X72000000Y-130700000D02*
G75*
G02X71700000Y-131000000I-300000J0D01*
G01*
X71700000Y-80000000D02*
G75*
G02X72000000Y-80300000I0J-300000D01*
G01*
X21000000Y-80300000D02*
G75*
G02X21300000Y-80000000I300000J0D01*
G01*
X23700000Y-101600000D02*
G75*
G02X24000000Y-101900000I0J-300000D01*
G01*
X21300000Y-101600000D02*
G75*
G02X21000000Y-101300000I0J300000D01*
G01*
X24000000Y-111460000D02*
G75*
G02X23700000Y-111760000I-300000J0D01*
G01*
X21000000Y-112060000D02*
G75*
G02X21300000Y-111760000I300000J0D01*
G01*
X71700000Y-111760000D02*
G75*
G02X72000000Y-112060000I0J-300000D01*
G01*
X69300000Y-111760000D02*
G75*
G02X69000000Y-111460000I0J300000D01*
G01*
X72000000Y-101300000D02*
G75*
G02X71700000Y-101600000I-300000J0D01*
G01*
X69000000Y-101900000D02*
G75*
G02X69300000Y-101600000I300000J0D01*
G01*
X69000000Y-111460000D02*
X69000000Y-101900000D01*
X71700000Y-111760000D02*
X69300000Y-111760000D01*
X72000000Y-130700000D02*
X72000000Y-112060000D01*
X71700000Y-101600000D02*
X69300000Y-101600000D01*
X72000000Y-80300000D02*
X72000000Y-101300000D01*
X21300000Y-101600000D02*
X23700000Y-101600000D01*
X24000000Y-111460000D02*
X24000000Y-101900000D01*
X21300000Y-111760000D02*
X23700000Y-111760000D01*
X21000000Y-130700000D02*
X21000000Y-112060000D01*
X21000000Y-80300000D02*
X21000000Y-101300000D01*
X25200000Y-107450000D02*
X25200000Y-101550000D01*
X26800000Y-101550000D02*
X26800000Y-107450000D01*
D11*
X41800000Y-118000000D02*
G75*
G03X41800000Y-118000000I-1500000J0D01*
G01*
X66800000Y-118000000D02*
G75*
G03X66800000Y-118000000I-1500000J0D01*
G01*
X41800000Y-93000000D02*
G75*
G03X41800000Y-93000000I-1500000J0D01*
G01*
X66800000Y-93000000D02*
G75*
G03X66800000Y-93000000I-1500000J0D01*
G01*
D10*
X21300000Y-80000000D02*
X71700000Y-80000000D01*
X71700000Y-131000000D02*
X21300000Y-131000000D01*
M02*
