G04 #@! TF.GenerationSoftware,KiCad,Pcbnew,(5.1.5-0-10_14)*
G04 #@! TF.CreationDate,2020-08-15T08:38:21+02:00*
G04 #@! TF.ProjectId,HB-RC-4-Dis-TH,48422d52-432d-4342-9d44-69732d54482e,rev?*
G04 #@! TF.SameCoordinates,Original*
G04 #@! TF.FileFunction,Paste,Bot*
G04 #@! TF.FilePolarity,Positive*
%FSLAX46Y46*%
G04 Gerber Fmt 4.6, Leading zero omitted, Abs format (unit mm)*
G04 Created by KiCad (PCBNEW (5.1.5-0-10_14)) date 2020-08-15 08:38:21*
%MOMM*%
%LPD*%
G04 APERTURE LIST*
%ADD10R,2.500000X3.200000*%
%ADD11C,0.100000*%
%ADD12R,0.800000X0.900000*%
%ADD13R,3.400000X1.300000*%
%ADD14R,0.900000X1.200000*%
%ADD15R,1.500000X0.550000*%
%ADD16R,0.550000X1.500000*%
G04 APERTURE END LIST*
D10*
X69200000Y-116700000D03*
X69200000Y-121000000D03*
D11*
G36*
X30574505Y-91551204D02*
G01*
X30598773Y-91554804D01*
X30622572Y-91560765D01*
X30645671Y-91569030D01*
X30667850Y-91579520D01*
X30688893Y-91592132D01*
X30708599Y-91606747D01*
X30726777Y-91623223D01*
X30743253Y-91641401D01*
X30757868Y-91661107D01*
X30770480Y-91682150D01*
X30780970Y-91704329D01*
X30789235Y-91727428D01*
X30795196Y-91751227D01*
X30798796Y-91775495D01*
X30800000Y-91799999D01*
X30800000Y-92700001D01*
X30798796Y-92724505D01*
X30795196Y-92748773D01*
X30789235Y-92772572D01*
X30780970Y-92795671D01*
X30770480Y-92817850D01*
X30757868Y-92838893D01*
X30743253Y-92858599D01*
X30726777Y-92876777D01*
X30708599Y-92893253D01*
X30688893Y-92907868D01*
X30667850Y-92920480D01*
X30645671Y-92930970D01*
X30622572Y-92939235D01*
X30598773Y-92945196D01*
X30574505Y-92948796D01*
X30550001Y-92950000D01*
X29899999Y-92950000D01*
X29875495Y-92948796D01*
X29851227Y-92945196D01*
X29827428Y-92939235D01*
X29804329Y-92930970D01*
X29782150Y-92920480D01*
X29761107Y-92907868D01*
X29741401Y-92893253D01*
X29723223Y-92876777D01*
X29706747Y-92858599D01*
X29692132Y-92838893D01*
X29679520Y-92817850D01*
X29669030Y-92795671D01*
X29660765Y-92772572D01*
X29654804Y-92748773D01*
X29651204Y-92724505D01*
X29650000Y-92700001D01*
X29650000Y-91799999D01*
X29651204Y-91775495D01*
X29654804Y-91751227D01*
X29660765Y-91727428D01*
X29669030Y-91704329D01*
X29679520Y-91682150D01*
X29692132Y-91661107D01*
X29706747Y-91641401D01*
X29723223Y-91623223D01*
X29741401Y-91606747D01*
X29761107Y-91592132D01*
X29782150Y-91579520D01*
X29804329Y-91569030D01*
X29827428Y-91560765D01*
X29851227Y-91554804D01*
X29875495Y-91551204D01*
X29899999Y-91550000D01*
X30550001Y-91550000D01*
X30574505Y-91551204D01*
G37*
G36*
X32624505Y-91551204D02*
G01*
X32648773Y-91554804D01*
X32672572Y-91560765D01*
X32695671Y-91569030D01*
X32717850Y-91579520D01*
X32738893Y-91592132D01*
X32758599Y-91606747D01*
X32776777Y-91623223D01*
X32793253Y-91641401D01*
X32807868Y-91661107D01*
X32820480Y-91682150D01*
X32830970Y-91704329D01*
X32839235Y-91727428D01*
X32845196Y-91751227D01*
X32848796Y-91775495D01*
X32850000Y-91799999D01*
X32850000Y-92700001D01*
X32848796Y-92724505D01*
X32845196Y-92748773D01*
X32839235Y-92772572D01*
X32830970Y-92795671D01*
X32820480Y-92817850D01*
X32807868Y-92838893D01*
X32793253Y-92858599D01*
X32776777Y-92876777D01*
X32758599Y-92893253D01*
X32738893Y-92907868D01*
X32717850Y-92920480D01*
X32695671Y-92930970D01*
X32672572Y-92939235D01*
X32648773Y-92945196D01*
X32624505Y-92948796D01*
X32600001Y-92950000D01*
X31949999Y-92950000D01*
X31925495Y-92948796D01*
X31901227Y-92945196D01*
X31877428Y-92939235D01*
X31854329Y-92930970D01*
X31832150Y-92920480D01*
X31811107Y-92907868D01*
X31791401Y-92893253D01*
X31773223Y-92876777D01*
X31756747Y-92858599D01*
X31742132Y-92838893D01*
X31729520Y-92817850D01*
X31719030Y-92795671D01*
X31710765Y-92772572D01*
X31704804Y-92748773D01*
X31701204Y-92724505D01*
X31700000Y-92700001D01*
X31700000Y-91799999D01*
X31701204Y-91775495D01*
X31704804Y-91751227D01*
X31710765Y-91727428D01*
X31719030Y-91704329D01*
X31729520Y-91682150D01*
X31742132Y-91661107D01*
X31756747Y-91641401D01*
X31773223Y-91623223D01*
X31791401Y-91606747D01*
X31811107Y-91592132D01*
X31832150Y-91579520D01*
X31854329Y-91569030D01*
X31877428Y-91560765D01*
X31901227Y-91554804D01*
X31925495Y-91551204D01*
X31949999Y-91550000D01*
X32600001Y-91550000D01*
X32624505Y-91551204D01*
G37*
G36*
X55124505Y-121301204D02*
G01*
X55148773Y-121304804D01*
X55172572Y-121310765D01*
X55195671Y-121319030D01*
X55217850Y-121329520D01*
X55238893Y-121342132D01*
X55258599Y-121356747D01*
X55276777Y-121373223D01*
X55293253Y-121391401D01*
X55307868Y-121411107D01*
X55320480Y-121432150D01*
X55330970Y-121454329D01*
X55339235Y-121477428D01*
X55345196Y-121501227D01*
X55348796Y-121525495D01*
X55350000Y-121549999D01*
X55350000Y-122450001D01*
X55348796Y-122474505D01*
X55345196Y-122498773D01*
X55339235Y-122522572D01*
X55330970Y-122545671D01*
X55320480Y-122567850D01*
X55307868Y-122588893D01*
X55293253Y-122608599D01*
X55276777Y-122626777D01*
X55258599Y-122643253D01*
X55238893Y-122657868D01*
X55217850Y-122670480D01*
X55195671Y-122680970D01*
X55172572Y-122689235D01*
X55148773Y-122695196D01*
X55124505Y-122698796D01*
X55100001Y-122700000D01*
X54449999Y-122700000D01*
X54425495Y-122698796D01*
X54401227Y-122695196D01*
X54377428Y-122689235D01*
X54354329Y-122680970D01*
X54332150Y-122670480D01*
X54311107Y-122657868D01*
X54291401Y-122643253D01*
X54273223Y-122626777D01*
X54256747Y-122608599D01*
X54242132Y-122588893D01*
X54229520Y-122567850D01*
X54219030Y-122545671D01*
X54210765Y-122522572D01*
X54204804Y-122498773D01*
X54201204Y-122474505D01*
X54200000Y-122450001D01*
X54200000Y-121549999D01*
X54201204Y-121525495D01*
X54204804Y-121501227D01*
X54210765Y-121477428D01*
X54219030Y-121454329D01*
X54229520Y-121432150D01*
X54242132Y-121411107D01*
X54256747Y-121391401D01*
X54273223Y-121373223D01*
X54291401Y-121356747D01*
X54311107Y-121342132D01*
X54332150Y-121329520D01*
X54354329Y-121319030D01*
X54377428Y-121310765D01*
X54401227Y-121304804D01*
X54425495Y-121301204D01*
X54449999Y-121300000D01*
X55100001Y-121300000D01*
X55124505Y-121301204D01*
G37*
G36*
X57174505Y-121301204D02*
G01*
X57198773Y-121304804D01*
X57222572Y-121310765D01*
X57245671Y-121319030D01*
X57267850Y-121329520D01*
X57288893Y-121342132D01*
X57308599Y-121356747D01*
X57326777Y-121373223D01*
X57343253Y-121391401D01*
X57357868Y-121411107D01*
X57370480Y-121432150D01*
X57380970Y-121454329D01*
X57389235Y-121477428D01*
X57395196Y-121501227D01*
X57398796Y-121525495D01*
X57400000Y-121549999D01*
X57400000Y-122450001D01*
X57398796Y-122474505D01*
X57395196Y-122498773D01*
X57389235Y-122522572D01*
X57380970Y-122545671D01*
X57370480Y-122567850D01*
X57357868Y-122588893D01*
X57343253Y-122608599D01*
X57326777Y-122626777D01*
X57308599Y-122643253D01*
X57288893Y-122657868D01*
X57267850Y-122670480D01*
X57245671Y-122680970D01*
X57222572Y-122689235D01*
X57198773Y-122695196D01*
X57174505Y-122698796D01*
X57150001Y-122700000D01*
X56499999Y-122700000D01*
X56475495Y-122698796D01*
X56451227Y-122695196D01*
X56427428Y-122689235D01*
X56404329Y-122680970D01*
X56382150Y-122670480D01*
X56361107Y-122657868D01*
X56341401Y-122643253D01*
X56323223Y-122626777D01*
X56306747Y-122608599D01*
X56292132Y-122588893D01*
X56279520Y-122567850D01*
X56269030Y-122545671D01*
X56260765Y-122522572D01*
X56254804Y-122498773D01*
X56251204Y-122474505D01*
X56250000Y-122450001D01*
X56250000Y-121549999D01*
X56251204Y-121525495D01*
X56254804Y-121501227D01*
X56260765Y-121477428D01*
X56269030Y-121454329D01*
X56279520Y-121432150D01*
X56292132Y-121411107D01*
X56306747Y-121391401D01*
X56323223Y-121373223D01*
X56341401Y-121356747D01*
X56361107Y-121342132D01*
X56382150Y-121329520D01*
X56404329Y-121319030D01*
X56427428Y-121310765D01*
X56451227Y-121304804D01*
X56475495Y-121301204D01*
X56499999Y-121300000D01*
X57150001Y-121300000D01*
X57174505Y-121301204D01*
G37*
G36*
X43124505Y-100501204D02*
G01*
X43148773Y-100504804D01*
X43172572Y-100510765D01*
X43195671Y-100519030D01*
X43217850Y-100529520D01*
X43238893Y-100542132D01*
X43258599Y-100556747D01*
X43276777Y-100573223D01*
X43293253Y-100591401D01*
X43307868Y-100611107D01*
X43320480Y-100632150D01*
X43330970Y-100654329D01*
X43339235Y-100677428D01*
X43345196Y-100701227D01*
X43348796Y-100725495D01*
X43350000Y-100749999D01*
X43350000Y-101650001D01*
X43348796Y-101674505D01*
X43345196Y-101698773D01*
X43339235Y-101722572D01*
X43330970Y-101745671D01*
X43320480Y-101767850D01*
X43307868Y-101788893D01*
X43293253Y-101808599D01*
X43276777Y-101826777D01*
X43258599Y-101843253D01*
X43238893Y-101857868D01*
X43217850Y-101870480D01*
X43195671Y-101880970D01*
X43172572Y-101889235D01*
X43148773Y-101895196D01*
X43124505Y-101898796D01*
X43100001Y-101900000D01*
X42449999Y-101900000D01*
X42425495Y-101898796D01*
X42401227Y-101895196D01*
X42377428Y-101889235D01*
X42354329Y-101880970D01*
X42332150Y-101870480D01*
X42311107Y-101857868D01*
X42291401Y-101843253D01*
X42273223Y-101826777D01*
X42256747Y-101808599D01*
X42242132Y-101788893D01*
X42229520Y-101767850D01*
X42219030Y-101745671D01*
X42210765Y-101722572D01*
X42204804Y-101698773D01*
X42201204Y-101674505D01*
X42200000Y-101650001D01*
X42200000Y-100749999D01*
X42201204Y-100725495D01*
X42204804Y-100701227D01*
X42210765Y-100677428D01*
X42219030Y-100654329D01*
X42229520Y-100632150D01*
X42242132Y-100611107D01*
X42256747Y-100591401D01*
X42273223Y-100573223D01*
X42291401Y-100556747D01*
X42311107Y-100542132D01*
X42332150Y-100529520D01*
X42354329Y-100519030D01*
X42377428Y-100510765D01*
X42401227Y-100504804D01*
X42425495Y-100501204D01*
X42449999Y-100500000D01*
X43100001Y-100500000D01*
X43124505Y-100501204D01*
G37*
G36*
X45174505Y-100501204D02*
G01*
X45198773Y-100504804D01*
X45222572Y-100510765D01*
X45245671Y-100519030D01*
X45267850Y-100529520D01*
X45288893Y-100542132D01*
X45308599Y-100556747D01*
X45326777Y-100573223D01*
X45343253Y-100591401D01*
X45357868Y-100611107D01*
X45370480Y-100632150D01*
X45380970Y-100654329D01*
X45389235Y-100677428D01*
X45395196Y-100701227D01*
X45398796Y-100725495D01*
X45400000Y-100749999D01*
X45400000Y-101650001D01*
X45398796Y-101674505D01*
X45395196Y-101698773D01*
X45389235Y-101722572D01*
X45380970Y-101745671D01*
X45370480Y-101767850D01*
X45357868Y-101788893D01*
X45343253Y-101808599D01*
X45326777Y-101826777D01*
X45308599Y-101843253D01*
X45288893Y-101857868D01*
X45267850Y-101870480D01*
X45245671Y-101880970D01*
X45222572Y-101889235D01*
X45198773Y-101895196D01*
X45174505Y-101898796D01*
X45150001Y-101900000D01*
X44499999Y-101900000D01*
X44475495Y-101898796D01*
X44451227Y-101895196D01*
X44427428Y-101889235D01*
X44404329Y-101880970D01*
X44382150Y-101870480D01*
X44361107Y-101857868D01*
X44341401Y-101843253D01*
X44323223Y-101826777D01*
X44306747Y-101808599D01*
X44292132Y-101788893D01*
X44279520Y-101767850D01*
X44269030Y-101745671D01*
X44260765Y-101722572D01*
X44254804Y-101698773D01*
X44251204Y-101674505D01*
X44250000Y-101650001D01*
X44250000Y-100749999D01*
X44251204Y-100725495D01*
X44254804Y-100701227D01*
X44260765Y-100677428D01*
X44269030Y-100654329D01*
X44279520Y-100632150D01*
X44292132Y-100611107D01*
X44306747Y-100591401D01*
X44323223Y-100573223D01*
X44341401Y-100556747D01*
X44361107Y-100542132D01*
X44382150Y-100529520D01*
X44404329Y-100519030D01*
X44427428Y-100510765D01*
X44451227Y-100504804D01*
X44475495Y-100501204D01*
X44499999Y-100500000D01*
X45150001Y-100500000D01*
X45174505Y-100501204D01*
G37*
D12*
X64100000Y-106300000D03*
X65050000Y-104300000D03*
X63150000Y-104300000D03*
D13*
X64100000Y-111350000D03*
X64100000Y-109250000D03*
D14*
X57550000Y-110000000D03*
X54250000Y-110000000D03*
X54250000Y-107500000D03*
X57550000Y-107500000D03*
X54250000Y-105000000D03*
X57550000Y-105000000D03*
D11*
G36*
X44974505Y-118501204D02*
G01*
X44998773Y-118504804D01*
X45022572Y-118510765D01*
X45045671Y-118519030D01*
X45067850Y-118529520D01*
X45088893Y-118542132D01*
X45108599Y-118556747D01*
X45126777Y-118573223D01*
X45143253Y-118591401D01*
X45157868Y-118611107D01*
X45170480Y-118632150D01*
X45180970Y-118654329D01*
X45189235Y-118677428D01*
X45195196Y-118701227D01*
X45198796Y-118725495D01*
X45200000Y-118749999D01*
X45200000Y-119650001D01*
X45198796Y-119674505D01*
X45195196Y-119698773D01*
X45189235Y-119722572D01*
X45180970Y-119745671D01*
X45170480Y-119767850D01*
X45157868Y-119788893D01*
X45143253Y-119808599D01*
X45126777Y-119826777D01*
X45108599Y-119843253D01*
X45088893Y-119857868D01*
X45067850Y-119870480D01*
X45045671Y-119880970D01*
X45022572Y-119889235D01*
X44998773Y-119895196D01*
X44974505Y-119898796D01*
X44950001Y-119900000D01*
X44299999Y-119900000D01*
X44275495Y-119898796D01*
X44251227Y-119895196D01*
X44227428Y-119889235D01*
X44204329Y-119880970D01*
X44182150Y-119870480D01*
X44161107Y-119857868D01*
X44141401Y-119843253D01*
X44123223Y-119826777D01*
X44106747Y-119808599D01*
X44092132Y-119788893D01*
X44079520Y-119767850D01*
X44069030Y-119745671D01*
X44060765Y-119722572D01*
X44054804Y-119698773D01*
X44051204Y-119674505D01*
X44050000Y-119650001D01*
X44050000Y-118749999D01*
X44051204Y-118725495D01*
X44054804Y-118701227D01*
X44060765Y-118677428D01*
X44069030Y-118654329D01*
X44079520Y-118632150D01*
X44092132Y-118611107D01*
X44106747Y-118591401D01*
X44123223Y-118573223D01*
X44141401Y-118556747D01*
X44161107Y-118542132D01*
X44182150Y-118529520D01*
X44204329Y-118519030D01*
X44227428Y-118510765D01*
X44251227Y-118504804D01*
X44275495Y-118501204D01*
X44299999Y-118500000D01*
X44950001Y-118500000D01*
X44974505Y-118501204D01*
G37*
G36*
X42924505Y-118501204D02*
G01*
X42948773Y-118504804D01*
X42972572Y-118510765D01*
X42995671Y-118519030D01*
X43017850Y-118529520D01*
X43038893Y-118542132D01*
X43058599Y-118556747D01*
X43076777Y-118573223D01*
X43093253Y-118591401D01*
X43107868Y-118611107D01*
X43120480Y-118632150D01*
X43130970Y-118654329D01*
X43139235Y-118677428D01*
X43145196Y-118701227D01*
X43148796Y-118725495D01*
X43150000Y-118749999D01*
X43150000Y-119650001D01*
X43148796Y-119674505D01*
X43145196Y-119698773D01*
X43139235Y-119722572D01*
X43130970Y-119745671D01*
X43120480Y-119767850D01*
X43107868Y-119788893D01*
X43093253Y-119808599D01*
X43076777Y-119826777D01*
X43058599Y-119843253D01*
X43038893Y-119857868D01*
X43017850Y-119870480D01*
X42995671Y-119880970D01*
X42972572Y-119889235D01*
X42948773Y-119895196D01*
X42924505Y-119898796D01*
X42900001Y-119900000D01*
X42249999Y-119900000D01*
X42225495Y-119898796D01*
X42201227Y-119895196D01*
X42177428Y-119889235D01*
X42154329Y-119880970D01*
X42132150Y-119870480D01*
X42111107Y-119857868D01*
X42091401Y-119843253D01*
X42073223Y-119826777D01*
X42056747Y-119808599D01*
X42042132Y-119788893D01*
X42029520Y-119767850D01*
X42019030Y-119745671D01*
X42010765Y-119722572D01*
X42004804Y-119698773D01*
X42001204Y-119674505D01*
X42000000Y-119650001D01*
X42000000Y-118749999D01*
X42001204Y-118725495D01*
X42004804Y-118701227D01*
X42010765Y-118677428D01*
X42019030Y-118654329D01*
X42029520Y-118632150D01*
X42042132Y-118611107D01*
X42056747Y-118591401D01*
X42073223Y-118573223D01*
X42091401Y-118556747D01*
X42111107Y-118542132D01*
X42132150Y-118529520D01*
X42154329Y-118519030D01*
X42177428Y-118510765D01*
X42201227Y-118504804D01*
X42225495Y-118501204D01*
X42249999Y-118500000D01*
X42900001Y-118500000D01*
X42924505Y-118501204D01*
G37*
G36*
X59574505Y-101501204D02*
G01*
X59598773Y-101504804D01*
X59622572Y-101510765D01*
X59645671Y-101519030D01*
X59667850Y-101529520D01*
X59688893Y-101542132D01*
X59708599Y-101556747D01*
X59726777Y-101573223D01*
X59743253Y-101591401D01*
X59757868Y-101611107D01*
X59770480Y-101632150D01*
X59780970Y-101654329D01*
X59789235Y-101677428D01*
X59795196Y-101701227D01*
X59798796Y-101725495D01*
X59800000Y-101749999D01*
X59800000Y-102650001D01*
X59798796Y-102674505D01*
X59795196Y-102698773D01*
X59789235Y-102722572D01*
X59780970Y-102745671D01*
X59770480Y-102767850D01*
X59757868Y-102788893D01*
X59743253Y-102808599D01*
X59726777Y-102826777D01*
X59708599Y-102843253D01*
X59688893Y-102857868D01*
X59667850Y-102870480D01*
X59645671Y-102880970D01*
X59622572Y-102889235D01*
X59598773Y-102895196D01*
X59574505Y-102898796D01*
X59550001Y-102900000D01*
X58899999Y-102900000D01*
X58875495Y-102898796D01*
X58851227Y-102895196D01*
X58827428Y-102889235D01*
X58804329Y-102880970D01*
X58782150Y-102870480D01*
X58761107Y-102857868D01*
X58741401Y-102843253D01*
X58723223Y-102826777D01*
X58706747Y-102808599D01*
X58692132Y-102788893D01*
X58679520Y-102767850D01*
X58669030Y-102745671D01*
X58660765Y-102722572D01*
X58654804Y-102698773D01*
X58651204Y-102674505D01*
X58650000Y-102650001D01*
X58650000Y-101749999D01*
X58651204Y-101725495D01*
X58654804Y-101701227D01*
X58660765Y-101677428D01*
X58669030Y-101654329D01*
X58679520Y-101632150D01*
X58692132Y-101611107D01*
X58706747Y-101591401D01*
X58723223Y-101573223D01*
X58741401Y-101556747D01*
X58761107Y-101542132D01*
X58782150Y-101529520D01*
X58804329Y-101519030D01*
X58827428Y-101510765D01*
X58851227Y-101504804D01*
X58875495Y-101501204D01*
X58899999Y-101500000D01*
X59550001Y-101500000D01*
X59574505Y-101501204D01*
G37*
G36*
X57524505Y-101501204D02*
G01*
X57548773Y-101504804D01*
X57572572Y-101510765D01*
X57595671Y-101519030D01*
X57617850Y-101529520D01*
X57638893Y-101542132D01*
X57658599Y-101556747D01*
X57676777Y-101573223D01*
X57693253Y-101591401D01*
X57707868Y-101611107D01*
X57720480Y-101632150D01*
X57730970Y-101654329D01*
X57739235Y-101677428D01*
X57745196Y-101701227D01*
X57748796Y-101725495D01*
X57750000Y-101749999D01*
X57750000Y-102650001D01*
X57748796Y-102674505D01*
X57745196Y-102698773D01*
X57739235Y-102722572D01*
X57730970Y-102745671D01*
X57720480Y-102767850D01*
X57707868Y-102788893D01*
X57693253Y-102808599D01*
X57676777Y-102826777D01*
X57658599Y-102843253D01*
X57638893Y-102857868D01*
X57617850Y-102870480D01*
X57595671Y-102880970D01*
X57572572Y-102889235D01*
X57548773Y-102895196D01*
X57524505Y-102898796D01*
X57500001Y-102900000D01*
X56849999Y-102900000D01*
X56825495Y-102898796D01*
X56801227Y-102895196D01*
X56777428Y-102889235D01*
X56754329Y-102880970D01*
X56732150Y-102870480D01*
X56711107Y-102857868D01*
X56691401Y-102843253D01*
X56673223Y-102826777D01*
X56656747Y-102808599D01*
X56642132Y-102788893D01*
X56629520Y-102767850D01*
X56619030Y-102745671D01*
X56610765Y-102722572D01*
X56604804Y-102698773D01*
X56601204Y-102674505D01*
X56600000Y-102650001D01*
X56600000Y-101749999D01*
X56601204Y-101725495D01*
X56604804Y-101701227D01*
X56610765Y-101677428D01*
X56619030Y-101654329D01*
X56629520Y-101632150D01*
X56642132Y-101611107D01*
X56656747Y-101591401D01*
X56673223Y-101573223D01*
X56691401Y-101556747D01*
X56711107Y-101542132D01*
X56732150Y-101529520D01*
X56754329Y-101519030D01*
X56777428Y-101510765D01*
X56801227Y-101504804D01*
X56825495Y-101501204D01*
X56849999Y-101500000D01*
X57500001Y-101500000D01*
X57524505Y-101501204D01*
G37*
G36*
X52574505Y-101451204D02*
G01*
X52598773Y-101454804D01*
X52622572Y-101460765D01*
X52645671Y-101469030D01*
X52667850Y-101479520D01*
X52688893Y-101492132D01*
X52708599Y-101506747D01*
X52726777Y-101523223D01*
X52743253Y-101541401D01*
X52757868Y-101561107D01*
X52770480Y-101582150D01*
X52780970Y-101604329D01*
X52789235Y-101627428D01*
X52795196Y-101651227D01*
X52798796Y-101675495D01*
X52800000Y-101699999D01*
X52800000Y-102600001D01*
X52798796Y-102624505D01*
X52795196Y-102648773D01*
X52789235Y-102672572D01*
X52780970Y-102695671D01*
X52770480Y-102717850D01*
X52757868Y-102738893D01*
X52743253Y-102758599D01*
X52726777Y-102776777D01*
X52708599Y-102793253D01*
X52688893Y-102807868D01*
X52667850Y-102820480D01*
X52645671Y-102830970D01*
X52622572Y-102839235D01*
X52598773Y-102845196D01*
X52574505Y-102848796D01*
X52550001Y-102850000D01*
X51899999Y-102850000D01*
X51875495Y-102848796D01*
X51851227Y-102845196D01*
X51827428Y-102839235D01*
X51804329Y-102830970D01*
X51782150Y-102820480D01*
X51761107Y-102807868D01*
X51741401Y-102793253D01*
X51723223Y-102776777D01*
X51706747Y-102758599D01*
X51692132Y-102738893D01*
X51679520Y-102717850D01*
X51669030Y-102695671D01*
X51660765Y-102672572D01*
X51654804Y-102648773D01*
X51651204Y-102624505D01*
X51650000Y-102600001D01*
X51650000Y-101699999D01*
X51651204Y-101675495D01*
X51654804Y-101651227D01*
X51660765Y-101627428D01*
X51669030Y-101604329D01*
X51679520Y-101582150D01*
X51692132Y-101561107D01*
X51706747Y-101541401D01*
X51723223Y-101523223D01*
X51741401Y-101506747D01*
X51761107Y-101492132D01*
X51782150Y-101479520D01*
X51804329Y-101469030D01*
X51827428Y-101460765D01*
X51851227Y-101454804D01*
X51875495Y-101451204D01*
X51899999Y-101450000D01*
X52550001Y-101450000D01*
X52574505Y-101451204D01*
G37*
G36*
X50524505Y-101451204D02*
G01*
X50548773Y-101454804D01*
X50572572Y-101460765D01*
X50595671Y-101469030D01*
X50617850Y-101479520D01*
X50638893Y-101492132D01*
X50658599Y-101506747D01*
X50676777Y-101523223D01*
X50693253Y-101541401D01*
X50707868Y-101561107D01*
X50720480Y-101582150D01*
X50730970Y-101604329D01*
X50739235Y-101627428D01*
X50745196Y-101651227D01*
X50748796Y-101675495D01*
X50750000Y-101699999D01*
X50750000Y-102600001D01*
X50748796Y-102624505D01*
X50745196Y-102648773D01*
X50739235Y-102672572D01*
X50730970Y-102695671D01*
X50720480Y-102717850D01*
X50707868Y-102738893D01*
X50693253Y-102758599D01*
X50676777Y-102776777D01*
X50658599Y-102793253D01*
X50638893Y-102807868D01*
X50617850Y-102820480D01*
X50595671Y-102830970D01*
X50572572Y-102839235D01*
X50548773Y-102845196D01*
X50524505Y-102848796D01*
X50500001Y-102850000D01*
X49849999Y-102850000D01*
X49825495Y-102848796D01*
X49801227Y-102845196D01*
X49777428Y-102839235D01*
X49754329Y-102830970D01*
X49732150Y-102820480D01*
X49711107Y-102807868D01*
X49691401Y-102793253D01*
X49673223Y-102776777D01*
X49656747Y-102758599D01*
X49642132Y-102738893D01*
X49629520Y-102717850D01*
X49619030Y-102695671D01*
X49610765Y-102672572D01*
X49604804Y-102648773D01*
X49601204Y-102624505D01*
X49600000Y-102600001D01*
X49600000Y-101699999D01*
X49601204Y-101675495D01*
X49604804Y-101651227D01*
X49610765Y-101627428D01*
X49619030Y-101604329D01*
X49629520Y-101582150D01*
X49642132Y-101561107D01*
X49656747Y-101541401D01*
X49673223Y-101523223D01*
X49691401Y-101506747D01*
X49711107Y-101492132D01*
X49732150Y-101479520D01*
X49754329Y-101469030D01*
X49777428Y-101460765D01*
X49801227Y-101454804D01*
X49825495Y-101451204D01*
X49849999Y-101450000D01*
X50500001Y-101450000D01*
X50524505Y-101451204D01*
G37*
G36*
X43124505Y-105501204D02*
G01*
X43148773Y-105504804D01*
X43172572Y-105510765D01*
X43195671Y-105519030D01*
X43217850Y-105529520D01*
X43238893Y-105542132D01*
X43258599Y-105556747D01*
X43276777Y-105573223D01*
X43293253Y-105591401D01*
X43307868Y-105611107D01*
X43320480Y-105632150D01*
X43330970Y-105654329D01*
X43339235Y-105677428D01*
X43345196Y-105701227D01*
X43348796Y-105725495D01*
X43350000Y-105749999D01*
X43350000Y-106650001D01*
X43348796Y-106674505D01*
X43345196Y-106698773D01*
X43339235Y-106722572D01*
X43330970Y-106745671D01*
X43320480Y-106767850D01*
X43307868Y-106788893D01*
X43293253Y-106808599D01*
X43276777Y-106826777D01*
X43258599Y-106843253D01*
X43238893Y-106857868D01*
X43217850Y-106870480D01*
X43195671Y-106880970D01*
X43172572Y-106889235D01*
X43148773Y-106895196D01*
X43124505Y-106898796D01*
X43100001Y-106900000D01*
X42449999Y-106900000D01*
X42425495Y-106898796D01*
X42401227Y-106895196D01*
X42377428Y-106889235D01*
X42354329Y-106880970D01*
X42332150Y-106870480D01*
X42311107Y-106857868D01*
X42291401Y-106843253D01*
X42273223Y-106826777D01*
X42256747Y-106808599D01*
X42242132Y-106788893D01*
X42229520Y-106767850D01*
X42219030Y-106745671D01*
X42210765Y-106722572D01*
X42204804Y-106698773D01*
X42201204Y-106674505D01*
X42200000Y-106650001D01*
X42200000Y-105749999D01*
X42201204Y-105725495D01*
X42204804Y-105701227D01*
X42210765Y-105677428D01*
X42219030Y-105654329D01*
X42229520Y-105632150D01*
X42242132Y-105611107D01*
X42256747Y-105591401D01*
X42273223Y-105573223D01*
X42291401Y-105556747D01*
X42311107Y-105542132D01*
X42332150Y-105529520D01*
X42354329Y-105519030D01*
X42377428Y-105510765D01*
X42401227Y-105504804D01*
X42425495Y-105501204D01*
X42449999Y-105500000D01*
X43100001Y-105500000D01*
X43124505Y-105501204D01*
G37*
G36*
X45174505Y-105501204D02*
G01*
X45198773Y-105504804D01*
X45222572Y-105510765D01*
X45245671Y-105519030D01*
X45267850Y-105529520D01*
X45288893Y-105542132D01*
X45308599Y-105556747D01*
X45326777Y-105573223D01*
X45343253Y-105591401D01*
X45357868Y-105611107D01*
X45370480Y-105632150D01*
X45380970Y-105654329D01*
X45389235Y-105677428D01*
X45395196Y-105701227D01*
X45398796Y-105725495D01*
X45400000Y-105749999D01*
X45400000Y-106650001D01*
X45398796Y-106674505D01*
X45395196Y-106698773D01*
X45389235Y-106722572D01*
X45380970Y-106745671D01*
X45370480Y-106767850D01*
X45357868Y-106788893D01*
X45343253Y-106808599D01*
X45326777Y-106826777D01*
X45308599Y-106843253D01*
X45288893Y-106857868D01*
X45267850Y-106870480D01*
X45245671Y-106880970D01*
X45222572Y-106889235D01*
X45198773Y-106895196D01*
X45174505Y-106898796D01*
X45150001Y-106900000D01*
X44499999Y-106900000D01*
X44475495Y-106898796D01*
X44451227Y-106895196D01*
X44427428Y-106889235D01*
X44404329Y-106880970D01*
X44382150Y-106870480D01*
X44361107Y-106857868D01*
X44341401Y-106843253D01*
X44323223Y-106826777D01*
X44306747Y-106808599D01*
X44292132Y-106788893D01*
X44279520Y-106767850D01*
X44269030Y-106745671D01*
X44260765Y-106722572D01*
X44254804Y-106698773D01*
X44251204Y-106674505D01*
X44250000Y-106650001D01*
X44250000Y-105749999D01*
X44251204Y-105725495D01*
X44254804Y-105701227D01*
X44260765Y-105677428D01*
X44269030Y-105654329D01*
X44279520Y-105632150D01*
X44292132Y-105611107D01*
X44306747Y-105591401D01*
X44323223Y-105573223D01*
X44341401Y-105556747D01*
X44361107Y-105542132D01*
X44382150Y-105529520D01*
X44404329Y-105519030D01*
X44427428Y-105510765D01*
X44451227Y-105504804D01*
X44475495Y-105501204D01*
X44499999Y-105500000D01*
X45150001Y-105500000D01*
X45174505Y-105501204D01*
G37*
G36*
X43124505Y-102901204D02*
G01*
X43148773Y-102904804D01*
X43172572Y-102910765D01*
X43195671Y-102919030D01*
X43217850Y-102929520D01*
X43238893Y-102942132D01*
X43258599Y-102956747D01*
X43276777Y-102973223D01*
X43293253Y-102991401D01*
X43307868Y-103011107D01*
X43320480Y-103032150D01*
X43330970Y-103054329D01*
X43339235Y-103077428D01*
X43345196Y-103101227D01*
X43348796Y-103125495D01*
X43350000Y-103149999D01*
X43350000Y-104050001D01*
X43348796Y-104074505D01*
X43345196Y-104098773D01*
X43339235Y-104122572D01*
X43330970Y-104145671D01*
X43320480Y-104167850D01*
X43307868Y-104188893D01*
X43293253Y-104208599D01*
X43276777Y-104226777D01*
X43258599Y-104243253D01*
X43238893Y-104257868D01*
X43217850Y-104270480D01*
X43195671Y-104280970D01*
X43172572Y-104289235D01*
X43148773Y-104295196D01*
X43124505Y-104298796D01*
X43100001Y-104300000D01*
X42449999Y-104300000D01*
X42425495Y-104298796D01*
X42401227Y-104295196D01*
X42377428Y-104289235D01*
X42354329Y-104280970D01*
X42332150Y-104270480D01*
X42311107Y-104257868D01*
X42291401Y-104243253D01*
X42273223Y-104226777D01*
X42256747Y-104208599D01*
X42242132Y-104188893D01*
X42229520Y-104167850D01*
X42219030Y-104145671D01*
X42210765Y-104122572D01*
X42204804Y-104098773D01*
X42201204Y-104074505D01*
X42200000Y-104050001D01*
X42200000Y-103149999D01*
X42201204Y-103125495D01*
X42204804Y-103101227D01*
X42210765Y-103077428D01*
X42219030Y-103054329D01*
X42229520Y-103032150D01*
X42242132Y-103011107D01*
X42256747Y-102991401D01*
X42273223Y-102973223D01*
X42291401Y-102956747D01*
X42311107Y-102942132D01*
X42332150Y-102929520D01*
X42354329Y-102919030D01*
X42377428Y-102910765D01*
X42401227Y-102904804D01*
X42425495Y-102901204D01*
X42449999Y-102900000D01*
X43100001Y-102900000D01*
X43124505Y-102901204D01*
G37*
G36*
X45174505Y-102901204D02*
G01*
X45198773Y-102904804D01*
X45222572Y-102910765D01*
X45245671Y-102919030D01*
X45267850Y-102929520D01*
X45288893Y-102942132D01*
X45308599Y-102956747D01*
X45326777Y-102973223D01*
X45343253Y-102991401D01*
X45357868Y-103011107D01*
X45370480Y-103032150D01*
X45380970Y-103054329D01*
X45389235Y-103077428D01*
X45395196Y-103101227D01*
X45398796Y-103125495D01*
X45400000Y-103149999D01*
X45400000Y-104050001D01*
X45398796Y-104074505D01*
X45395196Y-104098773D01*
X45389235Y-104122572D01*
X45380970Y-104145671D01*
X45370480Y-104167850D01*
X45357868Y-104188893D01*
X45343253Y-104208599D01*
X45326777Y-104226777D01*
X45308599Y-104243253D01*
X45288893Y-104257868D01*
X45267850Y-104270480D01*
X45245671Y-104280970D01*
X45222572Y-104289235D01*
X45198773Y-104295196D01*
X45174505Y-104298796D01*
X45150001Y-104300000D01*
X44499999Y-104300000D01*
X44475495Y-104298796D01*
X44451227Y-104295196D01*
X44427428Y-104289235D01*
X44404329Y-104280970D01*
X44382150Y-104270480D01*
X44361107Y-104257868D01*
X44341401Y-104243253D01*
X44323223Y-104226777D01*
X44306747Y-104208599D01*
X44292132Y-104188893D01*
X44279520Y-104167850D01*
X44269030Y-104145671D01*
X44260765Y-104122572D01*
X44254804Y-104098773D01*
X44251204Y-104074505D01*
X44250000Y-104050001D01*
X44250000Y-103149999D01*
X44251204Y-103125495D01*
X44254804Y-103101227D01*
X44260765Y-103077428D01*
X44269030Y-103054329D01*
X44279520Y-103032150D01*
X44292132Y-103011107D01*
X44306747Y-102991401D01*
X44323223Y-102973223D01*
X44341401Y-102956747D01*
X44361107Y-102942132D01*
X44382150Y-102929520D01*
X44404329Y-102919030D01*
X44427428Y-102910765D01*
X44451227Y-102904804D01*
X44475495Y-102901204D01*
X44499999Y-102900000D01*
X45150001Y-102900000D01*
X45174505Y-102901204D01*
G37*
G36*
X42924505Y-120901204D02*
G01*
X42948773Y-120904804D01*
X42972572Y-120910765D01*
X42995671Y-120919030D01*
X43017850Y-120929520D01*
X43038893Y-120942132D01*
X43058599Y-120956747D01*
X43076777Y-120973223D01*
X43093253Y-120991401D01*
X43107868Y-121011107D01*
X43120480Y-121032150D01*
X43130970Y-121054329D01*
X43139235Y-121077428D01*
X43145196Y-121101227D01*
X43148796Y-121125495D01*
X43150000Y-121149999D01*
X43150000Y-122050001D01*
X43148796Y-122074505D01*
X43145196Y-122098773D01*
X43139235Y-122122572D01*
X43130970Y-122145671D01*
X43120480Y-122167850D01*
X43107868Y-122188893D01*
X43093253Y-122208599D01*
X43076777Y-122226777D01*
X43058599Y-122243253D01*
X43038893Y-122257868D01*
X43017850Y-122270480D01*
X42995671Y-122280970D01*
X42972572Y-122289235D01*
X42948773Y-122295196D01*
X42924505Y-122298796D01*
X42900001Y-122300000D01*
X42249999Y-122300000D01*
X42225495Y-122298796D01*
X42201227Y-122295196D01*
X42177428Y-122289235D01*
X42154329Y-122280970D01*
X42132150Y-122270480D01*
X42111107Y-122257868D01*
X42091401Y-122243253D01*
X42073223Y-122226777D01*
X42056747Y-122208599D01*
X42042132Y-122188893D01*
X42029520Y-122167850D01*
X42019030Y-122145671D01*
X42010765Y-122122572D01*
X42004804Y-122098773D01*
X42001204Y-122074505D01*
X42000000Y-122050001D01*
X42000000Y-121149999D01*
X42001204Y-121125495D01*
X42004804Y-121101227D01*
X42010765Y-121077428D01*
X42019030Y-121054329D01*
X42029520Y-121032150D01*
X42042132Y-121011107D01*
X42056747Y-120991401D01*
X42073223Y-120973223D01*
X42091401Y-120956747D01*
X42111107Y-120942132D01*
X42132150Y-120929520D01*
X42154329Y-120919030D01*
X42177428Y-120910765D01*
X42201227Y-120904804D01*
X42225495Y-120901204D01*
X42249999Y-120900000D01*
X42900001Y-120900000D01*
X42924505Y-120901204D01*
G37*
G36*
X44974505Y-120901204D02*
G01*
X44998773Y-120904804D01*
X45022572Y-120910765D01*
X45045671Y-120919030D01*
X45067850Y-120929520D01*
X45088893Y-120942132D01*
X45108599Y-120956747D01*
X45126777Y-120973223D01*
X45143253Y-120991401D01*
X45157868Y-121011107D01*
X45170480Y-121032150D01*
X45180970Y-121054329D01*
X45189235Y-121077428D01*
X45195196Y-121101227D01*
X45198796Y-121125495D01*
X45200000Y-121149999D01*
X45200000Y-122050001D01*
X45198796Y-122074505D01*
X45195196Y-122098773D01*
X45189235Y-122122572D01*
X45180970Y-122145671D01*
X45170480Y-122167850D01*
X45157868Y-122188893D01*
X45143253Y-122208599D01*
X45126777Y-122226777D01*
X45108599Y-122243253D01*
X45088893Y-122257868D01*
X45067850Y-122270480D01*
X45045671Y-122280970D01*
X45022572Y-122289235D01*
X44998773Y-122295196D01*
X44974505Y-122298796D01*
X44950001Y-122300000D01*
X44299999Y-122300000D01*
X44275495Y-122298796D01*
X44251227Y-122295196D01*
X44227428Y-122289235D01*
X44204329Y-122280970D01*
X44182150Y-122270480D01*
X44161107Y-122257868D01*
X44141401Y-122243253D01*
X44123223Y-122226777D01*
X44106747Y-122208599D01*
X44092132Y-122188893D01*
X44079520Y-122167850D01*
X44069030Y-122145671D01*
X44060765Y-122122572D01*
X44054804Y-122098773D01*
X44051204Y-122074505D01*
X44050000Y-122050001D01*
X44050000Y-121149999D01*
X44051204Y-121125495D01*
X44054804Y-121101227D01*
X44060765Y-121077428D01*
X44069030Y-121054329D01*
X44079520Y-121032150D01*
X44092132Y-121011107D01*
X44106747Y-120991401D01*
X44123223Y-120973223D01*
X44141401Y-120956747D01*
X44161107Y-120942132D01*
X44182150Y-120929520D01*
X44204329Y-120919030D01*
X44227428Y-120910765D01*
X44251227Y-120904804D01*
X44275495Y-120901204D01*
X44299999Y-120900000D01*
X44950001Y-120900000D01*
X44974505Y-120901204D01*
G37*
G36*
X44974505Y-115501204D02*
G01*
X44998773Y-115504804D01*
X45022572Y-115510765D01*
X45045671Y-115519030D01*
X45067850Y-115529520D01*
X45088893Y-115542132D01*
X45108599Y-115556747D01*
X45126777Y-115573223D01*
X45143253Y-115591401D01*
X45157868Y-115611107D01*
X45170480Y-115632150D01*
X45180970Y-115654329D01*
X45189235Y-115677428D01*
X45195196Y-115701227D01*
X45198796Y-115725495D01*
X45200000Y-115749999D01*
X45200000Y-116650001D01*
X45198796Y-116674505D01*
X45195196Y-116698773D01*
X45189235Y-116722572D01*
X45180970Y-116745671D01*
X45170480Y-116767850D01*
X45157868Y-116788893D01*
X45143253Y-116808599D01*
X45126777Y-116826777D01*
X45108599Y-116843253D01*
X45088893Y-116857868D01*
X45067850Y-116870480D01*
X45045671Y-116880970D01*
X45022572Y-116889235D01*
X44998773Y-116895196D01*
X44974505Y-116898796D01*
X44950001Y-116900000D01*
X44299999Y-116900000D01*
X44275495Y-116898796D01*
X44251227Y-116895196D01*
X44227428Y-116889235D01*
X44204329Y-116880970D01*
X44182150Y-116870480D01*
X44161107Y-116857868D01*
X44141401Y-116843253D01*
X44123223Y-116826777D01*
X44106747Y-116808599D01*
X44092132Y-116788893D01*
X44079520Y-116767850D01*
X44069030Y-116745671D01*
X44060765Y-116722572D01*
X44054804Y-116698773D01*
X44051204Y-116674505D01*
X44050000Y-116650001D01*
X44050000Y-115749999D01*
X44051204Y-115725495D01*
X44054804Y-115701227D01*
X44060765Y-115677428D01*
X44069030Y-115654329D01*
X44079520Y-115632150D01*
X44092132Y-115611107D01*
X44106747Y-115591401D01*
X44123223Y-115573223D01*
X44141401Y-115556747D01*
X44161107Y-115542132D01*
X44182150Y-115529520D01*
X44204329Y-115519030D01*
X44227428Y-115510765D01*
X44251227Y-115504804D01*
X44275495Y-115501204D01*
X44299999Y-115500000D01*
X44950001Y-115500000D01*
X44974505Y-115501204D01*
G37*
G36*
X42924505Y-115501204D02*
G01*
X42948773Y-115504804D01*
X42972572Y-115510765D01*
X42995671Y-115519030D01*
X43017850Y-115529520D01*
X43038893Y-115542132D01*
X43058599Y-115556747D01*
X43076777Y-115573223D01*
X43093253Y-115591401D01*
X43107868Y-115611107D01*
X43120480Y-115632150D01*
X43130970Y-115654329D01*
X43139235Y-115677428D01*
X43145196Y-115701227D01*
X43148796Y-115725495D01*
X43150000Y-115749999D01*
X43150000Y-116650001D01*
X43148796Y-116674505D01*
X43145196Y-116698773D01*
X43139235Y-116722572D01*
X43130970Y-116745671D01*
X43120480Y-116767850D01*
X43107868Y-116788893D01*
X43093253Y-116808599D01*
X43076777Y-116826777D01*
X43058599Y-116843253D01*
X43038893Y-116857868D01*
X43017850Y-116870480D01*
X42995671Y-116880970D01*
X42972572Y-116889235D01*
X42948773Y-116895196D01*
X42924505Y-116898796D01*
X42900001Y-116900000D01*
X42249999Y-116900000D01*
X42225495Y-116898796D01*
X42201227Y-116895196D01*
X42177428Y-116889235D01*
X42154329Y-116880970D01*
X42132150Y-116870480D01*
X42111107Y-116857868D01*
X42091401Y-116843253D01*
X42073223Y-116826777D01*
X42056747Y-116808599D01*
X42042132Y-116788893D01*
X42029520Y-116767850D01*
X42019030Y-116745671D01*
X42010765Y-116722572D01*
X42004804Y-116698773D01*
X42001204Y-116674505D01*
X42000000Y-116650001D01*
X42000000Y-115749999D01*
X42001204Y-115725495D01*
X42004804Y-115701227D01*
X42010765Y-115677428D01*
X42019030Y-115654329D01*
X42029520Y-115632150D01*
X42042132Y-115611107D01*
X42056747Y-115591401D01*
X42073223Y-115573223D01*
X42091401Y-115556747D01*
X42111107Y-115542132D01*
X42132150Y-115529520D01*
X42154329Y-115519030D01*
X42177428Y-115510765D01*
X42201227Y-115504804D01*
X42225495Y-115501204D01*
X42249999Y-115500000D01*
X42900001Y-115500000D01*
X42924505Y-115501204D01*
G37*
G36*
X43124505Y-112701204D02*
G01*
X43148773Y-112704804D01*
X43172572Y-112710765D01*
X43195671Y-112719030D01*
X43217850Y-112729520D01*
X43238893Y-112742132D01*
X43258599Y-112756747D01*
X43276777Y-112773223D01*
X43293253Y-112791401D01*
X43307868Y-112811107D01*
X43320480Y-112832150D01*
X43330970Y-112854329D01*
X43339235Y-112877428D01*
X43345196Y-112901227D01*
X43348796Y-112925495D01*
X43350000Y-112949999D01*
X43350000Y-113850001D01*
X43348796Y-113874505D01*
X43345196Y-113898773D01*
X43339235Y-113922572D01*
X43330970Y-113945671D01*
X43320480Y-113967850D01*
X43307868Y-113988893D01*
X43293253Y-114008599D01*
X43276777Y-114026777D01*
X43258599Y-114043253D01*
X43238893Y-114057868D01*
X43217850Y-114070480D01*
X43195671Y-114080970D01*
X43172572Y-114089235D01*
X43148773Y-114095196D01*
X43124505Y-114098796D01*
X43100001Y-114100000D01*
X42449999Y-114100000D01*
X42425495Y-114098796D01*
X42401227Y-114095196D01*
X42377428Y-114089235D01*
X42354329Y-114080970D01*
X42332150Y-114070480D01*
X42311107Y-114057868D01*
X42291401Y-114043253D01*
X42273223Y-114026777D01*
X42256747Y-114008599D01*
X42242132Y-113988893D01*
X42229520Y-113967850D01*
X42219030Y-113945671D01*
X42210765Y-113922572D01*
X42204804Y-113898773D01*
X42201204Y-113874505D01*
X42200000Y-113850001D01*
X42200000Y-112949999D01*
X42201204Y-112925495D01*
X42204804Y-112901227D01*
X42210765Y-112877428D01*
X42219030Y-112854329D01*
X42229520Y-112832150D01*
X42242132Y-112811107D01*
X42256747Y-112791401D01*
X42273223Y-112773223D01*
X42291401Y-112756747D01*
X42311107Y-112742132D01*
X42332150Y-112729520D01*
X42354329Y-112719030D01*
X42377428Y-112710765D01*
X42401227Y-112704804D01*
X42425495Y-112701204D01*
X42449999Y-112700000D01*
X43100001Y-112700000D01*
X43124505Y-112701204D01*
G37*
G36*
X45174505Y-112701204D02*
G01*
X45198773Y-112704804D01*
X45222572Y-112710765D01*
X45245671Y-112719030D01*
X45267850Y-112729520D01*
X45288893Y-112742132D01*
X45308599Y-112756747D01*
X45326777Y-112773223D01*
X45343253Y-112791401D01*
X45357868Y-112811107D01*
X45370480Y-112832150D01*
X45380970Y-112854329D01*
X45389235Y-112877428D01*
X45395196Y-112901227D01*
X45398796Y-112925495D01*
X45400000Y-112949999D01*
X45400000Y-113850001D01*
X45398796Y-113874505D01*
X45395196Y-113898773D01*
X45389235Y-113922572D01*
X45380970Y-113945671D01*
X45370480Y-113967850D01*
X45357868Y-113988893D01*
X45343253Y-114008599D01*
X45326777Y-114026777D01*
X45308599Y-114043253D01*
X45288893Y-114057868D01*
X45267850Y-114070480D01*
X45245671Y-114080970D01*
X45222572Y-114089235D01*
X45198773Y-114095196D01*
X45174505Y-114098796D01*
X45150001Y-114100000D01*
X44499999Y-114100000D01*
X44475495Y-114098796D01*
X44451227Y-114095196D01*
X44427428Y-114089235D01*
X44404329Y-114080970D01*
X44382150Y-114070480D01*
X44361107Y-114057868D01*
X44341401Y-114043253D01*
X44323223Y-114026777D01*
X44306747Y-114008599D01*
X44292132Y-113988893D01*
X44279520Y-113967850D01*
X44269030Y-113945671D01*
X44260765Y-113922572D01*
X44254804Y-113898773D01*
X44251204Y-113874505D01*
X44250000Y-113850001D01*
X44250000Y-112949999D01*
X44251204Y-112925495D01*
X44254804Y-112901227D01*
X44260765Y-112877428D01*
X44269030Y-112854329D01*
X44279520Y-112832150D01*
X44292132Y-112811107D01*
X44306747Y-112791401D01*
X44323223Y-112773223D01*
X44341401Y-112756747D01*
X44361107Y-112742132D01*
X44382150Y-112729520D01*
X44404329Y-112719030D01*
X44427428Y-112710765D01*
X44451227Y-112704804D01*
X44475495Y-112701204D01*
X44499999Y-112700000D01*
X45150001Y-112700000D01*
X45174505Y-112701204D01*
G37*
G36*
X43124505Y-107901204D02*
G01*
X43148773Y-107904804D01*
X43172572Y-107910765D01*
X43195671Y-107919030D01*
X43217850Y-107929520D01*
X43238893Y-107942132D01*
X43258599Y-107956747D01*
X43276777Y-107973223D01*
X43293253Y-107991401D01*
X43307868Y-108011107D01*
X43320480Y-108032150D01*
X43330970Y-108054329D01*
X43339235Y-108077428D01*
X43345196Y-108101227D01*
X43348796Y-108125495D01*
X43350000Y-108149999D01*
X43350000Y-109050001D01*
X43348796Y-109074505D01*
X43345196Y-109098773D01*
X43339235Y-109122572D01*
X43330970Y-109145671D01*
X43320480Y-109167850D01*
X43307868Y-109188893D01*
X43293253Y-109208599D01*
X43276777Y-109226777D01*
X43258599Y-109243253D01*
X43238893Y-109257868D01*
X43217850Y-109270480D01*
X43195671Y-109280970D01*
X43172572Y-109289235D01*
X43148773Y-109295196D01*
X43124505Y-109298796D01*
X43100001Y-109300000D01*
X42449999Y-109300000D01*
X42425495Y-109298796D01*
X42401227Y-109295196D01*
X42377428Y-109289235D01*
X42354329Y-109280970D01*
X42332150Y-109270480D01*
X42311107Y-109257868D01*
X42291401Y-109243253D01*
X42273223Y-109226777D01*
X42256747Y-109208599D01*
X42242132Y-109188893D01*
X42229520Y-109167850D01*
X42219030Y-109145671D01*
X42210765Y-109122572D01*
X42204804Y-109098773D01*
X42201204Y-109074505D01*
X42200000Y-109050001D01*
X42200000Y-108149999D01*
X42201204Y-108125495D01*
X42204804Y-108101227D01*
X42210765Y-108077428D01*
X42219030Y-108054329D01*
X42229520Y-108032150D01*
X42242132Y-108011107D01*
X42256747Y-107991401D01*
X42273223Y-107973223D01*
X42291401Y-107956747D01*
X42311107Y-107942132D01*
X42332150Y-107929520D01*
X42354329Y-107919030D01*
X42377428Y-107910765D01*
X42401227Y-107904804D01*
X42425495Y-107901204D01*
X42449999Y-107900000D01*
X43100001Y-107900000D01*
X43124505Y-107901204D01*
G37*
G36*
X45174505Y-107901204D02*
G01*
X45198773Y-107904804D01*
X45222572Y-107910765D01*
X45245671Y-107919030D01*
X45267850Y-107929520D01*
X45288893Y-107942132D01*
X45308599Y-107956747D01*
X45326777Y-107973223D01*
X45343253Y-107991401D01*
X45357868Y-108011107D01*
X45370480Y-108032150D01*
X45380970Y-108054329D01*
X45389235Y-108077428D01*
X45395196Y-108101227D01*
X45398796Y-108125495D01*
X45400000Y-108149999D01*
X45400000Y-109050001D01*
X45398796Y-109074505D01*
X45395196Y-109098773D01*
X45389235Y-109122572D01*
X45380970Y-109145671D01*
X45370480Y-109167850D01*
X45357868Y-109188893D01*
X45343253Y-109208599D01*
X45326777Y-109226777D01*
X45308599Y-109243253D01*
X45288893Y-109257868D01*
X45267850Y-109270480D01*
X45245671Y-109280970D01*
X45222572Y-109289235D01*
X45198773Y-109295196D01*
X45174505Y-109298796D01*
X45150001Y-109300000D01*
X44499999Y-109300000D01*
X44475495Y-109298796D01*
X44451227Y-109295196D01*
X44427428Y-109289235D01*
X44404329Y-109280970D01*
X44382150Y-109270480D01*
X44361107Y-109257868D01*
X44341401Y-109243253D01*
X44323223Y-109226777D01*
X44306747Y-109208599D01*
X44292132Y-109188893D01*
X44279520Y-109167850D01*
X44269030Y-109145671D01*
X44260765Y-109122572D01*
X44254804Y-109098773D01*
X44251204Y-109074505D01*
X44250000Y-109050001D01*
X44250000Y-108149999D01*
X44251204Y-108125495D01*
X44254804Y-108101227D01*
X44260765Y-108077428D01*
X44269030Y-108054329D01*
X44279520Y-108032150D01*
X44292132Y-108011107D01*
X44306747Y-107991401D01*
X44323223Y-107973223D01*
X44341401Y-107956747D01*
X44361107Y-107942132D01*
X44382150Y-107929520D01*
X44404329Y-107919030D01*
X44427428Y-107910765D01*
X44451227Y-107904804D01*
X44475495Y-107901204D01*
X44499999Y-107900000D01*
X45150001Y-107900000D01*
X45174505Y-107901204D01*
G37*
G36*
X45174505Y-110301204D02*
G01*
X45198773Y-110304804D01*
X45222572Y-110310765D01*
X45245671Y-110319030D01*
X45267850Y-110329520D01*
X45288893Y-110342132D01*
X45308599Y-110356747D01*
X45326777Y-110373223D01*
X45343253Y-110391401D01*
X45357868Y-110411107D01*
X45370480Y-110432150D01*
X45380970Y-110454329D01*
X45389235Y-110477428D01*
X45395196Y-110501227D01*
X45398796Y-110525495D01*
X45400000Y-110549999D01*
X45400000Y-111450001D01*
X45398796Y-111474505D01*
X45395196Y-111498773D01*
X45389235Y-111522572D01*
X45380970Y-111545671D01*
X45370480Y-111567850D01*
X45357868Y-111588893D01*
X45343253Y-111608599D01*
X45326777Y-111626777D01*
X45308599Y-111643253D01*
X45288893Y-111657868D01*
X45267850Y-111670480D01*
X45245671Y-111680970D01*
X45222572Y-111689235D01*
X45198773Y-111695196D01*
X45174505Y-111698796D01*
X45150001Y-111700000D01*
X44499999Y-111700000D01*
X44475495Y-111698796D01*
X44451227Y-111695196D01*
X44427428Y-111689235D01*
X44404329Y-111680970D01*
X44382150Y-111670480D01*
X44361107Y-111657868D01*
X44341401Y-111643253D01*
X44323223Y-111626777D01*
X44306747Y-111608599D01*
X44292132Y-111588893D01*
X44279520Y-111567850D01*
X44269030Y-111545671D01*
X44260765Y-111522572D01*
X44254804Y-111498773D01*
X44251204Y-111474505D01*
X44250000Y-111450001D01*
X44250000Y-110549999D01*
X44251204Y-110525495D01*
X44254804Y-110501227D01*
X44260765Y-110477428D01*
X44269030Y-110454329D01*
X44279520Y-110432150D01*
X44292132Y-110411107D01*
X44306747Y-110391401D01*
X44323223Y-110373223D01*
X44341401Y-110356747D01*
X44361107Y-110342132D01*
X44382150Y-110329520D01*
X44404329Y-110319030D01*
X44427428Y-110310765D01*
X44451227Y-110304804D01*
X44475495Y-110301204D01*
X44499999Y-110300000D01*
X45150001Y-110300000D01*
X45174505Y-110301204D01*
G37*
G36*
X43124505Y-110301204D02*
G01*
X43148773Y-110304804D01*
X43172572Y-110310765D01*
X43195671Y-110319030D01*
X43217850Y-110329520D01*
X43238893Y-110342132D01*
X43258599Y-110356747D01*
X43276777Y-110373223D01*
X43293253Y-110391401D01*
X43307868Y-110411107D01*
X43320480Y-110432150D01*
X43330970Y-110454329D01*
X43339235Y-110477428D01*
X43345196Y-110501227D01*
X43348796Y-110525495D01*
X43350000Y-110549999D01*
X43350000Y-111450001D01*
X43348796Y-111474505D01*
X43345196Y-111498773D01*
X43339235Y-111522572D01*
X43330970Y-111545671D01*
X43320480Y-111567850D01*
X43307868Y-111588893D01*
X43293253Y-111608599D01*
X43276777Y-111626777D01*
X43258599Y-111643253D01*
X43238893Y-111657868D01*
X43217850Y-111670480D01*
X43195671Y-111680970D01*
X43172572Y-111689235D01*
X43148773Y-111695196D01*
X43124505Y-111698796D01*
X43100001Y-111700000D01*
X42449999Y-111700000D01*
X42425495Y-111698796D01*
X42401227Y-111695196D01*
X42377428Y-111689235D01*
X42354329Y-111680970D01*
X42332150Y-111670480D01*
X42311107Y-111657868D01*
X42291401Y-111643253D01*
X42273223Y-111626777D01*
X42256747Y-111608599D01*
X42242132Y-111588893D01*
X42229520Y-111567850D01*
X42219030Y-111545671D01*
X42210765Y-111522572D01*
X42204804Y-111498773D01*
X42201204Y-111474505D01*
X42200000Y-111450001D01*
X42200000Y-110549999D01*
X42201204Y-110525495D01*
X42204804Y-110501227D01*
X42210765Y-110477428D01*
X42219030Y-110454329D01*
X42229520Y-110432150D01*
X42242132Y-110411107D01*
X42256747Y-110391401D01*
X42273223Y-110373223D01*
X42291401Y-110356747D01*
X42311107Y-110342132D01*
X42332150Y-110329520D01*
X42354329Y-110319030D01*
X42377428Y-110310765D01*
X42401227Y-110304804D01*
X42425495Y-110301204D01*
X42449999Y-110300000D01*
X43100001Y-110300000D01*
X43124505Y-110301204D01*
G37*
G36*
X52324505Y-116451204D02*
G01*
X52348773Y-116454804D01*
X52372572Y-116460765D01*
X52395671Y-116469030D01*
X52417850Y-116479520D01*
X52438893Y-116492132D01*
X52458599Y-116506747D01*
X52476777Y-116523223D01*
X52493253Y-116541401D01*
X52507868Y-116561107D01*
X52520480Y-116582150D01*
X52530970Y-116604329D01*
X52539235Y-116627428D01*
X52545196Y-116651227D01*
X52548796Y-116675495D01*
X52550000Y-116699999D01*
X52550000Y-117600001D01*
X52548796Y-117624505D01*
X52545196Y-117648773D01*
X52539235Y-117672572D01*
X52530970Y-117695671D01*
X52520480Y-117717850D01*
X52507868Y-117738893D01*
X52493253Y-117758599D01*
X52476777Y-117776777D01*
X52458599Y-117793253D01*
X52438893Y-117807868D01*
X52417850Y-117820480D01*
X52395671Y-117830970D01*
X52372572Y-117839235D01*
X52348773Y-117845196D01*
X52324505Y-117848796D01*
X52300001Y-117850000D01*
X51649999Y-117850000D01*
X51625495Y-117848796D01*
X51601227Y-117845196D01*
X51577428Y-117839235D01*
X51554329Y-117830970D01*
X51532150Y-117820480D01*
X51511107Y-117807868D01*
X51491401Y-117793253D01*
X51473223Y-117776777D01*
X51456747Y-117758599D01*
X51442132Y-117738893D01*
X51429520Y-117717850D01*
X51419030Y-117695671D01*
X51410765Y-117672572D01*
X51404804Y-117648773D01*
X51401204Y-117624505D01*
X51400000Y-117600001D01*
X51400000Y-116699999D01*
X51401204Y-116675495D01*
X51404804Y-116651227D01*
X51410765Y-116627428D01*
X51419030Y-116604329D01*
X51429520Y-116582150D01*
X51442132Y-116561107D01*
X51456747Y-116541401D01*
X51473223Y-116523223D01*
X51491401Y-116506747D01*
X51511107Y-116492132D01*
X51532150Y-116479520D01*
X51554329Y-116469030D01*
X51577428Y-116460765D01*
X51601227Y-116454804D01*
X51625495Y-116451204D01*
X51649999Y-116450000D01*
X52300001Y-116450000D01*
X52324505Y-116451204D01*
G37*
G36*
X54374505Y-116451204D02*
G01*
X54398773Y-116454804D01*
X54422572Y-116460765D01*
X54445671Y-116469030D01*
X54467850Y-116479520D01*
X54488893Y-116492132D01*
X54508599Y-116506747D01*
X54526777Y-116523223D01*
X54543253Y-116541401D01*
X54557868Y-116561107D01*
X54570480Y-116582150D01*
X54580970Y-116604329D01*
X54589235Y-116627428D01*
X54595196Y-116651227D01*
X54598796Y-116675495D01*
X54600000Y-116699999D01*
X54600000Y-117600001D01*
X54598796Y-117624505D01*
X54595196Y-117648773D01*
X54589235Y-117672572D01*
X54580970Y-117695671D01*
X54570480Y-117717850D01*
X54557868Y-117738893D01*
X54543253Y-117758599D01*
X54526777Y-117776777D01*
X54508599Y-117793253D01*
X54488893Y-117807868D01*
X54467850Y-117820480D01*
X54445671Y-117830970D01*
X54422572Y-117839235D01*
X54398773Y-117845196D01*
X54374505Y-117848796D01*
X54350001Y-117850000D01*
X53699999Y-117850000D01*
X53675495Y-117848796D01*
X53651227Y-117845196D01*
X53627428Y-117839235D01*
X53604329Y-117830970D01*
X53582150Y-117820480D01*
X53561107Y-117807868D01*
X53541401Y-117793253D01*
X53523223Y-117776777D01*
X53506747Y-117758599D01*
X53492132Y-117738893D01*
X53479520Y-117717850D01*
X53469030Y-117695671D01*
X53460765Y-117672572D01*
X53454804Y-117648773D01*
X53451204Y-117624505D01*
X53450000Y-117600001D01*
X53450000Y-116699999D01*
X53451204Y-116675495D01*
X53454804Y-116651227D01*
X53460765Y-116627428D01*
X53469030Y-116604329D01*
X53479520Y-116582150D01*
X53492132Y-116561107D01*
X53506747Y-116541401D01*
X53523223Y-116523223D01*
X53541401Y-116506747D01*
X53561107Y-116492132D01*
X53582150Y-116479520D01*
X53604329Y-116469030D01*
X53627428Y-116460765D01*
X53651227Y-116454804D01*
X53675495Y-116451204D01*
X53699999Y-116450000D01*
X54350001Y-116450000D01*
X54374505Y-116451204D01*
G37*
D15*
X45450000Y-87450000D03*
X45450000Y-88250000D03*
X45450000Y-89050000D03*
X45450000Y-89850000D03*
X45450000Y-90650000D03*
X45450000Y-91450000D03*
X45450000Y-92250000D03*
X45450000Y-93050000D03*
X45450000Y-93850000D03*
X45450000Y-94650000D03*
X45450000Y-95450000D03*
D16*
X47150000Y-97150000D03*
X47950000Y-97150000D03*
X48750000Y-97150000D03*
X49550000Y-97150000D03*
X50350000Y-97150000D03*
X51150000Y-97150000D03*
X51950000Y-97150000D03*
X52750000Y-97150000D03*
X53550000Y-97150000D03*
X54350000Y-97150000D03*
X55150000Y-97150000D03*
D15*
X56850000Y-95450000D03*
X56850000Y-94650000D03*
X56850000Y-93850000D03*
X56850000Y-93050000D03*
X56850000Y-92250000D03*
X56850000Y-91450000D03*
X56850000Y-90650000D03*
X56850000Y-89850000D03*
X56850000Y-89050000D03*
X56850000Y-88250000D03*
X56850000Y-87450000D03*
D16*
X55150000Y-85750000D03*
X54350000Y-85750000D03*
X53550000Y-85750000D03*
X52750000Y-85750000D03*
X51950000Y-85750000D03*
X51150000Y-85750000D03*
X50350000Y-85750000D03*
X49550000Y-85750000D03*
X48750000Y-85750000D03*
X47950000Y-85750000D03*
X47150000Y-85750000D03*
D11*
G36*
X37974505Y-87701204D02*
G01*
X37998773Y-87704804D01*
X38022572Y-87710765D01*
X38045671Y-87719030D01*
X38067850Y-87729520D01*
X38088893Y-87742132D01*
X38108599Y-87756747D01*
X38126777Y-87773223D01*
X38143253Y-87791401D01*
X38157868Y-87811107D01*
X38170480Y-87832150D01*
X38180970Y-87854329D01*
X38189235Y-87877428D01*
X38195196Y-87901227D01*
X38198796Y-87925495D01*
X38200000Y-87949999D01*
X38200000Y-88850001D01*
X38198796Y-88874505D01*
X38195196Y-88898773D01*
X38189235Y-88922572D01*
X38180970Y-88945671D01*
X38170480Y-88967850D01*
X38157868Y-88988893D01*
X38143253Y-89008599D01*
X38126777Y-89026777D01*
X38108599Y-89043253D01*
X38088893Y-89057868D01*
X38067850Y-89070480D01*
X38045671Y-89080970D01*
X38022572Y-89089235D01*
X37998773Y-89095196D01*
X37974505Y-89098796D01*
X37950001Y-89100000D01*
X37299999Y-89100000D01*
X37275495Y-89098796D01*
X37251227Y-89095196D01*
X37227428Y-89089235D01*
X37204329Y-89080970D01*
X37182150Y-89070480D01*
X37161107Y-89057868D01*
X37141401Y-89043253D01*
X37123223Y-89026777D01*
X37106747Y-89008599D01*
X37092132Y-88988893D01*
X37079520Y-88967850D01*
X37069030Y-88945671D01*
X37060765Y-88922572D01*
X37054804Y-88898773D01*
X37051204Y-88874505D01*
X37050000Y-88850001D01*
X37050000Y-87949999D01*
X37051204Y-87925495D01*
X37054804Y-87901227D01*
X37060765Y-87877428D01*
X37069030Y-87854329D01*
X37079520Y-87832150D01*
X37092132Y-87811107D01*
X37106747Y-87791401D01*
X37123223Y-87773223D01*
X37141401Y-87756747D01*
X37161107Y-87742132D01*
X37182150Y-87729520D01*
X37204329Y-87719030D01*
X37227428Y-87710765D01*
X37251227Y-87704804D01*
X37275495Y-87701204D01*
X37299999Y-87700000D01*
X37950001Y-87700000D01*
X37974505Y-87701204D01*
G37*
G36*
X40024505Y-87701204D02*
G01*
X40048773Y-87704804D01*
X40072572Y-87710765D01*
X40095671Y-87719030D01*
X40117850Y-87729520D01*
X40138893Y-87742132D01*
X40158599Y-87756747D01*
X40176777Y-87773223D01*
X40193253Y-87791401D01*
X40207868Y-87811107D01*
X40220480Y-87832150D01*
X40230970Y-87854329D01*
X40239235Y-87877428D01*
X40245196Y-87901227D01*
X40248796Y-87925495D01*
X40250000Y-87949999D01*
X40250000Y-88850001D01*
X40248796Y-88874505D01*
X40245196Y-88898773D01*
X40239235Y-88922572D01*
X40230970Y-88945671D01*
X40220480Y-88967850D01*
X40207868Y-88988893D01*
X40193253Y-89008599D01*
X40176777Y-89026777D01*
X40158599Y-89043253D01*
X40138893Y-89057868D01*
X40117850Y-89070480D01*
X40095671Y-89080970D01*
X40072572Y-89089235D01*
X40048773Y-89095196D01*
X40024505Y-89098796D01*
X40000001Y-89100000D01*
X39349999Y-89100000D01*
X39325495Y-89098796D01*
X39301227Y-89095196D01*
X39277428Y-89089235D01*
X39254329Y-89080970D01*
X39232150Y-89070480D01*
X39211107Y-89057868D01*
X39191401Y-89043253D01*
X39173223Y-89026777D01*
X39156747Y-89008599D01*
X39142132Y-88988893D01*
X39129520Y-88967850D01*
X39119030Y-88945671D01*
X39110765Y-88922572D01*
X39104804Y-88898773D01*
X39101204Y-88874505D01*
X39100000Y-88850001D01*
X39100000Y-87949999D01*
X39101204Y-87925495D01*
X39104804Y-87901227D01*
X39110765Y-87877428D01*
X39119030Y-87854329D01*
X39129520Y-87832150D01*
X39142132Y-87811107D01*
X39156747Y-87791401D01*
X39173223Y-87773223D01*
X39191401Y-87756747D01*
X39211107Y-87742132D01*
X39232150Y-87729520D01*
X39254329Y-87719030D01*
X39277428Y-87710765D01*
X39301227Y-87704804D01*
X39325495Y-87701204D01*
X39349999Y-87700000D01*
X40000001Y-87700000D01*
X40024505Y-87701204D01*
G37*
G36*
X37974505Y-85551204D02*
G01*
X37998773Y-85554804D01*
X38022572Y-85560765D01*
X38045671Y-85569030D01*
X38067850Y-85579520D01*
X38088893Y-85592132D01*
X38108599Y-85606747D01*
X38126777Y-85623223D01*
X38143253Y-85641401D01*
X38157868Y-85661107D01*
X38170480Y-85682150D01*
X38180970Y-85704329D01*
X38189235Y-85727428D01*
X38195196Y-85751227D01*
X38198796Y-85775495D01*
X38200000Y-85799999D01*
X38200000Y-86700001D01*
X38198796Y-86724505D01*
X38195196Y-86748773D01*
X38189235Y-86772572D01*
X38180970Y-86795671D01*
X38170480Y-86817850D01*
X38157868Y-86838893D01*
X38143253Y-86858599D01*
X38126777Y-86876777D01*
X38108599Y-86893253D01*
X38088893Y-86907868D01*
X38067850Y-86920480D01*
X38045671Y-86930970D01*
X38022572Y-86939235D01*
X37998773Y-86945196D01*
X37974505Y-86948796D01*
X37950001Y-86950000D01*
X37299999Y-86950000D01*
X37275495Y-86948796D01*
X37251227Y-86945196D01*
X37227428Y-86939235D01*
X37204329Y-86930970D01*
X37182150Y-86920480D01*
X37161107Y-86907868D01*
X37141401Y-86893253D01*
X37123223Y-86876777D01*
X37106747Y-86858599D01*
X37092132Y-86838893D01*
X37079520Y-86817850D01*
X37069030Y-86795671D01*
X37060765Y-86772572D01*
X37054804Y-86748773D01*
X37051204Y-86724505D01*
X37050000Y-86700001D01*
X37050000Y-85799999D01*
X37051204Y-85775495D01*
X37054804Y-85751227D01*
X37060765Y-85727428D01*
X37069030Y-85704329D01*
X37079520Y-85682150D01*
X37092132Y-85661107D01*
X37106747Y-85641401D01*
X37123223Y-85623223D01*
X37141401Y-85606747D01*
X37161107Y-85592132D01*
X37182150Y-85579520D01*
X37204329Y-85569030D01*
X37227428Y-85560765D01*
X37251227Y-85554804D01*
X37275495Y-85551204D01*
X37299999Y-85550000D01*
X37950001Y-85550000D01*
X37974505Y-85551204D01*
G37*
G36*
X40024505Y-85551204D02*
G01*
X40048773Y-85554804D01*
X40072572Y-85560765D01*
X40095671Y-85569030D01*
X40117850Y-85579520D01*
X40138893Y-85592132D01*
X40158599Y-85606747D01*
X40176777Y-85623223D01*
X40193253Y-85641401D01*
X40207868Y-85661107D01*
X40220480Y-85682150D01*
X40230970Y-85704329D01*
X40239235Y-85727428D01*
X40245196Y-85751227D01*
X40248796Y-85775495D01*
X40250000Y-85799999D01*
X40250000Y-86700001D01*
X40248796Y-86724505D01*
X40245196Y-86748773D01*
X40239235Y-86772572D01*
X40230970Y-86795671D01*
X40220480Y-86817850D01*
X40207868Y-86838893D01*
X40193253Y-86858599D01*
X40176777Y-86876777D01*
X40158599Y-86893253D01*
X40138893Y-86907868D01*
X40117850Y-86920480D01*
X40095671Y-86930970D01*
X40072572Y-86939235D01*
X40048773Y-86945196D01*
X40024505Y-86948796D01*
X40000001Y-86950000D01*
X39349999Y-86950000D01*
X39325495Y-86948796D01*
X39301227Y-86945196D01*
X39277428Y-86939235D01*
X39254329Y-86930970D01*
X39232150Y-86920480D01*
X39211107Y-86907868D01*
X39191401Y-86893253D01*
X39173223Y-86876777D01*
X39156747Y-86858599D01*
X39142132Y-86838893D01*
X39129520Y-86817850D01*
X39119030Y-86795671D01*
X39110765Y-86772572D01*
X39104804Y-86748773D01*
X39101204Y-86724505D01*
X39100000Y-86700001D01*
X39100000Y-85799999D01*
X39101204Y-85775495D01*
X39104804Y-85751227D01*
X39110765Y-85727428D01*
X39119030Y-85704329D01*
X39129520Y-85682150D01*
X39142132Y-85661107D01*
X39156747Y-85641401D01*
X39173223Y-85623223D01*
X39191401Y-85606747D01*
X39211107Y-85592132D01*
X39232150Y-85579520D01*
X39254329Y-85569030D01*
X39277428Y-85560765D01*
X39301227Y-85554804D01*
X39325495Y-85551204D01*
X39349999Y-85550000D01*
X40000001Y-85550000D01*
X40024505Y-85551204D01*
G37*
G36*
X50124505Y-82101204D02*
G01*
X50148773Y-82104804D01*
X50172572Y-82110765D01*
X50195671Y-82119030D01*
X50217850Y-82129520D01*
X50238893Y-82142132D01*
X50258599Y-82156747D01*
X50276777Y-82173223D01*
X50293253Y-82191401D01*
X50307868Y-82211107D01*
X50320480Y-82232150D01*
X50330970Y-82254329D01*
X50339235Y-82277428D01*
X50345196Y-82301227D01*
X50348796Y-82325495D01*
X50350000Y-82349999D01*
X50350000Y-83250001D01*
X50348796Y-83274505D01*
X50345196Y-83298773D01*
X50339235Y-83322572D01*
X50330970Y-83345671D01*
X50320480Y-83367850D01*
X50307868Y-83388893D01*
X50293253Y-83408599D01*
X50276777Y-83426777D01*
X50258599Y-83443253D01*
X50238893Y-83457868D01*
X50217850Y-83470480D01*
X50195671Y-83480970D01*
X50172572Y-83489235D01*
X50148773Y-83495196D01*
X50124505Y-83498796D01*
X50100001Y-83500000D01*
X49449999Y-83500000D01*
X49425495Y-83498796D01*
X49401227Y-83495196D01*
X49377428Y-83489235D01*
X49354329Y-83480970D01*
X49332150Y-83470480D01*
X49311107Y-83457868D01*
X49291401Y-83443253D01*
X49273223Y-83426777D01*
X49256747Y-83408599D01*
X49242132Y-83388893D01*
X49229520Y-83367850D01*
X49219030Y-83345671D01*
X49210765Y-83322572D01*
X49204804Y-83298773D01*
X49201204Y-83274505D01*
X49200000Y-83250001D01*
X49200000Y-82349999D01*
X49201204Y-82325495D01*
X49204804Y-82301227D01*
X49210765Y-82277428D01*
X49219030Y-82254329D01*
X49229520Y-82232150D01*
X49242132Y-82211107D01*
X49256747Y-82191401D01*
X49273223Y-82173223D01*
X49291401Y-82156747D01*
X49311107Y-82142132D01*
X49332150Y-82129520D01*
X49354329Y-82119030D01*
X49377428Y-82110765D01*
X49401227Y-82104804D01*
X49425495Y-82101204D01*
X49449999Y-82100000D01*
X50100001Y-82100000D01*
X50124505Y-82101204D01*
G37*
G36*
X52174505Y-82101204D02*
G01*
X52198773Y-82104804D01*
X52222572Y-82110765D01*
X52245671Y-82119030D01*
X52267850Y-82129520D01*
X52288893Y-82142132D01*
X52308599Y-82156747D01*
X52326777Y-82173223D01*
X52343253Y-82191401D01*
X52357868Y-82211107D01*
X52370480Y-82232150D01*
X52380970Y-82254329D01*
X52389235Y-82277428D01*
X52395196Y-82301227D01*
X52398796Y-82325495D01*
X52400000Y-82349999D01*
X52400000Y-83250001D01*
X52398796Y-83274505D01*
X52395196Y-83298773D01*
X52389235Y-83322572D01*
X52380970Y-83345671D01*
X52370480Y-83367850D01*
X52357868Y-83388893D01*
X52343253Y-83408599D01*
X52326777Y-83426777D01*
X52308599Y-83443253D01*
X52288893Y-83457868D01*
X52267850Y-83470480D01*
X52245671Y-83480970D01*
X52222572Y-83489235D01*
X52198773Y-83495196D01*
X52174505Y-83498796D01*
X52150001Y-83500000D01*
X51499999Y-83500000D01*
X51475495Y-83498796D01*
X51451227Y-83495196D01*
X51427428Y-83489235D01*
X51404329Y-83480970D01*
X51382150Y-83470480D01*
X51361107Y-83457868D01*
X51341401Y-83443253D01*
X51323223Y-83426777D01*
X51306747Y-83408599D01*
X51292132Y-83388893D01*
X51279520Y-83367850D01*
X51269030Y-83345671D01*
X51260765Y-83322572D01*
X51254804Y-83298773D01*
X51251204Y-83274505D01*
X51250000Y-83250001D01*
X51250000Y-82349999D01*
X51251204Y-82325495D01*
X51254804Y-82301227D01*
X51260765Y-82277428D01*
X51269030Y-82254329D01*
X51279520Y-82232150D01*
X51292132Y-82211107D01*
X51306747Y-82191401D01*
X51323223Y-82173223D01*
X51341401Y-82156747D01*
X51361107Y-82142132D01*
X51382150Y-82129520D01*
X51404329Y-82119030D01*
X51427428Y-82110765D01*
X51451227Y-82104804D01*
X51475495Y-82101204D01*
X51499999Y-82100000D01*
X52150001Y-82100000D01*
X52174505Y-82101204D01*
G37*
G36*
X55324505Y-126051204D02*
G01*
X55348773Y-126054804D01*
X55372572Y-126060765D01*
X55395671Y-126069030D01*
X55417850Y-126079520D01*
X55438893Y-126092132D01*
X55458599Y-126106747D01*
X55476777Y-126123223D01*
X55493253Y-126141401D01*
X55507868Y-126161107D01*
X55520480Y-126182150D01*
X55530970Y-126204329D01*
X55539235Y-126227428D01*
X55545196Y-126251227D01*
X55548796Y-126275495D01*
X55550000Y-126299999D01*
X55550000Y-126950001D01*
X55548796Y-126974505D01*
X55545196Y-126998773D01*
X55539235Y-127022572D01*
X55530970Y-127045671D01*
X55520480Y-127067850D01*
X55507868Y-127088893D01*
X55493253Y-127108599D01*
X55476777Y-127126777D01*
X55458599Y-127143253D01*
X55438893Y-127157868D01*
X55417850Y-127170480D01*
X55395671Y-127180970D01*
X55372572Y-127189235D01*
X55348773Y-127195196D01*
X55324505Y-127198796D01*
X55300001Y-127200000D01*
X54399999Y-127200000D01*
X54375495Y-127198796D01*
X54351227Y-127195196D01*
X54327428Y-127189235D01*
X54304329Y-127180970D01*
X54282150Y-127170480D01*
X54261107Y-127157868D01*
X54241401Y-127143253D01*
X54223223Y-127126777D01*
X54206747Y-127108599D01*
X54192132Y-127088893D01*
X54179520Y-127067850D01*
X54169030Y-127045671D01*
X54160765Y-127022572D01*
X54154804Y-126998773D01*
X54151204Y-126974505D01*
X54150000Y-126950001D01*
X54150000Y-126299999D01*
X54151204Y-126275495D01*
X54154804Y-126251227D01*
X54160765Y-126227428D01*
X54169030Y-126204329D01*
X54179520Y-126182150D01*
X54192132Y-126161107D01*
X54206747Y-126141401D01*
X54223223Y-126123223D01*
X54241401Y-126106747D01*
X54261107Y-126092132D01*
X54282150Y-126079520D01*
X54304329Y-126069030D01*
X54327428Y-126060765D01*
X54351227Y-126054804D01*
X54375495Y-126051204D01*
X54399999Y-126050000D01*
X55300001Y-126050000D01*
X55324505Y-126051204D01*
G37*
G36*
X55324505Y-128101204D02*
G01*
X55348773Y-128104804D01*
X55372572Y-128110765D01*
X55395671Y-128119030D01*
X55417850Y-128129520D01*
X55438893Y-128142132D01*
X55458599Y-128156747D01*
X55476777Y-128173223D01*
X55493253Y-128191401D01*
X55507868Y-128211107D01*
X55520480Y-128232150D01*
X55530970Y-128254329D01*
X55539235Y-128277428D01*
X55545196Y-128301227D01*
X55548796Y-128325495D01*
X55550000Y-128349999D01*
X55550000Y-129000001D01*
X55548796Y-129024505D01*
X55545196Y-129048773D01*
X55539235Y-129072572D01*
X55530970Y-129095671D01*
X55520480Y-129117850D01*
X55507868Y-129138893D01*
X55493253Y-129158599D01*
X55476777Y-129176777D01*
X55458599Y-129193253D01*
X55438893Y-129207868D01*
X55417850Y-129220480D01*
X55395671Y-129230970D01*
X55372572Y-129239235D01*
X55348773Y-129245196D01*
X55324505Y-129248796D01*
X55300001Y-129250000D01*
X54399999Y-129250000D01*
X54375495Y-129248796D01*
X54351227Y-129245196D01*
X54327428Y-129239235D01*
X54304329Y-129230970D01*
X54282150Y-129220480D01*
X54261107Y-129207868D01*
X54241401Y-129193253D01*
X54223223Y-129176777D01*
X54206747Y-129158599D01*
X54192132Y-129138893D01*
X54179520Y-129117850D01*
X54169030Y-129095671D01*
X54160765Y-129072572D01*
X54154804Y-129048773D01*
X54151204Y-129024505D01*
X54150000Y-129000001D01*
X54150000Y-128349999D01*
X54151204Y-128325495D01*
X54154804Y-128301227D01*
X54160765Y-128277428D01*
X54169030Y-128254329D01*
X54179520Y-128232150D01*
X54192132Y-128211107D01*
X54206747Y-128191401D01*
X54223223Y-128173223D01*
X54241401Y-128156747D01*
X54261107Y-128142132D01*
X54282150Y-128129520D01*
X54304329Y-128119030D01*
X54327428Y-128110765D01*
X54351227Y-128104804D01*
X54375495Y-128101204D01*
X54399999Y-128100000D01*
X55300001Y-128100000D01*
X55324505Y-128101204D01*
G37*
G36*
X38524505Y-126001204D02*
G01*
X38548773Y-126004804D01*
X38572572Y-126010765D01*
X38595671Y-126019030D01*
X38617850Y-126029520D01*
X38638893Y-126042132D01*
X38658599Y-126056747D01*
X38676777Y-126073223D01*
X38693253Y-126091401D01*
X38707868Y-126111107D01*
X38720480Y-126132150D01*
X38730970Y-126154329D01*
X38739235Y-126177428D01*
X38745196Y-126201227D01*
X38748796Y-126225495D01*
X38750000Y-126249999D01*
X38750000Y-126900001D01*
X38748796Y-126924505D01*
X38745196Y-126948773D01*
X38739235Y-126972572D01*
X38730970Y-126995671D01*
X38720480Y-127017850D01*
X38707868Y-127038893D01*
X38693253Y-127058599D01*
X38676777Y-127076777D01*
X38658599Y-127093253D01*
X38638893Y-127107868D01*
X38617850Y-127120480D01*
X38595671Y-127130970D01*
X38572572Y-127139235D01*
X38548773Y-127145196D01*
X38524505Y-127148796D01*
X38500001Y-127150000D01*
X37599999Y-127150000D01*
X37575495Y-127148796D01*
X37551227Y-127145196D01*
X37527428Y-127139235D01*
X37504329Y-127130970D01*
X37482150Y-127120480D01*
X37461107Y-127107868D01*
X37441401Y-127093253D01*
X37423223Y-127076777D01*
X37406747Y-127058599D01*
X37392132Y-127038893D01*
X37379520Y-127017850D01*
X37369030Y-126995671D01*
X37360765Y-126972572D01*
X37354804Y-126948773D01*
X37351204Y-126924505D01*
X37350000Y-126900001D01*
X37350000Y-126249999D01*
X37351204Y-126225495D01*
X37354804Y-126201227D01*
X37360765Y-126177428D01*
X37369030Y-126154329D01*
X37379520Y-126132150D01*
X37392132Y-126111107D01*
X37406747Y-126091401D01*
X37423223Y-126073223D01*
X37441401Y-126056747D01*
X37461107Y-126042132D01*
X37482150Y-126029520D01*
X37504329Y-126019030D01*
X37527428Y-126010765D01*
X37551227Y-126004804D01*
X37575495Y-126001204D01*
X37599999Y-126000000D01*
X38500001Y-126000000D01*
X38524505Y-126001204D01*
G37*
G36*
X38524505Y-128051204D02*
G01*
X38548773Y-128054804D01*
X38572572Y-128060765D01*
X38595671Y-128069030D01*
X38617850Y-128079520D01*
X38638893Y-128092132D01*
X38658599Y-128106747D01*
X38676777Y-128123223D01*
X38693253Y-128141401D01*
X38707868Y-128161107D01*
X38720480Y-128182150D01*
X38730970Y-128204329D01*
X38739235Y-128227428D01*
X38745196Y-128251227D01*
X38748796Y-128275495D01*
X38750000Y-128299999D01*
X38750000Y-128950001D01*
X38748796Y-128974505D01*
X38745196Y-128998773D01*
X38739235Y-129022572D01*
X38730970Y-129045671D01*
X38720480Y-129067850D01*
X38707868Y-129088893D01*
X38693253Y-129108599D01*
X38676777Y-129126777D01*
X38658599Y-129143253D01*
X38638893Y-129157868D01*
X38617850Y-129170480D01*
X38595671Y-129180970D01*
X38572572Y-129189235D01*
X38548773Y-129195196D01*
X38524505Y-129198796D01*
X38500001Y-129200000D01*
X37599999Y-129200000D01*
X37575495Y-129198796D01*
X37551227Y-129195196D01*
X37527428Y-129189235D01*
X37504329Y-129180970D01*
X37482150Y-129170480D01*
X37461107Y-129157868D01*
X37441401Y-129143253D01*
X37423223Y-129126777D01*
X37406747Y-129108599D01*
X37392132Y-129088893D01*
X37379520Y-129067850D01*
X37369030Y-129045671D01*
X37360765Y-129022572D01*
X37354804Y-128998773D01*
X37351204Y-128974505D01*
X37350000Y-128950001D01*
X37350000Y-128299999D01*
X37351204Y-128275495D01*
X37354804Y-128251227D01*
X37360765Y-128227428D01*
X37369030Y-128204329D01*
X37379520Y-128182150D01*
X37392132Y-128161107D01*
X37406747Y-128141401D01*
X37423223Y-128123223D01*
X37441401Y-128106747D01*
X37461107Y-128092132D01*
X37482150Y-128079520D01*
X37504329Y-128069030D01*
X37527428Y-128060765D01*
X37551227Y-128054804D01*
X37575495Y-128051204D01*
X37599999Y-128050000D01*
X38500001Y-128050000D01*
X38524505Y-128051204D01*
G37*
G36*
X71324505Y-97551204D02*
G01*
X71348773Y-97554804D01*
X71372572Y-97560765D01*
X71395671Y-97569030D01*
X71417850Y-97579520D01*
X71438893Y-97592132D01*
X71458599Y-97606747D01*
X71476777Y-97623223D01*
X71493253Y-97641401D01*
X71507868Y-97661107D01*
X71520480Y-97682150D01*
X71530970Y-97704329D01*
X71539235Y-97727428D01*
X71545196Y-97751227D01*
X71548796Y-97775495D01*
X71550000Y-97799999D01*
X71550000Y-98700001D01*
X71548796Y-98724505D01*
X71545196Y-98748773D01*
X71539235Y-98772572D01*
X71530970Y-98795671D01*
X71520480Y-98817850D01*
X71507868Y-98838893D01*
X71493253Y-98858599D01*
X71476777Y-98876777D01*
X71458599Y-98893253D01*
X71438893Y-98907868D01*
X71417850Y-98920480D01*
X71395671Y-98930970D01*
X71372572Y-98939235D01*
X71348773Y-98945196D01*
X71324505Y-98948796D01*
X71300001Y-98950000D01*
X70649999Y-98950000D01*
X70625495Y-98948796D01*
X70601227Y-98945196D01*
X70577428Y-98939235D01*
X70554329Y-98930970D01*
X70532150Y-98920480D01*
X70511107Y-98907868D01*
X70491401Y-98893253D01*
X70473223Y-98876777D01*
X70456747Y-98858599D01*
X70442132Y-98838893D01*
X70429520Y-98817850D01*
X70419030Y-98795671D01*
X70410765Y-98772572D01*
X70404804Y-98748773D01*
X70401204Y-98724505D01*
X70400000Y-98700001D01*
X70400000Y-97799999D01*
X70401204Y-97775495D01*
X70404804Y-97751227D01*
X70410765Y-97727428D01*
X70419030Y-97704329D01*
X70429520Y-97682150D01*
X70442132Y-97661107D01*
X70456747Y-97641401D01*
X70473223Y-97623223D01*
X70491401Y-97606747D01*
X70511107Y-97592132D01*
X70532150Y-97579520D01*
X70554329Y-97569030D01*
X70577428Y-97560765D01*
X70601227Y-97554804D01*
X70625495Y-97551204D01*
X70649999Y-97550000D01*
X71300001Y-97550000D01*
X71324505Y-97551204D01*
G37*
G36*
X69274505Y-97551204D02*
G01*
X69298773Y-97554804D01*
X69322572Y-97560765D01*
X69345671Y-97569030D01*
X69367850Y-97579520D01*
X69388893Y-97592132D01*
X69408599Y-97606747D01*
X69426777Y-97623223D01*
X69443253Y-97641401D01*
X69457868Y-97661107D01*
X69470480Y-97682150D01*
X69480970Y-97704329D01*
X69489235Y-97727428D01*
X69495196Y-97751227D01*
X69498796Y-97775495D01*
X69500000Y-97799999D01*
X69500000Y-98700001D01*
X69498796Y-98724505D01*
X69495196Y-98748773D01*
X69489235Y-98772572D01*
X69480970Y-98795671D01*
X69470480Y-98817850D01*
X69457868Y-98838893D01*
X69443253Y-98858599D01*
X69426777Y-98876777D01*
X69408599Y-98893253D01*
X69388893Y-98907868D01*
X69367850Y-98920480D01*
X69345671Y-98930970D01*
X69322572Y-98939235D01*
X69298773Y-98945196D01*
X69274505Y-98948796D01*
X69250001Y-98950000D01*
X68599999Y-98950000D01*
X68575495Y-98948796D01*
X68551227Y-98945196D01*
X68527428Y-98939235D01*
X68504329Y-98930970D01*
X68482150Y-98920480D01*
X68461107Y-98907868D01*
X68441401Y-98893253D01*
X68423223Y-98876777D01*
X68406747Y-98858599D01*
X68392132Y-98838893D01*
X68379520Y-98817850D01*
X68369030Y-98795671D01*
X68360765Y-98772572D01*
X68354804Y-98748773D01*
X68351204Y-98724505D01*
X68350000Y-98700001D01*
X68350000Y-97799999D01*
X68351204Y-97775495D01*
X68354804Y-97751227D01*
X68360765Y-97727428D01*
X68369030Y-97704329D01*
X68379520Y-97682150D01*
X68392132Y-97661107D01*
X68406747Y-97641401D01*
X68423223Y-97623223D01*
X68441401Y-97606747D01*
X68461107Y-97592132D01*
X68482150Y-97579520D01*
X68504329Y-97569030D01*
X68527428Y-97560765D01*
X68551227Y-97554804D01*
X68575495Y-97551204D01*
X68599999Y-97550000D01*
X69250001Y-97550000D01*
X69274505Y-97551204D01*
G37*
G36*
X22224505Y-113801204D02*
G01*
X22248773Y-113804804D01*
X22272572Y-113810765D01*
X22295671Y-113819030D01*
X22317850Y-113829520D01*
X22338893Y-113842132D01*
X22358599Y-113856747D01*
X22376777Y-113873223D01*
X22393253Y-113891401D01*
X22407868Y-113911107D01*
X22420480Y-113932150D01*
X22430970Y-113954329D01*
X22439235Y-113977428D01*
X22445196Y-114001227D01*
X22448796Y-114025495D01*
X22450000Y-114049999D01*
X22450000Y-114950001D01*
X22448796Y-114974505D01*
X22445196Y-114998773D01*
X22439235Y-115022572D01*
X22430970Y-115045671D01*
X22420480Y-115067850D01*
X22407868Y-115088893D01*
X22393253Y-115108599D01*
X22376777Y-115126777D01*
X22358599Y-115143253D01*
X22338893Y-115157868D01*
X22317850Y-115170480D01*
X22295671Y-115180970D01*
X22272572Y-115189235D01*
X22248773Y-115195196D01*
X22224505Y-115198796D01*
X22200001Y-115200000D01*
X21549999Y-115200000D01*
X21525495Y-115198796D01*
X21501227Y-115195196D01*
X21477428Y-115189235D01*
X21454329Y-115180970D01*
X21432150Y-115170480D01*
X21411107Y-115157868D01*
X21391401Y-115143253D01*
X21373223Y-115126777D01*
X21356747Y-115108599D01*
X21342132Y-115088893D01*
X21329520Y-115067850D01*
X21319030Y-115045671D01*
X21310765Y-115022572D01*
X21304804Y-114998773D01*
X21301204Y-114974505D01*
X21300000Y-114950001D01*
X21300000Y-114049999D01*
X21301204Y-114025495D01*
X21304804Y-114001227D01*
X21310765Y-113977428D01*
X21319030Y-113954329D01*
X21329520Y-113932150D01*
X21342132Y-113911107D01*
X21356747Y-113891401D01*
X21373223Y-113873223D01*
X21391401Y-113856747D01*
X21411107Y-113842132D01*
X21432150Y-113829520D01*
X21454329Y-113819030D01*
X21477428Y-113810765D01*
X21501227Y-113804804D01*
X21525495Y-113801204D01*
X21549999Y-113800000D01*
X22200001Y-113800000D01*
X22224505Y-113801204D01*
G37*
G36*
X24274505Y-113801204D02*
G01*
X24298773Y-113804804D01*
X24322572Y-113810765D01*
X24345671Y-113819030D01*
X24367850Y-113829520D01*
X24388893Y-113842132D01*
X24408599Y-113856747D01*
X24426777Y-113873223D01*
X24443253Y-113891401D01*
X24457868Y-113911107D01*
X24470480Y-113932150D01*
X24480970Y-113954329D01*
X24489235Y-113977428D01*
X24495196Y-114001227D01*
X24498796Y-114025495D01*
X24500000Y-114049999D01*
X24500000Y-114950001D01*
X24498796Y-114974505D01*
X24495196Y-114998773D01*
X24489235Y-115022572D01*
X24480970Y-115045671D01*
X24470480Y-115067850D01*
X24457868Y-115088893D01*
X24443253Y-115108599D01*
X24426777Y-115126777D01*
X24408599Y-115143253D01*
X24388893Y-115157868D01*
X24367850Y-115170480D01*
X24345671Y-115180970D01*
X24322572Y-115189235D01*
X24298773Y-115195196D01*
X24274505Y-115198796D01*
X24250001Y-115200000D01*
X23599999Y-115200000D01*
X23575495Y-115198796D01*
X23551227Y-115195196D01*
X23527428Y-115189235D01*
X23504329Y-115180970D01*
X23482150Y-115170480D01*
X23461107Y-115157868D01*
X23441401Y-115143253D01*
X23423223Y-115126777D01*
X23406747Y-115108599D01*
X23392132Y-115088893D01*
X23379520Y-115067850D01*
X23369030Y-115045671D01*
X23360765Y-115022572D01*
X23354804Y-114998773D01*
X23351204Y-114974505D01*
X23350000Y-114950001D01*
X23350000Y-114049999D01*
X23351204Y-114025495D01*
X23354804Y-114001227D01*
X23360765Y-113977428D01*
X23369030Y-113954329D01*
X23379520Y-113932150D01*
X23392132Y-113911107D01*
X23406747Y-113891401D01*
X23423223Y-113873223D01*
X23441401Y-113856747D01*
X23461107Y-113842132D01*
X23482150Y-113829520D01*
X23504329Y-113819030D01*
X23527428Y-113810765D01*
X23551227Y-113804804D01*
X23575495Y-113801204D01*
X23599999Y-113800000D01*
X24250001Y-113800000D01*
X24274505Y-113801204D01*
G37*
M02*
