G04 #@! TF.GenerationSoftware,KiCad,Pcbnew,(5.1.5-0-10_14)*
G04 #@! TF.CreationDate,2020-08-26T20:56:13+02:00*
G04 #@! TF.ProjectId,HB-RC-4-Dis-TH,48422d52-432d-4342-9d44-69732d54482e,rev?*
G04 #@! TF.SameCoordinates,Original*
G04 #@! TF.FileFunction,Legend,Bot*
G04 #@! TF.FilePolarity,Positive*
%FSLAX46Y46*%
G04 Gerber Fmt 4.6, Leading zero omitted, Abs format (unit mm)*
G04 Created by KiCad (PCBNEW (5.1.5-0-10_14)) date 2020-08-26 20:56:13*
%MOMM*%
%LPD*%
G04 APERTURE LIST*
%ADD10C,0.300000*%
%ADD11C,0.200000*%
%ADD12C,0.100000*%
%ADD13C,0.150000*%
%ADD14C,0.120000*%
G04 APERTURE END LIST*
D10*
X46450000Y-85150000D02*
G75*
G03X46450000Y-85150000I-150000J0D01*
G01*
D11*
X29119047Y-90428571D02*
X29880952Y-90428571D01*
X21919047Y-90428571D02*
X22680952Y-90428571D01*
X22300000Y-90047619D02*
X22300000Y-90809523D01*
D12*
X37942857Y-114014285D02*
X37971428Y-114042857D01*
X38057142Y-114071428D01*
X38114285Y-114071428D01*
X38200000Y-114042857D01*
X38257142Y-113985714D01*
X38285714Y-113928571D01*
X38314285Y-113814285D01*
X38314285Y-113728571D01*
X38285714Y-113614285D01*
X38257142Y-113557142D01*
X38200000Y-113500000D01*
X38114285Y-113471428D01*
X38057142Y-113471428D01*
X37971428Y-113500000D01*
X37942857Y-113528571D01*
X37342857Y-114014285D02*
X37371428Y-114042857D01*
X37457142Y-114071428D01*
X37514285Y-114071428D01*
X37600000Y-114042857D01*
X37657142Y-113985714D01*
X37685714Y-113928571D01*
X37714285Y-113814285D01*
X37714285Y-113728571D01*
X37685714Y-113614285D01*
X37657142Y-113557142D01*
X37600000Y-113500000D01*
X37514285Y-113471428D01*
X37457142Y-113471428D01*
X37371428Y-113500000D01*
X37342857Y-113528571D01*
X36428571Y-113757142D02*
X36342857Y-113785714D01*
X36314285Y-113814285D01*
X36285714Y-113871428D01*
X36285714Y-113957142D01*
X36314285Y-114014285D01*
X36342857Y-114042857D01*
X36400000Y-114071428D01*
X36628571Y-114071428D01*
X36628571Y-113471428D01*
X36428571Y-113471428D01*
X36371428Y-113500000D01*
X36342857Y-113528571D01*
X36314285Y-113585714D01*
X36314285Y-113642857D01*
X36342857Y-113700000D01*
X36371428Y-113728571D01*
X36428571Y-113757142D01*
X36628571Y-113757142D01*
X35914285Y-113785714D02*
X35914285Y-114071428D01*
X36114285Y-113471428D02*
X35914285Y-113785714D01*
X35714285Y-113471428D01*
X35514285Y-113842857D02*
X35057142Y-113842857D01*
X34771428Y-114071428D02*
X34771428Y-113471428D01*
X34428571Y-114071428D01*
X34428571Y-113471428D01*
X33800000Y-114014285D02*
X33828571Y-114042857D01*
X33914285Y-114071428D01*
X33971428Y-114071428D01*
X34057142Y-114042857D01*
X34114285Y-113985714D01*
X34142857Y-113928571D01*
X34171428Y-113814285D01*
X34171428Y-113728571D01*
X34142857Y-113614285D01*
X34114285Y-113557142D01*
X34057142Y-113500000D01*
X33971428Y-113471428D01*
X33914285Y-113471428D01*
X33828571Y-113500000D01*
X33800000Y-113528571D01*
X33542857Y-113842857D02*
X33085714Y-113842857D01*
X32828571Y-114042857D02*
X32742857Y-114071428D01*
X32600000Y-114071428D01*
X32542857Y-114042857D01*
X32514285Y-114014285D01*
X32485714Y-113957142D01*
X32485714Y-113900000D01*
X32514285Y-113842857D01*
X32542857Y-113814285D01*
X32600000Y-113785714D01*
X32714285Y-113757142D01*
X32771428Y-113728571D01*
X32800000Y-113700000D01*
X32828571Y-113642857D01*
X32828571Y-113585714D01*
X32800000Y-113528571D01*
X32771428Y-113500000D01*
X32714285Y-113471428D01*
X32571428Y-113471428D01*
X32485714Y-113500000D01*
X32257142Y-113900000D02*
X31971428Y-113900000D01*
X32314285Y-114071428D02*
X32114285Y-113471428D01*
X31914285Y-114071428D01*
X31000000Y-113671428D02*
X31000000Y-114071428D01*
X31142857Y-113442857D02*
X31285714Y-113871428D01*
X30914285Y-113871428D01*
X30685714Y-114014285D02*
X30657142Y-114042857D01*
X30685714Y-114071428D01*
X30714285Y-114042857D01*
X30685714Y-114014285D01*
X30685714Y-114071428D01*
X30285714Y-113471428D02*
X30228571Y-113471428D01*
X30171428Y-113500000D01*
X30142857Y-113528571D01*
X30114285Y-113585714D01*
X30085714Y-113700000D01*
X30085714Y-113842857D01*
X30114285Y-113957142D01*
X30142857Y-114014285D01*
X30171428Y-114042857D01*
X30228571Y-114071428D01*
X30285714Y-114071428D01*
X30342857Y-114042857D01*
X30371428Y-114014285D01*
X30400000Y-113957142D01*
X30428571Y-113842857D01*
X30428571Y-113700000D01*
X30400000Y-113585714D01*
X30371428Y-113528571D01*
X30342857Y-113500000D01*
X30285714Y-113471428D01*
D13*
X41485714Y-104477380D02*
X41485714Y-103477380D01*
X41485714Y-103953571D02*
X40914285Y-103953571D01*
X40914285Y-104477380D02*
X40914285Y-103477380D01*
X40104761Y-103953571D02*
X39961904Y-104001190D01*
X39914285Y-104048809D01*
X39866666Y-104144047D01*
X39866666Y-104286904D01*
X39914285Y-104382142D01*
X39961904Y-104429761D01*
X40057142Y-104477380D01*
X40438095Y-104477380D01*
X40438095Y-103477380D01*
X40104761Y-103477380D01*
X40009523Y-103525000D01*
X39961904Y-103572619D01*
X39914285Y-103667857D01*
X39914285Y-103763095D01*
X39961904Y-103858333D01*
X40009523Y-103905952D01*
X40104761Y-103953571D01*
X40438095Y-103953571D01*
X39438095Y-104096428D02*
X38676190Y-104096428D01*
X37628571Y-104477380D02*
X37961904Y-104001190D01*
X38200000Y-104477380D02*
X38200000Y-103477380D01*
X37819047Y-103477380D01*
X37723809Y-103525000D01*
X37676190Y-103572619D01*
X37628571Y-103667857D01*
X37628571Y-103810714D01*
X37676190Y-103905952D01*
X37723809Y-103953571D01*
X37819047Y-104001190D01*
X38200000Y-104001190D01*
X36628571Y-104382142D02*
X36676190Y-104429761D01*
X36819047Y-104477380D01*
X36914285Y-104477380D01*
X37057142Y-104429761D01*
X37152380Y-104334523D01*
X37200000Y-104239285D01*
X37247619Y-104048809D01*
X37247619Y-103905952D01*
X37200000Y-103715476D01*
X37152380Y-103620238D01*
X37057142Y-103525000D01*
X36914285Y-103477380D01*
X36819047Y-103477380D01*
X36676190Y-103525000D01*
X36628571Y-103572619D01*
X36200000Y-104096428D02*
X35438095Y-104096428D01*
X34533333Y-103810714D02*
X34533333Y-104477380D01*
X34771428Y-103429761D02*
X35009523Y-104144047D01*
X34390476Y-104144047D01*
X34009523Y-104096428D02*
X33247619Y-104096428D01*
X32771428Y-104477380D02*
X32771428Y-103477380D01*
X32533333Y-103477380D01*
X32390476Y-103525000D01*
X32295238Y-103620238D01*
X32247619Y-103715476D01*
X32200000Y-103905952D01*
X32200000Y-104048809D01*
X32247619Y-104239285D01*
X32295238Y-104334523D01*
X32390476Y-104429761D01*
X32533333Y-104477380D01*
X32771428Y-104477380D01*
X31771428Y-104477380D02*
X31771428Y-103810714D01*
X31771428Y-103477380D02*
X31819047Y-103525000D01*
X31771428Y-103572619D01*
X31723809Y-103525000D01*
X31771428Y-103477380D01*
X31771428Y-103572619D01*
X31342857Y-104429761D02*
X31247619Y-104477380D01*
X31057142Y-104477380D01*
X30961904Y-104429761D01*
X30914285Y-104334523D01*
X30914285Y-104286904D01*
X30961904Y-104191666D01*
X31057142Y-104144047D01*
X31200000Y-104144047D01*
X31295238Y-104096428D01*
X31342857Y-104001190D01*
X31342857Y-103953571D01*
X31295238Y-103858333D01*
X31200000Y-103810714D01*
X31057142Y-103810714D01*
X30961904Y-103858333D01*
X30485714Y-104096428D02*
X29723809Y-104096428D01*
X29390476Y-103477380D02*
X28819047Y-103477380D01*
X29104761Y-104477380D02*
X29104761Y-103477380D01*
X28485714Y-104477380D02*
X28485714Y-103477380D01*
X28485714Y-103953571D02*
X27914285Y-103953571D01*
X27914285Y-104477380D02*
X27914285Y-103477380D01*
X41176190Y-106508333D02*
X41223809Y-106460714D01*
X41319047Y-106317857D01*
X41366666Y-106222619D01*
X41414285Y-106079761D01*
X41461904Y-105841666D01*
X41461904Y-105651190D01*
X41414285Y-105413095D01*
X41366666Y-105270238D01*
X41319047Y-105175000D01*
X41223809Y-105032142D01*
X41176190Y-104984523D01*
X40366666Y-106079761D02*
X40461904Y-106127380D01*
X40652380Y-106127380D01*
X40747619Y-106079761D01*
X40795238Y-106032142D01*
X40842857Y-105936904D01*
X40842857Y-105651190D01*
X40795238Y-105555952D01*
X40747619Y-105508333D01*
X40652380Y-105460714D01*
X40461904Y-105460714D01*
X40366666Y-105508333D01*
X40033333Y-106508333D02*
X39985714Y-106460714D01*
X39890476Y-106317857D01*
X39842857Y-106222619D01*
X39795238Y-106079761D01*
X39747619Y-105841666D01*
X39747619Y-105651190D01*
X39795238Y-105413095D01*
X39842857Y-105270238D01*
X39890476Y-105175000D01*
X39985714Y-105032142D01*
X40033333Y-104984523D01*
X38557142Y-105222619D02*
X38509523Y-105175000D01*
X38414285Y-105127380D01*
X38176190Y-105127380D01*
X38080952Y-105175000D01*
X38033333Y-105222619D01*
X37985714Y-105317857D01*
X37985714Y-105413095D01*
X38033333Y-105555952D01*
X38604761Y-106127380D01*
X37985714Y-106127380D01*
X37366666Y-105127380D02*
X37271428Y-105127380D01*
X37176190Y-105175000D01*
X37128571Y-105222619D01*
X37080952Y-105317857D01*
X37033333Y-105508333D01*
X37033333Y-105746428D01*
X37080952Y-105936904D01*
X37128571Y-106032142D01*
X37176190Y-106079761D01*
X37271428Y-106127380D01*
X37366666Y-106127380D01*
X37461904Y-106079761D01*
X37509523Y-106032142D01*
X37557142Y-105936904D01*
X37604761Y-105746428D01*
X37604761Y-105508333D01*
X37557142Y-105317857D01*
X37509523Y-105222619D01*
X37461904Y-105175000D01*
X37366666Y-105127380D01*
X36652380Y-105222619D02*
X36604761Y-105175000D01*
X36509523Y-105127380D01*
X36271428Y-105127380D01*
X36176190Y-105175000D01*
X36128571Y-105222619D01*
X36080952Y-105317857D01*
X36080952Y-105413095D01*
X36128571Y-105555952D01*
X36700000Y-106127380D01*
X36080952Y-106127380D01*
X35461904Y-105127380D02*
X35366666Y-105127380D01*
X35271428Y-105175000D01*
X35223809Y-105222619D01*
X35176190Y-105317857D01*
X35128571Y-105508333D01*
X35128571Y-105746428D01*
X35176190Y-105936904D01*
X35223809Y-106032142D01*
X35271428Y-106079761D01*
X35366666Y-106127380D01*
X35461904Y-106127380D01*
X35557142Y-106079761D01*
X35604761Y-106032142D01*
X35652380Y-105936904D01*
X35700000Y-105746428D01*
X35700000Y-105508333D01*
X35652380Y-105317857D01*
X35604761Y-105222619D01*
X35557142Y-105175000D01*
X35461904Y-105127380D01*
X33938095Y-105460714D02*
X33938095Y-106317857D01*
X33985714Y-106413095D01*
X34080952Y-106460714D01*
X34128571Y-106460714D01*
X33938095Y-105127380D02*
X33985714Y-105175000D01*
X33938095Y-105222619D01*
X33890476Y-105175000D01*
X33938095Y-105127380D01*
X33938095Y-105222619D01*
X33461904Y-105460714D02*
X33461904Y-106460714D01*
X33461904Y-105508333D02*
X33366666Y-105460714D01*
X33176190Y-105460714D01*
X33080952Y-105508333D01*
X33033333Y-105555952D01*
X32985714Y-105651190D01*
X32985714Y-105936904D01*
X33033333Y-106032142D01*
X33080952Y-106079761D01*
X33176190Y-106127380D01*
X33366666Y-106127380D01*
X33461904Y-106079761D01*
X32033333Y-106127380D02*
X32604761Y-106127380D01*
X32319047Y-106127380D02*
X32319047Y-105127380D01*
X32414285Y-105270238D01*
X32509523Y-105365476D01*
X32604761Y-105413095D01*
X31080952Y-106127380D02*
X31652380Y-106127380D01*
X31366666Y-106127380D02*
X31366666Y-105127380D01*
X31461904Y-105270238D01*
X31557142Y-105365476D01*
X31652380Y-105413095D01*
X30700000Y-105222619D02*
X30652380Y-105175000D01*
X30557142Y-105127380D01*
X30319047Y-105127380D01*
X30223809Y-105175000D01*
X30176190Y-105222619D01*
X30128571Y-105317857D01*
X30128571Y-105413095D01*
X30176190Y-105555952D01*
X30747619Y-106127380D01*
X30128571Y-106127380D01*
X29747619Y-106079761D02*
X29652380Y-106127380D01*
X29461904Y-106127380D01*
X29366666Y-106079761D01*
X29319047Y-105984523D01*
X29319047Y-105936904D01*
X29366666Y-105841666D01*
X29461904Y-105794047D01*
X29604761Y-105794047D01*
X29700000Y-105746428D01*
X29747619Y-105651190D01*
X29747619Y-105603571D01*
X29700000Y-105508333D01*
X29604761Y-105460714D01*
X29461904Y-105460714D01*
X29366666Y-105508333D01*
X28461904Y-106127380D02*
X28461904Y-105127380D01*
X28461904Y-106079761D02*
X28557142Y-106127380D01*
X28747619Y-106127380D01*
X28842857Y-106079761D01*
X28890476Y-106032142D01*
X28938095Y-105936904D01*
X28938095Y-105651190D01*
X28890476Y-105555952D01*
X28842857Y-105508333D01*
X28747619Y-105460714D01*
X28557142Y-105460714D01*
X28461904Y-105508333D01*
X27842857Y-106127380D02*
X27938095Y-106079761D01*
X27985714Y-105984523D01*
X27985714Y-105127380D01*
X36223809Y-108427380D02*
X35890476Y-109427380D01*
X35557142Y-108427380D01*
X34700000Y-109427380D02*
X35271428Y-109427380D01*
X34985714Y-109427380D02*
X34985714Y-108427380D01*
X35080952Y-108570238D01*
X35176190Y-108665476D01*
X35271428Y-108713095D01*
X34271428Y-109332142D02*
X34223809Y-109379761D01*
X34271428Y-109427380D01*
X34319047Y-109379761D01*
X34271428Y-109332142D01*
X34271428Y-109427380D01*
X33842857Y-108522619D02*
X33795238Y-108475000D01*
X33700000Y-108427380D01*
X33461904Y-108427380D01*
X33366666Y-108475000D01*
X33319047Y-108522619D01*
X33271428Y-108617857D01*
X33271428Y-108713095D01*
X33319047Y-108855952D01*
X33890476Y-109427380D01*
X33271428Y-109427380D01*
X35150000Y-119988095D02*
X35102380Y-119892857D01*
X35102380Y-119750000D01*
X35150000Y-119607142D01*
X35245238Y-119511904D01*
X35340476Y-119464285D01*
X35530952Y-119416666D01*
X35673809Y-119416666D01*
X35864285Y-119464285D01*
X35959523Y-119511904D01*
X36054761Y-119607142D01*
X36102380Y-119750000D01*
X36102380Y-119845238D01*
X36054761Y-119988095D01*
X36007142Y-120035714D01*
X35673809Y-120035714D01*
X35673809Y-119845238D01*
X36102380Y-120464285D02*
X35102380Y-120464285D01*
X36102380Y-121035714D01*
X35102380Y-121035714D01*
X36102380Y-121511904D02*
X35102380Y-121511904D01*
X35102380Y-121750000D01*
X35150000Y-121892857D01*
X35245238Y-121988095D01*
X35340476Y-122035714D01*
X35530952Y-122083333D01*
X35673809Y-122083333D01*
X35864285Y-122035714D01*
X35959523Y-121988095D01*
X36054761Y-121892857D01*
X36102380Y-121750000D01*
X36102380Y-121511904D01*
X32650000Y-119988095D02*
X32602380Y-119892857D01*
X32602380Y-119750000D01*
X32650000Y-119607142D01*
X32745238Y-119511904D01*
X32840476Y-119464285D01*
X33030952Y-119416666D01*
X33173809Y-119416666D01*
X33364285Y-119464285D01*
X33459523Y-119511904D01*
X33554761Y-119607142D01*
X33602380Y-119750000D01*
X33602380Y-119845238D01*
X33554761Y-119988095D01*
X33507142Y-120035714D01*
X33173809Y-120035714D01*
X33173809Y-119845238D01*
X33602380Y-120464285D02*
X32602380Y-120464285D01*
X33602380Y-121035714D01*
X32602380Y-121035714D01*
X33602380Y-121511904D02*
X32602380Y-121511904D01*
X32602380Y-121750000D01*
X32650000Y-121892857D01*
X32745238Y-121988095D01*
X32840476Y-122035714D01*
X33030952Y-122083333D01*
X33173809Y-122083333D01*
X33364285Y-122035714D01*
X33459523Y-121988095D01*
X33554761Y-121892857D01*
X33602380Y-121750000D01*
X33602380Y-121511904D01*
X30052380Y-119459523D02*
X31052380Y-119792857D01*
X30052380Y-120126190D01*
X31004761Y-120888095D02*
X31052380Y-120792857D01*
X31052380Y-120602380D01*
X31004761Y-120507142D01*
X30957142Y-120459523D01*
X30861904Y-120411904D01*
X30576190Y-120411904D01*
X30480952Y-120459523D01*
X30433333Y-120507142D01*
X30385714Y-120602380D01*
X30385714Y-120792857D01*
X30433333Y-120888095D01*
X31004761Y-121745238D02*
X31052380Y-121650000D01*
X31052380Y-121459523D01*
X31004761Y-121364285D01*
X30957142Y-121316666D01*
X30861904Y-121269047D01*
X30576190Y-121269047D01*
X30480952Y-121316666D01*
X30433333Y-121364285D01*
X30385714Y-121459523D01*
X30385714Y-121650000D01*
X30433333Y-121745238D01*
X28502380Y-120033333D02*
X28026190Y-119700000D01*
X28502380Y-119461904D02*
X27502380Y-119461904D01*
X27502380Y-119842857D01*
X27550000Y-119938095D01*
X27597619Y-119985714D01*
X27692857Y-120033333D01*
X27835714Y-120033333D01*
X27930952Y-119985714D01*
X27978571Y-119938095D01*
X28026190Y-119842857D01*
X28026190Y-119461904D01*
X27502380Y-120366666D02*
X28502380Y-121033333D01*
X27502380Y-121033333D02*
X28502380Y-120366666D01*
X25002380Y-119388095D02*
X25002380Y-119959523D01*
X26002380Y-119673809D02*
X25002380Y-119673809D01*
X25002380Y-120197619D02*
X26002380Y-120864285D01*
X25002380Y-120864285D02*
X26002380Y-120197619D01*
X23352380Y-119507142D02*
X22352380Y-119507142D01*
X22352380Y-119745238D01*
X22400000Y-119888095D01*
X22495238Y-119983333D01*
X22590476Y-120030952D01*
X22780952Y-120078571D01*
X22923809Y-120078571D01*
X23114285Y-120030952D01*
X23209523Y-119983333D01*
X23304761Y-119888095D01*
X23352380Y-119745238D01*
X23352380Y-119507142D01*
X22352380Y-120364285D02*
X22352380Y-120935714D01*
X23352380Y-120650000D02*
X22352380Y-120650000D01*
X23352380Y-121840476D02*
X22876190Y-121507142D01*
X23352380Y-121269047D02*
X22352380Y-121269047D01*
X22352380Y-121650000D01*
X22400000Y-121745238D01*
X22447619Y-121792857D01*
X22542857Y-121840476D01*
X22685714Y-121840476D01*
X22780952Y-121792857D01*
X22828571Y-121745238D01*
X22876190Y-121650000D01*
X22876190Y-121269047D01*
X33050000Y-96688095D02*
X33002380Y-96592857D01*
X33002380Y-96450000D01*
X33050000Y-96307142D01*
X33145238Y-96211904D01*
X33240476Y-96164285D01*
X33430952Y-96116666D01*
X33573809Y-96116666D01*
X33764285Y-96164285D01*
X33859523Y-96211904D01*
X33954761Y-96307142D01*
X34002380Y-96450000D01*
X34002380Y-96545238D01*
X33954761Y-96688095D01*
X33907142Y-96735714D01*
X33573809Y-96735714D01*
X33573809Y-96545238D01*
X34002380Y-97164285D02*
X33002380Y-97164285D01*
X34002380Y-97735714D01*
X33002380Y-97735714D01*
X34002380Y-98211904D02*
X33002380Y-98211904D01*
X33002380Y-98450000D01*
X33050000Y-98592857D01*
X33145238Y-98688095D01*
X33240476Y-98735714D01*
X33430952Y-98783333D01*
X33573809Y-98783333D01*
X33764285Y-98735714D01*
X33859523Y-98688095D01*
X33954761Y-98592857D01*
X34002380Y-98450000D01*
X34002380Y-98211904D01*
X32002380Y-96702380D02*
X31526190Y-96369047D01*
X32002380Y-96130952D02*
X31002380Y-96130952D01*
X31002380Y-96511904D01*
X31050000Y-96607142D01*
X31097619Y-96654761D01*
X31192857Y-96702380D01*
X31335714Y-96702380D01*
X31430952Y-96654761D01*
X31478571Y-96607142D01*
X31526190Y-96511904D01*
X31526190Y-96130952D01*
X31954761Y-97083333D02*
X32002380Y-97226190D01*
X32002380Y-97464285D01*
X31954761Y-97559523D01*
X31907142Y-97607142D01*
X31811904Y-97654761D01*
X31716666Y-97654761D01*
X31621428Y-97607142D01*
X31573809Y-97559523D01*
X31526190Y-97464285D01*
X31478571Y-97273809D01*
X31430952Y-97178571D01*
X31383333Y-97130952D01*
X31288095Y-97083333D01*
X31192857Y-97083333D01*
X31097619Y-97130952D01*
X31050000Y-97178571D01*
X31002380Y-97273809D01*
X31002380Y-97511904D01*
X31050000Y-97654761D01*
X31002380Y-97940476D02*
X31002380Y-98511904D01*
X32002380Y-98226190D02*
X31002380Y-98226190D01*
X30002380Y-96128571D02*
X29002380Y-96128571D01*
X29716666Y-96461904D01*
X29002380Y-96795238D01*
X30002380Y-96795238D01*
X29002380Y-97461904D02*
X29002380Y-97652380D01*
X29050000Y-97747619D01*
X29145238Y-97842857D01*
X29335714Y-97890476D01*
X29669047Y-97890476D01*
X29859523Y-97842857D01*
X29954761Y-97747619D01*
X30002380Y-97652380D01*
X30002380Y-97461904D01*
X29954761Y-97366666D01*
X29859523Y-97271428D01*
X29669047Y-97223809D01*
X29335714Y-97223809D01*
X29145238Y-97271428D01*
X29050000Y-97366666D01*
X29002380Y-97461904D01*
X29954761Y-98271428D02*
X30002380Y-98414285D01*
X30002380Y-98652380D01*
X29954761Y-98747619D01*
X29907142Y-98795238D01*
X29811904Y-98842857D01*
X29716666Y-98842857D01*
X29621428Y-98795238D01*
X29573809Y-98747619D01*
X29526190Y-98652380D01*
X29478571Y-98461904D01*
X29430952Y-98366666D01*
X29383333Y-98319047D01*
X29288095Y-98271428D01*
X29192857Y-98271428D01*
X29097619Y-98319047D01*
X29050000Y-98366666D01*
X29002380Y-98461904D01*
X29002380Y-98700000D01*
X29050000Y-98842857D01*
X30002380Y-99271428D02*
X29002380Y-99271428D01*
X28052380Y-96128571D02*
X27052380Y-96128571D01*
X27766666Y-96461904D01*
X27052380Y-96795238D01*
X28052380Y-96795238D01*
X28052380Y-97271428D02*
X27052380Y-97271428D01*
X28004761Y-97700000D02*
X28052380Y-97842857D01*
X28052380Y-98080952D01*
X28004761Y-98176190D01*
X27957142Y-98223809D01*
X27861904Y-98271428D01*
X27766666Y-98271428D01*
X27671428Y-98223809D01*
X27623809Y-98176190D01*
X27576190Y-98080952D01*
X27528571Y-97890476D01*
X27480952Y-97795238D01*
X27433333Y-97747619D01*
X27338095Y-97700000D01*
X27242857Y-97700000D01*
X27147619Y-97747619D01*
X27100000Y-97795238D01*
X27052380Y-97890476D01*
X27052380Y-98128571D01*
X27100000Y-98271428D01*
X27052380Y-98890476D02*
X27052380Y-99080952D01*
X27100000Y-99176190D01*
X27195238Y-99271428D01*
X27385714Y-99319047D01*
X27719047Y-99319047D01*
X27909523Y-99271428D01*
X28004761Y-99176190D01*
X28052380Y-99080952D01*
X28052380Y-98890476D01*
X28004761Y-98795238D01*
X27909523Y-98700000D01*
X27719047Y-98652380D01*
X27385714Y-98652380D01*
X27195238Y-98700000D01*
X27100000Y-98795238D01*
X27052380Y-98890476D01*
X25002380Y-96109523D02*
X26002380Y-96442857D01*
X25002380Y-96776190D01*
X25954761Y-97538095D02*
X26002380Y-97442857D01*
X26002380Y-97252380D01*
X25954761Y-97157142D01*
X25907142Y-97109523D01*
X25811904Y-97061904D01*
X25526190Y-97061904D01*
X25430952Y-97109523D01*
X25383333Y-97157142D01*
X25335714Y-97252380D01*
X25335714Y-97442857D01*
X25383333Y-97538095D01*
X25954761Y-98395238D02*
X26002380Y-98300000D01*
X26002380Y-98109523D01*
X25954761Y-98014285D01*
X25907142Y-97966666D01*
X25811904Y-97919047D01*
X25526190Y-97919047D01*
X25430952Y-97966666D01*
X25383333Y-98014285D01*
X25335714Y-98109523D01*
X25335714Y-98300000D01*
X25383333Y-98395238D01*
X23904761Y-96164285D02*
X23952380Y-96307142D01*
X23952380Y-96545238D01*
X23904761Y-96640476D01*
X23857142Y-96688095D01*
X23761904Y-96735714D01*
X23666666Y-96735714D01*
X23571428Y-96688095D01*
X23523809Y-96640476D01*
X23476190Y-96545238D01*
X23428571Y-96354761D01*
X23380952Y-96259523D01*
X23333333Y-96211904D01*
X23238095Y-96164285D01*
X23142857Y-96164285D01*
X23047619Y-96211904D01*
X23000000Y-96259523D01*
X22952380Y-96354761D01*
X22952380Y-96592857D01*
X23000000Y-96735714D01*
X23857142Y-97735714D02*
X23904761Y-97688095D01*
X23952380Y-97545238D01*
X23952380Y-97450000D01*
X23904761Y-97307142D01*
X23809523Y-97211904D01*
X23714285Y-97164285D01*
X23523809Y-97116666D01*
X23380952Y-97116666D01*
X23190476Y-97164285D01*
X23095238Y-97211904D01*
X23000000Y-97307142D01*
X22952380Y-97450000D01*
X22952380Y-97545238D01*
X23000000Y-97688095D01*
X23047619Y-97735714D01*
X23952380Y-98164285D02*
X22952380Y-98164285D01*
X23952380Y-98735714D02*
X23380952Y-98307142D01*
X22952380Y-98735714D02*
X23523809Y-98164285D01*
D14*
X53086252Y-98365000D02*
X52563748Y-98365000D01*
X53086252Y-99785000D02*
X52563748Y-99785000D01*
X60985000Y-90213748D02*
X60985000Y-90736252D01*
X59565000Y-90213748D02*
X59565000Y-90736252D01*
X51913748Y-83260000D02*
X52436252Y-83260000D01*
X51913748Y-81840000D02*
X52436252Y-81840000D01*
X34541400Y-95960000D02*
X34541400Y-93840000D01*
X34541400Y-93840000D02*
X22440000Y-93840000D01*
X34541400Y-95966800D02*
X22440000Y-95960000D01*
X22440000Y-95960000D02*
X22440000Y-93840000D01*
X57575000Y-122750000D02*
X57575000Y-128550000D01*
X60875000Y-122750000D02*
X60875000Y-128550000D01*
X57575000Y-122750000D02*
X60875000Y-122750000D01*
X23270000Y-89170000D02*
X23270000Y-90500000D01*
X24600000Y-89170000D02*
X23270000Y-89170000D01*
X25870000Y-89170000D02*
X25870000Y-91830000D01*
X25870000Y-91830000D02*
X28470000Y-91830000D01*
X25870000Y-89170000D02*
X28470000Y-89170000D01*
X28470000Y-89170000D02*
X28470000Y-91830000D01*
X42615000Y-91061252D02*
X42615000Y-90538748D01*
X44035000Y-91061252D02*
X44035000Y-90538748D01*
X36830000Y-119130000D02*
X36830000Y-117800000D01*
X35500000Y-119130000D02*
X36830000Y-119130000D01*
X34230000Y-119130000D02*
X34230000Y-116470000D01*
X34230000Y-116470000D02*
X21470000Y-116470000D01*
X34230000Y-119130000D02*
X21470000Y-119130000D01*
X21470000Y-119130000D02*
X21470000Y-116470000D01*
X58961252Y-119310000D02*
X58438748Y-119310000D01*
X58961252Y-117890000D02*
X58438748Y-117890000D01*
X45661252Y-112390000D02*
X45138748Y-112390000D01*
X45661252Y-113810000D02*
X45138748Y-113810000D01*
X66870000Y-108440000D02*
X66870000Y-106980000D01*
X63710000Y-108440000D02*
X63710000Y-106280000D01*
X63710000Y-108440000D02*
X64640000Y-108440000D01*
X66870000Y-108440000D02*
X65940000Y-108440000D01*
X66900000Y-111720000D02*
X66900000Y-111320000D01*
X63700000Y-111720000D02*
X63700000Y-111320000D01*
X54850000Y-113950000D02*
X58750000Y-113950000D01*
X54850000Y-111950000D02*
X58750000Y-111950000D01*
X54850000Y-113950000D02*
X54850000Y-111950000D01*
X59350000Y-109450000D02*
X55450000Y-109450000D01*
X59350000Y-111450000D02*
X55450000Y-111450000D01*
X59350000Y-109450000D02*
X59350000Y-111450000D01*
X59350000Y-106950000D02*
X55450000Y-106950000D01*
X59350000Y-108950000D02*
X55450000Y-108950000D01*
X59350000Y-106950000D02*
X59350000Y-108950000D01*
X45138748Y-118210000D02*
X45661252Y-118210000D01*
X45138748Y-116790000D02*
X45661252Y-116790000D01*
X60638748Y-101515000D02*
X61161252Y-101515000D01*
X60638748Y-102935000D02*
X61161252Y-102935000D01*
X51788748Y-105290000D02*
X52311252Y-105290000D01*
X51788748Y-106710000D02*
X52311252Y-106710000D01*
X45661252Y-109990000D02*
X45138748Y-109990000D01*
X45661252Y-111410000D02*
X45138748Y-111410000D01*
X45661252Y-114590000D02*
X45138748Y-114590000D01*
X45661252Y-116010000D02*
X45138748Y-116010000D01*
X45661252Y-98690000D02*
X45138748Y-98690000D01*
X45661252Y-100110000D02*
X45138748Y-100110000D01*
X45661252Y-100890000D02*
X45138748Y-100890000D01*
X45661252Y-102310000D02*
X45138748Y-102310000D01*
X45661252Y-103090000D02*
X45138748Y-103090000D01*
X45661252Y-104510000D02*
X45138748Y-104510000D01*
X45661252Y-105290000D02*
X45138748Y-105290000D01*
X45661252Y-106710000D02*
X45138748Y-106710000D01*
X45661252Y-107690000D02*
X45138748Y-107690000D01*
X45661252Y-109110000D02*
X45138748Y-109110000D01*
X50938748Y-119090000D02*
X51461252Y-119090000D01*
X50938748Y-120510000D02*
X51461252Y-120510000D01*
D13*
X47150000Y-85575000D02*
X47150000Y-84300000D01*
X46575000Y-95925000D02*
X46575000Y-95250000D01*
X56925000Y-95925000D02*
X56925000Y-95250000D01*
X56925000Y-85575000D02*
X56925000Y-86250000D01*
X46575000Y-85575000D02*
X46575000Y-86250000D01*
X56925000Y-85575000D02*
X56250000Y-85575000D01*
X56925000Y-95925000D02*
X56250000Y-95925000D01*
X46575000Y-95925000D02*
X47250000Y-95925000D01*
X46575000Y-85575000D02*
X47150000Y-85575000D01*
D14*
X38261252Y-89360000D02*
X37738748Y-89360000D01*
X38261252Y-87940000D02*
X37738748Y-87940000D01*
X38261252Y-87210000D02*
X37738748Y-87210000D01*
X38261252Y-85790000D02*
X37738748Y-85790000D01*
X42338748Y-83810000D02*
X42861252Y-83810000D01*
X42338748Y-82390000D02*
X42861252Y-82390000D01*
X55310000Y-123738748D02*
X55310000Y-124261252D01*
X53890000Y-123738748D02*
X53890000Y-124261252D01*
X39010000Y-123838748D02*
X39010000Y-124361252D01*
X37590000Y-123838748D02*
X37590000Y-124361252D01*
X52038748Y-101690000D02*
X52561252Y-101690000D01*
X52038748Y-103110000D02*
X52561252Y-103110000D01*
X23286252Y-113790000D02*
X22763748Y-113790000D01*
X23286252Y-115210000D02*
X22763748Y-115210000D01*
D13*
X53542857Y-101057142D02*
X53590476Y-101104761D01*
X53733333Y-101152380D01*
X53828571Y-101152380D01*
X53971428Y-101104761D01*
X54066666Y-101009523D01*
X54114285Y-100914285D01*
X54161904Y-100723809D01*
X54161904Y-100580952D01*
X54114285Y-100390476D01*
X54066666Y-100295238D01*
X53971428Y-100200000D01*
X53828571Y-100152380D01*
X53733333Y-100152380D01*
X53590476Y-100200000D01*
X53542857Y-100247619D01*
X52590476Y-101152380D02*
X53161904Y-101152380D01*
X52876190Y-101152380D02*
X52876190Y-100152380D01*
X52971428Y-100295238D01*
X53066666Y-100390476D01*
X53161904Y-100438095D01*
X52257142Y-100152380D02*
X51590476Y-100152380D01*
X52019047Y-101152380D01*
X60967857Y-88257142D02*
X61015476Y-88304761D01*
X61158333Y-88352380D01*
X61253571Y-88352380D01*
X61396428Y-88304761D01*
X61491666Y-88209523D01*
X61539285Y-88114285D01*
X61586904Y-87923809D01*
X61586904Y-87780952D01*
X61539285Y-87590476D01*
X61491666Y-87495238D01*
X61396428Y-87400000D01*
X61253571Y-87352380D01*
X61158333Y-87352380D01*
X61015476Y-87400000D01*
X60967857Y-87447619D01*
X60015476Y-88352380D02*
X60586904Y-88352380D01*
X60301190Y-88352380D02*
X60301190Y-87352380D01*
X60396428Y-87495238D01*
X60491666Y-87590476D01*
X60586904Y-87638095D01*
X59158333Y-87352380D02*
X59348809Y-87352380D01*
X59444047Y-87400000D01*
X59491666Y-87447619D01*
X59586904Y-87590476D01*
X59634523Y-87780952D01*
X59634523Y-88161904D01*
X59586904Y-88257142D01*
X59539285Y-88304761D01*
X59444047Y-88352380D01*
X59253571Y-88352380D01*
X59158333Y-88304761D01*
X59110714Y-88257142D01*
X59063095Y-88161904D01*
X59063095Y-87923809D01*
X59110714Y-87828571D01*
X59158333Y-87780952D01*
X59253571Y-87733333D01*
X59444047Y-87733333D01*
X59539285Y-87780952D01*
X59586904Y-87828571D01*
X59634523Y-87923809D01*
X52917857Y-81307142D02*
X52965476Y-81354761D01*
X53108333Y-81402380D01*
X53203571Y-81402380D01*
X53346428Y-81354761D01*
X53441666Y-81259523D01*
X53489285Y-81164285D01*
X53536904Y-80973809D01*
X53536904Y-80830952D01*
X53489285Y-80640476D01*
X53441666Y-80545238D01*
X53346428Y-80450000D01*
X53203571Y-80402380D01*
X53108333Y-80402380D01*
X52965476Y-80450000D01*
X52917857Y-80497619D01*
X51965476Y-81402380D02*
X52536904Y-81402380D01*
X52251190Y-81402380D02*
X52251190Y-80402380D01*
X52346428Y-80545238D01*
X52441666Y-80640476D01*
X52536904Y-80688095D01*
X51060714Y-80402380D02*
X51536904Y-80402380D01*
X51584523Y-80878571D01*
X51536904Y-80830952D01*
X51441666Y-80783333D01*
X51203571Y-80783333D01*
X51108333Y-80830952D01*
X51060714Y-80878571D01*
X51013095Y-80973809D01*
X51013095Y-81211904D01*
X51060714Y-81307142D01*
X51108333Y-81354761D01*
X51203571Y-81402380D01*
X51441666Y-81402380D01*
X51536904Y-81354761D01*
X51584523Y-81307142D01*
X32576190Y-93252380D02*
X32576190Y-92252380D01*
X32147619Y-93204761D02*
X32004761Y-93252380D01*
X31766666Y-93252380D01*
X31671428Y-93204761D01*
X31623809Y-93157142D01*
X31576190Y-93061904D01*
X31576190Y-92966666D01*
X31623809Y-92871428D01*
X31671428Y-92823809D01*
X31766666Y-92776190D01*
X31957142Y-92728571D01*
X32052380Y-92680952D01*
X32100000Y-92633333D01*
X32147619Y-92538095D01*
X32147619Y-92442857D01*
X32100000Y-92347619D01*
X32052380Y-92300000D01*
X31957142Y-92252380D01*
X31719047Y-92252380D01*
X31576190Y-92300000D01*
X31147619Y-93252380D02*
X31147619Y-92252380D01*
X30766666Y-92252380D01*
X30671428Y-92300000D01*
X30623809Y-92347619D01*
X30576190Y-92442857D01*
X30576190Y-92585714D01*
X30623809Y-92680952D01*
X30671428Y-92728571D01*
X30766666Y-92776190D01*
X31147619Y-92776190D01*
X59917857Y-122057142D02*
X59965476Y-122104761D01*
X60108333Y-122152380D01*
X60203571Y-122152380D01*
X60346428Y-122104761D01*
X60441666Y-122009523D01*
X60489285Y-121914285D01*
X60536904Y-121723809D01*
X60536904Y-121580952D01*
X60489285Y-121390476D01*
X60441666Y-121295238D01*
X60346428Y-121200000D01*
X60203571Y-121152380D01*
X60108333Y-121152380D01*
X59965476Y-121200000D01*
X59917857Y-121247619D01*
X58965476Y-122152380D02*
X59536904Y-122152380D01*
X59251190Y-122152380D02*
X59251190Y-121152380D01*
X59346428Y-121295238D01*
X59441666Y-121390476D01*
X59536904Y-121438095D01*
X58394047Y-121580952D02*
X58489285Y-121533333D01*
X58536904Y-121485714D01*
X58584523Y-121390476D01*
X58584523Y-121342857D01*
X58536904Y-121247619D01*
X58489285Y-121200000D01*
X58394047Y-121152380D01*
X58203571Y-121152380D01*
X58108333Y-121200000D01*
X58060714Y-121247619D01*
X58013095Y-121342857D01*
X58013095Y-121390476D01*
X58060714Y-121485714D01*
X58108333Y-121533333D01*
X58203571Y-121580952D01*
X58394047Y-121580952D01*
X58489285Y-121628571D01*
X58536904Y-121676190D01*
X58584523Y-121771428D01*
X58584523Y-121961904D01*
X58536904Y-122057142D01*
X58489285Y-122104761D01*
X58394047Y-122152380D01*
X58203571Y-122152380D01*
X58108333Y-122104761D01*
X58060714Y-122057142D01*
X58013095Y-121961904D01*
X58013095Y-121771428D01*
X58060714Y-121676190D01*
X58108333Y-121628571D01*
X58203571Y-121580952D01*
X27576190Y-88552380D02*
X27576190Y-87552380D01*
X27195238Y-87552380D01*
X27100000Y-87600000D01*
X27052380Y-87647619D01*
X27004761Y-87742857D01*
X27004761Y-87885714D01*
X27052380Y-87980952D01*
X27100000Y-88028571D01*
X27195238Y-88076190D01*
X27576190Y-88076190D01*
X26433333Y-88552380D02*
X26528571Y-88504761D01*
X26576190Y-88457142D01*
X26623809Y-88361904D01*
X26623809Y-88076190D01*
X26576190Y-87980952D01*
X26528571Y-87933333D01*
X26433333Y-87885714D01*
X26290476Y-87885714D01*
X26195238Y-87933333D01*
X26147619Y-87980952D01*
X26100000Y-88076190D01*
X26100000Y-88361904D01*
X26147619Y-88457142D01*
X26195238Y-88504761D01*
X26290476Y-88552380D01*
X26433333Y-88552380D01*
X25766666Y-87885714D02*
X25576190Y-88552380D01*
X25385714Y-88076190D01*
X25195238Y-88552380D01*
X25004761Y-87885714D01*
X24242857Y-88504761D02*
X24338095Y-88552380D01*
X24528571Y-88552380D01*
X24623809Y-88504761D01*
X24671428Y-88409523D01*
X24671428Y-88028571D01*
X24623809Y-87933333D01*
X24528571Y-87885714D01*
X24338095Y-87885714D01*
X24242857Y-87933333D01*
X24195238Y-88028571D01*
X24195238Y-88123809D01*
X24671428Y-88219047D01*
X23766666Y-88552380D02*
X23766666Y-87885714D01*
X23766666Y-88076190D02*
X23719047Y-87980952D01*
X23671428Y-87933333D01*
X23576190Y-87885714D01*
X23480952Y-87885714D01*
X43992857Y-88632142D02*
X44040476Y-88679761D01*
X44183333Y-88727380D01*
X44278571Y-88727380D01*
X44421428Y-88679761D01*
X44516666Y-88584523D01*
X44564285Y-88489285D01*
X44611904Y-88298809D01*
X44611904Y-88155952D01*
X44564285Y-87965476D01*
X44516666Y-87870238D01*
X44421428Y-87775000D01*
X44278571Y-87727380D01*
X44183333Y-87727380D01*
X44040476Y-87775000D01*
X43992857Y-87822619D01*
X43040476Y-88727380D02*
X43611904Y-88727380D01*
X43326190Y-88727380D02*
X43326190Y-87727380D01*
X43421428Y-87870238D01*
X43516666Y-87965476D01*
X43611904Y-88013095D01*
X42183333Y-88060714D02*
X42183333Y-88727380D01*
X42421428Y-87679761D02*
X42659523Y-88394047D01*
X42040476Y-88394047D01*
X29376190Y-115028571D02*
X29709523Y-115028571D01*
X29709523Y-115552380D02*
X29709523Y-114552380D01*
X29233333Y-114552380D01*
X28995238Y-114552380D02*
X28423809Y-114552380D01*
X28709523Y-115552380D02*
X28709523Y-114552380D01*
X28090476Y-115552380D02*
X28090476Y-114552380D01*
X27852380Y-114552380D01*
X27709523Y-114600000D01*
X27614285Y-114695238D01*
X27566666Y-114790476D01*
X27519047Y-114980952D01*
X27519047Y-115123809D01*
X27566666Y-115314285D01*
X27614285Y-115409523D01*
X27709523Y-115504761D01*
X27852380Y-115552380D01*
X28090476Y-115552380D01*
X27090476Y-115552380D02*
X27090476Y-114552380D01*
X58866666Y-117402380D02*
X59200000Y-116926190D01*
X59438095Y-117402380D02*
X59438095Y-116402380D01*
X59057142Y-116402380D01*
X58961904Y-116450000D01*
X58914285Y-116497619D01*
X58866666Y-116592857D01*
X58866666Y-116735714D01*
X58914285Y-116830952D01*
X58961904Y-116878571D01*
X59057142Y-116926190D01*
X59438095Y-116926190D01*
X58295238Y-116830952D02*
X58390476Y-116783333D01*
X58438095Y-116735714D01*
X58485714Y-116640476D01*
X58485714Y-116592857D01*
X58438095Y-116497619D01*
X58390476Y-116450000D01*
X58295238Y-116402380D01*
X58104761Y-116402380D01*
X58009523Y-116450000D01*
X57961904Y-116497619D01*
X57914285Y-116592857D01*
X57914285Y-116640476D01*
X57961904Y-116735714D01*
X58009523Y-116783333D01*
X58104761Y-116830952D01*
X58295238Y-116830952D01*
X58390476Y-116878571D01*
X58438095Y-116926190D01*
X58485714Y-117021428D01*
X58485714Y-117211904D01*
X58438095Y-117307142D01*
X58390476Y-117354761D01*
X58295238Y-117402380D01*
X58104761Y-117402380D01*
X58009523Y-117354761D01*
X57961904Y-117307142D01*
X57914285Y-117211904D01*
X57914285Y-117021428D01*
X57961904Y-116926190D01*
X58009523Y-116878571D01*
X58104761Y-116830952D01*
X48566666Y-113452380D02*
X48900000Y-112976190D01*
X49138095Y-113452380D02*
X49138095Y-112452380D01*
X48757142Y-112452380D01*
X48661904Y-112500000D01*
X48614285Y-112547619D01*
X48566666Y-112642857D01*
X48566666Y-112785714D01*
X48614285Y-112880952D01*
X48661904Y-112928571D01*
X48757142Y-112976190D01*
X49138095Y-112976190D01*
X47709523Y-112452380D02*
X47900000Y-112452380D01*
X47995238Y-112500000D01*
X48042857Y-112547619D01*
X48138095Y-112690476D01*
X48185714Y-112880952D01*
X48185714Y-113261904D01*
X48138095Y-113357142D01*
X48090476Y-113404761D01*
X47995238Y-113452380D01*
X47804761Y-113452380D01*
X47709523Y-113404761D01*
X47661904Y-113357142D01*
X47614285Y-113261904D01*
X47614285Y-113023809D01*
X47661904Y-112928571D01*
X47709523Y-112880952D01*
X47804761Y-112833333D01*
X47995238Y-112833333D01*
X48090476Y-112880952D01*
X48138095Y-112928571D01*
X48185714Y-113023809D01*
X65335238Y-105677619D02*
X65430476Y-105630000D01*
X65525714Y-105534761D01*
X65668571Y-105391904D01*
X65763809Y-105344285D01*
X65859047Y-105344285D01*
X65811428Y-105582380D02*
X65906666Y-105534761D01*
X66001904Y-105439523D01*
X66049523Y-105249047D01*
X66049523Y-104915714D01*
X66001904Y-104725238D01*
X65906666Y-104630000D01*
X65811428Y-104582380D01*
X65620952Y-104582380D01*
X65525714Y-104630000D01*
X65430476Y-104725238D01*
X65382857Y-104915714D01*
X65382857Y-105249047D01*
X65430476Y-105439523D01*
X65525714Y-105534761D01*
X65620952Y-105582380D01*
X65811428Y-105582380D01*
X64430476Y-105582380D02*
X65001904Y-105582380D01*
X64716190Y-105582380D02*
X64716190Y-104582380D01*
X64811428Y-104725238D01*
X64906666Y-104820476D01*
X65001904Y-104868095D01*
X65396666Y-114752380D02*
X65872857Y-114752380D01*
X65872857Y-113752380D01*
X64539523Y-114752380D02*
X65110952Y-114752380D01*
X64825238Y-114752380D02*
X64825238Y-113752380D01*
X64920476Y-113895238D01*
X65015714Y-113990476D01*
X65110952Y-114038095D01*
X61238095Y-113502380D02*
X61238095Y-112502380D01*
X61000000Y-112502380D01*
X60857142Y-112550000D01*
X60761904Y-112645238D01*
X60714285Y-112740476D01*
X60666666Y-112930952D01*
X60666666Y-113073809D01*
X60714285Y-113264285D01*
X60761904Y-113359523D01*
X60857142Y-113454761D01*
X61000000Y-113502380D01*
X61238095Y-113502380D01*
X59761904Y-112502380D02*
X60238095Y-112502380D01*
X60285714Y-112978571D01*
X60238095Y-112930952D01*
X60142857Y-112883333D01*
X59904761Y-112883333D01*
X59809523Y-112930952D01*
X59761904Y-112978571D01*
X59714285Y-113073809D01*
X59714285Y-113311904D01*
X59761904Y-113407142D01*
X59809523Y-113454761D01*
X59904761Y-113502380D01*
X60142857Y-113502380D01*
X60238095Y-113454761D01*
X60285714Y-113407142D01*
X61238095Y-111002380D02*
X61238095Y-110002380D01*
X61000000Y-110002380D01*
X60857142Y-110050000D01*
X60761904Y-110145238D01*
X60714285Y-110240476D01*
X60666666Y-110430952D01*
X60666666Y-110573809D01*
X60714285Y-110764285D01*
X60761904Y-110859523D01*
X60857142Y-110954761D01*
X61000000Y-111002380D01*
X61238095Y-111002380D01*
X59809523Y-110335714D02*
X59809523Y-111002380D01*
X60047619Y-109954761D02*
X60285714Y-110669047D01*
X59666666Y-110669047D01*
X61238095Y-108502380D02*
X61238095Y-107502380D01*
X61000000Y-107502380D01*
X60857142Y-107550000D01*
X60761904Y-107645238D01*
X60714285Y-107740476D01*
X60666666Y-107930952D01*
X60666666Y-108073809D01*
X60714285Y-108264285D01*
X60761904Y-108359523D01*
X60857142Y-108454761D01*
X61000000Y-108502380D01*
X61238095Y-108502380D01*
X60333333Y-107502380D02*
X59714285Y-107502380D01*
X60047619Y-107883333D01*
X59904761Y-107883333D01*
X59809523Y-107930952D01*
X59761904Y-107978571D01*
X59714285Y-108073809D01*
X59714285Y-108311904D01*
X59761904Y-108407142D01*
X59809523Y-108454761D01*
X59904761Y-108502380D01*
X60190476Y-108502380D01*
X60285714Y-108454761D01*
X60333333Y-108407142D01*
X49742857Y-117957142D02*
X49790476Y-118004761D01*
X49933333Y-118052380D01*
X50028571Y-118052380D01*
X50171428Y-118004761D01*
X50266666Y-117909523D01*
X50314285Y-117814285D01*
X50361904Y-117623809D01*
X50361904Y-117480952D01*
X50314285Y-117290476D01*
X50266666Y-117195238D01*
X50171428Y-117100000D01*
X50028571Y-117052380D01*
X49933333Y-117052380D01*
X49790476Y-117100000D01*
X49742857Y-117147619D01*
X48790476Y-118052380D02*
X49361904Y-118052380D01*
X49076190Y-118052380D02*
X49076190Y-117052380D01*
X49171428Y-117195238D01*
X49266666Y-117290476D01*
X49361904Y-117338095D01*
X48457142Y-117052380D02*
X47838095Y-117052380D01*
X48171428Y-117433333D01*
X48028571Y-117433333D01*
X47933333Y-117480952D01*
X47885714Y-117528571D01*
X47838095Y-117623809D01*
X47838095Y-117861904D01*
X47885714Y-117957142D01*
X47933333Y-118004761D01*
X48028571Y-118052380D01*
X48314285Y-118052380D01*
X48409523Y-118004761D01*
X48457142Y-117957142D01*
X62542857Y-104257142D02*
X62590476Y-104304761D01*
X62733333Y-104352380D01*
X62828571Y-104352380D01*
X62971428Y-104304761D01*
X63066666Y-104209523D01*
X63114285Y-104114285D01*
X63161904Y-103923809D01*
X63161904Y-103780952D01*
X63114285Y-103590476D01*
X63066666Y-103495238D01*
X62971428Y-103400000D01*
X62828571Y-103352380D01*
X62733333Y-103352380D01*
X62590476Y-103400000D01*
X62542857Y-103447619D01*
X61590476Y-104352380D02*
X62161904Y-104352380D01*
X61876190Y-104352380D02*
X61876190Y-103352380D01*
X61971428Y-103495238D01*
X62066666Y-103590476D01*
X62161904Y-103638095D01*
X61209523Y-103447619D02*
X61161904Y-103400000D01*
X61066666Y-103352380D01*
X60828571Y-103352380D01*
X60733333Y-103400000D01*
X60685714Y-103447619D01*
X60638095Y-103542857D01*
X60638095Y-103638095D01*
X60685714Y-103780952D01*
X61257142Y-104352380D01*
X60638095Y-104352380D01*
X52642857Y-108057142D02*
X52690476Y-108104761D01*
X52833333Y-108152380D01*
X52928571Y-108152380D01*
X53071428Y-108104761D01*
X53166666Y-108009523D01*
X53214285Y-107914285D01*
X53261904Y-107723809D01*
X53261904Y-107580952D01*
X53214285Y-107390476D01*
X53166666Y-107295238D01*
X53071428Y-107200000D01*
X52928571Y-107152380D01*
X52833333Y-107152380D01*
X52690476Y-107200000D01*
X52642857Y-107247619D01*
X51690476Y-108152380D02*
X52261904Y-108152380D01*
X51976190Y-108152380D02*
X51976190Y-107152380D01*
X52071428Y-107295238D01*
X52166666Y-107390476D01*
X52261904Y-107438095D01*
X50738095Y-108152380D02*
X51309523Y-108152380D01*
X51023809Y-108152380D02*
X51023809Y-107152380D01*
X51119047Y-107295238D01*
X51214285Y-107390476D01*
X51309523Y-107438095D01*
X49442857Y-111157142D02*
X49490476Y-111204761D01*
X49633333Y-111252380D01*
X49728571Y-111252380D01*
X49871428Y-111204761D01*
X49966666Y-111109523D01*
X50014285Y-111014285D01*
X50061904Y-110823809D01*
X50061904Y-110680952D01*
X50014285Y-110490476D01*
X49966666Y-110395238D01*
X49871428Y-110300000D01*
X49728571Y-110252380D01*
X49633333Y-110252380D01*
X49490476Y-110300000D01*
X49442857Y-110347619D01*
X48490476Y-111252380D02*
X49061904Y-111252380D01*
X48776190Y-111252380D02*
X48776190Y-110252380D01*
X48871428Y-110395238D01*
X48966666Y-110490476D01*
X49061904Y-110538095D01*
X47871428Y-110252380D02*
X47776190Y-110252380D01*
X47680952Y-110300000D01*
X47633333Y-110347619D01*
X47585714Y-110442857D01*
X47538095Y-110633333D01*
X47538095Y-110871428D01*
X47585714Y-111061904D01*
X47633333Y-111157142D01*
X47680952Y-111204761D01*
X47776190Y-111252380D01*
X47871428Y-111252380D01*
X47966666Y-111204761D01*
X48014285Y-111157142D01*
X48061904Y-111061904D01*
X48109523Y-110871428D01*
X48109523Y-110633333D01*
X48061904Y-110442857D01*
X48014285Y-110347619D01*
X47966666Y-110300000D01*
X47871428Y-110252380D01*
X48566666Y-115657142D02*
X48614285Y-115704761D01*
X48757142Y-115752380D01*
X48852380Y-115752380D01*
X48995238Y-115704761D01*
X49090476Y-115609523D01*
X49138095Y-115514285D01*
X49185714Y-115323809D01*
X49185714Y-115180952D01*
X49138095Y-114990476D01*
X49090476Y-114895238D01*
X48995238Y-114800000D01*
X48852380Y-114752380D01*
X48757142Y-114752380D01*
X48614285Y-114800000D01*
X48566666Y-114847619D01*
X48090476Y-115752380D02*
X47900000Y-115752380D01*
X47804761Y-115704761D01*
X47757142Y-115657142D01*
X47661904Y-115514285D01*
X47614285Y-115323809D01*
X47614285Y-114942857D01*
X47661904Y-114847619D01*
X47709523Y-114800000D01*
X47804761Y-114752380D01*
X47995238Y-114752380D01*
X48090476Y-114800000D01*
X48138095Y-114847619D01*
X48185714Y-114942857D01*
X48185714Y-115180952D01*
X48138095Y-115276190D01*
X48090476Y-115323809D01*
X47995238Y-115371428D01*
X47804761Y-115371428D01*
X47709523Y-115323809D01*
X47661904Y-115276190D01*
X47614285Y-115180952D01*
X48766666Y-99757142D02*
X48814285Y-99804761D01*
X48957142Y-99852380D01*
X49052380Y-99852380D01*
X49195238Y-99804761D01*
X49290476Y-99709523D01*
X49338095Y-99614285D01*
X49385714Y-99423809D01*
X49385714Y-99280952D01*
X49338095Y-99090476D01*
X49290476Y-98995238D01*
X49195238Y-98900000D01*
X49052380Y-98852380D01*
X48957142Y-98852380D01*
X48814285Y-98900000D01*
X48766666Y-98947619D01*
X48195238Y-99280952D02*
X48290476Y-99233333D01*
X48338095Y-99185714D01*
X48385714Y-99090476D01*
X48385714Y-99042857D01*
X48338095Y-98947619D01*
X48290476Y-98900000D01*
X48195238Y-98852380D01*
X48004761Y-98852380D01*
X47909523Y-98900000D01*
X47861904Y-98947619D01*
X47814285Y-99042857D01*
X47814285Y-99090476D01*
X47861904Y-99185714D01*
X47909523Y-99233333D01*
X48004761Y-99280952D01*
X48195238Y-99280952D01*
X48290476Y-99328571D01*
X48338095Y-99376190D01*
X48385714Y-99471428D01*
X48385714Y-99661904D01*
X48338095Y-99757142D01*
X48290476Y-99804761D01*
X48195238Y-99852380D01*
X48004761Y-99852380D01*
X47909523Y-99804761D01*
X47861904Y-99757142D01*
X47814285Y-99661904D01*
X47814285Y-99471428D01*
X47861904Y-99376190D01*
X47909523Y-99328571D01*
X48004761Y-99280952D01*
X48466666Y-101857142D02*
X48514285Y-101904761D01*
X48657142Y-101952380D01*
X48752380Y-101952380D01*
X48895238Y-101904761D01*
X48990476Y-101809523D01*
X49038095Y-101714285D01*
X49085714Y-101523809D01*
X49085714Y-101380952D01*
X49038095Y-101190476D01*
X48990476Y-101095238D01*
X48895238Y-101000000D01*
X48752380Y-100952380D01*
X48657142Y-100952380D01*
X48514285Y-101000000D01*
X48466666Y-101047619D01*
X48133333Y-100952380D02*
X47466666Y-100952380D01*
X47895238Y-101952380D01*
X48566666Y-104157142D02*
X48614285Y-104204761D01*
X48757142Y-104252380D01*
X48852380Y-104252380D01*
X48995238Y-104204761D01*
X49090476Y-104109523D01*
X49138095Y-104014285D01*
X49185714Y-103823809D01*
X49185714Y-103680952D01*
X49138095Y-103490476D01*
X49090476Y-103395238D01*
X48995238Y-103300000D01*
X48852380Y-103252380D01*
X48757142Y-103252380D01*
X48614285Y-103300000D01*
X48566666Y-103347619D01*
X47709523Y-103252380D02*
X47900000Y-103252380D01*
X47995238Y-103300000D01*
X48042857Y-103347619D01*
X48138095Y-103490476D01*
X48185714Y-103680952D01*
X48185714Y-104061904D01*
X48138095Y-104157142D01*
X48090476Y-104204761D01*
X47995238Y-104252380D01*
X47804761Y-104252380D01*
X47709523Y-104204761D01*
X47661904Y-104157142D01*
X47614285Y-104061904D01*
X47614285Y-103823809D01*
X47661904Y-103728571D01*
X47709523Y-103680952D01*
X47804761Y-103633333D01*
X47995238Y-103633333D01*
X48090476Y-103680952D01*
X48138095Y-103728571D01*
X48185714Y-103823809D01*
X48566666Y-106457142D02*
X48614285Y-106504761D01*
X48757142Y-106552380D01*
X48852380Y-106552380D01*
X48995238Y-106504761D01*
X49090476Y-106409523D01*
X49138095Y-106314285D01*
X49185714Y-106123809D01*
X49185714Y-105980952D01*
X49138095Y-105790476D01*
X49090476Y-105695238D01*
X48995238Y-105600000D01*
X48852380Y-105552380D01*
X48757142Y-105552380D01*
X48614285Y-105600000D01*
X48566666Y-105647619D01*
X47661904Y-105552380D02*
X48138095Y-105552380D01*
X48185714Y-106028571D01*
X48138095Y-105980952D01*
X48042857Y-105933333D01*
X47804761Y-105933333D01*
X47709523Y-105980952D01*
X47661904Y-106028571D01*
X47614285Y-106123809D01*
X47614285Y-106361904D01*
X47661904Y-106457142D01*
X47709523Y-106504761D01*
X47804761Y-106552380D01*
X48042857Y-106552380D01*
X48138095Y-106504761D01*
X48185714Y-106457142D01*
X48566666Y-108557142D02*
X48614285Y-108604761D01*
X48757142Y-108652380D01*
X48852380Y-108652380D01*
X48995238Y-108604761D01*
X49090476Y-108509523D01*
X49138095Y-108414285D01*
X49185714Y-108223809D01*
X49185714Y-108080952D01*
X49138095Y-107890476D01*
X49090476Y-107795238D01*
X48995238Y-107700000D01*
X48852380Y-107652380D01*
X48757142Y-107652380D01*
X48614285Y-107700000D01*
X48566666Y-107747619D01*
X47709523Y-107985714D02*
X47709523Y-108652380D01*
X47947619Y-107604761D02*
X48185714Y-108319047D01*
X47566666Y-108319047D01*
X51366666Y-121807142D02*
X51414285Y-121854761D01*
X51557142Y-121902380D01*
X51652380Y-121902380D01*
X51795238Y-121854761D01*
X51890476Y-121759523D01*
X51938095Y-121664285D01*
X51985714Y-121473809D01*
X51985714Y-121330952D01*
X51938095Y-121140476D01*
X51890476Y-121045238D01*
X51795238Y-120950000D01*
X51652380Y-120902380D01*
X51557142Y-120902380D01*
X51414285Y-120950000D01*
X51366666Y-120997619D01*
X51033333Y-120902380D02*
X50414285Y-120902380D01*
X50747619Y-121283333D01*
X50604761Y-121283333D01*
X50509523Y-121330952D01*
X50461904Y-121378571D01*
X50414285Y-121473809D01*
X50414285Y-121711904D01*
X50461904Y-121807142D01*
X50509523Y-121854761D01*
X50604761Y-121902380D01*
X50890476Y-121902380D01*
X50985714Y-121854761D01*
X51033333Y-121807142D01*
X46861904Y-83352380D02*
X46861904Y-84161904D01*
X46814285Y-84257142D01*
X46766666Y-84304761D01*
X46671428Y-84352380D01*
X46480952Y-84352380D01*
X46385714Y-84304761D01*
X46338095Y-84257142D01*
X46290476Y-84161904D01*
X46290476Y-83352380D01*
X45290476Y-84352380D02*
X45861904Y-84352380D01*
X45576190Y-84352380D02*
X45576190Y-83352380D01*
X45671428Y-83495238D01*
X45766666Y-83590476D01*
X45861904Y-83638095D01*
X38216666Y-90802380D02*
X38550000Y-90326190D01*
X38788095Y-90802380D02*
X38788095Y-89802380D01*
X38407142Y-89802380D01*
X38311904Y-89850000D01*
X38264285Y-89897619D01*
X38216666Y-89992857D01*
X38216666Y-90135714D01*
X38264285Y-90230952D01*
X38311904Y-90278571D01*
X38407142Y-90326190D01*
X38788095Y-90326190D01*
X37311904Y-89802380D02*
X37788095Y-89802380D01*
X37835714Y-90278571D01*
X37788095Y-90230952D01*
X37692857Y-90183333D01*
X37454761Y-90183333D01*
X37359523Y-90230952D01*
X37311904Y-90278571D01*
X37264285Y-90373809D01*
X37264285Y-90611904D01*
X37311904Y-90707142D01*
X37359523Y-90754761D01*
X37454761Y-90802380D01*
X37692857Y-90802380D01*
X37788095Y-90754761D01*
X37835714Y-90707142D01*
X38166666Y-85302380D02*
X38500000Y-84826190D01*
X38738095Y-85302380D02*
X38738095Y-84302380D01*
X38357142Y-84302380D01*
X38261904Y-84350000D01*
X38214285Y-84397619D01*
X38166666Y-84492857D01*
X38166666Y-84635714D01*
X38214285Y-84730952D01*
X38261904Y-84778571D01*
X38357142Y-84826190D01*
X38738095Y-84826190D01*
X37309523Y-84635714D02*
X37309523Y-85302380D01*
X37547619Y-84254761D02*
X37785714Y-84969047D01*
X37166666Y-84969047D01*
X42766666Y-82002380D02*
X43100000Y-81526190D01*
X43338095Y-82002380D02*
X43338095Y-81002380D01*
X42957142Y-81002380D01*
X42861904Y-81050000D01*
X42814285Y-81097619D01*
X42766666Y-81192857D01*
X42766666Y-81335714D01*
X42814285Y-81430952D01*
X42861904Y-81478571D01*
X42957142Y-81526190D01*
X43338095Y-81526190D01*
X42433333Y-81002380D02*
X41814285Y-81002380D01*
X42147619Y-81383333D01*
X42004761Y-81383333D01*
X41909523Y-81430952D01*
X41861904Y-81478571D01*
X41814285Y-81573809D01*
X41814285Y-81811904D01*
X41861904Y-81907142D01*
X41909523Y-81954761D01*
X42004761Y-82002380D01*
X42290476Y-82002380D01*
X42385714Y-81954761D01*
X42433333Y-81907142D01*
X54666666Y-127102380D02*
X55000000Y-126626190D01*
X55238095Y-127102380D02*
X55238095Y-126102380D01*
X54857142Y-126102380D01*
X54761904Y-126150000D01*
X54714285Y-126197619D01*
X54666666Y-126292857D01*
X54666666Y-126435714D01*
X54714285Y-126530952D01*
X54761904Y-126578571D01*
X54857142Y-126626190D01*
X55238095Y-126626190D01*
X54285714Y-126197619D02*
X54238095Y-126150000D01*
X54142857Y-126102380D01*
X53904761Y-126102380D01*
X53809523Y-126150000D01*
X53761904Y-126197619D01*
X53714285Y-126292857D01*
X53714285Y-126388095D01*
X53761904Y-126530952D01*
X54333333Y-127102380D01*
X53714285Y-127102380D01*
X38566666Y-127152380D02*
X38900000Y-126676190D01*
X39138095Y-127152380D02*
X39138095Y-126152380D01*
X38757142Y-126152380D01*
X38661904Y-126200000D01*
X38614285Y-126247619D01*
X38566666Y-126342857D01*
X38566666Y-126485714D01*
X38614285Y-126580952D01*
X38661904Y-126628571D01*
X38757142Y-126676190D01*
X39138095Y-126676190D01*
X37614285Y-127152380D02*
X38185714Y-127152380D01*
X37900000Y-127152380D02*
X37900000Y-126152380D01*
X37995238Y-126295238D01*
X38090476Y-126390476D01*
X38185714Y-126438095D01*
X52466666Y-104457142D02*
X52514285Y-104504761D01*
X52657142Y-104552380D01*
X52752380Y-104552380D01*
X52895238Y-104504761D01*
X52990476Y-104409523D01*
X53038095Y-104314285D01*
X53085714Y-104123809D01*
X53085714Y-103980952D01*
X53038095Y-103790476D01*
X52990476Y-103695238D01*
X52895238Y-103600000D01*
X52752380Y-103552380D01*
X52657142Y-103552380D01*
X52514285Y-103600000D01*
X52466666Y-103647619D01*
X52085714Y-103647619D02*
X52038095Y-103600000D01*
X51942857Y-103552380D01*
X51704761Y-103552380D01*
X51609523Y-103600000D01*
X51561904Y-103647619D01*
X51514285Y-103742857D01*
X51514285Y-103838095D01*
X51561904Y-103980952D01*
X52133333Y-104552380D01*
X51514285Y-104552380D01*
X23141666Y-113157142D02*
X23189285Y-113204761D01*
X23332142Y-113252380D01*
X23427380Y-113252380D01*
X23570238Y-113204761D01*
X23665476Y-113109523D01*
X23713095Y-113014285D01*
X23760714Y-112823809D01*
X23760714Y-112680952D01*
X23713095Y-112490476D01*
X23665476Y-112395238D01*
X23570238Y-112300000D01*
X23427380Y-112252380D01*
X23332142Y-112252380D01*
X23189285Y-112300000D01*
X23141666Y-112347619D01*
X22189285Y-113252380D02*
X22760714Y-113252380D01*
X22475000Y-113252380D02*
X22475000Y-112252380D01*
X22570238Y-112395238D01*
X22665476Y-112490476D01*
X22760714Y-112538095D01*
M02*
