G04 #@! TF.GenerationSoftware,KiCad,Pcbnew,(5.1.5-0-10_14)*
G04 #@! TF.CreationDate,2020-08-26T20:56:13+02:00*
G04 #@! TF.ProjectId,HB-RC-4-Dis-TH,48422d52-432d-4342-9d44-69732d54482e,rev?*
G04 #@! TF.SameCoordinates,Original*
G04 #@! TF.FileFunction,Soldermask,Bot*
G04 #@! TF.FilePolarity,Negative*
%FSLAX46Y46*%
G04 Gerber Fmt 4.6, Leading zero omitted, Abs format (unit mm)*
G04 Created by KiCad (PCBNEW (5.1.5-0-10_14)) date 2020-08-26 20:56:13*
%MOMM*%
%LPD*%
G04 APERTURE LIST*
%ADD10C,0.100000*%
G04 APERTURE END LIST*
D10*
G36*
X60526000Y-130601000D02*
G01*
X57924000Y-130601000D01*
X57924000Y-127299000D01*
X60526000Y-127299000D01*
X60526000Y-130601000D01*
G37*
G36*
X70806564Y-128489389D02*
G01*
X70997833Y-128568615D01*
X70997835Y-128568616D01*
X71169973Y-128683635D01*
X71316365Y-128830027D01*
X71431385Y-129002167D01*
X71510611Y-129193436D01*
X71551000Y-129396484D01*
X71551000Y-129603516D01*
X71510611Y-129806564D01*
X71431385Y-129997833D01*
X71431384Y-129997835D01*
X71316365Y-130169973D01*
X71169973Y-130316365D01*
X70997835Y-130431384D01*
X70997834Y-130431385D01*
X70997833Y-130431385D01*
X70806564Y-130510611D01*
X70603516Y-130551000D01*
X70396484Y-130551000D01*
X70193436Y-130510611D01*
X70002167Y-130431385D01*
X70002166Y-130431385D01*
X70002165Y-130431384D01*
X69830027Y-130316365D01*
X69683635Y-130169973D01*
X69568616Y-129997835D01*
X69568615Y-129997833D01*
X69489389Y-129806564D01*
X69449000Y-129603516D01*
X69449000Y-129396484D01*
X69489389Y-129193436D01*
X69568615Y-129002167D01*
X69683635Y-128830027D01*
X69830027Y-128683635D01*
X70002165Y-128568616D01*
X70002167Y-128568615D01*
X70193436Y-128489389D01*
X70396484Y-128449000D01*
X70603516Y-128449000D01*
X70806564Y-128489389D01*
G37*
G36*
X64306564Y-128489389D02*
G01*
X64497833Y-128568615D01*
X64497835Y-128568616D01*
X64669973Y-128683635D01*
X64816365Y-128830027D01*
X64931385Y-129002167D01*
X65010611Y-129193436D01*
X65051000Y-129396484D01*
X65051000Y-129603516D01*
X65010611Y-129806564D01*
X64931385Y-129997833D01*
X64931384Y-129997835D01*
X64816365Y-130169973D01*
X64669973Y-130316365D01*
X64497835Y-130431384D01*
X64497834Y-130431385D01*
X64497833Y-130431385D01*
X64306564Y-130510611D01*
X64103516Y-130551000D01*
X63896484Y-130551000D01*
X63693436Y-130510611D01*
X63502167Y-130431385D01*
X63502166Y-130431385D01*
X63502165Y-130431384D01*
X63330027Y-130316365D01*
X63183635Y-130169973D01*
X63068616Y-129997835D01*
X63068615Y-129997833D01*
X62989389Y-129806564D01*
X62949000Y-129603516D01*
X62949000Y-129396484D01*
X62989389Y-129193436D01*
X63068615Y-129002167D01*
X63183635Y-128830027D01*
X63330027Y-128683635D01*
X63502165Y-128568616D01*
X63502167Y-128568615D01*
X63693436Y-128489389D01*
X63896484Y-128449000D01*
X64103516Y-128449000D01*
X64306564Y-128489389D01*
G37*
G36*
X49006564Y-128489389D02*
G01*
X49197833Y-128568615D01*
X49197835Y-128568616D01*
X49369973Y-128683635D01*
X49516365Y-128830027D01*
X49631385Y-129002167D01*
X49710611Y-129193436D01*
X49751000Y-129396484D01*
X49751000Y-129603516D01*
X49710611Y-129806564D01*
X49631385Y-129997833D01*
X49631384Y-129997835D01*
X49516365Y-130169973D01*
X49369973Y-130316365D01*
X49197835Y-130431384D01*
X49197834Y-130431385D01*
X49197833Y-130431385D01*
X49006564Y-130510611D01*
X48803516Y-130551000D01*
X48596484Y-130551000D01*
X48393436Y-130510611D01*
X48202167Y-130431385D01*
X48202166Y-130431385D01*
X48202165Y-130431384D01*
X48030027Y-130316365D01*
X47883635Y-130169973D01*
X47768616Y-129997835D01*
X47768615Y-129997833D01*
X47689389Y-129806564D01*
X47649000Y-129603516D01*
X47649000Y-129396484D01*
X47689389Y-129193436D01*
X47768615Y-129002167D01*
X47883635Y-128830027D01*
X48030027Y-128683635D01*
X48202165Y-128568616D01*
X48202167Y-128568615D01*
X48393436Y-128489389D01*
X48596484Y-128449000D01*
X48803516Y-128449000D01*
X49006564Y-128489389D01*
G37*
G36*
X44506564Y-128489389D02*
G01*
X44697833Y-128568615D01*
X44697835Y-128568616D01*
X44869973Y-128683635D01*
X45016365Y-128830027D01*
X45131385Y-129002167D01*
X45210611Y-129193436D01*
X45251000Y-129396484D01*
X45251000Y-129603516D01*
X45210611Y-129806564D01*
X45131385Y-129997833D01*
X45131384Y-129997835D01*
X45016365Y-130169973D01*
X44869973Y-130316365D01*
X44697835Y-130431384D01*
X44697834Y-130431385D01*
X44697833Y-130431385D01*
X44506564Y-130510611D01*
X44303516Y-130551000D01*
X44096484Y-130551000D01*
X43893436Y-130510611D01*
X43702167Y-130431385D01*
X43702166Y-130431385D01*
X43702165Y-130431384D01*
X43530027Y-130316365D01*
X43383635Y-130169973D01*
X43268616Y-129997835D01*
X43268615Y-129997833D01*
X43189389Y-129806564D01*
X43149000Y-129603516D01*
X43149000Y-129396484D01*
X43189389Y-129193436D01*
X43268615Y-129002167D01*
X43383635Y-128830027D01*
X43530027Y-128683635D01*
X43702165Y-128568616D01*
X43702167Y-128568615D01*
X43893436Y-128489389D01*
X44096484Y-128449000D01*
X44303516Y-128449000D01*
X44506564Y-128489389D01*
G37*
G36*
X29306564Y-128489389D02*
G01*
X29497833Y-128568615D01*
X29497835Y-128568616D01*
X29669973Y-128683635D01*
X29816365Y-128830027D01*
X29931385Y-129002167D01*
X30010611Y-129193436D01*
X30051000Y-129396484D01*
X30051000Y-129603516D01*
X30010611Y-129806564D01*
X29931385Y-129997833D01*
X29931384Y-129997835D01*
X29816365Y-130169973D01*
X29669973Y-130316365D01*
X29497835Y-130431384D01*
X29497834Y-130431385D01*
X29497833Y-130431385D01*
X29306564Y-130510611D01*
X29103516Y-130551000D01*
X28896484Y-130551000D01*
X28693436Y-130510611D01*
X28502167Y-130431385D01*
X28502166Y-130431385D01*
X28502165Y-130431384D01*
X28330027Y-130316365D01*
X28183635Y-130169973D01*
X28068616Y-129997835D01*
X28068615Y-129997833D01*
X27989389Y-129806564D01*
X27949000Y-129603516D01*
X27949000Y-129396484D01*
X27989389Y-129193436D01*
X28068615Y-129002167D01*
X28183635Y-128830027D01*
X28330027Y-128683635D01*
X28502165Y-128568616D01*
X28502167Y-128568615D01*
X28693436Y-128489389D01*
X28896484Y-128449000D01*
X29103516Y-128449000D01*
X29306564Y-128489389D01*
G37*
G36*
X22806564Y-128489389D02*
G01*
X22997833Y-128568615D01*
X22997835Y-128568616D01*
X23169973Y-128683635D01*
X23316365Y-128830027D01*
X23431385Y-129002167D01*
X23510611Y-129193436D01*
X23551000Y-129396484D01*
X23551000Y-129603516D01*
X23510611Y-129806564D01*
X23431385Y-129997833D01*
X23431384Y-129997835D01*
X23316365Y-130169973D01*
X23169973Y-130316365D01*
X22997835Y-130431384D01*
X22997834Y-130431385D01*
X22997833Y-130431385D01*
X22806564Y-130510611D01*
X22603516Y-130551000D01*
X22396484Y-130551000D01*
X22193436Y-130510611D01*
X22002167Y-130431385D01*
X22002166Y-130431385D01*
X22002165Y-130431384D01*
X21830027Y-130316365D01*
X21683635Y-130169973D01*
X21568616Y-129997835D01*
X21568615Y-129997833D01*
X21489389Y-129806564D01*
X21449000Y-129603516D01*
X21449000Y-129396484D01*
X21489389Y-129193436D01*
X21568615Y-129002167D01*
X21683635Y-128830027D01*
X21830027Y-128683635D01*
X22002165Y-128568616D01*
X22002167Y-128568615D01*
X22193436Y-128489389D01*
X22396484Y-128449000D01*
X22603516Y-128449000D01*
X22806564Y-128489389D01*
G37*
G36*
X60526000Y-126301000D02*
G01*
X57924000Y-126301000D01*
X57924000Y-122999000D01*
X60526000Y-122999000D01*
X60526000Y-126301000D01*
G37*
G36*
X22806564Y-123989389D02*
G01*
X22997833Y-124068615D01*
X22997835Y-124068616D01*
X23169973Y-124183635D01*
X23316365Y-124330027D01*
X23422519Y-124488897D01*
X23431385Y-124502167D01*
X23510611Y-124693436D01*
X23551000Y-124896484D01*
X23551000Y-125103516D01*
X23510611Y-125306564D01*
X23437536Y-125482983D01*
X23431384Y-125497835D01*
X23316365Y-125669973D01*
X23169973Y-125816365D01*
X22997835Y-125931384D01*
X22997834Y-125931385D01*
X22997833Y-125931385D01*
X22806564Y-126010611D01*
X22603516Y-126051000D01*
X22396484Y-126051000D01*
X22193436Y-126010611D01*
X22002167Y-125931385D01*
X22002166Y-125931385D01*
X22002165Y-125931384D01*
X21830027Y-125816365D01*
X21683635Y-125669973D01*
X21568616Y-125497835D01*
X21562464Y-125482983D01*
X21489389Y-125306564D01*
X21449000Y-125103516D01*
X21449000Y-124896484D01*
X21489389Y-124693436D01*
X21568615Y-124502167D01*
X21577482Y-124488897D01*
X21683635Y-124330027D01*
X21830027Y-124183635D01*
X22002165Y-124068616D01*
X22002167Y-124068615D01*
X22193436Y-123989389D01*
X22396484Y-123949000D01*
X22603516Y-123949000D01*
X22806564Y-123989389D01*
G37*
G36*
X70806564Y-123989389D02*
G01*
X70997833Y-124068615D01*
X70997835Y-124068616D01*
X71169973Y-124183635D01*
X71316365Y-124330027D01*
X71422519Y-124488897D01*
X71431385Y-124502167D01*
X71510611Y-124693436D01*
X71551000Y-124896484D01*
X71551000Y-125103516D01*
X71510611Y-125306564D01*
X71437536Y-125482983D01*
X71431384Y-125497835D01*
X71316365Y-125669973D01*
X71169973Y-125816365D01*
X70997835Y-125931384D01*
X70997834Y-125931385D01*
X70997833Y-125931385D01*
X70806564Y-126010611D01*
X70603516Y-126051000D01*
X70396484Y-126051000D01*
X70193436Y-126010611D01*
X70002167Y-125931385D01*
X70002166Y-125931385D01*
X70002165Y-125931384D01*
X69830027Y-125816365D01*
X69683635Y-125669973D01*
X69568616Y-125497835D01*
X69562464Y-125482983D01*
X69489389Y-125306564D01*
X69449000Y-125103516D01*
X69449000Y-124896484D01*
X69489389Y-124693436D01*
X69568615Y-124502167D01*
X69577482Y-124488897D01*
X69683635Y-124330027D01*
X69830027Y-124183635D01*
X70002165Y-124068616D01*
X70002167Y-124068615D01*
X70193436Y-123989389D01*
X70396484Y-123949000D01*
X70603516Y-123949000D01*
X70806564Y-123989389D01*
G37*
G36*
X64306564Y-123989389D02*
G01*
X64497833Y-124068615D01*
X64497835Y-124068616D01*
X64669973Y-124183635D01*
X64816365Y-124330027D01*
X64922519Y-124488897D01*
X64931385Y-124502167D01*
X65010611Y-124693436D01*
X65051000Y-124896484D01*
X65051000Y-125103516D01*
X65010611Y-125306564D01*
X64937536Y-125482983D01*
X64931384Y-125497835D01*
X64816365Y-125669973D01*
X64669973Y-125816365D01*
X64497835Y-125931384D01*
X64497834Y-125931385D01*
X64497833Y-125931385D01*
X64306564Y-126010611D01*
X64103516Y-126051000D01*
X63896484Y-126051000D01*
X63693436Y-126010611D01*
X63502167Y-125931385D01*
X63502166Y-125931385D01*
X63502165Y-125931384D01*
X63330027Y-125816365D01*
X63183635Y-125669973D01*
X63068616Y-125497835D01*
X63062464Y-125482983D01*
X62989389Y-125306564D01*
X62949000Y-125103516D01*
X62949000Y-124896484D01*
X62989389Y-124693436D01*
X63068615Y-124502167D01*
X63077482Y-124488897D01*
X63183635Y-124330027D01*
X63330027Y-124183635D01*
X63502165Y-124068616D01*
X63502167Y-124068615D01*
X63693436Y-123989389D01*
X63896484Y-123949000D01*
X64103516Y-123949000D01*
X64306564Y-123989389D01*
G37*
G36*
X29306564Y-123989389D02*
G01*
X29497833Y-124068615D01*
X29497835Y-124068616D01*
X29669973Y-124183635D01*
X29816365Y-124330027D01*
X29922519Y-124488897D01*
X29931385Y-124502167D01*
X30010611Y-124693436D01*
X30051000Y-124896484D01*
X30051000Y-125103516D01*
X30010611Y-125306564D01*
X29937536Y-125482983D01*
X29931384Y-125497835D01*
X29816365Y-125669973D01*
X29669973Y-125816365D01*
X29497835Y-125931384D01*
X29497834Y-125931385D01*
X29497833Y-125931385D01*
X29306564Y-126010611D01*
X29103516Y-126051000D01*
X28896484Y-126051000D01*
X28693436Y-126010611D01*
X28502167Y-125931385D01*
X28502166Y-125931385D01*
X28502165Y-125931384D01*
X28330027Y-125816365D01*
X28183635Y-125669973D01*
X28068616Y-125497835D01*
X28062464Y-125482983D01*
X27989389Y-125306564D01*
X27949000Y-125103516D01*
X27949000Y-124896484D01*
X27989389Y-124693436D01*
X28068615Y-124502167D01*
X28077482Y-124488897D01*
X28183635Y-124330027D01*
X28330027Y-124183635D01*
X28502165Y-124068616D01*
X28502167Y-124068615D01*
X28693436Y-123989389D01*
X28896484Y-123949000D01*
X29103516Y-123949000D01*
X29306564Y-123989389D01*
G37*
G36*
X38888674Y-124503465D02*
G01*
X38926367Y-124514899D01*
X38961103Y-124533466D01*
X38991548Y-124558452D01*
X39016534Y-124588897D01*
X39035101Y-124623633D01*
X39046535Y-124661326D01*
X39051000Y-124706661D01*
X39051000Y-125543339D01*
X39046535Y-125588674D01*
X39035101Y-125626367D01*
X39016534Y-125661103D01*
X38991548Y-125691548D01*
X38961103Y-125716534D01*
X38926367Y-125735101D01*
X38888674Y-125746535D01*
X38843339Y-125751000D01*
X37756661Y-125751000D01*
X37711326Y-125746535D01*
X37673633Y-125735101D01*
X37638897Y-125716534D01*
X37608452Y-125691548D01*
X37583466Y-125661103D01*
X37564899Y-125626367D01*
X37553465Y-125588674D01*
X37549000Y-125543339D01*
X37549000Y-124706661D01*
X37553465Y-124661326D01*
X37564899Y-124623633D01*
X37583466Y-124588897D01*
X37608452Y-124558452D01*
X37638897Y-124533466D01*
X37673633Y-124514899D01*
X37711326Y-124503465D01*
X37756661Y-124499000D01*
X38843339Y-124499000D01*
X38888674Y-124503465D01*
G37*
G36*
X55188674Y-124403465D02*
G01*
X55226367Y-124414899D01*
X55261103Y-124433466D01*
X55291548Y-124458452D01*
X55316534Y-124488897D01*
X55335101Y-124523633D01*
X55346535Y-124561326D01*
X55351000Y-124606661D01*
X55351000Y-125443339D01*
X55346535Y-125488674D01*
X55335101Y-125526367D01*
X55316534Y-125561103D01*
X55291548Y-125591548D01*
X55261103Y-125616534D01*
X55226367Y-125635101D01*
X55188674Y-125646535D01*
X55143339Y-125651000D01*
X54056661Y-125651000D01*
X54011326Y-125646535D01*
X53973633Y-125635101D01*
X53938897Y-125616534D01*
X53908452Y-125591548D01*
X53883466Y-125561103D01*
X53864899Y-125526367D01*
X53853465Y-125488674D01*
X53849000Y-125443339D01*
X53849000Y-124606661D01*
X53853465Y-124561326D01*
X53864899Y-124523633D01*
X53883466Y-124488897D01*
X53908452Y-124458452D01*
X53938897Y-124433466D01*
X53973633Y-124414899D01*
X54011326Y-124403465D01*
X54056661Y-124399000D01*
X55143339Y-124399000D01*
X55188674Y-124403465D01*
G37*
G36*
X44506564Y-121989389D02*
G01*
X44697833Y-122068615D01*
X44697835Y-122068616D01*
X44869973Y-122183635D01*
X45016365Y-122330027D01*
X45118890Y-122483466D01*
X45131385Y-122502167D01*
X45210611Y-122693436D01*
X45251000Y-122896484D01*
X45251000Y-123103516D01*
X45210611Y-123306564D01*
X45155889Y-123438674D01*
X45131384Y-123497835D01*
X45016365Y-123669973D01*
X44869973Y-123816365D01*
X44697835Y-123931384D01*
X44697834Y-123931385D01*
X44697833Y-123931385D01*
X44506564Y-124010611D01*
X44303516Y-124051000D01*
X44096484Y-124051000D01*
X43893436Y-124010611D01*
X43702167Y-123931385D01*
X43702166Y-123931385D01*
X43702165Y-123931384D01*
X43530027Y-123816365D01*
X43383635Y-123669973D01*
X43268616Y-123497835D01*
X43244111Y-123438674D01*
X43189389Y-123306564D01*
X43149000Y-123103516D01*
X43149000Y-122896484D01*
X43189389Y-122693436D01*
X43268615Y-122502167D01*
X43281111Y-122483466D01*
X43383635Y-122330027D01*
X43530027Y-122183635D01*
X43702165Y-122068616D01*
X43702167Y-122068615D01*
X43893436Y-121989389D01*
X44096484Y-121949000D01*
X44303516Y-121949000D01*
X44506564Y-121989389D01*
G37*
G36*
X49006564Y-121989389D02*
G01*
X49197833Y-122068615D01*
X49197835Y-122068616D01*
X49369973Y-122183635D01*
X49516365Y-122330027D01*
X49618890Y-122483466D01*
X49631385Y-122502167D01*
X49710611Y-122693436D01*
X49751000Y-122896484D01*
X49751000Y-123103516D01*
X49710611Y-123306564D01*
X49655889Y-123438674D01*
X49631384Y-123497835D01*
X49516365Y-123669973D01*
X49369973Y-123816365D01*
X49197835Y-123931384D01*
X49197834Y-123931385D01*
X49197833Y-123931385D01*
X49006564Y-124010611D01*
X48803516Y-124051000D01*
X48596484Y-124051000D01*
X48393436Y-124010611D01*
X48202167Y-123931385D01*
X48202166Y-123931385D01*
X48202165Y-123931384D01*
X48030027Y-123816365D01*
X47883635Y-123669973D01*
X47768616Y-123497835D01*
X47744111Y-123438674D01*
X47689389Y-123306564D01*
X47649000Y-123103516D01*
X47649000Y-122896484D01*
X47689389Y-122693436D01*
X47768615Y-122502167D01*
X47781111Y-122483466D01*
X47883635Y-122330027D01*
X48030027Y-122183635D01*
X48202165Y-122068616D01*
X48202167Y-122068615D01*
X48393436Y-121989389D01*
X48596484Y-121949000D01*
X48803516Y-121949000D01*
X49006564Y-121989389D01*
G37*
G36*
X38888674Y-122453465D02*
G01*
X38926367Y-122464899D01*
X38961103Y-122483466D01*
X38991548Y-122508452D01*
X39016534Y-122538897D01*
X39035101Y-122573633D01*
X39046535Y-122611326D01*
X39051000Y-122656661D01*
X39051000Y-123493339D01*
X39046535Y-123538674D01*
X39035101Y-123576367D01*
X39016534Y-123611103D01*
X38991548Y-123641548D01*
X38961103Y-123666534D01*
X38926367Y-123685101D01*
X38888674Y-123696535D01*
X38843339Y-123701000D01*
X37756661Y-123701000D01*
X37711326Y-123696535D01*
X37673633Y-123685101D01*
X37638897Y-123666534D01*
X37608452Y-123641548D01*
X37583466Y-123611103D01*
X37564899Y-123576367D01*
X37553465Y-123538674D01*
X37549000Y-123493339D01*
X37549000Y-122656661D01*
X37553465Y-122611326D01*
X37564899Y-122573633D01*
X37583466Y-122538897D01*
X37608452Y-122508452D01*
X37638897Y-122483466D01*
X37673633Y-122464899D01*
X37711326Y-122453465D01*
X37756661Y-122449000D01*
X38843339Y-122449000D01*
X38888674Y-122453465D01*
G37*
G36*
X55188674Y-122353465D02*
G01*
X55226367Y-122364899D01*
X55261103Y-122383466D01*
X55291548Y-122408452D01*
X55316534Y-122438897D01*
X55335101Y-122473633D01*
X55346535Y-122511326D01*
X55351000Y-122556661D01*
X55351000Y-123393339D01*
X55346535Y-123438674D01*
X55335101Y-123476367D01*
X55316534Y-123511103D01*
X55291548Y-123541548D01*
X55261103Y-123566534D01*
X55226367Y-123585101D01*
X55188674Y-123596535D01*
X55143339Y-123601000D01*
X54056661Y-123601000D01*
X54011326Y-123596535D01*
X53973633Y-123585101D01*
X53938897Y-123566534D01*
X53908452Y-123541548D01*
X53883466Y-123511103D01*
X53864899Y-123476367D01*
X53853465Y-123438674D01*
X53849000Y-123393339D01*
X53849000Y-122556661D01*
X53853465Y-122511326D01*
X53864899Y-122473633D01*
X53883466Y-122438897D01*
X53908452Y-122408452D01*
X53938897Y-122383466D01*
X53973633Y-122364899D01*
X54011326Y-122353465D01*
X54056661Y-122349000D01*
X55143339Y-122349000D01*
X55188674Y-122353465D01*
G37*
G36*
X50638674Y-119053465D02*
G01*
X50676367Y-119064899D01*
X50711103Y-119083466D01*
X50741548Y-119108452D01*
X50766534Y-119138897D01*
X50785101Y-119173633D01*
X50796535Y-119211326D01*
X50801000Y-119256661D01*
X50801000Y-120343339D01*
X50796535Y-120388674D01*
X50785101Y-120426367D01*
X50766534Y-120461103D01*
X50741548Y-120491548D01*
X50711103Y-120516534D01*
X50676367Y-120535101D01*
X50638674Y-120546535D01*
X50593339Y-120551000D01*
X49756661Y-120551000D01*
X49711326Y-120546535D01*
X49673633Y-120535101D01*
X49638897Y-120516534D01*
X49608452Y-120491548D01*
X49583466Y-120461103D01*
X49564899Y-120426367D01*
X49553465Y-120388674D01*
X49549000Y-120343339D01*
X49549000Y-119256661D01*
X49553465Y-119211326D01*
X49564899Y-119173633D01*
X49583466Y-119138897D01*
X49608452Y-119108452D01*
X49638897Y-119083466D01*
X49673633Y-119064899D01*
X49711326Y-119053465D01*
X49756661Y-119049000D01*
X50593339Y-119049000D01*
X50638674Y-119053465D01*
G37*
G36*
X52688674Y-119053465D02*
G01*
X52726367Y-119064899D01*
X52761103Y-119083466D01*
X52791548Y-119108452D01*
X52816534Y-119138897D01*
X52835101Y-119173633D01*
X52846535Y-119211326D01*
X52851000Y-119256661D01*
X52851000Y-120343339D01*
X52846535Y-120388674D01*
X52835101Y-120426367D01*
X52816534Y-120461103D01*
X52791548Y-120491548D01*
X52761103Y-120516534D01*
X52726367Y-120535101D01*
X52688674Y-120546535D01*
X52643339Y-120551000D01*
X51806661Y-120551000D01*
X51761326Y-120546535D01*
X51723633Y-120535101D01*
X51688897Y-120516534D01*
X51658452Y-120491548D01*
X51633466Y-120461103D01*
X51614899Y-120426367D01*
X51603465Y-120388674D01*
X51599000Y-120343339D01*
X51599000Y-119256661D01*
X51603465Y-119211326D01*
X51614899Y-119173633D01*
X51633466Y-119138897D01*
X51658452Y-119108452D01*
X51688897Y-119083466D01*
X51723633Y-119064899D01*
X51761326Y-119053465D01*
X51806661Y-119049000D01*
X52643339Y-119049000D01*
X52688674Y-119053465D01*
G37*
G36*
X60188674Y-117853465D02*
G01*
X60226367Y-117864899D01*
X60261103Y-117883466D01*
X60291548Y-117908452D01*
X60316534Y-117938897D01*
X60335101Y-117973633D01*
X60346535Y-118011326D01*
X60351000Y-118056661D01*
X60351000Y-119143339D01*
X60346535Y-119188674D01*
X60335101Y-119226367D01*
X60316534Y-119261103D01*
X60291548Y-119291548D01*
X60261103Y-119316534D01*
X60226367Y-119335101D01*
X60188674Y-119346535D01*
X60143339Y-119351000D01*
X59306661Y-119351000D01*
X59261326Y-119346535D01*
X59223633Y-119335101D01*
X59188897Y-119316534D01*
X59158452Y-119291548D01*
X59133466Y-119261103D01*
X59114899Y-119226367D01*
X59103465Y-119188674D01*
X59099000Y-119143339D01*
X59099000Y-118056661D01*
X59103465Y-118011326D01*
X59114899Y-117973633D01*
X59133466Y-117938897D01*
X59158452Y-117908452D01*
X59188897Y-117883466D01*
X59223633Y-117864899D01*
X59261326Y-117853465D01*
X59306661Y-117849000D01*
X60143339Y-117849000D01*
X60188674Y-117853465D01*
G37*
G36*
X58138674Y-117853465D02*
G01*
X58176367Y-117864899D01*
X58211103Y-117883466D01*
X58241548Y-117908452D01*
X58266534Y-117938897D01*
X58285101Y-117973633D01*
X58296535Y-118011326D01*
X58301000Y-118056661D01*
X58301000Y-119143339D01*
X58296535Y-119188674D01*
X58285101Y-119226367D01*
X58266534Y-119261103D01*
X58241548Y-119291548D01*
X58211103Y-119316534D01*
X58176367Y-119335101D01*
X58138674Y-119346535D01*
X58093339Y-119351000D01*
X57256661Y-119351000D01*
X57211326Y-119346535D01*
X57173633Y-119335101D01*
X57138897Y-119316534D01*
X57108452Y-119291548D01*
X57083466Y-119261103D01*
X57064899Y-119226367D01*
X57053465Y-119188674D01*
X57049000Y-119143339D01*
X57049000Y-118056661D01*
X57053465Y-118011326D01*
X57064899Y-117973633D01*
X57083466Y-117938897D01*
X57108452Y-117908452D01*
X57138897Y-117883466D01*
X57173633Y-117864899D01*
X57211326Y-117853465D01*
X57256661Y-117849000D01*
X58093339Y-117849000D01*
X58138674Y-117853465D01*
G37*
G36*
X36401000Y-118701000D02*
G01*
X34599000Y-118701000D01*
X34599000Y-116899000D01*
X36401000Y-116899000D01*
X36401000Y-118701000D01*
G37*
G36*
X33073512Y-116903927D02*
G01*
X33222812Y-116933624D01*
X33386784Y-117001544D01*
X33534354Y-117100147D01*
X33659853Y-117225646D01*
X33758456Y-117373216D01*
X33826376Y-117537188D01*
X33861000Y-117711259D01*
X33861000Y-117888741D01*
X33826376Y-118062812D01*
X33758456Y-118226784D01*
X33659853Y-118374354D01*
X33534354Y-118499853D01*
X33386784Y-118598456D01*
X33222812Y-118666376D01*
X33073512Y-118696073D01*
X33048742Y-118701000D01*
X32871258Y-118701000D01*
X32846488Y-118696073D01*
X32697188Y-118666376D01*
X32533216Y-118598456D01*
X32385646Y-118499853D01*
X32260147Y-118374354D01*
X32161544Y-118226784D01*
X32093624Y-118062812D01*
X32059000Y-117888741D01*
X32059000Y-117711259D01*
X32093624Y-117537188D01*
X32161544Y-117373216D01*
X32260147Y-117225646D01*
X32385646Y-117100147D01*
X32533216Y-117001544D01*
X32697188Y-116933624D01*
X32846488Y-116903927D01*
X32871258Y-116899000D01*
X33048742Y-116899000D01*
X33073512Y-116903927D01*
G37*
G36*
X30533512Y-116903927D02*
G01*
X30682812Y-116933624D01*
X30846784Y-117001544D01*
X30994354Y-117100147D01*
X31119853Y-117225646D01*
X31218456Y-117373216D01*
X31286376Y-117537188D01*
X31321000Y-117711259D01*
X31321000Y-117888741D01*
X31286376Y-118062812D01*
X31218456Y-118226784D01*
X31119853Y-118374354D01*
X30994354Y-118499853D01*
X30846784Y-118598456D01*
X30682812Y-118666376D01*
X30533512Y-118696073D01*
X30508742Y-118701000D01*
X30331258Y-118701000D01*
X30306488Y-118696073D01*
X30157188Y-118666376D01*
X29993216Y-118598456D01*
X29845646Y-118499853D01*
X29720147Y-118374354D01*
X29621544Y-118226784D01*
X29553624Y-118062812D01*
X29519000Y-117888741D01*
X29519000Y-117711259D01*
X29553624Y-117537188D01*
X29621544Y-117373216D01*
X29720147Y-117225646D01*
X29845646Y-117100147D01*
X29993216Y-117001544D01*
X30157188Y-116933624D01*
X30306488Y-116903927D01*
X30331258Y-116899000D01*
X30508742Y-116899000D01*
X30533512Y-116903927D01*
G37*
G36*
X27993512Y-116903927D02*
G01*
X28142812Y-116933624D01*
X28306784Y-117001544D01*
X28454354Y-117100147D01*
X28579853Y-117225646D01*
X28678456Y-117373216D01*
X28746376Y-117537188D01*
X28781000Y-117711259D01*
X28781000Y-117888741D01*
X28746376Y-118062812D01*
X28678456Y-118226784D01*
X28579853Y-118374354D01*
X28454354Y-118499853D01*
X28306784Y-118598456D01*
X28142812Y-118666376D01*
X27993512Y-118696073D01*
X27968742Y-118701000D01*
X27791258Y-118701000D01*
X27766488Y-118696073D01*
X27617188Y-118666376D01*
X27453216Y-118598456D01*
X27305646Y-118499853D01*
X27180147Y-118374354D01*
X27081544Y-118226784D01*
X27013624Y-118062812D01*
X26979000Y-117888741D01*
X26979000Y-117711259D01*
X27013624Y-117537188D01*
X27081544Y-117373216D01*
X27180147Y-117225646D01*
X27305646Y-117100147D01*
X27453216Y-117001544D01*
X27617188Y-116933624D01*
X27766488Y-116903927D01*
X27791258Y-116899000D01*
X27968742Y-116899000D01*
X27993512Y-116903927D01*
G37*
G36*
X25453512Y-116903927D02*
G01*
X25602812Y-116933624D01*
X25766784Y-117001544D01*
X25914354Y-117100147D01*
X26039853Y-117225646D01*
X26138456Y-117373216D01*
X26206376Y-117537188D01*
X26241000Y-117711259D01*
X26241000Y-117888741D01*
X26206376Y-118062812D01*
X26138456Y-118226784D01*
X26039853Y-118374354D01*
X25914354Y-118499853D01*
X25766784Y-118598456D01*
X25602812Y-118666376D01*
X25453512Y-118696073D01*
X25428742Y-118701000D01*
X25251258Y-118701000D01*
X25226488Y-118696073D01*
X25077188Y-118666376D01*
X24913216Y-118598456D01*
X24765646Y-118499853D01*
X24640147Y-118374354D01*
X24541544Y-118226784D01*
X24473624Y-118062812D01*
X24439000Y-117888741D01*
X24439000Y-117711259D01*
X24473624Y-117537188D01*
X24541544Y-117373216D01*
X24640147Y-117225646D01*
X24765646Y-117100147D01*
X24913216Y-117001544D01*
X25077188Y-116933624D01*
X25226488Y-116903927D01*
X25251258Y-116899000D01*
X25428742Y-116899000D01*
X25453512Y-116903927D01*
G37*
G36*
X22913512Y-116903927D02*
G01*
X23062812Y-116933624D01*
X23226784Y-117001544D01*
X23374354Y-117100147D01*
X23499853Y-117225646D01*
X23598456Y-117373216D01*
X23666376Y-117537188D01*
X23701000Y-117711259D01*
X23701000Y-117888741D01*
X23666376Y-118062812D01*
X23598456Y-118226784D01*
X23499853Y-118374354D01*
X23374354Y-118499853D01*
X23226784Y-118598456D01*
X23062812Y-118666376D01*
X22913512Y-118696073D01*
X22888742Y-118701000D01*
X22711258Y-118701000D01*
X22686488Y-118696073D01*
X22537188Y-118666376D01*
X22373216Y-118598456D01*
X22225646Y-118499853D01*
X22100147Y-118374354D01*
X22001544Y-118226784D01*
X21933624Y-118062812D01*
X21899000Y-117888741D01*
X21899000Y-117711259D01*
X21933624Y-117537188D01*
X22001544Y-117373216D01*
X22100147Y-117225646D01*
X22225646Y-117100147D01*
X22373216Y-117001544D01*
X22537188Y-116933624D01*
X22686488Y-116903927D01*
X22711258Y-116899000D01*
X22888742Y-116899000D01*
X22913512Y-116903927D01*
G37*
G36*
X44838674Y-116753465D02*
G01*
X44876367Y-116764899D01*
X44911103Y-116783466D01*
X44941548Y-116808452D01*
X44966534Y-116838897D01*
X44985101Y-116873633D01*
X44996535Y-116911326D01*
X45001000Y-116956661D01*
X45001000Y-118043339D01*
X44996535Y-118088674D01*
X44985101Y-118126367D01*
X44966534Y-118161103D01*
X44941548Y-118191548D01*
X44911103Y-118216534D01*
X44876367Y-118235101D01*
X44838674Y-118246535D01*
X44793339Y-118251000D01*
X43956661Y-118251000D01*
X43911326Y-118246535D01*
X43873633Y-118235101D01*
X43838897Y-118216534D01*
X43808452Y-118191548D01*
X43783466Y-118161103D01*
X43764899Y-118126367D01*
X43753465Y-118088674D01*
X43749000Y-118043339D01*
X43749000Y-116956661D01*
X43753465Y-116911326D01*
X43764899Y-116873633D01*
X43783466Y-116838897D01*
X43808452Y-116808452D01*
X43838897Y-116783466D01*
X43873633Y-116764899D01*
X43911326Y-116753465D01*
X43956661Y-116749000D01*
X44793339Y-116749000D01*
X44838674Y-116753465D01*
G37*
G36*
X46888674Y-116753465D02*
G01*
X46926367Y-116764899D01*
X46961103Y-116783466D01*
X46991548Y-116808452D01*
X47016534Y-116838897D01*
X47035101Y-116873633D01*
X47046535Y-116911326D01*
X47051000Y-116956661D01*
X47051000Y-118043339D01*
X47046535Y-118088674D01*
X47035101Y-118126367D01*
X47016534Y-118161103D01*
X46991548Y-118191548D01*
X46961103Y-118216534D01*
X46926367Y-118235101D01*
X46888674Y-118246535D01*
X46843339Y-118251000D01*
X46006661Y-118251000D01*
X45961326Y-118246535D01*
X45923633Y-118235101D01*
X45888897Y-118216534D01*
X45858452Y-118191548D01*
X45833466Y-118161103D01*
X45814899Y-118126367D01*
X45803465Y-118088674D01*
X45799000Y-118043339D01*
X45799000Y-116956661D01*
X45803465Y-116911326D01*
X45814899Y-116873633D01*
X45833466Y-116838897D01*
X45858452Y-116808452D01*
X45888897Y-116783466D01*
X45923633Y-116764899D01*
X45961326Y-116753465D01*
X46006661Y-116749000D01*
X46843339Y-116749000D01*
X46888674Y-116753465D01*
G37*
G36*
X44838674Y-114553465D02*
G01*
X44876367Y-114564899D01*
X44911103Y-114583466D01*
X44941548Y-114608452D01*
X44966534Y-114638897D01*
X44985101Y-114673633D01*
X44996535Y-114711326D01*
X45001000Y-114756661D01*
X45001000Y-115843339D01*
X44996535Y-115888674D01*
X44985101Y-115926367D01*
X44966534Y-115961103D01*
X44941548Y-115991548D01*
X44911103Y-116016534D01*
X44876367Y-116035101D01*
X44838674Y-116046535D01*
X44793339Y-116051000D01*
X43956661Y-116051000D01*
X43911326Y-116046535D01*
X43873633Y-116035101D01*
X43838897Y-116016534D01*
X43808452Y-115991548D01*
X43783466Y-115961103D01*
X43764899Y-115926367D01*
X43753465Y-115888674D01*
X43749000Y-115843339D01*
X43749000Y-114756661D01*
X43753465Y-114711326D01*
X43764899Y-114673633D01*
X43783466Y-114638897D01*
X43808452Y-114608452D01*
X43838897Y-114583466D01*
X43873633Y-114564899D01*
X43911326Y-114553465D01*
X43956661Y-114549000D01*
X44793339Y-114549000D01*
X44838674Y-114553465D01*
G37*
G36*
X46888674Y-114553465D02*
G01*
X46926367Y-114564899D01*
X46961103Y-114583466D01*
X46991548Y-114608452D01*
X47016534Y-114638897D01*
X47035101Y-114673633D01*
X47046535Y-114711326D01*
X47051000Y-114756661D01*
X47051000Y-115843339D01*
X47046535Y-115888674D01*
X47035101Y-115926367D01*
X47016534Y-115961103D01*
X46991548Y-115991548D01*
X46961103Y-116016534D01*
X46926367Y-116035101D01*
X46888674Y-116046535D01*
X46843339Y-116051000D01*
X46006661Y-116051000D01*
X45961326Y-116046535D01*
X45923633Y-116035101D01*
X45888897Y-116016534D01*
X45858452Y-115991548D01*
X45833466Y-115961103D01*
X45814899Y-115926367D01*
X45803465Y-115888674D01*
X45799000Y-115843339D01*
X45799000Y-114756661D01*
X45803465Y-114711326D01*
X45814899Y-114673633D01*
X45833466Y-114638897D01*
X45858452Y-114608452D01*
X45888897Y-114583466D01*
X45923633Y-114564899D01*
X45961326Y-114553465D01*
X46006661Y-114549000D01*
X46843339Y-114549000D01*
X46888674Y-114553465D01*
G37*
G36*
X22463674Y-113753465D02*
G01*
X22501367Y-113764899D01*
X22536103Y-113783466D01*
X22566548Y-113808452D01*
X22591534Y-113838897D01*
X22610101Y-113873633D01*
X22621535Y-113911326D01*
X22626000Y-113956661D01*
X22626000Y-115043339D01*
X22621535Y-115088674D01*
X22610101Y-115126367D01*
X22591534Y-115161103D01*
X22566548Y-115191548D01*
X22536103Y-115216534D01*
X22501367Y-115235101D01*
X22463674Y-115246535D01*
X22418339Y-115251000D01*
X21581661Y-115251000D01*
X21536326Y-115246535D01*
X21498633Y-115235101D01*
X21463897Y-115216534D01*
X21433452Y-115191548D01*
X21408466Y-115161103D01*
X21389899Y-115126367D01*
X21378465Y-115088674D01*
X21374000Y-115043339D01*
X21374000Y-113956661D01*
X21378465Y-113911326D01*
X21389899Y-113873633D01*
X21408466Y-113838897D01*
X21433452Y-113808452D01*
X21463897Y-113783466D01*
X21498633Y-113764899D01*
X21536326Y-113753465D01*
X21581661Y-113749000D01*
X22418339Y-113749000D01*
X22463674Y-113753465D01*
G37*
G36*
X24513674Y-113753465D02*
G01*
X24551367Y-113764899D01*
X24586103Y-113783466D01*
X24616548Y-113808452D01*
X24641534Y-113838897D01*
X24660101Y-113873633D01*
X24671535Y-113911326D01*
X24676000Y-113956661D01*
X24676000Y-115043339D01*
X24671535Y-115088674D01*
X24660101Y-115126367D01*
X24641534Y-115161103D01*
X24616548Y-115191548D01*
X24586103Y-115216534D01*
X24551367Y-115235101D01*
X24513674Y-115246535D01*
X24468339Y-115251000D01*
X23631661Y-115251000D01*
X23586326Y-115246535D01*
X23548633Y-115235101D01*
X23513897Y-115216534D01*
X23483452Y-115191548D01*
X23458466Y-115161103D01*
X23439899Y-115126367D01*
X23428465Y-115088674D01*
X23424000Y-115043339D01*
X23424000Y-113956661D01*
X23428465Y-113911326D01*
X23439899Y-113873633D01*
X23458466Y-113838897D01*
X23483452Y-113808452D01*
X23513897Y-113783466D01*
X23548633Y-113764899D01*
X23586326Y-113753465D01*
X23631661Y-113749000D01*
X24468339Y-113749000D01*
X24513674Y-113753465D01*
G37*
G36*
X46888674Y-112353465D02*
G01*
X46926367Y-112364899D01*
X46961103Y-112383466D01*
X46991548Y-112408452D01*
X47016534Y-112438897D01*
X47035101Y-112473633D01*
X47046535Y-112511326D01*
X47051000Y-112556661D01*
X47051000Y-113643339D01*
X47046535Y-113688674D01*
X47035101Y-113726367D01*
X47016534Y-113761103D01*
X46991548Y-113791548D01*
X46961103Y-113816534D01*
X46926367Y-113835101D01*
X46888674Y-113846535D01*
X46843339Y-113851000D01*
X46006661Y-113851000D01*
X45961326Y-113846535D01*
X45923633Y-113835101D01*
X45888897Y-113816534D01*
X45858452Y-113791548D01*
X45833466Y-113761103D01*
X45814899Y-113726367D01*
X45803465Y-113688674D01*
X45799000Y-113643339D01*
X45799000Y-112556661D01*
X45803465Y-112511326D01*
X45814899Y-112473633D01*
X45833466Y-112438897D01*
X45858452Y-112408452D01*
X45888897Y-112383466D01*
X45923633Y-112364899D01*
X45961326Y-112353465D01*
X46006661Y-112349000D01*
X46843339Y-112349000D01*
X46888674Y-112353465D01*
G37*
G36*
X44838674Y-112353465D02*
G01*
X44876367Y-112364899D01*
X44911103Y-112383466D01*
X44941548Y-112408452D01*
X44966534Y-112438897D01*
X44985101Y-112473633D01*
X44996535Y-112511326D01*
X45001000Y-112556661D01*
X45001000Y-113643339D01*
X44996535Y-113688674D01*
X44985101Y-113726367D01*
X44966534Y-113761103D01*
X44941548Y-113791548D01*
X44911103Y-113816534D01*
X44876367Y-113835101D01*
X44838674Y-113846535D01*
X44793339Y-113851000D01*
X43956661Y-113851000D01*
X43911326Y-113846535D01*
X43873633Y-113835101D01*
X43838897Y-113816534D01*
X43808452Y-113791548D01*
X43783466Y-113761103D01*
X43764899Y-113726367D01*
X43753465Y-113688674D01*
X43749000Y-113643339D01*
X43749000Y-112556661D01*
X43753465Y-112511326D01*
X43764899Y-112473633D01*
X43783466Y-112438897D01*
X43808452Y-112408452D01*
X43838897Y-112383466D01*
X43873633Y-112364899D01*
X43911326Y-112353465D01*
X43956661Y-112349000D01*
X44793339Y-112349000D01*
X44838674Y-112353465D01*
G37*
G36*
X59251000Y-113601000D02*
G01*
X58249000Y-113601000D01*
X58249000Y-112299000D01*
X59251000Y-112299000D01*
X59251000Y-113601000D01*
G37*
G36*
X55951000Y-113601000D02*
G01*
X54949000Y-113601000D01*
X54949000Y-112299000D01*
X55951000Y-112299000D01*
X55951000Y-113601000D01*
G37*
G36*
X67051000Y-113271000D02*
G01*
X63549000Y-113271000D01*
X63549000Y-111869000D01*
X67051000Y-111869000D01*
X67051000Y-113271000D01*
G37*
G36*
X44838674Y-109953465D02*
G01*
X44876367Y-109964899D01*
X44911103Y-109983466D01*
X44941548Y-110008452D01*
X44966534Y-110038897D01*
X44985101Y-110073633D01*
X44996535Y-110111326D01*
X45001000Y-110156661D01*
X45001000Y-111243339D01*
X44996535Y-111288674D01*
X44985101Y-111326367D01*
X44966534Y-111361103D01*
X44941548Y-111391548D01*
X44911103Y-111416534D01*
X44876367Y-111435101D01*
X44838674Y-111446535D01*
X44793339Y-111451000D01*
X43956661Y-111451000D01*
X43911326Y-111446535D01*
X43873633Y-111435101D01*
X43838897Y-111416534D01*
X43808452Y-111391548D01*
X43783466Y-111361103D01*
X43764899Y-111326367D01*
X43753465Y-111288674D01*
X43749000Y-111243339D01*
X43749000Y-110156661D01*
X43753465Y-110111326D01*
X43764899Y-110073633D01*
X43783466Y-110038897D01*
X43808452Y-110008452D01*
X43838897Y-109983466D01*
X43873633Y-109964899D01*
X43911326Y-109953465D01*
X43956661Y-109949000D01*
X44793339Y-109949000D01*
X44838674Y-109953465D01*
G37*
G36*
X46888674Y-109953465D02*
G01*
X46926367Y-109964899D01*
X46961103Y-109983466D01*
X46991548Y-110008452D01*
X47016534Y-110038897D01*
X47035101Y-110073633D01*
X47046535Y-110111326D01*
X47051000Y-110156661D01*
X47051000Y-111243339D01*
X47046535Y-111288674D01*
X47035101Y-111326367D01*
X47016534Y-111361103D01*
X46991548Y-111391548D01*
X46961103Y-111416534D01*
X46926367Y-111435101D01*
X46888674Y-111446535D01*
X46843339Y-111451000D01*
X46006661Y-111451000D01*
X45961326Y-111446535D01*
X45923633Y-111435101D01*
X45888897Y-111416534D01*
X45858452Y-111391548D01*
X45833466Y-111361103D01*
X45814899Y-111326367D01*
X45803465Y-111288674D01*
X45799000Y-111243339D01*
X45799000Y-110156661D01*
X45803465Y-110111326D01*
X45814899Y-110073633D01*
X45833466Y-110038897D01*
X45858452Y-110008452D01*
X45888897Y-109983466D01*
X45923633Y-109964899D01*
X45961326Y-109953465D01*
X46006661Y-109949000D01*
X46843339Y-109949000D01*
X46888674Y-109953465D01*
G37*
G36*
X67051000Y-111171000D02*
G01*
X63549000Y-111171000D01*
X63549000Y-109769000D01*
X67051000Y-109769000D01*
X67051000Y-111171000D01*
G37*
G36*
X59251000Y-111101000D02*
G01*
X58249000Y-111101000D01*
X58249000Y-109799000D01*
X59251000Y-109799000D01*
X59251000Y-111101000D01*
G37*
G36*
X55951000Y-111101000D02*
G01*
X54949000Y-111101000D01*
X54949000Y-109799000D01*
X55951000Y-109799000D01*
X55951000Y-111101000D01*
G37*
G36*
X65741000Y-109181000D02*
G01*
X64839000Y-109181000D01*
X64839000Y-108179000D01*
X65741000Y-108179000D01*
X65741000Y-109181000D01*
G37*
G36*
X44838674Y-107653465D02*
G01*
X44876367Y-107664899D01*
X44911103Y-107683466D01*
X44941548Y-107708452D01*
X44966534Y-107738897D01*
X44985101Y-107773633D01*
X44996535Y-107811326D01*
X45001000Y-107856661D01*
X45001000Y-108943339D01*
X44996535Y-108988674D01*
X44985101Y-109026367D01*
X44966534Y-109061103D01*
X44941548Y-109091548D01*
X44911103Y-109116534D01*
X44876367Y-109135101D01*
X44838674Y-109146535D01*
X44793339Y-109151000D01*
X43956661Y-109151000D01*
X43911326Y-109146535D01*
X43873633Y-109135101D01*
X43838897Y-109116534D01*
X43808452Y-109091548D01*
X43783466Y-109061103D01*
X43764899Y-109026367D01*
X43753465Y-108988674D01*
X43749000Y-108943339D01*
X43749000Y-107856661D01*
X43753465Y-107811326D01*
X43764899Y-107773633D01*
X43783466Y-107738897D01*
X43808452Y-107708452D01*
X43838897Y-107683466D01*
X43873633Y-107664899D01*
X43911326Y-107653465D01*
X43956661Y-107649000D01*
X44793339Y-107649000D01*
X44838674Y-107653465D01*
G37*
G36*
X46888674Y-107653465D02*
G01*
X46926367Y-107664899D01*
X46961103Y-107683466D01*
X46991548Y-107708452D01*
X47016534Y-107738897D01*
X47035101Y-107773633D01*
X47046535Y-107811326D01*
X47051000Y-107856661D01*
X47051000Y-108943339D01*
X47046535Y-108988674D01*
X47035101Y-109026367D01*
X47016534Y-109061103D01*
X46991548Y-109091548D01*
X46961103Y-109116534D01*
X46926367Y-109135101D01*
X46888674Y-109146535D01*
X46843339Y-109151000D01*
X46006661Y-109151000D01*
X45961326Y-109146535D01*
X45923633Y-109135101D01*
X45888897Y-109116534D01*
X45858452Y-109091548D01*
X45833466Y-109061103D01*
X45814899Y-109026367D01*
X45803465Y-108988674D01*
X45799000Y-108943339D01*
X45799000Y-107856661D01*
X45803465Y-107811326D01*
X45814899Y-107773633D01*
X45833466Y-107738897D01*
X45858452Y-107708452D01*
X45888897Y-107683466D01*
X45923633Y-107664899D01*
X45961326Y-107653465D01*
X46006661Y-107649000D01*
X46843339Y-107649000D01*
X46888674Y-107653465D01*
G37*
G36*
X55951000Y-108601000D02*
G01*
X54949000Y-108601000D01*
X54949000Y-107299000D01*
X55951000Y-107299000D01*
X55951000Y-108601000D01*
G37*
G36*
X59251000Y-108601000D02*
G01*
X58249000Y-108601000D01*
X58249000Y-107299000D01*
X59251000Y-107299000D01*
X59251000Y-108601000D01*
G37*
G36*
X64791000Y-107181000D02*
G01*
X63889000Y-107181000D01*
X63889000Y-106179000D01*
X64791000Y-106179000D01*
X64791000Y-107181000D01*
G37*
G36*
X66691000Y-107181000D02*
G01*
X65789000Y-107181000D01*
X65789000Y-106179000D01*
X66691000Y-106179000D01*
X66691000Y-107181000D01*
G37*
G36*
X44838674Y-105253465D02*
G01*
X44876367Y-105264899D01*
X44911103Y-105283466D01*
X44941548Y-105308452D01*
X44966534Y-105338897D01*
X44985101Y-105373633D01*
X44996535Y-105411326D01*
X45001000Y-105456661D01*
X45001000Y-106543339D01*
X44996535Y-106588674D01*
X44985101Y-106626367D01*
X44966534Y-106661103D01*
X44941548Y-106691548D01*
X44911103Y-106716534D01*
X44876367Y-106735101D01*
X44838674Y-106746535D01*
X44793339Y-106751000D01*
X43956661Y-106751000D01*
X43911326Y-106746535D01*
X43873633Y-106735101D01*
X43838897Y-106716534D01*
X43808452Y-106691548D01*
X43783466Y-106661103D01*
X43764899Y-106626367D01*
X43753465Y-106588674D01*
X43749000Y-106543339D01*
X43749000Y-105456661D01*
X43753465Y-105411326D01*
X43764899Y-105373633D01*
X43783466Y-105338897D01*
X43808452Y-105308452D01*
X43838897Y-105283466D01*
X43873633Y-105264899D01*
X43911326Y-105253465D01*
X43956661Y-105249000D01*
X44793339Y-105249000D01*
X44838674Y-105253465D01*
G37*
G36*
X46888674Y-105253465D02*
G01*
X46926367Y-105264899D01*
X46961103Y-105283466D01*
X46991548Y-105308452D01*
X47016534Y-105338897D01*
X47035101Y-105373633D01*
X47046535Y-105411326D01*
X47051000Y-105456661D01*
X47051000Y-106543339D01*
X47046535Y-106588674D01*
X47035101Y-106626367D01*
X47016534Y-106661103D01*
X46991548Y-106691548D01*
X46961103Y-106716534D01*
X46926367Y-106735101D01*
X46888674Y-106746535D01*
X46843339Y-106751000D01*
X46006661Y-106751000D01*
X45961326Y-106746535D01*
X45923633Y-106735101D01*
X45888897Y-106716534D01*
X45858452Y-106691548D01*
X45833466Y-106661103D01*
X45814899Y-106626367D01*
X45803465Y-106588674D01*
X45799000Y-106543339D01*
X45799000Y-105456661D01*
X45803465Y-105411326D01*
X45814899Y-105373633D01*
X45833466Y-105338897D01*
X45858452Y-105308452D01*
X45888897Y-105283466D01*
X45923633Y-105264899D01*
X45961326Y-105253465D01*
X46006661Y-105249000D01*
X46843339Y-105249000D01*
X46888674Y-105253465D01*
G37*
G36*
X51488674Y-105253465D02*
G01*
X51526367Y-105264899D01*
X51561103Y-105283466D01*
X51591548Y-105308452D01*
X51616534Y-105338897D01*
X51635101Y-105373633D01*
X51646535Y-105411326D01*
X51651000Y-105456661D01*
X51651000Y-106543339D01*
X51646535Y-106588674D01*
X51635101Y-106626367D01*
X51616534Y-106661103D01*
X51591548Y-106691548D01*
X51561103Y-106716534D01*
X51526367Y-106735101D01*
X51488674Y-106746535D01*
X51443339Y-106751000D01*
X50606661Y-106751000D01*
X50561326Y-106746535D01*
X50523633Y-106735101D01*
X50488897Y-106716534D01*
X50458452Y-106691548D01*
X50433466Y-106661103D01*
X50414899Y-106626367D01*
X50403465Y-106588674D01*
X50399000Y-106543339D01*
X50399000Y-105456661D01*
X50403465Y-105411326D01*
X50414899Y-105373633D01*
X50433466Y-105338897D01*
X50458452Y-105308452D01*
X50488897Y-105283466D01*
X50523633Y-105264899D01*
X50561326Y-105253465D01*
X50606661Y-105249000D01*
X51443339Y-105249000D01*
X51488674Y-105253465D01*
G37*
G36*
X53538674Y-105253465D02*
G01*
X53576367Y-105264899D01*
X53611103Y-105283466D01*
X53641548Y-105308452D01*
X53666534Y-105338897D01*
X53685101Y-105373633D01*
X53696535Y-105411326D01*
X53701000Y-105456661D01*
X53701000Y-106543339D01*
X53696535Y-106588674D01*
X53685101Y-106626367D01*
X53666534Y-106661103D01*
X53641548Y-106691548D01*
X53611103Y-106716534D01*
X53576367Y-106735101D01*
X53538674Y-106746535D01*
X53493339Y-106751000D01*
X52656661Y-106751000D01*
X52611326Y-106746535D01*
X52573633Y-106735101D01*
X52538897Y-106716534D01*
X52508452Y-106691548D01*
X52483466Y-106661103D01*
X52464899Y-106626367D01*
X52453465Y-106588674D01*
X52449000Y-106543339D01*
X52449000Y-105456661D01*
X52453465Y-105411326D01*
X52464899Y-105373633D01*
X52483466Y-105338897D01*
X52508452Y-105308452D01*
X52538897Y-105283466D01*
X52573633Y-105264899D01*
X52611326Y-105253465D01*
X52656661Y-105249000D01*
X53493339Y-105249000D01*
X53538674Y-105253465D01*
G37*
G36*
X44838674Y-103053465D02*
G01*
X44876367Y-103064899D01*
X44911103Y-103083466D01*
X44941548Y-103108452D01*
X44966534Y-103138897D01*
X44985101Y-103173633D01*
X44996535Y-103211326D01*
X45001000Y-103256661D01*
X45001000Y-104343339D01*
X44996535Y-104388674D01*
X44985101Y-104426367D01*
X44966534Y-104461103D01*
X44941548Y-104491548D01*
X44911103Y-104516534D01*
X44876367Y-104535101D01*
X44838674Y-104546535D01*
X44793339Y-104551000D01*
X43956661Y-104551000D01*
X43911326Y-104546535D01*
X43873633Y-104535101D01*
X43838897Y-104516534D01*
X43808452Y-104491548D01*
X43783466Y-104461103D01*
X43764899Y-104426367D01*
X43753465Y-104388674D01*
X43749000Y-104343339D01*
X43749000Y-103256661D01*
X43753465Y-103211326D01*
X43764899Y-103173633D01*
X43783466Y-103138897D01*
X43808452Y-103108452D01*
X43838897Y-103083466D01*
X43873633Y-103064899D01*
X43911326Y-103053465D01*
X43956661Y-103049000D01*
X44793339Y-103049000D01*
X44838674Y-103053465D01*
G37*
G36*
X46888674Y-103053465D02*
G01*
X46926367Y-103064899D01*
X46961103Y-103083466D01*
X46991548Y-103108452D01*
X47016534Y-103138897D01*
X47035101Y-103173633D01*
X47046535Y-103211326D01*
X47051000Y-103256661D01*
X47051000Y-104343339D01*
X47046535Y-104388674D01*
X47035101Y-104426367D01*
X47016534Y-104461103D01*
X46991548Y-104491548D01*
X46961103Y-104516534D01*
X46926367Y-104535101D01*
X46888674Y-104546535D01*
X46843339Y-104551000D01*
X46006661Y-104551000D01*
X45961326Y-104546535D01*
X45923633Y-104535101D01*
X45888897Y-104516534D01*
X45858452Y-104491548D01*
X45833466Y-104461103D01*
X45814899Y-104426367D01*
X45803465Y-104388674D01*
X45799000Y-104343339D01*
X45799000Y-103256661D01*
X45803465Y-103211326D01*
X45814899Y-103173633D01*
X45833466Y-103138897D01*
X45858452Y-103108452D01*
X45888897Y-103083466D01*
X45923633Y-103064899D01*
X45961326Y-103053465D01*
X46006661Y-103049000D01*
X46843339Y-103049000D01*
X46888674Y-103053465D01*
G37*
G36*
X53788674Y-101653465D02*
G01*
X53826367Y-101664899D01*
X53861103Y-101683466D01*
X53891548Y-101708452D01*
X53916534Y-101738897D01*
X53935101Y-101773633D01*
X53946535Y-101811326D01*
X53951000Y-101856661D01*
X53951000Y-102943339D01*
X53946535Y-102988674D01*
X53935101Y-103026367D01*
X53916534Y-103061103D01*
X53891548Y-103091548D01*
X53861103Y-103116534D01*
X53826367Y-103135101D01*
X53788674Y-103146535D01*
X53743339Y-103151000D01*
X52906661Y-103151000D01*
X52861326Y-103146535D01*
X52823633Y-103135101D01*
X52788897Y-103116534D01*
X52758452Y-103091548D01*
X52733466Y-103061103D01*
X52714899Y-103026367D01*
X52703465Y-102988674D01*
X52699000Y-102943339D01*
X52699000Y-101856661D01*
X52703465Y-101811326D01*
X52714899Y-101773633D01*
X52733466Y-101738897D01*
X52758452Y-101708452D01*
X52788897Y-101683466D01*
X52823633Y-101664899D01*
X52861326Y-101653465D01*
X52906661Y-101649000D01*
X53743339Y-101649000D01*
X53788674Y-101653465D01*
G37*
G36*
X51738674Y-101653465D02*
G01*
X51776367Y-101664899D01*
X51811103Y-101683466D01*
X51841548Y-101708452D01*
X51866534Y-101738897D01*
X51885101Y-101773633D01*
X51896535Y-101811326D01*
X51901000Y-101856661D01*
X51901000Y-102943339D01*
X51896535Y-102988674D01*
X51885101Y-103026367D01*
X51866534Y-103061103D01*
X51841548Y-103091548D01*
X51811103Y-103116534D01*
X51776367Y-103135101D01*
X51738674Y-103146535D01*
X51693339Y-103151000D01*
X50856661Y-103151000D01*
X50811326Y-103146535D01*
X50773633Y-103135101D01*
X50738897Y-103116534D01*
X50708452Y-103091548D01*
X50683466Y-103061103D01*
X50664899Y-103026367D01*
X50653465Y-102988674D01*
X50649000Y-102943339D01*
X50649000Y-101856661D01*
X50653465Y-101811326D01*
X50664899Y-101773633D01*
X50683466Y-101738897D01*
X50708452Y-101708452D01*
X50738897Y-101683466D01*
X50773633Y-101664899D01*
X50811326Y-101653465D01*
X50856661Y-101649000D01*
X51693339Y-101649000D01*
X51738674Y-101653465D01*
G37*
G36*
X60338674Y-101478465D02*
G01*
X60376367Y-101489899D01*
X60411103Y-101508466D01*
X60441548Y-101533452D01*
X60466534Y-101563897D01*
X60485101Y-101598633D01*
X60496535Y-101636326D01*
X60501000Y-101681661D01*
X60501000Y-102768339D01*
X60496535Y-102813674D01*
X60485101Y-102851367D01*
X60466534Y-102886103D01*
X60441548Y-102916548D01*
X60411103Y-102941534D01*
X60376367Y-102960101D01*
X60338674Y-102971535D01*
X60293339Y-102976000D01*
X59456661Y-102976000D01*
X59411326Y-102971535D01*
X59373633Y-102960101D01*
X59338897Y-102941534D01*
X59308452Y-102916548D01*
X59283466Y-102886103D01*
X59264899Y-102851367D01*
X59253465Y-102813674D01*
X59249000Y-102768339D01*
X59249000Y-101681661D01*
X59253465Y-101636326D01*
X59264899Y-101598633D01*
X59283466Y-101563897D01*
X59308452Y-101533452D01*
X59338897Y-101508466D01*
X59373633Y-101489899D01*
X59411326Y-101478465D01*
X59456661Y-101474000D01*
X60293339Y-101474000D01*
X60338674Y-101478465D01*
G37*
G36*
X62388674Y-101478465D02*
G01*
X62426367Y-101489899D01*
X62461103Y-101508466D01*
X62491548Y-101533452D01*
X62516534Y-101563897D01*
X62535101Y-101598633D01*
X62546535Y-101636326D01*
X62551000Y-101681661D01*
X62551000Y-102768339D01*
X62546535Y-102813674D01*
X62535101Y-102851367D01*
X62516534Y-102886103D01*
X62491548Y-102916548D01*
X62461103Y-102941534D01*
X62426367Y-102960101D01*
X62388674Y-102971535D01*
X62343339Y-102976000D01*
X61506661Y-102976000D01*
X61461326Y-102971535D01*
X61423633Y-102960101D01*
X61388897Y-102941534D01*
X61358452Y-102916548D01*
X61333466Y-102886103D01*
X61314899Y-102851367D01*
X61303465Y-102813674D01*
X61299000Y-102768339D01*
X61299000Y-101681661D01*
X61303465Y-101636326D01*
X61314899Y-101598633D01*
X61333466Y-101563897D01*
X61358452Y-101533452D01*
X61388897Y-101508466D01*
X61423633Y-101489899D01*
X61461326Y-101478465D01*
X61506661Y-101474000D01*
X62343339Y-101474000D01*
X62388674Y-101478465D01*
G37*
G36*
X44838674Y-100853465D02*
G01*
X44876367Y-100864899D01*
X44911103Y-100883466D01*
X44941548Y-100908452D01*
X44966534Y-100938897D01*
X44985101Y-100973633D01*
X44996535Y-101011326D01*
X45001000Y-101056661D01*
X45001000Y-102143339D01*
X44996535Y-102188674D01*
X44985101Y-102226367D01*
X44966534Y-102261103D01*
X44941548Y-102291548D01*
X44911103Y-102316534D01*
X44876367Y-102335101D01*
X44838674Y-102346535D01*
X44793339Y-102351000D01*
X43956661Y-102351000D01*
X43911326Y-102346535D01*
X43873633Y-102335101D01*
X43838897Y-102316534D01*
X43808452Y-102291548D01*
X43783466Y-102261103D01*
X43764899Y-102226367D01*
X43753465Y-102188674D01*
X43749000Y-102143339D01*
X43749000Y-101056661D01*
X43753465Y-101011326D01*
X43764899Y-100973633D01*
X43783466Y-100938897D01*
X43808452Y-100908452D01*
X43838897Y-100883466D01*
X43873633Y-100864899D01*
X43911326Y-100853465D01*
X43956661Y-100849000D01*
X44793339Y-100849000D01*
X44838674Y-100853465D01*
G37*
G36*
X46888674Y-100853465D02*
G01*
X46926367Y-100864899D01*
X46961103Y-100883466D01*
X46991548Y-100908452D01*
X47016534Y-100938897D01*
X47035101Y-100973633D01*
X47046535Y-101011326D01*
X47051000Y-101056661D01*
X47051000Y-102143339D01*
X47046535Y-102188674D01*
X47035101Y-102226367D01*
X47016534Y-102261103D01*
X46991548Y-102291548D01*
X46961103Y-102316534D01*
X46926367Y-102335101D01*
X46888674Y-102346535D01*
X46843339Y-102351000D01*
X46006661Y-102351000D01*
X45961326Y-102346535D01*
X45923633Y-102335101D01*
X45888897Y-102316534D01*
X45858452Y-102291548D01*
X45833466Y-102261103D01*
X45814899Y-102226367D01*
X45803465Y-102188674D01*
X45799000Y-102143339D01*
X45799000Y-101056661D01*
X45803465Y-101011326D01*
X45814899Y-100973633D01*
X45833466Y-100938897D01*
X45858452Y-100908452D01*
X45888897Y-100883466D01*
X45923633Y-100864899D01*
X45961326Y-100853465D01*
X46006661Y-100849000D01*
X46843339Y-100849000D01*
X46888674Y-100853465D01*
G37*
G36*
X46888674Y-98653465D02*
G01*
X46926367Y-98664899D01*
X46961103Y-98683466D01*
X46991548Y-98708452D01*
X47016534Y-98738897D01*
X47035101Y-98773633D01*
X47046535Y-98811326D01*
X47051000Y-98856661D01*
X47051000Y-99943339D01*
X47046535Y-99988674D01*
X47035101Y-100026367D01*
X47016534Y-100061103D01*
X46991548Y-100091548D01*
X46961103Y-100116534D01*
X46926367Y-100135101D01*
X46888674Y-100146535D01*
X46843339Y-100151000D01*
X46006661Y-100151000D01*
X45961326Y-100146535D01*
X45923633Y-100135101D01*
X45888897Y-100116534D01*
X45858452Y-100091548D01*
X45833466Y-100061103D01*
X45814899Y-100026367D01*
X45803465Y-99988674D01*
X45799000Y-99943339D01*
X45799000Y-98856661D01*
X45803465Y-98811326D01*
X45814899Y-98773633D01*
X45833466Y-98738897D01*
X45858452Y-98708452D01*
X45888897Y-98683466D01*
X45923633Y-98664899D01*
X45961326Y-98653465D01*
X46006661Y-98649000D01*
X46843339Y-98649000D01*
X46888674Y-98653465D01*
G37*
G36*
X44838674Y-98653465D02*
G01*
X44876367Y-98664899D01*
X44911103Y-98683466D01*
X44941548Y-98708452D01*
X44966534Y-98738897D01*
X44985101Y-98773633D01*
X44996535Y-98811326D01*
X45001000Y-98856661D01*
X45001000Y-99943339D01*
X44996535Y-99988674D01*
X44985101Y-100026367D01*
X44966534Y-100061103D01*
X44941548Y-100091548D01*
X44911103Y-100116534D01*
X44876367Y-100135101D01*
X44838674Y-100146535D01*
X44793339Y-100151000D01*
X43956661Y-100151000D01*
X43911326Y-100146535D01*
X43873633Y-100135101D01*
X43838897Y-100116534D01*
X43808452Y-100091548D01*
X43783466Y-100061103D01*
X43764899Y-100026367D01*
X43753465Y-99988674D01*
X43749000Y-99943339D01*
X43749000Y-98856661D01*
X43753465Y-98811326D01*
X43764899Y-98773633D01*
X43783466Y-98738897D01*
X43808452Y-98708452D01*
X43838897Y-98683466D01*
X43873633Y-98664899D01*
X43911326Y-98653465D01*
X43956661Y-98649000D01*
X44793339Y-98649000D01*
X44838674Y-98653465D01*
G37*
G36*
X54313674Y-98328465D02*
G01*
X54351367Y-98339899D01*
X54386103Y-98358466D01*
X54416548Y-98383452D01*
X54441534Y-98413897D01*
X54460101Y-98448633D01*
X54471535Y-98486326D01*
X54476000Y-98531661D01*
X54476000Y-99618339D01*
X54471535Y-99663674D01*
X54460101Y-99701367D01*
X54441534Y-99736103D01*
X54416548Y-99766548D01*
X54386103Y-99791534D01*
X54351367Y-99810101D01*
X54313674Y-99821535D01*
X54268339Y-99826000D01*
X53431661Y-99826000D01*
X53386326Y-99821535D01*
X53348633Y-99810101D01*
X53313897Y-99791534D01*
X53283452Y-99766548D01*
X53258466Y-99736103D01*
X53239899Y-99701367D01*
X53228465Y-99663674D01*
X53224000Y-99618339D01*
X53224000Y-98531661D01*
X53228465Y-98486326D01*
X53239899Y-98448633D01*
X53258466Y-98413897D01*
X53283452Y-98383452D01*
X53313897Y-98358466D01*
X53348633Y-98339899D01*
X53386326Y-98328465D01*
X53431661Y-98324000D01*
X54268339Y-98324000D01*
X54313674Y-98328465D01*
G37*
G36*
X52263674Y-98328465D02*
G01*
X52301367Y-98339899D01*
X52336103Y-98358466D01*
X52366548Y-98383452D01*
X52391534Y-98413897D01*
X52410101Y-98448633D01*
X52421535Y-98486326D01*
X52426000Y-98531661D01*
X52426000Y-99618339D01*
X52421535Y-99663674D01*
X52410101Y-99701367D01*
X52391534Y-99736103D01*
X52366548Y-99766548D01*
X52336103Y-99791534D01*
X52301367Y-99810101D01*
X52263674Y-99821535D01*
X52218339Y-99826000D01*
X51381661Y-99826000D01*
X51336326Y-99821535D01*
X51298633Y-99810101D01*
X51263897Y-99791534D01*
X51233452Y-99766548D01*
X51208466Y-99736103D01*
X51189899Y-99701367D01*
X51178465Y-99663674D01*
X51174000Y-99618339D01*
X51174000Y-98531661D01*
X51178465Y-98486326D01*
X51189899Y-98448633D01*
X51208466Y-98413897D01*
X51233452Y-98383452D01*
X51263897Y-98358466D01*
X51298633Y-98339899D01*
X51336326Y-98328465D01*
X51381661Y-98324000D01*
X52218339Y-98324000D01*
X52263674Y-98328465D01*
G37*
G36*
X56076000Y-97251000D02*
G01*
X47424000Y-97251000D01*
X47424000Y-95649000D01*
X56076000Y-95649000D01*
X56076000Y-97251000D01*
G37*
G36*
X27711766Y-94201899D02*
G01*
X27843888Y-94256626D01*
X27843890Y-94256627D01*
X27962798Y-94336079D01*
X28063921Y-94437202D01*
X28063922Y-94437204D01*
X28143374Y-94556112D01*
X28198101Y-94688234D01*
X28226000Y-94828494D01*
X28226000Y-94971506D01*
X28198101Y-95111766D01*
X28143374Y-95243888D01*
X28143373Y-95243890D01*
X28063921Y-95362798D01*
X27962798Y-95463921D01*
X27843890Y-95543373D01*
X27843889Y-95543374D01*
X27843888Y-95543374D01*
X27711766Y-95598101D01*
X27571506Y-95626000D01*
X27428494Y-95626000D01*
X27288234Y-95598101D01*
X27156112Y-95543374D01*
X27156111Y-95543374D01*
X27156110Y-95543373D01*
X27037202Y-95463921D01*
X26936079Y-95362798D01*
X26856627Y-95243890D01*
X26856626Y-95243888D01*
X26801899Y-95111766D01*
X26774000Y-94971506D01*
X26774000Y-94828494D01*
X26801899Y-94688234D01*
X26856626Y-94556112D01*
X26936078Y-94437204D01*
X26936079Y-94437202D01*
X27037202Y-94336079D01*
X27156110Y-94256627D01*
X27156112Y-94256626D01*
X27288234Y-94201899D01*
X27428494Y-94174000D01*
X27571506Y-94174000D01*
X27711766Y-94201899D01*
G37*
G36*
X23711766Y-94201899D02*
G01*
X23843888Y-94256626D01*
X23843890Y-94256627D01*
X23962798Y-94336079D01*
X24063921Y-94437202D01*
X24063922Y-94437204D01*
X24143374Y-94556112D01*
X24198101Y-94688234D01*
X24226000Y-94828494D01*
X24226000Y-94971506D01*
X24198101Y-95111766D01*
X24143374Y-95243888D01*
X24143373Y-95243890D01*
X24063921Y-95362798D01*
X23962798Y-95463921D01*
X23843890Y-95543373D01*
X23843889Y-95543374D01*
X23843888Y-95543374D01*
X23711766Y-95598101D01*
X23571506Y-95626000D01*
X23428494Y-95626000D01*
X23288234Y-95598101D01*
X23156112Y-95543374D01*
X23156111Y-95543374D01*
X23156110Y-95543373D01*
X23037202Y-95463921D01*
X22936079Y-95362798D01*
X22856627Y-95243890D01*
X22856626Y-95243888D01*
X22801899Y-95111766D01*
X22774000Y-94971506D01*
X22774000Y-94828494D01*
X22801899Y-94688234D01*
X22856626Y-94556112D01*
X22936078Y-94437204D01*
X22936079Y-94437202D01*
X23037202Y-94336079D01*
X23156110Y-94256627D01*
X23156112Y-94256626D01*
X23288234Y-94201899D01*
X23428494Y-94174000D01*
X23571506Y-94174000D01*
X23711766Y-94201899D01*
G37*
G36*
X29711766Y-94201899D02*
G01*
X29843888Y-94256626D01*
X29843890Y-94256627D01*
X29962798Y-94336079D01*
X30063921Y-94437202D01*
X30063922Y-94437204D01*
X30143374Y-94556112D01*
X30198101Y-94688234D01*
X30226000Y-94828494D01*
X30226000Y-94971506D01*
X30198101Y-95111766D01*
X30143374Y-95243888D01*
X30143373Y-95243890D01*
X30063921Y-95362798D01*
X29962798Y-95463921D01*
X29843890Y-95543373D01*
X29843889Y-95543374D01*
X29843888Y-95543374D01*
X29711766Y-95598101D01*
X29571506Y-95626000D01*
X29428494Y-95626000D01*
X29288234Y-95598101D01*
X29156112Y-95543374D01*
X29156111Y-95543374D01*
X29156110Y-95543373D01*
X29037202Y-95463921D01*
X28936079Y-95362798D01*
X28856627Y-95243890D01*
X28856626Y-95243888D01*
X28801899Y-95111766D01*
X28774000Y-94971506D01*
X28774000Y-94828494D01*
X28801899Y-94688234D01*
X28856626Y-94556112D01*
X28936078Y-94437204D01*
X28936079Y-94437202D01*
X29037202Y-94336079D01*
X29156110Y-94256627D01*
X29156112Y-94256626D01*
X29288234Y-94201899D01*
X29428494Y-94174000D01*
X29571506Y-94174000D01*
X29711766Y-94201899D01*
G37*
G36*
X25711766Y-94201899D02*
G01*
X25843888Y-94256626D01*
X25843890Y-94256627D01*
X25962798Y-94336079D01*
X26063921Y-94437202D01*
X26063922Y-94437204D01*
X26143374Y-94556112D01*
X26198101Y-94688234D01*
X26226000Y-94828494D01*
X26226000Y-94971506D01*
X26198101Y-95111766D01*
X26143374Y-95243888D01*
X26143373Y-95243890D01*
X26063921Y-95362798D01*
X25962798Y-95463921D01*
X25843890Y-95543373D01*
X25843889Y-95543374D01*
X25843888Y-95543374D01*
X25711766Y-95598101D01*
X25571506Y-95626000D01*
X25428494Y-95626000D01*
X25288234Y-95598101D01*
X25156112Y-95543374D01*
X25156111Y-95543374D01*
X25156110Y-95543373D01*
X25037202Y-95463921D01*
X24936079Y-95362798D01*
X24856627Y-95243890D01*
X24856626Y-95243888D01*
X24801899Y-95111766D01*
X24774000Y-94971506D01*
X24774000Y-94828494D01*
X24801899Y-94688234D01*
X24856626Y-94556112D01*
X24936078Y-94437204D01*
X24936079Y-94437202D01*
X25037202Y-94336079D01*
X25156110Y-94256627D01*
X25156112Y-94256626D01*
X25288234Y-94201899D01*
X25428494Y-94174000D01*
X25571506Y-94174000D01*
X25711766Y-94201899D01*
G37*
G36*
X31711766Y-94201899D02*
G01*
X31843888Y-94256626D01*
X31843890Y-94256627D01*
X31962798Y-94336079D01*
X32063921Y-94437202D01*
X32063922Y-94437204D01*
X32143374Y-94556112D01*
X32198101Y-94688234D01*
X32226000Y-94828494D01*
X32226000Y-94971506D01*
X32198101Y-95111766D01*
X32143374Y-95243888D01*
X32143373Y-95243890D01*
X32063921Y-95362798D01*
X31962798Y-95463921D01*
X31843890Y-95543373D01*
X31843889Y-95543374D01*
X31843888Y-95543374D01*
X31711766Y-95598101D01*
X31571506Y-95626000D01*
X31428494Y-95626000D01*
X31288234Y-95598101D01*
X31156112Y-95543374D01*
X31156111Y-95543374D01*
X31156110Y-95543373D01*
X31037202Y-95463921D01*
X30936079Y-95362798D01*
X30856627Y-95243890D01*
X30856626Y-95243888D01*
X30801899Y-95111766D01*
X30774000Y-94971506D01*
X30774000Y-94828494D01*
X30801899Y-94688234D01*
X30856626Y-94556112D01*
X30936078Y-94437204D01*
X30936079Y-94437202D01*
X31037202Y-94336079D01*
X31156110Y-94256627D01*
X31156112Y-94256626D01*
X31288234Y-94201899D01*
X31428494Y-94174000D01*
X31571506Y-94174000D01*
X31711766Y-94201899D01*
G37*
G36*
X33711766Y-94201899D02*
G01*
X33843888Y-94256626D01*
X33843890Y-94256627D01*
X33962798Y-94336079D01*
X34063921Y-94437202D01*
X34063922Y-94437204D01*
X34143374Y-94556112D01*
X34198101Y-94688234D01*
X34226000Y-94828494D01*
X34226000Y-94971506D01*
X34198101Y-95111766D01*
X34143374Y-95243888D01*
X34143373Y-95243890D01*
X34063921Y-95362798D01*
X33962798Y-95463921D01*
X33843890Y-95543373D01*
X33843889Y-95543374D01*
X33843888Y-95543374D01*
X33711766Y-95598101D01*
X33571506Y-95626000D01*
X33428494Y-95626000D01*
X33288234Y-95598101D01*
X33156112Y-95543374D01*
X33156111Y-95543374D01*
X33156110Y-95543373D01*
X33037202Y-95463921D01*
X32936079Y-95362798D01*
X32856627Y-95243890D01*
X32856626Y-95243888D01*
X32801899Y-95111766D01*
X32774000Y-94971506D01*
X32774000Y-94828494D01*
X32801899Y-94688234D01*
X32856626Y-94556112D01*
X32936078Y-94437204D01*
X32936079Y-94437202D01*
X33037202Y-94336079D01*
X33156110Y-94256627D01*
X33156112Y-94256626D01*
X33288234Y-94201899D01*
X33428494Y-94174000D01*
X33571506Y-94174000D01*
X33711766Y-94201899D01*
G37*
G36*
X46851000Y-95076000D02*
G01*
X45249000Y-95076000D01*
X45249000Y-86424000D01*
X46851000Y-86424000D01*
X46851000Y-95076000D01*
G37*
G36*
X58251000Y-95076000D02*
G01*
X56649000Y-95076000D01*
X56649000Y-86424000D01*
X58251000Y-86424000D01*
X58251000Y-95076000D01*
G37*
G36*
X43913674Y-91203465D02*
G01*
X43951367Y-91214899D01*
X43986103Y-91233466D01*
X44016548Y-91258452D01*
X44041534Y-91288897D01*
X44060101Y-91323633D01*
X44071535Y-91361326D01*
X44076000Y-91406661D01*
X44076000Y-92243339D01*
X44071535Y-92288674D01*
X44060101Y-92326367D01*
X44041534Y-92361103D01*
X44016548Y-92391548D01*
X43986103Y-92416534D01*
X43951367Y-92435101D01*
X43913674Y-92446535D01*
X43868339Y-92451000D01*
X42781661Y-92451000D01*
X42736326Y-92446535D01*
X42698633Y-92435101D01*
X42663897Y-92416534D01*
X42633452Y-92391548D01*
X42608466Y-92361103D01*
X42589899Y-92326367D01*
X42578465Y-92288674D01*
X42574000Y-92243339D01*
X42574000Y-91406661D01*
X42578465Y-91361326D01*
X42589899Y-91323633D01*
X42608466Y-91288897D01*
X42633452Y-91258452D01*
X42663897Y-91233466D01*
X42698633Y-91214899D01*
X42736326Y-91203465D01*
X42781661Y-91199000D01*
X43868339Y-91199000D01*
X43913674Y-91203465D01*
G37*
G36*
X60863674Y-90878465D02*
G01*
X60901367Y-90889899D01*
X60936103Y-90908466D01*
X60966548Y-90933452D01*
X60991534Y-90963897D01*
X61010101Y-90998633D01*
X61021535Y-91036326D01*
X61026000Y-91081661D01*
X61026000Y-91918339D01*
X61021535Y-91963674D01*
X61010101Y-92001367D01*
X60991534Y-92036103D01*
X60966548Y-92066548D01*
X60936103Y-92091534D01*
X60901367Y-92110101D01*
X60863674Y-92121535D01*
X60818339Y-92126000D01*
X59731661Y-92126000D01*
X59686326Y-92121535D01*
X59648633Y-92110101D01*
X59613897Y-92091534D01*
X59583452Y-92066548D01*
X59558466Y-92036103D01*
X59539899Y-92001367D01*
X59528465Y-91963674D01*
X59524000Y-91918339D01*
X59524000Y-91081661D01*
X59528465Y-91036326D01*
X59539899Y-90998633D01*
X59558466Y-90963897D01*
X59583452Y-90933452D01*
X59613897Y-90908466D01*
X59648633Y-90889899D01*
X59686326Y-90878465D01*
X59731661Y-90874000D01*
X60818339Y-90874000D01*
X60863674Y-90878465D01*
G37*
G36*
X25501000Y-91401000D02*
G01*
X23699000Y-91401000D01*
X23699000Y-89599000D01*
X25501000Y-89599000D01*
X25501000Y-91401000D01*
G37*
G36*
X27253512Y-89603927D02*
G01*
X27402812Y-89633624D01*
X27566784Y-89701544D01*
X27714354Y-89800147D01*
X27839853Y-89925646D01*
X27938456Y-90073216D01*
X28006376Y-90237188D01*
X28032104Y-90366534D01*
X28038960Y-90401000D01*
X28041000Y-90411259D01*
X28041000Y-90588741D01*
X28006376Y-90762812D01*
X27938456Y-90926784D01*
X27839853Y-91074354D01*
X27714354Y-91199853D01*
X27566784Y-91298456D01*
X27402812Y-91366376D01*
X27253512Y-91396073D01*
X27228742Y-91401000D01*
X27051258Y-91401000D01*
X27026488Y-91396073D01*
X26877188Y-91366376D01*
X26713216Y-91298456D01*
X26565646Y-91199853D01*
X26440147Y-91074354D01*
X26341544Y-90926784D01*
X26273624Y-90762812D01*
X26239000Y-90588741D01*
X26239000Y-90411259D01*
X26241041Y-90401000D01*
X26247896Y-90366534D01*
X26273624Y-90237188D01*
X26341544Y-90073216D01*
X26440147Y-89925646D01*
X26565646Y-89800147D01*
X26713216Y-89701544D01*
X26877188Y-89633624D01*
X27026488Y-89603927D01*
X27051258Y-89599000D01*
X27228742Y-89599000D01*
X27253512Y-89603927D01*
G37*
G36*
X43913674Y-89153465D02*
G01*
X43951367Y-89164899D01*
X43986103Y-89183466D01*
X44016548Y-89208452D01*
X44041534Y-89238897D01*
X44060101Y-89273633D01*
X44071535Y-89311326D01*
X44076000Y-89356661D01*
X44076000Y-90193339D01*
X44071535Y-90238674D01*
X44060101Y-90276367D01*
X44041534Y-90311103D01*
X44016548Y-90341548D01*
X43986103Y-90366534D01*
X43951367Y-90385101D01*
X43913674Y-90396535D01*
X43868339Y-90401000D01*
X42781661Y-90401000D01*
X42736326Y-90396535D01*
X42698633Y-90385101D01*
X42663897Y-90366534D01*
X42633452Y-90341548D01*
X42608466Y-90311103D01*
X42589899Y-90276367D01*
X42578465Y-90238674D01*
X42574000Y-90193339D01*
X42574000Y-89356661D01*
X42578465Y-89311326D01*
X42589899Y-89273633D01*
X42608466Y-89238897D01*
X42633452Y-89208452D01*
X42663897Y-89183466D01*
X42698633Y-89164899D01*
X42736326Y-89153465D01*
X42781661Y-89149000D01*
X43868339Y-89149000D01*
X43913674Y-89153465D01*
G37*
G36*
X60863674Y-88828465D02*
G01*
X60901367Y-88839899D01*
X60936103Y-88858466D01*
X60966548Y-88883452D01*
X60991534Y-88913897D01*
X61010101Y-88948633D01*
X61021535Y-88986326D01*
X61026000Y-89031661D01*
X61026000Y-89868339D01*
X61021535Y-89913674D01*
X61010101Y-89951367D01*
X60991534Y-89986103D01*
X60966548Y-90016548D01*
X60936103Y-90041534D01*
X60901367Y-90060101D01*
X60863674Y-90071535D01*
X60818339Y-90076000D01*
X59731661Y-90076000D01*
X59686326Y-90071535D01*
X59648633Y-90060101D01*
X59613897Y-90041534D01*
X59583452Y-90016548D01*
X59558466Y-89986103D01*
X59539899Y-89951367D01*
X59528465Y-89913674D01*
X59524000Y-89868339D01*
X59524000Y-89031661D01*
X59528465Y-88986326D01*
X59539899Y-88948633D01*
X59558466Y-88913897D01*
X59583452Y-88883452D01*
X59613897Y-88858466D01*
X59648633Y-88839899D01*
X59686326Y-88828465D01*
X59731661Y-88824000D01*
X60818339Y-88824000D01*
X60863674Y-88828465D01*
G37*
G36*
X32913512Y-88073927D02*
G01*
X33062812Y-88103624D01*
X33226784Y-88171544D01*
X33374354Y-88270147D01*
X33499853Y-88395646D01*
X33598456Y-88543216D01*
X33666376Y-88707188D01*
X33689611Y-88824000D01*
X33698735Y-88869869D01*
X33701000Y-88881259D01*
X33701000Y-89058741D01*
X33666376Y-89232812D01*
X33598456Y-89396784D01*
X33499853Y-89544354D01*
X33374354Y-89669853D01*
X33226784Y-89768456D01*
X33062812Y-89836376D01*
X32913512Y-89866073D01*
X32888742Y-89871000D01*
X32711258Y-89871000D01*
X32686488Y-89866073D01*
X32537188Y-89836376D01*
X32373216Y-89768456D01*
X32225646Y-89669853D01*
X32100147Y-89544354D01*
X32001544Y-89396784D01*
X31933624Y-89232812D01*
X31899000Y-89058741D01*
X31899000Y-88881259D01*
X31901266Y-88869869D01*
X31910389Y-88824000D01*
X31933624Y-88707188D01*
X32001544Y-88543216D01*
X32100147Y-88395646D01*
X32225646Y-88270147D01*
X32373216Y-88171544D01*
X32537188Y-88103624D01*
X32686488Y-88073927D01*
X32711258Y-88069000D01*
X32888742Y-88069000D01*
X32913512Y-88073927D01*
G37*
G36*
X39488674Y-87903465D02*
G01*
X39526367Y-87914899D01*
X39561103Y-87933466D01*
X39591548Y-87958452D01*
X39616534Y-87988897D01*
X39635101Y-88023633D01*
X39646535Y-88061326D01*
X39651000Y-88106661D01*
X39651000Y-89193339D01*
X39646535Y-89238674D01*
X39635101Y-89276367D01*
X39616534Y-89311103D01*
X39591548Y-89341548D01*
X39561103Y-89366534D01*
X39526367Y-89385101D01*
X39488674Y-89396535D01*
X39443339Y-89401000D01*
X38606661Y-89401000D01*
X38561326Y-89396535D01*
X38523633Y-89385101D01*
X38488897Y-89366534D01*
X38458452Y-89341548D01*
X38433466Y-89311103D01*
X38414899Y-89276367D01*
X38403465Y-89238674D01*
X38399000Y-89193339D01*
X38399000Y-88106661D01*
X38403465Y-88061326D01*
X38414899Y-88023633D01*
X38433466Y-87988897D01*
X38458452Y-87958452D01*
X38488897Y-87933466D01*
X38523633Y-87914899D01*
X38561326Y-87903465D01*
X38606661Y-87899000D01*
X39443339Y-87899000D01*
X39488674Y-87903465D01*
G37*
G36*
X37438674Y-87903465D02*
G01*
X37476367Y-87914899D01*
X37511103Y-87933466D01*
X37541548Y-87958452D01*
X37566534Y-87988897D01*
X37585101Y-88023633D01*
X37596535Y-88061326D01*
X37601000Y-88106661D01*
X37601000Y-89193339D01*
X37596535Y-89238674D01*
X37585101Y-89276367D01*
X37566534Y-89311103D01*
X37541548Y-89341548D01*
X37511103Y-89366534D01*
X37476367Y-89385101D01*
X37438674Y-89396535D01*
X37393339Y-89401000D01*
X36556661Y-89401000D01*
X36511326Y-89396535D01*
X36473633Y-89385101D01*
X36438897Y-89366534D01*
X36408452Y-89341548D01*
X36383466Y-89311103D01*
X36364899Y-89276367D01*
X36353465Y-89238674D01*
X36349000Y-89193339D01*
X36349000Y-88106661D01*
X36353465Y-88061326D01*
X36364899Y-88023633D01*
X36383466Y-87988897D01*
X36408452Y-87958452D01*
X36438897Y-87933466D01*
X36473633Y-87914899D01*
X36511326Y-87903465D01*
X36556661Y-87899000D01*
X37393339Y-87899000D01*
X37438674Y-87903465D01*
G37*
G36*
X32913512Y-85533927D02*
G01*
X33062812Y-85563624D01*
X33226784Y-85631544D01*
X33374354Y-85730147D01*
X33499853Y-85855646D01*
X33598456Y-86003216D01*
X33666376Y-86167188D01*
X33701000Y-86341259D01*
X33701000Y-86518741D01*
X33666376Y-86692812D01*
X33598456Y-86856784D01*
X33499853Y-87004354D01*
X33374354Y-87129853D01*
X33226784Y-87228456D01*
X33062812Y-87296376D01*
X32913512Y-87326073D01*
X32888742Y-87331000D01*
X32711258Y-87331000D01*
X32686488Y-87326073D01*
X32537188Y-87296376D01*
X32373216Y-87228456D01*
X32225646Y-87129853D01*
X32100147Y-87004354D01*
X32001544Y-86856784D01*
X31933624Y-86692812D01*
X31899000Y-86518741D01*
X31899000Y-86341259D01*
X31933624Y-86167188D01*
X32001544Y-86003216D01*
X32100147Y-85855646D01*
X32225646Y-85730147D01*
X32373216Y-85631544D01*
X32537188Y-85563624D01*
X32686488Y-85533927D01*
X32711258Y-85529000D01*
X32888742Y-85529000D01*
X32913512Y-85533927D01*
G37*
G36*
X39488674Y-85753465D02*
G01*
X39526367Y-85764899D01*
X39561103Y-85783466D01*
X39591548Y-85808452D01*
X39616534Y-85838897D01*
X39635101Y-85873633D01*
X39646535Y-85911326D01*
X39651000Y-85956661D01*
X39651000Y-87043339D01*
X39646535Y-87088674D01*
X39635101Y-87126367D01*
X39616534Y-87161103D01*
X39591548Y-87191548D01*
X39561103Y-87216534D01*
X39526367Y-87235101D01*
X39488674Y-87246535D01*
X39443339Y-87251000D01*
X38606661Y-87251000D01*
X38561326Y-87246535D01*
X38523633Y-87235101D01*
X38488897Y-87216534D01*
X38458452Y-87191548D01*
X38433466Y-87161103D01*
X38414899Y-87126367D01*
X38403465Y-87088674D01*
X38399000Y-87043339D01*
X38399000Y-85956661D01*
X38403465Y-85911326D01*
X38414899Y-85873633D01*
X38433466Y-85838897D01*
X38458452Y-85808452D01*
X38488897Y-85783466D01*
X38523633Y-85764899D01*
X38561326Y-85753465D01*
X38606661Y-85749000D01*
X39443339Y-85749000D01*
X39488674Y-85753465D01*
G37*
G36*
X37438674Y-85753465D02*
G01*
X37476367Y-85764899D01*
X37511103Y-85783466D01*
X37541548Y-85808452D01*
X37566534Y-85838897D01*
X37585101Y-85873633D01*
X37596535Y-85911326D01*
X37601000Y-85956661D01*
X37601000Y-87043339D01*
X37596535Y-87088674D01*
X37585101Y-87126367D01*
X37566534Y-87161103D01*
X37541548Y-87191548D01*
X37511103Y-87216534D01*
X37476367Y-87235101D01*
X37438674Y-87246535D01*
X37393339Y-87251000D01*
X36556661Y-87251000D01*
X36511326Y-87246535D01*
X36473633Y-87235101D01*
X36438897Y-87216534D01*
X36408452Y-87191548D01*
X36383466Y-87161103D01*
X36364899Y-87126367D01*
X36353465Y-87088674D01*
X36349000Y-87043339D01*
X36349000Y-85956661D01*
X36353465Y-85911326D01*
X36364899Y-85873633D01*
X36383466Y-85838897D01*
X36408452Y-85808452D01*
X36438897Y-85783466D01*
X36473633Y-85764899D01*
X36511326Y-85753465D01*
X36556661Y-85749000D01*
X37393339Y-85749000D01*
X37438674Y-85753465D01*
G37*
G36*
X29406564Y-85089389D02*
G01*
X29597833Y-85168615D01*
X29597835Y-85168616D01*
X29769973Y-85283635D01*
X29916365Y-85430027D01*
X30005632Y-85563624D01*
X30031385Y-85602167D01*
X30110611Y-85793436D01*
X30151000Y-85996484D01*
X30151000Y-86203516D01*
X30110611Y-86406564D01*
X30072806Y-86497833D01*
X30031384Y-86597835D01*
X29916365Y-86769973D01*
X29769973Y-86916365D01*
X29597835Y-87031384D01*
X29597834Y-87031385D01*
X29597833Y-87031385D01*
X29406564Y-87110611D01*
X29203516Y-87151000D01*
X28996484Y-87151000D01*
X28793436Y-87110611D01*
X28602167Y-87031385D01*
X28602166Y-87031385D01*
X28602165Y-87031384D01*
X28430027Y-86916365D01*
X28283635Y-86769973D01*
X28168616Y-86597835D01*
X28127194Y-86497833D01*
X28089389Y-86406564D01*
X28049000Y-86203516D01*
X28049000Y-85996484D01*
X28089389Y-85793436D01*
X28168615Y-85602167D01*
X28194369Y-85563624D01*
X28283635Y-85430027D01*
X28430027Y-85283635D01*
X28602165Y-85168616D01*
X28602167Y-85168615D01*
X28793436Y-85089389D01*
X28996484Y-85049000D01*
X29203516Y-85049000D01*
X29406564Y-85089389D01*
G37*
G36*
X22906564Y-85089389D02*
G01*
X23097833Y-85168615D01*
X23097835Y-85168616D01*
X23269973Y-85283635D01*
X23416365Y-85430027D01*
X23505632Y-85563624D01*
X23531385Y-85602167D01*
X23610611Y-85793436D01*
X23651000Y-85996484D01*
X23651000Y-86203516D01*
X23610611Y-86406564D01*
X23572806Y-86497833D01*
X23531384Y-86597835D01*
X23416365Y-86769973D01*
X23269973Y-86916365D01*
X23097835Y-87031384D01*
X23097834Y-87031385D01*
X23097833Y-87031385D01*
X22906564Y-87110611D01*
X22703516Y-87151000D01*
X22496484Y-87151000D01*
X22293436Y-87110611D01*
X22102167Y-87031385D01*
X22102166Y-87031385D01*
X22102165Y-87031384D01*
X21930027Y-86916365D01*
X21783635Y-86769973D01*
X21668616Y-86597835D01*
X21627194Y-86497833D01*
X21589389Y-86406564D01*
X21549000Y-86203516D01*
X21549000Y-85996484D01*
X21589389Y-85793436D01*
X21668615Y-85602167D01*
X21694369Y-85563624D01*
X21783635Y-85430027D01*
X21930027Y-85283635D01*
X22102165Y-85168616D01*
X22102167Y-85168615D01*
X22293436Y-85089389D01*
X22496484Y-85049000D01*
X22703516Y-85049000D01*
X22906564Y-85089389D01*
G37*
G36*
X70806564Y-84989389D02*
G01*
X70997833Y-85068615D01*
X70997835Y-85068616D01*
X71028924Y-85089389D01*
X71169973Y-85183635D01*
X71316365Y-85330027D01*
X71431385Y-85502167D01*
X71510611Y-85693436D01*
X71551000Y-85896484D01*
X71551000Y-86103516D01*
X71510611Y-86306564D01*
X71431385Y-86497833D01*
X71431384Y-86497835D01*
X71316365Y-86669973D01*
X71169973Y-86816365D01*
X70997835Y-86931384D01*
X70997834Y-86931385D01*
X70997833Y-86931385D01*
X70806564Y-87010611D01*
X70603516Y-87051000D01*
X70396484Y-87051000D01*
X70193436Y-87010611D01*
X70002167Y-86931385D01*
X70002166Y-86931385D01*
X70002165Y-86931384D01*
X69830027Y-86816365D01*
X69683635Y-86669973D01*
X69568616Y-86497835D01*
X69568615Y-86497833D01*
X69489389Y-86306564D01*
X69449000Y-86103516D01*
X69449000Y-85896484D01*
X69489389Y-85693436D01*
X69568615Y-85502167D01*
X69683635Y-85330027D01*
X69830027Y-85183635D01*
X69971076Y-85089389D01*
X70002165Y-85068616D01*
X70002167Y-85068615D01*
X70193436Y-84989389D01*
X70396484Y-84949000D01*
X70603516Y-84949000D01*
X70806564Y-84989389D01*
G37*
G36*
X64306564Y-84989389D02*
G01*
X64497833Y-85068615D01*
X64497835Y-85068616D01*
X64528924Y-85089389D01*
X64669973Y-85183635D01*
X64816365Y-85330027D01*
X64931385Y-85502167D01*
X65010611Y-85693436D01*
X65051000Y-85896484D01*
X65051000Y-86103516D01*
X65010611Y-86306564D01*
X64931385Y-86497833D01*
X64931384Y-86497835D01*
X64816365Y-86669973D01*
X64669973Y-86816365D01*
X64497835Y-86931384D01*
X64497834Y-86931385D01*
X64497833Y-86931385D01*
X64306564Y-87010611D01*
X64103516Y-87051000D01*
X63896484Y-87051000D01*
X63693436Y-87010611D01*
X63502167Y-86931385D01*
X63502166Y-86931385D01*
X63502165Y-86931384D01*
X63330027Y-86816365D01*
X63183635Y-86669973D01*
X63068616Y-86497835D01*
X63068615Y-86497833D01*
X62989389Y-86306564D01*
X62949000Y-86103516D01*
X62949000Y-85896484D01*
X62989389Y-85693436D01*
X63068615Y-85502167D01*
X63183635Y-85330027D01*
X63330027Y-85183635D01*
X63471076Y-85089389D01*
X63502165Y-85068616D01*
X63502167Y-85068615D01*
X63693436Y-84989389D01*
X63896484Y-84949000D01*
X64103516Y-84949000D01*
X64306564Y-84989389D01*
G37*
G36*
X56076000Y-85851000D02*
G01*
X47424000Y-85851000D01*
X47424000Y-84249000D01*
X56076000Y-84249000D01*
X56076000Y-85851000D01*
G37*
G36*
X32913512Y-82993927D02*
G01*
X33062812Y-83023624D01*
X33226784Y-83091544D01*
X33374354Y-83190147D01*
X33499853Y-83315646D01*
X33598456Y-83463216D01*
X33666376Y-83627188D01*
X33693013Y-83761103D01*
X33699069Y-83791548D01*
X33701000Y-83801259D01*
X33701000Y-83978741D01*
X33666376Y-84152812D01*
X33598456Y-84316784D01*
X33499853Y-84464354D01*
X33374354Y-84589853D01*
X33226784Y-84688456D01*
X33062812Y-84756376D01*
X32913512Y-84786073D01*
X32888742Y-84791000D01*
X32711258Y-84791000D01*
X32686488Y-84786073D01*
X32537188Y-84756376D01*
X32373216Y-84688456D01*
X32225646Y-84589853D01*
X32100147Y-84464354D01*
X32001544Y-84316784D01*
X31933624Y-84152812D01*
X31899000Y-83978741D01*
X31899000Y-83801259D01*
X31900932Y-83791548D01*
X31906987Y-83761103D01*
X31933624Y-83627188D01*
X32001544Y-83463216D01*
X32100147Y-83315646D01*
X32225646Y-83190147D01*
X32373216Y-83091544D01*
X32537188Y-83023624D01*
X32686488Y-82993927D01*
X32711258Y-82989000D01*
X32888742Y-82989000D01*
X32913512Y-82993927D01*
G37*
G36*
X42038674Y-82353465D02*
G01*
X42076367Y-82364899D01*
X42111103Y-82383466D01*
X42141548Y-82408452D01*
X42166534Y-82438897D01*
X42185101Y-82473633D01*
X42196535Y-82511326D01*
X42201000Y-82556661D01*
X42201000Y-83643339D01*
X42196535Y-83688674D01*
X42185101Y-83726367D01*
X42166534Y-83761103D01*
X42141548Y-83791548D01*
X42111103Y-83816534D01*
X42076367Y-83835101D01*
X42038674Y-83846535D01*
X41993339Y-83851000D01*
X41156661Y-83851000D01*
X41111326Y-83846535D01*
X41073633Y-83835101D01*
X41038897Y-83816534D01*
X41008452Y-83791548D01*
X40983466Y-83761103D01*
X40964899Y-83726367D01*
X40953465Y-83688674D01*
X40949000Y-83643339D01*
X40949000Y-82556661D01*
X40953465Y-82511326D01*
X40964899Y-82473633D01*
X40983466Y-82438897D01*
X41008452Y-82408452D01*
X41038897Y-82383466D01*
X41073633Y-82364899D01*
X41111326Y-82353465D01*
X41156661Y-82349000D01*
X41993339Y-82349000D01*
X42038674Y-82353465D01*
G37*
G36*
X44088674Y-82353465D02*
G01*
X44126367Y-82364899D01*
X44161103Y-82383466D01*
X44191548Y-82408452D01*
X44216534Y-82438897D01*
X44235101Y-82473633D01*
X44246535Y-82511326D01*
X44251000Y-82556661D01*
X44251000Y-83643339D01*
X44246535Y-83688674D01*
X44235101Y-83726367D01*
X44216534Y-83761103D01*
X44191548Y-83791548D01*
X44161103Y-83816534D01*
X44126367Y-83835101D01*
X44088674Y-83846535D01*
X44043339Y-83851000D01*
X43206661Y-83851000D01*
X43161326Y-83846535D01*
X43123633Y-83835101D01*
X43088897Y-83816534D01*
X43058452Y-83791548D01*
X43033466Y-83761103D01*
X43014899Y-83726367D01*
X43003465Y-83688674D01*
X42999000Y-83643339D01*
X42999000Y-82556661D01*
X43003465Y-82511326D01*
X43014899Y-82473633D01*
X43033466Y-82438897D01*
X43058452Y-82408452D01*
X43088897Y-82383466D01*
X43123633Y-82364899D01*
X43161326Y-82353465D01*
X43206661Y-82349000D01*
X44043339Y-82349000D01*
X44088674Y-82353465D01*
G37*
G36*
X51613674Y-81803465D02*
G01*
X51651367Y-81814899D01*
X51686103Y-81833466D01*
X51716548Y-81858452D01*
X51741534Y-81888897D01*
X51760101Y-81923633D01*
X51771535Y-81961326D01*
X51776000Y-82006661D01*
X51776000Y-83093339D01*
X51771535Y-83138674D01*
X51760101Y-83176367D01*
X51741534Y-83211103D01*
X51716548Y-83241548D01*
X51686103Y-83266534D01*
X51651367Y-83285101D01*
X51613674Y-83296535D01*
X51568339Y-83301000D01*
X50731661Y-83301000D01*
X50686326Y-83296535D01*
X50648633Y-83285101D01*
X50613897Y-83266534D01*
X50583452Y-83241548D01*
X50558466Y-83211103D01*
X50539899Y-83176367D01*
X50528465Y-83138674D01*
X50524000Y-83093339D01*
X50524000Y-82006661D01*
X50528465Y-81961326D01*
X50539899Y-81923633D01*
X50558466Y-81888897D01*
X50583452Y-81858452D01*
X50613897Y-81833466D01*
X50648633Y-81814899D01*
X50686326Y-81803465D01*
X50731661Y-81799000D01*
X51568339Y-81799000D01*
X51613674Y-81803465D01*
G37*
G36*
X53663674Y-81803465D02*
G01*
X53701367Y-81814899D01*
X53736103Y-81833466D01*
X53766548Y-81858452D01*
X53791534Y-81888897D01*
X53810101Y-81923633D01*
X53821535Y-81961326D01*
X53826000Y-82006661D01*
X53826000Y-83093339D01*
X53821535Y-83138674D01*
X53810101Y-83176367D01*
X53791534Y-83211103D01*
X53766548Y-83241548D01*
X53736103Y-83266534D01*
X53701367Y-83285101D01*
X53663674Y-83296535D01*
X53618339Y-83301000D01*
X52781661Y-83301000D01*
X52736326Y-83296535D01*
X52698633Y-83285101D01*
X52663897Y-83266534D01*
X52633452Y-83241548D01*
X52608466Y-83211103D01*
X52589899Y-83176367D01*
X52578465Y-83138674D01*
X52574000Y-83093339D01*
X52574000Y-82006661D01*
X52578465Y-81961326D01*
X52589899Y-81923633D01*
X52608466Y-81888897D01*
X52633452Y-81858452D01*
X52663897Y-81833466D01*
X52698633Y-81814899D01*
X52736326Y-81803465D01*
X52781661Y-81799000D01*
X53618339Y-81799000D01*
X53663674Y-81803465D01*
G37*
G36*
X22906564Y-80589389D02*
G01*
X23097833Y-80668615D01*
X23097835Y-80668616D01*
X23269973Y-80783635D01*
X23416365Y-80930027D01*
X23521377Y-81087188D01*
X23531385Y-81102167D01*
X23610611Y-81293436D01*
X23651000Y-81496484D01*
X23651000Y-81703516D01*
X23610611Y-81906564D01*
X23551259Y-82049852D01*
X23531384Y-82097835D01*
X23416365Y-82269973D01*
X23269973Y-82416365D01*
X23097835Y-82531384D01*
X23097834Y-82531385D01*
X23097833Y-82531385D01*
X22906564Y-82610611D01*
X22703516Y-82651000D01*
X22496484Y-82651000D01*
X22293436Y-82610611D01*
X22102167Y-82531385D01*
X22102166Y-82531385D01*
X22102165Y-82531384D01*
X21930027Y-82416365D01*
X21783635Y-82269973D01*
X21668616Y-82097835D01*
X21648741Y-82049852D01*
X21589389Y-81906564D01*
X21549000Y-81703516D01*
X21549000Y-81496484D01*
X21589389Y-81293436D01*
X21668615Y-81102167D01*
X21678624Y-81087188D01*
X21783635Y-80930027D01*
X21930027Y-80783635D01*
X22102165Y-80668616D01*
X22102167Y-80668615D01*
X22293436Y-80589389D01*
X22496484Y-80549000D01*
X22703516Y-80549000D01*
X22906564Y-80589389D01*
G37*
G36*
X29406564Y-80589389D02*
G01*
X29597833Y-80668615D01*
X29597835Y-80668616D01*
X29769973Y-80783635D01*
X29916365Y-80930027D01*
X30021377Y-81087188D01*
X30031385Y-81102167D01*
X30110611Y-81293436D01*
X30151000Y-81496484D01*
X30151000Y-81703516D01*
X30110611Y-81906564D01*
X30051259Y-82049852D01*
X30031384Y-82097835D01*
X29916365Y-82269973D01*
X29769973Y-82416365D01*
X29597835Y-82531384D01*
X29597834Y-82531385D01*
X29597833Y-82531385D01*
X29406564Y-82610611D01*
X29203516Y-82651000D01*
X28996484Y-82651000D01*
X28793436Y-82610611D01*
X28602167Y-82531385D01*
X28602166Y-82531385D01*
X28602165Y-82531384D01*
X28430027Y-82416365D01*
X28283635Y-82269973D01*
X28168616Y-82097835D01*
X28148741Y-82049852D01*
X28089389Y-81906564D01*
X28049000Y-81703516D01*
X28049000Y-81496484D01*
X28089389Y-81293436D01*
X28168615Y-81102167D01*
X28178624Y-81087188D01*
X28283635Y-80930027D01*
X28430027Y-80783635D01*
X28602165Y-80668616D01*
X28602167Y-80668615D01*
X28793436Y-80589389D01*
X28996484Y-80549000D01*
X29203516Y-80549000D01*
X29406564Y-80589389D01*
G37*
G36*
X64306564Y-80489389D02*
G01*
X64497833Y-80568615D01*
X64497835Y-80568616D01*
X64528924Y-80589389D01*
X64669973Y-80683635D01*
X64816365Y-80830027D01*
X64931385Y-81002167D01*
X65010611Y-81193436D01*
X65051000Y-81396484D01*
X65051000Y-81603516D01*
X65010611Y-81806564D01*
X64944149Y-81967017D01*
X64931384Y-81997835D01*
X64816365Y-82169973D01*
X64669973Y-82316365D01*
X64497835Y-82431384D01*
X64497834Y-82431385D01*
X64497833Y-82431385D01*
X64306564Y-82510611D01*
X64103516Y-82551000D01*
X63896484Y-82551000D01*
X63693436Y-82510611D01*
X63502167Y-82431385D01*
X63502166Y-82431385D01*
X63502165Y-82431384D01*
X63330027Y-82316365D01*
X63183635Y-82169973D01*
X63068616Y-81997835D01*
X63055851Y-81967017D01*
X62989389Y-81806564D01*
X62949000Y-81603516D01*
X62949000Y-81396484D01*
X62989389Y-81193436D01*
X63068615Y-81002167D01*
X63183635Y-80830027D01*
X63330027Y-80683635D01*
X63471076Y-80589389D01*
X63502165Y-80568616D01*
X63502167Y-80568615D01*
X63693436Y-80489389D01*
X63896484Y-80449000D01*
X64103516Y-80449000D01*
X64306564Y-80489389D01*
G37*
G36*
X70806564Y-80489389D02*
G01*
X70997833Y-80568615D01*
X70997835Y-80568616D01*
X71028924Y-80589389D01*
X71169973Y-80683635D01*
X71316365Y-80830027D01*
X71431385Y-81002167D01*
X71510611Y-81193436D01*
X71551000Y-81396484D01*
X71551000Y-81603516D01*
X71510611Y-81806564D01*
X71444149Y-81967017D01*
X71431384Y-81997835D01*
X71316365Y-82169973D01*
X71169973Y-82316365D01*
X70997835Y-82431384D01*
X70997834Y-82431385D01*
X70997833Y-82431385D01*
X70806564Y-82510611D01*
X70603516Y-82551000D01*
X70396484Y-82551000D01*
X70193436Y-82510611D01*
X70002167Y-82431385D01*
X70002166Y-82431385D01*
X70002165Y-82431384D01*
X69830027Y-82316365D01*
X69683635Y-82169973D01*
X69568616Y-81997835D01*
X69555851Y-81967017D01*
X69489389Y-81806564D01*
X69449000Y-81603516D01*
X69449000Y-81396484D01*
X69489389Y-81193436D01*
X69568615Y-81002167D01*
X69683635Y-80830027D01*
X69830027Y-80683635D01*
X69971076Y-80589389D01*
X70002165Y-80568616D01*
X70002167Y-80568615D01*
X70193436Y-80489389D01*
X70396484Y-80449000D01*
X70603516Y-80449000D01*
X70806564Y-80489389D01*
G37*
G36*
X32913512Y-80453927D02*
G01*
X33062812Y-80483624D01*
X33226784Y-80551544D01*
X33374354Y-80650147D01*
X33499853Y-80775646D01*
X33598456Y-80923216D01*
X33666376Y-81087188D01*
X33701000Y-81261259D01*
X33701000Y-81438741D01*
X33666376Y-81612812D01*
X33598456Y-81776784D01*
X33499853Y-81924354D01*
X33374354Y-82049853D01*
X33226784Y-82148456D01*
X33062812Y-82216376D01*
X32913512Y-82246073D01*
X32888742Y-82251000D01*
X32711258Y-82251000D01*
X32686488Y-82246073D01*
X32537188Y-82216376D01*
X32373216Y-82148456D01*
X32225646Y-82049853D01*
X32100147Y-81924354D01*
X32001544Y-81776784D01*
X31933624Y-81612812D01*
X31899000Y-81438741D01*
X31899000Y-81261259D01*
X31933624Y-81087188D01*
X32001544Y-80923216D01*
X32100147Y-80775646D01*
X32225646Y-80650147D01*
X32373216Y-80551544D01*
X32537188Y-80483624D01*
X32686488Y-80453927D01*
X32711258Y-80449000D01*
X32888742Y-80449000D01*
X32913512Y-80453927D01*
G37*
M02*
