M48
; DRILL file {KiCad (5.1.5-0-10_14)} date 2020 August 16, Sunday 19:30:04
; FORMAT={-:-/ absolute / inch / decimal}
; #@! TF.CreationDate,2020-08-16T19:30:04+02:00
; #@! TF.GenerationSoftware,Kicad,Pcbnew,(5.1.5-0-10_14)
FMAT,2
INCH
T1C0.0157
T2C0.0236
T3C0.0394
T4C0.0433
%
G90
G05
T1
X0.9724Y-5.1024
X1.063Y-4.0551
X1.063Y-4.1732
X1.063Y-4.2913
X1.063Y-4.4094
X1.1811Y-4.0551
X1.1811Y-4.1732
X1.1811Y-4.2913
X1.1811Y-4.4094
X1.2992Y-4.0551
X1.2992Y-4.1732
X1.2992Y-4.2913
X1.2992Y-4.4094
X1.3071Y-5.0945
X1.4173Y-4.0551
X1.4173Y-4.1732
X1.4173Y-4.2913
X1.4173Y-4.4094
X1.5354Y-4.0551
X1.5354Y-4.1732
X1.5354Y-4.2913
X1.5354Y-4.4094
X1.5423Y-3.6037
X1.5482Y-3.5643
X1.5495Y-4.9833
X1.5669Y-3.2835
X1.6083Y-4.7452
X1.7259Y-3.571
X1.8131Y-4.3457
X1.8268Y-4.4685
X1.8449Y-4.3145
X1.8458Y-3.6002
X1.8484Y-4.1066
X1.8562Y-4.2354
X1.8656Y-4.2796
X1.9091Y-3.6185
X1.9168Y-3.3216
X1.9229Y-4.5449
X1.9518Y-3.5028
X1.953Y-3.4573
X1.968Y-4.4749
X1.9811Y-4.1199
X1.9824Y-4.331
X1.9966Y-4.3704
X2.0039Y-4.6693
X2.08Y-4.1198
X2.0801Y-3.6666
X2.108Y-4.9833
X2.1086Y-3.7171
X2.1486Y-3.7711
X2.1575Y-5.1575
X2.1727Y-4.124
X2.1754Y-3.5713
X2.1821Y-3.2628
X2.2724Y-4.1043
X2.3054Y-4.0266
X2.3171Y-3.7481
X2.3213Y-3.7062
X2.3558Y-4.3773
X2.3584Y-3.7876
X2.3869Y-3.9595
X2.4147Y-3.5859
X2.5325Y-3.9565
X2.5437Y-4.0158
X2.5628Y-4.163
X2.5806Y-4.0881
X2.5983Y-4.0253
X2.6746Y-5.1049
X2.6924Y-3.2958
X0.8937Y-3.8169
X1.0512Y-3.8169
X1.1299Y-3.8169
X1.2087Y-3.8169
T2
X0.9724Y-3.8169
X1.2874Y-3.8169
T3
X0.8622Y-4.6378
X0.9622Y-4.6378
X1.0622Y-4.6378
X1.1622Y-4.6378
X1.2622Y-4.6378
X1.3622Y-4.6378
X1.252Y-3.2028
X1.252Y-3.3028
X1.252Y-3.4028
X1.252Y-3.5028
X0.8976Y-3.6142
X0.9976Y-3.6142
T4
X2.5551Y-3.2126
X2.5551Y-3.3898
X2.811Y-3.2126
X2.811Y-3.3898
X1.7323Y-4.9016
X1.7323Y-5.1575
X1.9094Y-4.9016
X1.9094Y-5.1575
X2.5551Y-4.9961
X2.5551Y-5.1732
X2.811Y-4.9961
X2.811Y-5.1732
X0.8504Y-4.9961
X0.8504Y-5.1732
X1.1063Y-4.9961
X1.1063Y-5.1732
X0.8504Y-3.2126
X0.8504Y-3.3898
X1.1063Y-3.2126
X1.1063Y-3.3898
T0
M30
