G04 #@! TF.GenerationSoftware,KiCad,Pcbnew,(5.1.5-0-10_14)*
G04 #@! TF.CreationDate,2020-08-16T19:30:06+02:00*
G04 #@! TF.ProjectId,HB-RC-4-Dis-TH,48422d52-432d-4342-9d44-69732d54482e,rev?*
G04 #@! TF.SameCoordinates,Original*
G04 #@! TF.FileFunction,Legend,Bot*
G04 #@! TF.FilePolarity,Positive*
%FSLAX46Y46*%
G04 Gerber Fmt 4.6, Leading zero omitted, Abs format (unit mm)*
G04 Created by KiCad (PCBNEW (5.1.5-0-10_14)) date 2020-08-16 19:30:06*
%MOMM*%
%LPD*%
G04 APERTURE LIST*
%ADD10C,0.200000*%
%ADD11C,0.100000*%
%ADD12C,0.150000*%
%ADD13C,0.120000*%
G04 APERTURE END LIST*
D10*
X22419047Y-93728571D02*
X23180952Y-93728571D01*
X22800000Y-93347619D02*
X22800000Y-94109523D01*
D11*
X37942857Y-114114285D02*
X37971428Y-114142857D01*
X38057142Y-114171428D01*
X38114285Y-114171428D01*
X38200000Y-114142857D01*
X38257142Y-114085714D01*
X38285714Y-114028571D01*
X38314285Y-113914285D01*
X38314285Y-113828571D01*
X38285714Y-113714285D01*
X38257142Y-113657142D01*
X38200000Y-113600000D01*
X38114285Y-113571428D01*
X38057142Y-113571428D01*
X37971428Y-113600000D01*
X37942857Y-113628571D01*
X37342857Y-114114285D02*
X37371428Y-114142857D01*
X37457142Y-114171428D01*
X37514285Y-114171428D01*
X37600000Y-114142857D01*
X37657142Y-114085714D01*
X37685714Y-114028571D01*
X37714285Y-113914285D01*
X37714285Y-113828571D01*
X37685714Y-113714285D01*
X37657142Y-113657142D01*
X37600000Y-113600000D01*
X37514285Y-113571428D01*
X37457142Y-113571428D01*
X37371428Y-113600000D01*
X37342857Y-113628571D01*
X36428571Y-113857142D02*
X36342857Y-113885714D01*
X36314285Y-113914285D01*
X36285714Y-113971428D01*
X36285714Y-114057142D01*
X36314285Y-114114285D01*
X36342857Y-114142857D01*
X36400000Y-114171428D01*
X36628571Y-114171428D01*
X36628571Y-113571428D01*
X36428571Y-113571428D01*
X36371428Y-113600000D01*
X36342857Y-113628571D01*
X36314285Y-113685714D01*
X36314285Y-113742857D01*
X36342857Y-113800000D01*
X36371428Y-113828571D01*
X36428571Y-113857142D01*
X36628571Y-113857142D01*
X35914285Y-113885714D02*
X35914285Y-114171428D01*
X36114285Y-113571428D02*
X35914285Y-113885714D01*
X35714285Y-113571428D01*
X35514285Y-113942857D02*
X35057142Y-113942857D01*
X34771428Y-114171428D02*
X34771428Y-113571428D01*
X34428571Y-114171428D01*
X34428571Y-113571428D01*
X33800000Y-114114285D02*
X33828571Y-114142857D01*
X33914285Y-114171428D01*
X33971428Y-114171428D01*
X34057142Y-114142857D01*
X34114285Y-114085714D01*
X34142857Y-114028571D01*
X34171428Y-113914285D01*
X34171428Y-113828571D01*
X34142857Y-113714285D01*
X34114285Y-113657142D01*
X34057142Y-113600000D01*
X33971428Y-113571428D01*
X33914285Y-113571428D01*
X33828571Y-113600000D01*
X33800000Y-113628571D01*
X33542857Y-113942857D02*
X33085714Y-113942857D01*
X32828571Y-114142857D02*
X32742857Y-114171428D01*
X32600000Y-114171428D01*
X32542857Y-114142857D01*
X32514285Y-114114285D01*
X32485714Y-114057142D01*
X32485714Y-114000000D01*
X32514285Y-113942857D01*
X32542857Y-113914285D01*
X32600000Y-113885714D01*
X32714285Y-113857142D01*
X32771428Y-113828571D01*
X32800000Y-113800000D01*
X32828571Y-113742857D01*
X32828571Y-113685714D01*
X32800000Y-113628571D01*
X32771428Y-113600000D01*
X32714285Y-113571428D01*
X32571428Y-113571428D01*
X32485714Y-113600000D01*
X32257142Y-114000000D02*
X31971428Y-114000000D01*
X32314285Y-114171428D02*
X32114285Y-113571428D01*
X31914285Y-114171428D01*
X31000000Y-113771428D02*
X31000000Y-114171428D01*
X31142857Y-113542857D02*
X31285714Y-113971428D01*
X30914285Y-113971428D01*
X30685714Y-114114285D02*
X30657142Y-114142857D01*
X30685714Y-114171428D01*
X30714285Y-114142857D01*
X30685714Y-114114285D01*
X30685714Y-114171428D01*
X30285714Y-113571428D02*
X30228571Y-113571428D01*
X30171428Y-113600000D01*
X30142857Y-113628571D01*
X30114285Y-113685714D01*
X30085714Y-113800000D01*
X30085714Y-113942857D01*
X30114285Y-114057142D01*
X30142857Y-114114285D01*
X30171428Y-114142857D01*
X30228571Y-114171428D01*
X30285714Y-114171428D01*
X30342857Y-114142857D01*
X30371428Y-114114285D01*
X30400000Y-114057142D01*
X30428571Y-113942857D01*
X30428571Y-113800000D01*
X30400000Y-113685714D01*
X30371428Y-113628571D01*
X30342857Y-113600000D01*
X30285714Y-113571428D01*
D12*
X40985714Y-105677380D02*
X40985714Y-104677380D01*
X40985714Y-105153571D02*
X40414285Y-105153571D01*
X40414285Y-105677380D02*
X40414285Y-104677380D01*
X39604761Y-105153571D02*
X39461904Y-105201190D01*
X39414285Y-105248809D01*
X39366666Y-105344047D01*
X39366666Y-105486904D01*
X39414285Y-105582142D01*
X39461904Y-105629761D01*
X39557142Y-105677380D01*
X39938095Y-105677380D01*
X39938095Y-104677380D01*
X39604761Y-104677380D01*
X39509523Y-104725000D01*
X39461904Y-104772619D01*
X39414285Y-104867857D01*
X39414285Y-104963095D01*
X39461904Y-105058333D01*
X39509523Y-105105952D01*
X39604761Y-105153571D01*
X39938095Y-105153571D01*
X38938095Y-105296428D02*
X38176190Y-105296428D01*
X37128571Y-105677380D02*
X37461904Y-105201190D01*
X37700000Y-105677380D02*
X37700000Y-104677380D01*
X37319047Y-104677380D01*
X37223809Y-104725000D01*
X37176190Y-104772619D01*
X37128571Y-104867857D01*
X37128571Y-105010714D01*
X37176190Y-105105952D01*
X37223809Y-105153571D01*
X37319047Y-105201190D01*
X37700000Y-105201190D01*
X36128571Y-105582142D02*
X36176190Y-105629761D01*
X36319047Y-105677380D01*
X36414285Y-105677380D01*
X36557142Y-105629761D01*
X36652380Y-105534523D01*
X36700000Y-105439285D01*
X36747619Y-105248809D01*
X36747619Y-105105952D01*
X36700000Y-104915476D01*
X36652380Y-104820238D01*
X36557142Y-104725000D01*
X36414285Y-104677380D01*
X36319047Y-104677380D01*
X36176190Y-104725000D01*
X36128571Y-104772619D01*
X35700000Y-105296428D02*
X34938095Y-105296428D01*
X34033333Y-105010714D02*
X34033333Y-105677380D01*
X34271428Y-104629761D02*
X34509523Y-105344047D01*
X33890476Y-105344047D01*
X33509523Y-105296428D02*
X32747619Y-105296428D01*
X32271428Y-105677380D02*
X32271428Y-104677380D01*
X32033333Y-104677380D01*
X31890476Y-104725000D01*
X31795238Y-104820238D01*
X31747619Y-104915476D01*
X31700000Y-105105952D01*
X31700000Y-105248809D01*
X31747619Y-105439285D01*
X31795238Y-105534523D01*
X31890476Y-105629761D01*
X32033333Y-105677380D01*
X32271428Y-105677380D01*
X31271428Y-105677380D02*
X31271428Y-105010714D01*
X31271428Y-104677380D02*
X31319047Y-104725000D01*
X31271428Y-104772619D01*
X31223809Y-104725000D01*
X31271428Y-104677380D01*
X31271428Y-104772619D01*
X30842857Y-105629761D02*
X30747619Y-105677380D01*
X30557142Y-105677380D01*
X30461904Y-105629761D01*
X30414285Y-105534523D01*
X30414285Y-105486904D01*
X30461904Y-105391666D01*
X30557142Y-105344047D01*
X30700000Y-105344047D01*
X30795238Y-105296428D01*
X30842857Y-105201190D01*
X30842857Y-105153571D01*
X30795238Y-105058333D01*
X30700000Y-105010714D01*
X30557142Y-105010714D01*
X30461904Y-105058333D01*
X29985714Y-105296428D02*
X29223809Y-105296428D01*
X28890476Y-104677380D02*
X28319047Y-104677380D01*
X28604761Y-105677380D02*
X28604761Y-104677380D01*
X27985714Y-105677380D02*
X27985714Y-104677380D01*
X27985714Y-105153571D02*
X27414285Y-105153571D01*
X27414285Y-105677380D02*
X27414285Y-104677380D01*
X40676190Y-107708333D02*
X40723809Y-107660714D01*
X40819047Y-107517857D01*
X40866666Y-107422619D01*
X40914285Y-107279761D01*
X40961904Y-107041666D01*
X40961904Y-106851190D01*
X40914285Y-106613095D01*
X40866666Y-106470238D01*
X40819047Y-106375000D01*
X40723809Y-106232142D01*
X40676190Y-106184523D01*
X39866666Y-107279761D02*
X39961904Y-107327380D01*
X40152380Y-107327380D01*
X40247619Y-107279761D01*
X40295238Y-107232142D01*
X40342857Y-107136904D01*
X40342857Y-106851190D01*
X40295238Y-106755952D01*
X40247619Y-106708333D01*
X40152380Y-106660714D01*
X39961904Y-106660714D01*
X39866666Y-106708333D01*
X39533333Y-107708333D02*
X39485714Y-107660714D01*
X39390476Y-107517857D01*
X39342857Y-107422619D01*
X39295238Y-107279761D01*
X39247619Y-107041666D01*
X39247619Y-106851190D01*
X39295238Y-106613095D01*
X39342857Y-106470238D01*
X39390476Y-106375000D01*
X39485714Y-106232142D01*
X39533333Y-106184523D01*
X38057142Y-106422619D02*
X38009523Y-106375000D01*
X37914285Y-106327380D01*
X37676190Y-106327380D01*
X37580952Y-106375000D01*
X37533333Y-106422619D01*
X37485714Y-106517857D01*
X37485714Y-106613095D01*
X37533333Y-106755952D01*
X38104761Y-107327380D01*
X37485714Y-107327380D01*
X36866666Y-106327380D02*
X36771428Y-106327380D01*
X36676190Y-106375000D01*
X36628571Y-106422619D01*
X36580952Y-106517857D01*
X36533333Y-106708333D01*
X36533333Y-106946428D01*
X36580952Y-107136904D01*
X36628571Y-107232142D01*
X36676190Y-107279761D01*
X36771428Y-107327380D01*
X36866666Y-107327380D01*
X36961904Y-107279761D01*
X37009523Y-107232142D01*
X37057142Y-107136904D01*
X37104761Y-106946428D01*
X37104761Y-106708333D01*
X37057142Y-106517857D01*
X37009523Y-106422619D01*
X36961904Y-106375000D01*
X36866666Y-106327380D01*
X36152380Y-106422619D02*
X36104761Y-106375000D01*
X36009523Y-106327380D01*
X35771428Y-106327380D01*
X35676190Y-106375000D01*
X35628571Y-106422619D01*
X35580952Y-106517857D01*
X35580952Y-106613095D01*
X35628571Y-106755952D01*
X36200000Y-107327380D01*
X35580952Y-107327380D01*
X34961904Y-106327380D02*
X34866666Y-106327380D01*
X34771428Y-106375000D01*
X34723809Y-106422619D01*
X34676190Y-106517857D01*
X34628571Y-106708333D01*
X34628571Y-106946428D01*
X34676190Y-107136904D01*
X34723809Y-107232142D01*
X34771428Y-107279761D01*
X34866666Y-107327380D01*
X34961904Y-107327380D01*
X35057142Y-107279761D01*
X35104761Y-107232142D01*
X35152380Y-107136904D01*
X35200000Y-106946428D01*
X35200000Y-106708333D01*
X35152380Y-106517857D01*
X35104761Y-106422619D01*
X35057142Y-106375000D01*
X34961904Y-106327380D01*
X33438095Y-106660714D02*
X33438095Y-107517857D01*
X33485714Y-107613095D01*
X33580952Y-107660714D01*
X33628571Y-107660714D01*
X33438095Y-106327380D02*
X33485714Y-106375000D01*
X33438095Y-106422619D01*
X33390476Y-106375000D01*
X33438095Y-106327380D01*
X33438095Y-106422619D01*
X32961904Y-106660714D02*
X32961904Y-107660714D01*
X32961904Y-106708333D02*
X32866666Y-106660714D01*
X32676190Y-106660714D01*
X32580952Y-106708333D01*
X32533333Y-106755952D01*
X32485714Y-106851190D01*
X32485714Y-107136904D01*
X32533333Y-107232142D01*
X32580952Y-107279761D01*
X32676190Y-107327380D01*
X32866666Y-107327380D01*
X32961904Y-107279761D01*
X31533333Y-107327380D02*
X32104761Y-107327380D01*
X31819047Y-107327380D02*
X31819047Y-106327380D01*
X31914285Y-106470238D01*
X32009523Y-106565476D01*
X32104761Y-106613095D01*
X30580952Y-107327380D02*
X31152380Y-107327380D01*
X30866666Y-107327380D02*
X30866666Y-106327380D01*
X30961904Y-106470238D01*
X31057142Y-106565476D01*
X31152380Y-106613095D01*
X30200000Y-106422619D02*
X30152380Y-106375000D01*
X30057142Y-106327380D01*
X29819047Y-106327380D01*
X29723809Y-106375000D01*
X29676190Y-106422619D01*
X29628571Y-106517857D01*
X29628571Y-106613095D01*
X29676190Y-106755952D01*
X30247619Y-107327380D01*
X29628571Y-107327380D01*
X29247619Y-107279761D02*
X29152380Y-107327380D01*
X28961904Y-107327380D01*
X28866666Y-107279761D01*
X28819047Y-107184523D01*
X28819047Y-107136904D01*
X28866666Y-107041666D01*
X28961904Y-106994047D01*
X29104761Y-106994047D01*
X29200000Y-106946428D01*
X29247619Y-106851190D01*
X29247619Y-106803571D01*
X29200000Y-106708333D01*
X29104761Y-106660714D01*
X28961904Y-106660714D01*
X28866666Y-106708333D01*
X27961904Y-107327380D02*
X27961904Y-106327380D01*
X27961904Y-107279761D02*
X28057142Y-107327380D01*
X28247619Y-107327380D01*
X28342857Y-107279761D01*
X28390476Y-107232142D01*
X28438095Y-107136904D01*
X28438095Y-106851190D01*
X28390476Y-106755952D01*
X28342857Y-106708333D01*
X28247619Y-106660714D01*
X28057142Y-106660714D01*
X27961904Y-106708333D01*
X27342857Y-107327380D02*
X27438095Y-107279761D01*
X27485714Y-107184523D01*
X27485714Y-106327380D01*
X35723809Y-109627380D02*
X35390476Y-110627380D01*
X35057142Y-109627380D01*
X34200000Y-110627380D02*
X34771428Y-110627380D01*
X34485714Y-110627380D02*
X34485714Y-109627380D01*
X34580952Y-109770238D01*
X34676190Y-109865476D01*
X34771428Y-109913095D01*
X33771428Y-110532142D02*
X33723809Y-110579761D01*
X33771428Y-110627380D01*
X33819047Y-110579761D01*
X33771428Y-110532142D01*
X33771428Y-110627380D01*
X32771428Y-110627380D02*
X33342857Y-110627380D01*
X33057142Y-110627380D02*
X33057142Y-109627380D01*
X33152380Y-109770238D01*
X33247619Y-109865476D01*
X33342857Y-109913095D01*
X34150000Y-119988095D02*
X34102380Y-119892857D01*
X34102380Y-119750000D01*
X34150000Y-119607142D01*
X34245238Y-119511904D01*
X34340476Y-119464285D01*
X34530952Y-119416666D01*
X34673809Y-119416666D01*
X34864285Y-119464285D01*
X34959523Y-119511904D01*
X35054761Y-119607142D01*
X35102380Y-119750000D01*
X35102380Y-119845238D01*
X35054761Y-119988095D01*
X35007142Y-120035714D01*
X34673809Y-120035714D01*
X34673809Y-119845238D01*
X35102380Y-120464285D02*
X34102380Y-120464285D01*
X35102380Y-121035714D01*
X34102380Y-121035714D01*
X35102380Y-121511904D02*
X34102380Y-121511904D01*
X34102380Y-121750000D01*
X34150000Y-121892857D01*
X34245238Y-121988095D01*
X34340476Y-122035714D01*
X34530952Y-122083333D01*
X34673809Y-122083333D01*
X34864285Y-122035714D01*
X34959523Y-121988095D01*
X35054761Y-121892857D01*
X35102380Y-121750000D01*
X35102380Y-121511904D01*
X31650000Y-119988095D02*
X31602380Y-119892857D01*
X31602380Y-119750000D01*
X31650000Y-119607142D01*
X31745238Y-119511904D01*
X31840476Y-119464285D01*
X32030952Y-119416666D01*
X32173809Y-119416666D01*
X32364285Y-119464285D01*
X32459523Y-119511904D01*
X32554761Y-119607142D01*
X32602380Y-119750000D01*
X32602380Y-119845238D01*
X32554761Y-119988095D01*
X32507142Y-120035714D01*
X32173809Y-120035714D01*
X32173809Y-119845238D01*
X32602380Y-120464285D02*
X31602380Y-120464285D01*
X32602380Y-121035714D01*
X31602380Y-121035714D01*
X32602380Y-121511904D02*
X31602380Y-121511904D01*
X31602380Y-121750000D01*
X31650000Y-121892857D01*
X31745238Y-121988095D01*
X31840476Y-122035714D01*
X32030952Y-122083333D01*
X32173809Y-122083333D01*
X32364285Y-122035714D01*
X32459523Y-121988095D01*
X32554761Y-121892857D01*
X32602380Y-121750000D01*
X32602380Y-121511904D01*
X29052380Y-119459523D02*
X30052380Y-119792857D01*
X29052380Y-120126190D01*
X30004761Y-120888095D02*
X30052380Y-120792857D01*
X30052380Y-120602380D01*
X30004761Y-120507142D01*
X29957142Y-120459523D01*
X29861904Y-120411904D01*
X29576190Y-120411904D01*
X29480952Y-120459523D01*
X29433333Y-120507142D01*
X29385714Y-120602380D01*
X29385714Y-120792857D01*
X29433333Y-120888095D01*
X30004761Y-121745238D02*
X30052380Y-121650000D01*
X30052380Y-121459523D01*
X30004761Y-121364285D01*
X29957142Y-121316666D01*
X29861904Y-121269047D01*
X29576190Y-121269047D01*
X29480952Y-121316666D01*
X29433333Y-121364285D01*
X29385714Y-121459523D01*
X29385714Y-121650000D01*
X29433333Y-121745238D01*
X27502380Y-120033333D02*
X27026190Y-119700000D01*
X27502380Y-119461904D02*
X26502380Y-119461904D01*
X26502380Y-119842857D01*
X26550000Y-119938095D01*
X26597619Y-119985714D01*
X26692857Y-120033333D01*
X26835714Y-120033333D01*
X26930952Y-119985714D01*
X26978571Y-119938095D01*
X27026190Y-119842857D01*
X27026190Y-119461904D01*
X26502380Y-120366666D02*
X27502380Y-121033333D01*
X26502380Y-121033333D02*
X27502380Y-120366666D01*
X24002380Y-119388095D02*
X24002380Y-119959523D01*
X25002380Y-119673809D02*
X24002380Y-119673809D01*
X24002380Y-120197619D02*
X25002380Y-120864285D01*
X24002380Y-120864285D02*
X25002380Y-120197619D01*
X22352380Y-119507142D02*
X21352380Y-119507142D01*
X21352380Y-119745238D01*
X21400000Y-119888095D01*
X21495238Y-119983333D01*
X21590476Y-120030952D01*
X21780952Y-120078571D01*
X21923809Y-120078571D01*
X22114285Y-120030952D01*
X22209523Y-119983333D01*
X22304761Y-119888095D01*
X22352380Y-119745238D01*
X22352380Y-119507142D01*
X21352380Y-120364285D02*
X21352380Y-120935714D01*
X22352380Y-120650000D02*
X21352380Y-120650000D01*
X22352380Y-121840476D02*
X21876190Y-121507142D01*
X22352380Y-121269047D02*
X21352380Y-121269047D01*
X21352380Y-121650000D01*
X21400000Y-121745238D01*
X21447619Y-121792857D01*
X21542857Y-121840476D01*
X21685714Y-121840476D01*
X21780952Y-121792857D01*
X21828571Y-121745238D01*
X21876190Y-121650000D01*
X21876190Y-121269047D01*
X32250000Y-98888095D02*
X32202380Y-98792857D01*
X32202380Y-98650000D01*
X32250000Y-98507142D01*
X32345238Y-98411904D01*
X32440476Y-98364285D01*
X32630952Y-98316666D01*
X32773809Y-98316666D01*
X32964285Y-98364285D01*
X33059523Y-98411904D01*
X33154761Y-98507142D01*
X33202380Y-98650000D01*
X33202380Y-98745238D01*
X33154761Y-98888095D01*
X33107142Y-98935714D01*
X32773809Y-98935714D01*
X32773809Y-98745238D01*
X33202380Y-99364285D02*
X32202380Y-99364285D01*
X33202380Y-99935714D01*
X32202380Y-99935714D01*
X33202380Y-100411904D02*
X32202380Y-100411904D01*
X32202380Y-100650000D01*
X32250000Y-100792857D01*
X32345238Y-100888095D01*
X32440476Y-100935714D01*
X32630952Y-100983333D01*
X32773809Y-100983333D01*
X32964285Y-100935714D01*
X33059523Y-100888095D01*
X33154761Y-100792857D01*
X33202380Y-100650000D01*
X33202380Y-100411904D01*
X31202380Y-98902380D02*
X30726190Y-98569047D01*
X31202380Y-98330952D02*
X30202380Y-98330952D01*
X30202380Y-98711904D01*
X30250000Y-98807142D01*
X30297619Y-98854761D01*
X30392857Y-98902380D01*
X30535714Y-98902380D01*
X30630952Y-98854761D01*
X30678571Y-98807142D01*
X30726190Y-98711904D01*
X30726190Y-98330952D01*
X31154761Y-99283333D02*
X31202380Y-99426190D01*
X31202380Y-99664285D01*
X31154761Y-99759523D01*
X31107142Y-99807142D01*
X31011904Y-99854761D01*
X30916666Y-99854761D01*
X30821428Y-99807142D01*
X30773809Y-99759523D01*
X30726190Y-99664285D01*
X30678571Y-99473809D01*
X30630952Y-99378571D01*
X30583333Y-99330952D01*
X30488095Y-99283333D01*
X30392857Y-99283333D01*
X30297619Y-99330952D01*
X30250000Y-99378571D01*
X30202380Y-99473809D01*
X30202380Y-99711904D01*
X30250000Y-99854761D01*
X30202380Y-100140476D02*
X30202380Y-100711904D01*
X31202380Y-100426190D02*
X30202380Y-100426190D01*
X29202380Y-98328571D02*
X28202380Y-98328571D01*
X28916666Y-98661904D01*
X28202380Y-98995238D01*
X29202380Y-98995238D01*
X28202380Y-99661904D02*
X28202380Y-99852380D01*
X28250000Y-99947619D01*
X28345238Y-100042857D01*
X28535714Y-100090476D01*
X28869047Y-100090476D01*
X29059523Y-100042857D01*
X29154761Y-99947619D01*
X29202380Y-99852380D01*
X29202380Y-99661904D01*
X29154761Y-99566666D01*
X29059523Y-99471428D01*
X28869047Y-99423809D01*
X28535714Y-99423809D01*
X28345238Y-99471428D01*
X28250000Y-99566666D01*
X28202380Y-99661904D01*
X29154761Y-100471428D02*
X29202380Y-100614285D01*
X29202380Y-100852380D01*
X29154761Y-100947619D01*
X29107142Y-100995238D01*
X29011904Y-101042857D01*
X28916666Y-101042857D01*
X28821428Y-100995238D01*
X28773809Y-100947619D01*
X28726190Y-100852380D01*
X28678571Y-100661904D01*
X28630952Y-100566666D01*
X28583333Y-100519047D01*
X28488095Y-100471428D01*
X28392857Y-100471428D01*
X28297619Y-100519047D01*
X28250000Y-100566666D01*
X28202380Y-100661904D01*
X28202380Y-100900000D01*
X28250000Y-101042857D01*
X29202380Y-101471428D02*
X28202380Y-101471428D01*
X27252380Y-98328571D02*
X26252380Y-98328571D01*
X26966666Y-98661904D01*
X26252380Y-98995238D01*
X27252380Y-98995238D01*
X27252380Y-99471428D02*
X26252380Y-99471428D01*
X27204761Y-99900000D02*
X27252380Y-100042857D01*
X27252380Y-100280952D01*
X27204761Y-100376190D01*
X27157142Y-100423809D01*
X27061904Y-100471428D01*
X26966666Y-100471428D01*
X26871428Y-100423809D01*
X26823809Y-100376190D01*
X26776190Y-100280952D01*
X26728571Y-100090476D01*
X26680952Y-99995238D01*
X26633333Y-99947619D01*
X26538095Y-99900000D01*
X26442857Y-99900000D01*
X26347619Y-99947619D01*
X26300000Y-99995238D01*
X26252380Y-100090476D01*
X26252380Y-100328571D01*
X26300000Y-100471428D01*
X26252380Y-101090476D02*
X26252380Y-101280952D01*
X26300000Y-101376190D01*
X26395238Y-101471428D01*
X26585714Y-101519047D01*
X26919047Y-101519047D01*
X27109523Y-101471428D01*
X27204761Y-101376190D01*
X27252380Y-101280952D01*
X27252380Y-101090476D01*
X27204761Y-100995238D01*
X27109523Y-100900000D01*
X26919047Y-100852380D01*
X26585714Y-100852380D01*
X26395238Y-100900000D01*
X26300000Y-100995238D01*
X26252380Y-101090476D01*
X24202380Y-98309523D02*
X25202380Y-98642857D01*
X24202380Y-98976190D01*
X25154761Y-99738095D02*
X25202380Y-99642857D01*
X25202380Y-99452380D01*
X25154761Y-99357142D01*
X25107142Y-99309523D01*
X25011904Y-99261904D01*
X24726190Y-99261904D01*
X24630952Y-99309523D01*
X24583333Y-99357142D01*
X24535714Y-99452380D01*
X24535714Y-99642857D01*
X24583333Y-99738095D01*
X25154761Y-100595238D02*
X25202380Y-100500000D01*
X25202380Y-100309523D01*
X25154761Y-100214285D01*
X25107142Y-100166666D01*
X25011904Y-100119047D01*
X24726190Y-100119047D01*
X24630952Y-100166666D01*
X24583333Y-100214285D01*
X24535714Y-100309523D01*
X24535714Y-100500000D01*
X24583333Y-100595238D01*
X23104761Y-98364285D02*
X23152380Y-98507142D01*
X23152380Y-98745238D01*
X23104761Y-98840476D01*
X23057142Y-98888095D01*
X22961904Y-98935714D01*
X22866666Y-98935714D01*
X22771428Y-98888095D01*
X22723809Y-98840476D01*
X22676190Y-98745238D01*
X22628571Y-98554761D01*
X22580952Y-98459523D01*
X22533333Y-98411904D01*
X22438095Y-98364285D01*
X22342857Y-98364285D01*
X22247619Y-98411904D01*
X22200000Y-98459523D01*
X22152380Y-98554761D01*
X22152380Y-98792857D01*
X22200000Y-98935714D01*
X23057142Y-99935714D02*
X23104761Y-99888095D01*
X23152380Y-99745238D01*
X23152380Y-99650000D01*
X23104761Y-99507142D01*
X23009523Y-99411904D01*
X22914285Y-99364285D01*
X22723809Y-99316666D01*
X22580952Y-99316666D01*
X22390476Y-99364285D01*
X22295238Y-99411904D01*
X22200000Y-99507142D01*
X22152380Y-99650000D01*
X22152380Y-99745238D01*
X22200000Y-99888095D01*
X22247619Y-99935714D01*
X23152380Y-100364285D02*
X22152380Y-100364285D01*
X23152380Y-100935714D02*
X22580952Y-100507142D01*
X22152380Y-100935714D02*
X22723809Y-100364285D01*
D13*
X52486252Y-99065000D02*
X51963748Y-99065000D01*
X52486252Y-100485000D02*
X51963748Y-100485000D01*
X60385000Y-90913748D02*
X60385000Y-91436252D01*
X58965000Y-90913748D02*
X58965000Y-91436252D01*
X51313748Y-83960000D02*
X51836252Y-83960000D01*
X51313748Y-82540000D02*
X51836252Y-82540000D01*
X33741400Y-98010000D02*
X33741400Y-95890000D01*
X33741400Y-95890000D02*
X21640000Y-95890000D01*
X33741400Y-98016800D02*
X21640000Y-98010000D01*
X21640000Y-98010000D02*
X21640000Y-95890000D01*
X57575000Y-122950000D02*
X57575000Y-128750000D01*
X60875000Y-122950000D02*
X60875000Y-128750000D01*
X57575000Y-122950000D02*
X60875000Y-122950000D01*
X21470000Y-90470000D02*
X21470000Y-91800000D01*
X22800000Y-90470000D02*
X21470000Y-90470000D01*
X24070000Y-90470000D02*
X24070000Y-93130000D01*
X24070000Y-93130000D02*
X26670000Y-93130000D01*
X24070000Y-90470000D02*
X26670000Y-90470000D01*
X26670000Y-90470000D02*
X26670000Y-93130000D01*
X41565000Y-92561252D02*
X41565000Y-92038748D01*
X42985000Y-92561252D02*
X42985000Y-92038748D01*
X35930000Y-119130000D02*
X35930000Y-117800000D01*
X34600000Y-119130000D02*
X35930000Y-119130000D01*
X33330000Y-119130000D02*
X33330000Y-116470000D01*
X33330000Y-116470000D02*
X20570000Y-116470000D01*
X33330000Y-119130000D02*
X20570000Y-119130000D01*
X20570000Y-119130000D02*
X20570000Y-116470000D01*
X52186252Y-121385000D02*
X51663748Y-121385000D01*
X52186252Y-119965000D02*
X51663748Y-119965000D01*
X44061252Y-101910000D02*
X43538748Y-101910000D01*
X44061252Y-100490000D02*
X43538748Y-100490000D01*
X66880000Y-109010000D02*
X66880000Y-107550000D01*
X63720000Y-109010000D02*
X63720000Y-106850000D01*
X63720000Y-109010000D02*
X64650000Y-109010000D01*
X66880000Y-109010000D02*
X65950000Y-109010000D01*
X66900000Y-113450000D02*
X66900000Y-113050000D01*
X63700000Y-113450000D02*
X63700000Y-113050000D01*
X54850000Y-113950000D02*
X58750000Y-113950000D01*
X54850000Y-111950000D02*
X58750000Y-111950000D01*
X54850000Y-113950000D02*
X54850000Y-111950000D01*
X59350000Y-109450000D02*
X55450000Y-109450000D01*
X59350000Y-111450000D02*
X55450000Y-111450000D01*
X59350000Y-109450000D02*
X59350000Y-111450000D01*
X59350000Y-106950000D02*
X55450000Y-106950000D01*
X59350000Y-108950000D02*
X55450000Y-108950000D01*
X59350000Y-106950000D02*
X59350000Y-108950000D01*
X43338748Y-118490000D02*
X43861252Y-118490000D01*
X43338748Y-119910000D02*
X43861252Y-119910000D01*
X60638748Y-101515000D02*
X61161252Y-101515000D01*
X60638748Y-102935000D02*
X61161252Y-102935000D01*
X51788748Y-105290000D02*
X52311252Y-105290000D01*
X51788748Y-106710000D02*
X52311252Y-106710000D01*
X44061252Y-106910000D02*
X43538748Y-106910000D01*
X44061252Y-105490000D02*
X43538748Y-105490000D01*
X44061252Y-104310000D02*
X43538748Y-104310000D01*
X44061252Y-102890000D02*
X43538748Y-102890000D01*
X43861252Y-122310000D02*
X43338748Y-122310000D01*
X43861252Y-120890000D02*
X43338748Y-120890000D01*
X43338748Y-115490000D02*
X43861252Y-115490000D01*
X43338748Y-116910000D02*
X43861252Y-116910000D01*
X44061252Y-114110000D02*
X43538748Y-114110000D01*
X44061252Y-112690000D02*
X43538748Y-112690000D01*
X44061252Y-109310000D02*
X43538748Y-109310000D01*
X44061252Y-107890000D02*
X43538748Y-107890000D01*
X43538748Y-110290000D02*
X44061252Y-110290000D01*
X43538748Y-111710000D02*
X44061252Y-111710000D01*
X52261252Y-117385000D02*
X51738748Y-117385000D01*
X52261252Y-115965000D02*
X51738748Y-115965000D01*
D12*
X46550000Y-86275000D02*
X46550000Y-85000000D01*
X45975000Y-96625000D02*
X45975000Y-95950000D01*
X56325000Y-96625000D02*
X56325000Y-95950000D01*
X56325000Y-86275000D02*
X56325000Y-86950000D01*
X45975000Y-86275000D02*
X45975000Y-86950000D01*
X56325000Y-86275000D02*
X55650000Y-86275000D01*
X56325000Y-96625000D02*
X55650000Y-96625000D01*
X45975000Y-96625000D02*
X46650000Y-96625000D01*
X45975000Y-86275000D02*
X46550000Y-86275000D01*
D13*
X38261252Y-89360000D02*
X37738748Y-89360000D01*
X38261252Y-87940000D02*
X37738748Y-87940000D01*
X38261252Y-87210000D02*
X37738748Y-87210000D01*
X38261252Y-85790000D02*
X37738748Y-85790000D01*
X45488748Y-83560000D02*
X46011252Y-83560000D01*
X45488748Y-82140000D02*
X46011252Y-82140000D01*
X54140000Y-127911252D02*
X54140000Y-127388748D01*
X55560000Y-127911252D02*
X55560000Y-127388748D01*
X37340000Y-127861252D02*
X37340000Y-127338748D01*
X38760000Y-127861252D02*
X38760000Y-127338748D01*
X49908748Y-101170000D02*
X50431252Y-101170000D01*
X49908748Y-102590000D02*
X50431252Y-102590000D01*
X23161252Y-115210000D02*
X22638748Y-115210000D01*
X23161252Y-113790000D02*
X22638748Y-113790000D01*
D12*
X54592857Y-101832142D02*
X54640476Y-101879761D01*
X54783333Y-101927380D01*
X54878571Y-101927380D01*
X55021428Y-101879761D01*
X55116666Y-101784523D01*
X55164285Y-101689285D01*
X55211904Y-101498809D01*
X55211904Y-101355952D01*
X55164285Y-101165476D01*
X55116666Y-101070238D01*
X55021428Y-100975000D01*
X54878571Y-100927380D01*
X54783333Y-100927380D01*
X54640476Y-100975000D01*
X54592857Y-101022619D01*
X53640476Y-101927380D02*
X54211904Y-101927380D01*
X53926190Y-101927380D02*
X53926190Y-100927380D01*
X54021428Y-101070238D01*
X54116666Y-101165476D01*
X54211904Y-101213095D01*
X53307142Y-100927380D02*
X52640476Y-100927380D01*
X53069047Y-101927380D01*
X60367857Y-88957142D02*
X60415476Y-89004761D01*
X60558333Y-89052380D01*
X60653571Y-89052380D01*
X60796428Y-89004761D01*
X60891666Y-88909523D01*
X60939285Y-88814285D01*
X60986904Y-88623809D01*
X60986904Y-88480952D01*
X60939285Y-88290476D01*
X60891666Y-88195238D01*
X60796428Y-88100000D01*
X60653571Y-88052380D01*
X60558333Y-88052380D01*
X60415476Y-88100000D01*
X60367857Y-88147619D01*
X59415476Y-89052380D02*
X59986904Y-89052380D01*
X59701190Y-89052380D02*
X59701190Y-88052380D01*
X59796428Y-88195238D01*
X59891666Y-88290476D01*
X59986904Y-88338095D01*
X58558333Y-88052380D02*
X58748809Y-88052380D01*
X58844047Y-88100000D01*
X58891666Y-88147619D01*
X58986904Y-88290476D01*
X59034523Y-88480952D01*
X59034523Y-88861904D01*
X58986904Y-88957142D01*
X58939285Y-89004761D01*
X58844047Y-89052380D01*
X58653571Y-89052380D01*
X58558333Y-89004761D01*
X58510714Y-88957142D01*
X58463095Y-88861904D01*
X58463095Y-88623809D01*
X58510714Y-88528571D01*
X58558333Y-88480952D01*
X58653571Y-88433333D01*
X58844047Y-88433333D01*
X58939285Y-88480952D01*
X58986904Y-88528571D01*
X59034523Y-88623809D01*
X52317857Y-82007142D02*
X52365476Y-82054761D01*
X52508333Y-82102380D01*
X52603571Y-82102380D01*
X52746428Y-82054761D01*
X52841666Y-81959523D01*
X52889285Y-81864285D01*
X52936904Y-81673809D01*
X52936904Y-81530952D01*
X52889285Y-81340476D01*
X52841666Y-81245238D01*
X52746428Y-81150000D01*
X52603571Y-81102380D01*
X52508333Y-81102380D01*
X52365476Y-81150000D01*
X52317857Y-81197619D01*
X51365476Y-82102380D02*
X51936904Y-82102380D01*
X51651190Y-82102380D02*
X51651190Y-81102380D01*
X51746428Y-81245238D01*
X51841666Y-81340476D01*
X51936904Y-81388095D01*
X50460714Y-81102380D02*
X50936904Y-81102380D01*
X50984523Y-81578571D01*
X50936904Y-81530952D01*
X50841666Y-81483333D01*
X50603571Y-81483333D01*
X50508333Y-81530952D01*
X50460714Y-81578571D01*
X50413095Y-81673809D01*
X50413095Y-81911904D01*
X50460714Y-82007142D01*
X50508333Y-82054761D01*
X50603571Y-82102380D01*
X50841666Y-82102380D01*
X50936904Y-82054761D01*
X50984523Y-82007142D01*
X28576190Y-95102380D02*
X28576190Y-94102380D01*
X28147619Y-95054761D02*
X28004761Y-95102380D01*
X27766666Y-95102380D01*
X27671428Y-95054761D01*
X27623809Y-95007142D01*
X27576190Y-94911904D01*
X27576190Y-94816666D01*
X27623809Y-94721428D01*
X27671428Y-94673809D01*
X27766666Y-94626190D01*
X27957142Y-94578571D01*
X28052380Y-94530952D01*
X28100000Y-94483333D01*
X28147619Y-94388095D01*
X28147619Y-94292857D01*
X28100000Y-94197619D01*
X28052380Y-94150000D01*
X27957142Y-94102380D01*
X27719047Y-94102380D01*
X27576190Y-94150000D01*
X27147619Y-95102380D02*
X27147619Y-94102380D01*
X26766666Y-94102380D01*
X26671428Y-94150000D01*
X26623809Y-94197619D01*
X26576190Y-94292857D01*
X26576190Y-94435714D01*
X26623809Y-94530952D01*
X26671428Y-94578571D01*
X26766666Y-94626190D01*
X27147619Y-94626190D01*
X59917857Y-122257142D02*
X59965476Y-122304761D01*
X60108333Y-122352380D01*
X60203571Y-122352380D01*
X60346428Y-122304761D01*
X60441666Y-122209523D01*
X60489285Y-122114285D01*
X60536904Y-121923809D01*
X60536904Y-121780952D01*
X60489285Y-121590476D01*
X60441666Y-121495238D01*
X60346428Y-121400000D01*
X60203571Y-121352380D01*
X60108333Y-121352380D01*
X59965476Y-121400000D01*
X59917857Y-121447619D01*
X58965476Y-122352380D02*
X59536904Y-122352380D01*
X59251190Y-122352380D02*
X59251190Y-121352380D01*
X59346428Y-121495238D01*
X59441666Y-121590476D01*
X59536904Y-121638095D01*
X58394047Y-121780952D02*
X58489285Y-121733333D01*
X58536904Y-121685714D01*
X58584523Y-121590476D01*
X58584523Y-121542857D01*
X58536904Y-121447619D01*
X58489285Y-121400000D01*
X58394047Y-121352380D01*
X58203571Y-121352380D01*
X58108333Y-121400000D01*
X58060714Y-121447619D01*
X58013095Y-121542857D01*
X58013095Y-121590476D01*
X58060714Y-121685714D01*
X58108333Y-121733333D01*
X58203571Y-121780952D01*
X58394047Y-121780952D01*
X58489285Y-121828571D01*
X58536904Y-121876190D01*
X58584523Y-121971428D01*
X58584523Y-122161904D01*
X58536904Y-122257142D01*
X58489285Y-122304761D01*
X58394047Y-122352380D01*
X58203571Y-122352380D01*
X58108333Y-122304761D01*
X58060714Y-122257142D01*
X58013095Y-122161904D01*
X58013095Y-121971428D01*
X58060714Y-121876190D01*
X58108333Y-121828571D01*
X58203571Y-121780952D01*
X25776190Y-89852380D02*
X25776190Y-88852380D01*
X25395238Y-88852380D01*
X25300000Y-88900000D01*
X25252380Y-88947619D01*
X25204761Y-89042857D01*
X25204761Y-89185714D01*
X25252380Y-89280952D01*
X25300000Y-89328571D01*
X25395238Y-89376190D01*
X25776190Y-89376190D01*
X24633333Y-89852380D02*
X24728571Y-89804761D01*
X24776190Y-89757142D01*
X24823809Y-89661904D01*
X24823809Y-89376190D01*
X24776190Y-89280952D01*
X24728571Y-89233333D01*
X24633333Y-89185714D01*
X24490476Y-89185714D01*
X24395238Y-89233333D01*
X24347619Y-89280952D01*
X24300000Y-89376190D01*
X24300000Y-89661904D01*
X24347619Y-89757142D01*
X24395238Y-89804761D01*
X24490476Y-89852380D01*
X24633333Y-89852380D01*
X23966666Y-89185714D02*
X23776190Y-89852380D01*
X23585714Y-89376190D01*
X23395238Y-89852380D01*
X23204761Y-89185714D01*
X22442857Y-89804761D02*
X22538095Y-89852380D01*
X22728571Y-89852380D01*
X22823809Y-89804761D01*
X22871428Y-89709523D01*
X22871428Y-89328571D01*
X22823809Y-89233333D01*
X22728571Y-89185714D01*
X22538095Y-89185714D01*
X22442857Y-89233333D01*
X22395238Y-89328571D01*
X22395238Y-89423809D01*
X22871428Y-89519047D01*
X21966666Y-89852380D02*
X21966666Y-89185714D01*
X21966666Y-89376190D02*
X21919047Y-89280952D01*
X21871428Y-89233333D01*
X21776190Y-89185714D01*
X21680952Y-89185714D01*
X42942857Y-90132142D02*
X42990476Y-90179761D01*
X43133333Y-90227380D01*
X43228571Y-90227380D01*
X43371428Y-90179761D01*
X43466666Y-90084523D01*
X43514285Y-89989285D01*
X43561904Y-89798809D01*
X43561904Y-89655952D01*
X43514285Y-89465476D01*
X43466666Y-89370238D01*
X43371428Y-89275000D01*
X43228571Y-89227380D01*
X43133333Y-89227380D01*
X42990476Y-89275000D01*
X42942857Y-89322619D01*
X41990476Y-90227380D02*
X42561904Y-90227380D01*
X42276190Y-90227380D02*
X42276190Y-89227380D01*
X42371428Y-89370238D01*
X42466666Y-89465476D01*
X42561904Y-89513095D01*
X41133333Y-89560714D02*
X41133333Y-90227380D01*
X41371428Y-89179761D02*
X41609523Y-89894047D01*
X40990476Y-89894047D01*
X28676190Y-115178571D02*
X29009523Y-115178571D01*
X29009523Y-115702380D02*
X29009523Y-114702380D01*
X28533333Y-114702380D01*
X28295238Y-114702380D02*
X27723809Y-114702380D01*
X28009523Y-115702380D02*
X28009523Y-114702380D01*
X27390476Y-115702380D02*
X27390476Y-114702380D01*
X27152380Y-114702380D01*
X27009523Y-114750000D01*
X26914285Y-114845238D01*
X26866666Y-114940476D01*
X26819047Y-115130952D01*
X26819047Y-115273809D01*
X26866666Y-115464285D01*
X26914285Y-115559523D01*
X27009523Y-115654761D01*
X27152380Y-115702380D01*
X27390476Y-115702380D01*
X26390476Y-115702380D02*
X26390476Y-114702380D01*
X52091666Y-119477380D02*
X52425000Y-119001190D01*
X52663095Y-119477380D02*
X52663095Y-118477380D01*
X52282142Y-118477380D01*
X52186904Y-118525000D01*
X52139285Y-118572619D01*
X52091666Y-118667857D01*
X52091666Y-118810714D01*
X52139285Y-118905952D01*
X52186904Y-118953571D01*
X52282142Y-119001190D01*
X52663095Y-119001190D01*
X51520238Y-118905952D02*
X51615476Y-118858333D01*
X51663095Y-118810714D01*
X51710714Y-118715476D01*
X51710714Y-118667857D01*
X51663095Y-118572619D01*
X51615476Y-118525000D01*
X51520238Y-118477380D01*
X51329761Y-118477380D01*
X51234523Y-118525000D01*
X51186904Y-118572619D01*
X51139285Y-118667857D01*
X51139285Y-118715476D01*
X51186904Y-118810714D01*
X51234523Y-118858333D01*
X51329761Y-118905952D01*
X51520238Y-118905952D01*
X51615476Y-118953571D01*
X51663095Y-119001190D01*
X51710714Y-119096428D01*
X51710714Y-119286904D01*
X51663095Y-119382142D01*
X51615476Y-119429761D01*
X51520238Y-119477380D01*
X51329761Y-119477380D01*
X51234523Y-119429761D01*
X51186904Y-119382142D01*
X51139285Y-119286904D01*
X51139285Y-119096428D01*
X51186904Y-119001190D01*
X51234523Y-118953571D01*
X51329761Y-118905952D01*
X46966666Y-101552380D02*
X47300000Y-101076190D01*
X47538095Y-101552380D02*
X47538095Y-100552380D01*
X47157142Y-100552380D01*
X47061904Y-100600000D01*
X47014285Y-100647619D01*
X46966666Y-100742857D01*
X46966666Y-100885714D01*
X47014285Y-100980952D01*
X47061904Y-101028571D01*
X47157142Y-101076190D01*
X47538095Y-101076190D01*
X46109523Y-100552380D02*
X46300000Y-100552380D01*
X46395238Y-100600000D01*
X46442857Y-100647619D01*
X46538095Y-100790476D01*
X46585714Y-100980952D01*
X46585714Y-101361904D01*
X46538095Y-101457142D01*
X46490476Y-101504761D01*
X46395238Y-101552380D01*
X46204761Y-101552380D01*
X46109523Y-101504761D01*
X46061904Y-101457142D01*
X46014285Y-101361904D01*
X46014285Y-101123809D01*
X46061904Y-101028571D01*
X46109523Y-100980952D01*
X46204761Y-100933333D01*
X46395238Y-100933333D01*
X46490476Y-100980952D01*
X46538095Y-101028571D01*
X46585714Y-101123809D01*
X65345238Y-106247619D02*
X65440476Y-106200000D01*
X65535714Y-106104761D01*
X65678571Y-105961904D01*
X65773809Y-105914285D01*
X65869047Y-105914285D01*
X65821428Y-106152380D02*
X65916666Y-106104761D01*
X66011904Y-106009523D01*
X66059523Y-105819047D01*
X66059523Y-105485714D01*
X66011904Y-105295238D01*
X65916666Y-105200000D01*
X65821428Y-105152380D01*
X65630952Y-105152380D01*
X65535714Y-105200000D01*
X65440476Y-105295238D01*
X65392857Y-105485714D01*
X65392857Y-105819047D01*
X65440476Y-106009523D01*
X65535714Y-106104761D01*
X65630952Y-106152380D01*
X65821428Y-106152380D01*
X64440476Y-106152380D02*
X65011904Y-106152380D01*
X64726190Y-106152380D02*
X64726190Y-105152380D01*
X64821428Y-105295238D01*
X64916666Y-105390476D01*
X65011904Y-105438095D01*
X65566666Y-116852380D02*
X66042857Y-116852380D01*
X66042857Y-115852380D01*
X64709523Y-116852380D02*
X65280952Y-116852380D01*
X64995238Y-116852380D02*
X64995238Y-115852380D01*
X65090476Y-115995238D01*
X65185714Y-116090476D01*
X65280952Y-116138095D01*
X61238095Y-113502380D02*
X61238095Y-112502380D01*
X61000000Y-112502380D01*
X60857142Y-112550000D01*
X60761904Y-112645238D01*
X60714285Y-112740476D01*
X60666666Y-112930952D01*
X60666666Y-113073809D01*
X60714285Y-113264285D01*
X60761904Y-113359523D01*
X60857142Y-113454761D01*
X61000000Y-113502380D01*
X61238095Y-113502380D01*
X59761904Y-112502380D02*
X60238095Y-112502380D01*
X60285714Y-112978571D01*
X60238095Y-112930952D01*
X60142857Y-112883333D01*
X59904761Y-112883333D01*
X59809523Y-112930952D01*
X59761904Y-112978571D01*
X59714285Y-113073809D01*
X59714285Y-113311904D01*
X59761904Y-113407142D01*
X59809523Y-113454761D01*
X59904761Y-113502380D01*
X60142857Y-113502380D01*
X60238095Y-113454761D01*
X60285714Y-113407142D01*
X61238095Y-111002380D02*
X61238095Y-110002380D01*
X61000000Y-110002380D01*
X60857142Y-110050000D01*
X60761904Y-110145238D01*
X60714285Y-110240476D01*
X60666666Y-110430952D01*
X60666666Y-110573809D01*
X60714285Y-110764285D01*
X60761904Y-110859523D01*
X60857142Y-110954761D01*
X61000000Y-111002380D01*
X61238095Y-111002380D01*
X59809523Y-110335714D02*
X59809523Y-111002380D01*
X60047619Y-109954761D02*
X60285714Y-110669047D01*
X59666666Y-110669047D01*
X61238095Y-108502380D02*
X61238095Y-107502380D01*
X61000000Y-107502380D01*
X60857142Y-107550000D01*
X60761904Y-107645238D01*
X60714285Y-107740476D01*
X60666666Y-107930952D01*
X60666666Y-108073809D01*
X60714285Y-108264285D01*
X60761904Y-108359523D01*
X60857142Y-108454761D01*
X61000000Y-108502380D01*
X61238095Y-108502380D01*
X60333333Y-107502380D02*
X59714285Y-107502380D01*
X60047619Y-107883333D01*
X59904761Y-107883333D01*
X59809523Y-107930952D01*
X59761904Y-107978571D01*
X59714285Y-108073809D01*
X59714285Y-108311904D01*
X59761904Y-108407142D01*
X59809523Y-108454761D01*
X59904761Y-108502380D01*
X60190476Y-108502380D01*
X60285714Y-108454761D01*
X60333333Y-108407142D01*
X47942857Y-119657142D02*
X47990476Y-119704761D01*
X48133333Y-119752380D01*
X48228571Y-119752380D01*
X48371428Y-119704761D01*
X48466666Y-119609523D01*
X48514285Y-119514285D01*
X48561904Y-119323809D01*
X48561904Y-119180952D01*
X48514285Y-118990476D01*
X48466666Y-118895238D01*
X48371428Y-118800000D01*
X48228571Y-118752380D01*
X48133333Y-118752380D01*
X47990476Y-118800000D01*
X47942857Y-118847619D01*
X46990476Y-119752380D02*
X47561904Y-119752380D01*
X47276190Y-119752380D02*
X47276190Y-118752380D01*
X47371428Y-118895238D01*
X47466666Y-118990476D01*
X47561904Y-119038095D01*
X46657142Y-118752380D02*
X46038095Y-118752380D01*
X46371428Y-119133333D01*
X46228571Y-119133333D01*
X46133333Y-119180952D01*
X46085714Y-119228571D01*
X46038095Y-119323809D01*
X46038095Y-119561904D01*
X46085714Y-119657142D01*
X46133333Y-119704761D01*
X46228571Y-119752380D01*
X46514285Y-119752380D01*
X46609523Y-119704761D01*
X46657142Y-119657142D01*
X61542857Y-100982142D02*
X61590476Y-101029761D01*
X61733333Y-101077380D01*
X61828571Y-101077380D01*
X61971428Y-101029761D01*
X62066666Y-100934523D01*
X62114285Y-100839285D01*
X62161904Y-100648809D01*
X62161904Y-100505952D01*
X62114285Y-100315476D01*
X62066666Y-100220238D01*
X61971428Y-100125000D01*
X61828571Y-100077380D01*
X61733333Y-100077380D01*
X61590476Y-100125000D01*
X61542857Y-100172619D01*
X60590476Y-101077380D02*
X61161904Y-101077380D01*
X60876190Y-101077380D02*
X60876190Y-100077380D01*
X60971428Y-100220238D01*
X61066666Y-100315476D01*
X61161904Y-100363095D01*
X60209523Y-100172619D02*
X60161904Y-100125000D01*
X60066666Y-100077380D01*
X59828571Y-100077380D01*
X59733333Y-100125000D01*
X59685714Y-100172619D01*
X59638095Y-100267857D01*
X59638095Y-100363095D01*
X59685714Y-100505952D01*
X60257142Y-101077380D01*
X59638095Y-101077380D01*
X52592857Y-108132142D02*
X52640476Y-108179761D01*
X52783333Y-108227380D01*
X52878571Y-108227380D01*
X53021428Y-108179761D01*
X53116666Y-108084523D01*
X53164285Y-107989285D01*
X53211904Y-107798809D01*
X53211904Y-107655952D01*
X53164285Y-107465476D01*
X53116666Y-107370238D01*
X53021428Y-107275000D01*
X52878571Y-107227380D01*
X52783333Y-107227380D01*
X52640476Y-107275000D01*
X52592857Y-107322619D01*
X51640476Y-108227380D02*
X52211904Y-108227380D01*
X51926190Y-108227380D02*
X51926190Y-107227380D01*
X52021428Y-107370238D01*
X52116666Y-107465476D01*
X52211904Y-107513095D01*
X50688095Y-108227380D02*
X51259523Y-108227380D01*
X50973809Y-108227380D02*
X50973809Y-107227380D01*
X51069047Y-107370238D01*
X51164285Y-107465476D01*
X51259523Y-107513095D01*
X47842857Y-106657142D02*
X47890476Y-106704761D01*
X48033333Y-106752380D01*
X48128571Y-106752380D01*
X48271428Y-106704761D01*
X48366666Y-106609523D01*
X48414285Y-106514285D01*
X48461904Y-106323809D01*
X48461904Y-106180952D01*
X48414285Y-105990476D01*
X48366666Y-105895238D01*
X48271428Y-105800000D01*
X48128571Y-105752380D01*
X48033333Y-105752380D01*
X47890476Y-105800000D01*
X47842857Y-105847619D01*
X46890476Y-106752380D02*
X47461904Y-106752380D01*
X47176190Y-106752380D02*
X47176190Y-105752380D01*
X47271428Y-105895238D01*
X47366666Y-105990476D01*
X47461904Y-106038095D01*
X46271428Y-105752380D02*
X46176190Y-105752380D01*
X46080952Y-105800000D01*
X46033333Y-105847619D01*
X45985714Y-105942857D01*
X45938095Y-106133333D01*
X45938095Y-106371428D01*
X45985714Y-106561904D01*
X46033333Y-106657142D01*
X46080952Y-106704761D01*
X46176190Y-106752380D01*
X46271428Y-106752380D01*
X46366666Y-106704761D01*
X46414285Y-106657142D01*
X46461904Y-106561904D01*
X46509523Y-106371428D01*
X46509523Y-106133333D01*
X46461904Y-105942857D01*
X46414285Y-105847619D01*
X46366666Y-105800000D01*
X46271428Y-105752380D01*
X46966666Y-103957142D02*
X47014285Y-104004761D01*
X47157142Y-104052380D01*
X47252380Y-104052380D01*
X47395238Y-104004761D01*
X47490476Y-103909523D01*
X47538095Y-103814285D01*
X47585714Y-103623809D01*
X47585714Y-103480952D01*
X47538095Y-103290476D01*
X47490476Y-103195238D01*
X47395238Y-103100000D01*
X47252380Y-103052380D01*
X47157142Y-103052380D01*
X47014285Y-103100000D01*
X46966666Y-103147619D01*
X46490476Y-104052380D02*
X46300000Y-104052380D01*
X46204761Y-104004761D01*
X46157142Y-103957142D01*
X46061904Y-103814285D01*
X46014285Y-103623809D01*
X46014285Y-103242857D01*
X46061904Y-103147619D01*
X46109523Y-103100000D01*
X46204761Y-103052380D01*
X46395238Y-103052380D01*
X46490476Y-103100000D01*
X46538095Y-103147619D01*
X46585714Y-103242857D01*
X46585714Y-103480952D01*
X46538095Y-103576190D01*
X46490476Y-103623809D01*
X46395238Y-103671428D01*
X46204761Y-103671428D01*
X46109523Y-103623809D01*
X46061904Y-103576190D01*
X46014285Y-103480952D01*
X46966666Y-121957142D02*
X47014285Y-122004761D01*
X47157142Y-122052380D01*
X47252380Y-122052380D01*
X47395238Y-122004761D01*
X47490476Y-121909523D01*
X47538095Y-121814285D01*
X47585714Y-121623809D01*
X47585714Y-121480952D01*
X47538095Y-121290476D01*
X47490476Y-121195238D01*
X47395238Y-121100000D01*
X47252380Y-121052380D01*
X47157142Y-121052380D01*
X47014285Y-121100000D01*
X46966666Y-121147619D01*
X46395238Y-121480952D02*
X46490476Y-121433333D01*
X46538095Y-121385714D01*
X46585714Y-121290476D01*
X46585714Y-121242857D01*
X46538095Y-121147619D01*
X46490476Y-121100000D01*
X46395238Y-121052380D01*
X46204761Y-121052380D01*
X46109523Y-121100000D01*
X46061904Y-121147619D01*
X46014285Y-121242857D01*
X46014285Y-121290476D01*
X46061904Y-121385714D01*
X46109523Y-121433333D01*
X46204761Y-121480952D01*
X46395238Y-121480952D01*
X46490476Y-121528571D01*
X46538095Y-121576190D01*
X46585714Y-121671428D01*
X46585714Y-121861904D01*
X46538095Y-121957142D01*
X46490476Y-122004761D01*
X46395238Y-122052380D01*
X46204761Y-122052380D01*
X46109523Y-122004761D01*
X46061904Y-121957142D01*
X46014285Y-121861904D01*
X46014285Y-121671428D01*
X46061904Y-121576190D01*
X46109523Y-121528571D01*
X46204761Y-121480952D01*
X46966666Y-116657142D02*
X47014285Y-116704761D01*
X47157142Y-116752380D01*
X47252380Y-116752380D01*
X47395238Y-116704761D01*
X47490476Y-116609523D01*
X47538095Y-116514285D01*
X47585714Y-116323809D01*
X47585714Y-116180952D01*
X47538095Y-115990476D01*
X47490476Y-115895238D01*
X47395238Y-115800000D01*
X47252380Y-115752380D01*
X47157142Y-115752380D01*
X47014285Y-115800000D01*
X46966666Y-115847619D01*
X46633333Y-115752380D02*
X45966666Y-115752380D01*
X46395238Y-116752380D01*
X46966666Y-113757142D02*
X47014285Y-113804761D01*
X47157142Y-113852380D01*
X47252380Y-113852380D01*
X47395238Y-113804761D01*
X47490476Y-113709523D01*
X47538095Y-113614285D01*
X47585714Y-113423809D01*
X47585714Y-113280952D01*
X47538095Y-113090476D01*
X47490476Y-112995238D01*
X47395238Y-112900000D01*
X47252380Y-112852380D01*
X47157142Y-112852380D01*
X47014285Y-112900000D01*
X46966666Y-112947619D01*
X46109523Y-112852380D02*
X46300000Y-112852380D01*
X46395238Y-112900000D01*
X46442857Y-112947619D01*
X46538095Y-113090476D01*
X46585714Y-113280952D01*
X46585714Y-113661904D01*
X46538095Y-113757142D01*
X46490476Y-113804761D01*
X46395238Y-113852380D01*
X46204761Y-113852380D01*
X46109523Y-113804761D01*
X46061904Y-113757142D01*
X46014285Y-113661904D01*
X46014285Y-113423809D01*
X46061904Y-113328571D01*
X46109523Y-113280952D01*
X46204761Y-113233333D01*
X46395238Y-113233333D01*
X46490476Y-113280952D01*
X46538095Y-113328571D01*
X46585714Y-113423809D01*
X46966666Y-109057142D02*
X47014285Y-109104761D01*
X47157142Y-109152380D01*
X47252380Y-109152380D01*
X47395238Y-109104761D01*
X47490476Y-109009523D01*
X47538095Y-108914285D01*
X47585714Y-108723809D01*
X47585714Y-108580952D01*
X47538095Y-108390476D01*
X47490476Y-108295238D01*
X47395238Y-108200000D01*
X47252380Y-108152380D01*
X47157142Y-108152380D01*
X47014285Y-108200000D01*
X46966666Y-108247619D01*
X46061904Y-108152380D02*
X46538095Y-108152380D01*
X46585714Y-108628571D01*
X46538095Y-108580952D01*
X46442857Y-108533333D01*
X46204761Y-108533333D01*
X46109523Y-108580952D01*
X46061904Y-108628571D01*
X46014285Y-108723809D01*
X46014285Y-108961904D01*
X46061904Y-109057142D01*
X46109523Y-109104761D01*
X46204761Y-109152380D01*
X46442857Y-109152380D01*
X46538095Y-109104761D01*
X46585714Y-109057142D01*
X46966666Y-111557142D02*
X47014285Y-111604761D01*
X47157142Y-111652380D01*
X47252380Y-111652380D01*
X47395238Y-111604761D01*
X47490476Y-111509523D01*
X47538095Y-111414285D01*
X47585714Y-111223809D01*
X47585714Y-111080952D01*
X47538095Y-110890476D01*
X47490476Y-110795238D01*
X47395238Y-110700000D01*
X47252380Y-110652380D01*
X47157142Y-110652380D01*
X47014285Y-110700000D01*
X46966666Y-110747619D01*
X46109523Y-110985714D02*
X46109523Y-111652380D01*
X46347619Y-110604761D02*
X46585714Y-111319047D01*
X45966666Y-111319047D01*
X52166666Y-115382142D02*
X52214285Y-115429761D01*
X52357142Y-115477380D01*
X52452380Y-115477380D01*
X52595238Y-115429761D01*
X52690476Y-115334523D01*
X52738095Y-115239285D01*
X52785714Y-115048809D01*
X52785714Y-114905952D01*
X52738095Y-114715476D01*
X52690476Y-114620238D01*
X52595238Y-114525000D01*
X52452380Y-114477380D01*
X52357142Y-114477380D01*
X52214285Y-114525000D01*
X52166666Y-114572619D01*
X51833333Y-114477380D02*
X51214285Y-114477380D01*
X51547619Y-114858333D01*
X51404761Y-114858333D01*
X51309523Y-114905952D01*
X51261904Y-114953571D01*
X51214285Y-115048809D01*
X51214285Y-115286904D01*
X51261904Y-115382142D01*
X51309523Y-115429761D01*
X51404761Y-115477380D01*
X51690476Y-115477380D01*
X51785714Y-115429761D01*
X51833333Y-115382142D01*
X45561904Y-84552380D02*
X45561904Y-85361904D01*
X45514285Y-85457142D01*
X45466666Y-85504761D01*
X45371428Y-85552380D01*
X45180952Y-85552380D01*
X45085714Y-85504761D01*
X45038095Y-85457142D01*
X44990476Y-85361904D01*
X44990476Y-84552380D01*
X43990476Y-85552380D02*
X44561904Y-85552380D01*
X44276190Y-85552380D02*
X44276190Y-84552380D01*
X44371428Y-84695238D01*
X44466666Y-84790476D01*
X44561904Y-84838095D01*
X38216666Y-90802380D02*
X38550000Y-90326190D01*
X38788095Y-90802380D02*
X38788095Y-89802380D01*
X38407142Y-89802380D01*
X38311904Y-89850000D01*
X38264285Y-89897619D01*
X38216666Y-89992857D01*
X38216666Y-90135714D01*
X38264285Y-90230952D01*
X38311904Y-90278571D01*
X38407142Y-90326190D01*
X38788095Y-90326190D01*
X37311904Y-89802380D02*
X37788095Y-89802380D01*
X37835714Y-90278571D01*
X37788095Y-90230952D01*
X37692857Y-90183333D01*
X37454761Y-90183333D01*
X37359523Y-90230952D01*
X37311904Y-90278571D01*
X37264285Y-90373809D01*
X37264285Y-90611904D01*
X37311904Y-90707142D01*
X37359523Y-90754761D01*
X37454761Y-90802380D01*
X37692857Y-90802380D01*
X37788095Y-90754761D01*
X37835714Y-90707142D01*
X38166666Y-85302380D02*
X38500000Y-84826190D01*
X38738095Y-85302380D02*
X38738095Y-84302380D01*
X38357142Y-84302380D01*
X38261904Y-84350000D01*
X38214285Y-84397619D01*
X38166666Y-84492857D01*
X38166666Y-84635714D01*
X38214285Y-84730952D01*
X38261904Y-84778571D01*
X38357142Y-84826190D01*
X38738095Y-84826190D01*
X37309523Y-84635714D02*
X37309523Y-85302380D01*
X37547619Y-84254761D02*
X37785714Y-84969047D01*
X37166666Y-84969047D01*
X45916666Y-81752380D02*
X46250000Y-81276190D01*
X46488095Y-81752380D02*
X46488095Y-80752380D01*
X46107142Y-80752380D01*
X46011904Y-80800000D01*
X45964285Y-80847619D01*
X45916666Y-80942857D01*
X45916666Y-81085714D01*
X45964285Y-81180952D01*
X46011904Y-81228571D01*
X46107142Y-81276190D01*
X46488095Y-81276190D01*
X45583333Y-80752380D02*
X44964285Y-80752380D01*
X45297619Y-81133333D01*
X45154761Y-81133333D01*
X45059523Y-81180952D01*
X45011904Y-81228571D01*
X44964285Y-81323809D01*
X44964285Y-81561904D01*
X45011904Y-81657142D01*
X45059523Y-81704761D01*
X45154761Y-81752380D01*
X45440476Y-81752380D01*
X45535714Y-81704761D01*
X45583333Y-81657142D01*
X55116666Y-130902380D02*
X55450000Y-130426190D01*
X55688095Y-130902380D02*
X55688095Y-129902380D01*
X55307142Y-129902380D01*
X55211904Y-129950000D01*
X55164285Y-129997619D01*
X55116666Y-130092857D01*
X55116666Y-130235714D01*
X55164285Y-130330952D01*
X55211904Y-130378571D01*
X55307142Y-130426190D01*
X55688095Y-130426190D01*
X54735714Y-129997619D02*
X54688095Y-129950000D01*
X54592857Y-129902380D01*
X54354761Y-129902380D01*
X54259523Y-129950000D01*
X54211904Y-129997619D01*
X54164285Y-130092857D01*
X54164285Y-130188095D01*
X54211904Y-130330952D01*
X54783333Y-130902380D01*
X54164285Y-130902380D01*
X38116666Y-130752380D02*
X38450000Y-130276190D01*
X38688095Y-130752380D02*
X38688095Y-129752380D01*
X38307142Y-129752380D01*
X38211904Y-129800000D01*
X38164285Y-129847619D01*
X38116666Y-129942857D01*
X38116666Y-130085714D01*
X38164285Y-130180952D01*
X38211904Y-130228571D01*
X38307142Y-130276190D01*
X38688095Y-130276190D01*
X37164285Y-130752380D02*
X37735714Y-130752380D01*
X37450000Y-130752380D02*
X37450000Y-129752380D01*
X37545238Y-129895238D01*
X37640476Y-129990476D01*
X37735714Y-130038095D01*
X50336666Y-104037142D02*
X50384285Y-104084761D01*
X50527142Y-104132380D01*
X50622380Y-104132380D01*
X50765238Y-104084761D01*
X50860476Y-103989523D01*
X50908095Y-103894285D01*
X50955714Y-103703809D01*
X50955714Y-103560952D01*
X50908095Y-103370476D01*
X50860476Y-103275238D01*
X50765238Y-103180000D01*
X50622380Y-103132380D01*
X50527142Y-103132380D01*
X50384285Y-103180000D01*
X50336666Y-103227619D01*
X49955714Y-103227619D02*
X49908095Y-103180000D01*
X49812857Y-103132380D01*
X49574761Y-103132380D01*
X49479523Y-103180000D01*
X49431904Y-103227619D01*
X49384285Y-103322857D01*
X49384285Y-103418095D01*
X49431904Y-103560952D01*
X50003333Y-104132380D01*
X49384285Y-104132380D01*
X23016666Y-113157142D02*
X23064285Y-113204761D01*
X23207142Y-113252380D01*
X23302380Y-113252380D01*
X23445238Y-113204761D01*
X23540476Y-113109523D01*
X23588095Y-113014285D01*
X23635714Y-112823809D01*
X23635714Y-112680952D01*
X23588095Y-112490476D01*
X23540476Y-112395238D01*
X23445238Y-112300000D01*
X23302380Y-112252380D01*
X23207142Y-112252380D01*
X23064285Y-112300000D01*
X23016666Y-112347619D01*
X22064285Y-113252380D02*
X22635714Y-113252380D01*
X22350000Y-113252380D02*
X22350000Y-112252380D01*
X22445238Y-112395238D01*
X22540476Y-112490476D01*
X22635714Y-112538095D01*
M02*
