G04 #@! TF.GenerationSoftware,KiCad,Pcbnew,(5.1.5-0-10_14)*
G04 #@! TF.CreationDate,2020-10-05T09:51:41+02:00*
G04 #@! TF.ProjectId,HB-RC-4-Dis-TH,48422d52-432d-4342-9d44-69732d54482e,rev?*
G04 #@! TF.SameCoordinates,Original*
G04 #@! TF.FileFunction,Copper,L1,Top*
G04 #@! TF.FilePolarity,Positive*
%FSLAX46Y46*%
G04 Gerber Fmt 4.6, Leading zero omitted, Abs format (unit mm)*
G04 Created by KiCad (PCBNEW (5.1.5-0-10_14)) date 2020-10-05 09:51:41*
%MOMM*%
%LPD*%
G04 APERTURE LIST*
%ADD10R,2.000000X0.640000*%
%ADD11O,1.700000X1.700000*%
%ADD12R,1.700000X1.700000*%
%ADD13C,0.100000*%
%ADD14R,1.300000X0.300000*%
%ADD15R,4.000000X1.800000*%
%ADD16C,2.000000*%
%ADD17C,1.350000*%
%ADD18R,1.800000X1.350000*%
%ADD19C,0.800000*%
%ADD20C,0.250000*%
%ADD21C,0.254000*%
G04 APERTURE END LIST*
D10*
X45610000Y-20350000D03*
X45610000Y-17810000D03*
X51910000Y-17810000D03*
X51910000Y-20350000D03*
D11*
X26300000Y-62130000D03*
D12*
X26300000Y-59590000D03*
G04 #@! TA.AperFunction,SMDPad,CuDef*
D13*
G36*
X47574505Y-14671204D02*
G01*
X47598773Y-14674804D01*
X47622572Y-14680765D01*
X47645671Y-14689030D01*
X47667850Y-14699520D01*
X47688893Y-14712132D01*
X47708599Y-14726747D01*
X47726777Y-14743223D01*
X47743253Y-14761401D01*
X47757868Y-14781107D01*
X47770480Y-14802150D01*
X47780970Y-14824329D01*
X47789235Y-14847428D01*
X47795196Y-14871227D01*
X47798796Y-14895495D01*
X47800000Y-14919999D01*
X47800000Y-15820001D01*
X47798796Y-15844505D01*
X47795196Y-15868773D01*
X47789235Y-15892572D01*
X47780970Y-15915671D01*
X47770480Y-15937850D01*
X47757868Y-15958893D01*
X47743253Y-15978599D01*
X47726777Y-15996777D01*
X47708599Y-16013253D01*
X47688893Y-16027868D01*
X47667850Y-16040480D01*
X47645671Y-16050970D01*
X47622572Y-16059235D01*
X47598773Y-16065196D01*
X47574505Y-16068796D01*
X47550001Y-16070000D01*
X46899999Y-16070000D01*
X46875495Y-16068796D01*
X46851227Y-16065196D01*
X46827428Y-16059235D01*
X46804329Y-16050970D01*
X46782150Y-16040480D01*
X46761107Y-16027868D01*
X46741401Y-16013253D01*
X46723223Y-15996777D01*
X46706747Y-15978599D01*
X46692132Y-15958893D01*
X46679520Y-15937850D01*
X46669030Y-15915671D01*
X46660765Y-15892572D01*
X46654804Y-15868773D01*
X46651204Y-15844505D01*
X46650000Y-15820001D01*
X46650000Y-14919999D01*
X46651204Y-14895495D01*
X46654804Y-14871227D01*
X46660765Y-14847428D01*
X46669030Y-14824329D01*
X46679520Y-14802150D01*
X46692132Y-14781107D01*
X46706747Y-14761401D01*
X46723223Y-14743223D01*
X46741401Y-14726747D01*
X46761107Y-14712132D01*
X46782150Y-14699520D01*
X46804329Y-14689030D01*
X46827428Y-14680765D01*
X46851227Y-14674804D01*
X46875495Y-14671204D01*
X46899999Y-14670000D01*
X47550001Y-14670000D01*
X47574505Y-14671204D01*
G37*
G04 #@! TD.AperFunction*
G04 #@! TA.AperFunction,SMDPad,CuDef*
G36*
X45524505Y-14671204D02*
G01*
X45548773Y-14674804D01*
X45572572Y-14680765D01*
X45595671Y-14689030D01*
X45617850Y-14699520D01*
X45638893Y-14712132D01*
X45658599Y-14726747D01*
X45676777Y-14743223D01*
X45693253Y-14761401D01*
X45707868Y-14781107D01*
X45720480Y-14802150D01*
X45730970Y-14824329D01*
X45739235Y-14847428D01*
X45745196Y-14871227D01*
X45748796Y-14895495D01*
X45750000Y-14919999D01*
X45750000Y-15820001D01*
X45748796Y-15844505D01*
X45745196Y-15868773D01*
X45739235Y-15892572D01*
X45730970Y-15915671D01*
X45720480Y-15937850D01*
X45707868Y-15958893D01*
X45693253Y-15978599D01*
X45676777Y-15996777D01*
X45658599Y-16013253D01*
X45638893Y-16027868D01*
X45617850Y-16040480D01*
X45595671Y-16050970D01*
X45572572Y-16059235D01*
X45548773Y-16065196D01*
X45524505Y-16068796D01*
X45500001Y-16070000D01*
X44849999Y-16070000D01*
X44825495Y-16068796D01*
X44801227Y-16065196D01*
X44777428Y-16059235D01*
X44754329Y-16050970D01*
X44732150Y-16040480D01*
X44711107Y-16027868D01*
X44691401Y-16013253D01*
X44673223Y-15996777D01*
X44656747Y-15978599D01*
X44642132Y-15958893D01*
X44629520Y-15937850D01*
X44619030Y-15915671D01*
X44610765Y-15892572D01*
X44604804Y-15868773D01*
X44601204Y-15844505D01*
X44600000Y-15820001D01*
X44600000Y-14919999D01*
X44601204Y-14895495D01*
X44604804Y-14871227D01*
X44610765Y-14847428D01*
X44619030Y-14824329D01*
X44629520Y-14802150D01*
X44642132Y-14781107D01*
X44656747Y-14761401D01*
X44673223Y-14743223D01*
X44691401Y-14726747D01*
X44711107Y-14712132D01*
X44732150Y-14699520D01*
X44754329Y-14689030D01*
X44777428Y-14680765D01*
X44801227Y-14674804D01*
X44825495Y-14671204D01*
X44849999Y-14670000D01*
X45500001Y-14670000D01*
X45524505Y-14671204D01*
G37*
G04 #@! TD.AperFunction*
D14*
X51390000Y-33180000D03*
X51390000Y-33680000D03*
X51390000Y-34180000D03*
X51390000Y-34680000D03*
X51390000Y-35180000D03*
X51390000Y-35680000D03*
X51390000Y-36180000D03*
X51390000Y-36680000D03*
X51390000Y-37180000D03*
X51390000Y-37680000D03*
X51390000Y-38180000D03*
X51390000Y-38680000D03*
X51390000Y-39180000D03*
X51390000Y-39680000D03*
X51390000Y-40180000D03*
X51390000Y-40680000D03*
X51390000Y-41180000D03*
X51390000Y-41680000D03*
X51390000Y-42180000D03*
X51390000Y-42680000D03*
X51390000Y-43180000D03*
X51390000Y-43680000D03*
X51390000Y-44180000D03*
X51390000Y-44680000D03*
D15*
X54640000Y-31280000D03*
X54640000Y-46580000D03*
D11*
X25640000Y-14780000D03*
X25640000Y-17320000D03*
X25640000Y-19860000D03*
X25640000Y-22400000D03*
D16*
X37040000Y-56430000D03*
X41540000Y-56430000D03*
X37040000Y-62930000D03*
X41540000Y-62930000D03*
X63340000Y-58430000D03*
X63340000Y-62930000D03*
X56840000Y-58430000D03*
X56840000Y-62930000D03*
X21840000Y-58430000D03*
X21840000Y-62930000D03*
X15340000Y-58430000D03*
X15340000Y-62930000D03*
X56840000Y-19430000D03*
X56840000Y-14930000D03*
X63340000Y-19430000D03*
X63340000Y-14930000D03*
X15440000Y-19530000D03*
X15440000Y-15030000D03*
X21940000Y-19530000D03*
X21940000Y-15030000D03*
D11*
X47440000Y-62170000D03*
D12*
X47440000Y-59630000D03*
D11*
X16040000Y-51230000D03*
X18580000Y-51230000D03*
X21120000Y-51230000D03*
X23660000Y-51230000D03*
X26200000Y-51230000D03*
D12*
X28740000Y-51230000D03*
D17*
X36840000Y-31930000D03*
D18*
X37840000Y-31930000D03*
D17*
X36840000Y-45930000D03*
X36840000Y-43930000D03*
X36840000Y-41930000D03*
X36840000Y-39930000D03*
X36840000Y-37930000D03*
X36840000Y-35930000D03*
X36840000Y-33930000D03*
D18*
X37840000Y-45930000D03*
X37840000Y-43930000D03*
X37840000Y-41930000D03*
X37840000Y-39930000D03*
X37840000Y-37930000D03*
X37840000Y-35930000D03*
X37840000Y-33930000D03*
G04 #@! TA.AperFunction,SMDPad,CuDef*
D13*
G36*
X44594505Y-57931204D02*
G01*
X44618773Y-57934804D01*
X44642572Y-57940765D01*
X44665671Y-57949030D01*
X44687850Y-57959520D01*
X44708893Y-57972132D01*
X44728599Y-57986747D01*
X44746777Y-58003223D01*
X44763253Y-58021401D01*
X44777868Y-58041107D01*
X44790480Y-58062150D01*
X44800970Y-58084329D01*
X44809235Y-58107428D01*
X44815196Y-58131227D01*
X44818796Y-58155495D01*
X44820000Y-58179999D01*
X44820000Y-58830001D01*
X44818796Y-58854505D01*
X44815196Y-58878773D01*
X44809235Y-58902572D01*
X44800970Y-58925671D01*
X44790480Y-58947850D01*
X44777868Y-58968893D01*
X44763253Y-58988599D01*
X44746777Y-59006777D01*
X44728599Y-59023253D01*
X44708893Y-59037868D01*
X44687850Y-59050480D01*
X44665671Y-59060970D01*
X44642572Y-59069235D01*
X44618773Y-59075196D01*
X44594505Y-59078796D01*
X44570001Y-59080000D01*
X43669999Y-59080000D01*
X43645495Y-59078796D01*
X43621227Y-59075196D01*
X43597428Y-59069235D01*
X43574329Y-59060970D01*
X43552150Y-59050480D01*
X43531107Y-59037868D01*
X43511401Y-59023253D01*
X43493223Y-59006777D01*
X43476747Y-58988599D01*
X43462132Y-58968893D01*
X43449520Y-58947850D01*
X43439030Y-58925671D01*
X43430765Y-58902572D01*
X43424804Y-58878773D01*
X43421204Y-58854505D01*
X43420000Y-58830001D01*
X43420000Y-58179999D01*
X43421204Y-58155495D01*
X43424804Y-58131227D01*
X43430765Y-58107428D01*
X43439030Y-58084329D01*
X43449520Y-58062150D01*
X43462132Y-58041107D01*
X43476747Y-58021401D01*
X43493223Y-58003223D01*
X43511401Y-57986747D01*
X43531107Y-57972132D01*
X43552150Y-57959520D01*
X43574329Y-57949030D01*
X43597428Y-57940765D01*
X43621227Y-57934804D01*
X43645495Y-57931204D01*
X43669999Y-57930000D01*
X44570001Y-57930000D01*
X44594505Y-57931204D01*
G37*
G04 #@! TD.AperFunction*
G04 #@! TA.AperFunction,SMDPad,CuDef*
G36*
X44594505Y-59981204D02*
G01*
X44618773Y-59984804D01*
X44642572Y-59990765D01*
X44665671Y-59999030D01*
X44687850Y-60009520D01*
X44708893Y-60022132D01*
X44728599Y-60036747D01*
X44746777Y-60053223D01*
X44763253Y-60071401D01*
X44777868Y-60091107D01*
X44790480Y-60112150D01*
X44800970Y-60134329D01*
X44809235Y-60157428D01*
X44815196Y-60181227D01*
X44818796Y-60205495D01*
X44820000Y-60229999D01*
X44820000Y-60880001D01*
X44818796Y-60904505D01*
X44815196Y-60928773D01*
X44809235Y-60952572D01*
X44800970Y-60975671D01*
X44790480Y-60997850D01*
X44777868Y-61018893D01*
X44763253Y-61038599D01*
X44746777Y-61056777D01*
X44728599Y-61073253D01*
X44708893Y-61087868D01*
X44687850Y-61100480D01*
X44665671Y-61110970D01*
X44642572Y-61119235D01*
X44618773Y-61125196D01*
X44594505Y-61128796D01*
X44570001Y-61130000D01*
X43669999Y-61130000D01*
X43645495Y-61128796D01*
X43621227Y-61125196D01*
X43597428Y-61119235D01*
X43574329Y-61110970D01*
X43552150Y-61100480D01*
X43531107Y-61087868D01*
X43511401Y-61073253D01*
X43493223Y-61056777D01*
X43476747Y-61038599D01*
X43462132Y-61018893D01*
X43449520Y-60997850D01*
X43439030Y-60975671D01*
X43430765Y-60952572D01*
X43424804Y-60928773D01*
X43421204Y-60904505D01*
X43420000Y-60880001D01*
X43420000Y-60229999D01*
X43421204Y-60205495D01*
X43424804Y-60181227D01*
X43430765Y-60157428D01*
X43439030Y-60134329D01*
X43449520Y-60112150D01*
X43462132Y-60091107D01*
X43476747Y-60071401D01*
X43493223Y-60053223D01*
X43511401Y-60036747D01*
X43531107Y-60022132D01*
X43552150Y-60009520D01*
X43574329Y-59999030D01*
X43597428Y-59990765D01*
X43621227Y-59984804D01*
X43645495Y-59981204D01*
X43669999Y-59980000D01*
X44570001Y-59980000D01*
X44594505Y-59981204D01*
G37*
G04 #@! TD.AperFunction*
G04 #@! TA.AperFunction,SMDPad,CuDef*
G36*
X35014505Y-57931204D02*
G01*
X35038773Y-57934804D01*
X35062572Y-57940765D01*
X35085671Y-57949030D01*
X35107850Y-57959520D01*
X35128893Y-57972132D01*
X35148599Y-57986747D01*
X35166777Y-58003223D01*
X35183253Y-58021401D01*
X35197868Y-58041107D01*
X35210480Y-58062150D01*
X35220970Y-58084329D01*
X35229235Y-58107428D01*
X35235196Y-58131227D01*
X35238796Y-58155495D01*
X35240000Y-58179999D01*
X35240000Y-58830001D01*
X35238796Y-58854505D01*
X35235196Y-58878773D01*
X35229235Y-58902572D01*
X35220970Y-58925671D01*
X35210480Y-58947850D01*
X35197868Y-58968893D01*
X35183253Y-58988599D01*
X35166777Y-59006777D01*
X35148599Y-59023253D01*
X35128893Y-59037868D01*
X35107850Y-59050480D01*
X35085671Y-59060970D01*
X35062572Y-59069235D01*
X35038773Y-59075196D01*
X35014505Y-59078796D01*
X34990001Y-59080000D01*
X34089999Y-59080000D01*
X34065495Y-59078796D01*
X34041227Y-59075196D01*
X34017428Y-59069235D01*
X33994329Y-59060970D01*
X33972150Y-59050480D01*
X33951107Y-59037868D01*
X33931401Y-59023253D01*
X33913223Y-59006777D01*
X33896747Y-58988599D01*
X33882132Y-58968893D01*
X33869520Y-58947850D01*
X33859030Y-58925671D01*
X33850765Y-58902572D01*
X33844804Y-58878773D01*
X33841204Y-58854505D01*
X33840000Y-58830001D01*
X33840000Y-58179999D01*
X33841204Y-58155495D01*
X33844804Y-58131227D01*
X33850765Y-58107428D01*
X33859030Y-58084329D01*
X33869520Y-58062150D01*
X33882132Y-58041107D01*
X33896747Y-58021401D01*
X33913223Y-58003223D01*
X33931401Y-57986747D01*
X33951107Y-57972132D01*
X33972150Y-57959520D01*
X33994329Y-57949030D01*
X34017428Y-57940765D01*
X34041227Y-57934804D01*
X34065495Y-57931204D01*
X34089999Y-57930000D01*
X34990001Y-57930000D01*
X35014505Y-57931204D01*
G37*
G04 #@! TD.AperFunction*
G04 #@! TA.AperFunction,SMDPad,CuDef*
G36*
X35014505Y-59981204D02*
G01*
X35038773Y-59984804D01*
X35062572Y-59990765D01*
X35085671Y-59999030D01*
X35107850Y-60009520D01*
X35128893Y-60022132D01*
X35148599Y-60036747D01*
X35166777Y-60053223D01*
X35183253Y-60071401D01*
X35197868Y-60091107D01*
X35210480Y-60112150D01*
X35220970Y-60134329D01*
X35229235Y-60157428D01*
X35235196Y-60181227D01*
X35238796Y-60205495D01*
X35240000Y-60229999D01*
X35240000Y-60880001D01*
X35238796Y-60904505D01*
X35235196Y-60928773D01*
X35229235Y-60952572D01*
X35220970Y-60975671D01*
X35210480Y-60997850D01*
X35197868Y-61018893D01*
X35183253Y-61038599D01*
X35166777Y-61056777D01*
X35148599Y-61073253D01*
X35128893Y-61087868D01*
X35107850Y-61100480D01*
X35085671Y-61110970D01*
X35062572Y-61119235D01*
X35038773Y-61125196D01*
X35014505Y-61128796D01*
X34990001Y-61130000D01*
X34089999Y-61130000D01*
X34065495Y-61128796D01*
X34041227Y-61125196D01*
X34017428Y-61119235D01*
X33994329Y-61110970D01*
X33972150Y-61100480D01*
X33951107Y-61087868D01*
X33931401Y-61073253D01*
X33913223Y-61056777D01*
X33896747Y-61038599D01*
X33882132Y-61018893D01*
X33869520Y-60997850D01*
X33859030Y-60975671D01*
X33850765Y-60952572D01*
X33844804Y-60928773D01*
X33841204Y-60904505D01*
X33840000Y-60880001D01*
X33840000Y-60229999D01*
X33841204Y-60205495D01*
X33844804Y-60181227D01*
X33850765Y-60157428D01*
X33859030Y-60134329D01*
X33869520Y-60112150D01*
X33882132Y-60091107D01*
X33896747Y-60071401D01*
X33913223Y-60053223D01*
X33931401Y-60036747D01*
X33951107Y-60022132D01*
X33972150Y-60009520D01*
X33994329Y-59999030D01*
X34017428Y-59990765D01*
X34041227Y-59984804D01*
X34065495Y-59981204D01*
X34089999Y-59980000D01*
X34990001Y-59980000D01*
X35014505Y-59981204D01*
G37*
G04 #@! TD.AperFunction*
D19*
X42800000Y-28100000D03*
X42947300Y-48434100D03*
X36452900Y-21984600D03*
X53078500Y-37423300D03*
X54161600Y-25909100D03*
X60100000Y-16400000D03*
X40000000Y-14400000D03*
X20000000Y-32500000D03*
X22500000Y-32500000D03*
X27500000Y-32500000D03*
X25000000Y-32500000D03*
X30000000Y-32500000D03*
X32500000Y-32500000D03*
X32500000Y-35000000D03*
X30000000Y-35000000D03*
X27500000Y-35000000D03*
X25000000Y-35000000D03*
X22500000Y-35000000D03*
X22500000Y-37500000D03*
X22500000Y-40000000D03*
X25000000Y-37500000D03*
X25000000Y-40000000D03*
X27500000Y-40000000D03*
X27500000Y-37500000D03*
X30000000Y-37500000D03*
X30000000Y-40000000D03*
X32500000Y-37500000D03*
X32500000Y-40000000D03*
X32500000Y-42500000D03*
X32500000Y-45000000D03*
X30000000Y-45000000D03*
X30000000Y-42500000D03*
X27500000Y-42500000D03*
X27500000Y-45000000D03*
X25000000Y-45000000D03*
X25000000Y-42500000D03*
X22500000Y-42500000D03*
X22500000Y-45000000D03*
X20000000Y-45000000D03*
X19700000Y-55040000D03*
X50020000Y-46840000D03*
X42190000Y-31710000D03*
X63000000Y-23000000D03*
X63000000Y-25000000D03*
X63000000Y-27000000D03*
X63000000Y-29000000D03*
X63000000Y-31000000D03*
X53000000Y-15000000D03*
X59500000Y-36310000D03*
X48960000Y-49340000D03*
X41380000Y-52110000D03*
X32850000Y-18940000D03*
X41870000Y-20880000D03*
X57000000Y-54630000D03*
X34030000Y-63010000D03*
X46050000Y-45260000D03*
X49110000Y-51870000D03*
X63240000Y-45480000D03*
X61380000Y-56370000D03*
X55790000Y-49360000D03*
X63000000Y-33000000D03*
X63000000Y-35000000D03*
X63000000Y-37000000D03*
X63000000Y-39000000D03*
X63000000Y-41000000D03*
X63000000Y-43000000D03*
X17500000Y-32500000D03*
X15000000Y-32500000D03*
X15000000Y-35000000D03*
X15000000Y-37500000D03*
X15000000Y-42500000D03*
X15000000Y-40000000D03*
X15000000Y-45000000D03*
X17500000Y-45000000D03*
X17500000Y-42500000D03*
X20000000Y-42500000D03*
X31690000Y-14790000D03*
X15820000Y-23430000D03*
X21850000Y-22180000D03*
X39260000Y-53310000D03*
X43030000Y-41520000D03*
X34505000Y-57273400D03*
X44115000Y-55690000D03*
X34878600Y-29268300D03*
X37475700Y-30120400D03*
X37534900Y-27168500D03*
X44923800Y-25796300D03*
X29447700Y-25497400D03*
X29490300Y-24380600D03*
X29434800Y-26517600D03*
X48514900Y-37930000D03*
X47037700Y-39606100D03*
X44015000Y-48144000D03*
X27196000Y-25380600D03*
X46860100Y-37153400D03*
X36163600Y-26433300D03*
X43248900Y-25650200D03*
X47790000Y-17129300D03*
X48287900Y-27645500D03*
X48918100Y-25255100D03*
X57505400Y-35394500D03*
X51669400Y-23354000D03*
X56833800Y-33676300D03*
X42177200Y-23297800D03*
X54375600Y-33750000D03*
X40474800Y-23420100D03*
X49469300Y-29741800D03*
X45906300Y-27416700D03*
X49390400Y-30954000D03*
X38184300Y-49885700D03*
X50825600Y-54807600D03*
X55431900Y-39850300D03*
X54462700Y-23346200D03*
X43682200Y-37542700D03*
X42659000Y-36132700D03*
X40691400Y-36142600D03*
X41010200Y-34773800D03*
X41141600Y-33180000D03*
X43543200Y-43430000D03*
X40734800Y-43399400D03*
X55824900Y-43610200D03*
X49065300Y-45208600D03*
X52939800Y-34329700D03*
X49514900Y-34004300D03*
X41255200Y-45602300D03*
X55988600Y-41604300D03*
X58157900Y-39312200D03*
X53125500Y-43447900D03*
X58677100Y-48114800D03*
X46184200Y-53800200D03*
X48893300Y-15936400D03*
X40249900Y-27895400D03*
X51759600Y-28913300D03*
X54190100Y-27991400D03*
X36078000Y-59406300D03*
X55615200Y-18068700D03*
X53461500Y-17169300D03*
D20*
X44480000Y-14090000D02*
X47870000Y-14090000D01*
X42947300Y-48655400D02*
X42947300Y-48434100D01*
X38952700Y-43930000D02*
X39065300Y-43930000D01*
X37840000Y-43930000D02*
X38952700Y-43930000D01*
X51390000Y-41180000D02*
X53071800Y-41180000D01*
X53071800Y-41180000D02*
X58230700Y-36021100D01*
X58230700Y-36021100D02*
X58230700Y-29978200D01*
X58230700Y-29978200D02*
X54161600Y-25909100D01*
X54161600Y-24722900D02*
X54161600Y-25909100D01*
X51390000Y-41180000D02*
X42790000Y-41180000D01*
X41815300Y-41180000D02*
X39065300Y-43930000D01*
X41540000Y-62930000D02*
X39165000Y-60555000D01*
X39165000Y-60555000D02*
X34540000Y-60555000D01*
X41540000Y-62930000D02*
X42955400Y-61514600D01*
X42955400Y-61514600D02*
X44040000Y-61514600D01*
X52365300Y-36680000D02*
X52365300Y-36710100D01*
X52365300Y-36710100D02*
X53078500Y-37423300D01*
X51390000Y-36680000D02*
X52365300Y-36680000D01*
X36840000Y-43930000D02*
X37840000Y-43930000D01*
X44040000Y-61514600D02*
X45609300Y-61514600D01*
X45609300Y-61514600D02*
X46264700Y-62170000D01*
X47440000Y-62170000D02*
X46264700Y-62170000D01*
X28740000Y-51230000D02*
X26200000Y-51230000D01*
X40916300Y-46327600D02*
X39860000Y-45320000D01*
X43262900Y-46327600D02*
X40916300Y-46327600D01*
X42947300Y-48655400D02*
X43281800Y-48655400D01*
X42790000Y-41180000D02*
X41815300Y-41180000D01*
X34540000Y-58505000D02*
X34505000Y-58470000D01*
X34505000Y-58470000D02*
X34505000Y-57273400D01*
X44115000Y-55690000D02*
X44115000Y-57291300D01*
X44115000Y-57291300D02*
X44115000Y-58375000D01*
X34878600Y-29268300D02*
X34968200Y-29268300D01*
X34968200Y-29268300D02*
X36840000Y-31140100D01*
X36840000Y-31140100D02*
X36840000Y-31930000D01*
X37840000Y-31930000D02*
X36840000Y-31930000D01*
X44923800Y-25796300D02*
X43551600Y-27168500D01*
X43551600Y-27168500D02*
X37534900Y-27168500D01*
X39065300Y-33930000D02*
X39065300Y-31046000D01*
X39065300Y-31046000D02*
X38139700Y-30120400D01*
X38139700Y-30120400D02*
X37475700Y-30120400D01*
X37840000Y-33930000D02*
X39065300Y-33930000D01*
X36840000Y-33930000D02*
X37840000Y-33930000D01*
X29447700Y-25497400D02*
X32294500Y-28344200D01*
X32294500Y-28344200D02*
X35816700Y-28344200D01*
X35816700Y-28344200D02*
X36634500Y-29162000D01*
X36634500Y-29162000D02*
X37865600Y-29162000D01*
X37865600Y-29162000D02*
X39515600Y-30812000D01*
X39515600Y-30812000D02*
X39515600Y-37479700D01*
X39515600Y-37479700D02*
X39065300Y-37930000D01*
X37840000Y-37930000D02*
X39065300Y-37930000D01*
X36840000Y-37930000D02*
X37840000Y-37930000D01*
X39966000Y-38680000D02*
X39966000Y-39029300D01*
X39966000Y-39029300D02*
X39065300Y-39930000D01*
X29490300Y-24380600D02*
X33685100Y-24380600D01*
X33685100Y-24380600D02*
X35225500Y-25921000D01*
X35225500Y-25921000D02*
X35225500Y-26521900D01*
X35225500Y-26521900D02*
X37190200Y-28486600D01*
X37190200Y-28486600D02*
X37843900Y-28486600D01*
X37843900Y-28486600D02*
X39966000Y-30608700D01*
X39966000Y-30608700D02*
X39966000Y-38680000D01*
X39966000Y-38680000D02*
X51390000Y-38680000D01*
X37840000Y-39930000D02*
X39065300Y-39930000D01*
X36840000Y-39930000D02*
X37840000Y-39930000D01*
X36840000Y-41930000D02*
X35782100Y-40872100D01*
X35782100Y-40872100D02*
X35782100Y-30719100D01*
X35782100Y-30719100D02*
X35122600Y-30059600D01*
X35122600Y-30059600D02*
X32976800Y-30059600D01*
X32976800Y-30059600D02*
X29434800Y-26517600D01*
X37840000Y-41930000D02*
X36840000Y-41930000D01*
X37840000Y-41930000D02*
X39065300Y-41930000D01*
X48514900Y-37930000D02*
X48764900Y-38180000D01*
X48764900Y-38180000D02*
X51390000Y-38180000D01*
X39065300Y-41930000D02*
X41389200Y-39606100D01*
X41389200Y-39606100D02*
X47037700Y-39606100D01*
X27196000Y-25380600D02*
X32405300Y-30589900D01*
X32405300Y-30589900D02*
X34971600Y-30589900D01*
X34971600Y-30589900D02*
X35165400Y-30783700D01*
X35165400Y-30783700D02*
X35165400Y-44255400D01*
X35165400Y-44255400D02*
X36840000Y-45930000D01*
X37840000Y-46930300D02*
X42801300Y-46930300D01*
X42801300Y-46930300D02*
X44015000Y-48144000D01*
X37840000Y-45930000D02*
X37840000Y-46930300D01*
X36840000Y-45930000D02*
X37840000Y-45930000D01*
X23660000Y-51230000D02*
X24835300Y-51230000D01*
X24835300Y-51230000D02*
X24835300Y-50862700D01*
X24835300Y-50862700D02*
X27959200Y-47738800D01*
X27959200Y-47738800D02*
X35031200Y-47738800D01*
X35031200Y-47738800D02*
X36840000Y-45930000D01*
X50414700Y-37180000D02*
X46886700Y-37180000D01*
X46886700Y-37180000D02*
X46860100Y-37153400D01*
X51390000Y-37680000D02*
X50414700Y-37680000D01*
X50414700Y-37680000D02*
X50414700Y-37180000D01*
X51390000Y-37180000D02*
X50414700Y-37180000D01*
X43248900Y-25650200D02*
X36946700Y-25650200D01*
X36946700Y-25650200D02*
X36163600Y-26433300D01*
X19755300Y-51230000D02*
X19755300Y-51597300D01*
X19755300Y-51597300D02*
X20570200Y-52412200D01*
X20570200Y-52412200D02*
X29739500Y-52412200D01*
X29739500Y-52412200D02*
X29919600Y-52232100D01*
X29919600Y-52232100D02*
X29919600Y-52018500D01*
X29919600Y-52018500D02*
X32778700Y-49159400D01*
X32778700Y-49159400D02*
X42923600Y-49159400D01*
X42923600Y-49159400D02*
X43159200Y-49395000D01*
X43159200Y-49395000D02*
X45091500Y-49395000D01*
X45091500Y-49395000D02*
X46560100Y-47926400D01*
X46560100Y-47926400D02*
X57265500Y-47926400D01*
X57265500Y-47926400D02*
X58497300Y-46694600D01*
X58497300Y-46694600D02*
X59167600Y-46694600D01*
X59167600Y-46694600D02*
X60442500Y-45419700D01*
X60442500Y-45419700D02*
X60442500Y-26117600D01*
X60442500Y-26117600D02*
X56112100Y-21787200D01*
X56112100Y-21787200D02*
X52993100Y-21787200D01*
X52993100Y-21787200D02*
X52542900Y-21337000D01*
X52542900Y-21337000D02*
X50934800Y-21337000D01*
X50934800Y-21337000D02*
X47790000Y-18192200D01*
X47790000Y-18192200D02*
X47790000Y-17129300D01*
X18580000Y-51230000D02*
X19755300Y-51230000D01*
X48287900Y-27645500D02*
X48287900Y-27497700D01*
X48287900Y-27497700D02*
X45264800Y-24474600D01*
X45264800Y-24474600D02*
X39853900Y-24474600D01*
X39853900Y-24474600D02*
X38601600Y-23222300D01*
X38601600Y-23222300D02*
X30709700Y-23222300D01*
X30709700Y-23222300D02*
X29887400Y-22400000D01*
X29887400Y-22400000D02*
X26815300Y-22400000D01*
X25640000Y-22400000D02*
X26815300Y-22400000D01*
X48918100Y-25255100D02*
X46235500Y-22572500D01*
X46235500Y-22572500D02*
X36890800Y-22572500D01*
X36890800Y-22572500D02*
X36753400Y-22709900D01*
X36753400Y-22709900D02*
X30834200Y-22709900D01*
X30834200Y-22709900D02*
X27984300Y-19860000D01*
X27984300Y-19860000D02*
X26815300Y-19860000D01*
X25640000Y-19860000D02*
X26815300Y-19860000D01*
X57505400Y-35394500D02*
X57505400Y-36020100D01*
X57505400Y-36020100D02*
X52845500Y-40680000D01*
X52845500Y-40680000D02*
X51390000Y-40680000D01*
X51669400Y-23354000D02*
X51669400Y-24447200D01*
X51669400Y-24447200D02*
X54470100Y-27247900D01*
X54470100Y-27247900D02*
X54690100Y-27247900D01*
X54690100Y-27247900D02*
X57564900Y-30122700D01*
X57564900Y-30122700D02*
X57564900Y-34058800D01*
X57564900Y-34058800D02*
X55029000Y-36594700D01*
X55029000Y-36594700D02*
X55029000Y-37846800D01*
X55029000Y-37846800D02*
X52695800Y-40180000D01*
X52695800Y-40180000D02*
X51390000Y-40180000D01*
X51390000Y-39680000D02*
X52558800Y-39680000D01*
X52558800Y-39680000D02*
X54578700Y-37660100D01*
X54578700Y-37660100D02*
X54578700Y-35931400D01*
X54578700Y-35931400D02*
X56833800Y-33676300D01*
X52365300Y-39180000D02*
X54128400Y-37416900D01*
X54128400Y-37416900D02*
X54128400Y-35231000D01*
X54128400Y-35231000D02*
X56965400Y-32394000D01*
X56965400Y-32394000D02*
X56965400Y-30160100D01*
X56965400Y-30160100D02*
X56753300Y-29948000D01*
X56753300Y-29948000D02*
X55093200Y-29948000D01*
X55093200Y-29948000D02*
X51125800Y-25980600D01*
X51125800Y-25980600D02*
X48102000Y-25980600D01*
X48102000Y-25980600D02*
X45419200Y-23297800D01*
X45419200Y-23297800D02*
X42177200Y-23297800D01*
X51390000Y-39180000D02*
X52365300Y-39180000D01*
X54375600Y-33750000D02*
X53733500Y-33750000D01*
X53733500Y-33750000D02*
X52309000Y-32325500D01*
X52309000Y-32325500D02*
X52309000Y-29923900D01*
X52309000Y-29923900D02*
X52504000Y-29728900D01*
X52504000Y-29728900D02*
X52504000Y-28563500D01*
X52504000Y-28563500D02*
X50857900Y-26917400D01*
X50857900Y-26917400D02*
X48344500Y-26917400D01*
X48344500Y-26917400D02*
X45451400Y-24024300D01*
X45451400Y-24024300D02*
X41079000Y-24024300D01*
X41079000Y-24024300D02*
X40474800Y-23420100D01*
X49469300Y-29741800D02*
X49349100Y-29741800D01*
X49349100Y-29741800D02*
X45649100Y-26041800D01*
X45649100Y-26041800D02*
X45649100Y-25495800D01*
X45649100Y-25495800D02*
X45078200Y-24924900D01*
X45078200Y-24924900D02*
X39210200Y-24924900D01*
X39210200Y-24924900D02*
X37957900Y-23672600D01*
X37957900Y-23672600D02*
X29922200Y-23672600D01*
X29922200Y-23672600D02*
X29844500Y-23594900D01*
X29844500Y-23594900D02*
X25114900Y-23594900D01*
X25114900Y-23594900D02*
X21940000Y-20420000D01*
X21940000Y-20420000D02*
X21940000Y-19530000D01*
X21940000Y-19530000D02*
X15440000Y-19530000D01*
X45906300Y-27416700D02*
X49390400Y-30900800D01*
X49390400Y-30900800D02*
X49390400Y-30954000D01*
X63340000Y-19430000D02*
X56840000Y-19430000D01*
X38184300Y-49885700D02*
X34747000Y-53323000D01*
X34747000Y-53323000D02*
X26947000Y-53323000D01*
X26947000Y-53323000D02*
X21840000Y-58430000D01*
X15340000Y-58430000D02*
X21840000Y-58430000D01*
X56840000Y-58430000D02*
X63340000Y-58430000D01*
X55431900Y-39850300D02*
X58681000Y-36601200D01*
X58681000Y-36601200D02*
X58681000Y-29574400D01*
X58681000Y-29574400D02*
X54887000Y-25780400D01*
X54887000Y-25780400D02*
X54887000Y-23770500D01*
X54887000Y-23770500D02*
X54462700Y-23346200D01*
X50825600Y-54807600D02*
X38662400Y-54807600D01*
X38662400Y-54807600D02*
X37040000Y-56430000D01*
X51390000Y-36180000D02*
X45044900Y-36180000D01*
X45044900Y-36180000D02*
X43682200Y-37542700D01*
X51390000Y-35680000D02*
X43111700Y-35680000D01*
X43111700Y-35680000D02*
X42659000Y-36132700D01*
X40691400Y-36142600D02*
X41654000Y-35180000D01*
X41654000Y-35180000D02*
X51390000Y-35180000D01*
X50414700Y-34180000D02*
X49865000Y-34729700D01*
X49865000Y-34729700D02*
X41054300Y-34729700D01*
X41054300Y-34729700D02*
X41010200Y-34773800D01*
X51390000Y-34180000D02*
X50414700Y-34180000D01*
X50414700Y-33180000D02*
X41141600Y-33180000D01*
X51390000Y-33180000D02*
X50414700Y-33180000D01*
X51390000Y-43180000D02*
X43793200Y-43180000D01*
X43793200Y-43180000D02*
X43543200Y-43430000D01*
X51390000Y-42680000D02*
X41454200Y-42680000D01*
X41454200Y-42680000D02*
X40734800Y-43399400D01*
X55824900Y-43610200D02*
X54226500Y-45208600D01*
X54226500Y-45208600D02*
X49065300Y-45208600D01*
X52365300Y-34680000D02*
X52589500Y-34680000D01*
X52589500Y-34680000D02*
X52939800Y-34329700D01*
X51390000Y-34680000D02*
X52365300Y-34680000D01*
X50414700Y-33680000D02*
X49839200Y-33680000D01*
X49839200Y-33680000D02*
X49514900Y-34004300D01*
X51390000Y-33680000D02*
X50414700Y-33680000D01*
X51390000Y-44180000D02*
X42677500Y-44180000D01*
X42677500Y-44180000D02*
X41255200Y-45602300D01*
X51765100Y-44180000D02*
X51390000Y-44180000D01*
X52365300Y-44180000D02*
X53419200Y-44180000D01*
X53419200Y-44180000D02*
X55988600Y-41610600D01*
X55988600Y-41610600D02*
X55988600Y-41604300D01*
X51765100Y-44180000D02*
X52365300Y-44180000D01*
X58157900Y-39312200D02*
X57254900Y-39312200D01*
X57254900Y-39312200D02*
X53125500Y-43441600D01*
X53125500Y-43441600D02*
X53125500Y-43447900D01*
X51390000Y-43680000D02*
X52893400Y-43680000D01*
X52893400Y-43680000D02*
X53125500Y-43447900D01*
X37840000Y-35930000D02*
X36840000Y-35930000D01*
X26300000Y-59590000D02*
X27475300Y-59590000D01*
X27475300Y-59590000D02*
X32281200Y-54784100D01*
X32281200Y-54784100D02*
X35433400Y-54784100D01*
X35433400Y-54784100D02*
X39269300Y-50948200D01*
X39269300Y-50948200D02*
X50034600Y-50948200D01*
X50034600Y-50948200D02*
X52364200Y-48618600D01*
X52364200Y-48618600D02*
X58173300Y-48618600D01*
X58173300Y-48618600D02*
X58677100Y-48114800D01*
X53235300Y-20350000D02*
X54222200Y-21336900D01*
X54222200Y-21336900D02*
X56358100Y-21336900D01*
X56358100Y-21336900D02*
X60919100Y-25897900D01*
X60919100Y-25897900D02*
X60919100Y-46898600D01*
X60919100Y-46898600D02*
X58721900Y-49095800D01*
X58721900Y-49095800D02*
X57132800Y-49095800D01*
X57132800Y-49095800D02*
X52428400Y-53800200D01*
X52428400Y-53800200D02*
X46184200Y-53800200D01*
X51910000Y-20350000D02*
X50584700Y-20350000D01*
X50584700Y-16597800D02*
X50584700Y-20350000D01*
X51910000Y-20350000D02*
X53235300Y-20350000D01*
X49198299Y-15211399D02*
X50584700Y-16597800D01*
X47958601Y-15211399D02*
X49198299Y-15211399D01*
X47800000Y-15370000D02*
X47958601Y-15211399D01*
X47225000Y-15370000D02*
X47800000Y-15370000D01*
X48493301Y-16336399D02*
X48893300Y-15936400D01*
X48434690Y-16395010D02*
X48493301Y-16336399D01*
X45175000Y-16070000D02*
X45500010Y-16395010D01*
X45500010Y-16395010D02*
X48434690Y-16395010D01*
X45175000Y-15370000D02*
X45175000Y-16070000D01*
X51759600Y-28913300D02*
X51759500Y-28913300D01*
X51759500Y-28913300D02*
X51759500Y-29659100D01*
X51759500Y-29659100D02*
X49729100Y-31689500D01*
X49729100Y-31689500D02*
X44044000Y-31689500D01*
X44044000Y-31689500D02*
X40249900Y-27895400D01*
X54190100Y-27991400D02*
X46935300Y-20736600D01*
X46935300Y-20736600D02*
X46935300Y-20350000D01*
X45610000Y-20350000D02*
X46935300Y-20350000D01*
X36078000Y-59406300D02*
X45476000Y-59406300D01*
X45476000Y-59406300D02*
X46828100Y-58054200D01*
X46828100Y-58054200D02*
X48890900Y-58054200D01*
X48890900Y-58054200D02*
X57399000Y-49546100D01*
X57399000Y-49546100D02*
X58908500Y-49546100D01*
X58908500Y-49546100D02*
X61369500Y-47085100D01*
X61369500Y-47085100D02*
X61369500Y-25641400D01*
X61369500Y-25641400D02*
X56614700Y-20886600D01*
X56614700Y-20886600D02*
X56357300Y-20886600D01*
X56357300Y-20886600D02*
X55493200Y-20022500D01*
X55493200Y-20022500D02*
X55493200Y-18190700D01*
X55493200Y-18190700D02*
X55615200Y-18068700D01*
X53235300Y-17810000D02*
X53235300Y-17395500D01*
X53235300Y-17395500D02*
X53461500Y-17169300D01*
X51910000Y-17810000D02*
X53235300Y-17810000D01*
D21*
G36*
X61891082Y-20204463D02*
G01*
X62070013Y-20472252D01*
X62297748Y-20699987D01*
X62565537Y-20878918D01*
X62863088Y-21002168D01*
X63178967Y-21065000D01*
X63501033Y-21065000D01*
X63816912Y-21002168D01*
X64114463Y-20878918D01*
X64180000Y-20835127D01*
X64180001Y-44457581D01*
X64180000Y-57024873D01*
X64114463Y-56981082D01*
X63816912Y-56857832D01*
X63501033Y-56795000D01*
X63178967Y-56795000D01*
X62863088Y-56857832D01*
X62565537Y-56981082D01*
X62297748Y-57160013D01*
X62070013Y-57387748D01*
X61891082Y-57655537D01*
X61885091Y-57670000D01*
X58294909Y-57670000D01*
X58288918Y-57655537D01*
X58109987Y-57387748D01*
X57882252Y-57160013D01*
X57614463Y-56981082D01*
X57316912Y-56857832D01*
X57001033Y-56795000D01*
X56678967Y-56795000D01*
X56363088Y-56857832D01*
X56065537Y-56981082D01*
X55797748Y-57160013D01*
X55570013Y-57387748D01*
X55391082Y-57655537D01*
X55267832Y-57953088D01*
X55205000Y-58268967D01*
X55205000Y-58591033D01*
X55267832Y-58906912D01*
X55391082Y-59204463D01*
X55570013Y-59472252D01*
X55797748Y-59699987D01*
X56065537Y-59878918D01*
X56363088Y-60002168D01*
X56678967Y-60065000D01*
X57001033Y-60065000D01*
X57316912Y-60002168D01*
X57614463Y-59878918D01*
X57882252Y-59699987D01*
X58109987Y-59472252D01*
X58288918Y-59204463D01*
X58294909Y-59190000D01*
X61885091Y-59190000D01*
X61891082Y-59204463D01*
X62070013Y-59472252D01*
X62297748Y-59699987D01*
X62565537Y-59878918D01*
X62863088Y-60002168D01*
X63178967Y-60065000D01*
X63501033Y-60065000D01*
X63816912Y-60002168D01*
X64114463Y-59878918D01*
X64180000Y-59835127D01*
X64180000Y-61520435D01*
X63910429Y-61389296D01*
X63598892Y-61307616D01*
X63277405Y-61288282D01*
X62958325Y-61332039D01*
X62653912Y-61437205D01*
X62479956Y-61530186D01*
X62384192Y-61794587D01*
X63340000Y-62750395D01*
X63354143Y-62736253D01*
X63533748Y-62915858D01*
X63519605Y-62930000D01*
X63533748Y-62944143D01*
X63354143Y-63123748D01*
X63340000Y-63109605D01*
X63325858Y-63123748D01*
X63146253Y-62944143D01*
X63160395Y-62930000D01*
X62204587Y-61974192D01*
X61940186Y-62069956D01*
X61799296Y-62359571D01*
X61717616Y-62671108D01*
X61698282Y-62992595D01*
X61742039Y-63311675D01*
X61847205Y-63616088D01*
X61929472Y-63770000D01*
X58249565Y-63770000D01*
X58380704Y-63500429D01*
X58462384Y-63188892D01*
X58481718Y-62867405D01*
X58437961Y-62548325D01*
X58332795Y-62243912D01*
X58239814Y-62069956D01*
X57975413Y-61974192D01*
X57019605Y-62930000D01*
X57033748Y-62944143D01*
X56854143Y-63123748D01*
X56840000Y-63109605D01*
X56825858Y-63123748D01*
X56646253Y-62944143D01*
X56660395Y-62930000D01*
X55704587Y-61974192D01*
X55440186Y-62069956D01*
X55299296Y-62359571D01*
X55217616Y-62671108D01*
X55198282Y-62992595D01*
X55242039Y-63311675D01*
X55347205Y-63616088D01*
X55429472Y-63770000D01*
X42949565Y-63770000D01*
X43080704Y-63500429D01*
X43162384Y-63188892D01*
X43181718Y-62867405D01*
X43137961Y-62548325D01*
X43130556Y-62526890D01*
X45998524Y-62526890D01*
X46043175Y-62674099D01*
X46168359Y-62936920D01*
X46342412Y-63170269D01*
X46558645Y-63365178D01*
X46808748Y-63514157D01*
X47083109Y-63611481D01*
X47313000Y-63490814D01*
X47313000Y-62297000D01*
X47567000Y-62297000D01*
X47567000Y-63490814D01*
X47796891Y-63611481D01*
X48071252Y-63514157D01*
X48321355Y-63365178D01*
X48537588Y-63170269D01*
X48711641Y-62936920D01*
X48836825Y-62674099D01*
X48881476Y-62526890D01*
X48760155Y-62297000D01*
X47567000Y-62297000D01*
X47313000Y-62297000D01*
X46119845Y-62297000D01*
X45998524Y-62526890D01*
X43130556Y-62526890D01*
X43032795Y-62243912D01*
X42939814Y-62069956D01*
X42675413Y-61974192D01*
X41719605Y-62930000D01*
X41733748Y-62944143D01*
X41554143Y-63123748D01*
X41540000Y-63109605D01*
X41525858Y-63123748D01*
X41346253Y-62944143D01*
X41360395Y-62930000D01*
X40404587Y-61974192D01*
X40140186Y-62069956D01*
X39999296Y-62359571D01*
X39917616Y-62671108D01*
X39898282Y-62992595D01*
X39942039Y-63311675D01*
X40047205Y-63616088D01*
X40129472Y-63770000D01*
X38445128Y-63770000D01*
X38488918Y-63704463D01*
X38612168Y-63406912D01*
X38675000Y-63091033D01*
X38675000Y-62768967D01*
X38612168Y-62453088D01*
X38488918Y-62155537D01*
X38309987Y-61887748D01*
X38216826Y-61794587D01*
X40584192Y-61794587D01*
X41540000Y-62750395D01*
X42495808Y-61794587D01*
X42400044Y-61530186D01*
X42110429Y-61389296D01*
X41798892Y-61307616D01*
X41477405Y-61288282D01*
X41158325Y-61332039D01*
X40853912Y-61437205D01*
X40679956Y-61530186D01*
X40584192Y-61794587D01*
X38216826Y-61794587D01*
X38082252Y-61660013D01*
X37814463Y-61481082D01*
X37516912Y-61357832D01*
X37201033Y-61295000D01*
X36878967Y-61295000D01*
X36563088Y-61357832D01*
X36265537Y-61481082D01*
X35997748Y-61660013D01*
X35770013Y-61887748D01*
X35591082Y-62155537D01*
X35467832Y-62453088D01*
X35405000Y-62768967D01*
X35405000Y-63091033D01*
X35467832Y-63406912D01*
X35591082Y-63704463D01*
X35634872Y-63770000D01*
X23249565Y-63770000D01*
X23380704Y-63500429D01*
X23462384Y-63188892D01*
X23481718Y-62867405D01*
X23437961Y-62548325D01*
X23416737Y-62486890D01*
X24858524Y-62486890D01*
X24903175Y-62634099D01*
X25028359Y-62896920D01*
X25202412Y-63130269D01*
X25418645Y-63325178D01*
X25668748Y-63474157D01*
X25943109Y-63571481D01*
X26173000Y-63450814D01*
X26173000Y-62257000D01*
X26427000Y-62257000D01*
X26427000Y-63450814D01*
X26656891Y-63571481D01*
X26931252Y-63474157D01*
X27181355Y-63325178D01*
X27397588Y-63130269D01*
X27571641Y-62896920D01*
X27696825Y-62634099D01*
X27741476Y-62486890D01*
X27620155Y-62257000D01*
X26427000Y-62257000D01*
X26173000Y-62257000D01*
X24979845Y-62257000D01*
X24858524Y-62486890D01*
X23416737Y-62486890D01*
X23332795Y-62243912D01*
X23239814Y-62069956D01*
X22975413Y-61974192D01*
X22019605Y-62930000D01*
X22033748Y-62944143D01*
X21854143Y-63123748D01*
X21840000Y-63109605D01*
X21825858Y-63123748D01*
X21646253Y-62944143D01*
X21660395Y-62930000D01*
X20704587Y-61974192D01*
X20440186Y-62069956D01*
X20299296Y-62359571D01*
X20217616Y-62671108D01*
X20198282Y-62992595D01*
X20242039Y-63311675D01*
X20347205Y-63616088D01*
X20429472Y-63770000D01*
X16749565Y-63770000D01*
X16880704Y-63500429D01*
X16962384Y-63188892D01*
X16981718Y-62867405D01*
X16937961Y-62548325D01*
X16832795Y-62243912D01*
X16739814Y-62069956D01*
X16475413Y-61974192D01*
X15519605Y-62930000D01*
X15533748Y-62944143D01*
X15354143Y-63123748D01*
X15340000Y-63109605D01*
X15325858Y-63123748D01*
X15146253Y-62944143D01*
X15160395Y-62930000D01*
X15146253Y-62915858D01*
X15325858Y-62736253D01*
X15340000Y-62750395D01*
X16295808Y-61794587D01*
X20884192Y-61794587D01*
X21840000Y-62750395D01*
X22795808Y-61794587D01*
X22700044Y-61530186D01*
X22410429Y-61389296D01*
X22098892Y-61307616D01*
X21777405Y-61288282D01*
X21458325Y-61332039D01*
X21153912Y-61437205D01*
X20979956Y-61530186D01*
X20884192Y-61794587D01*
X16295808Y-61794587D01*
X16200044Y-61530186D01*
X15910429Y-61389296D01*
X15598892Y-61307616D01*
X15277405Y-61288282D01*
X14958325Y-61332039D01*
X14653912Y-61437205D01*
X14500000Y-61519472D01*
X14500000Y-59835128D01*
X14565537Y-59878918D01*
X14863088Y-60002168D01*
X15178967Y-60065000D01*
X15501033Y-60065000D01*
X15816912Y-60002168D01*
X16114463Y-59878918D01*
X16382252Y-59699987D01*
X16609987Y-59472252D01*
X16788918Y-59204463D01*
X16794909Y-59190000D01*
X20385091Y-59190000D01*
X20391082Y-59204463D01*
X20570013Y-59472252D01*
X20797748Y-59699987D01*
X21065537Y-59878918D01*
X21363088Y-60002168D01*
X21678967Y-60065000D01*
X22001033Y-60065000D01*
X22316912Y-60002168D01*
X22614463Y-59878918D01*
X22882252Y-59699987D01*
X23109987Y-59472252D01*
X23288918Y-59204463D01*
X23412168Y-58906912D01*
X23475000Y-58591033D01*
X23475000Y-58268967D01*
X23412168Y-57953088D01*
X23406177Y-57938624D01*
X27261802Y-54083000D01*
X31980635Y-54083000D01*
X31856923Y-54149126D01*
X31773283Y-54217768D01*
X31741199Y-54244099D01*
X31717401Y-54273097D01*
X27646485Y-58344014D01*
X27601185Y-58288815D01*
X27504494Y-58209463D01*
X27394180Y-58150498D01*
X27274482Y-58114188D01*
X27150000Y-58101928D01*
X25450000Y-58101928D01*
X25325518Y-58114188D01*
X25205820Y-58150498D01*
X25095506Y-58209463D01*
X24998815Y-58288815D01*
X24919463Y-58385506D01*
X24860498Y-58495820D01*
X24824188Y-58615518D01*
X24811928Y-58740000D01*
X24811928Y-60440000D01*
X24824188Y-60564482D01*
X24860498Y-60684180D01*
X24919463Y-60794494D01*
X24998815Y-60891185D01*
X25095506Y-60970537D01*
X25205820Y-61029502D01*
X25286466Y-61053966D01*
X25202412Y-61129731D01*
X25028359Y-61363080D01*
X24903175Y-61625901D01*
X24858524Y-61773110D01*
X24979845Y-62003000D01*
X26173000Y-62003000D01*
X26173000Y-61983000D01*
X26427000Y-61983000D01*
X26427000Y-62003000D01*
X27620155Y-62003000D01*
X27741476Y-61773110D01*
X27696825Y-61625901D01*
X27571641Y-61363080D01*
X27397789Y-61130000D01*
X33201928Y-61130000D01*
X33214188Y-61254482D01*
X33250498Y-61374180D01*
X33309463Y-61484494D01*
X33388815Y-61581185D01*
X33485506Y-61660537D01*
X33595820Y-61719502D01*
X33715518Y-61755812D01*
X33840000Y-61768072D01*
X34254250Y-61765000D01*
X34413000Y-61606250D01*
X34413000Y-60682000D01*
X34667000Y-60682000D01*
X34667000Y-61606250D01*
X34825750Y-61765000D01*
X35240000Y-61768072D01*
X35364482Y-61755812D01*
X35484180Y-61719502D01*
X35594494Y-61660537D01*
X35691185Y-61581185D01*
X35770537Y-61484494D01*
X35829502Y-61374180D01*
X35865812Y-61254482D01*
X35878072Y-61130000D01*
X42781928Y-61130000D01*
X42794188Y-61254482D01*
X42830498Y-61374180D01*
X42889463Y-61484494D01*
X42968815Y-61581185D01*
X43065506Y-61660537D01*
X43175820Y-61719502D01*
X43295518Y-61755812D01*
X43420000Y-61768072D01*
X43834250Y-61765000D01*
X43993000Y-61606250D01*
X43993000Y-60682000D01*
X44247000Y-60682000D01*
X44247000Y-61606250D01*
X44405750Y-61765000D01*
X44820000Y-61768072D01*
X44944482Y-61755812D01*
X45064180Y-61719502D01*
X45174494Y-61660537D01*
X45271185Y-61581185D01*
X45350537Y-61484494D01*
X45409502Y-61374180D01*
X45445812Y-61254482D01*
X45458072Y-61130000D01*
X45455000Y-60840750D01*
X45296250Y-60682000D01*
X44247000Y-60682000D01*
X43993000Y-60682000D01*
X42943750Y-60682000D01*
X42785000Y-60840750D01*
X42781928Y-61130000D01*
X35878072Y-61130000D01*
X35875000Y-60840750D01*
X35716250Y-60682000D01*
X34667000Y-60682000D01*
X34413000Y-60682000D01*
X33363750Y-60682000D01*
X33205000Y-60840750D01*
X33201928Y-61130000D01*
X27397789Y-61130000D01*
X27397588Y-61129731D01*
X27313534Y-61053966D01*
X27394180Y-61029502D01*
X27504494Y-60970537D01*
X27601185Y-60891185D01*
X27680537Y-60794494D01*
X27739502Y-60684180D01*
X27775812Y-60564482D01*
X27788072Y-60440000D01*
X27788072Y-60284575D01*
X27899576Y-60224974D01*
X28015301Y-60130001D01*
X28039104Y-60100997D01*
X32596002Y-55544100D01*
X35396078Y-55544100D01*
X35433400Y-55547776D01*
X35470722Y-55544100D01*
X35470733Y-55544100D01*
X35582386Y-55533103D01*
X35695897Y-55498670D01*
X35591082Y-55655537D01*
X35467832Y-55953088D01*
X35405000Y-56268967D01*
X35405000Y-56591033D01*
X35462622Y-56880718D01*
X35422205Y-56783144D01*
X35308937Y-56613626D01*
X35164774Y-56469463D01*
X34995256Y-56356195D01*
X34806898Y-56278174D01*
X34606939Y-56238400D01*
X34403061Y-56238400D01*
X34203102Y-56278174D01*
X34014744Y-56356195D01*
X33845226Y-56469463D01*
X33701063Y-56613626D01*
X33587795Y-56783144D01*
X33509774Y-56971502D01*
X33470000Y-57171461D01*
X33470000Y-57375339D01*
X33499098Y-57521624D01*
X33462038Y-57552038D01*
X33351595Y-57686613D01*
X33269528Y-57840149D01*
X33218992Y-58006745D01*
X33201928Y-58179999D01*
X33201928Y-58830001D01*
X33218992Y-59003255D01*
X33269528Y-59169851D01*
X33351595Y-59323387D01*
X33462038Y-59457962D01*
X33468594Y-59463342D01*
X33388815Y-59528815D01*
X33309463Y-59625506D01*
X33250498Y-59735820D01*
X33214188Y-59855518D01*
X33201928Y-59980000D01*
X33205000Y-60269250D01*
X33363750Y-60428000D01*
X34413000Y-60428000D01*
X34413000Y-60408000D01*
X34667000Y-60408000D01*
X34667000Y-60428000D01*
X35716250Y-60428000D01*
X35752500Y-60391750D01*
X35776102Y-60401526D01*
X35976061Y-60441300D01*
X36179939Y-60441300D01*
X36379898Y-60401526D01*
X36568256Y-60323505D01*
X36737774Y-60210237D01*
X36781711Y-60166300D01*
X42783907Y-60166300D01*
X42785000Y-60269250D01*
X42943750Y-60428000D01*
X43993000Y-60428000D01*
X43993000Y-60408000D01*
X44247000Y-60408000D01*
X44247000Y-60428000D01*
X45296250Y-60428000D01*
X45455000Y-60269250D01*
X45456075Y-60168014D01*
X45476000Y-60169976D01*
X45513322Y-60166300D01*
X45513333Y-60166300D01*
X45624986Y-60155303D01*
X45768247Y-60111846D01*
X45900276Y-60041274D01*
X45951928Y-59998884D01*
X45951928Y-60480000D01*
X45964188Y-60604482D01*
X46000498Y-60724180D01*
X46059463Y-60834494D01*
X46138815Y-60931185D01*
X46235506Y-61010537D01*
X46345820Y-61069502D01*
X46426466Y-61093966D01*
X46342412Y-61169731D01*
X46168359Y-61403080D01*
X46043175Y-61665901D01*
X45998524Y-61813110D01*
X46119845Y-62043000D01*
X47313000Y-62043000D01*
X47313000Y-62023000D01*
X47567000Y-62023000D01*
X47567000Y-62043000D01*
X48760155Y-62043000D01*
X48881476Y-61813110D01*
X48875858Y-61794587D01*
X55884192Y-61794587D01*
X56840000Y-62750395D01*
X57795808Y-61794587D01*
X57700044Y-61530186D01*
X57410429Y-61389296D01*
X57098892Y-61307616D01*
X56777405Y-61288282D01*
X56458325Y-61332039D01*
X56153912Y-61437205D01*
X55979956Y-61530186D01*
X55884192Y-61794587D01*
X48875858Y-61794587D01*
X48836825Y-61665901D01*
X48711641Y-61403080D01*
X48537588Y-61169731D01*
X48453534Y-61093966D01*
X48534180Y-61069502D01*
X48644494Y-61010537D01*
X48741185Y-60931185D01*
X48820537Y-60834494D01*
X48879502Y-60724180D01*
X48915812Y-60604482D01*
X48928072Y-60480000D01*
X48928072Y-58814215D01*
X48928222Y-58814200D01*
X48928233Y-58814200D01*
X49039886Y-58803203D01*
X49183147Y-58759746D01*
X49315176Y-58689174D01*
X49430901Y-58594201D01*
X49454704Y-58565197D01*
X56008190Y-52011713D01*
X56020377Y-52072981D01*
X56186544Y-52474144D01*
X56427782Y-52835181D01*
X56734819Y-53142218D01*
X57095856Y-53383456D01*
X57497019Y-53549623D01*
X57922892Y-53634334D01*
X58357108Y-53634334D01*
X58782981Y-53549623D01*
X59184144Y-53383456D01*
X59545181Y-53142218D01*
X59852218Y-52835181D01*
X60093456Y-52474144D01*
X60259623Y-52072981D01*
X60344334Y-51647108D01*
X60344334Y-51212892D01*
X60259623Y-50787019D01*
X60093456Y-50385856D01*
X59852218Y-50024819D01*
X59678400Y-49851001D01*
X61880504Y-47648898D01*
X61909501Y-47625101D01*
X62004474Y-47509376D01*
X62075046Y-47377347D01*
X62118503Y-47234086D01*
X62129500Y-47122433D01*
X62129500Y-47122432D01*
X62133177Y-47085100D01*
X62129500Y-47047767D01*
X62129500Y-25678725D01*
X62133176Y-25641400D01*
X62129500Y-25604075D01*
X62129500Y-25604067D01*
X62118503Y-25492414D01*
X62075046Y-25349153D01*
X62004474Y-25217124D01*
X61909501Y-25101399D01*
X61880503Y-25077601D01*
X57654840Y-20851939D01*
X57882252Y-20699987D01*
X58109987Y-20472252D01*
X58288918Y-20204463D01*
X58294909Y-20190000D01*
X61885091Y-20190000D01*
X61891082Y-20204463D01*
G37*
X61891082Y-20204463D02*
X62070013Y-20472252D01*
X62297748Y-20699987D01*
X62565537Y-20878918D01*
X62863088Y-21002168D01*
X63178967Y-21065000D01*
X63501033Y-21065000D01*
X63816912Y-21002168D01*
X64114463Y-20878918D01*
X64180000Y-20835127D01*
X64180001Y-44457581D01*
X64180000Y-57024873D01*
X64114463Y-56981082D01*
X63816912Y-56857832D01*
X63501033Y-56795000D01*
X63178967Y-56795000D01*
X62863088Y-56857832D01*
X62565537Y-56981082D01*
X62297748Y-57160013D01*
X62070013Y-57387748D01*
X61891082Y-57655537D01*
X61885091Y-57670000D01*
X58294909Y-57670000D01*
X58288918Y-57655537D01*
X58109987Y-57387748D01*
X57882252Y-57160013D01*
X57614463Y-56981082D01*
X57316912Y-56857832D01*
X57001033Y-56795000D01*
X56678967Y-56795000D01*
X56363088Y-56857832D01*
X56065537Y-56981082D01*
X55797748Y-57160013D01*
X55570013Y-57387748D01*
X55391082Y-57655537D01*
X55267832Y-57953088D01*
X55205000Y-58268967D01*
X55205000Y-58591033D01*
X55267832Y-58906912D01*
X55391082Y-59204463D01*
X55570013Y-59472252D01*
X55797748Y-59699987D01*
X56065537Y-59878918D01*
X56363088Y-60002168D01*
X56678967Y-60065000D01*
X57001033Y-60065000D01*
X57316912Y-60002168D01*
X57614463Y-59878918D01*
X57882252Y-59699987D01*
X58109987Y-59472252D01*
X58288918Y-59204463D01*
X58294909Y-59190000D01*
X61885091Y-59190000D01*
X61891082Y-59204463D01*
X62070013Y-59472252D01*
X62297748Y-59699987D01*
X62565537Y-59878918D01*
X62863088Y-60002168D01*
X63178967Y-60065000D01*
X63501033Y-60065000D01*
X63816912Y-60002168D01*
X64114463Y-59878918D01*
X64180000Y-59835127D01*
X64180000Y-61520435D01*
X63910429Y-61389296D01*
X63598892Y-61307616D01*
X63277405Y-61288282D01*
X62958325Y-61332039D01*
X62653912Y-61437205D01*
X62479956Y-61530186D01*
X62384192Y-61794587D01*
X63340000Y-62750395D01*
X63354143Y-62736253D01*
X63533748Y-62915858D01*
X63519605Y-62930000D01*
X63533748Y-62944143D01*
X63354143Y-63123748D01*
X63340000Y-63109605D01*
X63325858Y-63123748D01*
X63146253Y-62944143D01*
X63160395Y-62930000D01*
X62204587Y-61974192D01*
X61940186Y-62069956D01*
X61799296Y-62359571D01*
X61717616Y-62671108D01*
X61698282Y-62992595D01*
X61742039Y-63311675D01*
X61847205Y-63616088D01*
X61929472Y-63770000D01*
X58249565Y-63770000D01*
X58380704Y-63500429D01*
X58462384Y-63188892D01*
X58481718Y-62867405D01*
X58437961Y-62548325D01*
X58332795Y-62243912D01*
X58239814Y-62069956D01*
X57975413Y-61974192D01*
X57019605Y-62930000D01*
X57033748Y-62944143D01*
X56854143Y-63123748D01*
X56840000Y-63109605D01*
X56825858Y-63123748D01*
X56646253Y-62944143D01*
X56660395Y-62930000D01*
X55704587Y-61974192D01*
X55440186Y-62069956D01*
X55299296Y-62359571D01*
X55217616Y-62671108D01*
X55198282Y-62992595D01*
X55242039Y-63311675D01*
X55347205Y-63616088D01*
X55429472Y-63770000D01*
X42949565Y-63770000D01*
X43080704Y-63500429D01*
X43162384Y-63188892D01*
X43181718Y-62867405D01*
X43137961Y-62548325D01*
X43130556Y-62526890D01*
X45998524Y-62526890D01*
X46043175Y-62674099D01*
X46168359Y-62936920D01*
X46342412Y-63170269D01*
X46558645Y-63365178D01*
X46808748Y-63514157D01*
X47083109Y-63611481D01*
X47313000Y-63490814D01*
X47313000Y-62297000D01*
X47567000Y-62297000D01*
X47567000Y-63490814D01*
X47796891Y-63611481D01*
X48071252Y-63514157D01*
X48321355Y-63365178D01*
X48537588Y-63170269D01*
X48711641Y-62936920D01*
X48836825Y-62674099D01*
X48881476Y-62526890D01*
X48760155Y-62297000D01*
X47567000Y-62297000D01*
X47313000Y-62297000D01*
X46119845Y-62297000D01*
X45998524Y-62526890D01*
X43130556Y-62526890D01*
X43032795Y-62243912D01*
X42939814Y-62069956D01*
X42675413Y-61974192D01*
X41719605Y-62930000D01*
X41733748Y-62944143D01*
X41554143Y-63123748D01*
X41540000Y-63109605D01*
X41525858Y-63123748D01*
X41346253Y-62944143D01*
X41360395Y-62930000D01*
X40404587Y-61974192D01*
X40140186Y-62069956D01*
X39999296Y-62359571D01*
X39917616Y-62671108D01*
X39898282Y-62992595D01*
X39942039Y-63311675D01*
X40047205Y-63616088D01*
X40129472Y-63770000D01*
X38445128Y-63770000D01*
X38488918Y-63704463D01*
X38612168Y-63406912D01*
X38675000Y-63091033D01*
X38675000Y-62768967D01*
X38612168Y-62453088D01*
X38488918Y-62155537D01*
X38309987Y-61887748D01*
X38216826Y-61794587D01*
X40584192Y-61794587D01*
X41540000Y-62750395D01*
X42495808Y-61794587D01*
X42400044Y-61530186D01*
X42110429Y-61389296D01*
X41798892Y-61307616D01*
X41477405Y-61288282D01*
X41158325Y-61332039D01*
X40853912Y-61437205D01*
X40679956Y-61530186D01*
X40584192Y-61794587D01*
X38216826Y-61794587D01*
X38082252Y-61660013D01*
X37814463Y-61481082D01*
X37516912Y-61357832D01*
X37201033Y-61295000D01*
X36878967Y-61295000D01*
X36563088Y-61357832D01*
X36265537Y-61481082D01*
X35997748Y-61660013D01*
X35770013Y-61887748D01*
X35591082Y-62155537D01*
X35467832Y-62453088D01*
X35405000Y-62768967D01*
X35405000Y-63091033D01*
X35467832Y-63406912D01*
X35591082Y-63704463D01*
X35634872Y-63770000D01*
X23249565Y-63770000D01*
X23380704Y-63500429D01*
X23462384Y-63188892D01*
X23481718Y-62867405D01*
X23437961Y-62548325D01*
X23416737Y-62486890D01*
X24858524Y-62486890D01*
X24903175Y-62634099D01*
X25028359Y-62896920D01*
X25202412Y-63130269D01*
X25418645Y-63325178D01*
X25668748Y-63474157D01*
X25943109Y-63571481D01*
X26173000Y-63450814D01*
X26173000Y-62257000D01*
X26427000Y-62257000D01*
X26427000Y-63450814D01*
X26656891Y-63571481D01*
X26931252Y-63474157D01*
X27181355Y-63325178D01*
X27397588Y-63130269D01*
X27571641Y-62896920D01*
X27696825Y-62634099D01*
X27741476Y-62486890D01*
X27620155Y-62257000D01*
X26427000Y-62257000D01*
X26173000Y-62257000D01*
X24979845Y-62257000D01*
X24858524Y-62486890D01*
X23416737Y-62486890D01*
X23332795Y-62243912D01*
X23239814Y-62069956D01*
X22975413Y-61974192D01*
X22019605Y-62930000D01*
X22033748Y-62944143D01*
X21854143Y-63123748D01*
X21840000Y-63109605D01*
X21825858Y-63123748D01*
X21646253Y-62944143D01*
X21660395Y-62930000D01*
X20704587Y-61974192D01*
X20440186Y-62069956D01*
X20299296Y-62359571D01*
X20217616Y-62671108D01*
X20198282Y-62992595D01*
X20242039Y-63311675D01*
X20347205Y-63616088D01*
X20429472Y-63770000D01*
X16749565Y-63770000D01*
X16880704Y-63500429D01*
X16962384Y-63188892D01*
X16981718Y-62867405D01*
X16937961Y-62548325D01*
X16832795Y-62243912D01*
X16739814Y-62069956D01*
X16475413Y-61974192D01*
X15519605Y-62930000D01*
X15533748Y-62944143D01*
X15354143Y-63123748D01*
X15340000Y-63109605D01*
X15325858Y-63123748D01*
X15146253Y-62944143D01*
X15160395Y-62930000D01*
X15146253Y-62915858D01*
X15325858Y-62736253D01*
X15340000Y-62750395D01*
X16295808Y-61794587D01*
X20884192Y-61794587D01*
X21840000Y-62750395D01*
X22795808Y-61794587D01*
X22700044Y-61530186D01*
X22410429Y-61389296D01*
X22098892Y-61307616D01*
X21777405Y-61288282D01*
X21458325Y-61332039D01*
X21153912Y-61437205D01*
X20979956Y-61530186D01*
X20884192Y-61794587D01*
X16295808Y-61794587D01*
X16200044Y-61530186D01*
X15910429Y-61389296D01*
X15598892Y-61307616D01*
X15277405Y-61288282D01*
X14958325Y-61332039D01*
X14653912Y-61437205D01*
X14500000Y-61519472D01*
X14500000Y-59835128D01*
X14565537Y-59878918D01*
X14863088Y-60002168D01*
X15178967Y-60065000D01*
X15501033Y-60065000D01*
X15816912Y-60002168D01*
X16114463Y-59878918D01*
X16382252Y-59699987D01*
X16609987Y-59472252D01*
X16788918Y-59204463D01*
X16794909Y-59190000D01*
X20385091Y-59190000D01*
X20391082Y-59204463D01*
X20570013Y-59472252D01*
X20797748Y-59699987D01*
X21065537Y-59878918D01*
X21363088Y-60002168D01*
X21678967Y-60065000D01*
X22001033Y-60065000D01*
X22316912Y-60002168D01*
X22614463Y-59878918D01*
X22882252Y-59699987D01*
X23109987Y-59472252D01*
X23288918Y-59204463D01*
X23412168Y-58906912D01*
X23475000Y-58591033D01*
X23475000Y-58268967D01*
X23412168Y-57953088D01*
X23406177Y-57938624D01*
X27261802Y-54083000D01*
X31980635Y-54083000D01*
X31856923Y-54149126D01*
X31773283Y-54217768D01*
X31741199Y-54244099D01*
X31717401Y-54273097D01*
X27646485Y-58344014D01*
X27601185Y-58288815D01*
X27504494Y-58209463D01*
X27394180Y-58150498D01*
X27274482Y-58114188D01*
X27150000Y-58101928D01*
X25450000Y-58101928D01*
X25325518Y-58114188D01*
X25205820Y-58150498D01*
X25095506Y-58209463D01*
X24998815Y-58288815D01*
X24919463Y-58385506D01*
X24860498Y-58495820D01*
X24824188Y-58615518D01*
X24811928Y-58740000D01*
X24811928Y-60440000D01*
X24824188Y-60564482D01*
X24860498Y-60684180D01*
X24919463Y-60794494D01*
X24998815Y-60891185D01*
X25095506Y-60970537D01*
X25205820Y-61029502D01*
X25286466Y-61053966D01*
X25202412Y-61129731D01*
X25028359Y-61363080D01*
X24903175Y-61625901D01*
X24858524Y-61773110D01*
X24979845Y-62003000D01*
X26173000Y-62003000D01*
X26173000Y-61983000D01*
X26427000Y-61983000D01*
X26427000Y-62003000D01*
X27620155Y-62003000D01*
X27741476Y-61773110D01*
X27696825Y-61625901D01*
X27571641Y-61363080D01*
X27397789Y-61130000D01*
X33201928Y-61130000D01*
X33214188Y-61254482D01*
X33250498Y-61374180D01*
X33309463Y-61484494D01*
X33388815Y-61581185D01*
X33485506Y-61660537D01*
X33595820Y-61719502D01*
X33715518Y-61755812D01*
X33840000Y-61768072D01*
X34254250Y-61765000D01*
X34413000Y-61606250D01*
X34413000Y-60682000D01*
X34667000Y-60682000D01*
X34667000Y-61606250D01*
X34825750Y-61765000D01*
X35240000Y-61768072D01*
X35364482Y-61755812D01*
X35484180Y-61719502D01*
X35594494Y-61660537D01*
X35691185Y-61581185D01*
X35770537Y-61484494D01*
X35829502Y-61374180D01*
X35865812Y-61254482D01*
X35878072Y-61130000D01*
X42781928Y-61130000D01*
X42794188Y-61254482D01*
X42830498Y-61374180D01*
X42889463Y-61484494D01*
X42968815Y-61581185D01*
X43065506Y-61660537D01*
X43175820Y-61719502D01*
X43295518Y-61755812D01*
X43420000Y-61768072D01*
X43834250Y-61765000D01*
X43993000Y-61606250D01*
X43993000Y-60682000D01*
X44247000Y-60682000D01*
X44247000Y-61606250D01*
X44405750Y-61765000D01*
X44820000Y-61768072D01*
X44944482Y-61755812D01*
X45064180Y-61719502D01*
X45174494Y-61660537D01*
X45271185Y-61581185D01*
X45350537Y-61484494D01*
X45409502Y-61374180D01*
X45445812Y-61254482D01*
X45458072Y-61130000D01*
X45455000Y-60840750D01*
X45296250Y-60682000D01*
X44247000Y-60682000D01*
X43993000Y-60682000D01*
X42943750Y-60682000D01*
X42785000Y-60840750D01*
X42781928Y-61130000D01*
X35878072Y-61130000D01*
X35875000Y-60840750D01*
X35716250Y-60682000D01*
X34667000Y-60682000D01*
X34413000Y-60682000D01*
X33363750Y-60682000D01*
X33205000Y-60840750D01*
X33201928Y-61130000D01*
X27397789Y-61130000D01*
X27397588Y-61129731D01*
X27313534Y-61053966D01*
X27394180Y-61029502D01*
X27504494Y-60970537D01*
X27601185Y-60891185D01*
X27680537Y-60794494D01*
X27739502Y-60684180D01*
X27775812Y-60564482D01*
X27788072Y-60440000D01*
X27788072Y-60284575D01*
X27899576Y-60224974D01*
X28015301Y-60130001D01*
X28039104Y-60100997D01*
X32596002Y-55544100D01*
X35396078Y-55544100D01*
X35433400Y-55547776D01*
X35470722Y-55544100D01*
X35470733Y-55544100D01*
X35582386Y-55533103D01*
X35695897Y-55498670D01*
X35591082Y-55655537D01*
X35467832Y-55953088D01*
X35405000Y-56268967D01*
X35405000Y-56591033D01*
X35462622Y-56880718D01*
X35422205Y-56783144D01*
X35308937Y-56613626D01*
X35164774Y-56469463D01*
X34995256Y-56356195D01*
X34806898Y-56278174D01*
X34606939Y-56238400D01*
X34403061Y-56238400D01*
X34203102Y-56278174D01*
X34014744Y-56356195D01*
X33845226Y-56469463D01*
X33701063Y-56613626D01*
X33587795Y-56783144D01*
X33509774Y-56971502D01*
X33470000Y-57171461D01*
X33470000Y-57375339D01*
X33499098Y-57521624D01*
X33462038Y-57552038D01*
X33351595Y-57686613D01*
X33269528Y-57840149D01*
X33218992Y-58006745D01*
X33201928Y-58179999D01*
X33201928Y-58830001D01*
X33218992Y-59003255D01*
X33269528Y-59169851D01*
X33351595Y-59323387D01*
X33462038Y-59457962D01*
X33468594Y-59463342D01*
X33388815Y-59528815D01*
X33309463Y-59625506D01*
X33250498Y-59735820D01*
X33214188Y-59855518D01*
X33201928Y-59980000D01*
X33205000Y-60269250D01*
X33363750Y-60428000D01*
X34413000Y-60428000D01*
X34413000Y-60408000D01*
X34667000Y-60408000D01*
X34667000Y-60428000D01*
X35716250Y-60428000D01*
X35752500Y-60391750D01*
X35776102Y-60401526D01*
X35976061Y-60441300D01*
X36179939Y-60441300D01*
X36379898Y-60401526D01*
X36568256Y-60323505D01*
X36737774Y-60210237D01*
X36781711Y-60166300D01*
X42783907Y-60166300D01*
X42785000Y-60269250D01*
X42943750Y-60428000D01*
X43993000Y-60428000D01*
X43993000Y-60408000D01*
X44247000Y-60408000D01*
X44247000Y-60428000D01*
X45296250Y-60428000D01*
X45455000Y-60269250D01*
X45456075Y-60168014D01*
X45476000Y-60169976D01*
X45513322Y-60166300D01*
X45513333Y-60166300D01*
X45624986Y-60155303D01*
X45768247Y-60111846D01*
X45900276Y-60041274D01*
X45951928Y-59998884D01*
X45951928Y-60480000D01*
X45964188Y-60604482D01*
X46000498Y-60724180D01*
X46059463Y-60834494D01*
X46138815Y-60931185D01*
X46235506Y-61010537D01*
X46345820Y-61069502D01*
X46426466Y-61093966D01*
X46342412Y-61169731D01*
X46168359Y-61403080D01*
X46043175Y-61665901D01*
X45998524Y-61813110D01*
X46119845Y-62043000D01*
X47313000Y-62043000D01*
X47313000Y-62023000D01*
X47567000Y-62023000D01*
X47567000Y-62043000D01*
X48760155Y-62043000D01*
X48881476Y-61813110D01*
X48875858Y-61794587D01*
X55884192Y-61794587D01*
X56840000Y-62750395D01*
X57795808Y-61794587D01*
X57700044Y-61530186D01*
X57410429Y-61389296D01*
X57098892Y-61307616D01*
X56777405Y-61288282D01*
X56458325Y-61332039D01*
X56153912Y-61437205D01*
X55979956Y-61530186D01*
X55884192Y-61794587D01*
X48875858Y-61794587D01*
X48836825Y-61665901D01*
X48711641Y-61403080D01*
X48537588Y-61169731D01*
X48453534Y-61093966D01*
X48534180Y-61069502D01*
X48644494Y-61010537D01*
X48741185Y-60931185D01*
X48820537Y-60834494D01*
X48879502Y-60724180D01*
X48915812Y-60604482D01*
X48928072Y-60480000D01*
X48928072Y-58814215D01*
X48928222Y-58814200D01*
X48928233Y-58814200D01*
X49039886Y-58803203D01*
X49183147Y-58759746D01*
X49315176Y-58689174D01*
X49430901Y-58594201D01*
X49454704Y-58565197D01*
X56008190Y-52011713D01*
X56020377Y-52072981D01*
X56186544Y-52474144D01*
X56427782Y-52835181D01*
X56734819Y-53142218D01*
X57095856Y-53383456D01*
X57497019Y-53549623D01*
X57922892Y-53634334D01*
X58357108Y-53634334D01*
X58782981Y-53549623D01*
X59184144Y-53383456D01*
X59545181Y-53142218D01*
X59852218Y-52835181D01*
X60093456Y-52474144D01*
X60259623Y-52072981D01*
X60344334Y-51647108D01*
X60344334Y-51212892D01*
X60259623Y-50787019D01*
X60093456Y-50385856D01*
X59852218Y-50024819D01*
X59678400Y-49851001D01*
X61880504Y-47648898D01*
X61909501Y-47625101D01*
X62004474Y-47509376D01*
X62075046Y-47377347D01*
X62118503Y-47234086D01*
X62129500Y-47122433D01*
X62129500Y-47122432D01*
X62133177Y-47085100D01*
X62129500Y-47047767D01*
X62129500Y-25678725D01*
X62133176Y-25641400D01*
X62129500Y-25604075D01*
X62129500Y-25604067D01*
X62118503Y-25492414D01*
X62075046Y-25349153D01*
X62004474Y-25217124D01*
X61909501Y-25101399D01*
X61880503Y-25077601D01*
X57654840Y-20851939D01*
X57882252Y-20699987D01*
X58109987Y-20472252D01*
X58288918Y-20204463D01*
X58294909Y-20190000D01*
X61885091Y-20190000D01*
X61891082Y-20204463D01*
G36*
X40140186Y-55569956D02*
G01*
X39999296Y-55859571D01*
X39917616Y-56171108D01*
X39898282Y-56492595D01*
X39942039Y-56811675D01*
X40047205Y-57116088D01*
X40140186Y-57290044D01*
X40404587Y-57385808D01*
X41360395Y-56430000D01*
X41346253Y-56415858D01*
X41525858Y-56236253D01*
X41540000Y-56250395D01*
X41554143Y-56236253D01*
X41733748Y-56415858D01*
X41719605Y-56430000D01*
X42675413Y-57385808D01*
X42939814Y-57290044D01*
X43080704Y-57000429D01*
X43162384Y-56688892D01*
X43181718Y-56367405D01*
X43137961Y-56048325D01*
X43032795Y-55743912D01*
X42939814Y-55569956D01*
X42933309Y-55567600D01*
X43084070Y-55567600D01*
X43080000Y-55588061D01*
X43080000Y-55791939D01*
X43119774Y-55991898D01*
X43197795Y-56180256D01*
X43311063Y-56349774D01*
X43355000Y-56393711D01*
X43355001Y-57253958D01*
X43355000Y-57253968D01*
X43355000Y-57351990D01*
X43330149Y-57359528D01*
X43176613Y-57441595D01*
X43042038Y-57552038D01*
X42931595Y-57686613D01*
X42849528Y-57840149D01*
X42798992Y-58006745D01*
X42781928Y-58179999D01*
X42781928Y-58646300D01*
X36781711Y-58646300D01*
X36737774Y-58602363D01*
X36568256Y-58489095D01*
X36379898Y-58411074D01*
X36179939Y-58371300D01*
X35976061Y-58371300D01*
X35878072Y-58390791D01*
X35878072Y-58179999D01*
X35861008Y-58006745D01*
X35810472Y-57840149D01*
X35728405Y-57686613D01*
X35617962Y-57552038D01*
X35520726Y-57472238D01*
X35540000Y-57375339D01*
X35540000Y-57171461D01*
X35505436Y-56997697D01*
X35591082Y-57204463D01*
X35770013Y-57472252D01*
X35997748Y-57699987D01*
X36265537Y-57878918D01*
X36563088Y-58002168D01*
X36878967Y-58065000D01*
X37201033Y-58065000D01*
X37516912Y-58002168D01*
X37814463Y-57878918D01*
X38082252Y-57699987D01*
X38216826Y-57565413D01*
X40584192Y-57565413D01*
X40679956Y-57829814D01*
X40969571Y-57970704D01*
X41281108Y-58052384D01*
X41602595Y-58071718D01*
X41921675Y-58027961D01*
X42226088Y-57922795D01*
X42400044Y-57829814D01*
X42495808Y-57565413D01*
X41540000Y-56609605D01*
X40584192Y-57565413D01*
X38216826Y-57565413D01*
X38309987Y-57472252D01*
X38488918Y-57204463D01*
X38612168Y-56906912D01*
X38675000Y-56591033D01*
X38675000Y-56268967D01*
X38612168Y-55953088D01*
X38606177Y-55938625D01*
X38977202Y-55567600D01*
X40146691Y-55567600D01*
X40140186Y-55569956D01*
G37*
X40140186Y-55569956D02*
X39999296Y-55859571D01*
X39917616Y-56171108D01*
X39898282Y-56492595D01*
X39942039Y-56811675D01*
X40047205Y-57116088D01*
X40140186Y-57290044D01*
X40404587Y-57385808D01*
X41360395Y-56430000D01*
X41346253Y-56415858D01*
X41525858Y-56236253D01*
X41540000Y-56250395D01*
X41554143Y-56236253D01*
X41733748Y-56415858D01*
X41719605Y-56430000D01*
X42675413Y-57385808D01*
X42939814Y-57290044D01*
X43080704Y-57000429D01*
X43162384Y-56688892D01*
X43181718Y-56367405D01*
X43137961Y-56048325D01*
X43032795Y-55743912D01*
X42939814Y-55569956D01*
X42933309Y-55567600D01*
X43084070Y-55567600D01*
X43080000Y-55588061D01*
X43080000Y-55791939D01*
X43119774Y-55991898D01*
X43197795Y-56180256D01*
X43311063Y-56349774D01*
X43355000Y-56393711D01*
X43355001Y-57253958D01*
X43355000Y-57253968D01*
X43355000Y-57351990D01*
X43330149Y-57359528D01*
X43176613Y-57441595D01*
X43042038Y-57552038D01*
X42931595Y-57686613D01*
X42849528Y-57840149D01*
X42798992Y-58006745D01*
X42781928Y-58179999D01*
X42781928Y-58646300D01*
X36781711Y-58646300D01*
X36737774Y-58602363D01*
X36568256Y-58489095D01*
X36379898Y-58411074D01*
X36179939Y-58371300D01*
X35976061Y-58371300D01*
X35878072Y-58390791D01*
X35878072Y-58179999D01*
X35861008Y-58006745D01*
X35810472Y-57840149D01*
X35728405Y-57686613D01*
X35617962Y-57552038D01*
X35520726Y-57472238D01*
X35540000Y-57375339D01*
X35540000Y-57171461D01*
X35505436Y-56997697D01*
X35591082Y-57204463D01*
X35770013Y-57472252D01*
X35997748Y-57699987D01*
X36265537Y-57878918D01*
X36563088Y-58002168D01*
X36878967Y-58065000D01*
X37201033Y-58065000D01*
X37516912Y-58002168D01*
X37814463Y-57878918D01*
X38082252Y-57699987D01*
X38216826Y-57565413D01*
X40584192Y-57565413D01*
X40679956Y-57829814D01*
X40969571Y-57970704D01*
X41281108Y-58052384D01*
X41602595Y-58071718D01*
X41921675Y-58027961D01*
X42226088Y-57922795D01*
X42400044Y-57829814D01*
X42495808Y-57565413D01*
X41540000Y-56609605D01*
X40584192Y-57565413D01*
X38216826Y-57565413D01*
X38309987Y-57472252D01*
X38488918Y-57204463D01*
X38612168Y-56906912D01*
X38675000Y-56591033D01*
X38675000Y-56268967D01*
X38612168Y-55953088D01*
X38606177Y-55938625D01*
X38977202Y-55567600D01*
X40146691Y-55567600D01*
X40140186Y-55569956D01*
G36*
X20491082Y-20304463D02*
G01*
X20670013Y-20572252D01*
X20897748Y-20799987D01*
X21165537Y-20978918D01*
X21463088Y-21102168D01*
X21568294Y-21123095D01*
X24551100Y-24105902D01*
X24574899Y-24134901D01*
X24690624Y-24229874D01*
X24822653Y-24300446D01*
X24965914Y-24343903D01*
X25077567Y-24354900D01*
X25077575Y-24354900D01*
X25114900Y-24358576D01*
X25152225Y-24354900D01*
X27047306Y-24354900D01*
X26894102Y-24385374D01*
X26705744Y-24463395D01*
X26536226Y-24576663D01*
X26392063Y-24720826D01*
X26278795Y-24890344D01*
X26200774Y-25078702D01*
X26161000Y-25278661D01*
X26161000Y-25482539D01*
X26200774Y-25682498D01*
X26278795Y-25870856D01*
X26392063Y-26040374D01*
X26536226Y-26184537D01*
X26705744Y-26297805D01*
X26894102Y-26375826D01*
X27094061Y-26415600D01*
X27156199Y-26415600D01*
X31841500Y-31100902D01*
X31865299Y-31129901D01*
X31981024Y-31224874D01*
X32113053Y-31295446D01*
X32256314Y-31338903D01*
X32367967Y-31349900D01*
X32367975Y-31349900D01*
X32405300Y-31353576D01*
X32442625Y-31349900D01*
X34405400Y-31349900D01*
X34405401Y-44218068D01*
X34401724Y-44255400D01*
X34405401Y-44292733D01*
X34416398Y-44404386D01*
X34427201Y-44440000D01*
X34459854Y-44547646D01*
X34530426Y-44679676D01*
X34583046Y-44743793D01*
X34625400Y-44795401D01*
X34654398Y-44819199D01*
X35547615Y-45712417D01*
X35530000Y-45800976D01*
X35530000Y-46059024D01*
X35547615Y-46147583D01*
X34716399Y-46978800D01*
X27996525Y-46978800D01*
X27959200Y-46975124D01*
X27921875Y-46978800D01*
X27921867Y-46978800D01*
X27810214Y-46989797D01*
X27666953Y-47033254D01*
X27534924Y-47103826D01*
X27419199Y-47198799D01*
X27395401Y-47227797D01*
X24570690Y-50052509D01*
X24363411Y-49914010D01*
X24093158Y-49802068D01*
X23806260Y-49745000D01*
X23513740Y-49745000D01*
X23226842Y-49802068D01*
X22956589Y-49914010D01*
X22713368Y-50076525D01*
X22506525Y-50283368D01*
X22390000Y-50457760D01*
X22273475Y-50283368D01*
X22066632Y-50076525D01*
X21823411Y-49914010D01*
X21553158Y-49802068D01*
X21266260Y-49745000D01*
X20973740Y-49745000D01*
X20686842Y-49802068D01*
X20416589Y-49914010D01*
X20173368Y-50076525D01*
X19966525Y-50283368D01*
X19850000Y-50457760D01*
X19733475Y-50283368D01*
X19526632Y-50076525D01*
X19283411Y-49914010D01*
X19013158Y-49802068D01*
X18726260Y-49745000D01*
X18433740Y-49745000D01*
X18146842Y-49802068D01*
X17876589Y-49914010D01*
X17633368Y-50076525D01*
X17426525Y-50283368D01*
X17310000Y-50457760D01*
X17193475Y-50283368D01*
X16986632Y-50076525D01*
X16743411Y-49914010D01*
X16473158Y-49802068D01*
X16186260Y-49745000D01*
X15893740Y-49745000D01*
X15606842Y-49802068D01*
X15336589Y-49914010D01*
X15093368Y-50076525D01*
X14886525Y-50283368D01*
X14724010Y-50526589D01*
X14612068Y-50796842D01*
X14555000Y-51083740D01*
X14555000Y-51376260D01*
X14612068Y-51663158D01*
X14724010Y-51933411D01*
X14886525Y-52176632D01*
X15093368Y-52383475D01*
X15336589Y-52545990D01*
X15606842Y-52657932D01*
X15893740Y-52715000D01*
X16186260Y-52715000D01*
X16473158Y-52657932D01*
X16743411Y-52545990D01*
X16986632Y-52383475D01*
X17193475Y-52176632D01*
X17310000Y-52002240D01*
X17426525Y-52176632D01*
X17633368Y-52383475D01*
X17876589Y-52545990D01*
X18146842Y-52657932D01*
X18433740Y-52715000D01*
X18726260Y-52715000D01*
X19013158Y-52657932D01*
X19283411Y-52545990D01*
X19490690Y-52407491D01*
X20006401Y-52923202D01*
X20030199Y-52952201D01*
X20145924Y-53047174D01*
X20277953Y-53117746D01*
X20421214Y-53161203D01*
X20532867Y-53172200D01*
X20532875Y-53172200D01*
X20570200Y-53175876D01*
X20607525Y-53172200D01*
X26022998Y-53172200D01*
X22331376Y-56863823D01*
X22316912Y-56857832D01*
X22001033Y-56795000D01*
X21678967Y-56795000D01*
X21363088Y-56857832D01*
X21065537Y-56981082D01*
X20797748Y-57160013D01*
X20570013Y-57387748D01*
X20391082Y-57655537D01*
X20385091Y-57670000D01*
X16794909Y-57670000D01*
X16788918Y-57655537D01*
X16609987Y-57387748D01*
X16382252Y-57160013D01*
X16114463Y-56981082D01*
X15816912Y-56857832D01*
X15501033Y-56795000D01*
X15178967Y-56795000D01*
X14863088Y-56857832D01*
X14565537Y-56981082D01*
X14500000Y-57024872D01*
X14500000Y-40912418D01*
X17380000Y-40912418D01*
X17383228Y-40945193D01*
X17383228Y-40955575D01*
X17384191Y-40964740D01*
X17401595Y-41119899D01*
X17414031Y-41178402D01*
X17425651Y-41237090D01*
X17428376Y-41245893D01*
X17475586Y-41394717D01*
X17499147Y-41449689D01*
X17521946Y-41505004D01*
X17526329Y-41513110D01*
X17601546Y-41649930D01*
X17635324Y-41699261D01*
X17668446Y-41749114D01*
X17674320Y-41756215D01*
X17774680Y-41875819D01*
X17817430Y-41917682D01*
X17859570Y-41960118D01*
X17866711Y-41965942D01*
X17988391Y-42063774D01*
X18038421Y-42096512D01*
X18088037Y-42129979D01*
X18096174Y-42134305D01*
X18234539Y-42206641D01*
X18289974Y-42229038D01*
X18345146Y-42252231D01*
X18353968Y-42254894D01*
X18503749Y-42298977D01*
X18562468Y-42310178D01*
X18621105Y-42322215D01*
X18630276Y-42323114D01*
X18785767Y-42337265D01*
X18845586Y-42336847D01*
X18905406Y-42337265D01*
X18914577Y-42336365D01*
X19069853Y-42320044D01*
X19128405Y-42308025D01*
X19187205Y-42296808D01*
X19196027Y-42294144D01*
X19345177Y-42247976D01*
X19400315Y-42224798D01*
X19455789Y-42202385D01*
X19463918Y-42198062D01*
X19463922Y-42198060D01*
X19463925Y-42198058D01*
X19601267Y-42123797D01*
X19650816Y-42090375D01*
X19700912Y-42057594D01*
X19708053Y-42051769D01*
X19828356Y-41952247D01*
X19870517Y-41909791D01*
X19913247Y-41867946D01*
X19919121Y-41860846D01*
X20017801Y-41739852D01*
X20050911Y-41690017D01*
X20084699Y-41640671D01*
X20089082Y-41632565D01*
X20162382Y-41494707D01*
X20185163Y-41439436D01*
X20208744Y-41384419D01*
X20211467Y-41375620D01*
X20211469Y-41375614D01*
X20256595Y-41226146D01*
X20268211Y-41167481D01*
X20280651Y-41108957D01*
X20281614Y-41099792D01*
X20296850Y-40944406D01*
X20296850Y-40944402D01*
X20300000Y-40912419D01*
X20300000Y-34947581D01*
X20296772Y-34914806D01*
X20296772Y-34904425D01*
X20295809Y-34895260D01*
X20278405Y-34740101D01*
X20265969Y-34681598D01*
X20254349Y-34622910D01*
X20251624Y-34614107D01*
X20204414Y-34465282D01*
X20180847Y-34410297D01*
X20158054Y-34354996D01*
X20153671Y-34346890D01*
X20078454Y-34210070D01*
X20044678Y-34160741D01*
X20011554Y-34110885D01*
X20005680Y-34103785D01*
X19905320Y-33984181D01*
X19862587Y-33942334D01*
X19820430Y-33899882D01*
X19813289Y-33894058D01*
X19691609Y-33796225D01*
X19641556Y-33763472D01*
X19591963Y-33730020D01*
X19583826Y-33725694D01*
X19445460Y-33653359D01*
X19390018Y-33630959D01*
X19334854Y-33607770D01*
X19326032Y-33605106D01*
X19176252Y-33561023D01*
X19117525Y-33549820D01*
X19058895Y-33537785D01*
X19049724Y-33536886D01*
X18894234Y-33522735D01*
X18834414Y-33523153D01*
X18774594Y-33522735D01*
X18765423Y-33523635D01*
X18610146Y-33539956D01*
X18551581Y-33551978D01*
X18492795Y-33563192D01*
X18483973Y-33565856D01*
X18334823Y-33612025D01*
X18279717Y-33635189D01*
X18224211Y-33657615D01*
X18216082Y-33661938D01*
X18216078Y-33661940D01*
X18216075Y-33661942D01*
X18078733Y-33736203D01*
X18029161Y-33769640D01*
X17979088Y-33802406D01*
X17971947Y-33808231D01*
X17851644Y-33907754D01*
X17809486Y-33950207D01*
X17766753Y-33992054D01*
X17760884Y-33999149D01*
X17760880Y-33999153D01*
X17760879Y-33999155D01*
X17662199Y-34120148D01*
X17629074Y-34170006D01*
X17595301Y-34219329D01*
X17590918Y-34227435D01*
X17517618Y-34365292D01*
X17494836Y-34420565D01*
X17471256Y-34475581D01*
X17468533Y-34484380D01*
X17468533Y-34484382D01*
X17468532Y-34484384D01*
X17423405Y-34633853D01*
X17411788Y-34692526D01*
X17399349Y-34751043D01*
X17398386Y-34760208D01*
X17383150Y-34915595D01*
X17383150Y-34915608D01*
X17380001Y-34947581D01*
X17380000Y-40912418D01*
X14500000Y-40912418D01*
X14500000Y-28247760D01*
X15505000Y-28247760D01*
X15505000Y-28412240D01*
X15537089Y-28573560D01*
X15600033Y-28725521D01*
X15691413Y-28862281D01*
X15807719Y-28978587D01*
X15944479Y-29069967D01*
X16096440Y-29132911D01*
X16257760Y-29165000D01*
X16422240Y-29165000D01*
X16583560Y-29132911D01*
X16735521Y-29069967D01*
X16872281Y-28978587D01*
X16988587Y-28862281D01*
X17079967Y-28725521D01*
X17142911Y-28573560D01*
X17175000Y-28412240D01*
X17175000Y-28247760D01*
X17173041Y-28237911D01*
X17405000Y-28237911D01*
X17405000Y-28422089D01*
X17440932Y-28602729D01*
X17511414Y-28772889D01*
X17613738Y-28926028D01*
X17743972Y-29056262D01*
X17897111Y-29158586D01*
X18067271Y-29229068D01*
X18247911Y-29265000D01*
X18432089Y-29265000D01*
X18612729Y-29229068D01*
X18782889Y-29158586D01*
X18936028Y-29056262D01*
X19066262Y-28926028D01*
X19168586Y-28772889D01*
X19239068Y-28602729D01*
X19275000Y-28422089D01*
X19275000Y-28247760D01*
X19505000Y-28247760D01*
X19505000Y-28412240D01*
X19537089Y-28573560D01*
X19600033Y-28725521D01*
X19691413Y-28862281D01*
X19807719Y-28978587D01*
X19944479Y-29069967D01*
X20096440Y-29132911D01*
X20257760Y-29165000D01*
X20422240Y-29165000D01*
X20583560Y-29132911D01*
X20735521Y-29069967D01*
X20872281Y-28978587D01*
X20988587Y-28862281D01*
X21079967Y-28725521D01*
X21142911Y-28573560D01*
X21175000Y-28412240D01*
X21175000Y-28247760D01*
X21505000Y-28247760D01*
X21505000Y-28412240D01*
X21537089Y-28573560D01*
X21600033Y-28725521D01*
X21691413Y-28862281D01*
X21807719Y-28978587D01*
X21944479Y-29069967D01*
X22096440Y-29132911D01*
X22257760Y-29165000D01*
X22422240Y-29165000D01*
X22583560Y-29132911D01*
X22735521Y-29069967D01*
X22872281Y-28978587D01*
X22988587Y-28862281D01*
X23079967Y-28725521D01*
X23142911Y-28573560D01*
X23175000Y-28412240D01*
X23175000Y-28247760D01*
X23505000Y-28247760D01*
X23505000Y-28412240D01*
X23537089Y-28573560D01*
X23600033Y-28725521D01*
X23691413Y-28862281D01*
X23807719Y-28978587D01*
X23944479Y-29069967D01*
X24096440Y-29132911D01*
X24257760Y-29165000D01*
X24422240Y-29165000D01*
X24583560Y-29132911D01*
X24735521Y-29069967D01*
X24872281Y-28978587D01*
X24988587Y-28862281D01*
X25079967Y-28725521D01*
X25142911Y-28573560D01*
X25175000Y-28412240D01*
X25175000Y-28247760D01*
X25173041Y-28237911D01*
X25405000Y-28237911D01*
X25405000Y-28422089D01*
X25440932Y-28602729D01*
X25511414Y-28772889D01*
X25613738Y-28926028D01*
X25743972Y-29056262D01*
X25897111Y-29158586D01*
X26067271Y-29229068D01*
X26247911Y-29265000D01*
X26432089Y-29265000D01*
X26612729Y-29229068D01*
X26782889Y-29158586D01*
X26936028Y-29056262D01*
X27066262Y-28926028D01*
X27168586Y-28772889D01*
X27239068Y-28602729D01*
X27275000Y-28422089D01*
X27275000Y-28237911D01*
X27239068Y-28057271D01*
X27168586Y-27887111D01*
X27066262Y-27733972D01*
X26936028Y-27603738D01*
X26782889Y-27501414D01*
X26612729Y-27430932D01*
X26432089Y-27395000D01*
X26247911Y-27395000D01*
X26067271Y-27430932D01*
X25897111Y-27501414D01*
X25743972Y-27603738D01*
X25613738Y-27733972D01*
X25511414Y-27887111D01*
X25440932Y-28057271D01*
X25405000Y-28237911D01*
X25173041Y-28237911D01*
X25142911Y-28086440D01*
X25079967Y-27934479D01*
X24988587Y-27797719D01*
X24872281Y-27681413D01*
X24735521Y-27590033D01*
X24583560Y-27527089D01*
X24422240Y-27495000D01*
X24257760Y-27495000D01*
X24096440Y-27527089D01*
X23944479Y-27590033D01*
X23807719Y-27681413D01*
X23691413Y-27797719D01*
X23600033Y-27934479D01*
X23537089Y-28086440D01*
X23505000Y-28247760D01*
X23175000Y-28247760D01*
X23142911Y-28086440D01*
X23079967Y-27934479D01*
X22988587Y-27797719D01*
X22872281Y-27681413D01*
X22735521Y-27590033D01*
X22583560Y-27527089D01*
X22422240Y-27495000D01*
X22257760Y-27495000D01*
X22096440Y-27527089D01*
X21944479Y-27590033D01*
X21807719Y-27681413D01*
X21691413Y-27797719D01*
X21600033Y-27934479D01*
X21537089Y-28086440D01*
X21505000Y-28247760D01*
X21175000Y-28247760D01*
X21142911Y-28086440D01*
X21079967Y-27934479D01*
X20988587Y-27797719D01*
X20872281Y-27681413D01*
X20735521Y-27590033D01*
X20583560Y-27527089D01*
X20422240Y-27495000D01*
X20257760Y-27495000D01*
X20096440Y-27527089D01*
X19944479Y-27590033D01*
X19807719Y-27681413D01*
X19691413Y-27797719D01*
X19600033Y-27934479D01*
X19537089Y-28086440D01*
X19505000Y-28247760D01*
X19275000Y-28247760D01*
X19275000Y-28237911D01*
X19239068Y-28057271D01*
X19168586Y-27887111D01*
X19066262Y-27733972D01*
X18936028Y-27603738D01*
X18782889Y-27501414D01*
X18612729Y-27430932D01*
X18432089Y-27395000D01*
X18247911Y-27395000D01*
X18067271Y-27430932D01*
X17897111Y-27501414D01*
X17743972Y-27603738D01*
X17613738Y-27733972D01*
X17511414Y-27887111D01*
X17440932Y-28057271D01*
X17405000Y-28237911D01*
X17173041Y-28237911D01*
X17142911Y-28086440D01*
X17079967Y-27934479D01*
X16988587Y-27797719D01*
X16872281Y-27681413D01*
X16735521Y-27590033D01*
X16583560Y-27527089D01*
X16422240Y-27495000D01*
X16257760Y-27495000D01*
X16096440Y-27527089D01*
X15944479Y-27590033D01*
X15807719Y-27681413D01*
X15691413Y-27797719D01*
X15600033Y-27934479D01*
X15537089Y-28086440D01*
X15505000Y-28247760D01*
X14500000Y-28247760D01*
X14500000Y-20868310D01*
X14665537Y-20978918D01*
X14963088Y-21102168D01*
X15278967Y-21165000D01*
X15601033Y-21165000D01*
X15916912Y-21102168D01*
X16214463Y-20978918D01*
X16482252Y-20799987D01*
X16709987Y-20572252D01*
X16888918Y-20304463D01*
X16894909Y-20290000D01*
X20485091Y-20290000D01*
X20491082Y-20304463D01*
G37*
X20491082Y-20304463D02*
X20670013Y-20572252D01*
X20897748Y-20799987D01*
X21165537Y-20978918D01*
X21463088Y-21102168D01*
X21568294Y-21123095D01*
X24551100Y-24105902D01*
X24574899Y-24134901D01*
X24690624Y-24229874D01*
X24822653Y-24300446D01*
X24965914Y-24343903D01*
X25077567Y-24354900D01*
X25077575Y-24354900D01*
X25114900Y-24358576D01*
X25152225Y-24354900D01*
X27047306Y-24354900D01*
X26894102Y-24385374D01*
X26705744Y-24463395D01*
X26536226Y-24576663D01*
X26392063Y-24720826D01*
X26278795Y-24890344D01*
X26200774Y-25078702D01*
X26161000Y-25278661D01*
X26161000Y-25482539D01*
X26200774Y-25682498D01*
X26278795Y-25870856D01*
X26392063Y-26040374D01*
X26536226Y-26184537D01*
X26705744Y-26297805D01*
X26894102Y-26375826D01*
X27094061Y-26415600D01*
X27156199Y-26415600D01*
X31841500Y-31100902D01*
X31865299Y-31129901D01*
X31981024Y-31224874D01*
X32113053Y-31295446D01*
X32256314Y-31338903D01*
X32367967Y-31349900D01*
X32367975Y-31349900D01*
X32405300Y-31353576D01*
X32442625Y-31349900D01*
X34405400Y-31349900D01*
X34405401Y-44218068D01*
X34401724Y-44255400D01*
X34405401Y-44292733D01*
X34416398Y-44404386D01*
X34427201Y-44440000D01*
X34459854Y-44547646D01*
X34530426Y-44679676D01*
X34583046Y-44743793D01*
X34625400Y-44795401D01*
X34654398Y-44819199D01*
X35547615Y-45712417D01*
X35530000Y-45800976D01*
X35530000Y-46059024D01*
X35547615Y-46147583D01*
X34716399Y-46978800D01*
X27996525Y-46978800D01*
X27959200Y-46975124D01*
X27921875Y-46978800D01*
X27921867Y-46978800D01*
X27810214Y-46989797D01*
X27666953Y-47033254D01*
X27534924Y-47103826D01*
X27419199Y-47198799D01*
X27395401Y-47227797D01*
X24570690Y-50052509D01*
X24363411Y-49914010D01*
X24093158Y-49802068D01*
X23806260Y-49745000D01*
X23513740Y-49745000D01*
X23226842Y-49802068D01*
X22956589Y-49914010D01*
X22713368Y-50076525D01*
X22506525Y-50283368D01*
X22390000Y-50457760D01*
X22273475Y-50283368D01*
X22066632Y-50076525D01*
X21823411Y-49914010D01*
X21553158Y-49802068D01*
X21266260Y-49745000D01*
X20973740Y-49745000D01*
X20686842Y-49802068D01*
X20416589Y-49914010D01*
X20173368Y-50076525D01*
X19966525Y-50283368D01*
X19850000Y-50457760D01*
X19733475Y-50283368D01*
X19526632Y-50076525D01*
X19283411Y-49914010D01*
X19013158Y-49802068D01*
X18726260Y-49745000D01*
X18433740Y-49745000D01*
X18146842Y-49802068D01*
X17876589Y-49914010D01*
X17633368Y-50076525D01*
X17426525Y-50283368D01*
X17310000Y-50457760D01*
X17193475Y-50283368D01*
X16986632Y-50076525D01*
X16743411Y-49914010D01*
X16473158Y-49802068D01*
X16186260Y-49745000D01*
X15893740Y-49745000D01*
X15606842Y-49802068D01*
X15336589Y-49914010D01*
X15093368Y-50076525D01*
X14886525Y-50283368D01*
X14724010Y-50526589D01*
X14612068Y-50796842D01*
X14555000Y-51083740D01*
X14555000Y-51376260D01*
X14612068Y-51663158D01*
X14724010Y-51933411D01*
X14886525Y-52176632D01*
X15093368Y-52383475D01*
X15336589Y-52545990D01*
X15606842Y-52657932D01*
X15893740Y-52715000D01*
X16186260Y-52715000D01*
X16473158Y-52657932D01*
X16743411Y-52545990D01*
X16986632Y-52383475D01*
X17193475Y-52176632D01*
X17310000Y-52002240D01*
X17426525Y-52176632D01*
X17633368Y-52383475D01*
X17876589Y-52545990D01*
X18146842Y-52657932D01*
X18433740Y-52715000D01*
X18726260Y-52715000D01*
X19013158Y-52657932D01*
X19283411Y-52545990D01*
X19490690Y-52407491D01*
X20006401Y-52923202D01*
X20030199Y-52952201D01*
X20145924Y-53047174D01*
X20277953Y-53117746D01*
X20421214Y-53161203D01*
X20532867Y-53172200D01*
X20532875Y-53172200D01*
X20570200Y-53175876D01*
X20607525Y-53172200D01*
X26022998Y-53172200D01*
X22331376Y-56863823D01*
X22316912Y-56857832D01*
X22001033Y-56795000D01*
X21678967Y-56795000D01*
X21363088Y-56857832D01*
X21065537Y-56981082D01*
X20797748Y-57160013D01*
X20570013Y-57387748D01*
X20391082Y-57655537D01*
X20385091Y-57670000D01*
X16794909Y-57670000D01*
X16788918Y-57655537D01*
X16609987Y-57387748D01*
X16382252Y-57160013D01*
X16114463Y-56981082D01*
X15816912Y-56857832D01*
X15501033Y-56795000D01*
X15178967Y-56795000D01*
X14863088Y-56857832D01*
X14565537Y-56981082D01*
X14500000Y-57024872D01*
X14500000Y-40912418D01*
X17380000Y-40912418D01*
X17383228Y-40945193D01*
X17383228Y-40955575D01*
X17384191Y-40964740D01*
X17401595Y-41119899D01*
X17414031Y-41178402D01*
X17425651Y-41237090D01*
X17428376Y-41245893D01*
X17475586Y-41394717D01*
X17499147Y-41449689D01*
X17521946Y-41505004D01*
X17526329Y-41513110D01*
X17601546Y-41649930D01*
X17635324Y-41699261D01*
X17668446Y-41749114D01*
X17674320Y-41756215D01*
X17774680Y-41875819D01*
X17817430Y-41917682D01*
X17859570Y-41960118D01*
X17866711Y-41965942D01*
X17988391Y-42063774D01*
X18038421Y-42096512D01*
X18088037Y-42129979D01*
X18096174Y-42134305D01*
X18234539Y-42206641D01*
X18289974Y-42229038D01*
X18345146Y-42252231D01*
X18353968Y-42254894D01*
X18503749Y-42298977D01*
X18562468Y-42310178D01*
X18621105Y-42322215D01*
X18630276Y-42323114D01*
X18785767Y-42337265D01*
X18845586Y-42336847D01*
X18905406Y-42337265D01*
X18914577Y-42336365D01*
X19069853Y-42320044D01*
X19128405Y-42308025D01*
X19187205Y-42296808D01*
X19196027Y-42294144D01*
X19345177Y-42247976D01*
X19400315Y-42224798D01*
X19455789Y-42202385D01*
X19463918Y-42198062D01*
X19463922Y-42198060D01*
X19463925Y-42198058D01*
X19601267Y-42123797D01*
X19650816Y-42090375D01*
X19700912Y-42057594D01*
X19708053Y-42051769D01*
X19828356Y-41952247D01*
X19870517Y-41909791D01*
X19913247Y-41867946D01*
X19919121Y-41860846D01*
X20017801Y-41739852D01*
X20050911Y-41690017D01*
X20084699Y-41640671D01*
X20089082Y-41632565D01*
X20162382Y-41494707D01*
X20185163Y-41439436D01*
X20208744Y-41384419D01*
X20211467Y-41375620D01*
X20211469Y-41375614D01*
X20256595Y-41226146D01*
X20268211Y-41167481D01*
X20280651Y-41108957D01*
X20281614Y-41099792D01*
X20296850Y-40944406D01*
X20296850Y-40944402D01*
X20300000Y-40912419D01*
X20300000Y-34947581D01*
X20296772Y-34914806D01*
X20296772Y-34904425D01*
X20295809Y-34895260D01*
X20278405Y-34740101D01*
X20265969Y-34681598D01*
X20254349Y-34622910D01*
X20251624Y-34614107D01*
X20204414Y-34465282D01*
X20180847Y-34410297D01*
X20158054Y-34354996D01*
X20153671Y-34346890D01*
X20078454Y-34210070D01*
X20044678Y-34160741D01*
X20011554Y-34110885D01*
X20005680Y-34103785D01*
X19905320Y-33984181D01*
X19862587Y-33942334D01*
X19820430Y-33899882D01*
X19813289Y-33894058D01*
X19691609Y-33796225D01*
X19641556Y-33763472D01*
X19591963Y-33730020D01*
X19583826Y-33725694D01*
X19445460Y-33653359D01*
X19390018Y-33630959D01*
X19334854Y-33607770D01*
X19326032Y-33605106D01*
X19176252Y-33561023D01*
X19117525Y-33549820D01*
X19058895Y-33537785D01*
X19049724Y-33536886D01*
X18894234Y-33522735D01*
X18834414Y-33523153D01*
X18774594Y-33522735D01*
X18765423Y-33523635D01*
X18610146Y-33539956D01*
X18551581Y-33551978D01*
X18492795Y-33563192D01*
X18483973Y-33565856D01*
X18334823Y-33612025D01*
X18279717Y-33635189D01*
X18224211Y-33657615D01*
X18216082Y-33661938D01*
X18216078Y-33661940D01*
X18216075Y-33661942D01*
X18078733Y-33736203D01*
X18029161Y-33769640D01*
X17979088Y-33802406D01*
X17971947Y-33808231D01*
X17851644Y-33907754D01*
X17809486Y-33950207D01*
X17766753Y-33992054D01*
X17760884Y-33999149D01*
X17760880Y-33999153D01*
X17760879Y-33999155D01*
X17662199Y-34120148D01*
X17629074Y-34170006D01*
X17595301Y-34219329D01*
X17590918Y-34227435D01*
X17517618Y-34365292D01*
X17494836Y-34420565D01*
X17471256Y-34475581D01*
X17468533Y-34484380D01*
X17468533Y-34484382D01*
X17468532Y-34484384D01*
X17423405Y-34633853D01*
X17411788Y-34692526D01*
X17399349Y-34751043D01*
X17398386Y-34760208D01*
X17383150Y-34915595D01*
X17383150Y-34915608D01*
X17380001Y-34947581D01*
X17380000Y-40912418D01*
X14500000Y-40912418D01*
X14500000Y-28247760D01*
X15505000Y-28247760D01*
X15505000Y-28412240D01*
X15537089Y-28573560D01*
X15600033Y-28725521D01*
X15691413Y-28862281D01*
X15807719Y-28978587D01*
X15944479Y-29069967D01*
X16096440Y-29132911D01*
X16257760Y-29165000D01*
X16422240Y-29165000D01*
X16583560Y-29132911D01*
X16735521Y-29069967D01*
X16872281Y-28978587D01*
X16988587Y-28862281D01*
X17079967Y-28725521D01*
X17142911Y-28573560D01*
X17175000Y-28412240D01*
X17175000Y-28247760D01*
X17173041Y-28237911D01*
X17405000Y-28237911D01*
X17405000Y-28422089D01*
X17440932Y-28602729D01*
X17511414Y-28772889D01*
X17613738Y-28926028D01*
X17743972Y-29056262D01*
X17897111Y-29158586D01*
X18067271Y-29229068D01*
X18247911Y-29265000D01*
X18432089Y-29265000D01*
X18612729Y-29229068D01*
X18782889Y-29158586D01*
X18936028Y-29056262D01*
X19066262Y-28926028D01*
X19168586Y-28772889D01*
X19239068Y-28602729D01*
X19275000Y-28422089D01*
X19275000Y-28247760D01*
X19505000Y-28247760D01*
X19505000Y-28412240D01*
X19537089Y-28573560D01*
X19600033Y-28725521D01*
X19691413Y-28862281D01*
X19807719Y-28978587D01*
X19944479Y-29069967D01*
X20096440Y-29132911D01*
X20257760Y-29165000D01*
X20422240Y-29165000D01*
X20583560Y-29132911D01*
X20735521Y-29069967D01*
X20872281Y-28978587D01*
X20988587Y-28862281D01*
X21079967Y-28725521D01*
X21142911Y-28573560D01*
X21175000Y-28412240D01*
X21175000Y-28247760D01*
X21505000Y-28247760D01*
X21505000Y-28412240D01*
X21537089Y-28573560D01*
X21600033Y-28725521D01*
X21691413Y-28862281D01*
X21807719Y-28978587D01*
X21944479Y-29069967D01*
X22096440Y-29132911D01*
X22257760Y-29165000D01*
X22422240Y-29165000D01*
X22583560Y-29132911D01*
X22735521Y-29069967D01*
X22872281Y-28978587D01*
X22988587Y-28862281D01*
X23079967Y-28725521D01*
X23142911Y-28573560D01*
X23175000Y-28412240D01*
X23175000Y-28247760D01*
X23505000Y-28247760D01*
X23505000Y-28412240D01*
X23537089Y-28573560D01*
X23600033Y-28725521D01*
X23691413Y-28862281D01*
X23807719Y-28978587D01*
X23944479Y-29069967D01*
X24096440Y-29132911D01*
X24257760Y-29165000D01*
X24422240Y-29165000D01*
X24583560Y-29132911D01*
X24735521Y-29069967D01*
X24872281Y-28978587D01*
X24988587Y-28862281D01*
X25079967Y-28725521D01*
X25142911Y-28573560D01*
X25175000Y-28412240D01*
X25175000Y-28247760D01*
X25173041Y-28237911D01*
X25405000Y-28237911D01*
X25405000Y-28422089D01*
X25440932Y-28602729D01*
X25511414Y-28772889D01*
X25613738Y-28926028D01*
X25743972Y-29056262D01*
X25897111Y-29158586D01*
X26067271Y-29229068D01*
X26247911Y-29265000D01*
X26432089Y-29265000D01*
X26612729Y-29229068D01*
X26782889Y-29158586D01*
X26936028Y-29056262D01*
X27066262Y-28926028D01*
X27168586Y-28772889D01*
X27239068Y-28602729D01*
X27275000Y-28422089D01*
X27275000Y-28237911D01*
X27239068Y-28057271D01*
X27168586Y-27887111D01*
X27066262Y-27733972D01*
X26936028Y-27603738D01*
X26782889Y-27501414D01*
X26612729Y-27430932D01*
X26432089Y-27395000D01*
X26247911Y-27395000D01*
X26067271Y-27430932D01*
X25897111Y-27501414D01*
X25743972Y-27603738D01*
X25613738Y-27733972D01*
X25511414Y-27887111D01*
X25440932Y-28057271D01*
X25405000Y-28237911D01*
X25173041Y-28237911D01*
X25142911Y-28086440D01*
X25079967Y-27934479D01*
X24988587Y-27797719D01*
X24872281Y-27681413D01*
X24735521Y-27590033D01*
X24583560Y-27527089D01*
X24422240Y-27495000D01*
X24257760Y-27495000D01*
X24096440Y-27527089D01*
X23944479Y-27590033D01*
X23807719Y-27681413D01*
X23691413Y-27797719D01*
X23600033Y-27934479D01*
X23537089Y-28086440D01*
X23505000Y-28247760D01*
X23175000Y-28247760D01*
X23142911Y-28086440D01*
X23079967Y-27934479D01*
X22988587Y-27797719D01*
X22872281Y-27681413D01*
X22735521Y-27590033D01*
X22583560Y-27527089D01*
X22422240Y-27495000D01*
X22257760Y-27495000D01*
X22096440Y-27527089D01*
X21944479Y-27590033D01*
X21807719Y-27681413D01*
X21691413Y-27797719D01*
X21600033Y-27934479D01*
X21537089Y-28086440D01*
X21505000Y-28247760D01*
X21175000Y-28247760D01*
X21142911Y-28086440D01*
X21079967Y-27934479D01*
X20988587Y-27797719D01*
X20872281Y-27681413D01*
X20735521Y-27590033D01*
X20583560Y-27527089D01*
X20422240Y-27495000D01*
X20257760Y-27495000D01*
X20096440Y-27527089D01*
X19944479Y-27590033D01*
X19807719Y-27681413D01*
X19691413Y-27797719D01*
X19600033Y-27934479D01*
X19537089Y-28086440D01*
X19505000Y-28247760D01*
X19275000Y-28247760D01*
X19275000Y-28237911D01*
X19239068Y-28057271D01*
X19168586Y-27887111D01*
X19066262Y-27733972D01*
X18936028Y-27603738D01*
X18782889Y-27501414D01*
X18612729Y-27430932D01*
X18432089Y-27395000D01*
X18247911Y-27395000D01*
X18067271Y-27430932D01*
X17897111Y-27501414D01*
X17743972Y-27603738D01*
X17613738Y-27733972D01*
X17511414Y-27887111D01*
X17440932Y-28057271D01*
X17405000Y-28237911D01*
X17173041Y-28237911D01*
X17142911Y-28086440D01*
X17079967Y-27934479D01*
X16988587Y-27797719D01*
X16872281Y-27681413D01*
X16735521Y-27590033D01*
X16583560Y-27527089D01*
X16422240Y-27495000D01*
X16257760Y-27495000D01*
X16096440Y-27527089D01*
X15944479Y-27590033D01*
X15807719Y-27681413D01*
X15691413Y-27797719D01*
X15600033Y-27934479D01*
X15537089Y-28086440D01*
X15505000Y-28247760D01*
X14500000Y-28247760D01*
X14500000Y-20868310D01*
X14665537Y-20978918D01*
X14963088Y-21102168D01*
X15278967Y-21165000D01*
X15601033Y-21165000D01*
X15916912Y-21102168D01*
X16214463Y-20978918D01*
X16482252Y-20799987D01*
X16709987Y-20572252D01*
X16888918Y-20304463D01*
X16894909Y-20290000D01*
X20485091Y-20290000D01*
X20491082Y-20304463D01*
G36*
X52113599Y-53040200D02*
G01*
X46887911Y-53040200D01*
X46843974Y-52996263D01*
X46674456Y-52882995D01*
X46486098Y-52804974D01*
X46286139Y-52765200D01*
X46082261Y-52765200D01*
X45882302Y-52804974D01*
X45693944Y-52882995D01*
X45524426Y-52996263D01*
X45380263Y-53140426D01*
X45266995Y-53309944D01*
X45188974Y-53498302D01*
X45149200Y-53698261D01*
X45149200Y-53902139D01*
X45178134Y-54047600D01*
X38699722Y-54047600D01*
X38662399Y-54043924D01*
X38625076Y-54047600D01*
X38625067Y-54047600D01*
X38513414Y-54058597D01*
X38401827Y-54092446D01*
X38370153Y-54102054D01*
X38238123Y-54172626D01*
X38154483Y-54241268D01*
X38122399Y-54267599D01*
X38098601Y-54296597D01*
X37531375Y-54863823D01*
X37516912Y-54857832D01*
X37201033Y-54795000D01*
X36878967Y-54795000D01*
X36563088Y-54857832D01*
X36343521Y-54948780D01*
X39584102Y-51708200D01*
X49997278Y-51708200D01*
X50034600Y-51711876D01*
X50071922Y-51708200D01*
X50071933Y-51708200D01*
X50183586Y-51697203D01*
X50326847Y-51653746D01*
X50458876Y-51583174D01*
X50574601Y-51488201D01*
X50598404Y-51459197D01*
X52679002Y-49378600D01*
X55775198Y-49378600D01*
X52113599Y-53040200D01*
G37*
X52113599Y-53040200D02*
X46887911Y-53040200D01*
X46843974Y-52996263D01*
X46674456Y-52882995D01*
X46486098Y-52804974D01*
X46286139Y-52765200D01*
X46082261Y-52765200D01*
X45882302Y-52804974D01*
X45693944Y-52882995D01*
X45524426Y-52996263D01*
X45380263Y-53140426D01*
X45266995Y-53309944D01*
X45188974Y-53498302D01*
X45149200Y-53698261D01*
X45149200Y-53902139D01*
X45178134Y-54047600D01*
X38699722Y-54047600D01*
X38662399Y-54043924D01*
X38625076Y-54047600D01*
X38625067Y-54047600D01*
X38513414Y-54058597D01*
X38401827Y-54092446D01*
X38370153Y-54102054D01*
X38238123Y-54172626D01*
X38154483Y-54241268D01*
X38122399Y-54267599D01*
X38098601Y-54296597D01*
X37531375Y-54863823D01*
X37516912Y-54857832D01*
X37201033Y-54795000D01*
X36878967Y-54795000D01*
X36563088Y-54857832D01*
X36343521Y-54948780D01*
X39584102Y-51708200D01*
X49997278Y-51708200D01*
X50034600Y-51711876D01*
X50071922Y-51708200D01*
X50071933Y-51708200D01*
X50183586Y-51697203D01*
X50326847Y-51653746D01*
X50458876Y-51583174D01*
X50574601Y-51488201D01*
X50598404Y-51459197D01*
X52679002Y-49378600D01*
X55775198Y-49378600D01*
X52113599Y-53040200D01*
G36*
X32354423Y-48524426D02*
G01*
X32280860Y-48584798D01*
X32238699Y-48619399D01*
X32214901Y-48648397D01*
X30226675Y-50636624D01*
X30228072Y-50380000D01*
X30215812Y-50255518D01*
X30179502Y-50135820D01*
X30120537Y-50025506D01*
X30041185Y-49928815D01*
X29944494Y-49849463D01*
X29834180Y-49790498D01*
X29714482Y-49754188D01*
X29590000Y-49741928D01*
X29025750Y-49745000D01*
X28867000Y-49903750D01*
X28867000Y-51103000D01*
X28887000Y-51103000D01*
X28887000Y-51357000D01*
X28867000Y-51357000D01*
X28867000Y-51377000D01*
X28613000Y-51377000D01*
X28613000Y-51357000D01*
X26327000Y-51357000D01*
X26327000Y-51377000D01*
X26073000Y-51377000D01*
X26073000Y-51357000D01*
X26053000Y-51357000D01*
X26053000Y-51103000D01*
X26073000Y-51103000D01*
X26073000Y-51083000D01*
X26327000Y-51083000D01*
X26327000Y-51103000D01*
X28613000Y-51103000D01*
X28613000Y-49903750D01*
X28454250Y-49745000D01*
X27890000Y-49741928D01*
X27765518Y-49754188D01*
X27645820Y-49790498D01*
X27535506Y-49849463D01*
X27438815Y-49928815D01*
X27359463Y-50025506D01*
X27300498Y-50135820D01*
X27276034Y-50216466D01*
X27200269Y-50132412D01*
X26966920Y-49958359D01*
X26863637Y-49909164D01*
X28274002Y-48498800D01*
X32402366Y-48498800D01*
X32354423Y-48524426D01*
G37*
X32354423Y-48524426D02*
X32280860Y-48584798D01*
X32238699Y-48619399D01*
X32214901Y-48648397D01*
X30226675Y-50636624D01*
X30228072Y-50380000D01*
X30215812Y-50255518D01*
X30179502Y-50135820D01*
X30120537Y-50025506D01*
X30041185Y-49928815D01*
X29944494Y-49849463D01*
X29834180Y-49790498D01*
X29714482Y-49754188D01*
X29590000Y-49741928D01*
X29025750Y-49745000D01*
X28867000Y-49903750D01*
X28867000Y-51103000D01*
X28887000Y-51103000D01*
X28887000Y-51357000D01*
X28867000Y-51357000D01*
X28867000Y-51377000D01*
X28613000Y-51377000D01*
X28613000Y-51357000D01*
X26327000Y-51357000D01*
X26327000Y-51377000D01*
X26073000Y-51377000D01*
X26073000Y-51357000D01*
X26053000Y-51357000D01*
X26053000Y-51103000D01*
X26073000Y-51103000D01*
X26073000Y-51083000D01*
X26327000Y-51083000D01*
X26327000Y-51103000D01*
X28613000Y-51103000D01*
X28613000Y-49903750D01*
X28454250Y-49745000D01*
X27890000Y-49741928D01*
X27765518Y-49754188D01*
X27645820Y-49790498D01*
X27535506Y-49849463D01*
X27438815Y-49928815D01*
X27359463Y-50025506D01*
X27300498Y-50135820D01*
X27276034Y-50216466D01*
X27200269Y-50132412D01*
X26966920Y-49958359D01*
X26863637Y-49909164D01*
X28274002Y-48498800D01*
X32402366Y-48498800D01*
X32354423Y-48524426D01*
G36*
X49719799Y-50188200D02*
G01*
X39306623Y-50188200D01*
X39269300Y-50184524D01*
X39231977Y-50188200D01*
X39231967Y-50188200D01*
X39177036Y-50193610D01*
X39179526Y-50187598D01*
X39219300Y-49987639D01*
X39219300Y-49919400D01*
X42606396Y-49919400D01*
X42619199Y-49935001D01*
X42734924Y-50029974D01*
X42866953Y-50100546D01*
X43010214Y-50144003D01*
X43121867Y-50155000D01*
X43121875Y-50155000D01*
X43159200Y-50158676D01*
X43196525Y-50155000D01*
X45054178Y-50155000D01*
X45091500Y-50158676D01*
X45128822Y-50155000D01*
X45128833Y-50155000D01*
X45240486Y-50144003D01*
X45383747Y-50100546D01*
X45515776Y-50029974D01*
X45631501Y-49935001D01*
X45655304Y-49905997D01*
X46874902Y-48686400D01*
X51221598Y-48686400D01*
X49719799Y-50188200D01*
G37*
X49719799Y-50188200D02*
X39306623Y-50188200D01*
X39269300Y-50184524D01*
X39231977Y-50188200D01*
X39231967Y-50188200D01*
X39177036Y-50193610D01*
X39179526Y-50187598D01*
X39219300Y-49987639D01*
X39219300Y-49919400D01*
X42606396Y-49919400D01*
X42619199Y-49935001D01*
X42734924Y-50029974D01*
X42866953Y-50100546D01*
X43010214Y-50144003D01*
X43121867Y-50155000D01*
X43121875Y-50155000D01*
X43159200Y-50158676D01*
X43196525Y-50155000D01*
X45054178Y-50155000D01*
X45091500Y-50158676D01*
X45128822Y-50155000D01*
X45128833Y-50155000D01*
X45240486Y-50144003D01*
X45383747Y-50100546D01*
X45515776Y-50029974D01*
X45631501Y-49935001D01*
X45655304Y-49905997D01*
X46874902Y-48686400D01*
X51221598Y-48686400D01*
X49719799Y-50188200D01*
G36*
X36710976Y-47240000D02*
G01*
X36908808Y-47240000D01*
X36940000Y-47243072D01*
X37145425Y-47243072D01*
X37205026Y-47354576D01*
X37299999Y-47470301D01*
X37415724Y-47565274D01*
X37547753Y-47635846D01*
X37691014Y-47679303D01*
X37802667Y-47690300D01*
X37840000Y-47693977D01*
X37877333Y-47690300D01*
X42486499Y-47690300D01*
X42980000Y-48183802D01*
X42980000Y-48245939D01*
X43011516Y-48404382D01*
X42960933Y-48399400D01*
X42960922Y-48399400D01*
X42923600Y-48395724D01*
X42886278Y-48399400D01*
X35407534Y-48399400D01*
X35455476Y-48373774D01*
X35571201Y-48278801D01*
X35595003Y-48249798D01*
X36622417Y-47222385D01*
X36710976Y-47240000D01*
G37*
X36710976Y-47240000D02*
X36908808Y-47240000D01*
X36940000Y-47243072D01*
X37145425Y-47243072D01*
X37205026Y-47354576D01*
X37299999Y-47470301D01*
X37415724Y-47565274D01*
X37547753Y-47635846D01*
X37691014Y-47679303D01*
X37802667Y-47690300D01*
X37840000Y-47693977D01*
X37877333Y-47690300D01*
X42486499Y-47690300D01*
X42980000Y-48183802D01*
X42980000Y-48245939D01*
X43011516Y-48404382D01*
X42960933Y-48399400D01*
X42960922Y-48399400D01*
X42923600Y-48395724D01*
X42886278Y-48399400D01*
X35407534Y-48399400D01*
X35455476Y-48373774D01*
X35571201Y-48278801D01*
X35595003Y-48249798D01*
X36622417Y-47222385D01*
X36710976Y-47240000D01*
G36*
X48030300Y-45106661D02*
G01*
X48030300Y-45310539D01*
X48070074Y-45510498D01*
X48148095Y-45698856D01*
X48261363Y-45868374D01*
X48405526Y-46012537D01*
X48575044Y-46125805D01*
X48763402Y-46203826D01*
X48963361Y-46243600D01*
X49167239Y-46243600D01*
X49367198Y-46203826D01*
X49555556Y-46125805D01*
X49725074Y-46012537D01*
X49769011Y-45968600D01*
X52003371Y-45968600D01*
X52005000Y-46294250D01*
X52163750Y-46453000D01*
X54513000Y-46453000D01*
X54513000Y-46433000D01*
X54767000Y-46433000D01*
X54767000Y-46453000D01*
X57116250Y-46453000D01*
X57275000Y-46294250D01*
X57278072Y-45680000D01*
X57265812Y-45555518D01*
X57229502Y-45435820D01*
X57214097Y-45407000D01*
X59380398Y-45407000D01*
X58852799Y-45934600D01*
X58534622Y-45934600D01*
X58497299Y-45930924D01*
X58459976Y-45934600D01*
X58459967Y-45934600D01*
X58348314Y-45945597D01*
X58205053Y-45989054D01*
X58073024Y-46059626D01*
X57957299Y-46154599D01*
X57933501Y-46183597D01*
X57263174Y-46853924D01*
X57116250Y-46707000D01*
X54767000Y-46707000D01*
X54767000Y-46727000D01*
X54513000Y-46727000D01*
X54513000Y-46707000D01*
X52163750Y-46707000D01*
X52005000Y-46865750D01*
X52003496Y-47166400D01*
X46597422Y-47166400D01*
X46560099Y-47162724D01*
X46522776Y-47166400D01*
X46522767Y-47166400D01*
X46411114Y-47177397D01*
X46318130Y-47205603D01*
X46267853Y-47220854D01*
X46135823Y-47291426D01*
X46063082Y-47351124D01*
X46020099Y-47386399D01*
X45996301Y-47415397D01*
X45021257Y-48390442D01*
X45050000Y-48245939D01*
X45050000Y-48042061D01*
X45010226Y-47842102D01*
X44932205Y-47653744D01*
X44818937Y-47484226D01*
X44674774Y-47340063D01*
X44505256Y-47226795D01*
X44316898Y-47148774D01*
X44116939Y-47109000D01*
X44054802Y-47109000D01*
X43365104Y-46419303D01*
X43341301Y-46390299D01*
X43225576Y-46295326D01*
X43093547Y-46224754D01*
X42950286Y-46181297D01*
X42838633Y-46170300D01*
X42838622Y-46170300D01*
X42801300Y-46166624D01*
X42763978Y-46170300D01*
X42120458Y-46170300D01*
X42172405Y-46092556D01*
X42250426Y-45904198D01*
X42290200Y-45704239D01*
X42290200Y-45642101D01*
X42992302Y-44940000D01*
X48063451Y-44940000D01*
X48030300Y-45106661D01*
G37*
X48030300Y-45106661D02*
X48030300Y-45310539D01*
X48070074Y-45510498D01*
X48148095Y-45698856D01*
X48261363Y-45868374D01*
X48405526Y-46012537D01*
X48575044Y-46125805D01*
X48763402Y-46203826D01*
X48963361Y-46243600D01*
X49167239Y-46243600D01*
X49367198Y-46203826D01*
X49555556Y-46125805D01*
X49725074Y-46012537D01*
X49769011Y-45968600D01*
X52003371Y-45968600D01*
X52005000Y-46294250D01*
X52163750Y-46453000D01*
X54513000Y-46453000D01*
X54513000Y-46433000D01*
X54767000Y-46433000D01*
X54767000Y-46453000D01*
X57116250Y-46453000D01*
X57275000Y-46294250D01*
X57278072Y-45680000D01*
X57265812Y-45555518D01*
X57229502Y-45435820D01*
X57214097Y-45407000D01*
X59380398Y-45407000D01*
X58852799Y-45934600D01*
X58534622Y-45934600D01*
X58497299Y-45930924D01*
X58459976Y-45934600D01*
X58459967Y-45934600D01*
X58348314Y-45945597D01*
X58205053Y-45989054D01*
X58073024Y-46059626D01*
X57957299Y-46154599D01*
X57933501Y-46183597D01*
X57263174Y-46853924D01*
X57116250Y-46707000D01*
X54767000Y-46707000D01*
X54767000Y-46727000D01*
X54513000Y-46727000D01*
X54513000Y-46707000D01*
X52163750Y-46707000D01*
X52005000Y-46865750D01*
X52003496Y-47166400D01*
X46597422Y-47166400D01*
X46560099Y-47162724D01*
X46522776Y-47166400D01*
X46522767Y-47166400D01*
X46411114Y-47177397D01*
X46318130Y-47205603D01*
X46267853Y-47220854D01*
X46135823Y-47291426D01*
X46063082Y-47351124D01*
X46020099Y-47386399D01*
X45996301Y-47415397D01*
X45021257Y-48390442D01*
X45050000Y-48245939D01*
X45050000Y-48042061D01*
X45010226Y-47842102D01*
X44932205Y-47653744D01*
X44818937Y-47484226D01*
X44674774Y-47340063D01*
X44505256Y-47226795D01*
X44316898Y-47148774D01*
X44116939Y-47109000D01*
X44054802Y-47109000D01*
X43365104Y-46419303D01*
X43341301Y-46390299D01*
X43225576Y-46295326D01*
X43093547Y-46224754D01*
X42950286Y-46181297D01*
X42838633Y-46170300D01*
X42838622Y-46170300D01*
X42801300Y-46166624D01*
X42763978Y-46170300D01*
X42120458Y-46170300D01*
X42172405Y-46092556D01*
X42250426Y-45904198D01*
X42290200Y-45704239D01*
X42290200Y-45642101D01*
X42992302Y-44940000D01*
X48063451Y-44940000D01*
X48030300Y-45106661D01*
G36*
X50101928Y-39530000D02*
G01*
X50101928Y-39830000D01*
X50111777Y-39930000D01*
X50101928Y-40030000D01*
X50101928Y-40330000D01*
X50111777Y-40430000D01*
X50101928Y-40530000D01*
X50101928Y-40830000D01*
X50112118Y-40933465D01*
X50105000Y-40998250D01*
X50137247Y-41030497D01*
X50150498Y-41074180D01*
X50207061Y-41180000D01*
X50150498Y-41285820D01*
X50137247Y-41329503D01*
X50105000Y-41361750D01*
X50112118Y-41426535D01*
X50101928Y-41530000D01*
X50101928Y-41830000D01*
X50110792Y-41920000D01*
X41491522Y-41920000D01*
X41454199Y-41916324D01*
X41416876Y-41920000D01*
X41416867Y-41920000D01*
X41305214Y-41930997D01*
X41161953Y-41974454D01*
X41029924Y-42045026D01*
X40914199Y-42139999D01*
X40890401Y-42168998D01*
X40694998Y-42364400D01*
X40632861Y-42364400D01*
X40432902Y-42404174D01*
X40244544Y-42482195D01*
X40075026Y-42595463D01*
X39930863Y-42739626D01*
X39817595Y-42909144D01*
X39739574Y-43097502D01*
X39699800Y-43297461D01*
X39699800Y-43501339D01*
X39739574Y-43701298D01*
X39817595Y-43889656D01*
X39930863Y-44059174D01*
X40075026Y-44203337D01*
X40244544Y-44316605D01*
X40432902Y-44394626D01*
X40632861Y-44434400D01*
X40836739Y-44434400D01*
X41036698Y-44394626D01*
X41225056Y-44316605D01*
X41394574Y-44203337D01*
X41538737Y-44059174D01*
X41652005Y-43889656D01*
X41730026Y-43701298D01*
X41769800Y-43501339D01*
X41769800Y-43440000D01*
X42498835Y-43440000D01*
X42406292Y-43468072D01*
X42385253Y-43474454D01*
X42253223Y-43545026D01*
X42173809Y-43610200D01*
X42137499Y-43639999D01*
X42113701Y-43668997D01*
X41215399Y-44567300D01*
X41153261Y-44567300D01*
X40953302Y-44607074D01*
X40764944Y-44685095D01*
X40595426Y-44798363D01*
X40451263Y-44942526D01*
X40337995Y-45112044D01*
X40259974Y-45300402D01*
X40220200Y-45500361D01*
X40220200Y-45704239D01*
X40259974Y-45904198D01*
X40337995Y-46092556D01*
X40389942Y-46170300D01*
X39378072Y-46170300D01*
X39378072Y-45255000D01*
X39365812Y-45130518D01*
X39329502Y-45010820D01*
X39286302Y-44930000D01*
X39329502Y-44849180D01*
X39365812Y-44729482D01*
X39378072Y-44605000D01*
X39375000Y-44215750D01*
X39216250Y-44057000D01*
X38145906Y-44057000D01*
X38154174Y-43854535D01*
X38146093Y-43803000D01*
X39216250Y-43803000D01*
X39375000Y-43644250D01*
X39378072Y-43255000D01*
X39365812Y-43130518D01*
X39329502Y-43010820D01*
X39286302Y-42930000D01*
X39329502Y-42849180D01*
X39365812Y-42729482D01*
X39376037Y-42625663D01*
X39489576Y-42564974D01*
X39605301Y-42470001D01*
X39629104Y-42440997D01*
X41704002Y-40366100D01*
X46333989Y-40366100D01*
X46377926Y-40410037D01*
X46547444Y-40523305D01*
X46735802Y-40601326D01*
X46935761Y-40641100D01*
X47139639Y-40641100D01*
X47339598Y-40601326D01*
X47527956Y-40523305D01*
X47697474Y-40410037D01*
X47841637Y-40265874D01*
X47954905Y-40096356D01*
X48032926Y-39907998D01*
X48072700Y-39708039D01*
X48072700Y-39504161D01*
X48059938Y-39440000D01*
X50110792Y-39440000D01*
X50101928Y-39530000D01*
G37*
X50101928Y-39530000D02*
X50101928Y-39830000D01*
X50111777Y-39930000D01*
X50101928Y-40030000D01*
X50101928Y-40330000D01*
X50111777Y-40430000D01*
X50101928Y-40530000D01*
X50101928Y-40830000D01*
X50112118Y-40933465D01*
X50105000Y-40998250D01*
X50137247Y-41030497D01*
X50150498Y-41074180D01*
X50207061Y-41180000D01*
X50150498Y-41285820D01*
X50137247Y-41329503D01*
X50105000Y-41361750D01*
X50112118Y-41426535D01*
X50101928Y-41530000D01*
X50101928Y-41830000D01*
X50110792Y-41920000D01*
X41491522Y-41920000D01*
X41454199Y-41916324D01*
X41416876Y-41920000D01*
X41416867Y-41920000D01*
X41305214Y-41930997D01*
X41161953Y-41974454D01*
X41029924Y-42045026D01*
X40914199Y-42139999D01*
X40890401Y-42168998D01*
X40694998Y-42364400D01*
X40632861Y-42364400D01*
X40432902Y-42404174D01*
X40244544Y-42482195D01*
X40075026Y-42595463D01*
X39930863Y-42739626D01*
X39817595Y-42909144D01*
X39739574Y-43097502D01*
X39699800Y-43297461D01*
X39699800Y-43501339D01*
X39739574Y-43701298D01*
X39817595Y-43889656D01*
X39930863Y-44059174D01*
X40075026Y-44203337D01*
X40244544Y-44316605D01*
X40432902Y-44394626D01*
X40632861Y-44434400D01*
X40836739Y-44434400D01*
X41036698Y-44394626D01*
X41225056Y-44316605D01*
X41394574Y-44203337D01*
X41538737Y-44059174D01*
X41652005Y-43889656D01*
X41730026Y-43701298D01*
X41769800Y-43501339D01*
X41769800Y-43440000D01*
X42498835Y-43440000D01*
X42406292Y-43468072D01*
X42385253Y-43474454D01*
X42253223Y-43545026D01*
X42173809Y-43610200D01*
X42137499Y-43639999D01*
X42113701Y-43668997D01*
X41215399Y-44567300D01*
X41153261Y-44567300D01*
X40953302Y-44607074D01*
X40764944Y-44685095D01*
X40595426Y-44798363D01*
X40451263Y-44942526D01*
X40337995Y-45112044D01*
X40259974Y-45300402D01*
X40220200Y-45500361D01*
X40220200Y-45704239D01*
X40259974Y-45904198D01*
X40337995Y-46092556D01*
X40389942Y-46170300D01*
X39378072Y-46170300D01*
X39378072Y-45255000D01*
X39365812Y-45130518D01*
X39329502Y-45010820D01*
X39286302Y-44930000D01*
X39329502Y-44849180D01*
X39365812Y-44729482D01*
X39378072Y-44605000D01*
X39375000Y-44215750D01*
X39216250Y-44057000D01*
X38145906Y-44057000D01*
X38154174Y-43854535D01*
X38146093Y-43803000D01*
X39216250Y-43803000D01*
X39375000Y-43644250D01*
X39378072Y-43255000D01*
X39365812Y-43130518D01*
X39329502Y-43010820D01*
X39286302Y-42930000D01*
X39329502Y-42849180D01*
X39365812Y-42729482D01*
X39376037Y-42625663D01*
X39489576Y-42564974D01*
X39605301Y-42470001D01*
X39629104Y-42440997D01*
X41704002Y-40366100D01*
X46333989Y-40366100D01*
X46377926Y-40410037D01*
X46547444Y-40523305D01*
X46735802Y-40601326D01*
X46935761Y-40641100D01*
X47139639Y-40641100D01*
X47339598Y-40601326D01*
X47527956Y-40523305D01*
X47697474Y-40410037D01*
X47841637Y-40265874D01*
X47954905Y-40096356D01*
X48032926Y-39907998D01*
X48072700Y-39708039D01*
X48072700Y-39504161D01*
X48059938Y-39440000D01*
X50110792Y-39440000D01*
X50101928Y-39530000D01*
G36*
X59682500Y-40648000D02*
G01*
X56993903Y-40648000D01*
X57514695Y-40127208D01*
X57667644Y-40229405D01*
X57856002Y-40307426D01*
X58055961Y-40347200D01*
X58259839Y-40347200D01*
X58459798Y-40307426D01*
X58648156Y-40229405D01*
X58817674Y-40116137D01*
X58961837Y-39971974D01*
X59075105Y-39802456D01*
X59153126Y-39614098D01*
X59192900Y-39414139D01*
X59192900Y-39210261D01*
X59153126Y-39010302D01*
X59075105Y-38821944D01*
X58961837Y-38652426D01*
X58817674Y-38508263D01*
X58648156Y-38394995D01*
X58459798Y-38316974D01*
X58259839Y-38277200D01*
X58079802Y-38277200D01*
X59192004Y-37164998D01*
X59221001Y-37141201D01*
X59315974Y-37025476D01*
X59386546Y-36893447D01*
X59430003Y-36750186D01*
X59441000Y-36638533D01*
X59441000Y-36638524D01*
X59444676Y-36601201D01*
X59441000Y-36563878D01*
X59441000Y-29611722D01*
X59444676Y-29574399D01*
X59441000Y-29537076D01*
X59441000Y-29537067D01*
X59430003Y-29425414D01*
X59386546Y-29282153D01*
X59315974Y-29150124D01*
X59221001Y-29034399D01*
X59192003Y-29010601D01*
X58739645Y-28558243D01*
X58782981Y-28549623D01*
X59184144Y-28383456D01*
X59545181Y-28142218D01*
X59682501Y-28004898D01*
X59682500Y-40648000D01*
G37*
X59682500Y-40648000D02*
X56993903Y-40648000D01*
X57514695Y-40127208D01*
X57667644Y-40229405D01*
X57856002Y-40307426D01*
X58055961Y-40347200D01*
X58259839Y-40347200D01*
X58459798Y-40307426D01*
X58648156Y-40229405D01*
X58817674Y-40116137D01*
X58961837Y-39971974D01*
X59075105Y-39802456D01*
X59153126Y-39614098D01*
X59192900Y-39414139D01*
X59192900Y-39210261D01*
X59153126Y-39010302D01*
X59075105Y-38821944D01*
X58961837Y-38652426D01*
X58817674Y-38508263D01*
X58648156Y-38394995D01*
X58459798Y-38316974D01*
X58259839Y-38277200D01*
X58079802Y-38277200D01*
X59192004Y-37164998D01*
X59221001Y-37141201D01*
X59315974Y-37025476D01*
X59386546Y-36893447D01*
X59430003Y-36750186D01*
X59441000Y-36638533D01*
X59441000Y-36638524D01*
X59444676Y-36601201D01*
X59441000Y-36563878D01*
X59441000Y-29611722D01*
X59444676Y-29574399D01*
X59441000Y-29537076D01*
X59441000Y-29537067D01*
X59430003Y-29425414D01*
X59386546Y-29282153D01*
X59315974Y-29150124D01*
X59221001Y-29034399D01*
X59192003Y-29010601D01*
X58739645Y-28558243D01*
X58782981Y-28549623D01*
X59184144Y-28383456D01*
X59545181Y-28142218D01*
X59682501Y-28004898D01*
X59682500Y-40648000D01*
G36*
X53368400Y-37102098D02*
G01*
X52678072Y-37792427D01*
X52678072Y-37530000D01*
X52668223Y-37430000D01*
X52678072Y-37330000D01*
X52678072Y-37030000D01*
X52667882Y-36926535D01*
X52675000Y-36861750D01*
X52642753Y-36829503D01*
X52629502Y-36785820D01*
X52572939Y-36680000D01*
X52629502Y-36574180D01*
X52642753Y-36530497D01*
X52675000Y-36498250D01*
X52667882Y-36433465D01*
X52678072Y-36330000D01*
X52678072Y-36030000D01*
X52668223Y-35930000D01*
X52678072Y-35830000D01*
X52678072Y-35530000D01*
X52668801Y-35435866D01*
X52738486Y-35429003D01*
X52881747Y-35385546D01*
X52920747Y-35364700D01*
X53041739Y-35364700D01*
X53241698Y-35324926D01*
X53368401Y-35272444D01*
X53368400Y-37102098D01*
G37*
X53368400Y-37102098D02*
X52678072Y-37792427D01*
X52678072Y-37530000D01*
X52668223Y-37430000D01*
X52678072Y-37330000D01*
X52678072Y-37030000D01*
X52667882Y-36926535D01*
X52675000Y-36861750D01*
X52642753Y-36829503D01*
X52629502Y-36785820D01*
X52572939Y-36680000D01*
X52629502Y-36574180D01*
X52642753Y-36530497D01*
X52675000Y-36498250D01*
X52667882Y-36433465D01*
X52678072Y-36330000D01*
X52678072Y-36030000D01*
X52668223Y-35930000D01*
X52678072Y-35830000D01*
X52678072Y-35530000D01*
X52668801Y-35435866D01*
X52738486Y-35429003D01*
X52881747Y-35385546D01*
X52920747Y-35364700D01*
X53041739Y-35364700D01*
X53241698Y-35324926D01*
X53368401Y-35272444D01*
X53368400Y-37102098D01*
G36*
X39214900Y-27997339D02*
G01*
X39254674Y-28197298D01*
X39332695Y-28385656D01*
X39445963Y-28555174D01*
X39590126Y-28699337D01*
X39759644Y-28812605D01*
X39948002Y-28890626D01*
X40147961Y-28930400D01*
X40210099Y-28930400D01*
X43480201Y-32200503D01*
X43503999Y-32229501D01*
X43619724Y-32324474D01*
X43751753Y-32395046D01*
X43834017Y-32420000D01*
X41845311Y-32420000D01*
X41801374Y-32376063D01*
X41631856Y-32262795D01*
X41443498Y-32184774D01*
X41243539Y-32145000D01*
X41039661Y-32145000D01*
X40839702Y-32184774D01*
X40726000Y-32231871D01*
X40726000Y-30646033D01*
X40729677Y-30608700D01*
X40715003Y-30459714D01*
X40671546Y-30316453D01*
X40600974Y-30184424D01*
X40529799Y-30097697D01*
X40506001Y-30068699D01*
X40477004Y-30044902D01*
X38407704Y-27975603D01*
X38383901Y-27946599D01*
X38361847Y-27928500D01*
X39214900Y-27928500D01*
X39214900Y-27997339D01*
G37*
X39214900Y-27997339D02*
X39254674Y-28197298D01*
X39332695Y-28385656D01*
X39445963Y-28555174D01*
X39590126Y-28699337D01*
X39759644Y-28812605D01*
X39948002Y-28890626D01*
X40147961Y-28930400D01*
X40210099Y-28930400D01*
X43480201Y-32200503D01*
X43503999Y-32229501D01*
X43619724Y-32324474D01*
X43751753Y-32395046D01*
X43834017Y-32420000D01*
X41845311Y-32420000D01*
X41801374Y-32376063D01*
X41631856Y-32262795D01*
X41443498Y-32184774D01*
X41243539Y-32145000D01*
X41039661Y-32145000D01*
X40839702Y-32184774D01*
X40726000Y-32231871D01*
X40726000Y-30646033D01*
X40729677Y-30608700D01*
X40715003Y-30459714D01*
X40671546Y-30316453D01*
X40600974Y-30184424D01*
X40529799Y-30097697D01*
X40506001Y-30068699D01*
X40477004Y-30044902D01*
X38407704Y-27975603D01*
X38383901Y-27946599D01*
X38361847Y-27928500D01*
X39214900Y-27928500D01*
X39214900Y-27997339D01*
G36*
X44989095Y-26926444D02*
G01*
X44911074Y-27114802D01*
X44871300Y-27314761D01*
X44871300Y-27518639D01*
X44911074Y-27718598D01*
X44989095Y-27906956D01*
X45102363Y-28076474D01*
X45246526Y-28220637D01*
X45416044Y-28333905D01*
X45604402Y-28411926D01*
X45804361Y-28451700D01*
X45866499Y-28451700D01*
X48344297Y-30929500D01*
X44358802Y-30929500D01*
X41357801Y-27928500D01*
X43514278Y-27928500D01*
X43551600Y-27932176D01*
X43588922Y-27928500D01*
X43588933Y-27928500D01*
X43700586Y-27917503D01*
X43843847Y-27874046D01*
X43975876Y-27803474D01*
X44091601Y-27708501D01*
X44115404Y-27679497D01*
X44963602Y-26831300D01*
X45025739Y-26831300D01*
X45056796Y-26825122D01*
X44989095Y-26926444D01*
G37*
X44989095Y-26926444D02*
X44911074Y-27114802D01*
X44871300Y-27314761D01*
X44871300Y-27518639D01*
X44911074Y-27718598D01*
X44989095Y-27906956D01*
X45102363Y-28076474D01*
X45246526Y-28220637D01*
X45416044Y-28333905D01*
X45604402Y-28411926D01*
X45804361Y-28451700D01*
X45866499Y-28451700D01*
X48344297Y-30929500D01*
X44358802Y-30929500D01*
X41357801Y-27928500D01*
X43514278Y-27928500D01*
X43551600Y-27932176D01*
X43588922Y-27928500D01*
X43588933Y-27928500D01*
X43700586Y-27917503D01*
X43843847Y-27874046D01*
X43975876Y-27803474D01*
X44091601Y-27708501D01*
X44115404Y-27679497D01*
X44963602Y-26831300D01*
X45025739Y-26831300D01*
X45056796Y-26825122D01*
X44989095Y-26926444D01*
G36*
X20540186Y-14169956D02*
G01*
X20399296Y-14459571D01*
X20317616Y-14771108D01*
X20298282Y-15092595D01*
X20342039Y-15411675D01*
X20447205Y-15716088D01*
X20540186Y-15890044D01*
X20804587Y-15985808D01*
X21760395Y-15030000D01*
X21746253Y-15015858D01*
X21925858Y-14836253D01*
X21940000Y-14850395D01*
X21954143Y-14836253D01*
X22133748Y-15015858D01*
X22119605Y-15030000D01*
X23075413Y-15985808D01*
X23339814Y-15890044D01*
X23480704Y-15600429D01*
X23562384Y-15288892D01*
X23581718Y-14967405D01*
X23537961Y-14648325D01*
X23432795Y-14343912D01*
X23339814Y-14169956D01*
X23119058Y-14090000D01*
X24318455Y-14090000D01*
X24212068Y-14346842D01*
X24155000Y-14633740D01*
X24155000Y-14926260D01*
X24212068Y-15213158D01*
X24324010Y-15483411D01*
X24486525Y-15726632D01*
X24693368Y-15933475D01*
X24875534Y-16055195D01*
X24758645Y-16124822D01*
X24542412Y-16319731D01*
X24368359Y-16553080D01*
X24243175Y-16815901D01*
X24198524Y-16963110D01*
X24319845Y-17193000D01*
X25513000Y-17193000D01*
X25513000Y-17173000D01*
X25767000Y-17173000D01*
X25767000Y-17193000D01*
X26960155Y-17193000D01*
X27081476Y-16963110D01*
X27036825Y-16815901D01*
X26911641Y-16553080D01*
X26737588Y-16319731D01*
X26521355Y-16124822D01*
X26404466Y-16055195D01*
X26586632Y-15933475D01*
X26793475Y-15726632D01*
X26955990Y-15483411D01*
X27067932Y-15213158D01*
X27125000Y-14926260D01*
X27125000Y-14633740D01*
X27067932Y-14346842D01*
X26961545Y-14090000D01*
X44541559Y-14090000D01*
X44510149Y-14099528D01*
X44356613Y-14181595D01*
X44222038Y-14292038D01*
X44111595Y-14426613D01*
X44029528Y-14580149D01*
X43978992Y-14746745D01*
X43961928Y-14919999D01*
X43961928Y-15820001D01*
X43978992Y-15993255D01*
X44029528Y-16159851D01*
X44111595Y-16313387D01*
X44222038Y-16447962D01*
X44356613Y-16558405D01*
X44510149Y-16640472D01*
X44676745Y-16691008D01*
X44726065Y-16695866D01*
X44883302Y-16853103D01*
X44610000Y-16851928D01*
X44485518Y-16864188D01*
X44365820Y-16900498D01*
X44255506Y-16959463D01*
X44158815Y-17038815D01*
X44079463Y-17135506D01*
X44020498Y-17245820D01*
X43984188Y-17365518D01*
X43971928Y-17490000D01*
X43975000Y-17524250D01*
X44133750Y-17683000D01*
X45483000Y-17683000D01*
X45483000Y-17663000D01*
X45737000Y-17663000D01*
X45737000Y-17683000D01*
X45757000Y-17683000D01*
X45757000Y-17937000D01*
X45737000Y-17937000D01*
X45737000Y-18606250D01*
X45895750Y-18765000D01*
X46610000Y-18768072D01*
X46734482Y-18755812D01*
X46854180Y-18719502D01*
X46964494Y-18660537D01*
X47061185Y-18581185D01*
X47106590Y-18525859D01*
X47155026Y-18616476D01*
X47175000Y-18640814D01*
X47249999Y-18732201D01*
X47279003Y-18756004D01*
X50371000Y-21848002D01*
X50394799Y-21877001D01*
X50510524Y-21971974D01*
X50642553Y-22042546D01*
X50785814Y-22086003D01*
X50897467Y-22097000D01*
X50897477Y-22097000D01*
X50934800Y-22100676D01*
X50972123Y-22097000D01*
X52228099Y-22097000D01*
X52429296Y-22298197D01*
X52453099Y-22327201D01*
X52518160Y-22380595D01*
X52568823Y-22422174D01*
X52637016Y-22458624D01*
X52700853Y-22492746D01*
X52844114Y-22536203D01*
X52955767Y-22547200D01*
X52955777Y-22547200D01*
X52993100Y-22550876D01*
X53030423Y-22547200D01*
X53797989Y-22547200D01*
X53658763Y-22686426D01*
X53545495Y-22855944D01*
X53467474Y-23044302D01*
X53427700Y-23244261D01*
X53427700Y-23448139D01*
X53467474Y-23648098D01*
X53545495Y-23836456D01*
X53658763Y-24005974D01*
X53802926Y-24150137D01*
X53972444Y-24263405D01*
X54127001Y-24327425D01*
X54127000Y-25743077D01*
X54123324Y-25780400D01*
X54127000Y-25817722D01*
X54127000Y-25817732D01*
X54128340Y-25831338D01*
X52429400Y-24132399D01*
X52429400Y-24057711D01*
X52473337Y-24013774D01*
X52586605Y-23844256D01*
X52664626Y-23655898D01*
X52704400Y-23455939D01*
X52704400Y-23252061D01*
X52664626Y-23052102D01*
X52586605Y-22863744D01*
X52473337Y-22694226D01*
X52329174Y-22550063D01*
X52159656Y-22436795D01*
X51971298Y-22358774D01*
X51771339Y-22319000D01*
X51567461Y-22319000D01*
X51367502Y-22358774D01*
X51179144Y-22436795D01*
X51009626Y-22550063D01*
X50865463Y-22694226D01*
X50752195Y-22863744D01*
X50674174Y-23052102D01*
X50634400Y-23252061D01*
X50634400Y-23360899D01*
X47695300Y-20421799D01*
X47695300Y-20387333D01*
X47698977Y-20350000D01*
X47684303Y-20201014D01*
X47640846Y-20057753D01*
X47570274Y-19925724D01*
X47475301Y-19809999D01*
X47359576Y-19715026D01*
X47227547Y-19644454D01*
X47084286Y-19600997D01*
X47078959Y-19600472D01*
X47061185Y-19578815D01*
X46964494Y-19499463D01*
X46854180Y-19440498D01*
X46734482Y-19404188D01*
X46610000Y-19391928D01*
X44610000Y-19391928D01*
X44485518Y-19404188D01*
X44365820Y-19440498D01*
X44255506Y-19499463D01*
X44158815Y-19578815D01*
X44079463Y-19675506D01*
X44020498Y-19785820D01*
X43984188Y-19905518D01*
X43971928Y-20030000D01*
X43971928Y-20670000D01*
X43984188Y-20794482D01*
X44020498Y-20914180D01*
X44079463Y-21024494D01*
X44158815Y-21121185D01*
X44255506Y-21200537D01*
X44365820Y-21259502D01*
X44485518Y-21295812D01*
X44610000Y-21308072D01*
X46431971Y-21308072D01*
X49569398Y-24445500D01*
X49408356Y-24337895D01*
X49219998Y-24259874D01*
X49020039Y-24220100D01*
X48957902Y-24220100D01*
X46799304Y-22061503D01*
X46775501Y-22032499D01*
X46659776Y-21937526D01*
X46527747Y-21866954D01*
X46384486Y-21823497D01*
X46272833Y-21812500D01*
X46272822Y-21812500D01*
X46235500Y-21808824D01*
X46198178Y-21812500D01*
X36928123Y-21812500D01*
X36890800Y-21808824D01*
X36853478Y-21812500D01*
X36853467Y-21812500D01*
X36741814Y-21823497D01*
X36598553Y-21866954D01*
X36466524Y-21937526D01*
X36451446Y-21949900D01*
X31149002Y-21949900D01*
X28548104Y-19349003D01*
X28524301Y-19319999D01*
X28408576Y-19225026D01*
X28276547Y-19154454D01*
X28133286Y-19110997D01*
X28021633Y-19100000D01*
X28021622Y-19100000D01*
X27984300Y-19096324D01*
X27946978Y-19100000D01*
X26918178Y-19100000D01*
X26793475Y-18913368D01*
X26586632Y-18706525D01*
X26404466Y-18584805D01*
X26521355Y-18515178D01*
X26737588Y-18320269D01*
X26879508Y-18130000D01*
X43971928Y-18130000D01*
X43984188Y-18254482D01*
X44020498Y-18374180D01*
X44079463Y-18484494D01*
X44158815Y-18581185D01*
X44255506Y-18660537D01*
X44365820Y-18719502D01*
X44485518Y-18755812D01*
X44610000Y-18768072D01*
X45324250Y-18765000D01*
X45483000Y-18606250D01*
X45483000Y-17937000D01*
X44133750Y-17937000D01*
X43975000Y-18095750D01*
X43971928Y-18130000D01*
X26879508Y-18130000D01*
X26911641Y-18086920D01*
X27036825Y-17824099D01*
X27081476Y-17676890D01*
X26960155Y-17447000D01*
X25767000Y-17447000D01*
X25767000Y-17467000D01*
X25513000Y-17467000D01*
X25513000Y-17447000D01*
X24319845Y-17447000D01*
X24198524Y-17676890D01*
X24243175Y-17824099D01*
X24368359Y-18086920D01*
X24542412Y-18320269D01*
X24758645Y-18515178D01*
X24875534Y-18584805D01*
X24693368Y-18706525D01*
X24486525Y-18913368D01*
X24324010Y-19156589D01*
X24212068Y-19426842D01*
X24155000Y-19713740D01*
X24155000Y-20006260D01*
X24212068Y-20293158D01*
X24324010Y-20563411D01*
X24486525Y-20806632D01*
X24693368Y-21013475D01*
X24867760Y-21130000D01*
X24693368Y-21246525D01*
X24486525Y-21453368D01*
X24324010Y-21696589D01*
X24314456Y-21719654D01*
X23188520Y-20593719D01*
X23209987Y-20572252D01*
X23388918Y-20304463D01*
X23512168Y-20006912D01*
X23575000Y-19691033D01*
X23575000Y-19368967D01*
X23512168Y-19053088D01*
X23388918Y-18755537D01*
X23209987Y-18487748D01*
X22982252Y-18260013D01*
X22714463Y-18081082D01*
X22416912Y-17957832D01*
X22101033Y-17895000D01*
X21778967Y-17895000D01*
X21463088Y-17957832D01*
X21165537Y-18081082D01*
X20897748Y-18260013D01*
X20670013Y-18487748D01*
X20491082Y-18755537D01*
X20485091Y-18770000D01*
X16894909Y-18770000D01*
X16888918Y-18755537D01*
X16709987Y-18487748D01*
X16482252Y-18260013D01*
X16214463Y-18081082D01*
X15916912Y-17957832D01*
X15601033Y-17895000D01*
X15278967Y-17895000D01*
X14963088Y-17957832D01*
X14665537Y-18081082D01*
X14500000Y-18191690D01*
X14500000Y-16209058D01*
X14579956Y-16429814D01*
X14869571Y-16570704D01*
X15181108Y-16652384D01*
X15502595Y-16671718D01*
X15821675Y-16627961D01*
X16126088Y-16522795D01*
X16300044Y-16429814D01*
X16395808Y-16165413D01*
X20984192Y-16165413D01*
X21079956Y-16429814D01*
X21369571Y-16570704D01*
X21681108Y-16652384D01*
X22002595Y-16671718D01*
X22321675Y-16627961D01*
X22626088Y-16522795D01*
X22800044Y-16429814D01*
X22895808Y-16165413D01*
X21940000Y-15209605D01*
X20984192Y-16165413D01*
X16395808Y-16165413D01*
X15440000Y-15209605D01*
X15425858Y-15223748D01*
X15246253Y-15044143D01*
X15260395Y-15030000D01*
X15246253Y-15015858D01*
X15425858Y-14836253D01*
X15440000Y-14850395D01*
X15454143Y-14836253D01*
X15633748Y-15015858D01*
X15619605Y-15030000D01*
X16575413Y-15985808D01*
X16839814Y-15890044D01*
X16980704Y-15600429D01*
X17062384Y-15288892D01*
X17081718Y-14967405D01*
X17037961Y-14648325D01*
X16932795Y-14343912D01*
X16839814Y-14169956D01*
X16619058Y-14090000D01*
X20760942Y-14090000D01*
X20540186Y-14169956D01*
G37*
X20540186Y-14169956D02*
X20399296Y-14459571D01*
X20317616Y-14771108D01*
X20298282Y-15092595D01*
X20342039Y-15411675D01*
X20447205Y-15716088D01*
X20540186Y-15890044D01*
X20804587Y-15985808D01*
X21760395Y-15030000D01*
X21746253Y-15015858D01*
X21925858Y-14836253D01*
X21940000Y-14850395D01*
X21954143Y-14836253D01*
X22133748Y-15015858D01*
X22119605Y-15030000D01*
X23075413Y-15985808D01*
X23339814Y-15890044D01*
X23480704Y-15600429D01*
X23562384Y-15288892D01*
X23581718Y-14967405D01*
X23537961Y-14648325D01*
X23432795Y-14343912D01*
X23339814Y-14169956D01*
X23119058Y-14090000D01*
X24318455Y-14090000D01*
X24212068Y-14346842D01*
X24155000Y-14633740D01*
X24155000Y-14926260D01*
X24212068Y-15213158D01*
X24324010Y-15483411D01*
X24486525Y-15726632D01*
X24693368Y-15933475D01*
X24875534Y-16055195D01*
X24758645Y-16124822D01*
X24542412Y-16319731D01*
X24368359Y-16553080D01*
X24243175Y-16815901D01*
X24198524Y-16963110D01*
X24319845Y-17193000D01*
X25513000Y-17193000D01*
X25513000Y-17173000D01*
X25767000Y-17173000D01*
X25767000Y-17193000D01*
X26960155Y-17193000D01*
X27081476Y-16963110D01*
X27036825Y-16815901D01*
X26911641Y-16553080D01*
X26737588Y-16319731D01*
X26521355Y-16124822D01*
X26404466Y-16055195D01*
X26586632Y-15933475D01*
X26793475Y-15726632D01*
X26955990Y-15483411D01*
X27067932Y-15213158D01*
X27125000Y-14926260D01*
X27125000Y-14633740D01*
X27067932Y-14346842D01*
X26961545Y-14090000D01*
X44541559Y-14090000D01*
X44510149Y-14099528D01*
X44356613Y-14181595D01*
X44222038Y-14292038D01*
X44111595Y-14426613D01*
X44029528Y-14580149D01*
X43978992Y-14746745D01*
X43961928Y-14919999D01*
X43961928Y-15820001D01*
X43978992Y-15993255D01*
X44029528Y-16159851D01*
X44111595Y-16313387D01*
X44222038Y-16447962D01*
X44356613Y-16558405D01*
X44510149Y-16640472D01*
X44676745Y-16691008D01*
X44726065Y-16695866D01*
X44883302Y-16853103D01*
X44610000Y-16851928D01*
X44485518Y-16864188D01*
X44365820Y-16900498D01*
X44255506Y-16959463D01*
X44158815Y-17038815D01*
X44079463Y-17135506D01*
X44020498Y-17245820D01*
X43984188Y-17365518D01*
X43971928Y-17490000D01*
X43975000Y-17524250D01*
X44133750Y-17683000D01*
X45483000Y-17683000D01*
X45483000Y-17663000D01*
X45737000Y-17663000D01*
X45737000Y-17683000D01*
X45757000Y-17683000D01*
X45757000Y-17937000D01*
X45737000Y-17937000D01*
X45737000Y-18606250D01*
X45895750Y-18765000D01*
X46610000Y-18768072D01*
X46734482Y-18755812D01*
X46854180Y-18719502D01*
X46964494Y-18660537D01*
X47061185Y-18581185D01*
X47106590Y-18525859D01*
X47155026Y-18616476D01*
X47175000Y-18640814D01*
X47249999Y-18732201D01*
X47279003Y-18756004D01*
X50371000Y-21848002D01*
X50394799Y-21877001D01*
X50510524Y-21971974D01*
X50642553Y-22042546D01*
X50785814Y-22086003D01*
X50897467Y-22097000D01*
X50897477Y-22097000D01*
X50934800Y-22100676D01*
X50972123Y-22097000D01*
X52228099Y-22097000D01*
X52429296Y-22298197D01*
X52453099Y-22327201D01*
X52518160Y-22380595D01*
X52568823Y-22422174D01*
X52637016Y-22458624D01*
X52700853Y-22492746D01*
X52844114Y-22536203D01*
X52955767Y-22547200D01*
X52955777Y-22547200D01*
X52993100Y-22550876D01*
X53030423Y-22547200D01*
X53797989Y-22547200D01*
X53658763Y-22686426D01*
X53545495Y-22855944D01*
X53467474Y-23044302D01*
X53427700Y-23244261D01*
X53427700Y-23448139D01*
X53467474Y-23648098D01*
X53545495Y-23836456D01*
X53658763Y-24005974D01*
X53802926Y-24150137D01*
X53972444Y-24263405D01*
X54127001Y-24327425D01*
X54127000Y-25743077D01*
X54123324Y-25780400D01*
X54127000Y-25817722D01*
X54127000Y-25817732D01*
X54128340Y-25831338D01*
X52429400Y-24132399D01*
X52429400Y-24057711D01*
X52473337Y-24013774D01*
X52586605Y-23844256D01*
X52664626Y-23655898D01*
X52704400Y-23455939D01*
X52704400Y-23252061D01*
X52664626Y-23052102D01*
X52586605Y-22863744D01*
X52473337Y-22694226D01*
X52329174Y-22550063D01*
X52159656Y-22436795D01*
X51971298Y-22358774D01*
X51771339Y-22319000D01*
X51567461Y-22319000D01*
X51367502Y-22358774D01*
X51179144Y-22436795D01*
X51009626Y-22550063D01*
X50865463Y-22694226D01*
X50752195Y-22863744D01*
X50674174Y-23052102D01*
X50634400Y-23252061D01*
X50634400Y-23360899D01*
X47695300Y-20421799D01*
X47695300Y-20387333D01*
X47698977Y-20350000D01*
X47684303Y-20201014D01*
X47640846Y-20057753D01*
X47570274Y-19925724D01*
X47475301Y-19809999D01*
X47359576Y-19715026D01*
X47227547Y-19644454D01*
X47084286Y-19600997D01*
X47078959Y-19600472D01*
X47061185Y-19578815D01*
X46964494Y-19499463D01*
X46854180Y-19440498D01*
X46734482Y-19404188D01*
X46610000Y-19391928D01*
X44610000Y-19391928D01*
X44485518Y-19404188D01*
X44365820Y-19440498D01*
X44255506Y-19499463D01*
X44158815Y-19578815D01*
X44079463Y-19675506D01*
X44020498Y-19785820D01*
X43984188Y-19905518D01*
X43971928Y-20030000D01*
X43971928Y-20670000D01*
X43984188Y-20794482D01*
X44020498Y-20914180D01*
X44079463Y-21024494D01*
X44158815Y-21121185D01*
X44255506Y-21200537D01*
X44365820Y-21259502D01*
X44485518Y-21295812D01*
X44610000Y-21308072D01*
X46431971Y-21308072D01*
X49569398Y-24445500D01*
X49408356Y-24337895D01*
X49219998Y-24259874D01*
X49020039Y-24220100D01*
X48957902Y-24220100D01*
X46799304Y-22061503D01*
X46775501Y-22032499D01*
X46659776Y-21937526D01*
X46527747Y-21866954D01*
X46384486Y-21823497D01*
X46272833Y-21812500D01*
X46272822Y-21812500D01*
X46235500Y-21808824D01*
X46198178Y-21812500D01*
X36928123Y-21812500D01*
X36890800Y-21808824D01*
X36853478Y-21812500D01*
X36853467Y-21812500D01*
X36741814Y-21823497D01*
X36598553Y-21866954D01*
X36466524Y-21937526D01*
X36451446Y-21949900D01*
X31149002Y-21949900D01*
X28548104Y-19349003D01*
X28524301Y-19319999D01*
X28408576Y-19225026D01*
X28276547Y-19154454D01*
X28133286Y-19110997D01*
X28021633Y-19100000D01*
X28021622Y-19100000D01*
X27984300Y-19096324D01*
X27946978Y-19100000D01*
X26918178Y-19100000D01*
X26793475Y-18913368D01*
X26586632Y-18706525D01*
X26404466Y-18584805D01*
X26521355Y-18515178D01*
X26737588Y-18320269D01*
X26879508Y-18130000D01*
X43971928Y-18130000D01*
X43984188Y-18254482D01*
X44020498Y-18374180D01*
X44079463Y-18484494D01*
X44158815Y-18581185D01*
X44255506Y-18660537D01*
X44365820Y-18719502D01*
X44485518Y-18755812D01*
X44610000Y-18768072D01*
X45324250Y-18765000D01*
X45483000Y-18606250D01*
X45483000Y-17937000D01*
X44133750Y-17937000D01*
X43975000Y-18095750D01*
X43971928Y-18130000D01*
X26879508Y-18130000D01*
X26911641Y-18086920D01*
X27036825Y-17824099D01*
X27081476Y-17676890D01*
X26960155Y-17447000D01*
X25767000Y-17447000D01*
X25767000Y-17467000D01*
X25513000Y-17467000D01*
X25513000Y-17447000D01*
X24319845Y-17447000D01*
X24198524Y-17676890D01*
X24243175Y-17824099D01*
X24368359Y-18086920D01*
X24542412Y-18320269D01*
X24758645Y-18515178D01*
X24875534Y-18584805D01*
X24693368Y-18706525D01*
X24486525Y-18913368D01*
X24324010Y-19156589D01*
X24212068Y-19426842D01*
X24155000Y-19713740D01*
X24155000Y-20006260D01*
X24212068Y-20293158D01*
X24324010Y-20563411D01*
X24486525Y-20806632D01*
X24693368Y-21013475D01*
X24867760Y-21130000D01*
X24693368Y-21246525D01*
X24486525Y-21453368D01*
X24324010Y-21696589D01*
X24314456Y-21719654D01*
X23188520Y-20593719D01*
X23209987Y-20572252D01*
X23388918Y-20304463D01*
X23512168Y-20006912D01*
X23575000Y-19691033D01*
X23575000Y-19368967D01*
X23512168Y-19053088D01*
X23388918Y-18755537D01*
X23209987Y-18487748D01*
X22982252Y-18260013D01*
X22714463Y-18081082D01*
X22416912Y-17957832D01*
X22101033Y-17895000D01*
X21778967Y-17895000D01*
X21463088Y-17957832D01*
X21165537Y-18081082D01*
X20897748Y-18260013D01*
X20670013Y-18487748D01*
X20491082Y-18755537D01*
X20485091Y-18770000D01*
X16894909Y-18770000D01*
X16888918Y-18755537D01*
X16709987Y-18487748D01*
X16482252Y-18260013D01*
X16214463Y-18081082D01*
X15916912Y-17957832D01*
X15601033Y-17895000D01*
X15278967Y-17895000D01*
X14963088Y-17957832D01*
X14665537Y-18081082D01*
X14500000Y-18191690D01*
X14500000Y-16209058D01*
X14579956Y-16429814D01*
X14869571Y-16570704D01*
X15181108Y-16652384D01*
X15502595Y-16671718D01*
X15821675Y-16627961D01*
X16126088Y-16522795D01*
X16300044Y-16429814D01*
X16395808Y-16165413D01*
X20984192Y-16165413D01*
X21079956Y-16429814D01*
X21369571Y-16570704D01*
X21681108Y-16652384D01*
X22002595Y-16671718D01*
X22321675Y-16627961D01*
X22626088Y-16522795D01*
X22800044Y-16429814D01*
X22895808Y-16165413D01*
X21940000Y-15209605D01*
X20984192Y-16165413D01*
X16395808Y-16165413D01*
X15440000Y-15209605D01*
X15425858Y-15223748D01*
X15246253Y-15044143D01*
X15260395Y-15030000D01*
X15246253Y-15015858D01*
X15425858Y-14836253D01*
X15440000Y-14850395D01*
X15454143Y-14836253D01*
X15633748Y-15015858D01*
X15619605Y-15030000D01*
X16575413Y-15985808D01*
X16839814Y-15890044D01*
X16980704Y-15600429D01*
X17062384Y-15288892D01*
X17081718Y-14967405D01*
X17037961Y-14648325D01*
X16932795Y-14343912D01*
X16839814Y-14169956D01*
X16619058Y-14090000D01*
X20760942Y-14090000D01*
X20540186Y-14169956D01*
G36*
X55299296Y-14359571D02*
G01*
X55217616Y-14671108D01*
X55198282Y-14992595D01*
X55242039Y-15311675D01*
X55347205Y-15616088D01*
X55440186Y-15790044D01*
X55704587Y-15885808D01*
X56660395Y-14930000D01*
X56646253Y-14915858D01*
X56825858Y-14736253D01*
X56840000Y-14750395D01*
X56854143Y-14736253D01*
X57033748Y-14915858D01*
X57019605Y-14930000D01*
X57975413Y-15885808D01*
X58239814Y-15790044D01*
X58380704Y-15500429D01*
X58462384Y-15188892D01*
X58481718Y-14867405D01*
X58437961Y-14548325D01*
X58332795Y-14243912D01*
X58250528Y-14090000D01*
X61930435Y-14090000D01*
X61799296Y-14359571D01*
X61717616Y-14671108D01*
X61698282Y-14992595D01*
X61742039Y-15311675D01*
X61847205Y-15616088D01*
X61940186Y-15790044D01*
X62204587Y-15885808D01*
X63160395Y-14930000D01*
X63146253Y-14915858D01*
X63325858Y-14736253D01*
X63340000Y-14750395D01*
X63354143Y-14736253D01*
X63533748Y-14915858D01*
X63519605Y-14930000D01*
X63533748Y-14944143D01*
X63354143Y-15123748D01*
X63340000Y-15109605D01*
X62384192Y-16065413D01*
X62479956Y-16329814D01*
X62769571Y-16470704D01*
X63081108Y-16552384D01*
X63402595Y-16571718D01*
X63721675Y-16527961D01*
X64026088Y-16422795D01*
X64180000Y-16340528D01*
X64180000Y-18024873D01*
X64114463Y-17981082D01*
X63816912Y-17857832D01*
X63501033Y-17795000D01*
X63178967Y-17795000D01*
X62863088Y-17857832D01*
X62565537Y-17981082D01*
X62297748Y-18160013D01*
X62070013Y-18387748D01*
X61891082Y-18655537D01*
X61885091Y-18670000D01*
X58294909Y-18670000D01*
X58288918Y-18655537D01*
X58109987Y-18387748D01*
X57882252Y-18160013D01*
X57614463Y-17981082D01*
X57316912Y-17857832D01*
X57001033Y-17795000D01*
X56678967Y-17795000D01*
X56618430Y-17807041D01*
X56610426Y-17766802D01*
X56532405Y-17578444D01*
X56419137Y-17408926D01*
X56274974Y-17264763D01*
X56105456Y-17151495D01*
X55917098Y-17073474D01*
X55717139Y-17033700D01*
X55513261Y-17033700D01*
X55313302Y-17073474D01*
X55124944Y-17151495D01*
X54955426Y-17264763D01*
X54811263Y-17408926D01*
X54697995Y-17578444D01*
X54619974Y-17766802D01*
X54580200Y-17966761D01*
X54580200Y-18170639D01*
X54619974Y-18370598D01*
X54697995Y-18558956D01*
X54733201Y-18611645D01*
X54733200Y-19985177D01*
X54729524Y-20022500D01*
X54733200Y-20059822D01*
X54733200Y-20059832D01*
X54744197Y-20171485D01*
X54784535Y-20304463D01*
X54787654Y-20314746D01*
X54858226Y-20446776D01*
X54879134Y-20472252D01*
X54953199Y-20562501D01*
X54970744Y-20576900D01*
X54537002Y-20576900D01*
X53799104Y-19839002D01*
X53775301Y-19809999D01*
X53659576Y-19715026D01*
X53527547Y-19644454D01*
X53384286Y-19600997D01*
X53378959Y-19600472D01*
X53361185Y-19578815D01*
X53264494Y-19499463D01*
X53154180Y-19440498D01*
X53034482Y-19404188D01*
X52910000Y-19391928D01*
X51344700Y-19391928D01*
X51344700Y-18768072D01*
X52910000Y-18768072D01*
X53034482Y-18755812D01*
X53154180Y-18719502D01*
X53264494Y-18660537D01*
X53361185Y-18581185D01*
X53378959Y-18559528D01*
X53384286Y-18559003D01*
X53527547Y-18515546D01*
X53659576Y-18444974D01*
X53775301Y-18350001D01*
X53870274Y-18234276D01*
X53940846Y-18102247D01*
X53944740Y-18089411D01*
X53951756Y-18086505D01*
X54121274Y-17973237D01*
X54265437Y-17829074D01*
X54378705Y-17659556D01*
X54456726Y-17471198D01*
X54496500Y-17271239D01*
X54496500Y-17067361D01*
X54456726Y-16867402D01*
X54378705Y-16679044D01*
X54265437Y-16509526D01*
X54121274Y-16365363D01*
X53951756Y-16252095D01*
X53763398Y-16174074D01*
X53563439Y-16134300D01*
X53359561Y-16134300D01*
X53159602Y-16174074D01*
X52971244Y-16252095D01*
X52801726Y-16365363D01*
X52657563Y-16509526D01*
X52544295Y-16679044D01*
X52472684Y-16851928D01*
X51344700Y-16851928D01*
X51344700Y-16635122D01*
X51348376Y-16597799D01*
X51344700Y-16560476D01*
X51344700Y-16560467D01*
X51333703Y-16448814D01*
X51290246Y-16305553D01*
X51254297Y-16238298D01*
X51219674Y-16173523D01*
X51148499Y-16086797D01*
X51130950Y-16065413D01*
X55884192Y-16065413D01*
X55979956Y-16329814D01*
X56269571Y-16470704D01*
X56581108Y-16552384D01*
X56902595Y-16571718D01*
X57221675Y-16527961D01*
X57526088Y-16422795D01*
X57700044Y-16329814D01*
X57795808Y-16065413D01*
X56840000Y-15109605D01*
X55884192Y-16065413D01*
X51130950Y-16065413D01*
X51124701Y-16057799D01*
X51095704Y-16034002D01*
X49762103Y-14700402D01*
X49738300Y-14671398D01*
X49622575Y-14576425D01*
X49490546Y-14505853D01*
X49347285Y-14462396D01*
X49235632Y-14451399D01*
X49235621Y-14451399D01*
X49198299Y-14447723D01*
X49160977Y-14451399D01*
X48301653Y-14451399D01*
X48288405Y-14426613D01*
X48177962Y-14292038D01*
X48043387Y-14181595D01*
X47889851Y-14099528D01*
X47858441Y-14090000D01*
X55430435Y-14090000D01*
X55299296Y-14359571D01*
G37*
X55299296Y-14359571D02*
X55217616Y-14671108D01*
X55198282Y-14992595D01*
X55242039Y-15311675D01*
X55347205Y-15616088D01*
X55440186Y-15790044D01*
X55704587Y-15885808D01*
X56660395Y-14930000D01*
X56646253Y-14915858D01*
X56825858Y-14736253D01*
X56840000Y-14750395D01*
X56854143Y-14736253D01*
X57033748Y-14915858D01*
X57019605Y-14930000D01*
X57975413Y-15885808D01*
X58239814Y-15790044D01*
X58380704Y-15500429D01*
X58462384Y-15188892D01*
X58481718Y-14867405D01*
X58437961Y-14548325D01*
X58332795Y-14243912D01*
X58250528Y-14090000D01*
X61930435Y-14090000D01*
X61799296Y-14359571D01*
X61717616Y-14671108D01*
X61698282Y-14992595D01*
X61742039Y-15311675D01*
X61847205Y-15616088D01*
X61940186Y-15790044D01*
X62204587Y-15885808D01*
X63160395Y-14930000D01*
X63146253Y-14915858D01*
X63325858Y-14736253D01*
X63340000Y-14750395D01*
X63354143Y-14736253D01*
X63533748Y-14915858D01*
X63519605Y-14930000D01*
X63533748Y-14944143D01*
X63354143Y-15123748D01*
X63340000Y-15109605D01*
X62384192Y-16065413D01*
X62479956Y-16329814D01*
X62769571Y-16470704D01*
X63081108Y-16552384D01*
X63402595Y-16571718D01*
X63721675Y-16527961D01*
X64026088Y-16422795D01*
X64180000Y-16340528D01*
X64180000Y-18024873D01*
X64114463Y-17981082D01*
X63816912Y-17857832D01*
X63501033Y-17795000D01*
X63178967Y-17795000D01*
X62863088Y-17857832D01*
X62565537Y-17981082D01*
X62297748Y-18160013D01*
X62070013Y-18387748D01*
X61891082Y-18655537D01*
X61885091Y-18670000D01*
X58294909Y-18670000D01*
X58288918Y-18655537D01*
X58109987Y-18387748D01*
X57882252Y-18160013D01*
X57614463Y-17981082D01*
X57316912Y-17857832D01*
X57001033Y-17795000D01*
X56678967Y-17795000D01*
X56618430Y-17807041D01*
X56610426Y-17766802D01*
X56532405Y-17578444D01*
X56419137Y-17408926D01*
X56274974Y-17264763D01*
X56105456Y-17151495D01*
X55917098Y-17073474D01*
X55717139Y-17033700D01*
X55513261Y-17033700D01*
X55313302Y-17073474D01*
X55124944Y-17151495D01*
X54955426Y-17264763D01*
X54811263Y-17408926D01*
X54697995Y-17578444D01*
X54619974Y-17766802D01*
X54580200Y-17966761D01*
X54580200Y-18170639D01*
X54619974Y-18370598D01*
X54697995Y-18558956D01*
X54733201Y-18611645D01*
X54733200Y-19985177D01*
X54729524Y-20022500D01*
X54733200Y-20059822D01*
X54733200Y-20059832D01*
X54744197Y-20171485D01*
X54784535Y-20304463D01*
X54787654Y-20314746D01*
X54858226Y-20446776D01*
X54879134Y-20472252D01*
X54953199Y-20562501D01*
X54970744Y-20576900D01*
X54537002Y-20576900D01*
X53799104Y-19839002D01*
X53775301Y-19809999D01*
X53659576Y-19715026D01*
X53527547Y-19644454D01*
X53384286Y-19600997D01*
X53378959Y-19600472D01*
X53361185Y-19578815D01*
X53264494Y-19499463D01*
X53154180Y-19440498D01*
X53034482Y-19404188D01*
X52910000Y-19391928D01*
X51344700Y-19391928D01*
X51344700Y-18768072D01*
X52910000Y-18768072D01*
X53034482Y-18755812D01*
X53154180Y-18719502D01*
X53264494Y-18660537D01*
X53361185Y-18581185D01*
X53378959Y-18559528D01*
X53384286Y-18559003D01*
X53527547Y-18515546D01*
X53659576Y-18444974D01*
X53775301Y-18350001D01*
X53870274Y-18234276D01*
X53940846Y-18102247D01*
X53944740Y-18089411D01*
X53951756Y-18086505D01*
X54121274Y-17973237D01*
X54265437Y-17829074D01*
X54378705Y-17659556D01*
X54456726Y-17471198D01*
X54496500Y-17271239D01*
X54496500Y-17067361D01*
X54456726Y-16867402D01*
X54378705Y-16679044D01*
X54265437Y-16509526D01*
X54121274Y-16365363D01*
X53951756Y-16252095D01*
X53763398Y-16174074D01*
X53563439Y-16134300D01*
X53359561Y-16134300D01*
X53159602Y-16174074D01*
X52971244Y-16252095D01*
X52801726Y-16365363D01*
X52657563Y-16509526D01*
X52544295Y-16679044D01*
X52472684Y-16851928D01*
X51344700Y-16851928D01*
X51344700Y-16635122D01*
X51348376Y-16597799D01*
X51344700Y-16560476D01*
X51344700Y-16560467D01*
X51333703Y-16448814D01*
X51290246Y-16305553D01*
X51254297Y-16238298D01*
X51219674Y-16173523D01*
X51148499Y-16086797D01*
X51130950Y-16065413D01*
X55884192Y-16065413D01*
X55979956Y-16329814D01*
X56269571Y-16470704D01*
X56581108Y-16552384D01*
X56902595Y-16571718D01*
X57221675Y-16527961D01*
X57526088Y-16422795D01*
X57700044Y-16329814D01*
X57795808Y-16065413D01*
X56840000Y-15109605D01*
X55884192Y-16065413D01*
X51130950Y-16065413D01*
X51124701Y-16057799D01*
X51095704Y-16034002D01*
X49762103Y-14700402D01*
X49738300Y-14671398D01*
X49622575Y-14576425D01*
X49490546Y-14505853D01*
X49347285Y-14462396D01*
X49235632Y-14451399D01*
X49235621Y-14451399D01*
X49198299Y-14447723D01*
X49160977Y-14451399D01*
X48301653Y-14451399D01*
X48288405Y-14426613D01*
X48177962Y-14292038D01*
X48043387Y-14181595D01*
X47889851Y-14099528D01*
X47858441Y-14090000D01*
X55430435Y-14090000D01*
X55299296Y-14359571D01*
M02*
