G04 #@! TF.GenerationSoftware,KiCad,Pcbnew,(5.1.5-0-10_14)*
G04 #@! TF.CreationDate,2020-09-18T07:25:40+02:00*
G04 #@! TF.ProjectId,HB-RC-4-Dis-TH,48422d52-432d-4342-9d44-69732d54482e,rev?*
G04 #@! TF.SameCoordinates,Original*
G04 #@! TF.FileFunction,Profile,NP*
%FSLAX46Y46*%
G04 Gerber Fmt 4.6, Leading zero omitted, Abs format (unit mm)*
G04 Created by KiCad (PCBNEW (5.1.5-0-10_14)) date 2020-09-18 07:25:40*
%MOMM*%
%LPD*%
G04 APERTURE LIST*
%ADD10C,0.050000*%
%ADD11C,0.120000*%
G04 APERTURE END LIST*
D10*
X19640000Y-40880000D02*
G75*
G02X18040000Y-40880000I-800000J0D01*
G01*
X18040000Y-34980000D02*
G75*
G02X19640000Y-34980000I800000J0D01*
G01*
X14140000Y-64430000D02*
G75*
G02X13840000Y-64130000I0J300000D01*
G01*
X64840000Y-64130000D02*
G75*
G02X64540000Y-64430000I-300000J0D01*
G01*
X64540000Y-13430000D02*
G75*
G02X64840000Y-13730000I0J-300000D01*
G01*
X13840000Y-13730000D02*
G75*
G02X14140000Y-13430000I300000J0D01*
G01*
X16540000Y-35030000D02*
G75*
G02X16840000Y-35330000I0J-300000D01*
G01*
X14140000Y-35030000D02*
G75*
G02X13840000Y-34730000I0J300000D01*
G01*
X16840000Y-44890000D02*
G75*
G02X16540000Y-45190000I-300000J0D01*
G01*
X13840000Y-45490000D02*
G75*
G02X14140000Y-45190000I300000J0D01*
G01*
X64540000Y-45190000D02*
G75*
G02X64840000Y-45490000I0J-300000D01*
G01*
X62140000Y-45190000D02*
G75*
G02X61840000Y-44890000I0J300000D01*
G01*
X64840000Y-34730000D02*
G75*
G02X64540000Y-35030000I-300000J0D01*
G01*
X61840000Y-35330000D02*
G75*
G02X62140000Y-35030000I300000J0D01*
G01*
X61840000Y-44890000D02*
X61840000Y-35330000D01*
X64540000Y-45190000D02*
X62140000Y-45190000D01*
X64840000Y-64130000D02*
X64840000Y-45490000D01*
X64540000Y-35030000D02*
X62140000Y-35030000D01*
X64840000Y-13730000D02*
X64840000Y-34730000D01*
X14140000Y-35030000D02*
X16540000Y-35030000D01*
X16840000Y-44890000D02*
X16840000Y-35330000D01*
X14140000Y-45190000D02*
X16540000Y-45190000D01*
X13840000Y-64130000D02*
X13840000Y-45490000D01*
X13840000Y-13730000D02*
X13840000Y-34730000D01*
X18040000Y-40880000D02*
X18040000Y-34980000D01*
X19640000Y-34980000D02*
X19640000Y-40880000D01*
D11*
X34640000Y-51430000D02*
G75*
G03X34640000Y-51430000I-1500000J0D01*
G01*
X59640000Y-51430000D02*
G75*
G03X59640000Y-51430000I-1500000J0D01*
G01*
X34640000Y-26430000D02*
G75*
G03X34640000Y-26430000I-1500000J0D01*
G01*
X59640000Y-26430000D02*
G75*
G03X59640000Y-26430000I-1500000J0D01*
G01*
D10*
X14140000Y-13430000D02*
X64540000Y-13430000D01*
X64540000Y-64430000D02*
X14140000Y-64430000D01*
M02*
