G04 #@! TF.GenerationSoftware,KiCad,Pcbnew,(5.1.5-0-10_14)*
G04 #@! TF.CreationDate,2020-08-16T19:30:06+02:00*
G04 #@! TF.ProjectId,HB-RC-4-Dis-TH,48422d52-432d-4342-9d44-69732d54482e,rev?*
G04 #@! TF.SameCoordinates,Original*
G04 #@! TF.FileFunction,Copper,L1,Top*
G04 #@! TF.FilePolarity,Positive*
%FSLAX46Y46*%
G04 Gerber Fmt 4.6, Leading zero omitted, Abs format (unit mm)*
G04 Created by KiCad (PCBNEW (5.1.5-0-10_14)) date 2020-08-16 19:30:06*
%MOMM*%
%LPD*%
G04 APERTURE LIST*
%ADD10R,1.300000X0.300000*%
%ADD11R,4.000000X1.800000*%
%ADD12O,1.700000X1.700000*%
%ADD13C,2.000000*%
%ADD14R,1.700000X1.700000*%
%ADD15C,1.350000*%
%ADD16R,1.800000X1.350000*%
%ADD17C,0.100000*%
%ADD18C,0.800000*%
%ADD19C,0.250000*%
%ADD20C,0.254000*%
G04 APERTURE END LIST*
D10*
X56450000Y-100750000D03*
X56450000Y-101250000D03*
X56450000Y-101750000D03*
X56450000Y-102250000D03*
X56450000Y-102750000D03*
X56450000Y-103250000D03*
X56450000Y-103750000D03*
X56450000Y-104250000D03*
X56450000Y-104750000D03*
X56450000Y-105250000D03*
X56450000Y-105750000D03*
X56450000Y-106250000D03*
X56450000Y-106750000D03*
X56450000Y-107250000D03*
X56450000Y-107750000D03*
X56450000Y-108250000D03*
X56450000Y-108750000D03*
X56450000Y-109250000D03*
X56450000Y-109750000D03*
X56450000Y-110250000D03*
X56450000Y-110750000D03*
X56450000Y-111250000D03*
X56450000Y-111750000D03*
X56450000Y-112250000D03*
D11*
X59700000Y-98850000D03*
X59700000Y-114150000D03*
D12*
X31800000Y-88970000D03*
X31800000Y-86430000D03*
X31800000Y-83890000D03*
X31800000Y-81350000D03*
D13*
X44000000Y-124500000D03*
X48500000Y-124500000D03*
X44000000Y-131000000D03*
X48500000Y-131000000D03*
X71400000Y-126900000D03*
X71400000Y-131400000D03*
X64900000Y-126900000D03*
X64900000Y-131400000D03*
X28100000Y-126900000D03*
X28100000Y-131400000D03*
X21600000Y-126900000D03*
X21600000Y-131400000D03*
X64900000Y-86100000D03*
X64900000Y-81600000D03*
X71400000Y-86100000D03*
X71400000Y-81600000D03*
X21600000Y-86100000D03*
X21600000Y-81600000D03*
X28100000Y-86100000D03*
X28100000Y-81600000D03*
D12*
X25340000Y-91800000D03*
D14*
X22800000Y-91800000D03*
D12*
X21900000Y-117800000D03*
X24440000Y-117800000D03*
X26980000Y-117800000D03*
X29520000Y-117800000D03*
X32060000Y-117800000D03*
D14*
X34600000Y-117800000D03*
D15*
X42850000Y-100500000D03*
D16*
X43850000Y-100500000D03*
D15*
X42850000Y-114500000D03*
X42850000Y-112500000D03*
X42850000Y-110500000D03*
X42850000Y-108500000D03*
X42850000Y-106500000D03*
X42850000Y-104500000D03*
X42850000Y-102500000D03*
D16*
X43850000Y-114500000D03*
X43850000Y-112500000D03*
X43850000Y-110500000D03*
X43850000Y-108500000D03*
X43850000Y-106500000D03*
X43850000Y-104500000D03*
X43850000Y-102500000D03*
G04 #@! TA.AperFunction,SMDPad,CuDef*
D17*
G36*
X51474505Y-126001204D02*
G01*
X51498773Y-126004804D01*
X51522572Y-126010765D01*
X51545671Y-126019030D01*
X51567850Y-126029520D01*
X51588893Y-126042132D01*
X51608599Y-126056747D01*
X51626777Y-126073223D01*
X51643253Y-126091401D01*
X51657868Y-126111107D01*
X51670480Y-126132150D01*
X51680970Y-126154329D01*
X51689235Y-126177428D01*
X51695196Y-126201227D01*
X51698796Y-126225495D01*
X51700000Y-126249999D01*
X51700000Y-126900001D01*
X51698796Y-126924505D01*
X51695196Y-126948773D01*
X51689235Y-126972572D01*
X51680970Y-126995671D01*
X51670480Y-127017850D01*
X51657868Y-127038893D01*
X51643253Y-127058599D01*
X51626777Y-127076777D01*
X51608599Y-127093253D01*
X51588893Y-127107868D01*
X51567850Y-127120480D01*
X51545671Y-127130970D01*
X51522572Y-127139235D01*
X51498773Y-127145196D01*
X51474505Y-127148796D01*
X51450001Y-127150000D01*
X50549999Y-127150000D01*
X50525495Y-127148796D01*
X50501227Y-127145196D01*
X50477428Y-127139235D01*
X50454329Y-127130970D01*
X50432150Y-127120480D01*
X50411107Y-127107868D01*
X50391401Y-127093253D01*
X50373223Y-127076777D01*
X50356747Y-127058599D01*
X50342132Y-127038893D01*
X50329520Y-127017850D01*
X50319030Y-126995671D01*
X50310765Y-126972572D01*
X50304804Y-126948773D01*
X50301204Y-126924505D01*
X50300000Y-126900001D01*
X50300000Y-126249999D01*
X50301204Y-126225495D01*
X50304804Y-126201227D01*
X50310765Y-126177428D01*
X50319030Y-126154329D01*
X50329520Y-126132150D01*
X50342132Y-126111107D01*
X50356747Y-126091401D01*
X50373223Y-126073223D01*
X50391401Y-126056747D01*
X50411107Y-126042132D01*
X50432150Y-126029520D01*
X50454329Y-126019030D01*
X50477428Y-126010765D01*
X50501227Y-126004804D01*
X50525495Y-126001204D01*
X50549999Y-126000000D01*
X51450001Y-126000000D01*
X51474505Y-126001204D01*
G37*
G04 #@! TD.AperFunction*
G04 #@! TA.AperFunction,SMDPad,CuDef*
G36*
X51474505Y-128051204D02*
G01*
X51498773Y-128054804D01*
X51522572Y-128060765D01*
X51545671Y-128069030D01*
X51567850Y-128079520D01*
X51588893Y-128092132D01*
X51608599Y-128106747D01*
X51626777Y-128123223D01*
X51643253Y-128141401D01*
X51657868Y-128161107D01*
X51670480Y-128182150D01*
X51680970Y-128204329D01*
X51689235Y-128227428D01*
X51695196Y-128251227D01*
X51698796Y-128275495D01*
X51700000Y-128299999D01*
X51700000Y-128950001D01*
X51698796Y-128974505D01*
X51695196Y-128998773D01*
X51689235Y-129022572D01*
X51680970Y-129045671D01*
X51670480Y-129067850D01*
X51657868Y-129088893D01*
X51643253Y-129108599D01*
X51626777Y-129126777D01*
X51608599Y-129143253D01*
X51588893Y-129157868D01*
X51567850Y-129170480D01*
X51545671Y-129180970D01*
X51522572Y-129189235D01*
X51498773Y-129195196D01*
X51474505Y-129198796D01*
X51450001Y-129200000D01*
X50549999Y-129200000D01*
X50525495Y-129198796D01*
X50501227Y-129195196D01*
X50477428Y-129189235D01*
X50454329Y-129180970D01*
X50432150Y-129170480D01*
X50411107Y-129157868D01*
X50391401Y-129143253D01*
X50373223Y-129126777D01*
X50356747Y-129108599D01*
X50342132Y-129088893D01*
X50329520Y-129067850D01*
X50319030Y-129045671D01*
X50310765Y-129022572D01*
X50304804Y-128998773D01*
X50301204Y-128974505D01*
X50300000Y-128950001D01*
X50300000Y-128299999D01*
X50301204Y-128275495D01*
X50304804Y-128251227D01*
X50310765Y-128227428D01*
X50319030Y-128204329D01*
X50329520Y-128182150D01*
X50342132Y-128161107D01*
X50356747Y-128141401D01*
X50373223Y-128123223D01*
X50391401Y-128106747D01*
X50411107Y-128092132D01*
X50432150Y-128079520D01*
X50454329Y-128069030D01*
X50477428Y-128060765D01*
X50501227Y-128054804D01*
X50525495Y-128051204D01*
X50549999Y-128050000D01*
X51450001Y-128050000D01*
X51474505Y-128051204D01*
G37*
G04 #@! TD.AperFunction*
G04 #@! TA.AperFunction,SMDPad,CuDef*
G36*
X41974505Y-126001204D02*
G01*
X41998773Y-126004804D01*
X42022572Y-126010765D01*
X42045671Y-126019030D01*
X42067850Y-126029520D01*
X42088893Y-126042132D01*
X42108599Y-126056747D01*
X42126777Y-126073223D01*
X42143253Y-126091401D01*
X42157868Y-126111107D01*
X42170480Y-126132150D01*
X42180970Y-126154329D01*
X42189235Y-126177428D01*
X42195196Y-126201227D01*
X42198796Y-126225495D01*
X42200000Y-126249999D01*
X42200000Y-126900001D01*
X42198796Y-126924505D01*
X42195196Y-126948773D01*
X42189235Y-126972572D01*
X42180970Y-126995671D01*
X42170480Y-127017850D01*
X42157868Y-127038893D01*
X42143253Y-127058599D01*
X42126777Y-127076777D01*
X42108599Y-127093253D01*
X42088893Y-127107868D01*
X42067850Y-127120480D01*
X42045671Y-127130970D01*
X42022572Y-127139235D01*
X41998773Y-127145196D01*
X41974505Y-127148796D01*
X41950001Y-127150000D01*
X41049999Y-127150000D01*
X41025495Y-127148796D01*
X41001227Y-127145196D01*
X40977428Y-127139235D01*
X40954329Y-127130970D01*
X40932150Y-127120480D01*
X40911107Y-127107868D01*
X40891401Y-127093253D01*
X40873223Y-127076777D01*
X40856747Y-127058599D01*
X40842132Y-127038893D01*
X40829520Y-127017850D01*
X40819030Y-126995671D01*
X40810765Y-126972572D01*
X40804804Y-126948773D01*
X40801204Y-126924505D01*
X40800000Y-126900001D01*
X40800000Y-126249999D01*
X40801204Y-126225495D01*
X40804804Y-126201227D01*
X40810765Y-126177428D01*
X40819030Y-126154329D01*
X40829520Y-126132150D01*
X40842132Y-126111107D01*
X40856747Y-126091401D01*
X40873223Y-126073223D01*
X40891401Y-126056747D01*
X40911107Y-126042132D01*
X40932150Y-126029520D01*
X40954329Y-126019030D01*
X40977428Y-126010765D01*
X41001227Y-126004804D01*
X41025495Y-126001204D01*
X41049999Y-126000000D01*
X41950001Y-126000000D01*
X41974505Y-126001204D01*
G37*
G04 #@! TD.AperFunction*
G04 #@! TA.AperFunction,SMDPad,CuDef*
G36*
X41974505Y-128051204D02*
G01*
X41998773Y-128054804D01*
X42022572Y-128060765D01*
X42045671Y-128069030D01*
X42067850Y-128079520D01*
X42088893Y-128092132D01*
X42108599Y-128106747D01*
X42126777Y-128123223D01*
X42143253Y-128141401D01*
X42157868Y-128161107D01*
X42170480Y-128182150D01*
X42180970Y-128204329D01*
X42189235Y-128227428D01*
X42195196Y-128251227D01*
X42198796Y-128275495D01*
X42200000Y-128299999D01*
X42200000Y-128950001D01*
X42198796Y-128974505D01*
X42195196Y-128998773D01*
X42189235Y-129022572D01*
X42180970Y-129045671D01*
X42170480Y-129067850D01*
X42157868Y-129088893D01*
X42143253Y-129108599D01*
X42126777Y-129126777D01*
X42108599Y-129143253D01*
X42088893Y-129157868D01*
X42067850Y-129170480D01*
X42045671Y-129180970D01*
X42022572Y-129189235D01*
X41998773Y-129195196D01*
X41974505Y-129198796D01*
X41950001Y-129200000D01*
X41049999Y-129200000D01*
X41025495Y-129198796D01*
X41001227Y-129195196D01*
X40977428Y-129189235D01*
X40954329Y-129180970D01*
X40932150Y-129170480D01*
X40911107Y-129157868D01*
X40891401Y-129143253D01*
X40873223Y-129126777D01*
X40856747Y-129108599D01*
X40842132Y-129088893D01*
X40829520Y-129067850D01*
X40819030Y-129045671D01*
X40810765Y-129022572D01*
X40804804Y-128998773D01*
X40801204Y-128974505D01*
X40800000Y-128950001D01*
X40800000Y-128299999D01*
X40801204Y-128275495D01*
X40804804Y-128251227D01*
X40810765Y-128227428D01*
X40819030Y-128204329D01*
X40829520Y-128182150D01*
X40842132Y-128161107D01*
X40856747Y-128141401D01*
X40873223Y-128123223D01*
X40891401Y-128106747D01*
X40911107Y-128092132D01*
X40932150Y-128079520D01*
X40954329Y-128069030D01*
X40977428Y-128060765D01*
X41001227Y-128054804D01*
X41025495Y-128051204D01*
X41049999Y-128050000D01*
X41950001Y-128050000D01*
X41974505Y-128051204D01*
G37*
G04 #@! TD.AperFunction*
D18*
X27000000Y-103000000D03*
X30000000Y-103000000D03*
X33000000Y-103000000D03*
X36000000Y-103000000D03*
X36000000Y-106000000D03*
X36000000Y-109000000D03*
X36000000Y-112000000D03*
X33000000Y-112000000D03*
X30000000Y-112000000D03*
X27000000Y-112000000D03*
X27000000Y-109000000D03*
X30000000Y-109000000D03*
X33000000Y-109000000D03*
X33000000Y-106000000D03*
X30000000Y-106000000D03*
X27000000Y-106000000D03*
X39000000Y-103000000D03*
X39000000Y-106000000D03*
X39000000Y-109000000D03*
X39000000Y-112000000D03*
X57720000Y-104250000D03*
X55425000Y-82875000D03*
X39800000Y-83400000D03*
X46400000Y-113500000D03*
X54800000Y-131000000D03*
X50900000Y-118600000D03*
X60628400Y-100571600D03*
X68385900Y-83714100D03*
X67935400Y-129664600D03*
X24700000Y-129600000D03*
X33200000Y-129400000D03*
X39357300Y-126575000D03*
X53543200Y-126575000D03*
X43838000Y-90703000D03*
X48491700Y-91910900D03*
X39323900Y-90532500D03*
X48686500Y-84369300D03*
X39173900Y-91532900D03*
X48840600Y-115441200D03*
X55186900Y-104750000D03*
X65546200Y-103838500D03*
X65996500Y-102242300D03*
X53559500Y-94413200D03*
X52835100Y-93132400D03*
X64609400Y-102000600D03*
X55256100Y-90711000D03*
X64325300Y-100495900D03*
X49606100Y-87814900D03*
X40851400Y-120527600D03*
X49987600Y-113661600D03*
X46949300Y-104307900D03*
X46882700Y-91445500D03*
X61334200Y-91080800D03*
X49574600Y-88971600D03*
X54573400Y-95785500D03*
X58961000Y-94137400D03*
X59903100Y-96203900D03*
X58853600Y-95201700D03*
X46053100Y-110379600D03*
X52831800Y-104643200D03*
X46860300Y-109588700D03*
X47387300Y-108700900D03*
X47147500Y-107578700D03*
X50712500Y-111007100D03*
X50353700Y-110006700D03*
X58555900Y-102274400D03*
X50318900Y-104645400D03*
X59836300Y-111184200D03*
X65095900Y-105739600D03*
D19*
X43850000Y-112500000D02*
X46834400Y-112500000D01*
X46834400Y-112500000D02*
X50584400Y-108750000D01*
X50584400Y-108750000D02*
X56450000Y-108750000D01*
X57425300Y-104250000D02*
X57720000Y-104250000D01*
X56450000Y-104250000D02*
X57425300Y-104250000D01*
X41500000Y-128625000D02*
X30875000Y-128625000D01*
X30875000Y-128625000D02*
X28100000Y-131400000D01*
X42850000Y-112500000D02*
X41125400Y-114224600D01*
X41125400Y-114224600D02*
X41125400Y-115747100D01*
X41125400Y-115747100D02*
X40698100Y-116174400D01*
X40698100Y-116174400D02*
X37400900Y-116174400D01*
X37400900Y-116174400D02*
X35775300Y-117800000D01*
X42850000Y-112500000D02*
X43850000Y-112500000D01*
X34600000Y-117800000D02*
X35775300Y-117800000D01*
X32060000Y-117800000D02*
X34600000Y-117800000D01*
X51000000Y-128625000D02*
X62125000Y-128625000D01*
X62125000Y-128625000D02*
X64900000Y-131400000D01*
X50875000Y-128625000D02*
X51000000Y-128625000D01*
X31800000Y-83890000D02*
X30624700Y-83890000D01*
X28100000Y-81600000D02*
X28334700Y-81600000D01*
X28334700Y-81600000D02*
X30624700Y-83890000D01*
X41500000Y-128625000D02*
X46125000Y-128625000D01*
X46125000Y-128625000D02*
X48500000Y-131000000D01*
X41500000Y-126575000D02*
X39357300Y-126575000D01*
X51000000Y-126575000D02*
X53543200Y-126575000D01*
X43838000Y-90703000D02*
X43838000Y-99487700D01*
X43838000Y-99487700D02*
X43850000Y-99499700D01*
X43850000Y-100500000D02*
X43850000Y-99499700D01*
X43850000Y-100500000D02*
X42850000Y-100500000D01*
X45075300Y-102500000D02*
X45075300Y-92173400D01*
X45075300Y-92173400D02*
X46555600Y-90693100D01*
X46555600Y-90693100D02*
X47273900Y-90693100D01*
X47273900Y-90693100D02*
X48491700Y-91910900D01*
X43850000Y-102500000D02*
X45075300Y-102500000D01*
X42850000Y-102500000D02*
X43850000Y-102500000D01*
X42850000Y-106500000D02*
X41798400Y-105448400D01*
X41798400Y-105448400D02*
X41798400Y-93007000D01*
X41798400Y-93007000D02*
X39323900Y-90532500D01*
X43850000Y-106500000D02*
X42850000Y-106500000D01*
X55307300Y-100098100D02*
X55307300Y-94578800D01*
X55307300Y-94578800D02*
X50504400Y-89775900D01*
X50504400Y-89775900D02*
X49353000Y-89775900D01*
X49353000Y-89775900D02*
X48391000Y-88813900D01*
X48391000Y-88813900D02*
X48391000Y-84664800D01*
X48391000Y-84664800D02*
X48686500Y-84369300D01*
X55307300Y-100098100D02*
X53135800Y-100098100D01*
X53135800Y-100098100D02*
X45075300Y-108158600D01*
X45075300Y-108158600D02*
X45075300Y-108500000D01*
X55307300Y-100098100D02*
X57405400Y-100098100D01*
X57405400Y-100098100D02*
X59332000Y-102024700D01*
X59332000Y-102024700D02*
X59332000Y-104206400D01*
X59332000Y-104206400D02*
X57288400Y-106250000D01*
X57288400Y-106250000D02*
X56450000Y-106250000D01*
X43850000Y-108500000D02*
X45075300Y-108500000D01*
X42850000Y-108500000D02*
X43850000Y-108500000D01*
X45075300Y-110500000D02*
X45735600Y-111160300D01*
X45735600Y-111160300D02*
X47537200Y-111160300D01*
X47537200Y-111160300D02*
X50397900Y-108299600D01*
X50397900Y-108299600D02*
X51931400Y-108299600D01*
X51931400Y-108299600D02*
X54481000Y-105750000D01*
X54481000Y-105750000D02*
X56450000Y-105750000D01*
X43850000Y-110500000D02*
X45075300Y-110500000D01*
X42850000Y-110500000D02*
X43850000Y-110500000D01*
X42850000Y-110500000D02*
X41348000Y-108998000D01*
X41348000Y-108998000D02*
X41348000Y-93707000D01*
X41348000Y-93707000D02*
X39173900Y-91532900D01*
X45075300Y-114500000D02*
X46016500Y-115441200D01*
X46016500Y-115441200D02*
X48840600Y-115441200D01*
X43850000Y-114500000D02*
X45075300Y-114500000D01*
X55474700Y-104750000D02*
X55186900Y-104750000D01*
X42850000Y-114500000D02*
X42850000Y-114750000D01*
X42850000Y-114750000D02*
X40750200Y-116849800D01*
X40750200Y-116849800D02*
X38184100Y-116849800D01*
X38184100Y-116849800D02*
X36058600Y-118975300D01*
X36058600Y-118975300D02*
X31503200Y-118975300D01*
X31503200Y-118975300D02*
X30695300Y-118167400D01*
X30695300Y-118167400D02*
X30695300Y-117800000D01*
X42850000Y-114500000D02*
X43850000Y-114500000D01*
X29520000Y-117800000D02*
X30695300Y-117800000D01*
X55962400Y-105250000D02*
X55618200Y-105250000D01*
X55618200Y-105250000D02*
X55474700Y-105106500D01*
X55474700Y-105106500D02*
X55474700Y-104750000D01*
X56450000Y-104750000D02*
X55474700Y-104750000D01*
X56450000Y-105250000D02*
X55962400Y-105250000D01*
X65546200Y-103838500D02*
X65821300Y-104113600D01*
X65821300Y-104113600D02*
X65821300Y-106265300D01*
X65821300Y-106265300D02*
X59311600Y-112775000D01*
X59311600Y-112775000D02*
X53629000Y-112775000D01*
X53629000Y-112775000D02*
X44783600Y-121620400D01*
X44783600Y-121620400D02*
X31608400Y-121620400D01*
X31608400Y-121620400D02*
X28155300Y-118167300D01*
X28155300Y-118167300D02*
X28155300Y-117800000D01*
X26980000Y-117800000D02*
X28155300Y-117800000D01*
X65996500Y-102242300D02*
X66271600Y-102517400D01*
X66271600Y-102517400D02*
X66271600Y-106947900D01*
X66271600Y-106947900D02*
X62344000Y-110875500D01*
X62344000Y-110875500D02*
X62344000Y-114895700D01*
X62344000Y-114895700D02*
X55158300Y-122081400D01*
X55158300Y-122081400D02*
X29529400Y-122081400D01*
X29529400Y-122081400D02*
X25615300Y-118167300D01*
X25615300Y-118167300D02*
X25615300Y-117800000D01*
X24440000Y-117800000D02*
X25615300Y-117800000D01*
X31800000Y-88970000D02*
X32975300Y-88970000D01*
X53559500Y-94413200D02*
X52716500Y-94413200D01*
X52716500Y-94413200D02*
X47273300Y-88970000D01*
X47273300Y-88970000D02*
X32975300Y-88970000D01*
X52835100Y-93132400D02*
X52072600Y-93132400D01*
X52072600Y-93132400D02*
X45370200Y-86430000D01*
X45370200Y-86430000D02*
X31800000Y-86430000D01*
X56450000Y-108250000D02*
X58360000Y-108250000D01*
X58360000Y-108250000D02*
X64609400Y-102000600D01*
X56450000Y-107750000D02*
X57834300Y-107750000D01*
X57834300Y-107750000D02*
X64309000Y-101275300D01*
X64309000Y-101275300D02*
X64571700Y-101275300D01*
X64571700Y-101275300D02*
X65074100Y-100772900D01*
X65074100Y-100772900D02*
X65074100Y-100218800D01*
X65074100Y-100218800D02*
X61962700Y-97107400D01*
X61962700Y-97107400D02*
X59733300Y-97107400D01*
X59733300Y-97107400D02*
X55256100Y-92630200D01*
X55256100Y-92630200D02*
X55256100Y-90711000D01*
X56450000Y-107250000D02*
X57571200Y-107250000D01*
X57571200Y-107250000D02*
X64325300Y-100495900D01*
X49606100Y-87814900D02*
X59403400Y-97612200D01*
X59403400Y-97612200D02*
X61830600Y-97612200D01*
X61830600Y-97612200D02*
X62048700Y-97830300D01*
X62048700Y-97830300D02*
X62048700Y-102135600D01*
X62048700Y-102135600D02*
X57434300Y-106750000D01*
X57434300Y-106750000D02*
X56450000Y-106750000D01*
X46882700Y-91445500D02*
X46882700Y-104241300D01*
X46882700Y-104241300D02*
X46949300Y-104307900D01*
X40851400Y-120527600D02*
X44783000Y-120527600D01*
X44783000Y-120527600D02*
X49987600Y-115323000D01*
X49987600Y-115323000D02*
X49987600Y-113661600D01*
X61334200Y-91080800D02*
X57341200Y-87087800D01*
X57341200Y-87087800D02*
X49292200Y-87087800D01*
X49292200Y-87087800D02*
X48860600Y-87519400D01*
X48860600Y-87519400D02*
X48860600Y-88257600D01*
X48860600Y-88257600D02*
X49574600Y-88971600D01*
X54573400Y-95785500D02*
X53451900Y-95785500D01*
X53451900Y-95785500D02*
X47439000Y-89772600D01*
X47439000Y-89772600D02*
X38420900Y-89772600D01*
X38420900Y-89772600D02*
X37995800Y-90197700D01*
X37995800Y-90197700D02*
X31333200Y-90197700D01*
X31333200Y-90197700D02*
X28100000Y-86964500D01*
X28100000Y-86964500D02*
X28100000Y-86100000D01*
X28100000Y-86100000D02*
X21600000Y-86100000D01*
X64900000Y-86100000D02*
X71400000Y-86100000D01*
X64900000Y-86100000D02*
X64900000Y-88540800D01*
X64900000Y-88540800D02*
X59303400Y-94137400D01*
X59303400Y-94137400D02*
X58961000Y-94137400D01*
X59903100Y-96203900D02*
X60246600Y-96547400D01*
X60246600Y-96547400D02*
X62050500Y-96547400D01*
X62050500Y-96547400D02*
X66722000Y-101218900D01*
X66722000Y-101218900D02*
X66722000Y-107134400D01*
X66722000Y-107134400D02*
X63024700Y-110831700D01*
X63024700Y-110831700D02*
X63024700Y-114882000D01*
X63024700Y-114882000D02*
X55025200Y-122881500D01*
X55025200Y-122881500D02*
X32118500Y-122881500D01*
X32118500Y-122881500D02*
X28100000Y-126900000D01*
X28100000Y-126900000D02*
X21600000Y-126900000D01*
X58853600Y-95201700D02*
X60704800Y-95201700D01*
X60704800Y-95201700D02*
X61445900Y-95942800D01*
X61445900Y-95942800D02*
X62127800Y-95942800D01*
X62127800Y-95942800D02*
X67575400Y-101390400D01*
X67575400Y-101390400D02*
X67575400Y-124224600D01*
X67575400Y-124224600D02*
X64900000Y-126900000D01*
X71400000Y-126900000D02*
X64925000Y-126900000D01*
X56450000Y-103750000D02*
X55144600Y-103750000D01*
X55144600Y-103750000D02*
X53144600Y-105750000D01*
X53144600Y-105750000D02*
X52310600Y-105750000D01*
X52310600Y-105750000D02*
X47681000Y-110379600D01*
X47681000Y-110379600D02*
X46053100Y-110379600D01*
X56450000Y-103250000D02*
X54225000Y-103250000D01*
X54225000Y-103250000D02*
X52831800Y-104643200D01*
X56450000Y-102750000D02*
X53699200Y-102750000D01*
X53699200Y-102750000D02*
X51959900Y-104489300D01*
X51959900Y-104489300D02*
X51959900Y-105171600D01*
X51959900Y-105171600D02*
X47542800Y-109588700D01*
X47542800Y-109588700D02*
X46860300Y-109588700D01*
X56450000Y-101750000D02*
X54031300Y-101750000D01*
X54031300Y-101750000D02*
X51044300Y-104737000D01*
X51044300Y-104737000D02*
X51044300Y-105043900D01*
X51044300Y-105043900D02*
X47387300Y-108700900D01*
X56450000Y-100750000D02*
X53188500Y-100750000D01*
X53188500Y-100750000D02*
X47147500Y-106791000D01*
X47147500Y-106791000D02*
X47147500Y-107578700D01*
X56450000Y-110750000D02*
X50969600Y-110750000D01*
X50969600Y-110750000D02*
X50712500Y-111007100D01*
X56450000Y-110250000D02*
X50597000Y-110250000D01*
X50597000Y-110250000D02*
X50353700Y-110006700D01*
X56450000Y-102250000D02*
X57425300Y-102250000D01*
X58555900Y-102274400D02*
X57449700Y-102274400D01*
X57449700Y-102274400D02*
X57425300Y-102250000D01*
X50318900Y-104645400D02*
X53714300Y-101250000D01*
X53714300Y-101250000D02*
X56450000Y-101250000D01*
X56450000Y-111750000D02*
X59270500Y-111750000D01*
X59270500Y-111750000D02*
X59836300Y-111184200D01*
X56450000Y-111250000D02*
X58701700Y-111250000D01*
X58701700Y-111250000D02*
X64212100Y-105739600D01*
X64212100Y-105739600D02*
X65095900Y-105739600D01*
X43850000Y-104500000D02*
X42850000Y-104500000D01*
D20*
G36*
X66815401Y-123909797D02*
G01*
X65391376Y-125333823D01*
X65376912Y-125327832D01*
X65061033Y-125265000D01*
X64738967Y-125265000D01*
X64423088Y-125327832D01*
X64125537Y-125451082D01*
X63857748Y-125630013D01*
X63630013Y-125857748D01*
X63451082Y-126125537D01*
X63327832Y-126423088D01*
X63265000Y-126738967D01*
X63265000Y-127061033D01*
X63327832Y-127376912D01*
X63451082Y-127674463D01*
X63630013Y-127942252D01*
X63857748Y-128169987D01*
X64125537Y-128348918D01*
X64423088Y-128472168D01*
X64738967Y-128535000D01*
X65061033Y-128535000D01*
X65376912Y-128472168D01*
X65674463Y-128348918D01*
X65942252Y-128169987D01*
X66169987Y-127942252D01*
X66348918Y-127674463D01*
X66354909Y-127660000D01*
X69945091Y-127660000D01*
X69951082Y-127674463D01*
X70130013Y-127942252D01*
X70357748Y-128169987D01*
X70625537Y-128348918D01*
X70923088Y-128472168D01*
X71238967Y-128535000D01*
X71561033Y-128535000D01*
X71876912Y-128472168D01*
X72174463Y-128348918D01*
X72340000Y-128238309D01*
X72340000Y-130220942D01*
X72260044Y-130000186D01*
X71970429Y-129859296D01*
X71658892Y-129777616D01*
X71337405Y-129758282D01*
X71018325Y-129802039D01*
X70713912Y-129907205D01*
X70539956Y-130000186D01*
X70444192Y-130264587D01*
X71400000Y-131220395D01*
X71414143Y-131206253D01*
X71593748Y-131385858D01*
X71579605Y-131400000D01*
X71593748Y-131414143D01*
X71414143Y-131593748D01*
X71400000Y-131579605D01*
X71385858Y-131593748D01*
X71206253Y-131414143D01*
X71220395Y-131400000D01*
X70264587Y-130444192D01*
X70000186Y-130539956D01*
X69859296Y-130829571D01*
X69777616Y-131141108D01*
X69758282Y-131462595D01*
X69802039Y-131781675D01*
X69907205Y-132086088D01*
X70000186Y-132260044D01*
X70220942Y-132340000D01*
X66079058Y-132340000D01*
X66299814Y-132260044D01*
X66440704Y-131970429D01*
X66522384Y-131658892D01*
X66541718Y-131337405D01*
X66497961Y-131018325D01*
X66392795Y-130713912D01*
X66299814Y-130539956D01*
X66035413Y-130444192D01*
X65079605Y-131400000D01*
X65093748Y-131414143D01*
X64914143Y-131593748D01*
X64900000Y-131579605D01*
X64885858Y-131593748D01*
X64706253Y-131414143D01*
X64720395Y-131400000D01*
X63764587Y-130444192D01*
X63500186Y-130539956D01*
X63359296Y-130829571D01*
X63277616Y-131141108D01*
X63258282Y-131462595D01*
X63302039Y-131781675D01*
X63407205Y-132086088D01*
X63500186Y-132260044D01*
X63720942Y-132340000D01*
X49381708Y-132340000D01*
X49455808Y-132135413D01*
X48500000Y-131179605D01*
X47544192Y-132135413D01*
X47618292Y-132340000D01*
X44937470Y-132340000D01*
X45042252Y-132269987D01*
X45269987Y-132042252D01*
X45448918Y-131774463D01*
X45572168Y-131476912D01*
X45635000Y-131161033D01*
X45635000Y-131062595D01*
X46858282Y-131062595D01*
X46902039Y-131381675D01*
X47007205Y-131686088D01*
X47100186Y-131860044D01*
X47364587Y-131955808D01*
X48320395Y-131000000D01*
X48679605Y-131000000D01*
X49635413Y-131955808D01*
X49899814Y-131860044D01*
X50040704Y-131570429D01*
X50122384Y-131258892D01*
X50141718Y-130937405D01*
X50097961Y-130618325D01*
X49992795Y-130313912D01*
X49966431Y-130264587D01*
X63944192Y-130264587D01*
X64900000Y-131220395D01*
X65855808Y-130264587D01*
X65760044Y-130000186D01*
X65470429Y-129859296D01*
X65158892Y-129777616D01*
X64837405Y-129758282D01*
X64518325Y-129802039D01*
X64213912Y-129907205D01*
X64039956Y-130000186D01*
X63944192Y-130264587D01*
X49966431Y-130264587D01*
X49899814Y-130139956D01*
X49635413Y-130044192D01*
X48679605Y-131000000D01*
X48320395Y-131000000D01*
X47364587Y-130044192D01*
X47100186Y-130139956D01*
X46959296Y-130429571D01*
X46877616Y-130741108D01*
X46858282Y-131062595D01*
X45635000Y-131062595D01*
X45635000Y-130838967D01*
X45572168Y-130523088D01*
X45448918Y-130225537D01*
X45269987Y-129957748D01*
X45176826Y-129864587D01*
X47544192Y-129864587D01*
X48500000Y-130820395D01*
X49455808Y-129864587D01*
X49360044Y-129600186D01*
X49070429Y-129459296D01*
X48758892Y-129377616D01*
X48437405Y-129358282D01*
X48118325Y-129402039D01*
X47813912Y-129507205D01*
X47639956Y-129600186D01*
X47544192Y-129864587D01*
X45176826Y-129864587D01*
X45042252Y-129730013D01*
X44774463Y-129551082D01*
X44476912Y-129427832D01*
X44161033Y-129365000D01*
X43838967Y-129365000D01*
X43523088Y-129427832D01*
X43225537Y-129551082D01*
X42957748Y-129730013D01*
X42730013Y-129957748D01*
X42551082Y-130225537D01*
X42427832Y-130523088D01*
X42365000Y-130838967D01*
X42365000Y-131161033D01*
X42427832Y-131476912D01*
X42551082Y-131774463D01*
X42730013Y-132042252D01*
X42957748Y-132269987D01*
X43062530Y-132340000D01*
X29279058Y-132340000D01*
X29499814Y-132260044D01*
X29640704Y-131970429D01*
X29722384Y-131658892D01*
X29741718Y-131337405D01*
X29697961Y-131018325D01*
X29592795Y-130713912D01*
X29499814Y-130539956D01*
X29235413Y-130444192D01*
X28279605Y-131400000D01*
X28293748Y-131414143D01*
X28114143Y-131593748D01*
X28100000Y-131579605D01*
X28085858Y-131593748D01*
X27906253Y-131414143D01*
X27920395Y-131400000D01*
X26964587Y-130444192D01*
X26700186Y-130539956D01*
X26559296Y-130829571D01*
X26477616Y-131141108D01*
X26458282Y-131462595D01*
X26502039Y-131781675D01*
X26607205Y-132086088D01*
X26700186Y-132260044D01*
X26920942Y-132340000D01*
X22779058Y-132340000D01*
X22999814Y-132260044D01*
X23140704Y-131970429D01*
X23222384Y-131658892D01*
X23241718Y-131337405D01*
X23197961Y-131018325D01*
X23092795Y-130713912D01*
X22999814Y-130539956D01*
X22735413Y-130444192D01*
X21779605Y-131400000D01*
X21793748Y-131414143D01*
X21614143Y-131593748D01*
X21600000Y-131579605D01*
X21585858Y-131593748D01*
X21406253Y-131414143D01*
X21420395Y-131400000D01*
X21406253Y-131385858D01*
X21585858Y-131206253D01*
X21600000Y-131220395D01*
X22555808Y-130264587D01*
X27144192Y-130264587D01*
X28100000Y-131220395D01*
X29055808Y-130264587D01*
X28960044Y-130000186D01*
X28670429Y-129859296D01*
X28358892Y-129777616D01*
X28037405Y-129758282D01*
X27718325Y-129802039D01*
X27413912Y-129907205D01*
X27239956Y-130000186D01*
X27144192Y-130264587D01*
X22555808Y-130264587D01*
X22460044Y-130000186D01*
X22170429Y-129859296D01*
X21858892Y-129777616D01*
X21537405Y-129758282D01*
X21218325Y-129802039D01*
X20913912Y-129907205D01*
X20739956Y-130000186D01*
X20660000Y-130220942D01*
X20660000Y-129200000D01*
X40161928Y-129200000D01*
X40174188Y-129324482D01*
X40210498Y-129444180D01*
X40269463Y-129554494D01*
X40348815Y-129651185D01*
X40445506Y-129730537D01*
X40555820Y-129789502D01*
X40675518Y-129825812D01*
X40800000Y-129838072D01*
X41214250Y-129835000D01*
X41373000Y-129676250D01*
X41373000Y-128752000D01*
X41627000Y-128752000D01*
X41627000Y-129676250D01*
X41785750Y-129835000D01*
X42200000Y-129838072D01*
X42324482Y-129825812D01*
X42444180Y-129789502D01*
X42554494Y-129730537D01*
X42651185Y-129651185D01*
X42730537Y-129554494D01*
X42789502Y-129444180D01*
X42825812Y-129324482D01*
X42838072Y-129200000D01*
X49661928Y-129200000D01*
X49674188Y-129324482D01*
X49710498Y-129444180D01*
X49769463Y-129554494D01*
X49848815Y-129651185D01*
X49945506Y-129730537D01*
X50055820Y-129789502D01*
X50175518Y-129825812D01*
X50300000Y-129838072D01*
X50714250Y-129835000D01*
X50873000Y-129676250D01*
X50873000Y-128752000D01*
X51127000Y-128752000D01*
X51127000Y-129676250D01*
X51285750Y-129835000D01*
X51700000Y-129838072D01*
X51824482Y-129825812D01*
X51944180Y-129789502D01*
X52054494Y-129730537D01*
X52151185Y-129651185D01*
X52230537Y-129554494D01*
X52289502Y-129444180D01*
X52325812Y-129324482D01*
X52338072Y-129200000D01*
X52335000Y-128910750D01*
X52176250Y-128752000D01*
X51127000Y-128752000D01*
X50873000Y-128752000D01*
X49823750Y-128752000D01*
X49665000Y-128910750D01*
X49661928Y-129200000D01*
X42838072Y-129200000D01*
X42835000Y-128910750D01*
X42676250Y-128752000D01*
X41627000Y-128752000D01*
X41373000Y-128752000D01*
X40323750Y-128752000D01*
X40165000Y-128910750D01*
X40161928Y-129200000D01*
X20660000Y-129200000D01*
X20660000Y-128238310D01*
X20825537Y-128348918D01*
X21123088Y-128472168D01*
X21438967Y-128535000D01*
X21761033Y-128535000D01*
X22076912Y-128472168D01*
X22374463Y-128348918D01*
X22642252Y-128169987D01*
X22869987Y-127942252D01*
X23048918Y-127674463D01*
X23054909Y-127660000D01*
X26645091Y-127660000D01*
X26651082Y-127674463D01*
X26830013Y-127942252D01*
X27057748Y-128169987D01*
X27325537Y-128348918D01*
X27623088Y-128472168D01*
X27938967Y-128535000D01*
X28261033Y-128535000D01*
X28576912Y-128472168D01*
X28874463Y-128348918D01*
X29142252Y-128169987D01*
X29369987Y-127942252D01*
X29548918Y-127674463D01*
X29672168Y-127376912D01*
X29735000Y-127061033D01*
X29735000Y-126738967D01*
X29682109Y-126473061D01*
X38322300Y-126473061D01*
X38322300Y-126676939D01*
X38362074Y-126876898D01*
X38440095Y-127065256D01*
X38553363Y-127234774D01*
X38697526Y-127378937D01*
X38867044Y-127492205D01*
X39055402Y-127570226D01*
X39255361Y-127610000D01*
X39459239Y-127610000D01*
X39659198Y-127570226D01*
X39847556Y-127492205D01*
X40017074Y-127378937D01*
X40061011Y-127335000D01*
X40280386Y-127335000D01*
X40311595Y-127393387D01*
X40422038Y-127527962D01*
X40428594Y-127533342D01*
X40348815Y-127598815D01*
X40269463Y-127695506D01*
X40210498Y-127805820D01*
X40174188Y-127925518D01*
X40161928Y-128050000D01*
X40165000Y-128339250D01*
X40323750Y-128498000D01*
X41373000Y-128498000D01*
X41373000Y-128478000D01*
X41627000Y-128478000D01*
X41627000Y-128498000D01*
X42676250Y-128498000D01*
X42835000Y-128339250D01*
X42838072Y-128050000D01*
X42825812Y-127925518D01*
X42789502Y-127805820D01*
X42730537Y-127695506D01*
X42651185Y-127598815D01*
X42571406Y-127533342D01*
X42577962Y-127527962D01*
X42688405Y-127393387D01*
X42770472Y-127239851D01*
X42821008Y-127073255D01*
X42838072Y-126900001D01*
X42838072Y-126249999D01*
X49661928Y-126249999D01*
X49661928Y-126900001D01*
X49678992Y-127073255D01*
X49729528Y-127239851D01*
X49811595Y-127393387D01*
X49922038Y-127527962D01*
X49928594Y-127533342D01*
X49848815Y-127598815D01*
X49769463Y-127695506D01*
X49710498Y-127805820D01*
X49674188Y-127925518D01*
X49661928Y-128050000D01*
X49665000Y-128339250D01*
X49823750Y-128498000D01*
X50873000Y-128498000D01*
X50873000Y-128478000D01*
X51127000Y-128478000D01*
X51127000Y-128498000D01*
X52176250Y-128498000D01*
X52335000Y-128339250D01*
X52338072Y-128050000D01*
X52325812Y-127925518D01*
X52289502Y-127805820D01*
X52230537Y-127695506D01*
X52151185Y-127598815D01*
X52071406Y-127533342D01*
X52077962Y-127527962D01*
X52188405Y-127393387D01*
X52219614Y-127335000D01*
X52839489Y-127335000D01*
X52883426Y-127378937D01*
X53052944Y-127492205D01*
X53241302Y-127570226D01*
X53441261Y-127610000D01*
X53645139Y-127610000D01*
X53845098Y-127570226D01*
X54033456Y-127492205D01*
X54202974Y-127378937D01*
X54347137Y-127234774D01*
X54460405Y-127065256D01*
X54538426Y-126876898D01*
X54578200Y-126676939D01*
X54578200Y-126473061D01*
X54538426Y-126273102D01*
X54460405Y-126084744D01*
X54347137Y-125915226D01*
X54202974Y-125771063D01*
X54033456Y-125657795D01*
X53845098Y-125579774D01*
X53645139Y-125540000D01*
X53441261Y-125540000D01*
X53241302Y-125579774D01*
X53052944Y-125657795D01*
X52883426Y-125771063D01*
X52839489Y-125815000D01*
X52219614Y-125815000D01*
X52188405Y-125756613D01*
X52077962Y-125622038D01*
X51943387Y-125511595D01*
X51789851Y-125429528D01*
X51623255Y-125378992D01*
X51450001Y-125361928D01*
X50549999Y-125361928D01*
X50376745Y-125378992D01*
X50210149Y-125429528D01*
X50056613Y-125511595D01*
X49922038Y-125622038D01*
X49811595Y-125756613D01*
X49729528Y-125910149D01*
X49678992Y-126076745D01*
X49661928Y-126249999D01*
X42838072Y-126249999D01*
X42821008Y-126076745D01*
X42770472Y-125910149D01*
X42688405Y-125756613D01*
X42577962Y-125622038D01*
X42443387Y-125511595D01*
X42289851Y-125429528D01*
X42123255Y-125378992D01*
X41950001Y-125361928D01*
X41049999Y-125361928D01*
X40876745Y-125378992D01*
X40710149Y-125429528D01*
X40556613Y-125511595D01*
X40422038Y-125622038D01*
X40311595Y-125756613D01*
X40280386Y-125815000D01*
X40061011Y-125815000D01*
X40017074Y-125771063D01*
X39847556Y-125657795D01*
X39659198Y-125579774D01*
X39459239Y-125540000D01*
X39255361Y-125540000D01*
X39055402Y-125579774D01*
X38867044Y-125657795D01*
X38697526Y-125771063D01*
X38553363Y-125915226D01*
X38440095Y-126084744D01*
X38362074Y-126273102D01*
X38322300Y-126473061D01*
X29682109Y-126473061D01*
X29672168Y-126423088D01*
X29666177Y-126408624D01*
X32433302Y-123641500D01*
X42607234Y-123641500D01*
X42551082Y-123725537D01*
X42427832Y-124023088D01*
X42365000Y-124338967D01*
X42365000Y-124661033D01*
X42427832Y-124976912D01*
X42551082Y-125274463D01*
X42730013Y-125542252D01*
X42957748Y-125769987D01*
X43225537Y-125948918D01*
X43523088Y-126072168D01*
X43838967Y-126135000D01*
X44161033Y-126135000D01*
X44476912Y-126072168D01*
X44774463Y-125948918D01*
X45042252Y-125769987D01*
X45176826Y-125635413D01*
X47544192Y-125635413D01*
X47639956Y-125899814D01*
X47929571Y-126040704D01*
X48241108Y-126122384D01*
X48562595Y-126141718D01*
X48881675Y-126097961D01*
X49186088Y-125992795D01*
X49360044Y-125899814D01*
X49455808Y-125635413D01*
X48500000Y-124679605D01*
X47544192Y-125635413D01*
X45176826Y-125635413D01*
X45269987Y-125542252D01*
X45448918Y-125274463D01*
X45572168Y-124976912D01*
X45635000Y-124661033D01*
X45635000Y-124338967D01*
X45572168Y-124023088D01*
X45448918Y-123725537D01*
X45392766Y-123641500D01*
X47099435Y-123641500D01*
X46959296Y-123929571D01*
X46877616Y-124241108D01*
X46858282Y-124562595D01*
X46902039Y-124881675D01*
X47007205Y-125186088D01*
X47100186Y-125360044D01*
X47364587Y-125455808D01*
X48320395Y-124500000D01*
X48306253Y-124485858D01*
X48485858Y-124306253D01*
X48500000Y-124320395D01*
X48514143Y-124306253D01*
X48693748Y-124485858D01*
X48679605Y-124500000D01*
X49635413Y-125455808D01*
X49899814Y-125360044D01*
X50040704Y-125070429D01*
X50122384Y-124758892D01*
X50141718Y-124437405D01*
X50097961Y-124118325D01*
X49992795Y-123813912D01*
X49900639Y-123641500D01*
X54987878Y-123641500D01*
X55025200Y-123645176D01*
X55062522Y-123641500D01*
X55062533Y-123641500D01*
X55174186Y-123630503D01*
X55317447Y-123587046D01*
X55449476Y-123516474D01*
X55565201Y-123421501D01*
X55589004Y-123392497D01*
X60095666Y-118885836D01*
X60095666Y-119117108D01*
X60180377Y-119542981D01*
X60346544Y-119944144D01*
X60587782Y-120305181D01*
X60894819Y-120612218D01*
X61255856Y-120853456D01*
X61657019Y-121019623D01*
X62082892Y-121104334D01*
X62517108Y-121104334D01*
X62942981Y-121019623D01*
X63344144Y-120853456D01*
X63705181Y-120612218D01*
X64012218Y-120305181D01*
X64253456Y-119944144D01*
X64419623Y-119542981D01*
X64504334Y-119117108D01*
X64504334Y-118682892D01*
X64419623Y-118257019D01*
X64253456Y-117855856D01*
X64012218Y-117494819D01*
X63705181Y-117187782D01*
X63344144Y-116946544D01*
X62942981Y-116780377D01*
X62517108Y-116695666D01*
X62285837Y-116695666D01*
X63535708Y-115445795D01*
X63564701Y-115422001D01*
X63588495Y-115393008D01*
X63588499Y-115393004D01*
X63659673Y-115306277D01*
X63659674Y-115306276D01*
X63730246Y-115174247D01*
X63773703Y-115030986D01*
X63784700Y-114919333D01*
X63784700Y-114919324D01*
X63788376Y-114882001D01*
X63784700Y-114844678D01*
X63784700Y-113577000D01*
X66815401Y-113577000D01*
X66815401Y-123909797D01*
G37*
X66815401Y-123909797D02*
X65391376Y-125333823D01*
X65376912Y-125327832D01*
X65061033Y-125265000D01*
X64738967Y-125265000D01*
X64423088Y-125327832D01*
X64125537Y-125451082D01*
X63857748Y-125630013D01*
X63630013Y-125857748D01*
X63451082Y-126125537D01*
X63327832Y-126423088D01*
X63265000Y-126738967D01*
X63265000Y-127061033D01*
X63327832Y-127376912D01*
X63451082Y-127674463D01*
X63630013Y-127942252D01*
X63857748Y-128169987D01*
X64125537Y-128348918D01*
X64423088Y-128472168D01*
X64738967Y-128535000D01*
X65061033Y-128535000D01*
X65376912Y-128472168D01*
X65674463Y-128348918D01*
X65942252Y-128169987D01*
X66169987Y-127942252D01*
X66348918Y-127674463D01*
X66354909Y-127660000D01*
X69945091Y-127660000D01*
X69951082Y-127674463D01*
X70130013Y-127942252D01*
X70357748Y-128169987D01*
X70625537Y-128348918D01*
X70923088Y-128472168D01*
X71238967Y-128535000D01*
X71561033Y-128535000D01*
X71876912Y-128472168D01*
X72174463Y-128348918D01*
X72340000Y-128238309D01*
X72340000Y-130220942D01*
X72260044Y-130000186D01*
X71970429Y-129859296D01*
X71658892Y-129777616D01*
X71337405Y-129758282D01*
X71018325Y-129802039D01*
X70713912Y-129907205D01*
X70539956Y-130000186D01*
X70444192Y-130264587D01*
X71400000Y-131220395D01*
X71414143Y-131206253D01*
X71593748Y-131385858D01*
X71579605Y-131400000D01*
X71593748Y-131414143D01*
X71414143Y-131593748D01*
X71400000Y-131579605D01*
X71385858Y-131593748D01*
X71206253Y-131414143D01*
X71220395Y-131400000D01*
X70264587Y-130444192D01*
X70000186Y-130539956D01*
X69859296Y-130829571D01*
X69777616Y-131141108D01*
X69758282Y-131462595D01*
X69802039Y-131781675D01*
X69907205Y-132086088D01*
X70000186Y-132260044D01*
X70220942Y-132340000D01*
X66079058Y-132340000D01*
X66299814Y-132260044D01*
X66440704Y-131970429D01*
X66522384Y-131658892D01*
X66541718Y-131337405D01*
X66497961Y-131018325D01*
X66392795Y-130713912D01*
X66299814Y-130539956D01*
X66035413Y-130444192D01*
X65079605Y-131400000D01*
X65093748Y-131414143D01*
X64914143Y-131593748D01*
X64900000Y-131579605D01*
X64885858Y-131593748D01*
X64706253Y-131414143D01*
X64720395Y-131400000D01*
X63764587Y-130444192D01*
X63500186Y-130539956D01*
X63359296Y-130829571D01*
X63277616Y-131141108D01*
X63258282Y-131462595D01*
X63302039Y-131781675D01*
X63407205Y-132086088D01*
X63500186Y-132260044D01*
X63720942Y-132340000D01*
X49381708Y-132340000D01*
X49455808Y-132135413D01*
X48500000Y-131179605D01*
X47544192Y-132135413D01*
X47618292Y-132340000D01*
X44937470Y-132340000D01*
X45042252Y-132269987D01*
X45269987Y-132042252D01*
X45448918Y-131774463D01*
X45572168Y-131476912D01*
X45635000Y-131161033D01*
X45635000Y-131062595D01*
X46858282Y-131062595D01*
X46902039Y-131381675D01*
X47007205Y-131686088D01*
X47100186Y-131860044D01*
X47364587Y-131955808D01*
X48320395Y-131000000D01*
X48679605Y-131000000D01*
X49635413Y-131955808D01*
X49899814Y-131860044D01*
X50040704Y-131570429D01*
X50122384Y-131258892D01*
X50141718Y-130937405D01*
X50097961Y-130618325D01*
X49992795Y-130313912D01*
X49966431Y-130264587D01*
X63944192Y-130264587D01*
X64900000Y-131220395D01*
X65855808Y-130264587D01*
X65760044Y-130000186D01*
X65470429Y-129859296D01*
X65158892Y-129777616D01*
X64837405Y-129758282D01*
X64518325Y-129802039D01*
X64213912Y-129907205D01*
X64039956Y-130000186D01*
X63944192Y-130264587D01*
X49966431Y-130264587D01*
X49899814Y-130139956D01*
X49635413Y-130044192D01*
X48679605Y-131000000D01*
X48320395Y-131000000D01*
X47364587Y-130044192D01*
X47100186Y-130139956D01*
X46959296Y-130429571D01*
X46877616Y-130741108D01*
X46858282Y-131062595D01*
X45635000Y-131062595D01*
X45635000Y-130838967D01*
X45572168Y-130523088D01*
X45448918Y-130225537D01*
X45269987Y-129957748D01*
X45176826Y-129864587D01*
X47544192Y-129864587D01*
X48500000Y-130820395D01*
X49455808Y-129864587D01*
X49360044Y-129600186D01*
X49070429Y-129459296D01*
X48758892Y-129377616D01*
X48437405Y-129358282D01*
X48118325Y-129402039D01*
X47813912Y-129507205D01*
X47639956Y-129600186D01*
X47544192Y-129864587D01*
X45176826Y-129864587D01*
X45042252Y-129730013D01*
X44774463Y-129551082D01*
X44476912Y-129427832D01*
X44161033Y-129365000D01*
X43838967Y-129365000D01*
X43523088Y-129427832D01*
X43225537Y-129551082D01*
X42957748Y-129730013D01*
X42730013Y-129957748D01*
X42551082Y-130225537D01*
X42427832Y-130523088D01*
X42365000Y-130838967D01*
X42365000Y-131161033D01*
X42427832Y-131476912D01*
X42551082Y-131774463D01*
X42730013Y-132042252D01*
X42957748Y-132269987D01*
X43062530Y-132340000D01*
X29279058Y-132340000D01*
X29499814Y-132260044D01*
X29640704Y-131970429D01*
X29722384Y-131658892D01*
X29741718Y-131337405D01*
X29697961Y-131018325D01*
X29592795Y-130713912D01*
X29499814Y-130539956D01*
X29235413Y-130444192D01*
X28279605Y-131400000D01*
X28293748Y-131414143D01*
X28114143Y-131593748D01*
X28100000Y-131579605D01*
X28085858Y-131593748D01*
X27906253Y-131414143D01*
X27920395Y-131400000D01*
X26964587Y-130444192D01*
X26700186Y-130539956D01*
X26559296Y-130829571D01*
X26477616Y-131141108D01*
X26458282Y-131462595D01*
X26502039Y-131781675D01*
X26607205Y-132086088D01*
X26700186Y-132260044D01*
X26920942Y-132340000D01*
X22779058Y-132340000D01*
X22999814Y-132260044D01*
X23140704Y-131970429D01*
X23222384Y-131658892D01*
X23241718Y-131337405D01*
X23197961Y-131018325D01*
X23092795Y-130713912D01*
X22999814Y-130539956D01*
X22735413Y-130444192D01*
X21779605Y-131400000D01*
X21793748Y-131414143D01*
X21614143Y-131593748D01*
X21600000Y-131579605D01*
X21585858Y-131593748D01*
X21406253Y-131414143D01*
X21420395Y-131400000D01*
X21406253Y-131385858D01*
X21585858Y-131206253D01*
X21600000Y-131220395D01*
X22555808Y-130264587D01*
X27144192Y-130264587D01*
X28100000Y-131220395D01*
X29055808Y-130264587D01*
X28960044Y-130000186D01*
X28670429Y-129859296D01*
X28358892Y-129777616D01*
X28037405Y-129758282D01*
X27718325Y-129802039D01*
X27413912Y-129907205D01*
X27239956Y-130000186D01*
X27144192Y-130264587D01*
X22555808Y-130264587D01*
X22460044Y-130000186D01*
X22170429Y-129859296D01*
X21858892Y-129777616D01*
X21537405Y-129758282D01*
X21218325Y-129802039D01*
X20913912Y-129907205D01*
X20739956Y-130000186D01*
X20660000Y-130220942D01*
X20660000Y-129200000D01*
X40161928Y-129200000D01*
X40174188Y-129324482D01*
X40210498Y-129444180D01*
X40269463Y-129554494D01*
X40348815Y-129651185D01*
X40445506Y-129730537D01*
X40555820Y-129789502D01*
X40675518Y-129825812D01*
X40800000Y-129838072D01*
X41214250Y-129835000D01*
X41373000Y-129676250D01*
X41373000Y-128752000D01*
X41627000Y-128752000D01*
X41627000Y-129676250D01*
X41785750Y-129835000D01*
X42200000Y-129838072D01*
X42324482Y-129825812D01*
X42444180Y-129789502D01*
X42554494Y-129730537D01*
X42651185Y-129651185D01*
X42730537Y-129554494D01*
X42789502Y-129444180D01*
X42825812Y-129324482D01*
X42838072Y-129200000D01*
X49661928Y-129200000D01*
X49674188Y-129324482D01*
X49710498Y-129444180D01*
X49769463Y-129554494D01*
X49848815Y-129651185D01*
X49945506Y-129730537D01*
X50055820Y-129789502D01*
X50175518Y-129825812D01*
X50300000Y-129838072D01*
X50714250Y-129835000D01*
X50873000Y-129676250D01*
X50873000Y-128752000D01*
X51127000Y-128752000D01*
X51127000Y-129676250D01*
X51285750Y-129835000D01*
X51700000Y-129838072D01*
X51824482Y-129825812D01*
X51944180Y-129789502D01*
X52054494Y-129730537D01*
X52151185Y-129651185D01*
X52230537Y-129554494D01*
X52289502Y-129444180D01*
X52325812Y-129324482D01*
X52338072Y-129200000D01*
X52335000Y-128910750D01*
X52176250Y-128752000D01*
X51127000Y-128752000D01*
X50873000Y-128752000D01*
X49823750Y-128752000D01*
X49665000Y-128910750D01*
X49661928Y-129200000D01*
X42838072Y-129200000D01*
X42835000Y-128910750D01*
X42676250Y-128752000D01*
X41627000Y-128752000D01*
X41373000Y-128752000D01*
X40323750Y-128752000D01*
X40165000Y-128910750D01*
X40161928Y-129200000D01*
X20660000Y-129200000D01*
X20660000Y-128238310D01*
X20825537Y-128348918D01*
X21123088Y-128472168D01*
X21438967Y-128535000D01*
X21761033Y-128535000D01*
X22076912Y-128472168D01*
X22374463Y-128348918D01*
X22642252Y-128169987D01*
X22869987Y-127942252D01*
X23048918Y-127674463D01*
X23054909Y-127660000D01*
X26645091Y-127660000D01*
X26651082Y-127674463D01*
X26830013Y-127942252D01*
X27057748Y-128169987D01*
X27325537Y-128348918D01*
X27623088Y-128472168D01*
X27938967Y-128535000D01*
X28261033Y-128535000D01*
X28576912Y-128472168D01*
X28874463Y-128348918D01*
X29142252Y-128169987D01*
X29369987Y-127942252D01*
X29548918Y-127674463D01*
X29672168Y-127376912D01*
X29735000Y-127061033D01*
X29735000Y-126738967D01*
X29682109Y-126473061D01*
X38322300Y-126473061D01*
X38322300Y-126676939D01*
X38362074Y-126876898D01*
X38440095Y-127065256D01*
X38553363Y-127234774D01*
X38697526Y-127378937D01*
X38867044Y-127492205D01*
X39055402Y-127570226D01*
X39255361Y-127610000D01*
X39459239Y-127610000D01*
X39659198Y-127570226D01*
X39847556Y-127492205D01*
X40017074Y-127378937D01*
X40061011Y-127335000D01*
X40280386Y-127335000D01*
X40311595Y-127393387D01*
X40422038Y-127527962D01*
X40428594Y-127533342D01*
X40348815Y-127598815D01*
X40269463Y-127695506D01*
X40210498Y-127805820D01*
X40174188Y-127925518D01*
X40161928Y-128050000D01*
X40165000Y-128339250D01*
X40323750Y-128498000D01*
X41373000Y-128498000D01*
X41373000Y-128478000D01*
X41627000Y-128478000D01*
X41627000Y-128498000D01*
X42676250Y-128498000D01*
X42835000Y-128339250D01*
X42838072Y-128050000D01*
X42825812Y-127925518D01*
X42789502Y-127805820D01*
X42730537Y-127695506D01*
X42651185Y-127598815D01*
X42571406Y-127533342D01*
X42577962Y-127527962D01*
X42688405Y-127393387D01*
X42770472Y-127239851D01*
X42821008Y-127073255D01*
X42838072Y-126900001D01*
X42838072Y-126249999D01*
X49661928Y-126249999D01*
X49661928Y-126900001D01*
X49678992Y-127073255D01*
X49729528Y-127239851D01*
X49811595Y-127393387D01*
X49922038Y-127527962D01*
X49928594Y-127533342D01*
X49848815Y-127598815D01*
X49769463Y-127695506D01*
X49710498Y-127805820D01*
X49674188Y-127925518D01*
X49661928Y-128050000D01*
X49665000Y-128339250D01*
X49823750Y-128498000D01*
X50873000Y-128498000D01*
X50873000Y-128478000D01*
X51127000Y-128478000D01*
X51127000Y-128498000D01*
X52176250Y-128498000D01*
X52335000Y-128339250D01*
X52338072Y-128050000D01*
X52325812Y-127925518D01*
X52289502Y-127805820D01*
X52230537Y-127695506D01*
X52151185Y-127598815D01*
X52071406Y-127533342D01*
X52077962Y-127527962D01*
X52188405Y-127393387D01*
X52219614Y-127335000D01*
X52839489Y-127335000D01*
X52883426Y-127378937D01*
X53052944Y-127492205D01*
X53241302Y-127570226D01*
X53441261Y-127610000D01*
X53645139Y-127610000D01*
X53845098Y-127570226D01*
X54033456Y-127492205D01*
X54202974Y-127378937D01*
X54347137Y-127234774D01*
X54460405Y-127065256D01*
X54538426Y-126876898D01*
X54578200Y-126676939D01*
X54578200Y-126473061D01*
X54538426Y-126273102D01*
X54460405Y-126084744D01*
X54347137Y-125915226D01*
X54202974Y-125771063D01*
X54033456Y-125657795D01*
X53845098Y-125579774D01*
X53645139Y-125540000D01*
X53441261Y-125540000D01*
X53241302Y-125579774D01*
X53052944Y-125657795D01*
X52883426Y-125771063D01*
X52839489Y-125815000D01*
X52219614Y-125815000D01*
X52188405Y-125756613D01*
X52077962Y-125622038D01*
X51943387Y-125511595D01*
X51789851Y-125429528D01*
X51623255Y-125378992D01*
X51450001Y-125361928D01*
X50549999Y-125361928D01*
X50376745Y-125378992D01*
X50210149Y-125429528D01*
X50056613Y-125511595D01*
X49922038Y-125622038D01*
X49811595Y-125756613D01*
X49729528Y-125910149D01*
X49678992Y-126076745D01*
X49661928Y-126249999D01*
X42838072Y-126249999D01*
X42821008Y-126076745D01*
X42770472Y-125910149D01*
X42688405Y-125756613D01*
X42577962Y-125622038D01*
X42443387Y-125511595D01*
X42289851Y-125429528D01*
X42123255Y-125378992D01*
X41950001Y-125361928D01*
X41049999Y-125361928D01*
X40876745Y-125378992D01*
X40710149Y-125429528D01*
X40556613Y-125511595D01*
X40422038Y-125622038D01*
X40311595Y-125756613D01*
X40280386Y-125815000D01*
X40061011Y-125815000D01*
X40017074Y-125771063D01*
X39847556Y-125657795D01*
X39659198Y-125579774D01*
X39459239Y-125540000D01*
X39255361Y-125540000D01*
X39055402Y-125579774D01*
X38867044Y-125657795D01*
X38697526Y-125771063D01*
X38553363Y-125915226D01*
X38440095Y-126084744D01*
X38362074Y-126273102D01*
X38322300Y-126473061D01*
X29682109Y-126473061D01*
X29672168Y-126423088D01*
X29666177Y-126408624D01*
X32433302Y-123641500D01*
X42607234Y-123641500D01*
X42551082Y-123725537D01*
X42427832Y-124023088D01*
X42365000Y-124338967D01*
X42365000Y-124661033D01*
X42427832Y-124976912D01*
X42551082Y-125274463D01*
X42730013Y-125542252D01*
X42957748Y-125769987D01*
X43225537Y-125948918D01*
X43523088Y-126072168D01*
X43838967Y-126135000D01*
X44161033Y-126135000D01*
X44476912Y-126072168D01*
X44774463Y-125948918D01*
X45042252Y-125769987D01*
X45176826Y-125635413D01*
X47544192Y-125635413D01*
X47639956Y-125899814D01*
X47929571Y-126040704D01*
X48241108Y-126122384D01*
X48562595Y-126141718D01*
X48881675Y-126097961D01*
X49186088Y-125992795D01*
X49360044Y-125899814D01*
X49455808Y-125635413D01*
X48500000Y-124679605D01*
X47544192Y-125635413D01*
X45176826Y-125635413D01*
X45269987Y-125542252D01*
X45448918Y-125274463D01*
X45572168Y-124976912D01*
X45635000Y-124661033D01*
X45635000Y-124338967D01*
X45572168Y-124023088D01*
X45448918Y-123725537D01*
X45392766Y-123641500D01*
X47099435Y-123641500D01*
X46959296Y-123929571D01*
X46877616Y-124241108D01*
X46858282Y-124562595D01*
X46902039Y-124881675D01*
X47007205Y-125186088D01*
X47100186Y-125360044D01*
X47364587Y-125455808D01*
X48320395Y-124500000D01*
X48306253Y-124485858D01*
X48485858Y-124306253D01*
X48500000Y-124320395D01*
X48514143Y-124306253D01*
X48693748Y-124485858D01*
X48679605Y-124500000D01*
X49635413Y-125455808D01*
X49899814Y-125360044D01*
X50040704Y-125070429D01*
X50122384Y-124758892D01*
X50141718Y-124437405D01*
X50097961Y-124118325D01*
X49992795Y-123813912D01*
X49900639Y-123641500D01*
X54987878Y-123641500D01*
X55025200Y-123645176D01*
X55062522Y-123641500D01*
X55062533Y-123641500D01*
X55174186Y-123630503D01*
X55317447Y-123587046D01*
X55449476Y-123516474D01*
X55565201Y-123421501D01*
X55589004Y-123392497D01*
X60095666Y-118885836D01*
X60095666Y-119117108D01*
X60180377Y-119542981D01*
X60346544Y-119944144D01*
X60587782Y-120305181D01*
X60894819Y-120612218D01*
X61255856Y-120853456D01*
X61657019Y-121019623D01*
X62082892Y-121104334D01*
X62517108Y-121104334D01*
X62942981Y-121019623D01*
X63344144Y-120853456D01*
X63705181Y-120612218D01*
X64012218Y-120305181D01*
X64253456Y-119944144D01*
X64419623Y-119542981D01*
X64504334Y-119117108D01*
X64504334Y-118682892D01*
X64419623Y-118257019D01*
X64253456Y-117855856D01*
X64012218Y-117494819D01*
X63705181Y-117187782D01*
X63344144Y-116946544D01*
X62942981Y-116780377D01*
X62517108Y-116695666D01*
X62285837Y-116695666D01*
X63535708Y-115445795D01*
X63564701Y-115422001D01*
X63588495Y-115393008D01*
X63588499Y-115393004D01*
X63659673Y-115306277D01*
X63659674Y-115306276D01*
X63730246Y-115174247D01*
X63773703Y-115030986D01*
X63784700Y-114919333D01*
X63784700Y-114919324D01*
X63788376Y-114882001D01*
X63784700Y-114844678D01*
X63784700Y-113577000D01*
X66815401Y-113577000D01*
X66815401Y-123909797D01*
G36*
X57065000Y-113864250D02*
G01*
X57223750Y-114023000D01*
X59573000Y-114023000D01*
X59573000Y-114003000D01*
X59827000Y-114003000D01*
X59827000Y-114023000D01*
X59847000Y-114023000D01*
X59847000Y-114277000D01*
X59827000Y-114277000D01*
X59827000Y-115526250D01*
X59985750Y-115685000D01*
X60479013Y-115685884D01*
X54843499Y-121321400D01*
X46157401Y-121321400D01*
X52428801Y-115050000D01*
X57061928Y-115050000D01*
X57074188Y-115174482D01*
X57110498Y-115294180D01*
X57169463Y-115404494D01*
X57248815Y-115501185D01*
X57345506Y-115580537D01*
X57455820Y-115639502D01*
X57575518Y-115675812D01*
X57700000Y-115688072D01*
X59414250Y-115685000D01*
X59573000Y-115526250D01*
X59573000Y-114277000D01*
X57223750Y-114277000D01*
X57065000Y-114435750D01*
X57061928Y-115050000D01*
X52428801Y-115050000D01*
X53943802Y-113535000D01*
X57063353Y-113535000D01*
X57065000Y-113864250D01*
G37*
X57065000Y-113864250D02*
X57223750Y-114023000D01*
X59573000Y-114023000D01*
X59573000Y-114003000D01*
X59827000Y-114003000D01*
X59827000Y-114023000D01*
X59847000Y-114023000D01*
X59847000Y-114277000D01*
X59827000Y-114277000D01*
X59827000Y-115526250D01*
X59985750Y-115685000D01*
X60479013Y-115685884D01*
X54843499Y-121321400D01*
X46157401Y-121321400D01*
X52428801Y-115050000D01*
X57061928Y-115050000D01*
X57074188Y-115174482D01*
X57110498Y-115294180D01*
X57169463Y-115404494D01*
X57248815Y-115501185D01*
X57345506Y-115580537D01*
X57455820Y-115639502D01*
X57575518Y-115675812D01*
X57700000Y-115688072D01*
X59414250Y-115685000D01*
X59573000Y-115526250D01*
X59573000Y-114277000D01*
X57223750Y-114277000D01*
X57065000Y-114435750D01*
X57061928Y-115050000D01*
X52428801Y-115050000D01*
X53943802Y-113535000D01*
X57063353Y-113535000D01*
X57065000Y-113864250D01*
G36*
X26651082Y-86874463D02*
G01*
X26830013Y-87142252D01*
X27057748Y-87369987D01*
X27325537Y-87548918D01*
X27623088Y-87672168D01*
X27760125Y-87699426D01*
X30769401Y-90708703D01*
X30793199Y-90737701D01*
X30908924Y-90832674D01*
X31040953Y-90903246D01*
X31184214Y-90946703D01*
X31295867Y-90957700D01*
X31295876Y-90957700D01*
X31333199Y-90961376D01*
X31370522Y-90957700D01*
X37958478Y-90957700D01*
X37995800Y-90961376D01*
X38033122Y-90957700D01*
X38033133Y-90957700D01*
X38144786Y-90946703D01*
X38288047Y-90903246D01*
X38344658Y-90872986D01*
X38354378Y-90896451D01*
X38256695Y-91042644D01*
X38178674Y-91231002D01*
X38138900Y-91430961D01*
X38138900Y-91634839D01*
X38178674Y-91834798D01*
X38217513Y-91928562D01*
X37957019Y-91980377D01*
X37555856Y-92146544D01*
X37194819Y-92387782D01*
X36887782Y-92694819D01*
X36646544Y-93055856D01*
X36480377Y-93457019D01*
X36395666Y-93882892D01*
X36395666Y-94317108D01*
X36480377Y-94742981D01*
X36646544Y-95144144D01*
X36887782Y-95505181D01*
X37194819Y-95812218D01*
X37555856Y-96053456D01*
X37957019Y-96219623D01*
X38382892Y-96304334D01*
X38817108Y-96304334D01*
X39242981Y-96219623D01*
X39644144Y-96053456D01*
X40005181Y-95812218D01*
X40312218Y-95505181D01*
X40553456Y-95144144D01*
X40588001Y-95060745D01*
X40588000Y-108960678D01*
X40584324Y-108998000D01*
X40588000Y-109035322D01*
X40588000Y-109035332D01*
X40598997Y-109146985D01*
X40633279Y-109260000D01*
X40642454Y-109290246D01*
X40713026Y-109422276D01*
X40745568Y-109461928D01*
X40807999Y-109538001D01*
X40837003Y-109561804D01*
X41557615Y-110282417D01*
X41540000Y-110370976D01*
X41540000Y-110629024D01*
X41590342Y-110882113D01*
X41689093Y-111120518D01*
X41832456Y-111335077D01*
X42014923Y-111517544D01*
X42127191Y-111592559D01*
X42126205Y-111596600D01*
X42315754Y-111786149D01*
X42311928Y-111825000D01*
X42314446Y-112144051D01*
X41946600Y-111776205D01*
X41715379Y-111832630D01*
X41606983Y-112066808D01*
X41546355Y-112317633D01*
X41535826Y-112575465D01*
X41575800Y-112830398D01*
X41664741Y-113072633D01*
X41715379Y-113167370D01*
X41946600Y-113223795D01*
X42314446Y-112855949D01*
X42311928Y-113175000D01*
X42315754Y-113213851D01*
X42126205Y-113403400D01*
X42127191Y-113407441D01*
X42014923Y-113482456D01*
X41832456Y-113664923D01*
X41689093Y-113879482D01*
X41590342Y-114117887D01*
X41540000Y-114370976D01*
X41540000Y-114629024D01*
X41590342Y-114882113D01*
X41605790Y-114919408D01*
X40435399Y-116089800D01*
X38221423Y-116089800D01*
X38184100Y-116086124D01*
X38146777Y-116089800D01*
X38146767Y-116089800D01*
X38035114Y-116100797D01*
X37891853Y-116144254D01*
X37759823Y-116214826D01*
X37676183Y-116283468D01*
X37644099Y-116309799D01*
X37620301Y-116338797D01*
X35979174Y-117979924D01*
X35926250Y-117927000D01*
X34727000Y-117927000D01*
X34727000Y-117947000D01*
X34473000Y-117947000D01*
X34473000Y-117927000D01*
X32187000Y-117927000D01*
X32187000Y-117947000D01*
X31933000Y-117947000D01*
X31933000Y-117927000D01*
X31913000Y-117927000D01*
X31913000Y-117673000D01*
X31933000Y-117673000D01*
X31933000Y-116479845D01*
X32187000Y-116479845D01*
X32187000Y-117673000D01*
X34473000Y-117673000D01*
X34473000Y-116473750D01*
X34727000Y-116473750D01*
X34727000Y-117673000D01*
X35926250Y-117673000D01*
X36085000Y-117514250D01*
X36088072Y-116950000D01*
X36075812Y-116825518D01*
X36039502Y-116705820D01*
X35980537Y-116595506D01*
X35901185Y-116498815D01*
X35804494Y-116419463D01*
X35694180Y-116360498D01*
X35574482Y-116324188D01*
X35450000Y-116311928D01*
X34885750Y-116315000D01*
X34727000Y-116473750D01*
X34473000Y-116473750D01*
X34314250Y-116315000D01*
X33750000Y-116311928D01*
X33625518Y-116324188D01*
X33505820Y-116360498D01*
X33395506Y-116419463D01*
X33298815Y-116498815D01*
X33219463Y-116595506D01*
X33160498Y-116705820D01*
X33136034Y-116786466D01*
X33060269Y-116702412D01*
X32826920Y-116528359D01*
X32564099Y-116403175D01*
X32416890Y-116358524D01*
X32187000Y-116479845D01*
X31933000Y-116479845D01*
X31703110Y-116358524D01*
X31555901Y-116403175D01*
X31293080Y-116528359D01*
X31059731Y-116702412D01*
X30864822Y-116918645D01*
X30795195Y-117035534D01*
X30673475Y-116853368D01*
X30466632Y-116646525D01*
X30223411Y-116484010D01*
X29953158Y-116372068D01*
X29666260Y-116315000D01*
X29373740Y-116315000D01*
X29086842Y-116372068D01*
X28816589Y-116484010D01*
X28573368Y-116646525D01*
X28366525Y-116853368D01*
X28250000Y-117027760D01*
X28133475Y-116853368D01*
X27926632Y-116646525D01*
X27683411Y-116484010D01*
X27413158Y-116372068D01*
X27126260Y-116315000D01*
X26833740Y-116315000D01*
X26546842Y-116372068D01*
X26276589Y-116484010D01*
X26033368Y-116646525D01*
X25826525Y-116853368D01*
X25710000Y-117027760D01*
X25593475Y-116853368D01*
X25386632Y-116646525D01*
X25143411Y-116484010D01*
X24873158Y-116372068D01*
X24586260Y-116315000D01*
X24293740Y-116315000D01*
X24006842Y-116372068D01*
X23736589Y-116484010D01*
X23493368Y-116646525D01*
X23286525Y-116853368D01*
X23170000Y-117027760D01*
X23053475Y-116853368D01*
X22846632Y-116646525D01*
X22603411Y-116484010D01*
X22333158Y-116372068D01*
X22046260Y-116315000D01*
X21753740Y-116315000D01*
X21466842Y-116372068D01*
X21196589Y-116484010D01*
X20953368Y-116646525D01*
X20746525Y-116853368D01*
X20660000Y-116982862D01*
X20660000Y-112420000D01*
X22732419Y-112420000D01*
X22760189Y-112417265D01*
X22761910Y-112417277D01*
X22771082Y-112416378D01*
X22799201Y-112413423D01*
X22829383Y-112410450D01*
X22831491Y-112409810D01*
X22887940Y-112398223D01*
X22946670Y-112387020D01*
X22955486Y-112384358D01*
X22955490Y-112384357D01*
X22955493Y-112384356D01*
X23011424Y-112367042D01*
X23066551Y-112343869D01*
X23122034Y-112321452D01*
X23130171Y-112317125D01*
X23181674Y-112289277D01*
X23231234Y-112255847D01*
X23281319Y-112223073D01*
X23288460Y-112217248D01*
X23333572Y-112179927D01*
X23375713Y-112137491D01*
X23418462Y-112095628D01*
X23424336Y-112088527D01*
X23461341Y-112043154D01*
X23494433Y-111993346D01*
X23528235Y-111943981D01*
X23532618Y-111935875D01*
X23560106Y-111884179D01*
X23582894Y-111828893D01*
X23606470Y-111773887D01*
X23609194Y-111765084D01*
X23626117Y-111709033D01*
X23637731Y-111650380D01*
X23650175Y-111591835D01*
X23650423Y-111589471D01*
X23650450Y-111589383D01*
X23650710Y-111586746D01*
X23651138Y-111582670D01*
X23656851Y-111524400D01*
X23656851Y-111524392D01*
X23660000Y-111492419D01*
X23660000Y-110291351D01*
X23678446Y-110319114D01*
X23684320Y-110326215D01*
X23784680Y-110445819D01*
X23827430Y-110487682D01*
X23869570Y-110530118D01*
X23876711Y-110535942D01*
X23998391Y-110633774D01*
X24048421Y-110666512D01*
X24098037Y-110699979D01*
X24106174Y-110704305D01*
X24244539Y-110776641D01*
X24299974Y-110799038D01*
X24355146Y-110822231D01*
X24363968Y-110824894D01*
X24513749Y-110868977D01*
X24572468Y-110880178D01*
X24631105Y-110892215D01*
X24640276Y-110893114D01*
X24795767Y-110907265D01*
X24855586Y-110906847D01*
X24915406Y-110907265D01*
X24924577Y-110906365D01*
X25079853Y-110890044D01*
X25138405Y-110878025D01*
X25197205Y-110866808D01*
X25206027Y-110864144D01*
X25355177Y-110817976D01*
X25410315Y-110794798D01*
X25465789Y-110772385D01*
X25473918Y-110768062D01*
X25473922Y-110768060D01*
X25473925Y-110768058D01*
X25611267Y-110693797D01*
X25660816Y-110660375D01*
X25710912Y-110627594D01*
X25718053Y-110621769D01*
X25838356Y-110522247D01*
X25880517Y-110479791D01*
X25923247Y-110437946D01*
X25929121Y-110430846D01*
X26027801Y-110309852D01*
X26060911Y-110260017D01*
X26094699Y-110210671D01*
X26099082Y-110202565D01*
X26172382Y-110064707D01*
X26195163Y-110009436D01*
X26218744Y-109954419D01*
X26221467Y-109945620D01*
X26221469Y-109945614D01*
X26266595Y-109796146D01*
X26278211Y-109737481D01*
X26290651Y-109678957D01*
X26291614Y-109669792D01*
X26306850Y-109514406D01*
X26306850Y-109514402D01*
X26310000Y-109482419D01*
X26310000Y-103517581D01*
X26306772Y-103484806D01*
X26306772Y-103474425D01*
X26305809Y-103465260D01*
X26288405Y-103310101D01*
X26275969Y-103251598D01*
X26264349Y-103192910D01*
X26261624Y-103184107D01*
X26214414Y-103035282D01*
X26190847Y-102980297D01*
X26168054Y-102924996D01*
X26163671Y-102916890D01*
X26088454Y-102780070D01*
X26054678Y-102730741D01*
X26021554Y-102680885D01*
X26015680Y-102673785D01*
X25915320Y-102554181D01*
X25872587Y-102512334D01*
X25830430Y-102469882D01*
X25823289Y-102464058D01*
X25701609Y-102366225D01*
X25651556Y-102333472D01*
X25601963Y-102300020D01*
X25593826Y-102295694D01*
X25455460Y-102223359D01*
X25400018Y-102200959D01*
X25344854Y-102177770D01*
X25336032Y-102175106D01*
X25186252Y-102131023D01*
X25127525Y-102119820D01*
X25068895Y-102107785D01*
X25059724Y-102106886D01*
X24904234Y-102092735D01*
X24844414Y-102093153D01*
X24784594Y-102092735D01*
X24775423Y-102093635D01*
X24620146Y-102109956D01*
X24561581Y-102121978D01*
X24502795Y-102133192D01*
X24493973Y-102135856D01*
X24344823Y-102182025D01*
X24289717Y-102205189D01*
X24234211Y-102227615D01*
X24226082Y-102231938D01*
X24226078Y-102231940D01*
X24226075Y-102231942D01*
X24088733Y-102306203D01*
X24039161Y-102339640D01*
X23989088Y-102372406D01*
X23981947Y-102378231D01*
X23861644Y-102477754D01*
X23819486Y-102520207D01*
X23776753Y-102562054D01*
X23770884Y-102569149D01*
X23770880Y-102569153D01*
X23770879Y-102569155D01*
X23672199Y-102690148D01*
X23660000Y-102708509D01*
X23660000Y-101867581D01*
X23657265Y-101839811D01*
X23657277Y-101838090D01*
X23656378Y-101828919D01*
X23653423Y-101800807D01*
X23650450Y-101770617D01*
X23649810Y-101768509D01*
X23638223Y-101712060D01*
X23627020Y-101653330D01*
X23624356Y-101644509D01*
X23607042Y-101588576D01*
X23583869Y-101533449D01*
X23561452Y-101477966D01*
X23557125Y-101469829D01*
X23529277Y-101418326D01*
X23495814Y-101368716D01*
X23463072Y-101318681D01*
X23457248Y-101311540D01*
X23419927Y-101266427D01*
X23377472Y-101224268D01*
X23335628Y-101181538D01*
X23328527Y-101175664D01*
X23283154Y-101138659D01*
X23233346Y-101105567D01*
X23183981Y-101071765D01*
X23175875Y-101067382D01*
X23124179Y-101039894D01*
X23068881Y-101017101D01*
X23013887Y-100993530D01*
X23005094Y-100990809D01*
X23005089Y-100990807D01*
X23005084Y-100990806D01*
X22949033Y-100973883D01*
X22890366Y-100962266D01*
X22831834Y-100949825D01*
X22829471Y-100949577D01*
X22829383Y-100949550D01*
X22826739Y-100949290D01*
X22822670Y-100948862D01*
X22764400Y-100943149D01*
X22764392Y-100943149D01*
X22732419Y-100940000D01*
X20660000Y-100940000D01*
X20660000Y-96867760D01*
X21865000Y-96867760D01*
X21865000Y-97032240D01*
X21897089Y-97193560D01*
X21960033Y-97345521D01*
X22051413Y-97482281D01*
X22167719Y-97598587D01*
X22304479Y-97689967D01*
X22456440Y-97752911D01*
X22617760Y-97785000D01*
X22782240Y-97785000D01*
X22943560Y-97752911D01*
X23095521Y-97689967D01*
X23232281Y-97598587D01*
X23348587Y-97482281D01*
X23439967Y-97345521D01*
X23502911Y-97193560D01*
X23535000Y-97032240D01*
X23535000Y-96867760D01*
X23533041Y-96857911D01*
X23765000Y-96857911D01*
X23765000Y-97042089D01*
X23800932Y-97222729D01*
X23871414Y-97392889D01*
X23973738Y-97546028D01*
X24103972Y-97676262D01*
X24257111Y-97778586D01*
X24427271Y-97849068D01*
X24607911Y-97885000D01*
X24792089Y-97885000D01*
X24972729Y-97849068D01*
X25142889Y-97778586D01*
X25296028Y-97676262D01*
X25426262Y-97546028D01*
X25528586Y-97392889D01*
X25599068Y-97222729D01*
X25635000Y-97042089D01*
X25635000Y-96867760D01*
X25865000Y-96867760D01*
X25865000Y-97032240D01*
X25897089Y-97193560D01*
X25960033Y-97345521D01*
X26051413Y-97482281D01*
X26167719Y-97598587D01*
X26304479Y-97689967D01*
X26456440Y-97752911D01*
X26617760Y-97785000D01*
X26782240Y-97785000D01*
X26943560Y-97752911D01*
X27095521Y-97689967D01*
X27232281Y-97598587D01*
X27348587Y-97482281D01*
X27439967Y-97345521D01*
X27502911Y-97193560D01*
X27535000Y-97032240D01*
X27535000Y-96867760D01*
X27865000Y-96867760D01*
X27865000Y-97032240D01*
X27897089Y-97193560D01*
X27960033Y-97345521D01*
X28051413Y-97482281D01*
X28167719Y-97598587D01*
X28304479Y-97689967D01*
X28456440Y-97752911D01*
X28617760Y-97785000D01*
X28782240Y-97785000D01*
X28943560Y-97752911D01*
X29095521Y-97689967D01*
X29232281Y-97598587D01*
X29348587Y-97482281D01*
X29439967Y-97345521D01*
X29502911Y-97193560D01*
X29535000Y-97032240D01*
X29535000Y-96867760D01*
X29865000Y-96867760D01*
X29865000Y-97032240D01*
X29897089Y-97193560D01*
X29960033Y-97345521D01*
X30051413Y-97482281D01*
X30167719Y-97598587D01*
X30304479Y-97689967D01*
X30456440Y-97752911D01*
X30617760Y-97785000D01*
X30782240Y-97785000D01*
X30943560Y-97752911D01*
X31095521Y-97689967D01*
X31232281Y-97598587D01*
X31348587Y-97482281D01*
X31439967Y-97345521D01*
X31502911Y-97193560D01*
X31535000Y-97032240D01*
X31535000Y-96867760D01*
X31533041Y-96857911D01*
X31765000Y-96857911D01*
X31765000Y-97042089D01*
X31800932Y-97222729D01*
X31871414Y-97392889D01*
X31973738Y-97546028D01*
X32103972Y-97676262D01*
X32257111Y-97778586D01*
X32427271Y-97849068D01*
X32607911Y-97885000D01*
X32792089Y-97885000D01*
X32972729Y-97849068D01*
X33142889Y-97778586D01*
X33296028Y-97676262D01*
X33426262Y-97546028D01*
X33528586Y-97392889D01*
X33599068Y-97222729D01*
X33635000Y-97042089D01*
X33635000Y-96857911D01*
X33599068Y-96677271D01*
X33528586Y-96507111D01*
X33426262Y-96353972D01*
X33296028Y-96223738D01*
X33142889Y-96121414D01*
X32972729Y-96050932D01*
X32792089Y-96015000D01*
X32607911Y-96015000D01*
X32427271Y-96050932D01*
X32257111Y-96121414D01*
X32103972Y-96223738D01*
X31973738Y-96353972D01*
X31871414Y-96507111D01*
X31800932Y-96677271D01*
X31765000Y-96857911D01*
X31533041Y-96857911D01*
X31502911Y-96706440D01*
X31439967Y-96554479D01*
X31348587Y-96417719D01*
X31232281Y-96301413D01*
X31095521Y-96210033D01*
X30943560Y-96147089D01*
X30782240Y-96115000D01*
X30617760Y-96115000D01*
X30456440Y-96147089D01*
X30304479Y-96210033D01*
X30167719Y-96301413D01*
X30051413Y-96417719D01*
X29960033Y-96554479D01*
X29897089Y-96706440D01*
X29865000Y-96867760D01*
X29535000Y-96867760D01*
X29502911Y-96706440D01*
X29439967Y-96554479D01*
X29348587Y-96417719D01*
X29232281Y-96301413D01*
X29095521Y-96210033D01*
X28943560Y-96147089D01*
X28782240Y-96115000D01*
X28617760Y-96115000D01*
X28456440Y-96147089D01*
X28304479Y-96210033D01*
X28167719Y-96301413D01*
X28051413Y-96417719D01*
X27960033Y-96554479D01*
X27897089Y-96706440D01*
X27865000Y-96867760D01*
X27535000Y-96867760D01*
X27502911Y-96706440D01*
X27439967Y-96554479D01*
X27348587Y-96417719D01*
X27232281Y-96301413D01*
X27095521Y-96210033D01*
X26943560Y-96147089D01*
X26782240Y-96115000D01*
X26617760Y-96115000D01*
X26456440Y-96147089D01*
X26304479Y-96210033D01*
X26167719Y-96301413D01*
X26051413Y-96417719D01*
X25960033Y-96554479D01*
X25897089Y-96706440D01*
X25865000Y-96867760D01*
X25635000Y-96867760D01*
X25635000Y-96857911D01*
X25599068Y-96677271D01*
X25528586Y-96507111D01*
X25426262Y-96353972D01*
X25296028Y-96223738D01*
X25142889Y-96121414D01*
X24972729Y-96050932D01*
X24792089Y-96015000D01*
X24607911Y-96015000D01*
X24427271Y-96050932D01*
X24257111Y-96121414D01*
X24103972Y-96223738D01*
X23973738Y-96353972D01*
X23871414Y-96507111D01*
X23800932Y-96677271D01*
X23765000Y-96857911D01*
X23533041Y-96857911D01*
X23502911Y-96706440D01*
X23439967Y-96554479D01*
X23348587Y-96417719D01*
X23232281Y-96301413D01*
X23095521Y-96210033D01*
X22943560Y-96147089D01*
X22782240Y-96115000D01*
X22617760Y-96115000D01*
X22456440Y-96147089D01*
X22304479Y-96210033D01*
X22167719Y-96301413D01*
X22051413Y-96417719D01*
X21960033Y-96554479D01*
X21897089Y-96706440D01*
X21865000Y-96867760D01*
X20660000Y-96867760D01*
X20660000Y-90950000D01*
X21311928Y-90950000D01*
X21311928Y-92650000D01*
X21324188Y-92774482D01*
X21360498Y-92894180D01*
X21419463Y-93004494D01*
X21498815Y-93101185D01*
X21595506Y-93180537D01*
X21705820Y-93239502D01*
X21825518Y-93275812D01*
X21950000Y-93288072D01*
X23650000Y-93288072D01*
X23774482Y-93275812D01*
X23894180Y-93239502D01*
X24004494Y-93180537D01*
X24101185Y-93101185D01*
X24180537Y-93004494D01*
X24239502Y-92894180D01*
X24263966Y-92813534D01*
X24339731Y-92897588D01*
X24573080Y-93071641D01*
X24835901Y-93196825D01*
X24983110Y-93241476D01*
X25213000Y-93120155D01*
X25213000Y-91927000D01*
X25467000Y-91927000D01*
X25467000Y-93120155D01*
X25696890Y-93241476D01*
X25844099Y-93196825D01*
X26106920Y-93071641D01*
X26340269Y-92897588D01*
X26535178Y-92681355D01*
X26684157Y-92431252D01*
X26781481Y-92156891D01*
X26660814Y-91927000D01*
X25467000Y-91927000D01*
X25213000Y-91927000D01*
X25193000Y-91927000D01*
X25193000Y-91673000D01*
X25213000Y-91673000D01*
X25213000Y-90479845D01*
X25467000Y-90479845D01*
X25467000Y-91673000D01*
X26660814Y-91673000D01*
X26781481Y-91443109D01*
X26684157Y-91168748D01*
X26535178Y-90918645D01*
X26340269Y-90702412D01*
X26106920Y-90528359D01*
X25844099Y-90403175D01*
X25696890Y-90358524D01*
X25467000Y-90479845D01*
X25213000Y-90479845D01*
X24983110Y-90358524D01*
X24835901Y-90403175D01*
X24573080Y-90528359D01*
X24339731Y-90702412D01*
X24263966Y-90786466D01*
X24239502Y-90705820D01*
X24180537Y-90595506D01*
X24101185Y-90498815D01*
X24004494Y-90419463D01*
X23894180Y-90360498D01*
X23774482Y-90324188D01*
X23650000Y-90311928D01*
X21950000Y-90311928D01*
X21825518Y-90324188D01*
X21705820Y-90360498D01*
X21595506Y-90419463D01*
X21498815Y-90498815D01*
X21419463Y-90595506D01*
X21360498Y-90705820D01*
X21324188Y-90825518D01*
X21311928Y-90950000D01*
X20660000Y-90950000D01*
X20660000Y-87438310D01*
X20825537Y-87548918D01*
X21123088Y-87672168D01*
X21438967Y-87735000D01*
X21761033Y-87735000D01*
X22076912Y-87672168D01*
X22374463Y-87548918D01*
X22642252Y-87369987D01*
X22869987Y-87142252D01*
X23048918Y-86874463D01*
X23054909Y-86860000D01*
X26645091Y-86860000D01*
X26651082Y-86874463D01*
G37*
X26651082Y-86874463D02*
X26830013Y-87142252D01*
X27057748Y-87369987D01*
X27325537Y-87548918D01*
X27623088Y-87672168D01*
X27760125Y-87699426D01*
X30769401Y-90708703D01*
X30793199Y-90737701D01*
X30908924Y-90832674D01*
X31040953Y-90903246D01*
X31184214Y-90946703D01*
X31295867Y-90957700D01*
X31295876Y-90957700D01*
X31333199Y-90961376D01*
X31370522Y-90957700D01*
X37958478Y-90957700D01*
X37995800Y-90961376D01*
X38033122Y-90957700D01*
X38033133Y-90957700D01*
X38144786Y-90946703D01*
X38288047Y-90903246D01*
X38344658Y-90872986D01*
X38354378Y-90896451D01*
X38256695Y-91042644D01*
X38178674Y-91231002D01*
X38138900Y-91430961D01*
X38138900Y-91634839D01*
X38178674Y-91834798D01*
X38217513Y-91928562D01*
X37957019Y-91980377D01*
X37555856Y-92146544D01*
X37194819Y-92387782D01*
X36887782Y-92694819D01*
X36646544Y-93055856D01*
X36480377Y-93457019D01*
X36395666Y-93882892D01*
X36395666Y-94317108D01*
X36480377Y-94742981D01*
X36646544Y-95144144D01*
X36887782Y-95505181D01*
X37194819Y-95812218D01*
X37555856Y-96053456D01*
X37957019Y-96219623D01*
X38382892Y-96304334D01*
X38817108Y-96304334D01*
X39242981Y-96219623D01*
X39644144Y-96053456D01*
X40005181Y-95812218D01*
X40312218Y-95505181D01*
X40553456Y-95144144D01*
X40588001Y-95060745D01*
X40588000Y-108960678D01*
X40584324Y-108998000D01*
X40588000Y-109035322D01*
X40588000Y-109035332D01*
X40598997Y-109146985D01*
X40633279Y-109260000D01*
X40642454Y-109290246D01*
X40713026Y-109422276D01*
X40745568Y-109461928D01*
X40807999Y-109538001D01*
X40837003Y-109561804D01*
X41557615Y-110282417D01*
X41540000Y-110370976D01*
X41540000Y-110629024D01*
X41590342Y-110882113D01*
X41689093Y-111120518D01*
X41832456Y-111335077D01*
X42014923Y-111517544D01*
X42127191Y-111592559D01*
X42126205Y-111596600D01*
X42315754Y-111786149D01*
X42311928Y-111825000D01*
X42314446Y-112144051D01*
X41946600Y-111776205D01*
X41715379Y-111832630D01*
X41606983Y-112066808D01*
X41546355Y-112317633D01*
X41535826Y-112575465D01*
X41575800Y-112830398D01*
X41664741Y-113072633D01*
X41715379Y-113167370D01*
X41946600Y-113223795D01*
X42314446Y-112855949D01*
X42311928Y-113175000D01*
X42315754Y-113213851D01*
X42126205Y-113403400D01*
X42127191Y-113407441D01*
X42014923Y-113482456D01*
X41832456Y-113664923D01*
X41689093Y-113879482D01*
X41590342Y-114117887D01*
X41540000Y-114370976D01*
X41540000Y-114629024D01*
X41590342Y-114882113D01*
X41605790Y-114919408D01*
X40435399Y-116089800D01*
X38221423Y-116089800D01*
X38184100Y-116086124D01*
X38146777Y-116089800D01*
X38146767Y-116089800D01*
X38035114Y-116100797D01*
X37891853Y-116144254D01*
X37759823Y-116214826D01*
X37676183Y-116283468D01*
X37644099Y-116309799D01*
X37620301Y-116338797D01*
X35979174Y-117979924D01*
X35926250Y-117927000D01*
X34727000Y-117927000D01*
X34727000Y-117947000D01*
X34473000Y-117947000D01*
X34473000Y-117927000D01*
X32187000Y-117927000D01*
X32187000Y-117947000D01*
X31933000Y-117947000D01*
X31933000Y-117927000D01*
X31913000Y-117927000D01*
X31913000Y-117673000D01*
X31933000Y-117673000D01*
X31933000Y-116479845D01*
X32187000Y-116479845D01*
X32187000Y-117673000D01*
X34473000Y-117673000D01*
X34473000Y-116473750D01*
X34727000Y-116473750D01*
X34727000Y-117673000D01*
X35926250Y-117673000D01*
X36085000Y-117514250D01*
X36088072Y-116950000D01*
X36075812Y-116825518D01*
X36039502Y-116705820D01*
X35980537Y-116595506D01*
X35901185Y-116498815D01*
X35804494Y-116419463D01*
X35694180Y-116360498D01*
X35574482Y-116324188D01*
X35450000Y-116311928D01*
X34885750Y-116315000D01*
X34727000Y-116473750D01*
X34473000Y-116473750D01*
X34314250Y-116315000D01*
X33750000Y-116311928D01*
X33625518Y-116324188D01*
X33505820Y-116360498D01*
X33395506Y-116419463D01*
X33298815Y-116498815D01*
X33219463Y-116595506D01*
X33160498Y-116705820D01*
X33136034Y-116786466D01*
X33060269Y-116702412D01*
X32826920Y-116528359D01*
X32564099Y-116403175D01*
X32416890Y-116358524D01*
X32187000Y-116479845D01*
X31933000Y-116479845D01*
X31703110Y-116358524D01*
X31555901Y-116403175D01*
X31293080Y-116528359D01*
X31059731Y-116702412D01*
X30864822Y-116918645D01*
X30795195Y-117035534D01*
X30673475Y-116853368D01*
X30466632Y-116646525D01*
X30223411Y-116484010D01*
X29953158Y-116372068D01*
X29666260Y-116315000D01*
X29373740Y-116315000D01*
X29086842Y-116372068D01*
X28816589Y-116484010D01*
X28573368Y-116646525D01*
X28366525Y-116853368D01*
X28250000Y-117027760D01*
X28133475Y-116853368D01*
X27926632Y-116646525D01*
X27683411Y-116484010D01*
X27413158Y-116372068D01*
X27126260Y-116315000D01*
X26833740Y-116315000D01*
X26546842Y-116372068D01*
X26276589Y-116484010D01*
X26033368Y-116646525D01*
X25826525Y-116853368D01*
X25710000Y-117027760D01*
X25593475Y-116853368D01*
X25386632Y-116646525D01*
X25143411Y-116484010D01*
X24873158Y-116372068D01*
X24586260Y-116315000D01*
X24293740Y-116315000D01*
X24006842Y-116372068D01*
X23736589Y-116484010D01*
X23493368Y-116646525D01*
X23286525Y-116853368D01*
X23170000Y-117027760D01*
X23053475Y-116853368D01*
X22846632Y-116646525D01*
X22603411Y-116484010D01*
X22333158Y-116372068D01*
X22046260Y-116315000D01*
X21753740Y-116315000D01*
X21466842Y-116372068D01*
X21196589Y-116484010D01*
X20953368Y-116646525D01*
X20746525Y-116853368D01*
X20660000Y-116982862D01*
X20660000Y-112420000D01*
X22732419Y-112420000D01*
X22760189Y-112417265D01*
X22761910Y-112417277D01*
X22771082Y-112416378D01*
X22799201Y-112413423D01*
X22829383Y-112410450D01*
X22831491Y-112409810D01*
X22887940Y-112398223D01*
X22946670Y-112387020D01*
X22955486Y-112384358D01*
X22955490Y-112384357D01*
X22955493Y-112384356D01*
X23011424Y-112367042D01*
X23066551Y-112343869D01*
X23122034Y-112321452D01*
X23130171Y-112317125D01*
X23181674Y-112289277D01*
X23231234Y-112255847D01*
X23281319Y-112223073D01*
X23288460Y-112217248D01*
X23333572Y-112179927D01*
X23375713Y-112137491D01*
X23418462Y-112095628D01*
X23424336Y-112088527D01*
X23461341Y-112043154D01*
X23494433Y-111993346D01*
X23528235Y-111943981D01*
X23532618Y-111935875D01*
X23560106Y-111884179D01*
X23582894Y-111828893D01*
X23606470Y-111773887D01*
X23609194Y-111765084D01*
X23626117Y-111709033D01*
X23637731Y-111650380D01*
X23650175Y-111591835D01*
X23650423Y-111589471D01*
X23650450Y-111589383D01*
X23650710Y-111586746D01*
X23651138Y-111582670D01*
X23656851Y-111524400D01*
X23656851Y-111524392D01*
X23660000Y-111492419D01*
X23660000Y-110291351D01*
X23678446Y-110319114D01*
X23684320Y-110326215D01*
X23784680Y-110445819D01*
X23827430Y-110487682D01*
X23869570Y-110530118D01*
X23876711Y-110535942D01*
X23998391Y-110633774D01*
X24048421Y-110666512D01*
X24098037Y-110699979D01*
X24106174Y-110704305D01*
X24244539Y-110776641D01*
X24299974Y-110799038D01*
X24355146Y-110822231D01*
X24363968Y-110824894D01*
X24513749Y-110868977D01*
X24572468Y-110880178D01*
X24631105Y-110892215D01*
X24640276Y-110893114D01*
X24795767Y-110907265D01*
X24855586Y-110906847D01*
X24915406Y-110907265D01*
X24924577Y-110906365D01*
X25079853Y-110890044D01*
X25138405Y-110878025D01*
X25197205Y-110866808D01*
X25206027Y-110864144D01*
X25355177Y-110817976D01*
X25410315Y-110794798D01*
X25465789Y-110772385D01*
X25473918Y-110768062D01*
X25473922Y-110768060D01*
X25473925Y-110768058D01*
X25611267Y-110693797D01*
X25660816Y-110660375D01*
X25710912Y-110627594D01*
X25718053Y-110621769D01*
X25838356Y-110522247D01*
X25880517Y-110479791D01*
X25923247Y-110437946D01*
X25929121Y-110430846D01*
X26027801Y-110309852D01*
X26060911Y-110260017D01*
X26094699Y-110210671D01*
X26099082Y-110202565D01*
X26172382Y-110064707D01*
X26195163Y-110009436D01*
X26218744Y-109954419D01*
X26221467Y-109945620D01*
X26221469Y-109945614D01*
X26266595Y-109796146D01*
X26278211Y-109737481D01*
X26290651Y-109678957D01*
X26291614Y-109669792D01*
X26306850Y-109514406D01*
X26306850Y-109514402D01*
X26310000Y-109482419D01*
X26310000Y-103517581D01*
X26306772Y-103484806D01*
X26306772Y-103474425D01*
X26305809Y-103465260D01*
X26288405Y-103310101D01*
X26275969Y-103251598D01*
X26264349Y-103192910D01*
X26261624Y-103184107D01*
X26214414Y-103035282D01*
X26190847Y-102980297D01*
X26168054Y-102924996D01*
X26163671Y-102916890D01*
X26088454Y-102780070D01*
X26054678Y-102730741D01*
X26021554Y-102680885D01*
X26015680Y-102673785D01*
X25915320Y-102554181D01*
X25872587Y-102512334D01*
X25830430Y-102469882D01*
X25823289Y-102464058D01*
X25701609Y-102366225D01*
X25651556Y-102333472D01*
X25601963Y-102300020D01*
X25593826Y-102295694D01*
X25455460Y-102223359D01*
X25400018Y-102200959D01*
X25344854Y-102177770D01*
X25336032Y-102175106D01*
X25186252Y-102131023D01*
X25127525Y-102119820D01*
X25068895Y-102107785D01*
X25059724Y-102106886D01*
X24904234Y-102092735D01*
X24844414Y-102093153D01*
X24784594Y-102092735D01*
X24775423Y-102093635D01*
X24620146Y-102109956D01*
X24561581Y-102121978D01*
X24502795Y-102133192D01*
X24493973Y-102135856D01*
X24344823Y-102182025D01*
X24289717Y-102205189D01*
X24234211Y-102227615D01*
X24226082Y-102231938D01*
X24226078Y-102231940D01*
X24226075Y-102231942D01*
X24088733Y-102306203D01*
X24039161Y-102339640D01*
X23989088Y-102372406D01*
X23981947Y-102378231D01*
X23861644Y-102477754D01*
X23819486Y-102520207D01*
X23776753Y-102562054D01*
X23770884Y-102569149D01*
X23770880Y-102569153D01*
X23770879Y-102569155D01*
X23672199Y-102690148D01*
X23660000Y-102708509D01*
X23660000Y-101867581D01*
X23657265Y-101839811D01*
X23657277Y-101838090D01*
X23656378Y-101828919D01*
X23653423Y-101800807D01*
X23650450Y-101770617D01*
X23649810Y-101768509D01*
X23638223Y-101712060D01*
X23627020Y-101653330D01*
X23624356Y-101644509D01*
X23607042Y-101588576D01*
X23583869Y-101533449D01*
X23561452Y-101477966D01*
X23557125Y-101469829D01*
X23529277Y-101418326D01*
X23495814Y-101368716D01*
X23463072Y-101318681D01*
X23457248Y-101311540D01*
X23419927Y-101266427D01*
X23377472Y-101224268D01*
X23335628Y-101181538D01*
X23328527Y-101175664D01*
X23283154Y-101138659D01*
X23233346Y-101105567D01*
X23183981Y-101071765D01*
X23175875Y-101067382D01*
X23124179Y-101039894D01*
X23068881Y-101017101D01*
X23013887Y-100993530D01*
X23005094Y-100990809D01*
X23005089Y-100990807D01*
X23005084Y-100990806D01*
X22949033Y-100973883D01*
X22890366Y-100962266D01*
X22831834Y-100949825D01*
X22829471Y-100949577D01*
X22829383Y-100949550D01*
X22826739Y-100949290D01*
X22822670Y-100948862D01*
X22764400Y-100943149D01*
X22764392Y-100943149D01*
X22732419Y-100940000D01*
X20660000Y-100940000D01*
X20660000Y-96867760D01*
X21865000Y-96867760D01*
X21865000Y-97032240D01*
X21897089Y-97193560D01*
X21960033Y-97345521D01*
X22051413Y-97482281D01*
X22167719Y-97598587D01*
X22304479Y-97689967D01*
X22456440Y-97752911D01*
X22617760Y-97785000D01*
X22782240Y-97785000D01*
X22943560Y-97752911D01*
X23095521Y-97689967D01*
X23232281Y-97598587D01*
X23348587Y-97482281D01*
X23439967Y-97345521D01*
X23502911Y-97193560D01*
X23535000Y-97032240D01*
X23535000Y-96867760D01*
X23533041Y-96857911D01*
X23765000Y-96857911D01*
X23765000Y-97042089D01*
X23800932Y-97222729D01*
X23871414Y-97392889D01*
X23973738Y-97546028D01*
X24103972Y-97676262D01*
X24257111Y-97778586D01*
X24427271Y-97849068D01*
X24607911Y-97885000D01*
X24792089Y-97885000D01*
X24972729Y-97849068D01*
X25142889Y-97778586D01*
X25296028Y-97676262D01*
X25426262Y-97546028D01*
X25528586Y-97392889D01*
X25599068Y-97222729D01*
X25635000Y-97042089D01*
X25635000Y-96867760D01*
X25865000Y-96867760D01*
X25865000Y-97032240D01*
X25897089Y-97193560D01*
X25960033Y-97345521D01*
X26051413Y-97482281D01*
X26167719Y-97598587D01*
X26304479Y-97689967D01*
X26456440Y-97752911D01*
X26617760Y-97785000D01*
X26782240Y-97785000D01*
X26943560Y-97752911D01*
X27095521Y-97689967D01*
X27232281Y-97598587D01*
X27348587Y-97482281D01*
X27439967Y-97345521D01*
X27502911Y-97193560D01*
X27535000Y-97032240D01*
X27535000Y-96867760D01*
X27865000Y-96867760D01*
X27865000Y-97032240D01*
X27897089Y-97193560D01*
X27960033Y-97345521D01*
X28051413Y-97482281D01*
X28167719Y-97598587D01*
X28304479Y-97689967D01*
X28456440Y-97752911D01*
X28617760Y-97785000D01*
X28782240Y-97785000D01*
X28943560Y-97752911D01*
X29095521Y-97689967D01*
X29232281Y-97598587D01*
X29348587Y-97482281D01*
X29439967Y-97345521D01*
X29502911Y-97193560D01*
X29535000Y-97032240D01*
X29535000Y-96867760D01*
X29865000Y-96867760D01*
X29865000Y-97032240D01*
X29897089Y-97193560D01*
X29960033Y-97345521D01*
X30051413Y-97482281D01*
X30167719Y-97598587D01*
X30304479Y-97689967D01*
X30456440Y-97752911D01*
X30617760Y-97785000D01*
X30782240Y-97785000D01*
X30943560Y-97752911D01*
X31095521Y-97689967D01*
X31232281Y-97598587D01*
X31348587Y-97482281D01*
X31439967Y-97345521D01*
X31502911Y-97193560D01*
X31535000Y-97032240D01*
X31535000Y-96867760D01*
X31533041Y-96857911D01*
X31765000Y-96857911D01*
X31765000Y-97042089D01*
X31800932Y-97222729D01*
X31871414Y-97392889D01*
X31973738Y-97546028D01*
X32103972Y-97676262D01*
X32257111Y-97778586D01*
X32427271Y-97849068D01*
X32607911Y-97885000D01*
X32792089Y-97885000D01*
X32972729Y-97849068D01*
X33142889Y-97778586D01*
X33296028Y-97676262D01*
X33426262Y-97546028D01*
X33528586Y-97392889D01*
X33599068Y-97222729D01*
X33635000Y-97042089D01*
X33635000Y-96857911D01*
X33599068Y-96677271D01*
X33528586Y-96507111D01*
X33426262Y-96353972D01*
X33296028Y-96223738D01*
X33142889Y-96121414D01*
X32972729Y-96050932D01*
X32792089Y-96015000D01*
X32607911Y-96015000D01*
X32427271Y-96050932D01*
X32257111Y-96121414D01*
X32103972Y-96223738D01*
X31973738Y-96353972D01*
X31871414Y-96507111D01*
X31800932Y-96677271D01*
X31765000Y-96857911D01*
X31533041Y-96857911D01*
X31502911Y-96706440D01*
X31439967Y-96554479D01*
X31348587Y-96417719D01*
X31232281Y-96301413D01*
X31095521Y-96210033D01*
X30943560Y-96147089D01*
X30782240Y-96115000D01*
X30617760Y-96115000D01*
X30456440Y-96147089D01*
X30304479Y-96210033D01*
X30167719Y-96301413D01*
X30051413Y-96417719D01*
X29960033Y-96554479D01*
X29897089Y-96706440D01*
X29865000Y-96867760D01*
X29535000Y-96867760D01*
X29502911Y-96706440D01*
X29439967Y-96554479D01*
X29348587Y-96417719D01*
X29232281Y-96301413D01*
X29095521Y-96210033D01*
X28943560Y-96147089D01*
X28782240Y-96115000D01*
X28617760Y-96115000D01*
X28456440Y-96147089D01*
X28304479Y-96210033D01*
X28167719Y-96301413D01*
X28051413Y-96417719D01*
X27960033Y-96554479D01*
X27897089Y-96706440D01*
X27865000Y-96867760D01*
X27535000Y-96867760D01*
X27502911Y-96706440D01*
X27439967Y-96554479D01*
X27348587Y-96417719D01*
X27232281Y-96301413D01*
X27095521Y-96210033D01*
X26943560Y-96147089D01*
X26782240Y-96115000D01*
X26617760Y-96115000D01*
X26456440Y-96147089D01*
X26304479Y-96210033D01*
X26167719Y-96301413D01*
X26051413Y-96417719D01*
X25960033Y-96554479D01*
X25897089Y-96706440D01*
X25865000Y-96867760D01*
X25635000Y-96867760D01*
X25635000Y-96857911D01*
X25599068Y-96677271D01*
X25528586Y-96507111D01*
X25426262Y-96353972D01*
X25296028Y-96223738D01*
X25142889Y-96121414D01*
X24972729Y-96050932D01*
X24792089Y-96015000D01*
X24607911Y-96015000D01*
X24427271Y-96050932D01*
X24257111Y-96121414D01*
X24103972Y-96223738D01*
X23973738Y-96353972D01*
X23871414Y-96507111D01*
X23800932Y-96677271D01*
X23765000Y-96857911D01*
X23533041Y-96857911D01*
X23502911Y-96706440D01*
X23439967Y-96554479D01*
X23348587Y-96417719D01*
X23232281Y-96301413D01*
X23095521Y-96210033D01*
X22943560Y-96147089D01*
X22782240Y-96115000D01*
X22617760Y-96115000D01*
X22456440Y-96147089D01*
X22304479Y-96210033D01*
X22167719Y-96301413D01*
X22051413Y-96417719D01*
X21960033Y-96554479D01*
X21897089Y-96706440D01*
X21865000Y-96867760D01*
X20660000Y-96867760D01*
X20660000Y-90950000D01*
X21311928Y-90950000D01*
X21311928Y-92650000D01*
X21324188Y-92774482D01*
X21360498Y-92894180D01*
X21419463Y-93004494D01*
X21498815Y-93101185D01*
X21595506Y-93180537D01*
X21705820Y-93239502D01*
X21825518Y-93275812D01*
X21950000Y-93288072D01*
X23650000Y-93288072D01*
X23774482Y-93275812D01*
X23894180Y-93239502D01*
X24004494Y-93180537D01*
X24101185Y-93101185D01*
X24180537Y-93004494D01*
X24239502Y-92894180D01*
X24263966Y-92813534D01*
X24339731Y-92897588D01*
X24573080Y-93071641D01*
X24835901Y-93196825D01*
X24983110Y-93241476D01*
X25213000Y-93120155D01*
X25213000Y-91927000D01*
X25467000Y-91927000D01*
X25467000Y-93120155D01*
X25696890Y-93241476D01*
X25844099Y-93196825D01*
X26106920Y-93071641D01*
X26340269Y-92897588D01*
X26535178Y-92681355D01*
X26684157Y-92431252D01*
X26781481Y-92156891D01*
X26660814Y-91927000D01*
X25467000Y-91927000D01*
X25213000Y-91927000D01*
X25193000Y-91927000D01*
X25193000Y-91673000D01*
X25213000Y-91673000D01*
X25213000Y-90479845D01*
X25467000Y-90479845D01*
X25467000Y-91673000D01*
X26660814Y-91673000D01*
X26781481Y-91443109D01*
X26684157Y-91168748D01*
X26535178Y-90918645D01*
X26340269Y-90702412D01*
X26106920Y-90528359D01*
X25844099Y-90403175D01*
X25696890Y-90358524D01*
X25467000Y-90479845D01*
X25213000Y-90479845D01*
X24983110Y-90358524D01*
X24835901Y-90403175D01*
X24573080Y-90528359D01*
X24339731Y-90702412D01*
X24263966Y-90786466D01*
X24239502Y-90705820D01*
X24180537Y-90595506D01*
X24101185Y-90498815D01*
X24004494Y-90419463D01*
X23894180Y-90360498D01*
X23774482Y-90324188D01*
X23650000Y-90311928D01*
X21950000Y-90311928D01*
X21825518Y-90324188D01*
X21705820Y-90360498D01*
X21595506Y-90419463D01*
X21498815Y-90498815D01*
X21419463Y-90595506D01*
X21360498Y-90705820D01*
X21324188Y-90825518D01*
X21311928Y-90950000D01*
X20660000Y-90950000D01*
X20660000Y-87438310D01*
X20825537Y-87548918D01*
X21123088Y-87672168D01*
X21438967Y-87735000D01*
X21761033Y-87735000D01*
X22076912Y-87672168D01*
X22374463Y-87548918D01*
X22642252Y-87369987D01*
X22869987Y-87142252D01*
X23048918Y-86874463D01*
X23054909Y-86860000D01*
X26645091Y-86860000D01*
X26651082Y-86874463D01*
G36*
X49436495Y-110496956D02*
G01*
X49549763Y-110666474D01*
X49693926Y-110810637D01*
X49696023Y-110812038D01*
X49677500Y-110905161D01*
X49677500Y-111109039D01*
X49717274Y-111308998D01*
X49795295Y-111497356D01*
X49908563Y-111666874D01*
X50052726Y-111811037D01*
X50222244Y-111924305D01*
X50410602Y-112002326D01*
X50610561Y-112042100D01*
X50814439Y-112042100D01*
X51014398Y-112002326D01*
X51202756Y-111924305D01*
X51372274Y-111811037D01*
X51516437Y-111666874D01*
X51621257Y-111510000D01*
X55170792Y-111510000D01*
X55161928Y-111600000D01*
X55161928Y-111900000D01*
X55171777Y-112000000D01*
X55170299Y-112015000D01*
X53666325Y-112015000D01*
X53629000Y-112011324D01*
X53591675Y-112015000D01*
X53591667Y-112015000D01*
X53480014Y-112025997D01*
X53336753Y-112069454D01*
X53204724Y-112140026D01*
X53088999Y-112234999D01*
X53065201Y-112263997D01*
X50747600Y-114581598D01*
X50747600Y-114365311D01*
X50791537Y-114321374D01*
X50904805Y-114151856D01*
X50982826Y-113963498D01*
X51022600Y-113763539D01*
X51022600Y-113559661D01*
X50982826Y-113359702D01*
X50904805Y-113171344D01*
X50791537Y-113001826D01*
X50647374Y-112857663D01*
X50477856Y-112744395D01*
X50289498Y-112666374D01*
X50089539Y-112626600D01*
X49885661Y-112626600D01*
X49685702Y-112666374D01*
X49497344Y-112744395D01*
X49327826Y-112857663D01*
X49183663Y-113001826D01*
X49070395Y-113171344D01*
X48992374Y-113359702D01*
X48952600Y-113559661D01*
X48952600Y-113763539D01*
X48992374Y-113963498D01*
X49070395Y-114151856D01*
X49183663Y-114321374D01*
X49227601Y-114365312D01*
X49227601Y-114481225D01*
X49142498Y-114445974D01*
X48942539Y-114406200D01*
X48738661Y-114406200D01*
X48538702Y-114445974D01*
X48350344Y-114523995D01*
X48180826Y-114637263D01*
X48136889Y-114681200D01*
X46331302Y-114681200D01*
X45639104Y-113989002D01*
X45615301Y-113959999D01*
X45499576Y-113865026D01*
X45386037Y-113804337D01*
X45375812Y-113700518D01*
X45339502Y-113580820D01*
X45296302Y-113500000D01*
X45339502Y-113419180D01*
X45375812Y-113299482D01*
X45388072Y-113175000D01*
X45385000Y-112785750D01*
X45226250Y-112627000D01*
X44155906Y-112627000D01*
X44164174Y-112424535D01*
X44156093Y-112373000D01*
X45226250Y-112373000D01*
X45385000Y-112214250D01*
X45387983Y-111836250D01*
X45443353Y-111865846D01*
X45586614Y-111909303D01*
X45698267Y-111920300D01*
X45698276Y-111920300D01*
X45735599Y-111923976D01*
X45772922Y-111920300D01*
X47499878Y-111920300D01*
X47537200Y-111923976D01*
X47574522Y-111920300D01*
X47574533Y-111920300D01*
X47686186Y-111909303D01*
X47829447Y-111865846D01*
X47961476Y-111795274D01*
X48077201Y-111700301D01*
X48101004Y-111671297D01*
X49389295Y-110383006D01*
X49436495Y-110496956D01*
G37*
X49436495Y-110496956D02*
X49549763Y-110666474D01*
X49693926Y-110810637D01*
X49696023Y-110812038D01*
X49677500Y-110905161D01*
X49677500Y-111109039D01*
X49717274Y-111308998D01*
X49795295Y-111497356D01*
X49908563Y-111666874D01*
X50052726Y-111811037D01*
X50222244Y-111924305D01*
X50410602Y-112002326D01*
X50610561Y-112042100D01*
X50814439Y-112042100D01*
X51014398Y-112002326D01*
X51202756Y-111924305D01*
X51372274Y-111811037D01*
X51516437Y-111666874D01*
X51621257Y-111510000D01*
X55170792Y-111510000D01*
X55161928Y-111600000D01*
X55161928Y-111900000D01*
X55171777Y-112000000D01*
X55170299Y-112015000D01*
X53666325Y-112015000D01*
X53629000Y-112011324D01*
X53591675Y-112015000D01*
X53591667Y-112015000D01*
X53480014Y-112025997D01*
X53336753Y-112069454D01*
X53204724Y-112140026D01*
X53088999Y-112234999D01*
X53065201Y-112263997D01*
X50747600Y-114581598D01*
X50747600Y-114365311D01*
X50791537Y-114321374D01*
X50904805Y-114151856D01*
X50982826Y-113963498D01*
X51022600Y-113763539D01*
X51022600Y-113559661D01*
X50982826Y-113359702D01*
X50904805Y-113171344D01*
X50791537Y-113001826D01*
X50647374Y-112857663D01*
X50477856Y-112744395D01*
X50289498Y-112666374D01*
X50089539Y-112626600D01*
X49885661Y-112626600D01*
X49685702Y-112666374D01*
X49497344Y-112744395D01*
X49327826Y-112857663D01*
X49183663Y-113001826D01*
X49070395Y-113171344D01*
X48992374Y-113359702D01*
X48952600Y-113559661D01*
X48952600Y-113763539D01*
X48992374Y-113963498D01*
X49070395Y-114151856D01*
X49183663Y-114321374D01*
X49227601Y-114365312D01*
X49227601Y-114481225D01*
X49142498Y-114445974D01*
X48942539Y-114406200D01*
X48738661Y-114406200D01*
X48538702Y-114445974D01*
X48350344Y-114523995D01*
X48180826Y-114637263D01*
X48136889Y-114681200D01*
X46331302Y-114681200D01*
X45639104Y-113989002D01*
X45615301Y-113959999D01*
X45499576Y-113865026D01*
X45386037Y-113804337D01*
X45375812Y-113700518D01*
X45339502Y-113580820D01*
X45296302Y-113500000D01*
X45339502Y-113419180D01*
X45375812Y-113299482D01*
X45388072Y-113175000D01*
X45385000Y-112785750D01*
X45226250Y-112627000D01*
X44155906Y-112627000D01*
X44164174Y-112424535D01*
X44156093Y-112373000D01*
X45226250Y-112373000D01*
X45385000Y-112214250D01*
X45387983Y-111836250D01*
X45443353Y-111865846D01*
X45586614Y-111909303D01*
X45698267Y-111920300D01*
X45698276Y-111920300D01*
X45735599Y-111923976D01*
X45772922Y-111920300D01*
X47499878Y-111920300D01*
X47537200Y-111923976D01*
X47574522Y-111920300D01*
X47574533Y-111920300D01*
X47686186Y-111909303D01*
X47829447Y-111865846D01*
X47961476Y-111795274D01*
X48077201Y-111700301D01*
X48101004Y-111671297D01*
X49389295Y-110383006D01*
X49436495Y-110496956D01*
G36*
X57896126Y-103078337D02*
G01*
X58065644Y-103191605D01*
X58254002Y-103269626D01*
X58453961Y-103309400D01*
X58572001Y-103309400D01*
X58572001Y-103891597D01*
X57738072Y-104725527D01*
X57738072Y-104600000D01*
X57727882Y-104496535D01*
X57735000Y-104431750D01*
X57702753Y-104399503D01*
X57689502Y-104355820D01*
X57632939Y-104250000D01*
X57689502Y-104144180D01*
X57702753Y-104100497D01*
X57735000Y-104068250D01*
X57727882Y-104003465D01*
X57738072Y-103900000D01*
X57738072Y-103600000D01*
X57728223Y-103500000D01*
X57738072Y-103400000D01*
X57738072Y-103100000D01*
X57731611Y-103034400D01*
X57852189Y-103034400D01*
X57896126Y-103078337D01*
G37*
X57896126Y-103078337D02*
X58065644Y-103191605D01*
X58254002Y-103269626D01*
X58453961Y-103309400D01*
X58572001Y-103309400D01*
X58572001Y-103891597D01*
X57738072Y-104725527D01*
X57738072Y-104600000D01*
X57727882Y-104496535D01*
X57735000Y-104431750D01*
X57702753Y-104399503D01*
X57689502Y-104355820D01*
X57632939Y-104250000D01*
X57689502Y-104144180D01*
X57702753Y-104100497D01*
X57735000Y-104068250D01*
X57727882Y-104003465D01*
X57738072Y-103900000D01*
X57738072Y-103600000D01*
X57728223Y-103500000D01*
X57738072Y-103400000D01*
X57738072Y-103100000D01*
X57731611Y-103034400D01*
X57852189Y-103034400D01*
X57896126Y-103078337D01*
G36*
X58028916Y-97312517D02*
G01*
X57700000Y-97311928D01*
X57575518Y-97324188D01*
X57455820Y-97360498D01*
X57345506Y-97419463D01*
X57248815Y-97498815D01*
X57169463Y-97595506D01*
X57110498Y-97705820D01*
X57074188Y-97825518D01*
X57061928Y-97950000D01*
X57065000Y-98564250D01*
X57223750Y-98723000D01*
X59573000Y-98723000D01*
X59573000Y-98703000D01*
X59827000Y-98703000D01*
X59827000Y-98723000D01*
X59847000Y-98723000D01*
X59847000Y-98977000D01*
X59827000Y-98977000D01*
X59827000Y-100226250D01*
X59985750Y-100385000D01*
X61288701Y-100387335D01*
X61288701Y-101820797D01*
X60092000Y-103017498D01*
X60092000Y-102062023D01*
X60095676Y-102024700D01*
X60092000Y-101987377D01*
X60092000Y-101987367D01*
X60081003Y-101875714D01*
X60037546Y-101732453D01*
X59966974Y-101600424D01*
X59872001Y-101484699D01*
X59843004Y-101460902D01*
X58768259Y-100386158D01*
X59414250Y-100385000D01*
X59573000Y-100226250D01*
X59573000Y-98977000D01*
X57223750Y-98977000D01*
X57065000Y-99135750D01*
X57063988Y-99338100D01*
X56067300Y-99338100D01*
X56067300Y-95350902D01*
X58028916Y-97312517D01*
G37*
X58028916Y-97312517D02*
X57700000Y-97311928D01*
X57575518Y-97324188D01*
X57455820Y-97360498D01*
X57345506Y-97419463D01*
X57248815Y-97498815D01*
X57169463Y-97595506D01*
X57110498Y-97705820D01*
X57074188Y-97825518D01*
X57061928Y-97950000D01*
X57065000Y-98564250D01*
X57223750Y-98723000D01*
X59573000Y-98723000D01*
X59573000Y-98703000D01*
X59827000Y-98703000D01*
X59827000Y-98723000D01*
X59847000Y-98723000D01*
X59847000Y-98977000D01*
X59827000Y-98977000D01*
X59827000Y-100226250D01*
X59985750Y-100385000D01*
X61288701Y-100387335D01*
X61288701Y-101820797D01*
X60092000Y-103017498D01*
X60092000Y-102062023D01*
X60095676Y-102024700D01*
X60092000Y-101987377D01*
X60092000Y-101987367D01*
X60081003Y-101875714D01*
X60037546Y-101732453D01*
X59966974Y-101600424D01*
X59872001Y-101484699D01*
X59843004Y-101460902D01*
X58768259Y-100386158D01*
X59414250Y-100385000D01*
X59573000Y-100226250D01*
X59573000Y-98977000D01*
X57223750Y-98977000D01*
X57065000Y-99135750D01*
X57063988Y-99338100D01*
X56067300Y-99338100D01*
X56067300Y-95350902D01*
X58028916Y-97312517D01*
G36*
X26700186Y-80739956D02*
G01*
X26559296Y-81029571D01*
X26477616Y-81341108D01*
X26458282Y-81662595D01*
X26502039Y-81981675D01*
X26607205Y-82286088D01*
X26700186Y-82460044D01*
X26964587Y-82555808D01*
X27920395Y-81600000D01*
X27906253Y-81585858D01*
X28085858Y-81406253D01*
X28100000Y-81420395D01*
X28114143Y-81406253D01*
X28293748Y-81585858D01*
X28279605Y-81600000D01*
X29235413Y-82555808D01*
X29499814Y-82460044D01*
X29640704Y-82170429D01*
X29722384Y-81858892D01*
X29741718Y-81537405D01*
X29697961Y-81218325D01*
X29592795Y-80913912D01*
X29499814Y-80739956D01*
X29279058Y-80660000D01*
X30478455Y-80660000D01*
X30372068Y-80916842D01*
X30315000Y-81203740D01*
X30315000Y-81496260D01*
X30372068Y-81783158D01*
X30484010Y-82053411D01*
X30646525Y-82296632D01*
X30853368Y-82503475D01*
X31035534Y-82625195D01*
X30918645Y-82694822D01*
X30702412Y-82889731D01*
X30528359Y-83123080D01*
X30403175Y-83385901D01*
X30358524Y-83533110D01*
X30479845Y-83763000D01*
X31673000Y-83763000D01*
X31673000Y-83743000D01*
X31927000Y-83743000D01*
X31927000Y-83763000D01*
X33120155Y-83763000D01*
X33241476Y-83533110D01*
X33196825Y-83385901D01*
X33071641Y-83123080D01*
X32897588Y-82889731D01*
X32726387Y-82735413D01*
X63944192Y-82735413D01*
X64039956Y-82999814D01*
X64329571Y-83140704D01*
X64641108Y-83222384D01*
X64962595Y-83241718D01*
X65281675Y-83197961D01*
X65586088Y-83092795D01*
X65760044Y-82999814D01*
X65855808Y-82735413D01*
X64900000Y-81779605D01*
X63944192Y-82735413D01*
X32726387Y-82735413D01*
X32681355Y-82694822D01*
X32564466Y-82625195D01*
X32746632Y-82503475D01*
X32953475Y-82296632D01*
X33115990Y-82053411D01*
X33227932Y-81783158D01*
X33285000Y-81496260D01*
X33285000Y-81203740D01*
X33227932Y-80916842D01*
X33121545Y-80660000D01*
X63720942Y-80660000D01*
X63500186Y-80739956D01*
X63359296Y-81029571D01*
X63277616Y-81341108D01*
X63258282Y-81662595D01*
X63302039Y-81981675D01*
X63407205Y-82286088D01*
X63500186Y-82460044D01*
X63764587Y-82555808D01*
X64720395Y-81600000D01*
X64706253Y-81585858D01*
X64885858Y-81406253D01*
X64900000Y-81420395D01*
X64914143Y-81406253D01*
X65093748Y-81585858D01*
X65079605Y-81600000D01*
X66035413Y-82555808D01*
X66299814Y-82460044D01*
X66440704Y-82170429D01*
X66522384Y-81858892D01*
X66541718Y-81537405D01*
X66497961Y-81218325D01*
X66392795Y-80913912D01*
X66299814Y-80739956D01*
X66079058Y-80660000D01*
X70220942Y-80660000D01*
X70000186Y-80739956D01*
X69859296Y-81029571D01*
X69777616Y-81341108D01*
X69758282Y-81662595D01*
X69802039Y-81981675D01*
X69907205Y-82286088D01*
X70000186Y-82460044D01*
X70264587Y-82555808D01*
X71220395Y-81600000D01*
X71206253Y-81585858D01*
X71385858Y-81406253D01*
X71400000Y-81420395D01*
X71414143Y-81406253D01*
X71593748Y-81585858D01*
X71579605Y-81600000D01*
X71593748Y-81614143D01*
X71414143Y-81793748D01*
X71400000Y-81779605D01*
X70444192Y-82735413D01*
X70539956Y-82999814D01*
X70829571Y-83140704D01*
X71141108Y-83222384D01*
X71462595Y-83241718D01*
X71781675Y-83197961D01*
X72086088Y-83092795D01*
X72260044Y-82999814D01*
X72340000Y-82779058D01*
X72340000Y-84761690D01*
X72174463Y-84651082D01*
X71876912Y-84527832D01*
X71561033Y-84465000D01*
X71238967Y-84465000D01*
X70923088Y-84527832D01*
X70625537Y-84651082D01*
X70357748Y-84830013D01*
X70130013Y-85057748D01*
X69951082Y-85325537D01*
X69945091Y-85340000D01*
X66354909Y-85340000D01*
X66348918Y-85325537D01*
X66169987Y-85057748D01*
X65942252Y-84830013D01*
X65674463Y-84651082D01*
X65376912Y-84527832D01*
X65061033Y-84465000D01*
X64738967Y-84465000D01*
X64423088Y-84527832D01*
X64125537Y-84651082D01*
X63857748Y-84830013D01*
X63630013Y-85057748D01*
X63451082Y-85325537D01*
X63327832Y-85623088D01*
X63265000Y-85938967D01*
X63265000Y-86261033D01*
X63327832Y-86576912D01*
X63451082Y-86874463D01*
X63630013Y-87142252D01*
X63857748Y-87369987D01*
X64125537Y-87548918D01*
X64140001Y-87554909D01*
X64140001Y-88225997D01*
X62041555Y-90324444D01*
X61993974Y-90276863D01*
X61824456Y-90163595D01*
X61636098Y-90085574D01*
X61436139Y-90045800D01*
X61374002Y-90045800D01*
X57905004Y-86576803D01*
X57881201Y-86547799D01*
X57765476Y-86452826D01*
X57633447Y-86382254D01*
X57490186Y-86338797D01*
X57378533Y-86327800D01*
X57378522Y-86327800D01*
X57341200Y-86324124D01*
X57303878Y-86327800D01*
X49329533Y-86327800D01*
X49292200Y-86324123D01*
X49254867Y-86327800D01*
X49151000Y-86338030D01*
X49151000Y-85297174D01*
X49176756Y-85286505D01*
X49346274Y-85173237D01*
X49490437Y-85029074D01*
X49603705Y-84859556D01*
X49681726Y-84671198D01*
X49721500Y-84471239D01*
X49721500Y-84267361D01*
X49681726Y-84067402D01*
X49603705Y-83879044D01*
X49490437Y-83709526D01*
X49346274Y-83565363D01*
X49176756Y-83452095D01*
X48988398Y-83374074D01*
X48788439Y-83334300D01*
X48584561Y-83334300D01*
X48384602Y-83374074D01*
X48196244Y-83452095D01*
X48026726Y-83565363D01*
X47882563Y-83709526D01*
X47769295Y-83879044D01*
X47691274Y-84067402D01*
X47651500Y-84267361D01*
X47651500Y-84471239D01*
X47653092Y-84479242D01*
X47641998Y-84515814D01*
X47640814Y-84527832D01*
X47627324Y-84664800D01*
X47631001Y-84702132D01*
X47631000Y-87615999D01*
X45934004Y-85919003D01*
X45910201Y-85889999D01*
X45794476Y-85795026D01*
X45662447Y-85724454D01*
X45519186Y-85680997D01*
X45407533Y-85670000D01*
X45407522Y-85670000D01*
X45370200Y-85666324D01*
X45332878Y-85670000D01*
X33078178Y-85670000D01*
X32953475Y-85483368D01*
X32746632Y-85276525D01*
X32564466Y-85154805D01*
X32681355Y-85085178D01*
X32897588Y-84890269D01*
X33071641Y-84656920D01*
X33196825Y-84394099D01*
X33241476Y-84246890D01*
X33120155Y-84017000D01*
X31927000Y-84017000D01*
X31927000Y-84037000D01*
X31673000Y-84037000D01*
X31673000Y-84017000D01*
X30479845Y-84017000D01*
X30358524Y-84246890D01*
X30403175Y-84394099D01*
X30528359Y-84656920D01*
X30702412Y-84890269D01*
X30918645Y-85085178D01*
X31035534Y-85154805D01*
X30853368Y-85276525D01*
X30646525Y-85483368D01*
X30484010Y-85726589D01*
X30372068Y-85996842D01*
X30315000Y-86283740D01*
X30315000Y-86576260D01*
X30372068Y-86863158D01*
X30484010Y-87133411D01*
X30646525Y-87376632D01*
X30853368Y-87583475D01*
X31027760Y-87700000D01*
X30853368Y-87816525D01*
X30646525Y-88023368D01*
X30484010Y-88266589D01*
X30481925Y-88271623D01*
X29361270Y-87150969D01*
X29369987Y-87142252D01*
X29548918Y-86874463D01*
X29672168Y-86576912D01*
X29735000Y-86261033D01*
X29735000Y-85938967D01*
X29672168Y-85623088D01*
X29548918Y-85325537D01*
X29369987Y-85057748D01*
X29142252Y-84830013D01*
X28874463Y-84651082D01*
X28576912Y-84527832D01*
X28261033Y-84465000D01*
X27938967Y-84465000D01*
X27623088Y-84527832D01*
X27325537Y-84651082D01*
X27057748Y-84830013D01*
X26830013Y-85057748D01*
X26651082Y-85325537D01*
X26645091Y-85340000D01*
X23054909Y-85340000D01*
X23048918Y-85325537D01*
X22869987Y-85057748D01*
X22642252Y-84830013D01*
X22374463Y-84651082D01*
X22076912Y-84527832D01*
X21761033Y-84465000D01*
X21438967Y-84465000D01*
X21123088Y-84527832D01*
X20825537Y-84651082D01*
X20660000Y-84761690D01*
X20660000Y-82779058D01*
X20739956Y-82999814D01*
X21029571Y-83140704D01*
X21341108Y-83222384D01*
X21662595Y-83241718D01*
X21981675Y-83197961D01*
X22286088Y-83092795D01*
X22460044Y-82999814D01*
X22555808Y-82735413D01*
X27144192Y-82735413D01*
X27239956Y-82999814D01*
X27529571Y-83140704D01*
X27841108Y-83222384D01*
X28162595Y-83241718D01*
X28481675Y-83197961D01*
X28786088Y-83092795D01*
X28960044Y-82999814D01*
X29055808Y-82735413D01*
X28100000Y-81779605D01*
X27144192Y-82735413D01*
X22555808Y-82735413D01*
X21600000Y-81779605D01*
X21585858Y-81793748D01*
X21406253Y-81614143D01*
X21420395Y-81600000D01*
X21406253Y-81585858D01*
X21585858Y-81406253D01*
X21600000Y-81420395D01*
X21614143Y-81406253D01*
X21793748Y-81585858D01*
X21779605Y-81600000D01*
X22735413Y-82555808D01*
X22999814Y-82460044D01*
X23140704Y-82170429D01*
X23222384Y-81858892D01*
X23241718Y-81537405D01*
X23197961Y-81218325D01*
X23092795Y-80913912D01*
X22999814Y-80739956D01*
X22779058Y-80660000D01*
X26920942Y-80660000D01*
X26700186Y-80739956D01*
G37*
X26700186Y-80739956D02*
X26559296Y-81029571D01*
X26477616Y-81341108D01*
X26458282Y-81662595D01*
X26502039Y-81981675D01*
X26607205Y-82286088D01*
X26700186Y-82460044D01*
X26964587Y-82555808D01*
X27920395Y-81600000D01*
X27906253Y-81585858D01*
X28085858Y-81406253D01*
X28100000Y-81420395D01*
X28114143Y-81406253D01*
X28293748Y-81585858D01*
X28279605Y-81600000D01*
X29235413Y-82555808D01*
X29499814Y-82460044D01*
X29640704Y-82170429D01*
X29722384Y-81858892D01*
X29741718Y-81537405D01*
X29697961Y-81218325D01*
X29592795Y-80913912D01*
X29499814Y-80739956D01*
X29279058Y-80660000D01*
X30478455Y-80660000D01*
X30372068Y-80916842D01*
X30315000Y-81203740D01*
X30315000Y-81496260D01*
X30372068Y-81783158D01*
X30484010Y-82053411D01*
X30646525Y-82296632D01*
X30853368Y-82503475D01*
X31035534Y-82625195D01*
X30918645Y-82694822D01*
X30702412Y-82889731D01*
X30528359Y-83123080D01*
X30403175Y-83385901D01*
X30358524Y-83533110D01*
X30479845Y-83763000D01*
X31673000Y-83763000D01*
X31673000Y-83743000D01*
X31927000Y-83743000D01*
X31927000Y-83763000D01*
X33120155Y-83763000D01*
X33241476Y-83533110D01*
X33196825Y-83385901D01*
X33071641Y-83123080D01*
X32897588Y-82889731D01*
X32726387Y-82735413D01*
X63944192Y-82735413D01*
X64039956Y-82999814D01*
X64329571Y-83140704D01*
X64641108Y-83222384D01*
X64962595Y-83241718D01*
X65281675Y-83197961D01*
X65586088Y-83092795D01*
X65760044Y-82999814D01*
X65855808Y-82735413D01*
X64900000Y-81779605D01*
X63944192Y-82735413D01*
X32726387Y-82735413D01*
X32681355Y-82694822D01*
X32564466Y-82625195D01*
X32746632Y-82503475D01*
X32953475Y-82296632D01*
X33115990Y-82053411D01*
X33227932Y-81783158D01*
X33285000Y-81496260D01*
X33285000Y-81203740D01*
X33227932Y-80916842D01*
X33121545Y-80660000D01*
X63720942Y-80660000D01*
X63500186Y-80739956D01*
X63359296Y-81029571D01*
X63277616Y-81341108D01*
X63258282Y-81662595D01*
X63302039Y-81981675D01*
X63407205Y-82286088D01*
X63500186Y-82460044D01*
X63764587Y-82555808D01*
X64720395Y-81600000D01*
X64706253Y-81585858D01*
X64885858Y-81406253D01*
X64900000Y-81420395D01*
X64914143Y-81406253D01*
X65093748Y-81585858D01*
X65079605Y-81600000D01*
X66035413Y-82555808D01*
X66299814Y-82460044D01*
X66440704Y-82170429D01*
X66522384Y-81858892D01*
X66541718Y-81537405D01*
X66497961Y-81218325D01*
X66392795Y-80913912D01*
X66299814Y-80739956D01*
X66079058Y-80660000D01*
X70220942Y-80660000D01*
X70000186Y-80739956D01*
X69859296Y-81029571D01*
X69777616Y-81341108D01*
X69758282Y-81662595D01*
X69802039Y-81981675D01*
X69907205Y-82286088D01*
X70000186Y-82460044D01*
X70264587Y-82555808D01*
X71220395Y-81600000D01*
X71206253Y-81585858D01*
X71385858Y-81406253D01*
X71400000Y-81420395D01*
X71414143Y-81406253D01*
X71593748Y-81585858D01*
X71579605Y-81600000D01*
X71593748Y-81614143D01*
X71414143Y-81793748D01*
X71400000Y-81779605D01*
X70444192Y-82735413D01*
X70539956Y-82999814D01*
X70829571Y-83140704D01*
X71141108Y-83222384D01*
X71462595Y-83241718D01*
X71781675Y-83197961D01*
X72086088Y-83092795D01*
X72260044Y-82999814D01*
X72340000Y-82779058D01*
X72340000Y-84761690D01*
X72174463Y-84651082D01*
X71876912Y-84527832D01*
X71561033Y-84465000D01*
X71238967Y-84465000D01*
X70923088Y-84527832D01*
X70625537Y-84651082D01*
X70357748Y-84830013D01*
X70130013Y-85057748D01*
X69951082Y-85325537D01*
X69945091Y-85340000D01*
X66354909Y-85340000D01*
X66348918Y-85325537D01*
X66169987Y-85057748D01*
X65942252Y-84830013D01*
X65674463Y-84651082D01*
X65376912Y-84527832D01*
X65061033Y-84465000D01*
X64738967Y-84465000D01*
X64423088Y-84527832D01*
X64125537Y-84651082D01*
X63857748Y-84830013D01*
X63630013Y-85057748D01*
X63451082Y-85325537D01*
X63327832Y-85623088D01*
X63265000Y-85938967D01*
X63265000Y-86261033D01*
X63327832Y-86576912D01*
X63451082Y-86874463D01*
X63630013Y-87142252D01*
X63857748Y-87369987D01*
X64125537Y-87548918D01*
X64140001Y-87554909D01*
X64140001Y-88225997D01*
X62041555Y-90324444D01*
X61993974Y-90276863D01*
X61824456Y-90163595D01*
X61636098Y-90085574D01*
X61436139Y-90045800D01*
X61374002Y-90045800D01*
X57905004Y-86576803D01*
X57881201Y-86547799D01*
X57765476Y-86452826D01*
X57633447Y-86382254D01*
X57490186Y-86338797D01*
X57378533Y-86327800D01*
X57378522Y-86327800D01*
X57341200Y-86324124D01*
X57303878Y-86327800D01*
X49329533Y-86327800D01*
X49292200Y-86324123D01*
X49254867Y-86327800D01*
X49151000Y-86338030D01*
X49151000Y-85297174D01*
X49176756Y-85286505D01*
X49346274Y-85173237D01*
X49490437Y-85029074D01*
X49603705Y-84859556D01*
X49681726Y-84671198D01*
X49721500Y-84471239D01*
X49721500Y-84267361D01*
X49681726Y-84067402D01*
X49603705Y-83879044D01*
X49490437Y-83709526D01*
X49346274Y-83565363D01*
X49176756Y-83452095D01*
X48988398Y-83374074D01*
X48788439Y-83334300D01*
X48584561Y-83334300D01*
X48384602Y-83374074D01*
X48196244Y-83452095D01*
X48026726Y-83565363D01*
X47882563Y-83709526D01*
X47769295Y-83879044D01*
X47691274Y-84067402D01*
X47651500Y-84267361D01*
X47651500Y-84471239D01*
X47653092Y-84479242D01*
X47641998Y-84515814D01*
X47640814Y-84527832D01*
X47627324Y-84664800D01*
X47631001Y-84702132D01*
X47631000Y-87615999D01*
X45934004Y-85919003D01*
X45910201Y-85889999D01*
X45794476Y-85795026D01*
X45662447Y-85724454D01*
X45519186Y-85680997D01*
X45407533Y-85670000D01*
X45407522Y-85670000D01*
X45370200Y-85666324D01*
X45332878Y-85670000D01*
X33078178Y-85670000D01*
X32953475Y-85483368D01*
X32746632Y-85276525D01*
X32564466Y-85154805D01*
X32681355Y-85085178D01*
X32897588Y-84890269D01*
X33071641Y-84656920D01*
X33196825Y-84394099D01*
X33241476Y-84246890D01*
X33120155Y-84017000D01*
X31927000Y-84017000D01*
X31927000Y-84037000D01*
X31673000Y-84037000D01*
X31673000Y-84017000D01*
X30479845Y-84017000D01*
X30358524Y-84246890D01*
X30403175Y-84394099D01*
X30528359Y-84656920D01*
X30702412Y-84890269D01*
X30918645Y-85085178D01*
X31035534Y-85154805D01*
X30853368Y-85276525D01*
X30646525Y-85483368D01*
X30484010Y-85726589D01*
X30372068Y-85996842D01*
X30315000Y-86283740D01*
X30315000Y-86576260D01*
X30372068Y-86863158D01*
X30484010Y-87133411D01*
X30646525Y-87376632D01*
X30853368Y-87583475D01*
X31027760Y-87700000D01*
X30853368Y-87816525D01*
X30646525Y-88023368D01*
X30484010Y-88266589D01*
X30481925Y-88271623D01*
X29361270Y-87150969D01*
X29369987Y-87142252D01*
X29548918Y-86874463D01*
X29672168Y-86576912D01*
X29735000Y-86261033D01*
X29735000Y-85938967D01*
X29672168Y-85623088D01*
X29548918Y-85325537D01*
X29369987Y-85057748D01*
X29142252Y-84830013D01*
X28874463Y-84651082D01*
X28576912Y-84527832D01*
X28261033Y-84465000D01*
X27938967Y-84465000D01*
X27623088Y-84527832D01*
X27325537Y-84651082D01*
X27057748Y-84830013D01*
X26830013Y-85057748D01*
X26651082Y-85325537D01*
X26645091Y-85340000D01*
X23054909Y-85340000D01*
X23048918Y-85325537D01*
X22869987Y-85057748D01*
X22642252Y-84830013D01*
X22374463Y-84651082D01*
X22076912Y-84527832D01*
X21761033Y-84465000D01*
X21438967Y-84465000D01*
X21123088Y-84527832D01*
X20825537Y-84651082D01*
X20660000Y-84761690D01*
X20660000Y-82779058D01*
X20739956Y-82999814D01*
X21029571Y-83140704D01*
X21341108Y-83222384D01*
X21662595Y-83241718D01*
X21981675Y-83197961D01*
X22286088Y-83092795D01*
X22460044Y-82999814D01*
X22555808Y-82735413D01*
X27144192Y-82735413D01*
X27239956Y-82999814D01*
X27529571Y-83140704D01*
X27841108Y-83222384D01*
X28162595Y-83241718D01*
X28481675Y-83197961D01*
X28786088Y-83092795D01*
X28960044Y-82999814D01*
X29055808Y-82735413D01*
X28100000Y-81779605D01*
X27144192Y-82735413D01*
X22555808Y-82735413D01*
X21600000Y-81779605D01*
X21585858Y-81793748D01*
X21406253Y-81614143D01*
X21420395Y-81600000D01*
X21406253Y-81585858D01*
X21585858Y-81406253D01*
X21600000Y-81420395D01*
X21614143Y-81406253D01*
X21793748Y-81585858D01*
X21779605Y-81600000D01*
X22735413Y-82555808D01*
X22999814Y-82460044D01*
X23140704Y-82170429D01*
X23222384Y-81858892D01*
X23241718Y-81537405D01*
X23197961Y-81218325D01*
X23092795Y-80913912D01*
X22999814Y-80739956D01*
X22779058Y-80660000D01*
X26920942Y-80660000D01*
X26700186Y-80739956D01*
M02*
