G04 #@! TF.GenerationSoftware,KiCad,Pcbnew,(5.1.5-0-10_14)*
G04 #@! TF.CreationDate,2020-08-15T12:56:05+02:00*
G04 #@! TF.ProjectId,HB-RC-4-Dis-TH,48422d52-432d-4342-9d44-69732d54482e,rev?*
G04 #@! TF.SameCoordinates,Original*
G04 #@! TF.FileFunction,Soldermask,Top*
G04 #@! TF.FilePolarity,Negative*
%FSLAX46Y46*%
G04 Gerber Fmt 4.6, Leading zero omitted, Abs format (unit mm)*
G04 Created by KiCad (PCBNEW (5.1.5-0-10_14)) date 2020-08-15 12:56:05*
%MOMM*%
%LPD*%
G04 APERTURE LIST*
%ADD10C,0.100000*%
G04 APERTURE END LIST*
D10*
G36*
X71706564Y-130389389D02*
G01*
X71897833Y-130468615D01*
X71897835Y-130468616D01*
X72069973Y-130583635D01*
X72216365Y-130730027D01*
X72331385Y-130902167D01*
X72410611Y-131093436D01*
X72451000Y-131296484D01*
X72451000Y-131503516D01*
X72410611Y-131706564D01*
X72365130Y-131816365D01*
X72331384Y-131897835D01*
X72216365Y-132069973D01*
X72069973Y-132216365D01*
X71897835Y-132331384D01*
X71897834Y-132331385D01*
X71897833Y-132331385D01*
X71706564Y-132410611D01*
X71503516Y-132451000D01*
X71296484Y-132451000D01*
X71093436Y-132410611D01*
X70902167Y-132331385D01*
X70902166Y-132331385D01*
X70902165Y-132331384D01*
X70730027Y-132216365D01*
X70583635Y-132069973D01*
X70468616Y-131897835D01*
X70434870Y-131816365D01*
X70389389Y-131706564D01*
X70349000Y-131503516D01*
X70349000Y-131296484D01*
X70389389Y-131093436D01*
X70468615Y-130902167D01*
X70583635Y-130730027D01*
X70730027Y-130583635D01*
X70902165Y-130468616D01*
X70902167Y-130468615D01*
X71093436Y-130389389D01*
X71296484Y-130349000D01*
X71503516Y-130349000D01*
X71706564Y-130389389D01*
G37*
G36*
X65206564Y-130389389D02*
G01*
X65397833Y-130468615D01*
X65397835Y-130468616D01*
X65569973Y-130583635D01*
X65716365Y-130730027D01*
X65831385Y-130902167D01*
X65910611Y-131093436D01*
X65951000Y-131296484D01*
X65951000Y-131503516D01*
X65910611Y-131706564D01*
X65865130Y-131816365D01*
X65831384Y-131897835D01*
X65716365Y-132069973D01*
X65569973Y-132216365D01*
X65397835Y-132331384D01*
X65397834Y-132331385D01*
X65397833Y-132331385D01*
X65206564Y-132410611D01*
X65003516Y-132451000D01*
X64796484Y-132451000D01*
X64593436Y-132410611D01*
X64402167Y-132331385D01*
X64402166Y-132331385D01*
X64402165Y-132331384D01*
X64230027Y-132216365D01*
X64083635Y-132069973D01*
X63968616Y-131897835D01*
X63934870Y-131816365D01*
X63889389Y-131706564D01*
X63849000Y-131503516D01*
X63849000Y-131296484D01*
X63889389Y-131093436D01*
X63968615Y-130902167D01*
X64083635Y-130730027D01*
X64230027Y-130583635D01*
X64402165Y-130468616D01*
X64402167Y-130468615D01*
X64593436Y-130389389D01*
X64796484Y-130349000D01*
X65003516Y-130349000D01*
X65206564Y-130389389D01*
G37*
G36*
X28406564Y-130389389D02*
G01*
X28597833Y-130468615D01*
X28597835Y-130468616D01*
X28769973Y-130583635D01*
X28916365Y-130730027D01*
X29031385Y-130902167D01*
X29110611Y-131093436D01*
X29151000Y-131296484D01*
X29151000Y-131503516D01*
X29110611Y-131706564D01*
X29065130Y-131816365D01*
X29031384Y-131897835D01*
X28916365Y-132069973D01*
X28769973Y-132216365D01*
X28597835Y-132331384D01*
X28597834Y-132331385D01*
X28597833Y-132331385D01*
X28406564Y-132410611D01*
X28203516Y-132451000D01*
X27996484Y-132451000D01*
X27793436Y-132410611D01*
X27602167Y-132331385D01*
X27602166Y-132331385D01*
X27602165Y-132331384D01*
X27430027Y-132216365D01*
X27283635Y-132069973D01*
X27168616Y-131897835D01*
X27134870Y-131816365D01*
X27089389Y-131706564D01*
X27049000Y-131503516D01*
X27049000Y-131296484D01*
X27089389Y-131093436D01*
X27168615Y-130902167D01*
X27283635Y-130730027D01*
X27430027Y-130583635D01*
X27602165Y-130468616D01*
X27602167Y-130468615D01*
X27793436Y-130389389D01*
X27996484Y-130349000D01*
X28203516Y-130349000D01*
X28406564Y-130389389D01*
G37*
G36*
X21906564Y-130389389D02*
G01*
X22097833Y-130468615D01*
X22097835Y-130468616D01*
X22269973Y-130583635D01*
X22416365Y-130730027D01*
X22531385Y-130902167D01*
X22610611Y-131093436D01*
X22651000Y-131296484D01*
X22651000Y-131503516D01*
X22610611Y-131706564D01*
X22565130Y-131816365D01*
X22531384Y-131897835D01*
X22416365Y-132069973D01*
X22269973Y-132216365D01*
X22097835Y-132331384D01*
X22097834Y-132331385D01*
X22097833Y-132331385D01*
X21906564Y-132410611D01*
X21703516Y-132451000D01*
X21496484Y-132451000D01*
X21293436Y-132410611D01*
X21102167Y-132331385D01*
X21102166Y-132331385D01*
X21102165Y-132331384D01*
X20930027Y-132216365D01*
X20783635Y-132069973D01*
X20668616Y-131897835D01*
X20634870Y-131816365D01*
X20589389Y-131706564D01*
X20549000Y-131503516D01*
X20549000Y-131296484D01*
X20589389Y-131093436D01*
X20668615Y-130902167D01*
X20783635Y-130730027D01*
X20930027Y-130583635D01*
X21102165Y-130468616D01*
X21102167Y-130468615D01*
X21293436Y-130389389D01*
X21496484Y-130349000D01*
X21703516Y-130349000D01*
X21906564Y-130389389D01*
G37*
G36*
X48806564Y-129989389D02*
G01*
X48997833Y-130068615D01*
X48997835Y-130068616D01*
X49169973Y-130183635D01*
X49316365Y-130330027D01*
X49408967Y-130468615D01*
X49431385Y-130502167D01*
X49510611Y-130693436D01*
X49551000Y-130896484D01*
X49551000Y-131103516D01*
X49510611Y-131306564D01*
X49431385Y-131497833D01*
X49431384Y-131497835D01*
X49316365Y-131669973D01*
X49169973Y-131816365D01*
X48997835Y-131931384D01*
X48997834Y-131931385D01*
X48997833Y-131931385D01*
X48806564Y-132010611D01*
X48603516Y-132051000D01*
X48396484Y-132051000D01*
X48193436Y-132010611D01*
X48002167Y-131931385D01*
X48002166Y-131931385D01*
X48002165Y-131931384D01*
X47830027Y-131816365D01*
X47683635Y-131669973D01*
X47568616Y-131497835D01*
X47568615Y-131497833D01*
X47489389Y-131306564D01*
X47449000Y-131103516D01*
X47449000Y-130896484D01*
X47489389Y-130693436D01*
X47568615Y-130502167D01*
X47591034Y-130468615D01*
X47683635Y-130330027D01*
X47830027Y-130183635D01*
X48002165Y-130068616D01*
X48002167Y-130068615D01*
X48193436Y-129989389D01*
X48396484Y-129949000D01*
X48603516Y-129949000D01*
X48806564Y-129989389D01*
G37*
G36*
X44306564Y-129989389D02*
G01*
X44497833Y-130068615D01*
X44497835Y-130068616D01*
X44669973Y-130183635D01*
X44816365Y-130330027D01*
X44908967Y-130468615D01*
X44931385Y-130502167D01*
X45010611Y-130693436D01*
X45051000Y-130896484D01*
X45051000Y-131103516D01*
X45010611Y-131306564D01*
X44931385Y-131497833D01*
X44931384Y-131497835D01*
X44816365Y-131669973D01*
X44669973Y-131816365D01*
X44497835Y-131931384D01*
X44497834Y-131931385D01*
X44497833Y-131931385D01*
X44306564Y-132010611D01*
X44103516Y-132051000D01*
X43896484Y-132051000D01*
X43693436Y-132010611D01*
X43502167Y-131931385D01*
X43502166Y-131931385D01*
X43502165Y-131931384D01*
X43330027Y-131816365D01*
X43183635Y-131669973D01*
X43068616Y-131497835D01*
X43068615Y-131497833D01*
X42989389Y-131306564D01*
X42949000Y-131103516D01*
X42949000Y-130896484D01*
X42989389Y-130693436D01*
X43068615Y-130502167D01*
X43091034Y-130468615D01*
X43183635Y-130330027D01*
X43330027Y-130183635D01*
X43502165Y-130068616D01*
X43502167Y-130068615D01*
X43693436Y-129989389D01*
X43896484Y-129949000D01*
X44103516Y-129949000D01*
X44306564Y-129989389D01*
G37*
G36*
X42088674Y-128003465D02*
G01*
X42126367Y-128014899D01*
X42161103Y-128033466D01*
X42191548Y-128058452D01*
X42216534Y-128088897D01*
X42235101Y-128123633D01*
X42246535Y-128161326D01*
X42251000Y-128206661D01*
X42251000Y-129043339D01*
X42246535Y-129088674D01*
X42235101Y-129126367D01*
X42216534Y-129161103D01*
X42191548Y-129191548D01*
X42161103Y-129216534D01*
X42126367Y-129235101D01*
X42088674Y-129246535D01*
X42043339Y-129251000D01*
X40956661Y-129251000D01*
X40911326Y-129246535D01*
X40873633Y-129235101D01*
X40838897Y-129216534D01*
X40808452Y-129191548D01*
X40783466Y-129161103D01*
X40764899Y-129126367D01*
X40753465Y-129088674D01*
X40749000Y-129043339D01*
X40749000Y-128206661D01*
X40753465Y-128161326D01*
X40764899Y-128123633D01*
X40783466Y-128088897D01*
X40808452Y-128058452D01*
X40838897Y-128033466D01*
X40873633Y-128014899D01*
X40911326Y-128003465D01*
X40956661Y-127999000D01*
X42043339Y-127999000D01*
X42088674Y-128003465D01*
G37*
G36*
X51588674Y-128003465D02*
G01*
X51626367Y-128014899D01*
X51661103Y-128033466D01*
X51691548Y-128058452D01*
X51716534Y-128088897D01*
X51735101Y-128123633D01*
X51746535Y-128161326D01*
X51751000Y-128206661D01*
X51751000Y-129043339D01*
X51746535Y-129088674D01*
X51735101Y-129126367D01*
X51716534Y-129161103D01*
X51691548Y-129191548D01*
X51661103Y-129216534D01*
X51626367Y-129235101D01*
X51588674Y-129246535D01*
X51543339Y-129251000D01*
X50456661Y-129251000D01*
X50411326Y-129246535D01*
X50373633Y-129235101D01*
X50338897Y-129216534D01*
X50308452Y-129191548D01*
X50283466Y-129161103D01*
X50264899Y-129126367D01*
X50253465Y-129088674D01*
X50249000Y-129043339D01*
X50249000Y-128206661D01*
X50253465Y-128161326D01*
X50264899Y-128123633D01*
X50283466Y-128088897D01*
X50308452Y-128058452D01*
X50338897Y-128033466D01*
X50373633Y-128014899D01*
X50411326Y-128003465D01*
X50456661Y-127999000D01*
X51543339Y-127999000D01*
X51588674Y-128003465D01*
G37*
G36*
X21906564Y-125889389D02*
G01*
X22097833Y-125968615D01*
X22097835Y-125968616D01*
X22187784Y-126028718D01*
X22269973Y-126083635D01*
X22416365Y-126230027D01*
X22531385Y-126402167D01*
X22610611Y-126593436D01*
X22651000Y-126796484D01*
X22651000Y-127003516D01*
X22610611Y-127206564D01*
X22531385Y-127397833D01*
X22531384Y-127397835D01*
X22416365Y-127569973D01*
X22269973Y-127716365D01*
X22097835Y-127831384D01*
X22097834Y-127831385D01*
X22097833Y-127831385D01*
X21906564Y-127910611D01*
X21703516Y-127951000D01*
X21496484Y-127951000D01*
X21293436Y-127910611D01*
X21102167Y-127831385D01*
X21102166Y-127831385D01*
X21102165Y-127831384D01*
X20930027Y-127716365D01*
X20783635Y-127569973D01*
X20668616Y-127397835D01*
X20668615Y-127397833D01*
X20589389Y-127206564D01*
X20549000Y-127003516D01*
X20549000Y-126796484D01*
X20589389Y-126593436D01*
X20668615Y-126402167D01*
X20783635Y-126230027D01*
X20930027Y-126083635D01*
X21012216Y-126028718D01*
X21102165Y-125968616D01*
X21102167Y-125968615D01*
X21293436Y-125889389D01*
X21496484Y-125849000D01*
X21703516Y-125849000D01*
X21906564Y-125889389D01*
G37*
G36*
X28406564Y-125889389D02*
G01*
X28597833Y-125968615D01*
X28597835Y-125968616D01*
X28687784Y-126028718D01*
X28769973Y-126083635D01*
X28916365Y-126230027D01*
X29031385Y-126402167D01*
X29110611Y-126593436D01*
X29151000Y-126796484D01*
X29151000Y-127003516D01*
X29110611Y-127206564D01*
X29031385Y-127397833D01*
X29031384Y-127397835D01*
X28916365Y-127569973D01*
X28769973Y-127716365D01*
X28597835Y-127831384D01*
X28597834Y-127831385D01*
X28597833Y-127831385D01*
X28406564Y-127910611D01*
X28203516Y-127951000D01*
X27996484Y-127951000D01*
X27793436Y-127910611D01*
X27602167Y-127831385D01*
X27602166Y-127831385D01*
X27602165Y-127831384D01*
X27430027Y-127716365D01*
X27283635Y-127569973D01*
X27168616Y-127397835D01*
X27168615Y-127397833D01*
X27089389Y-127206564D01*
X27049000Y-127003516D01*
X27049000Y-126796484D01*
X27089389Y-126593436D01*
X27168615Y-126402167D01*
X27283635Y-126230027D01*
X27430027Y-126083635D01*
X27512216Y-126028718D01*
X27602165Y-125968616D01*
X27602167Y-125968615D01*
X27793436Y-125889389D01*
X27996484Y-125849000D01*
X28203516Y-125849000D01*
X28406564Y-125889389D01*
G37*
G36*
X71706564Y-125889389D02*
G01*
X71897833Y-125968615D01*
X71897835Y-125968616D01*
X71987784Y-126028718D01*
X72069973Y-126083635D01*
X72216365Y-126230027D01*
X72331385Y-126402167D01*
X72410611Y-126593436D01*
X72451000Y-126796484D01*
X72451000Y-127003516D01*
X72410611Y-127206564D01*
X72331385Y-127397833D01*
X72331384Y-127397835D01*
X72216365Y-127569973D01*
X72069973Y-127716365D01*
X71897835Y-127831384D01*
X71897834Y-127831385D01*
X71897833Y-127831385D01*
X71706564Y-127910611D01*
X71503516Y-127951000D01*
X71296484Y-127951000D01*
X71093436Y-127910611D01*
X70902167Y-127831385D01*
X70902166Y-127831385D01*
X70902165Y-127831384D01*
X70730027Y-127716365D01*
X70583635Y-127569973D01*
X70468616Y-127397835D01*
X70468615Y-127397833D01*
X70389389Y-127206564D01*
X70349000Y-127003516D01*
X70349000Y-126796484D01*
X70389389Y-126593436D01*
X70468615Y-126402167D01*
X70583635Y-126230027D01*
X70730027Y-126083635D01*
X70812216Y-126028718D01*
X70902165Y-125968616D01*
X70902167Y-125968615D01*
X71093436Y-125889389D01*
X71296484Y-125849000D01*
X71503516Y-125849000D01*
X71706564Y-125889389D01*
G37*
G36*
X65206564Y-125889389D02*
G01*
X65397833Y-125968615D01*
X65397835Y-125968616D01*
X65487784Y-126028718D01*
X65569973Y-126083635D01*
X65716365Y-126230027D01*
X65831385Y-126402167D01*
X65910611Y-126593436D01*
X65951000Y-126796484D01*
X65951000Y-127003516D01*
X65910611Y-127206564D01*
X65831385Y-127397833D01*
X65831384Y-127397835D01*
X65716365Y-127569973D01*
X65569973Y-127716365D01*
X65397835Y-127831384D01*
X65397834Y-127831385D01*
X65397833Y-127831385D01*
X65206564Y-127910611D01*
X65003516Y-127951000D01*
X64796484Y-127951000D01*
X64593436Y-127910611D01*
X64402167Y-127831385D01*
X64402166Y-127831385D01*
X64402165Y-127831384D01*
X64230027Y-127716365D01*
X64083635Y-127569973D01*
X63968616Y-127397835D01*
X63968615Y-127397833D01*
X63889389Y-127206564D01*
X63849000Y-127003516D01*
X63849000Y-126796484D01*
X63889389Y-126593436D01*
X63968615Y-126402167D01*
X64083635Y-126230027D01*
X64230027Y-126083635D01*
X64312216Y-126028718D01*
X64402165Y-125968616D01*
X64402167Y-125968615D01*
X64593436Y-125889389D01*
X64796484Y-125849000D01*
X65003516Y-125849000D01*
X65206564Y-125889389D01*
G37*
G36*
X51588674Y-125953465D02*
G01*
X51626367Y-125964899D01*
X51661103Y-125983466D01*
X51691548Y-126008452D01*
X51716534Y-126038897D01*
X51735101Y-126073633D01*
X51746535Y-126111326D01*
X51751000Y-126156661D01*
X51751000Y-126993339D01*
X51746535Y-127038674D01*
X51735101Y-127076367D01*
X51716534Y-127111103D01*
X51691548Y-127141548D01*
X51661103Y-127166534D01*
X51626367Y-127185101D01*
X51588674Y-127196535D01*
X51543339Y-127201000D01*
X50456661Y-127201000D01*
X50411326Y-127196535D01*
X50373633Y-127185101D01*
X50338897Y-127166534D01*
X50308452Y-127141548D01*
X50283466Y-127111103D01*
X50264899Y-127076367D01*
X50253465Y-127038674D01*
X50249000Y-126993339D01*
X50249000Y-126156661D01*
X50253465Y-126111326D01*
X50264899Y-126073633D01*
X50283466Y-126038897D01*
X50308452Y-126008452D01*
X50338897Y-125983466D01*
X50373633Y-125964899D01*
X50411326Y-125953465D01*
X50456661Y-125949000D01*
X51543339Y-125949000D01*
X51588674Y-125953465D01*
G37*
G36*
X42088674Y-125953465D02*
G01*
X42126367Y-125964899D01*
X42161103Y-125983466D01*
X42191548Y-126008452D01*
X42216534Y-126038897D01*
X42235101Y-126073633D01*
X42246535Y-126111326D01*
X42251000Y-126156661D01*
X42251000Y-126993339D01*
X42246535Y-127038674D01*
X42235101Y-127076367D01*
X42216534Y-127111103D01*
X42191548Y-127141548D01*
X42161103Y-127166534D01*
X42126367Y-127185101D01*
X42088674Y-127196535D01*
X42043339Y-127201000D01*
X40956661Y-127201000D01*
X40911326Y-127196535D01*
X40873633Y-127185101D01*
X40838897Y-127166534D01*
X40808452Y-127141548D01*
X40783466Y-127111103D01*
X40764899Y-127076367D01*
X40753465Y-127038674D01*
X40749000Y-126993339D01*
X40749000Y-126156661D01*
X40753465Y-126111326D01*
X40764899Y-126073633D01*
X40783466Y-126038897D01*
X40808452Y-126008452D01*
X40838897Y-125983466D01*
X40873633Y-125964899D01*
X40911326Y-125953465D01*
X40956661Y-125949000D01*
X42043339Y-125949000D01*
X42088674Y-125953465D01*
G37*
G36*
X44306564Y-123489389D02*
G01*
X44497833Y-123568615D01*
X44497835Y-123568616D01*
X44669973Y-123683635D01*
X44816365Y-123830027D01*
X44931385Y-124002167D01*
X45010611Y-124193436D01*
X45051000Y-124396484D01*
X45051000Y-124603516D01*
X45010611Y-124806564D01*
X44931385Y-124997833D01*
X44931384Y-124997835D01*
X44816365Y-125169973D01*
X44669973Y-125316365D01*
X44497835Y-125431384D01*
X44497834Y-125431385D01*
X44497833Y-125431385D01*
X44306564Y-125510611D01*
X44103516Y-125551000D01*
X43896484Y-125551000D01*
X43693436Y-125510611D01*
X43502167Y-125431385D01*
X43502166Y-125431385D01*
X43502165Y-125431384D01*
X43330027Y-125316365D01*
X43183635Y-125169973D01*
X43068616Y-124997835D01*
X43068615Y-124997833D01*
X42989389Y-124806564D01*
X42949000Y-124603516D01*
X42949000Y-124396484D01*
X42989389Y-124193436D01*
X43068615Y-124002167D01*
X43183635Y-123830027D01*
X43330027Y-123683635D01*
X43502165Y-123568616D01*
X43502167Y-123568615D01*
X43693436Y-123489389D01*
X43896484Y-123449000D01*
X44103516Y-123449000D01*
X44306564Y-123489389D01*
G37*
G36*
X48806564Y-123489389D02*
G01*
X48997833Y-123568615D01*
X48997835Y-123568616D01*
X49169973Y-123683635D01*
X49316365Y-123830027D01*
X49431385Y-124002167D01*
X49510611Y-124193436D01*
X49551000Y-124396484D01*
X49551000Y-124603516D01*
X49510611Y-124806564D01*
X49431385Y-124997833D01*
X49431384Y-124997835D01*
X49316365Y-125169973D01*
X49169973Y-125316365D01*
X48997835Y-125431384D01*
X48997834Y-125431385D01*
X48997833Y-125431385D01*
X48806564Y-125510611D01*
X48603516Y-125551000D01*
X48396484Y-125551000D01*
X48193436Y-125510611D01*
X48002167Y-125431385D01*
X48002166Y-125431385D01*
X48002165Y-125431384D01*
X47830027Y-125316365D01*
X47683635Y-125169973D01*
X47568616Y-124997835D01*
X47568615Y-124997833D01*
X47489389Y-124806564D01*
X47449000Y-124603516D01*
X47449000Y-124396484D01*
X47489389Y-124193436D01*
X47568615Y-124002167D01*
X47683635Y-123830027D01*
X47830027Y-123683635D01*
X48002165Y-123568616D01*
X48002167Y-123568615D01*
X48193436Y-123489389D01*
X48396484Y-123449000D01*
X48603516Y-123449000D01*
X48806564Y-123489389D01*
G37*
G36*
X32173512Y-116903927D02*
G01*
X32322812Y-116933624D01*
X32486784Y-117001544D01*
X32634354Y-117100147D01*
X32759853Y-117225646D01*
X32858456Y-117373216D01*
X32926376Y-117537188D01*
X32961000Y-117711259D01*
X32961000Y-117888741D01*
X32926376Y-118062812D01*
X32858456Y-118226784D01*
X32759853Y-118374354D01*
X32634354Y-118499853D01*
X32486784Y-118598456D01*
X32322812Y-118666376D01*
X32173512Y-118696073D01*
X32148742Y-118701000D01*
X31971258Y-118701000D01*
X31946488Y-118696073D01*
X31797188Y-118666376D01*
X31633216Y-118598456D01*
X31485646Y-118499853D01*
X31360147Y-118374354D01*
X31261544Y-118226784D01*
X31193624Y-118062812D01*
X31159000Y-117888741D01*
X31159000Y-117711259D01*
X31193624Y-117537188D01*
X31261544Y-117373216D01*
X31360147Y-117225646D01*
X31485646Y-117100147D01*
X31633216Y-117001544D01*
X31797188Y-116933624D01*
X31946488Y-116903927D01*
X31971258Y-116899000D01*
X32148742Y-116899000D01*
X32173512Y-116903927D01*
G37*
G36*
X29633512Y-116903927D02*
G01*
X29782812Y-116933624D01*
X29946784Y-117001544D01*
X30094354Y-117100147D01*
X30219853Y-117225646D01*
X30318456Y-117373216D01*
X30386376Y-117537188D01*
X30421000Y-117711259D01*
X30421000Y-117888741D01*
X30386376Y-118062812D01*
X30318456Y-118226784D01*
X30219853Y-118374354D01*
X30094354Y-118499853D01*
X29946784Y-118598456D01*
X29782812Y-118666376D01*
X29633512Y-118696073D01*
X29608742Y-118701000D01*
X29431258Y-118701000D01*
X29406488Y-118696073D01*
X29257188Y-118666376D01*
X29093216Y-118598456D01*
X28945646Y-118499853D01*
X28820147Y-118374354D01*
X28721544Y-118226784D01*
X28653624Y-118062812D01*
X28619000Y-117888741D01*
X28619000Y-117711259D01*
X28653624Y-117537188D01*
X28721544Y-117373216D01*
X28820147Y-117225646D01*
X28945646Y-117100147D01*
X29093216Y-117001544D01*
X29257188Y-116933624D01*
X29406488Y-116903927D01*
X29431258Y-116899000D01*
X29608742Y-116899000D01*
X29633512Y-116903927D01*
G37*
G36*
X27093512Y-116903927D02*
G01*
X27242812Y-116933624D01*
X27406784Y-117001544D01*
X27554354Y-117100147D01*
X27679853Y-117225646D01*
X27778456Y-117373216D01*
X27846376Y-117537188D01*
X27881000Y-117711259D01*
X27881000Y-117888741D01*
X27846376Y-118062812D01*
X27778456Y-118226784D01*
X27679853Y-118374354D01*
X27554354Y-118499853D01*
X27406784Y-118598456D01*
X27242812Y-118666376D01*
X27093512Y-118696073D01*
X27068742Y-118701000D01*
X26891258Y-118701000D01*
X26866488Y-118696073D01*
X26717188Y-118666376D01*
X26553216Y-118598456D01*
X26405646Y-118499853D01*
X26280147Y-118374354D01*
X26181544Y-118226784D01*
X26113624Y-118062812D01*
X26079000Y-117888741D01*
X26079000Y-117711259D01*
X26113624Y-117537188D01*
X26181544Y-117373216D01*
X26280147Y-117225646D01*
X26405646Y-117100147D01*
X26553216Y-117001544D01*
X26717188Y-116933624D01*
X26866488Y-116903927D01*
X26891258Y-116899000D01*
X27068742Y-116899000D01*
X27093512Y-116903927D01*
G37*
G36*
X24553512Y-116903927D02*
G01*
X24702812Y-116933624D01*
X24866784Y-117001544D01*
X25014354Y-117100147D01*
X25139853Y-117225646D01*
X25238456Y-117373216D01*
X25306376Y-117537188D01*
X25341000Y-117711259D01*
X25341000Y-117888741D01*
X25306376Y-118062812D01*
X25238456Y-118226784D01*
X25139853Y-118374354D01*
X25014354Y-118499853D01*
X24866784Y-118598456D01*
X24702812Y-118666376D01*
X24553512Y-118696073D01*
X24528742Y-118701000D01*
X24351258Y-118701000D01*
X24326488Y-118696073D01*
X24177188Y-118666376D01*
X24013216Y-118598456D01*
X23865646Y-118499853D01*
X23740147Y-118374354D01*
X23641544Y-118226784D01*
X23573624Y-118062812D01*
X23539000Y-117888741D01*
X23539000Y-117711259D01*
X23573624Y-117537188D01*
X23641544Y-117373216D01*
X23740147Y-117225646D01*
X23865646Y-117100147D01*
X24013216Y-117001544D01*
X24177188Y-116933624D01*
X24326488Y-116903927D01*
X24351258Y-116899000D01*
X24528742Y-116899000D01*
X24553512Y-116903927D01*
G37*
G36*
X22013512Y-116903927D02*
G01*
X22162812Y-116933624D01*
X22326784Y-117001544D01*
X22474354Y-117100147D01*
X22599853Y-117225646D01*
X22698456Y-117373216D01*
X22766376Y-117537188D01*
X22801000Y-117711259D01*
X22801000Y-117888741D01*
X22766376Y-118062812D01*
X22698456Y-118226784D01*
X22599853Y-118374354D01*
X22474354Y-118499853D01*
X22326784Y-118598456D01*
X22162812Y-118666376D01*
X22013512Y-118696073D01*
X21988742Y-118701000D01*
X21811258Y-118701000D01*
X21786488Y-118696073D01*
X21637188Y-118666376D01*
X21473216Y-118598456D01*
X21325646Y-118499853D01*
X21200147Y-118374354D01*
X21101544Y-118226784D01*
X21033624Y-118062812D01*
X20999000Y-117888741D01*
X20999000Y-117711259D01*
X21033624Y-117537188D01*
X21101544Y-117373216D01*
X21200147Y-117225646D01*
X21325646Y-117100147D01*
X21473216Y-117001544D01*
X21637188Y-116933624D01*
X21786488Y-116903927D01*
X21811258Y-116899000D01*
X21988742Y-116899000D01*
X22013512Y-116903927D01*
G37*
G36*
X35501000Y-118701000D02*
G01*
X33699000Y-118701000D01*
X33699000Y-116899000D01*
X35501000Y-116899000D01*
X35501000Y-118701000D01*
G37*
G36*
X44801000Y-115226000D02*
G01*
X42778494Y-115226000D01*
X42638234Y-115198101D01*
X42506112Y-115143374D01*
X42506111Y-115143374D01*
X42506110Y-115143373D01*
X42387202Y-115063921D01*
X42286079Y-114962798D01*
X42206627Y-114843890D01*
X42206626Y-114843888D01*
X42151899Y-114711766D01*
X42124000Y-114571506D01*
X42124000Y-114428494D01*
X42151899Y-114288234D01*
X42206626Y-114156112D01*
X42286078Y-114037204D01*
X42286079Y-114037202D01*
X42387202Y-113936079D01*
X42506110Y-113856627D01*
X42506112Y-113856626D01*
X42638234Y-113801899D01*
X42778494Y-113774000D01*
X44801000Y-113774000D01*
X44801000Y-115226000D01*
G37*
G36*
X61751000Y-115101000D02*
G01*
X57649000Y-115101000D01*
X57649000Y-113199000D01*
X61751000Y-113199000D01*
X61751000Y-115101000D01*
G37*
G36*
X44801000Y-113226000D02*
G01*
X42778494Y-113226000D01*
X42638234Y-113198101D01*
X42506112Y-113143374D01*
X42506111Y-113143374D01*
X42506110Y-113143373D01*
X42387202Y-113063921D01*
X42286079Y-112962798D01*
X42206627Y-112843890D01*
X42206626Y-112843888D01*
X42151899Y-112711766D01*
X42124000Y-112571506D01*
X42124000Y-112428494D01*
X42151899Y-112288234D01*
X42206626Y-112156112D01*
X42286078Y-112037204D01*
X42286079Y-112037202D01*
X42387202Y-111936079D01*
X42506110Y-111856627D01*
X42506112Y-111856626D01*
X42638234Y-111801899D01*
X42778494Y-111774000D01*
X44801000Y-111774000D01*
X44801000Y-113226000D01*
G37*
G36*
X57151000Y-112451000D02*
G01*
X55749000Y-112451000D01*
X55749000Y-100549000D01*
X57151000Y-100549000D01*
X57151000Y-112451000D01*
G37*
G36*
X44801000Y-111226000D02*
G01*
X42778494Y-111226000D01*
X42638234Y-111198101D01*
X42506112Y-111143374D01*
X42506111Y-111143374D01*
X42506110Y-111143373D01*
X42387202Y-111063921D01*
X42286079Y-110962798D01*
X42206627Y-110843890D01*
X42206626Y-110843888D01*
X42151899Y-110711766D01*
X42124000Y-110571506D01*
X42124000Y-110428494D01*
X42151899Y-110288234D01*
X42206626Y-110156112D01*
X42286078Y-110037204D01*
X42286079Y-110037202D01*
X42387202Y-109936079D01*
X42506110Y-109856627D01*
X42506112Y-109856626D01*
X42638234Y-109801899D01*
X42778494Y-109774000D01*
X44801000Y-109774000D01*
X44801000Y-111226000D01*
G37*
G36*
X44801000Y-109226000D02*
G01*
X42778494Y-109226000D01*
X42638234Y-109198101D01*
X42506112Y-109143374D01*
X42506111Y-109143374D01*
X42506110Y-109143373D01*
X42387202Y-109063921D01*
X42286079Y-108962798D01*
X42206627Y-108843890D01*
X42206626Y-108843888D01*
X42151899Y-108711766D01*
X42124000Y-108571506D01*
X42124000Y-108428494D01*
X42151899Y-108288234D01*
X42206626Y-108156112D01*
X42286078Y-108037204D01*
X42286079Y-108037202D01*
X42387202Y-107936079D01*
X42506110Y-107856627D01*
X42506112Y-107856626D01*
X42638234Y-107801899D01*
X42778494Y-107774000D01*
X44801000Y-107774000D01*
X44801000Y-109226000D01*
G37*
G36*
X44801000Y-107226000D02*
G01*
X42778494Y-107226000D01*
X42638234Y-107198101D01*
X42506112Y-107143374D01*
X42506111Y-107143374D01*
X42506110Y-107143373D01*
X42387202Y-107063921D01*
X42286079Y-106962798D01*
X42206627Y-106843890D01*
X42206626Y-106843888D01*
X42151899Y-106711766D01*
X42124000Y-106571506D01*
X42124000Y-106428494D01*
X42151899Y-106288234D01*
X42206626Y-106156112D01*
X42286078Y-106037204D01*
X42286079Y-106037202D01*
X42387202Y-105936079D01*
X42506110Y-105856627D01*
X42506112Y-105856626D01*
X42638234Y-105801899D01*
X42778494Y-105774000D01*
X44801000Y-105774000D01*
X44801000Y-107226000D01*
G37*
G36*
X44801000Y-105226000D02*
G01*
X42778494Y-105226000D01*
X42638234Y-105198101D01*
X42506112Y-105143374D01*
X42506111Y-105143374D01*
X42506110Y-105143373D01*
X42387202Y-105063921D01*
X42286079Y-104962798D01*
X42206627Y-104843890D01*
X42206626Y-104843888D01*
X42151899Y-104711766D01*
X42124000Y-104571506D01*
X42124000Y-104428494D01*
X42151899Y-104288234D01*
X42206626Y-104156112D01*
X42286078Y-104037204D01*
X42286079Y-104037202D01*
X42387202Y-103936079D01*
X42506110Y-103856627D01*
X42506112Y-103856626D01*
X42638234Y-103801899D01*
X42778494Y-103774000D01*
X44801000Y-103774000D01*
X44801000Y-105226000D01*
G37*
G36*
X44801000Y-103226000D02*
G01*
X42778494Y-103226000D01*
X42638234Y-103198101D01*
X42506112Y-103143374D01*
X42506111Y-103143374D01*
X42506110Y-103143373D01*
X42387202Y-103063921D01*
X42286079Y-102962798D01*
X42206627Y-102843890D01*
X42206626Y-102843888D01*
X42151899Y-102711766D01*
X42124000Y-102571506D01*
X42124000Y-102428494D01*
X42151899Y-102288234D01*
X42206626Y-102156112D01*
X42286078Y-102037204D01*
X42286079Y-102037202D01*
X42387202Y-101936079D01*
X42506110Y-101856627D01*
X42506112Y-101856626D01*
X42638234Y-101801899D01*
X42778494Y-101774000D01*
X44801000Y-101774000D01*
X44801000Y-103226000D01*
G37*
G36*
X44801000Y-101226000D02*
G01*
X42778494Y-101226000D01*
X42638234Y-101198101D01*
X42506112Y-101143374D01*
X42506111Y-101143374D01*
X42506110Y-101143373D01*
X42387202Y-101063921D01*
X42286079Y-100962798D01*
X42206627Y-100843890D01*
X42206626Y-100843888D01*
X42151899Y-100711766D01*
X42124000Y-100571506D01*
X42124000Y-100428494D01*
X42151899Y-100288234D01*
X42206626Y-100156112D01*
X42286078Y-100037204D01*
X42286079Y-100037202D01*
X42387202Y-99936079D01*
X42506110Y-99856627D01*
X42506112Y-99856626D01*
X42638234Y-99801899D01*
X42778494Y-99774000D01*
X44801000Y-99774000D01*
X44801000Y-101226000D01*
G37*
G36*
X61751000Y-99801000D02*
G01*
X57649000Y-99801000D01*
X57649000Y-97899000D01*
X61751000Y-97899000D01*
X61751000Y-99801000D01*
G37*
G36*
X25453512Y-90903927D02*
G01*
X25602812Y-90933624D01*
X25766784Y-91001544D01*
X25914354Y-91100147D01*
X26039853Y-91225646D01*
X26138456Y-91373216D01*
X26206376Y-91537188D01*
X26241000Y-91711259D01*
X26241000Y-91888741D01*
X26206376Y-92062812D01*
X26138456Y-92226784D01*
X26039853Y-92374354D01*
X25914354Y-92499853D01*
X25766784Y-92598456D01*
X25602812Y-92666376D01*
X25453512Y-92696073D01*
X25428742Y-92701000D01*
X25251258Y-92701000D01*
X25226488Y-92696073D01*
X25077188Y-92666376D01*
X24913216Y-92598456D01*
X24765646Y-92499853D01*
X24640147Y-92374354D01*
X24541544Y-92226784D01*
X24473624Y-92062812D01*
X24439000Y-91888741D01*
X24439000Y-91711259D01*
X24473624Y-91537188D01*
X24541544Y-91373216D01*
X24640147Y-91225646D01*
X24765646Y-91100147D01*
X24913216Y-91001544D01*
X25077188Y-90933624D01*
X25226488Y-90903927D01*
X25251258Y-90899000D01*
X25428742Y-90899000D01*
X25453512Y-90903927D01*
G37*
G36*
X23701000Y-92701000D02*
G01*
X21899000Y-92701000D01*
X21899000Y-90899000D01*
X23701000Y-90899000D01*
X23701000Y-92701000D01*
G37*
G36*
X31913512Y-88073927D02*
G01*
X32062812Y-88103624D01*
X32226784Y-88171544D01*
X32374354Y-88270147D01*
X32499853Y-88395646D01*
X32598456Y-88543216D01*
X32666376Y-88707188D01*
X32701000Y-88881259D01*
X32701000Y-89058741D01*
X32666376Y-89232812D01*
X32598456Y-89396784D01*
X32499853Y-89544354D01*
X32374354Y-89669853D01*
X32226784Y-89768456D01*
X32062812Y-89836376D01*
X31913512Y-89866073D01*
X31888742Y-89871000D01*
X31711258Y-89871000D01*
X31686488Y-89866073D01*
X31537188Y-89836376D01*
X31373216Y-89768456D01*
X31225646Y-89669853D01*
X31100147Y-89544354D01*
X31001544Y-89396784D01*
X30933624Y-89232812D01*
X30899000Y-89058741D01*
X30899000Y-88881259D01*
X30933624Y-88707188D01*
X31001544Y-88543216D01*
X31100147Y-88395646D01*
X31225646Y-88270147D01*
X31373216Y-88171544D01*
X31537188Y-88103624D01*
X31686488Y-88073927D01*
X31711258Y-88069000D01*
X31888742Y-88069000D01*
X31913512Y-88073927D01*
G37*
G36*
X31913512Y-85533927D02*
G01*
X32062812Y-85563624D01*
X32226784Y-85631544D01*
X32374354Y-85730147D01*
X32499853Y-85855646D01*
X32598456Y-86003216D01*
X32666376Y-86167188D01*
X32701000Y-86341259D01*
X32701000Y-86518741D01*
X32666376Y-86692812D01*
X32598456Y-86856784D01*
X32499853Y-87004354D01*
X32374354Y-87129853D01*
X32226784Y-87228456D01*
X32062812Y-87296376D01*
X31913512Y-87326073D01*
X31888742Y-87331000D01*
X31711258Y-87331000D01*
X31686488Y-87326073D01*
X31537188Y-87296376D01*
X31373216Y-87228456D01*
X31225646Y-87129853D01*
X31100147Y-87004354D01*
X31001544Y-86856784D01*
X30933624Y-86692812D01*
X30899000Y-86518741D01*
X30899000Y-86341259D01*
X30933624Y-86167188D01*
X31001544Y-86003216D01*
X31100147Y-85855646D01*
X31225646Y-85730147D01*
X31373216Y-85631544D01*
X31537188Y-85563624D01*
X31686488Y-85533927D01*
X31711258Y-85529000D01*
X31888742Y-85529000D01*
X31913512Y-85533927D01*
G37*
G36*
X65206564Y-85089389D02*
G01*
X65397833Y-85168615D01*
X65397835Y-85168616D01*
X65569973Y-85283635D01*
X65716365Y-85430027D01*
X65805632Y-85563624D01*
X65831385Y-85602167D01*
X65910611Y-85793436D01*
X65951000Y-85996484D01*
X65951000Y-86203516D01*
X65910611Y-86406564D01*
X65864146Y-86518741D01*
X65831384Y-86597835D01*
X65716365Y-86769973D01*
X65569973Y-86916365D01*
X65397835Y-87031384D01*
X65397834Y-87031385D01*
X65397833Y-87031385D01*
X65206564Y-87110611D01*
X65003516Y-87151000D01*
X64796484Y-87151000D01*
X64593436Y-87110611D01*
X64402167Y-87031385D01*
X64402166Y-87031385D01*
X64402165Y-87031384D01*
X64230027Y-86916365D01*
X64083635Y-86769973D01*
X63968616Y-86597835D01*
X63935854Y-86518741D01*
X63889389Y-86406564D01*
X63849000Y-86203516D01*
X63849000Y-85996484D01*
X63889389Y-85793436D01*
X63968615Y-85602167D01*
X63994369Y-85563624D01*
X64083635Y-85430027D01*
X64230027Y-85283635D01*
X64402165Y-85168616D01*
X64402167Y-85168615D01*
X64593436Y-85089389D01*
X64796484Y-85049000D01*
X65003516Y-85049000D01*
X65206564Y-85089389D01*
G37*
G36*
X71706564Y-85089389D02*
G01*
X71897833Y-85168615D01*
X71897835Y-85168616D01*
X72069973Y-85283635D01*
X72216365Y-85430027D01*
X72305632Y-85563624D01*
X72331385Y-85602167D01*
X72410611Y-85793436D01*
X72451000Y-85996484D01*
X72451000Y-86203516D01*
X72410611Y-86406564D01*
X72364146Y-86518741D01*
X72331384Y-86597835D01*
X72216365Y-86769973D01*
X72069973Y-86916365D01*
X71897835Y-87031384D01*
X71897834Y-87031385D01*
X71897833Y-87031385D01*
X71706564Y-87110611D01*
X71503516Y-87151000D01*
X71296484Y-87151000D01*
X71093436Y-87110611D01*
X70902167Y-87031385D01*
X70902166Y-87031385D01*
X70902165Y-87031384D01*
X70730027Y-86916365D01*
X70583635Y-86769973D01*
X70468616Y-86597835D01*
X70435854Y-86518741D01*
X70389389Y-86406564D01*
X70349000Y-86203516D01*
X70349000Y-85996484D01*
X70389389Y-85793436D01*
X70468615Y-85602167D01*
X70494369Y-85563624D01*
X70583635Y-85430027D01*
X70730027Y-85283635D01*
X70902165Y-85168616D01*
X70902167Y-85168615D01*
X71093436Y-85089389D01*
X71296484Y-85049000D01*
X71503516Y-85049000D01*
X71706564Y-85089389D01*
G37*
G36*
X28406564Y-85089389D02*
G01*
X28597833Y-85168615D01*
X28597835Y-85168616D01*
X28769973Y-85283635D01*
X28916365Y-85430027D01*
X29005632Y-85563624D01*
X29031385Y-85602167D01*
X29110611Y-85793436D01*
X29151000Y-85996484D01*
X29151000Y-86203516D01*
X29110611Y-86406564D01*
X29064146Y-86518741D01*
X29031384Y-86597835D01*
X28916365Y-86769973D01*
X28769973Y-86916365D01*
X28597835Y-87031384D01*
X28597834Y-87031385D01*
X28597833Y-87031385D01*
X28406564Y-87110611D01*
X28203516Y-87151000D01*
X27996484Y-87151000D01*
X27793436Y-87110611D01*
X27602167Y-87031385D01*
X27602166Y-87031385D01*
X27602165Y-87031384D01*
X27430027Y-86916365D01*
X27283635Y-86769973D01*
X27168616Y-86597835D01*
X27135854Y-86518741D01*
X27089389Y-86406564D01*
X27049000Y-86203516D01*
X27049000Y-85996484D01*
X27089389Y-85793436D01*
X27168615Y-85602167D01*
X27194369Y-85563624D01*
X27283635Y-85430027D01*
X27430027Y-85283635D01*
X27602165Y-85168616D01*
X27602167Y-85168615D01*
X27793436Y-85089389D01*
X27996484Y-85049000D01*
X28203516Y-85049000D01*
X28406564Y-85089389D01*
G37*
G36*
X21906564Y-85089389D02*
G01*
X22097833Y-85168615D01*
X22097835Y-85168616D01*
X22269973Y-85283635D01*
X22416365Y-85430027D01*
X22505632Y-85563624D01*
X22531385Y-85602167D01*
X22610611Y-85793436D01*
X22651000Y-85996484D01*
X22651000Y-86203516D01*
X22610611Y-86406564D01*
X22564146Y-86518741D01*
X22531384Y-86597835D01*
X22416365Y-86769973D01*
X22269973Y-86916365D01*
X22097835Y-87031384D01*
X22097834Y-87031385D01*
X22097833Y-87031385D01*
X21906564Y-87110611D01*
X21703516Y-87151000D01*
X21496484Y-87151000D01*
X21293436Y-87110611D01*
X21102167Y-87031385D01*
X21102166Y-87031385D01*
X21102165Y-87031384D01*
X20930027Y-86916365D01*
X20783635Y-86769973D01*
X20668616Y-86597835D01*
X20635854Y-86518741D01*
X20589389Y-86406564D01*
X20549000Y-86203516D01*
X20549000Y-85996484D01*
X20589389Y-85793436D01*
X20668615Y-85602167D01*
X20694369Y-85563624D01*
X20783635Y-85430027D01*
X20930027Y-85283635D01*
X21102165Y-85168616D01*
X21102167Y-85168615D01*
X21293436Y-85089389D01*
X21496484Y-85049000D01*
X21703516Y-85049000D01*
X21906564Y-85089389D01*
G37*
G36*
X31913512Y-82993927D02*
G01*
X32062812Y-83023624D01*
X32226784Y-83091544D01*
X32374354Y-83190147D01*
X32499853Y-83315646D01*
X32598456Y-83463216D01*
X32666376Y-83627188D01*
X32701000Y-83801259D01*
X32701000Y-83978741D01*
X32666376Y-84152812D01*
X32598456Y-84316784D01*
X32499853Y-84464354D01*
X32374354Y-84589853D01*
X32226784Y-84688456D01*
X32062812Y-84756376D01*
X31913512Y-84786073D01*
X31888742Y-84791000D01*
X31711258Y-84791000D01*
X31686488Y-84786073D01*
X31537188Y-84756376D01*
X31373216Y-84688456D01*
X31225646Y-84589853D01*
X31100147Y-84464354D01*
X31001544Y-84316784D01*
X30933624Y-84152812D01*
X30899000Y-83978741D01*
X30899000Y-83801259D01*
X30933624Y-83627188D01*
X31001544Y-83463216D01*
X31100147Y-83315646D01*
X31225646Y-83190147D01*
X31373216Y-83091544D01*
X31537188Y-83023624D01*
X31686488Y-82993927D01*
X31711258Y-82989000D01*
X31888742Y-82989000D01*
X31913512Y-82993927D01*
G37*
G36*
X65206564Y-80589389D02*
G01*
X65397833Y-80668615D01*
X65397835Y-80668616D01*
X65569973Y-80783635D01*
X65716365Y-80930027D01*
X65821377Y-81087188D01*
X65831385Y-81102167D01*
X65910611Y-81293436D01*
X65951000Y-81496484D01*
X65951000Y-81703516D01*
X65910611Y-81906564D01*
X65903242Y-81924354D01*
X65831384Y-82097835D01*
X65716365Y-82269973D01*
X65569973Y-82416365D01*
X65397835Y-82531384D01*
X65397834Y-82531385D01*
X65397833Y-82531385D01*
X65206564Y-82610611D01*
X65003516Y-82651000D01*
X64796484Y-82651000D01*
X64593436Y-82610611D01*
X64402167Y-82531385D01*
X64402166Y-82531385D01*
X64402165Y-82531384D01*
X64230027Y-82416365D01*
X64083635Y-82269973D01*
X63968616Y-82097835D01*
X63896758Y-81924354D01*
X63889389Y-81906564D01*
X63849000Y-81703516D01*
X63849000Y-81496484D01*
X63889389Y-81293436D01*
X63968615Y-81102167D01*
X63978624Y-81087188D01*
X64083635Y-80930027D01*
X64230027Y-80783635D01*
X64402165Y-80668616D01*
X64402167Y-80668615D01*
X64593436Y-80589389D01*
X64796484Y-80549000D01*
X65003516Y-80549000D01*
X65206564Y-80589389D01*
G37*
G36*
X28406564Y-80589389D02*
G01*
X28597833Y-80668615D01*
X28597835Y-80668616D01*
X28769973Y-80783635D01*
X28916365Y-80930027D01*
X29021377Y-81087188D01*
X29031385Y-81102167D01*
X29110611Y-81293436D01*
X29151000Y-81496484D01*
X29151000Y-81703516D01*
X29110611Y-81906564D01*
X29103242Y-81924354D01*
X29031384Y-82097835D01*
X28916365Y-82269973D01*
X28769973Y-82416365D01*
X28597835Y-82531384D01*
X28597834Y-82531385D01*
X28597833Y-82531385D01*
X28406564Y-82610611D01*
X28203516Y-82651000D01*
X27996484Y-82651000D01*
X27793436Y-82610611D01*
X27602167Y-82531385D01*
X27602166Y-82531385D01*
X27602165Y-82531384D01*
X27430027Y-82416365D01*
X27283635Y-82269973D01*
X27168616Y-82097835D01*
X27096758Y-81924354D01*
X27089389Y-81906564D01*
X27049000Y-81703516D01*
X27049000Y-81496484D01*
X27089389Y-81293436D01*
X27168615Y-81102167D01*
X27178624Y-81087188D01*
X27283635Y-80930027D01*
X27430027Y-80783635D01*
X27602165Y-80668616D01*
X27602167Y-80668615D01*
X27793436Y-80589389D01*
X27996484Y-80549000D01*
X28203516Y-80549000D01*
X28406564Y-80589389D01*
G37*
G36*
X21906564Y-80589389D02*
G01*
X22097833Y-80668615D01*
X22097835Y-80668616D01*
X22269973Y-80783635D01*
X22416365Y-80930027D01*
X22521377Y-81087188D01*
X22531385Y-81102167D01*
X22610611Y-81293436D01*
X22651000Y-81496484D01*
X22651000Y-81703516D01*
X22610611Y-81906564D01*
X22603242Y-81924354D01*
X22531384Y-82097835D01*
X22416365Y-82269973D01*
X22269973Y-82416365D01*
X22097835Y-82531384D01*
X22097834Y-82531385D01*
X22097833Y-82531385D01*
X21906564Y-82610611D01*
X21703516Y-82651000D01*
X21496484Y-82651000D01*
X21293436Y-82610611D01*
X21102167Y-82531385D01*
X21102166Y-82531385D01*
X21102165Y-82531384D01*
X20930027Y-82416365D01*
X20783635Y-82269973D01*
X20668616Y-82097835D01*
X20596758Y-81924354D01*
X20589389Y-81906564D01*
X20549000Y-81703516D01*
X20549000Y-81496484D01*
X20589389Y-81293436D01*
X20668615Y-81102167D01*
X20678624Y-81087188D01*
X20783635Y-80930027D01*
X20930027Y-80783635D01*
X21102165Y-80668616D01*
X21102167Y-80668615D01*
X21293436Y-80589389D01*
X21496484Y-80549000D01*
X21703516Y-80549000D01*
X21906564Y-80589389D01*
G37*
G36*
X71706564Y-80589389D02*
G01*
X71897833Y-80668615D01*
X71897835Y-80668616D01*
X72069973Y-80783635D01*
X72216365Y-80930027D01*
X72321377Y-81087188D01*
X72331385Y-81102167D01*
X72410611Y-81293436D01*
X72451000Y-81496484D01*
X72451000Y-81703516D01*
X72410611Y-81906564D01*
X72403242Y-81924354D01*
X72331384Y-82097835D01*
X72216365Y-82269973D01*
X72069973Y-82416365D01*
X71897835Y-82531384D01*
X71897834Y-82531385D01*
X71897833Y-82531385D01*
X71706564Y-82610611D01*
X71503516Y-82651000D01*
X71296484Y-82651000D01*
X71093436Y-82610611D01*
X70902167Y-82531385D01*
X70902166Y-82531385D01*
X70902165Y-82531384D01*
X70730027Y-82416365D01*
X70583635Y-82269973D01*
X70468616Y-82097835D01*
X70396758Y-81924354D01*
X70389389Y-81906564D01*
X70349000Y-81703516D01*
X70349000Y-81496484D01*
X70389389Y-81293436D01*
X70468615Y-81102167D01*
X70478624Y-81087188D01*
X70583635Y-80930027D01*
X70730027Y-80783635D01*
X70902165Y-80668616D01*
X70902167Y-80668615D01*
X71093436Y-80589389D01*
X71296484Y-80549000D01*
X71503516Y-80549000D01*
X71706564Y-80589389D01*
G37*
G36*
X31913512Y-80453927D02*
G01*
X32062812Y-80483624D01*
X32226784Y-80551544D01*
X32374354Y-80650147D01*
X32499853Y-80775646D01*
X32598456Y-80923216D01*
X32666376Y-81087188D01*
X32701000Y-81261259D01*
X32701000Y-81438741D01*
X32666376Y-81612812D01*
X32598456Y-81776784D01*
X32499853Y-81924354D01*
X32374354Y-82049853D01*
X32226784Y-82148456D01*
X32062812Y-82216376D01*
X31913512Y-82246073D01*
X31888742Y-82251000D01*
X31711258Y-82251000D01*
X31686488Y-82246073D01*
X31537188Y-82216376D01*
X31373216Y-82148456D01*
X31225646Y-82049853D01*
X31100147Y-81924354D01*
X31001544Y-81776784D01*
X30933624Y-81612812D01*
X30899000Y-81438741D01*
X30899000Y-81261259D01*
X30933624Y-81087188D01*
X31001544Y-80923216D01*
X31100147Y-80775646D01*
X31225646Y-80650147D01*
X31373216Y-80551544D01*
X31537188Y-80483624D01*
X31686488Y-80453927D01*
X31711258Y-80449000D01*
X31888742Y-80449000D01*
X31913512Y-80453927D01*
G37*
M02*
